<?xml version="1.0" encoding="UTF-8" standalone="no"?>
<!DOCTYPE svg PUBLIC "-//W3C//DTD SVG 1.1//EN"
 "http://www.w3.org/Graphics/SVG/1.1/DTD/svg11.dtd">
<!-- Generated by graphviz version 2.47.0 (20210316.0004)
 -->
<!-- Title: dependencies Pages: 1 -->
<svg width="2668pt" height="211pt"
 viewBox="0.00 0.00 2668.00 211.00" xmlns="http://www.w3.org/2000/svg" xmlns:xlink="http://www.w3.org/1999/xlink">
<g id="graph0" class="graph" transform="scale(1 1) rotate(0) translate(4 207)">
<title>dependencies</title>
<polygon fill="white" stroke="transparent" points="-4,4 -4,-207 2664,-207 2664,4 -4,4"/>
<text text-anchor="start" x="1309.01" y="-42.4" font-family="Times-12" font-weight="bold" font-size="14.00">Legend</text>
<polygon fill="#ffffb3" stroke="transparent" points="1096,-10 1096,-30 1116,-30 1116,-10 1096,-10"/>
<text text-anchor="start" x="1119.63" y="-15.4" font-family="Times-12" font-size="14.00"> &#160;Declarations</text>
<polygon fill="#8dd3c7" stroke="transparent" points="1209,-10 1209,-30 1229,-30 1229,-10 1209,-10"/>
<text text-anchor="start" x="1232.73" y="-15.4" font-family="Times-12" font-size="14.00"> &#160;Module</text>
<polygon fill="#80b1d3" stroke="transparent" points="1295,-10 1295,-30 1315,-30 1315,-10 1295,-10"/>
<text text-anchor="start" x="1318.78" y="-15.4" font-family="Times-12" font-size="14.00"> &#160;Bootstrap</text>
<polygon fill="#fdb462" stroke="transparent" points="1392,-10 1392,-30 1412,-30 1412,-10 1392,-10"/>
<text text-anchor="start" x="1415.67" y="-15.4" font-family="Times-12" font-size="14.00"> &#160;Providers</text>
<polygon fill="#fb8072" stroke="transparent" points="1488,-10 1488,-30 1508,-30 1508,-10 1488,-10"/>
<text text-anchor="start" x="1511.73" y="-15.4" font-family="Times-12" font-size="14.00"> &#160;Exports</text>
<g id="clust1" class="cluster">
<title>cluster_CoreModule</title>
<polygon fill="none" stroke="black" stroke-dasharray="1,5" points="8,-70 8,-195 2652,-195 2652,-70 8,-70"/>
</g>
<g id="clust6" class="cluster">
<title>cluster_CoreModule_providers</title>
<polygon fill="none" stroke="black" points="16,-78 16,-130 2644,-130 2644,-78 16,-78"/>
</g>
<!-- BooleanDatatype -->
<g id="node1" class="node">
<title>BooleanDatatype</title>
<ellipse fill="#fdb462" stroke="black" cx="2558" cy="-104" rx="78.15" ry="18"/>
<text text-anchor="middle" x="2558" y="-99.8" font-family="Times,serif" font-size="14.00">BooleanDatatype</text>
</g>
<!-- CoreModule -->
<g id="node16" class="node">
<title>CoreModule</title>
<polygon fill="#8dd3c7" stroke="black" points="1367.26,-187 1364.26,-191 1343.26,-191 1340.26,-187 1280.74,-187 1280.74,-151 1367.26,-151 1367.26,-187"/>
<text text-anchor="middle" x="1324" y="-164.8" font-family="Times,serif" font-size="14.00">CoreModule</text>
</g>
<!-- BooleanDatatype&#45;&gt;CoreModule -->
<g id="edge1" class="edge">
<title>BooleanDatatype&#45;&gt;CoreModule</title>
<path fill="none" stroke="black" d="M2558,-122.32C2558,-145.66 2558,-183 2558,-183 2558,-183 1377.56,-183 1377.56,-183"/>
<polygon fill="black" stroke="black" points="1377.56,-179.5 1367.56,-183 1377.56,-186.5 1377.56,-179.5"/>
</g>
<!-- CurrentUserSubject -->
<g id="node2" class="node">
<title>CurrentUserSubject</title>
<ellipse fill="#fdb462" stroke="black" cx="2374" cy="-104" rx="87.96" ry="18"/>
<text text-anchor="middle" x="2374" y="-99.8" font-family="Times,serif" font-size="14.00">CurrentUserSubject</text>
</g>
<!-- CurrentUserSubject&#45;&gt;CoreModule -->
<g id="edge2" class="edge">
<title>CurrentUserSubject&#45;&gt;CoreModule</title>
<path fill="none" stroke="black" d="M2374,-122.29C2374,-144.21 2374,-178 2374,-178 2374,-178 1377.45,-178 1377.45,-178"/>
<polygon fill="black" stroke="black" points="1377.45,-174.5 1367.45,-178 1377.45,-181.5 1377.45,-174.5"/>
</g>
<!-- DateDatatype -->
<g id="node3" class="node">
<title>DateDatatype</title>
<ellipse fill="#fdb462" stroke="black" cx="2204" cy="-104" rx="64.24" ry="18"/>
<text text-anchor="middle" x="2204" y="-99.8" font-family="Times,serif" font-size="14.00">DateDatatype</text>
</g>
<!-- DateDatatype&#45;&gt;CoreModule -->
<g id="edge3" class="edge">
<title>DateDatatype&#45;&gt;CoreModule</title>
<path fill="none" stroke="black" d="M2204,-122.03C2204,-142.77 2204,-174 2204,-174 2204,-174 1377.34,-174 1377.34,-174"/>
<polygon fill="black" stroke="black" points="1377.34,-170.5 1367.34,-174 1377.34,-177.5 1377.34,-170.5"/>
</g>
<!-- DateOnlyDatatype -->
<g id="node4" class="node">
<title>DateOnlyDatatype</title>
<ellipse fill="#fdb462" stroke="black" cx="2038" cy="-104" rx="83.37" ry="18"/>
<text text-anchor="middle" x="2038" y="-99.8" font-family="Times,serif" font-size="14.00">DateOnlyDatatype</text>
</g>
<!-- DateOnlyDatatype&#45;&gt;CoreModule -->
<g id="edge4" class="edge">
<title>DateOnlyDatatype&#45;&gt;CoreModule</title>
<path fill="none" stroke="black" d="M2038,-122.11C2038,-141.34 2038,-169 2038,-169 2038,-169 1377.32,-169 1377.32,-169"/>
<polygon fill="black" stroke="black" points="1377.32,-165.5 1367.32,-169 1377.32,-172.5 1377.32,-165.5"/>
</g>
<!-- DateWithAgeDatatype -->
<g id="node5" class="node">
<title>DateWithAgeDatatype</title>
<ellipse fill="#fdb462" stroke="black" cx="1837" cy="-104" rx="99.54" ry="18"/>
<text text-anchor="middle" x="1837" y="-99.8" font-family="Times,serif" font-size="14.00">DateWithAgeDatatype</text>
</g>
<!-- DateWithAgeDatatype&#45;&gt;CoreModule -->
<g id="edge5" class="edge">
<title>DateWithAgeDatatype&#45;&gt;CoreModule</title>
<path fill="none" stroke="black" d="M1837,-122.3C1837,-140.27 1837,-165 1837,-165 1837,-165 1377.3,-165 1377.3,-165"/>
<polygon fill="black" stroke="black" points="1377.3,-161.5 1367.3,-165 1377.3,-168.5 1377.3,-161.5"/>
</g>
<!-- EmailDatatype -->
<g id="node6" class="node">
<title>EmailDatatype</title>
<ellipse fill="#fdb462" stroke="black" cx="1651" cy="-104" rx="68.92" ry="18"/>
<text text-anchor="middle" x="1651" y="-99.8" font-family="Times,serif" font-size="14.00">EmailDatatype</text>
</g>
<!-- EmailDatatype&#45;&gt;CoreModule -->
<g id="edge6" class="edge">
<title>EmailDatatype&#45;&gt;CoreModule</title>
<path fill="none" stroke="black" d="M1651,-122.03C1651,-138.4 1651,-160 1651,-160 1651,-160 1377.42,-160 1377.42,-160"/>
<polygon fill="black" stroke="black" points="1377.42,-156.5 1367.42,-160 1377.42,-163.5 1377.42,-156.5"/>
</g>
<!-- EntityDatatype -->
<g id="node7" class="node">
<title>EntityDatatype</title>
<ellipse fill="#fdb462" stroke="black" cx="1495" cy="-104" rx="69.5" ry="18"/>
<text text-anchor="middle" x="1495" y="-99.8" font-family="Times,serif" font-size="14.00">EntityDatatype</text>
</g>
<!-- EntityDatatype&#45;&gt;CoreModule -->
<g id="edge7" class="edge">
<title>EntityDatatype&#45;&gt;CoreModule</title>
<path fill="none" stroke="black" d="M1495,-122.19C1495,-137.18 1495,-156 1495,-156 1495,-156 1377.59,-156 1377.59,-156"/>
<polygon fill="black" stroke="black" points="1377.59,-152.5 1367.59,-156 1377.59,-159.5 1377.59,-152.5"/>
</g>
<!-- LongTextDatatype -->
<g id="node8" class="node">
<title>LongTextDatatype</title>
<ellipse fill="#fdb462" stroke="black" cx="1324" cy="-104" rx="83.95" ry="18"/>
<text text-anchor="middle" x="1324" y="-99.8" font-family="Times,serif" font-size="14.00">LongTextDatatype</text>
</g>
<!-- LongTextDatatype&#45;&gt;CoreModule -->
<g id="edge8" class="edge">
<title>LongTextDatatype&#45;&gt;CoreModule</title>
<path fill="none" stroke="black" d="M1324,-122.11C1324,-122.11 1324,-140.99 1324,-140.99"/>
<polygon fill="black" stroke="black" points="1320.5,-140.99 1324,-150.99 1327.5,-140.99 1320.5,-140.99"/>
</g>
<!-- MonthDatatype -->
<g id="node9" class="node">
<title>MonthDatatype</title>
<ellipse fill="#fdb462" stroke="black" cx="1150" cy="-104" rx="71.79" ry="18"/>
<text text-anchor="middle" x="1150" y="-99.8" font-family="Times,serif" font-size="14.00">MonthDatatype</text>
</g>
<!-- MonthDatatype&#45;&gt;CoreModule -->
<g id="edge9" class="edge">
<title>MonthDatatype&#45;&gt;CoreModule</title>
<path fill="none" stroke="black" d="M1150,-122.19C1150,-137.18 1150,-156 1150,-156 1150,-156 1270.54,-156 1270.54,-156"/>
<polygon fill="black" stroke="black" points="1270.54,-159.5 1280.54,-156 1270.54,-152.5 1270.54,-159.5"/>
</g>
<!-- NumberDatatype -->
<g id="node10" class="node">
<title>NumberDatatype</title>
<ellipse fill="#fdb462" stroke="black" cx="983" cy="-104" rx="77.57" ry="18"/>
<text text-anchor="middle" x="983" y="-99.8" font-family="Times,serif" font-size="14.00">NumberDatatype</text>
</g>
<!-- NumberDatatype&#45;&gt;CoreModule -->
<g id="edge10" class="edge">
<title>NumberDatatype&#45;&gt;CoreModule</title>
<path fill="none" stroke="black" d="M983,-122.03C983,-138.4 983,-160 983,-160 983,-160 1270.47,-160 1270.47,-160"/>
<polygon fill="black" stroke="black" points="1270.47,-163.5 1280.47,-160 1270.47,-156.5 1270.47,-163.5"/>
</g>
<!-- PercentageDatatype -->
<g id="node11" class="node">
<title>PercentageDatatype</title>
<ellipse fill="#fdb462" stroke="black" cx="799" cy="-104" rx="88.5" ry="18"/>
<text text-anchor="middle" x="799" y="-99.8" font-family="Times,serif" font-size="14.00">PercentageDatatype</text>
</g>
<!-- PercentageDatatype&#45;&gt;CoreModule -->
<g id="edge11" class="edge">
<title>PercentageDatatype&#45;&gt;CoreModule</title>
<path fill="none" stroke="black" d="M799,-122.3C799,-140.27 799,-165 799,-165 799,-165 1270.59,-165 1270.59,-165"/>
<polygon fill="black" stroke="black" points="1270.59,-168.5 1280.59,-165 1270.59,-161.5 1270.59,-168.5"/>
</g>
<!-- SessionSubject -->
<g id="node12" class="node">
<title>SessionSubject</title>
<ellipse fill="#fdb462" stroke="black" cx="623" cy="-104" rx="69.52" ry="18"/>
<text text-anchor="middle" x="623" y="-99.8" font-family="Times,serif" font-size="14.00">SessionSubject</text>
</g>
<!-- SessionSubject&#45;&gt;CoreModule -->
<g id="edge12" class="edge">
<title>SessionSubject&#45;&gt;CoreModule</title>
<path fill="none" stroke="black" d="M623,-122.11C623,-141.34 623,-169 623,-169 623,-169 1270.68,-169 1270.68,-169"/>
<polygon fill="black" stroke="black" points="1270.68,-172.5 1280.68,-169 1270.68,-165.5 1270.68,-172.5"/>
</g>
<!-- StringDatatype -->
<g id="node13" class="node">
<title>StringDatatype</title>
<ellipse fill="#fdb462" stroke="black" cx="466" cy="-104" rx="69.5" ry="18"/>
<text text-anchor="middle" x="466" y="-99.8" font-family="Times,serif" font-size="14.00">StringDatatype</text>
</g>
<!-- StringDatatype&#45;&gt;CoreModule -->
<g id="edge13" class="edge">
<title>StringDatatype&#45;&gt;CoreModule</title>
<path fill="none" stroke="black" d="M466,-122.03C466,-142.77 466,-174 466,-174 466,-174 1270.57,-174 1270.57,-174"/>
<polygon fill="black" stroke="black" points="1270.57,-177.5 1280.57,-174 1270.57,-170.5 1270.57,-177.5"/>
</g>
<!-- UpdateMetadataDatatype -->
<g id="node14" class="node">
<title>UpdateMetadataDatatype</title>
<ellipse fill="#fdb462" stroke="black" cx="269" cy="-104" rx="109.91" ry="18"/>
<text text-anchor="middle" x="269" y="-99.8" font-family="Times,serif" font-size="14.00">UpdateMetadataDatatype</text>
</g>
<!-- UpdateMetadataDatatype&#45;&gt;CoreModule -->
<g id="edge14" class="edge">
<title>UpdateMetadataDatatype&#45;&gt;CoreModule</title>
<path fill="none" stroke="black" d="M269,-122.29C269,-144.21 269,-178 269,-178 269,-178 1270.68,-178 1270.68,-178"/>
<polygon fill="black" stroke="black" points="1270.68,-181.5 1280.68,-178 1270.68,-174.5 1270.68,-181.5"/>
</g>
<!-- UrlDatatype -->
<g id="node15" class="node">
<title>UrlDatatype</title>
<ellipse fill="#fdb462" stroke="black" cx="83" cy="-104" rx="58.53" ry="18"/>
<text text-anchor="middle" x="83" y="-99.8" font-family="Times,serif" font-size="14.00">UrlDatatype</text>
</g>
<!-- UrlDatatype&#45;&gt;CoreModule -->
<g id="edge15" class="edge">
<title>UrlDatatype&#45;&gt;CoreModule</title>
<path fill="none" stroke="black" d="M83,-122.32C83,-145.66 83,-183 83,-183 83,-183 1270.56,-183 1270.56,-183"/>
<polygon fill="black" stroke="black" points="1270.56,-186.5 1280.56,-183 1270.56,-179.5 1270.56,-186.5"/>
</g>
</g>
</svg>
