<?xml version="1.0" encoding="UTF-8" standalone="no"?>
<!DOCTYPE svg PUBLIC "-//W3C//DTD SVG 1.1//EN"
 "http://www.w3.org/Graphics/SVG/1.1/DTD/svg11.dtd">
<!-- Generated by graphviz version 2.47.0 (20210316.0004)
 -->
<!-- Title: dependencies Pages: 1 -->
<svg width="504pt" height="211pt"
 viewBox="0.00 0.00 504.00 211.00" xmlns="http://www.w3.org/2000/svg" xmlns:xlink="http://www.w3.org/1999/xlink">
<g id="graph0" class="graph" transform="scale(1 1) rotate(0) translate(4 207)">
<title>dependencies</title>
<polygon fill="white" stroke="transparent" points="-4,4 -4,-207 500,-207 500,4 -4,4"/>
<text text-anchor="start" x="227.01" y="-42.4" font-family="Times-12" font-weight="bold" font-size="14.00">Legend</text>
<polygon fill="#ffffb3" stroke="transparent" points="14,-10 14,-30 34,-30 34,-10 14,-10"/>
<text text-anchor="start" x="37.63" y="-15.4" font-family="Times-12" font-size="14.00"> &#160;Declarations</text>
<polygon fill="#8dd3c7" stroke="transparent" points="127,-10 127,-30 147,-30 147,-10 127,-10"/>
<text text-anchor="start" x="150.73" y="-15.4" font-family="Times-12" font-size="14.00"> &#160;Module</text>
<polygon fill="#80b1d3" stroke="transparent" points="213,-10 213,-30 233,-30 233,-10 213,-10"/>
<text text-anchor="start" x="236.78" y="-15.4" font-family="Times-12" font-size="14.00"> &#160;Bootstrap</text>
<polygon fill="#fdb462" stroke="transparent" points="310,-10 310,-30 330,-30 330,-10 310,-10"/>
<text text-anchor="start" x="333.67" y="-15.4" font-family="Times-12" font-size="14.00"> &#160;Providers</text>
<polygon fill="#fb8072" stroke="transparent" points="406,-10 406,-30 426,-30 426,-10 406,-10"/>
<text text-anchor="start" x="429.73" y="-15.4" font-family="Times-12" font-size="14.00"> &#160;Exports</text>
<g id="clust1" class="cluster">
<title>cluster_CoreModule</title>
<polygon fill="none" stroke="black" stroke-dasharray="1,5" points="65.5,-70 65.5,-195 430.5,-195 430.5,-70 65.5,-70"/>
</g>
<g id="clust6" class="cluster">
<title>cluster_CoreModule_providers</title>
<polygon fill="none" stroke="black" points="73.5,-78 73.5,-130 422.5,-130 422.5,-78 73.5,-78"/>
</g>
<!-- CurrentUserSubject -->
<g id="node1" class="node">
<title>CurrentUserSubject</title>
<ellipse fill="#fdb462" stroke="black" cx="326.5" cy="-104" rx="87.96" ry="18"/>
<text text-anchor="middle" x="326.5" y="-99.8" font-family="Times,serif" font-size="14.00">CurrentUserSubject</text>
</g>
<!-- CoreModule -->
<g id="node3" class="node">
<title>CoreModule</title>
<polygon fill="#8dd3c7" stroke="black" points="281.76,-187 278.76,-191 257.76,-191 254.76,-187 195.24,-187 195.24,-151 281.76,-151 281.76,-187"/>
<text text-anchor="middle" x="238.5" y="-164.8" font-family="Times,serif" font-size="14.00">CoreModule</text>
</g>
<!-- CurrentUserSubject&#45;&gt;CoreModule -->
<g id="edge1" class="edge">
<title>CurrentUserSubject&#45;&gt;CoreModule</title>
<path fill="none" stroke="black" d="M260.33,-115.92C260.33,-115.92 260.33,-140.77 260.33,-140.77"/>
<polygon fill="black" stroke="black" points="256.83,-140.77 260.33,-150.77 263.83,-140.77 256.83,-140.77"/>
</g>
<!-- SessionSubject -->
<g id="node2" class="node">
<title>SessionSubject</title>
<ellipse fill="#fdb462" stroke="black" cx="151.5" cy="-104" rx="69.52" ry="18"/>
<text text-anchor="middle" x="151.5" y="-99.8" font-family="Times,serif" font-size="14.00">SessionSubject</text>
</g>
<!-- SessionSubject&#45;&gt;CoreModule -->
<g id="edge2" class="edge">
<title>SessionSubject&#45;&gt;CoreModule</title>
<path fill="none" stroke="black" d="M208.06,-114.73C208.06,-114.73 208.06,-140.87 208.06,-140.87"/>
<polygon fill="black" stroke="black" points="204.56,-140.87 208.06,-150.87 211.56,-140.87 204.56,-140.87"/>
</g>
</g>
</svg>
