<?xml version="1.0" encoding="UTF-8" standalone="no"?>
<!DOCTYPE svg PUBLIC "-//W3C//DTD SVG 1.1//EN"
 "http://www.w3.org/Graphics/SVG/1.1/DTD/svg11.dtd">
<!-- Generated by graphviz version 2.47.0 (20210316.0004)
 -->
<!-- Title: dependencies Pages: 1 -->
<svg width="2893pt" height="211pt"
 viewBox="0.00 0.00 2893.00 211.00" xmlns="http://www.w3.org/2000/svg" xmlns:xlink="http://www.w3.org/1999/xlink">
<g id="graph0" class="graph" transform="scale(1 1) rotate(0) translate(4 207)">
<title>dependencies</title>
<polygon fill="white" stroke="transparent" points="-4,4 -4,-207 2889,-207 2889,4 -4,4"/>
<text text-anchor="start" x="1421.51" y="-42.4" font-family="Times-12" font-weight="bold" font-size="14.00">Legend</text>
<polygon fill="#ffffb3" stroke="transparent" points="1208.5,-10 1208.5,-30 1228.5,-30 1228.5,-10 1208.5,-10"/>
<text text-anchor="start" x="1232.13" y="-15.4" font-family="Times-12" font-size="14.00"> &#160;Declarations</text>
<polygon fill="#8dd3c7" stroke="transparent" points="1321.5,-10 1321.5,-30 1341.5,-30 1341.5,-10 1321.5,-10"/>
<text text-anchor="start" x="1345.23" y="-15.4" font-family="Times-12" font-size="14.00"> &#160;Module</text>
<polygon fill="#80b1d3" stroke="transparent" points="1407.5,-10 1407.5,-30 1427.5,-30 1427.5,-10 1407.5,-10"/>
<text text-anchor="start" x="1431.28" y="-15.4" font-family="Times-12" font-size="14.00"> &#160;Bootstrap</text>
<polygon fill="#fdb462" stroke="transparent" points="1504.5,-10 1504.5,-30 1524.5,-30 1524.5,-10 1504.5,-10"/>
<text text-anchor="start" x="1528.17" y="-15.4" font-family="Times-12" font-size="14.00"> &#160;Providers</text>
<polygon fill="#fb8072" stroke="transparent" points="1600.5,-10 1600.5,-30 1620.5,-30 1620.5,-10 1600.5,-10"/>
<text text-anchor="start" x="1624.23" y="-15.4" font-family="Times-12" font-size="14.00"> &#160;Exports</text>
<g id="clust1" class="cluster">
<title>cluster_CoreModule</title>
<polygon fill="none" stroke="black" stroke-dasharray="1,5" points="8,-70 8,-195 2877,-195 2877,-70 8,-70"/>
</g>
<g id="clust6" class="cluster">
<title>cluster_CoreModule_providers</title>
<polygon fill="none" stroke="black" points="16,-78 16,-130 2869,-130 2869,-78 16,-78"/>
</g>
<!-- BooleanDatatype -->
<g id="node1" class="node">
<title>BooleanDatatype</title>
<ellipse fill="#fdb462" stroke="black" cx="2783" cy="-104" rx="78.15" ry="18"/>
<text text-anchor="middle" x="2783" y="-99.8" font-family="Times,serif" font-size="14.00">BooleanDatatype</text>
</g>
<!-- CoreModule -->
<g id="node17" class="node">
<title>CoreModule</title>
<polygon fill="#8dd3c7" stroke="black" points="1505.26,-187 1502.26,-191 1481.26,-191 1478.26,-187 1418.74,-187 1418.74,-151 1505.26,-151 1505.26,-187"/>
<text text-anchor="middle" x="1462" y="-164.8" font-family="Times,serif" font-size="14.00">CoreModule</text>
</g>
<!-- BooleanDatatype&#45;&gt;CoreModule -->
<g id="edge1" class="edge">
<title>BooleanDatatype&#45;&gt;CoreModule</title>
<path fill="none" stroke="black" d="M2783,-122.32C2783,-145.66 2783,-183 2783,-183 2783,-183 1515.58,-183 1515.58,-183"/>
<polygon fill="black" stroke="black" points="1515.58,-179.5 1505.58,-183 1515.58,-186.5 1515.58,-179.5"/>
</g>
<!-- CurrentUserSubject -->
<g id="node2" class="node">
<title>CurrentUserSubject</title>
<ellipse fill="#fdb462" stroke="black" cx="2599" cy="-104" rx="87.96" ry="18"/>
<text text-anchor="middle" x="2599" y="-99.8" font-family="Times,serif" font-size="14.00">CurrentUserSubject</text>
</g>
<!-- CurrentUserSubject&#45;&gt;CoreModule -->
<g id="edge2" class="edge">
<title>CurrentUserSubject&#45;&gt;CoreModule</title>
<path fill="none" stroke="black" d="M2599,-122.29C2599,-144.21 2599,-178 2599,-178 2599,-178 1515.53,-178 1515.53,-178"/>
<polygon fill="black" stroke="black" points="1515.53,-174.5 1505.53,-178 1515.53,-181.5 1515.53,-174.5"/>
</g>
<!-- DateDatatype -->
<g id="node3" class="node">
<title>DateDatatype</title>
<ellipse fill="#fdb462" stroke="black" cx="2429" cy="-104" rx="64.24" ry="18"/>
<text text-anchor="middle" x="2429" y="-99.8" font-family="Times,serif" font-size="14.00">DateDatatype</text>
</g>
<!-- DateDatatype&#45;&gt;CoreModule -->
<g id="edge3" class="edge">
<title>DateDatatype&#45;&gt;CoreModule</title>
<path fill="none" stroke="black" d="M2429,-122.03C2429,-142.77 2429,-174 2429,-174 2429,-174 1515.43,-174 1515.43,-174"/>
<polygon fill="black" stroke="black" points="1515.43,-170.5 1505.43,-174 1515.43,-177.5 1515.43,-170.5"/>
</g>
<!-- DateOnlyDatatype -->
<g id="node4" class="node">
<title>DateOnlyDatatype</title>
<ellipse fill="#fdb462" stroke="black" cx="2263" cy="-104" rx="83.37" ry="18"/>
<text text-anchor="middle" x="2263" y="-99.8" font-family="Times,serif" font-size="14.00">DateOnlyDatatype</text>
</g>
<!-- DateOnlyDatatype&#45;&gt;CoreModule -->
<g id="edge4" class="edge">
<title>DateOnlyDatatype&#45;&gt;CoreModule</title>
<path fill="none" stroke="black" d="M2263,-122.11C2263,-141.34 2263,-169 2263,-169 2263,-169 1515.35,-169 1515.35,-169"/>
<polygon fill="black" stroke="black" points="1515.35,-165.5 1505.35,-169 1515.35,-172.5 1515.35,-165.5"/>
</g>
<!-- DateWithAgeDatatype -->
<g id="node5" class="node">
<title>DateWithAgeDatatype</title>
<ellipse fill="#fdb462" stroke="black" cx="2062" cy="-104" rx="99.54" ry="18"/>
<text text-anchor="middle" x="2062" y="-99.8" font-family="Times,serif" font-size="14.00">DateWithAgeDatatype</text>
</g>
<!-- DateWithAgeDatatype&#45;&gt;CoreModule -->
<g id="edge5" class="edge">
<title>DateWithAgeDatatype&#45;&gt;CoreModule</title>
<path fill="none" stroke="black" d="M2062,-122.3C2062,-140.27 2062,-165 2062,-165 2062,-165 1515.63,-165 1515.63,-165"/>
<polygon fill="black" stroke="black" points="1515.63,-161.5 1505.63,-165 1515.63,-168.5 1515.63,-161.5"/>
</g>
<!-- EmailDatatype -->
<g id="node6" class="node">
<title>EmailDatatype</title>
<ellipse fill="#fdb462" stroke="black" cx="1876" cy="-104" rx="68.92" ry="18"/>
<text text-anchor="middle" x="1876" y="-99.8" font-family="Times,serif" font-size="14.00">EmailDatatype</text>
</g>
<!-- EmailDatatype&#45;&gt;CoreModule -->
<g id="edge6" class="edge">
<title>EmailDatatype&#45;&gt;CoreModule</title>
<path fill="none" stroke="black" d="M1876,-122.03C1876,-138.4 1876,-160 1876,-160 1876,-160 1515.52,-160 1515.52,-160"/>
<polygon fill="black" stroke="black" points="1515.52,-156.5 1505.52,-160 1515.52,-163.5 1515.52,-156.5"/>
</g>
<!-- EntityDatatype -->
<g id="node7" class="node">
<title>EntityDatatype</title>
<ellipse fill="#fdb462" stroke="black" cx="1720" cy="-104" rx="69.5" ry="18"/>
<text text-anchor="middle" x="1720" y="-99.8" font-family="Times,serif" font-size="14.00">EntityDatatype</text>
</g>
<!-- EntityDatatype&#45;&gt;CoreModule -->
<g id="edge7" class="edge">
<title>EntityDatatype&#45;&gt;CoreModule</title>
<path fill="none" stroke="black" d="M1720,-122.19C1720,-137.18 1720,-156 1720,-156 1720,-156 1515.47,-156 1515.47,-156"/>
<polygon fill="black" stroke="black" points="1515.47,-152.5 1505.47,-156 1515.47,-159.5 1515.47,-152.5"/>
</g>
<!-- LongTextDatatype -->
<g id="node8" class="node">
<title>LongTextDatatype</title>
<ellipse fill="#fdb462" stroke="black" cx="1549" cy="-104" rx="83.95" ry="18"/>
<text text-anchor="middle" x="1549" y="-99.8" font-family="Times,serif" font-size="14.00">LongTextDatatype</text>
</g>
<!-- LongTextDatatype&#45;&gt;CoreModule -->
<g id="edge8" class="edge">
<title>LongTextDatatype&#45;&gt;CoreModule</title>
<path fill="none" stroke="black" d="M1485.2,-115.92C1485.2,-115.92 1485.2,-140.77 1485.2,-140.77"/>
<polygon fill="black" stroke="black" points="1481.7,-140.77 1485.2,-150.77 1488.7,-140.77 1481.7,-140.77"/>
</g>
<!-- MonthDatatype -->
<g id="node9" class="node">
<title>MonthDatatype</title>
<ellipse fill="#fdb462" stroke="black" cx="1375" cy="-104" rx="71.79" ry="18"/>
<text text-anchor="middle" x="1375" y="-99.8" font-family="Times,serif" font-size="14.00">MonthDatatype</text>
</g>
<!-- MonthDatatype&#45;&gt;CoreModule -->
<g id="edge9" class="edge">
<title>MonthDatatype&#45;&gt;CoreModule</title>
<path fill="none" stroke="black" d="M1432.63,-114.73C1432.63,-114.73 1432.63,-140.87 1432.63,-140.87"/>
<polygon fill="black" stroke="black" points="1429.13,-140.87 1432.63,-150.87 1436.13,-140.87 1429.13,-140.87"/>
</g>
<!-- NumberDatatype -->
<g id="node10" class="node">
<title>NumberDatatype</title>
<ellipse fill="#fdb462" stroke="black" cx="1208" cy="-104" rx="77.57" ry="18"/>
<text text-anchor="middle" x="1208" y="-99.8" font-family="Times,serif" font-size="14.00">NumberDatatype</text>
</g>
<!-- NumberDatatype&#45;&gt;CoreModule -->
<g id="edge10" class="edge">
<title>NumberDatatype&#45;&gt;CoreModule</title>
<path fill="none" stroke="black" d="M1208,-122.19C1208,-137.18 1208,-156 1208,-156 1208,-156 1408.62,-156 1408.62,-156"/>
<polygon fill="black" stroke="black" points="1408.62,-159.5 1418.62,-156 1408.62,-152.5 1408.62,-159.5"/>
</g>
<!-- PercentageDatatype -->
<g id="node11" class="node">
<title>PercentageDatatype</title>
<ellipse fill="#fdb462" stroke="black" cx="1024" cy="-104" rx="88.5" ry="18"/>
<text text-anchor="middle" x="1024" y="-99.8" font-family="Times,serif" font-size="14.00">PercentageDatatype</text>
</g>
<!-- PercentageDatatype&#45;&gt;CoreModule -->
<g id="edge11" class="edge">
<title>PercentageDatatype&#45;&gt;CoreModule</title>
<path fill="none" stroke="black" d="M1024,-122.03C1024,-138.4 1024,-160 1024,-160 1024,-160 1408.4,-160 1408.4,-160"/>
<polygon fill="black" stroke="black" points="1408.4,-163.5 1418.4,-160 1408.4,-156.5 1408.4,-163.5"/>
</g>
<!-- SchemaEmbedDatatype -->
<g id="node12" class="node">
<title>SchemaEmbedDatatype</title>
<ellipse fill="#fdb462" stroke="black" cx="814" cy="-104" rx="103.63" ry="18"/>
<text text-anchor="middle" x="814" y="-99.8" font-family="Times,serif" font-size="14.00">SchemaEmbedDatatype</text>
</g>
<!-- SchemaEmbedDatatype&#45;&gt;CoreModule -->
<g id="edge12" class="edge">
<title>SchemaEmbedDatatype&#45;&gt;CoreModule</title>
<path fill="none" stroke="black" d="M814,-122.3C814,-140.27 814,-165 814,-165 814,-165 1408.73,-165 1408.73,-165"/>
<polygon fill="black" stroke="black" points="1408.73,-168.5 1418.73,-165 1408.73,-161.5 1408.73,-168.5"/>
</g>
<!-- SessionSubject -->
<g id="node13" class="node">
<title>SessionSubject</title>
<ellipse fill="#fdb462" stroke="black" cx="623" cy="-104" rx="69.52" ry="18"/>
<text text-anchor="middle" x="623" y="-99.8" font-family="Times,serif" font-size="14.00">SessionSubject</text>
</g>
<!-- SessionSubject&#45;&gt;CoreModule -->
<g id="edge13" class="edge">
<title>SessionSubject&#45;&gt;CoreModule</title>
<path fill="none" stroke="black" d="M623,-122.11C623,-141.34 623,-169 623,-169 623,-169 1408.66,-169 1408.66,-169"/>
<polygon fill="black" stroke="black" points="1408.66,-172.5 1418.66,-169 1408.66,-165.5 1408.66,-172.5"/>
</g>
<!-- StringDatatype -->
<g id="node14" class="node">
<title>StringDatatype</title>
<ellipse fill="#fdb462" stroke="black" cx="466" cy="-104" rx="69.5" ry="18"/>
<text text-anchor="middle" x="466" y="-99.8" font-family="Times,serif" font-size="14.00">StringDatatype</text>
</g>
<!-- StringDatatype&#45;&gt;CoreModule -->
<g id="edge14" class="edge">
<title>StringDatatype&#45;&gt;CoreModule</title>
<path fill="none" stroke="black" d="M466,-122.03C466,-142.77 466,-174 466,-174 466,-174 1408.56,-174 1408.56,-174"/>
<polygon fill="black" stroke="black" points="1408.56,-177.5 1418.56,-174 1408.56,-170.5 1408.56,-177.5"/>
</g>
<!-- UpdateMetadataDatatype -->
<g id="node15" class="node">
<title>UpdateMetadataDatatype</title>
<ellipse fill="#fdb462" stroke="black" cx="269" cy="-104" rx="109.91" ry="18"/>
<text text-anchor="middle" x="269" y="-99.8" font-family="Times,serif" font-size="14.00">UpdateMetadataDatatype</text>
</g>
<!-- UpdateMetadataDatatype&#45;&gt;CoreModule -->
<g id="edge15" class="edge">
<title>UpdateMetadataDatatype&#45;&gt;CoreModule</title>
<path fill="none" stroke="black" d="M269,-122.29C269,-144.21 269,-178 269,-178 269,-178 1408.48,-178 1408.48,-178"/>
<polygon fill="black" stroke="black" points="1408.48,-181.5 1418.48,-178 1408.48,-174.5 1408.48,-181.5"/>
</g>
<!-- UrlDatatype -->
<g id="node16" class="node">
<title>UrlDatatype</title>
<ellipse fill="#fdb462" stroke="black" cx="83" cy="-104" rx="58.53" ry="18"/>
<text text-anchor="middle" x="83" y="-99.8" font-family="Times,serif" font-size="14.00">UrlDatatype</text>
</g>
<!-- UrlDatatype&#45;&gt;CoreModule -->
<g id="edge16" class="edge">
<title>UrlDatatype&#45;&gt;CoreModule</title>
<path fill="none" stroke="black" d="M83,-122.32C83,-145.66 83,-183 83,-183 83,-183 1408.45,-183 1408.45,-183"/>
<polygon fill="black" stroke="black" points="1408.45,-186.5 1418.45,-183 1408.45,-179.5 1408.45,-186.5"/>
</g>
</g>
</svg>
