<?xml version="1.0" encoding="UTF-8" standalone="no"?>
<!DOCTYPE svg PUBLIC "-//W3C//DTD SVG 1.1//EN"
 "http://www.w3.org/Graphics/SVG/1.1/DTD/svg11.dtd">
<!-- Generated by graphviz version 2.47.0 (20210316.0004)
 -->
<!-- Title: dependencies Pages: 1 -->
<svg width="1553pt" height="211pt"
 viewBox="0.00 0.00 1553.00 211.00" xmlns="http://www.w3.org/2000/svg" xmlns:xlink="http://www.w3.org/1999/xlink">
<g id="graph0" class="graph" transform="scale(1 1) rotate(0) translate(4 207)">
<title>dependencies</title>
<polygon fill="white" stroke="transparent" points="-4,4 -4,-207 1549,-207 1549,4 -4,4"/>
<text text-anchor="start" x="751.51" y="-42.4" font-family="Times-12" font-weight="bold" font-size="14.00">Legend</text>
<polygon fill="#ffffb3" stroke="transparent" points="538.5,-10 538.5,-30 558.5,-30 558.5,-10 538.5,-10"/>
<text text-anchor="start" x="562.13" y="-15.4" font-family="Times-12" font-size="14.00"> &#160;Declarations</text>
<polygon fill="#8dd3c7" stroke="transparent" points="651.5,-10 651.5,-30 671.5,-30 671.5,-10 651.5,-10"/>
<text text-anchor="start" x="675.23" y="-15.4" font-family="Times-12" font-size="14.00"> &#160;Module</text>
<polygon fill="#80b1d3" stroke="transparent" points="737.5,-10 737.5,-30 757.5,-30 757.5,-10 737.5,-10"/>
<text text-anchor="start" x="761.28" y="-15.4" font-family="Times-12" font-size="14.00"> &#160;Bootstrap</text>
<polygon fill="#fdb462" stroke="transparent" points="834.5,-10 834.5,-30 854.5,-30 854.5,-10 834.5,-10"/>
<text text-anchor="start" x="858.17" y="-15.4" font-family="Times-12" font-size="14.00"> &#160;Providers</text>
<polygon fill="#fb8072" stroke="transparent" points="930.5,-10 930.5,-30 950.5,-30 950.5,-10 930.5,-10"/>
<text text-anchor="start" x="954.23" y="-15.4" font-family="Times-12" font-size="14.00"> &#160;Exports</text>
<g id="clust1" class="cluster">
<title>cluster_StorybookBaseModule</title>
<polygon fill="none" stroke="black" stroke-dasharray="1,5" points="8,-70 8,-195 1537,-195 1537,-70 8,-70"/>
</g>
<g id="clust3" class="cluster">
<title>cluster_StorybookBaseModule_imports</title>
<polygon fill="none" stroke="black" points="1427,-78 1427,-130 1529,-130 1529,-78 1427,-78"/>
</g>
<g id="clust6" class="cluster">
<title>cluster_StorybookBaseModule_providers</title>
<polygon fill="none" stroke="black" points="16,-78 16,-130 1419,-130 1419,-78 16,-78"/>
</g>
<!-- CoreModule -->
<g id="node1" class="node">
<title>CoreModule</title>
<polygon fill="#8dd3c7" stroke="black" points="1521.26,-122 1518.26,-126 1497.26,-126 1494.26,-122 1434.74,-122 1434.74,-86 1521.26,-86 1521.26,-122"/>
<text text-anchor="middle" x="1478" y="-99.8" font-family="Times,serif" font-size="14.00">CoreModule</text>
</g>
<!-- StorybookBaseModule -->
<g id="node2" class="node">
<title>StorybookBaseModule</title>
<polygon fill="#8dd3c7" stroke="black" points="876.59,-187 873.59,-191 852.59,-191 849.59,-187 731.41,-187 731.41,-151 876.59,-151 876.59,-187"/>
<text text-anchor="middle" x="804" y="-164.8" font-family="Times,serif" font-size="14.00">StorybookBaseModule</text>
</g>
<!-- CoreModule&#45;&gt;StorybookBaseModule -->
<g id="edge1" class="edge">
<title>CoreModule&#45;&gt;StorybookBaseModule</title>
<path fill="none" stroke="black" d="M1478,-122.29C1478,-144.21 1478,-178 1478,-178 1478,-178 886.77,-178 886.77,-178"/>
<polygon fill="black" stroke="black" points="886.77,-174.5 876.77,-178 886.77,-181.5 886.77,-174.5"/>
</g>
<!-- AnalyticsService -->
<g id="node3" class="node">
<title>AnalyticsService</title>
<ellipse fill="#fdb462" stroke="black" cx="1334" cy="-104" rx="77" ry="18"/>
<text text-anchor="middle" x="1334" y="-99.8" font-family="Times,serif" font-size="14.00">AnalyticsService</text>
</g>
<!-- AnalyticsService&#45;&gt;StorybookBaseModule -->
<g id="edge2" class="edge">
<title>AnalyticsService&#45;&gt;StorybookBaseModule</title>
<path fill="none" stroke="black" d="M1334,-122.11C1334,-141.34 1334,-169 1334,-169 1334,-169 886.58,-169 886.58,-169"/>
<polygon fill="black" stroke="black" points="886.58,-165.5 876.58,-169 886.58,-172.5 886.58,-165.5"/>
</g>
<!-- DatabaseResolverService -->
<g id="node4" class="node">
<title>DatabaseResolverService</title>
<ellipse fill="#fdb462" stroke="black" cx="1129" cy="-104" rx="109.91" ry="18"/>
<text text-anchor="middle" x="1129" y="-99.8" font-family="Times,serif" font-size="14.00">DatabaseResolverService</text>
</g>
<!-- DatabaseResolverService&#45;&gt;StorybookBaseModule -->
<g id="edge3" class="edge">
<title>DatabaseResolverService&#45;&gt;StorybookBaseModule</title>
<path fill="none" stroke="black" d="M1129,-122.03C1129,-138.4 1129,-160 1129,-160 1129,-160 886.94,-160 886.94,-160"/>
<polygon fill="black" stroke="black" points="886.94,-156.5 876.94,-160 886.94,-163.5 886.94,-156.5"/>
</g>
<!-- EntityActionsService -->
<g id="node5" class="node">
<title>EntityActionsService</title>
<ellipse fill="#fdb462" stroke="black" cx="908" cy="-104" rx="93.77" ry="18"/>
<text text-anchor="middle" x="908" y="-99.8" font-family="Times,serif" font-size="14.00">EntityActionsService</text>
</g>
<!-- EntityActionsService&#45;&gt;StorybookBaseModule -->
<g id="edge4" class="edge">
<title>EntityActionsService&#45;&gt;StorybookBaseModule</title>
<path fill="none" stroke="black" d="M845.45,-117.47C845.45,-117.47 845.45,-140.86 845.45,-140.86"/>
<polygon fill="black" stroke="black" points="841.96,-140.86 845.45,-150.86 848.96,-140.86 841.96,-140.86"/>
</g>
<!-- KeycloakAuthService -->
<g id="node6" class="node">
<title>KeycloakAuthService</title>
<ellipse fill="#fdb462" stroke="black" cx="700" cy="-104" rx="96.11" ry="18"/>
<text text-anchor="middle" x="700" y="-99.8" font-family="Times,serif" font-size="14.00">KeycloakAuthService</text>
</g>
<!-- KeycloakAuthService&#45;&gt;StorybookBaseModule -->
<g id="edge5" class="edge">
<title>KeycloakAuthService&#45;&gt;StorybookBaseModule</title>
<path fill="none" stroke="black" d="M763.88,-117.78C763.88,-117.78 763.88,-140.55 763.88,-140.55"/>
<polygon fill="black" stroke="black" points="760.38,-140.55 763.88,-150.55 767.38,-140.55 760.38,-140.55"/>
</g>
<!-- SessionSubject -->
<g id="node7" class="node">
<title>SessionSubject</title>
<ellipse fill="#fdb462" stroke="black" cx="516" cy="-104" rx="69.52" ry="18"/>
<text text-anchor="middle" x="516" y="-99.8" font-family="Times,serif" font-size="14.00">SessionSubject</text>
</g>
<!-- SessionSubject&#45;&gt;StorybookBaseModule -->
<g id="edge6" class="edge">
<title>SessionSubject&#45;&gt;StorybookBaseModule</title>
<path fill="none" stroke="black" d="M516,-122.03C516,-138.4 516,-160 516,-160 516,-160 721.33,-160 721.33,-160"/>
<polygon fill="black" stroke="black" points="721.33,-163.5 731.33,-160 721.33,-156.5 721.33,-163.5"/>
</g>
<!-- StaticDefaultValueService -->
<g id="node8" class="node">
<title>StaticDefaultValueService</title>
<ellipse fill="#fdb462" stroke="black" cx="314" cy="-104" rx="113.99" ry="18"/>
<text text-anchor="middle" x="314" y="-99.8" font-family="Times,serif" font-size="14.00">StaticDefaultValueService</text>
</g>
<!-- StaticDefaultValueService&#45;&gt;StorybookBaseModule -->
<g id="edge7" class="edge">
<title>StaticDefaultValueService&#45;&gt;StorybookBaseModule</title>
<path fill="none" stroke="black" d="M314,-122.11C314,-141.34 314,-169 314,-169 314,-169 721.44,-169 721.44,-169"/>
<polygon fill="black" stroke="black" points="721.44,-172.5 731.44,-169 721.44,-165.5 721.44,-172.5"/>
</g>
<!-- SyncStateSubject -->
<g id="node9" class="node">
<title>SyncStateSubject</title>
<ellipse fill="#fdb462" stroke="black" cx="103" cy="-104" rx="78.75" ry="18"/>
<text text-anchor="middle" x="103" y="-99.8" font-family="Times,serif" font-size="14.00">SyncStateSubject</text>
</g>
<!-- SyncStateSubject&#45;&gt;StorybookBaseModule -->
<g id="edge8" class="edge">
<title>SyncStateSubject&#45;&gt;StorybookBaseModule</title>
<path fill="none" stroke="black" d="M103,-122.29C103,-144.21 103,-178 103,-178 103,-178 721.29,-178 721.29,-178"/>
<polygon fill="black" stroke="black" points="721.29,-181.5 731.29,-178 721.29,-174.5 721.29,-181.5"/>
</g>
</g>
</svg>
