<?xml version="1.0" encoding="UTF-8" standalone="no"?>
<!DOCTYPE svg PUBLIC "-//W3C//DTD SVG 1.1//EN"
 "http://www.w3.org/Graphics/SVG/1.1/DTD/svg11.dtd">
<!-- Generated by graphviz version 2.47.0 (20210316.0004)
 -->
<!-- Title: dependencies Pages: 1 -->
<svg width="1553pt" height="211pt"
 viewBox="0.00 0.00 1553.00 211.00" xmlns="http://www.w3.org/2000/svg" xmlns:xlink="http://www.w3.org/1999/xlink">
<g id="graph0" class="graph" transform="scale(1 1) rotate(0) translate(4 207)">
<title>dependencies</title>
<polygon fill="white" stroke="transparent" points="-4,4 -4,-207 1549,-207 1549,4 -4,4"/>
<text text-anchor="start" x="751.51" y="-42.4" font-family="Times-12" font-weight="bold" font-size="14.00">Legend</text>
<polygon fill="#ffffb3" stroke="transparent" points="538.5,-10 538.5,-30 558.5,-30 558.5,-10 538.5,-10"/>
<text text-anchor="start" x="562.13" y="-15.4" font-family="Times-12" font-size="14.00"> &#160;Declarations</text>
<polygon fill="#8dd3c7" stroke="transparent" points="651.5,-10 651.5,-30 671.5,-30 671.5,-10 651.5,-10"/>
<text text-anchor="start" x="675.23" y="-15.4" font-family="Times-12" font-size="14.00"> &#160;Module</text>
<polygon fill="#80b1d3" stroke="transparent" points="737.5,-10 737.5,-30 757.5,-30 757.5,-10 737.5,-10"/>
<text text-anchor="start" x="761.28" y="-15.4" font-family="Times-12" font-size="14.00"> &#160;Bootstrap</text>
<polygon fill="#fdb462" stroke="transparent" points="834.5,-10 834.5,-30 854.5,-30 854.5,-10 834.5,-10"/>
<text text-anchor="start" x="858.17" y="-15.4" font-family="Times-12" font-size="14.00"> &#160;Providers</text>
<polygon fill="#fb8072" stroke="transparent" points="930.5,-10 930.5,-30 950.5,-30 950.5,-10 930.5,-10"/>
<text text-anchor="start" x="954.23" y="-15.4" font-family="Times-12" font-size="14.00"> &#160;Exports</text>
<g id="clust1" class="cluster">
<title>cluster_StorybookBaseModule</title>
<polygon fill="none" stroke="black" stroke-dasharray="1,5" points="8,-70 8,-195 1537,-195 1537,-70 8,-70"/>
</g>
<g id="clust6" class="cluster">
<title>cluster_StorybookBaseModule_providers</title>
<polygon fill="none" stroke="black" points="126,-78 126,-130 1529,-130 1529,-78 126,-78"/>
</g>
<g id="clust3" class="cluster">
<title>cluster_StorybookBaseModule_imports</title>
<polygon fill="none" stroke="black" points="16,-78 16,-130 118,-130 118,-78 16,-78"/>
</g>
<!-- CoreModule -->
<g id="node1" class="node">
<title>CoreModule</title>
<polygon fill="#8dd3c7" stroke="black" points="110.26,-122 107.26,-126 86.26,-126 83.26,-122 23.74,-122 23.74,-86 110.26,-86 110.26,-122"/>
<text text-anchor="middle" x="67" y="-99.8" font-family="Times,serif" font-size="14.00">CoreModule</text>
</g>
<!-- StorybookBaseModule -->
<g id="node2" class="node">
<title>StorybookBaseModule</title>
<polygon fill="#8dd3c7" stroke="black" points="790.59,-187 787.59,-191 766.59,-191 763.59,-187 645.41,-187 645.41,-151 790.59,-151 790.59,-187"/>
<text text-anchor="middle" x="718" y="-164.8" font-family="Times,serif" font-size="14.00">StorybookBaseModule</text>
</g>
<!-- CoreModule&#45;&gt;StorybookBaseModule -->
<g id="edge1" class="edge">
<title>CoreModule&#45;&gt;StorybookBaseModule</title>
<path fill="none" stroke="black" d="M67,-122.29C67,-144.21 67,-178 67,-178 67,-178 635.22,-178 635.22,-178"/>
<polygon fill="black" stroke="black" points="635.22,-181.5 645.22,-178 635.22,-174.5 635.22,-181.5"/>
</g>
<!-- AnalyticsService -->
<g id="node3" class="node">
<title>AnalyticsService</title>
<ellipse fill="#fdb462" stroke="black" cx="1444" cy="-104" rx="77" ry="18"/>
<text text-anchor="middle" x="1444" y="-99.8" font-family="Times,serif" font-size="14.00">AnalyticsService</text>
</g>
<!-- AnalyticsService&#45;&gt;StorybookBaseModule -->
<g id="edge2" class="edge">
<title>AnalyticsService&#45;&gt;StorybookBaseModule</title>
<path fill="none" stroke="black" d="M1444,-122.29C1444,-144.21 1444,-178 1444,-178 1444,-178 800.6,-178 800.6,-178"/>
<polygon fill="black" stroke="black" points="800.6,-174.5 790.6,-178 800.6,-181.5 800.6,-174.5"/>
</g>
<!-- DatabaseResolverService -->
<g id="node4" class="node">
<title>DatabaseResolverService</title>
<ellipse fill="#fdb462" stroke="black" cx="1239" cy="-104" rx="109.91" ry="18"/>
<text text-anchor="middle" x="1239" y="-99.8" font-family="Times,serif" font-size="14.00">DatabaseResolverService</text>
</g>
<!-- DatabaseResolverService&#45;&gt;StorybookBaseModule -->
<g id="edge3" class="edge">
<title>DatabaseResolverService&#45;&gt;StorybookBaseModule</title>
<path fill="none" stroke="black" d="M1239,-122.11C1239,-141.34 1239,-169 1239,-169 1239,-169 800.72,-169 800.72,-169"/>
<polygon fill="black" stroke="black" points="800.72,-165.5 790.72,-169 800.72,-172.5 800.72,-165.5"/>
</g>
<!-- EntityActionsService -->
<g id="node5" class="node">
<title>EntityActionsService</title>
<ellipse fill="#fdb462" stroke="black" cx="1018" cy="-104" rx="93.77" ry="18"/>
<text text-anchor="middle" x="1018" y="-99.8" font-family="Times,serif" font-size="14.00">EntityActionsService</text>
</g>
<!-- EntityActionsService&#45;&gt;StorybookBaseModule -->
<g id="edge4" class="edge">
<title>EntityActionsService&#45;&gt;StorybookBaseModule</title>
<path fill="none" stroke="black" d="M1018,-122.03C1018,-138.4 1018,-160 1018,-160 1018,-160 800.62,-160 800.62,-160"/>
<polygon fill="black" stroke="black" points="800.62,-156.5 790.62,-160 800.62,-163.5 800.62,-156.5"/>
</g>
<!-- KeycloakAuthService -->
<g id="node6" class="node">
<title>KeycloakAuthService</title>
<ellipse fill="#fdb462" stroke="black" cx="810" cy="-104" rx="96.11" ry="18"/>
<text text-anchor="middle" x="810" y="-99.8" font-family="Times,serif" font-size="14.00">KeycloakAuthService</text>
</g>
<!-- KeycloakAuthService&#45;&gt;StorybookBaseModule -->
<g id="edge5" class="edge">
<title>KeycloakAuthService&#45;&gt;StorybookBaseModule</title>
<path fill="none" stroke="black" d="M752.12,-118.43C752.12,-118.43 752.12,-140.89 752.12,-140.89"/>
<polygon fill="black" stroke="black" points="748.62,-140.89 752.12,-150.89 755.62,-140.89 748.62,-140.89"/>
</g>
<!-- SessionSubject -->
<g id="node7" class="node">
<title>SessionSubject</title>
<ellipse fill="#fdb462" stroke="black" cx="626" cy="-104" rx="69.52" ry="18"/>
<text text-anchor="middle" x="626" y="-99.8" font-family="Times,serif" font-size="14.00">SessionSubject</text>
</g>
<!-- SessionSubject&#45;&gt;StorybookBaseModule -->
<g id="edge6" class="edge">
<title>SessionSubject&#45;&gt;StorybookBaseModule</title>
<path fill="none" stroke="black" d="M670.48,-118.1C670.48,-118.1 670.48,-140.72 670.48,-140.72"/>
<polygon fill="black" stroke="black" points="666.98,-140.72 670.48,-150.72 673.98,-140.72 666.98,-140.72"/>
</g>
<!-- StaticDefaultValueService -->
<g id="node8" class="node">
<title>StaticDefaultValueService</title>
<ellipse fill="#fdb462" stroke="black" cx="424" cy="-104" rx="113.99" ry="18"/>
<text text-anchor="middle" x="424" y="-99.8" font-family="Times,serif" font-size="14.00">StaticDefaultValueService</text>
</g>
<!-- StaticDefaultValueService&#45;&gt;StorybookBaseModule -->
<g id="edge7" class="edge">
<title>StaticDefaultValueService&#45;&gt;StorybookBaseModule</title>
<path fill="none" stroke="black" d="M424,-122.03C424,-138.4 424,-160 424,-160 424,-160 635.33,-160 635.33,-160"/>
<polygon fill="black" stroke="black" points="635.33,-163.5 645.33,-160 635.33,-156.5 635.33,-163.5"/>
</g>
<!-- SyncStateSubject -->
<g id="node9" class="node">
<title>SyncStateSubject</title>
<ellipse fill="#fdb462" stroke="black" cx="213" cy="-104" rx="78.75" ry="18"/>
<text text-anchor="middle" x="213" y="-99.8" font-family="Times,serif" font-size="14.00">SyncStateSubject</text>
</g>
<!-- SyncStateSubject&#45;&gt;StorybookBaseModule -->
<g id="edge8" class="edge">
<title>SyncStateSubject&#45;&gt;StorybookBaseModule</title>
<path fill="none" stroke="black" d="M213,-122.11C213,-141.34 213,-169 213,-169 213,-169 635.38,-169 635.38,-169"/>
<polygon fill="black" stroke="black" points="635.38,-172.5 645.38,-169 635.38,-165.5 635.38,-172.5"/>
</g>
</g>
</svg>
