<?xml version="1.0" encoding="UTF-8" standalone="no"?>
<!DOCTYPE svg PUBLIC "-//W3C//DTD SVG 1.1//EN"
 "http://www.w3.org/Graphics/SVG/1.1/DTD/svg11.dtd">
<!-- Generated by graphviz version 2.47.0 (20210316.0004)
 -->
<!-- Title: dependencies Pages: 1 -->
<svg width="544pt" height="211pt"
 viewBox="0.00 0.00 544.00 211.00" xmlns="http://www.w3.org/2000/svg" xmlns:xlink="http://www.w3.org/1999/xlink">
<g id="graph0" class="graph" transform="scale(1 1) rotate(0) translate(4 207)">
<title>dependencies</title>
<polygon fill="white" stroke="transparent" points="-4,4 -4,-207 540,-207 540,4 -4,4"/>
<text text-anchor="start" x="247.01" y="-42.4" font-family="Times-12" font-weight="bold" font-size="14.00">Legend</text>
<polygon fill="#ffffb3" stroke="transparent" points="34,-10 34,-30 54,-30 54,-10 34,-10"/>
<text text-anchor="start" x="57.63" y="-15.4" font-family="Times-12" font-size="14.00"> &#160;Declarations</text>
<polygon fill="#8dd3c7" stroke="transparent" points="147,-10 147,-30 167,-30 167,-10 147,-10"/>
<text text-anchor="start" x="170.73" y="-15.4" font-family="Times-12" font-size="14.00"> &#160;Module</text>
<polygon fill="#80b1d3" stroke="transparent" points="233,-10 233,-30 253,-30 253,-10 233,-10"/>
<text text-anchor="start" x="256.78" y="-15.4" font-family="Times-12" font-size="14.00"> &#160;Bootstrap</text>
<polygon fill="#fdb462" stroke="transparent" points="330,-10 330,-30 350,-30 350,-10 330,-10"/>
<text text-anchor="start" x="353.67" y="-15.4" font-family="Times-12" font-size="14.00"> &#160;Providers</text>
<polygon fill="#fb8072" stroke="transparent" points="426,-10 426,-30 446,-30 446,-10 426,-10"/>
<text text-anchor="start" x="449.73" y="-15.4" font-family="Times-12" font-size="14.00"> &#160;Exports</text>
<g id="clust1" class="cluster">
<title>cluster_DatabaseTestingModule</title>
<polygon fill="none" stroke="black" stroke-dasharray="1,5" points="8,-70 8,-195 528,-195 528,-70 8,-70"/>
</g>
<g id="clust3" class="cluster">
<title>cluster_DatabaseTestingModule_imports</title>
<polygon fill="none" stroke="black" points="420,-78 420,-130 520,-130 520,-78 420,-78"/>
</g>
<g id="clust6" class="cluster">
<title>cluster_DatabaseTestingModule_providers</title>
<polygon fill="none" stroke="black" points="16,-78 16,-130 412,-130 412,-78 16,-78"/>
</g>
<!-- AppModule -->
<g id="node1" class="node">
<title>AppModule</title>
<polygon fill="#8dd3c7" stroke="black" points="511.66,-122 508.66,-126 487.66,-126 484.66,-122 428.34,-122 428.34,-86 511.66,-86 511.66,-122"/>
<text text-anchor="middle" x="470" y="-99.8" font-family="Times,serif" font-size="14.00">AppModule</text>
</g>
<!-- DatabaseTestingModule -->
<g id="node2" class="node">
<title>DatabaseTestingModule</title>
<polygon fill="#8dd3c7" stroke="black" points="413.34,-187 410.34,-191 389.34,-191 386.34,-187 260.66,-187 260.66,-151 413.34,-151 413.34,-187"/>
<text text-anchor="middle" x="337" y="-164.8" font-family="Times,serif" font-size="14.00">DatabaseTestingModule</text>
</g>
<!-- AppModule&#45;&gt;DatabaseTestingModule -->
<g id="edge1" class="edge">
<title>AppModule&#45;&gt;DatabaseTestingModule</title>
<path fill="none" stroke="black" d="M428.04,-104C417.25,-104 408.62,-104 408.62,-104 408.62,-104 408.62,-140.89 408.62,-140.89"/>
<polygon fill="black" stroke="black" points="405.12,-140.89 408.62,-150.89 412.12,-140.89 405.12,-140.89"/>
</g>
<!-- ConfigService -->
<g id="node3" class="node">
<title>ConfigService</title>
<ellipse fill="#fdb462" stroke="black" cx="337" cy="-104" rx="66.63" ry="18"/>
<text text-anchor="middle" x="337" y="-99.8" font-family="Times,serif" font-size="14.00">ConfigService</text>
</g>
<!-- ConfigService&#45;&gt;DatabaseTestingModule -->
<g id="edge2" class="edge">
<title>ConfigService&#45;&gt;DatabaseTestingModule</title>
<path fill="none" stroke="black" d="M337,-122.11C337,-122.11 337,-140.99 337,-140.99"/>
<polygon fill="black" stroke="black" points="333.5,-140.99 337,-150.99 340.5,-140.99 333.5,-140.99"/>
</g>
<!-- ConfigurableEnumService -->
<g id="node4" class="node">
<title>ConfigurableEnumService</title>
<ellipse fill="#fdb462" stroke="black" cx="138" cy="-104" rx="114.03" ry="18"/>
<text text-anchor="middle" x="138" y="-99.8" font-family="Times,serif" font-size="14.00">ConfigurableEnumService</text>
</g>
<!-- ConfigurableEnumService&#45;&gt;DatabaseTestingModule -->
<g id="edge3" class="edge">
<title>ConfigurableEnumService&#45;&gt;DatabaseTestingModule</title>
<path fill="none" stroke="black" d="M252.23,-104C260.33,-104 265.38,-104 265.38,-104 265.38,-104 265.38,-140.89 265.38,-140.89"/>
<polygon fill="black" stroke="black" points="261.88,-140.89 265.38,-150.89 268.88,-140.89 261.88,-140.89"/>
</g>
</g>
</svg>
