<?xml version="1.0" encoding="UTF-8" standalone="no"?>
<!DOCTYPE svg PUBLIC "-//W3C//DTD SVG 1.1//EN"
 "http://www.w3.org/Graphics/SVG/1.1/DTD/svg11.dtd">
<!-- Generated by graphviz version 2.47.0 (20210316.0004)
 -->
<!-- Title: dependencies Pages: 1 -->
<svg width="504pt" height="211pt"
 viewBox="0.00 0.00 504.00 211.00" xmlns="http://www.w3.org/2000/svg" xmlns:xlink="http://www.w3.org/1999/xlink">
<g id="graph0" class="graph" transform="scale(1 1) rotate(0) translate(4 207)">
<title>dependencies</title>
<polygon fill="white" stroke="transparent" points="-4,4 -4,-207 500,-207 500,4 -4,4"/>
<text text-anchor="start" x="227.01" y="-42.4" font-family="Times-12" font-weight="bold" font-size="14.00">Legend</text>
<polygon fill="#ffffb3" stroke="transparent" points="14,-10 14,-30 34,-30 34,-10 14,-10"/>
<text text-anchor="start" x="37.63" y="-15.4" font-family="Times-12" font-size="14.00"> &#160;Declarations</text>
<polygon fill="#8dd3c7" stroke="transparent" points="127,-10 127,-30 147,-30 147,-10 127,-10"/>
<text text-anchor="start" x="150.73" y="-15.4" font-family="Times-12" font-size="14.00"> &#160;Module</text>
<polygon fill="#80b1d3" stroke="transparent" points="213,-10 213,-30 233,-30 233,-10 213,-10"/>
<text text-anchor="start" x="236.78" y="-15.4" font-family="Times-12" font-size="14.00"> &#160;Bootstrap</text>
<polygon fill="#fdb462" stroke="transparent" points="310,-10 310,-30 330,-30 330,-10 310,-10"/>
<text text-anchor="start" x="333.67" y="-15.4" font-family="Times-12" font-size="14.00"> &#160;Providers</text>
<polygon fill="#fb8072" stroke="transparent" points="406,-10 406,-30 426,-30 426,-10 406,-10"/>
<text text-anchor="start" x="429.73" y="-15.4" font-family="Times-12" font-size="14.00"> &#160;Exports</text>
<g id="clust1" class="cluster">
<title>cluster_LatestChangesModule</title>
<polygon fill="none" stroke="black" stroke-dasharray="1,5" points="162,-70 162,-195 334,-195 334,-70 162,-70"/>
</g>
<g id="clust3" class="cluster">
<title>cluster_LatestChangesModule_imports</title>
<polygon fill="none" stroke="black" points="170,-78 170,-130 326,-130 326,-78 170,-78"/>
</g>
<!-- NgForOf -->
<g id="node1" class="node">
<title>NgForOf</title>
<polygon fill="#8dd3c7" stroke="black" points="317.82,-122 314.82,-126 293.82,-126 290.82,-122 250.18,-122 250.18,-86 317.82,-86 317.82,-122"/>
<text text-anchor="middle" x="284" y="-99.8" font-family="Times,serif" font-size="14.00">NgForOf</text>
</g>
<!-- LatestChangesModule -->
<g id="node3" class="node">
<title>LatestChangesModule</title>
<polygon fill="#8dd3c7" stroke="black" points="318.97,-187 315.97,-191 294.97,-191 291.97,-187 177.03,-187 177.03,-151 318.97,-151 318.97,-187"/>
<text text-anchor="middle" x="248" y="-164.8" font-family="Times,serif" font-size="14.00">LatestChangesModule</text>
</g>
<!-- NgForOf&#45;&gt;LatestChangesModule -->
<g id="edge1" class="edge">
<title>NgForOf&#45;&gt;LatestChangesModule</title>
<path fill="none" stroke="black" d="M284,-122.11C284,-122.11 284,-140.99 284,-140.99"/>
<polygon fill="black" stroke="black" points="280.5,-140.99 284,-150.99 287.5,-140.99 280.5,-140.99"/>
</g>
<!-- NgIf -->
<g id="node2" class="node">
<title>NgIf</title>
<polygon fill="#8dd3c7" stroke="black" points="232,-122 229,-126 208,-126 205,-122 178,-122 178,-86 232,-86 232,-122"/>
<text text-anchor="middle" x="205" y="-99.8" font-family="Times,serif" font-size="14.00">NgIf</text>
</g>
<!-- NgIf&#45;&gt;LatestChangesModule -->
<g id="edge2" class="edge">
<title>NgIf&#45;&gt;LatestChangesModule</title>
<path fill="none" stroke="black" d="M205,-122.11C205,-122.11 205,-140.99 205,-140.99"/>
<polygon fill="black" stroke="black" points="201.5,-140.99 205,-150.99 208.5,-140.99 201.5,-140.99"/>
</g>
</g>
</svg>
