<?xml version="1.0" encoding="UTF-8" standalone="no"?>
<!DOCTYPE svg PUBLIC "-//W3C//DTD SVG 1.1//EN"
 "http://www.w3.org/Graphics/SVG/1.1/DTD/svg11.dtd">
<!-- Generated by graphviz version 2.47.0 (20210316.0004)
 -->
<!-- Title: dependencies Pages: 1 -->
<svg width="504pt" height="211pt"
 viewBox="0.00 0.00 504.00 211.00" xmlns="http://www.w3.org/2000/svg" xmlns:xlink="http://www.w3.org/1999/xlink">
<g id="graph0" class="graph" transform="scale(1 1) rotate(0) translate(4 207)">
<title>dependencies</title>
<polygon fill="white" stroke="transparent" points="-4,4 -4,-207 500,-207 500,4 -4,4"/>
<text text-anchor="start" x="227.01" y="-42.4" font-family="Times-12" font-weight="bold" font-size="14.00">Legend</text>
<polygon fill="#ffffb3" stroke="transparent" points="14,-10 14,-30 34,-30 34,-10 14,-10"/>
<text text-anchor="start" x="37.63" y="-15.4" font-family="Times-12" font-size="14.00"> &#160;Declarations</text>
<polygon fill="#8dd3c7" stroke="transparent" points="127,-10 127,-30 147,-30 147,-10 127,-10"/>
<text text-anchor="start" x="150.73" y="-15.4" font-family="Times-12" font-size="14.00"> &#160;Module</text>
<polygon fill="#80b1d3" stroke="transparent" points="213,-10 213,-30 233,-30 233,-10 213,-10"/>
<text text-anchor="start" x="236.78" y="-15.4" font-family="Times-12" font-size="14.00"> &#160;Bootstrap</text>
<polygon fill="#fdb462" stroke="transparent" points="310,-10 310,-30 330,-30 330,-10 310,-10"/>
<text text-anchor="start" x="333.67" y="-15.4" font-family="Times-12" font-size="14.00"> &#160;Providers</text>
<polygon fill="#fb8072" stroke="transparent" points="406,-10 406,-30 426,-30 426,-10 406,-10"/>
<text text-anchor="start" x="429.73" y="-15.4" font-family="Times-12" font-size="14.00"> &#160;Exports</text>
<g id="clust1" class="cluster">
<title>cluster_LatestChangesModule</title>
<polygon fill="none" stroke="black" stroke-dasharray="1,5" points="79,-70 79,-195 417,-195 417,-70 79,-70"/>
</g>
<g id="clust4" class="cluster">
<title>cluster_LatestChangesModule_imports</title>
<polygon fill="none" stroke="black" points="253,-78 253,-130 409,-130 409,-78 253,-78"/>
</g>
<g id="clust2" class="cluster">
<title>cluster_LatestChangesModule_declarations</title>
<polygon fill="none" stroke="black" points="87,-78 87,-130 245,-130 245,-78 87,-78"/>
</g>
<!-- ChangelogComponent -->
<g id="node1" class="node">
<title>ChangelogComponent</title>
<polygon fill="#ffffb3" stroke="black" points="236.99,-122 95.01,-122 95.01,-86 236.99,-86 236.99,-122"/>
<text text-anchor="middle" x="166" y="-99.8" font-family="Times,serif" font-size="14.00">ChangelogComponent</text>
</g>
<!-- LatestChangesModule -->
<g id="node2" class="node">
<title>LatestChangesModule</title>
<polygon fill="#8dd3c7" stroke="black" points="358.97,-187 355.97,-191 334.97,-191 331.97,-187 217.03,-187 217.03,-151 358.97,-151 358.97,-187"/>
<text text-anchor="middle" x="288" y="-164.8" font-family="Times,serif" font-size="14.00">LatestChangesModule</text>
</g>
<!-- ChangelogComponent&#45;&gt;LatestChangesModule -->
<g id="edge1" class="edge">
<title>ChangelogComponent&#45;&gt;LatestChangesModule</title>
<path fill="none" stroke="black" d="M227.01,-122.11C227.01,-122.11 227.01,-140.99 227.01,-140.99"/>
<polygon fill="black" stroke="black" points="223.51,-140.99 227.01,-150.99 230.51,-140.99 223.51,-140.99"/>
</g>
<!-- NgForOf -->
<g id="node3" class="node">
<title>NgForOf</title>
<polygon fill="#8dd3c7" stroke="black" points="400.82,-122 397.82,-126 376.82,-126 373.82,-122 333.18,-122 333.18,-86 400.82,-86 400.82,-122"/>
<text text-anchor="middle" x="367" y="-99.8" font-family="Times,serif" font-size="14.00">NgForOf</text>
</g>
<!-- NgForOf&#45;&gt;LatestChangesModule -->
<g id="edge2" class="edge">
<title>NgForOf&#45;&gt;LatestChangesModule</title>
<path fill="none" stroke="black" d="M346.16,-122.11C346.16,-122.11 346.16,-140.99 346.16,-140.99"/>
<polygon fill="black" stroke="black" points="342.66,-140.99 346.16,-150.99 349.66,-140.99 342.66,-140.99"/>
</g>
<!-- NgIf -->
<g id="node4" class="node">
<title>NgIf</title>
<polygon fill="#8dd3c7" stroke="black" points="315,-122 312,-126 291,-126 288,-122 261,-122 261,-86 315,-86 315,-122"/>
<text text-anchor="middle" x="288" y="-99.8" font-family="Times,serif" font-size="14.00">NgIf</text>
</g>
<!-- NgIf&#45;&gt;LatestChangesModule -->
<g id="edge3" class="edge">
<title>NgIf&#45;&gt;LatestChangesModule</title>
<path fill="none" stroke="black" d="M288,-122.11C288,-122.11 288,-140.99 288,-140.99"/>
<polygon fill="black" stroke="black" points="284.5,-140.99 288,-150.99 291.5,-140.99 284.5,-140.99"/>
</g>
</g>
</svg>
