<?xml version="1.0" encoding="UTF-8" standalone="no"?>
<!DOCTYPE svg PUBLIC "-//W3C//DTD SVG 1.1//EN"
 "http://www.w3.org/Graphics/SVG/1.1/DTD/svg11.dtd">
<!-- Generated by graphviz version 2.47.0 (20210316.0004)
 -->
<!-- Title: dependencies Pages: 1 -->
<svg width="504pt" height="211pt"
 viewBox="0.00 0.00 504.00 211.00" xmlns="http://www.w3.org/2000/svg" xmlns:xlink="http://www.w3.org/1999/xlink">
<g id="graph0" class="graph" transform="scale(1 1) rotate(0) translate(4 207)">
<title>dependencies</title>
<polygon fill="white" stroke="transparent" points="-4,4 -4,-207 500,-207 500,4 -4,4"/>
<text text-anchor="start" x="227.01" y="-42.4" font-family="Times-12" font-weight="bold" font-size="14.00">Legend</text>
<polygon fill="#ffffb3" stroke="transparent" points="14,-10 14,-30 34,-30 34,-10 14,-10"/>
<text text-anchor="start" x="37.63" y="-15.4" font-family="Times-12" font-size="14.00"> &#160;Declarations</text>
<polygon fill="#8dd3c7" stroke="transparent" points="127,-10 127,-30 147,-30 147,-10 127,-10"/>
<text text-anchor="start" x="150.73" y="-15.4" font-family="Times-12" font-size="14.00"> &#160;Module</text>
<polygon fill="#80b1d3" stroke="transparent" points="213,-10 213,-30 233,-30 233,-10 213,-10"/>
<text text-anchor="start" x="236.78" y="-15.4" font-family="Times-12" font-size="14.00"> &#160;Bootstrap</text>
<polygon fill="#fdb462" stroke="transparent" points="310,-10 310,-30 330,-30 330,-10 310,-10"/>
<text text-anchor="start" x="333.67" y="-15.4" font-family="Times-12" font-size="14.00"> &#160;Providers</text>
<polygon fill="#fb8072" stroke="transparent" points="406,-10 406,-30 426,-30 426,-10 406,-10"/>
<text text-anchor="start" x="429.73" y="-15.4" font-family="Times-12" font-size="14.00"> &#160;Exports</text>
<g id="clust1" class="cluster">
<title>cluster_LatestChangesModule</title>
<polygon fill="none" stroke="black" stroke-dasharray="1,5" points="79,-70 79,-195 417,-195 417,-70 79,-70"/>
</g>
<g id="clust2" class="cluster">
<title>cluster_LatestChangesModule_declarations</title>
<polygon fill="none" stroke="black" points="251,-78 251,-130 409,-130 409,-78 251,-78"/>
</g>
<g id="clust4" class="cluster">
<title>cluster_LatestChangesModule_imports</title>
<polygon fill="none" stroke="black" points="87,-78 87,-130 243,-130 243,-78 87,-78"/>
</g>
<!-- ChangelogComponent -->
<g id="node1" class="node">
<title>ChangelogComponent</title>
<polygon fill="#ffffb3" stroke="black" points="400.99,-122 259.01,-122 259.01,-86 400.99,-86 400.99,-122"/>
<text text-anchor="middle" x="330" y="-99.8" font-family="Times,serif" font-size="14.00">ChangelogComponent</text>
</g>
<!-- LatestChangesModule -->
<g id="node2" class="node">
<title>LatestChangesModule</title>
<polygon fill="#8dd3c7" stroke="black" points="271.97,-187 268.97,-191 247.97,-191 244.97,-187 130.03,-187 130.03,-151 271.97,-151 271.97,-187"/>
<text text-anchor="middle" x="201" y="-164.8" font-family="Times,serif" font-size="14.00">LatestChangesModule</text>
</g>
<!-- ChangelogComponent&#45;&gt;LatestChangesModule -->
<g id="edge1" class="edge">
<title>ChangelogComponent&#45;&gt;LatestChangesModule</title>
<path fill="none" stroke="black" d="M265.49,-122.11C265.49,-122.11 265.49,-140.99 265.49,-140.99"/>
<polygon fill="black" stroke="black" points="261.99,-140.99 265.49,-150.99 268.99,-140.99 261.99,-140.99"/>
</g>
<!-- NgForOf -->
<g id="node3" class="node">
<title>NgForOf</title>
<polygon fill="#8dd3c7" stroke="black" points="234.82,-122 231.82,-126 210.82,-126 207.82,-122 167.18,-122 167.18,-86 234.82,-86 234.82,-122"/>
<text text-anchor="middle" x="201" y="-99.8" font-family="Times,serif" font-size="14.00">NgForOf</text>
</g>
<!-- NgForOf&#45;&gt;LatestChangesModule -->
<g id="edge2" class="edge">
<title>NgForOf&#45;&gt;LatestChangesModule</title>
<path fill="none" stroke="black" d="M201,-122.11C201,-122.11 201,-140.99 201,-140.99"/>
<polygon fill="black" stroke="black" points="197.5,-140.99 201,-150.99 204.5,-140.99 197.5,-140.99"/>
</g>
<!-- NgIf -->
<g id="node4" class="node">
<title>NgIf</title>
<polygon fill="#8dd3c7" stroke="black" points="149,-122 146,-126 125,-126 122,-122 95,-122 95,-86 149,-86 149,-122"/>
<text text-anchor="middle" x="122" y="-99.8" font-family="Times,serif" font-size="14.00">NgIf</text>
</g>
<!-- NgIf&#45;&gt;LatestChangesModule -->
<g id="edge3" class="edge">
<title>NgIf&#45;&gt;LatestChangesModule</title>
<path fill="none" stroke="black" d="M139.51,-122.11C139.51,-122.11 139.51,-140.99 139.51,-140.99"/>
<polygon fill="black" stroke="black" points="136.01,-140.99 139.51,-150.99 143.01,-140.99 136.01,-140.99"/>
</g>
</g>
</svg>
