<?xml version="1.0" encoding="UTF-8" standalone="no"?>
<!DOCTYPE svg PUBLIC "-//W3C//DTD SVG 1.1//EN"
 "http://www.w3.org/Graphics/SVG/1.1/DTD/svg11.dtd">
<!-- Generated by graphviz version 2.40.1 (20161225.0304)
 -->
<!-- Title: dependencies Pages: 1 -->
<svg width="5217pt" height="284pt"
 viewBox="0.00 0.00 5217.00 284.00" xmlns="http://www.w3.org/2000/svg" xmlns:xlink="http://www.w3.org/1999/xlink">
<g id="graph0" class="graph" transform="scale(1 1) rotate(0) translate(4 280)">
<title>dependencies</title>
<polygon fill="#ffffff" stroke="transparent" points="-4,4 -4,-280 5213,-280 5213,4 -4,4"/>
<text text-anchor="start" x="2583.5091" y="-42.4" font-family="sans-serif" font-weight="bold" font-size="14.00" fill="#000000">Legend</text>
<polygon fill="#ffffb3" stroke="transparent" points="2370.5,-10 2370.5,-30 2390.5,-30 2390.5,-10 2370.5,-10"/>
<text text-anchor="start" x="2394.129" y="-15.4" font-family="sans-serif" font-size="14.00" fill="#000000"> &#160;Declarations</text>
<polygon fill="#8dd3c7" stroke="transparent" points="2483.5,-10 2483.5,-30 2503.5,-30 2503.5,-10 2483.5,-10"/>
<text text-anchor="start" x="2507.2251" y="-15.4" font-family="sans-serif" font-size="14.00" fill="#000000"> &#160;Module</text>
<polygon fill="#80b1d3" stroke="transparent" points="2569.5,-10 2569.5,-30 2589.5,-30 2589.5,-10 2569.5,-10"/>
<text text-anchor="start" x="2593.2812" y="-15.4" font-family="sans-serif" font-size="14.00" fill="#000000"> &#160;Bootstrap</text>
<polygon fill="#fdb462" stroke="transparent" points="2666.5,-10 2666.5,-30 2686.5,-30 2686.5,-10 2666.5,-10"/>
<text text-anchor="start" x="2690.1732" y="-15.4" font-family="sans-serif" font-size="14.00" fill="#000000"> &#160;Providers</text>
<polygon fill="#fb8072" stroke="transparent" points="2762.5,-10 2762.5,-30 2782.5,-30 2782.5,-10 2762.5,-10"/>
<text text-anchor="start" x="2786.2258" y="-15.4" font-family="sans-serif" font-size="14.00" fill="#000000"> &#160;Exports</text>
<g id="clust1" class="cluster">
<title>cluster_ChildrenModule</title>
<polygon fill="none" stroke="#000000" stroke-dasharray="1,5" points="8,-70 8,-268 5201,-268 5201,-70 8,-70"/>
</g>
<g id="clust2" class="cluster">
<title>cluster_ChildrenModule_declarations</title>
<polygon fill="none" stroke="#000000" points="446,-78 446,-130 5193,-130 5193,-78 446,-78"/>
</g>
<g id="clust27" class="cluster">
<title>cluster_ChildrenModule_imports</title>
<polygon fill="none" stroke="#000000" points="188,-78 188,-130 438,-130 438,-78 188,-78"/>
</g>
<g id="clust28" class="cluster">
<title>cluster_ChildrenModule_exports</title>
<polygon fill="none" stroke="#000000" points="1473,-208 1473,-260 3242,-260 3242,-208 1473,-208"/>
</g>
<g id="clust30" class="cluster">
<title>cluster_ChildrenModule_providers</title>
<polygon fill="none" stroke="#000000" points="16,-78 16,-130 180,-130 180,-78 16,-78"/>
</g>
<!-- AddDayAttendanceComponent -->
<g id="node1" class="node">
<title>AddDayAttendanceComponent</title>
<polygon fill="#ffffb3" stroke="#000000" points="5185.007,-122 4992.993,-122 4992.993,-86 5185.007,-86 5185.007,-122"/>
<text text-anchor="middle" x="5089" y="-99.8" font-family="Times,serif" font-size="14.00" fill="#000000">AddDayAttendanceComponent</text>
</g>
<!-- ChildrenModule -->
<g id="node25" class="node">
<title>ChildrenModule</title>
<polygon fill="#8dd3c7" stroke="#000000" points="2416.0438,-187 2413.0438,-191 2392.0438,-191 2389.0438,-187 2307.9562,-187 2307.9562,-151 2416.0438,-151 2416.0438,-187"/>
<text text-anchor="middle" x="2362" y="-164.8" font-family="Times,serif" font-size="14.00" fill="#000000">ChildrenModule</text>
</g>
<!-- AddDayAttendanceComponent&#45;&gt;ChildrenModule -->
<g id="edge1" class="edge">
<title>AddDayAttendanceComponent&#45;&gt;ChildrenModule</title>
<path fill="none" stroke="#000000" d="M5089,-122.0449C5089,-143.6623 5089,-177 5089,-177 5089,-177 2426.166,-177 2426.166,-177"/>
<polygon fill="#000000" stroke="#000000" points="2426.166,-173.5001 2416.166,-177 2426.1659,-180.5001 2426.166,-173.5001"/>
</g>
<!-- AddMonthAttendanceComponent -->
<g id="node2" class="node">
<title>AddMonthAttendanceComponent</title>
<polygon fill="#ffffb3" stroke="#000000" points="4974.021,-122 4767.979,-122 4767.979,-86 4974.021,-86 4974.021,-122"/>
<text text-anchor="middle" x="4871" y="-99.8" font-family="Times,serif" font-size="14.00" fill="#000000">AddMonthAttendanceComponent</text>
</g>
<!-- AddMonthAttendanceComponent&#45;&gt;ChildrenModule -->
<g id="edge2" class="edge">
<title>AddMonthAttendanceComponent&#45;&gt;ChildrenModule</title>
<path fill="none" stroke="#000000" d="M4871,-122.2843C4871,-143.3211 4871,-175 4871,-175 4871,-175 2426.1496,-175 2426.1496,-175"/>
<polygon fill="#000000" stroke="#000000" points="2426.1496,-171.5001 2416.1496,-175 2426.1496,-178.5001 2426.1496,-171.5001"/>
</g>
<!-- AserComponent -->
<g id="node3" class="node">
<title>AserComponent</title>
<polygon fill="#ffffb3" stroke="#000000" points="4749.7591,-122 4642.2409,-122 4642.2409,-86 4749.7591,-86 4749.7591,-122"/>
<text text-anchor="middle" x="4696" y="-99.8" font-family="Times,serif" font-size="14.00" fill="#000000">AserComponent</text>
</g>
<!-- AserComponent&#45;&gt;ChildrenModule -->
<g id="edge3" class="edge">
<title>AserComponent&#45;&gt;ChildrenModule</title>
<path fill="none" stroke="#000000" d="M4696,-122.1289C4696,-142.5724 4696,-173 4696,-173 4696,-173 2426.2579,-173 2426.2579,-173"/>
<polygon fill="#000000" stroke="#000000" points="2426.258,-169.5001 2416.2579,-173 2426.2579,-176.5001 2426.258,-169.5001"/>
</g>
<!-- AttendanceAverageDashboardComponent -->
<g id="node4" class="node">
<title>AttendanceAverageDashboardComponent</title>
<polygon fill="#ffffb3" stroke="#000000" points="4624.6306,-122 4371.3694,-122 4371.3694,-86 4624.6306,-86 4624.6306,-122"/>
<text text-anchor="middle" x="4498" y="-99.8" font-family="Times,serif" font-size="14.00" fill="#000000">AttendanceAverageDashboardComponent</text>
</g>
<!-- AttendanceAverageDashboardComponent&#45;&gt;ChildrenModule -->
<g id="edge4" class="edge">
<title>AttendanceAverageDashboardComponent&#45;&gt;ChildrenModule</title>
<path fill="none" stroke="#000000" d="M4498,-122.308C4498,-142.1455 4498,-171 4498,-171 4498,-171 2426.1372,-171 2426.1372,-171"/>
<polygon fill="#000000" stroke="#000000" points="2426.1373,-167.5001 2416.1372,-171 2426.1372,-174.5001 2426.1373,-167.5001"/>
</g>
<!-- AttendanceBlockComponent -->
<g id="node5" class="node">
<title>AttendanceBlockComponent</title>
<polygon fill="#ffffb3" stroke="#000000" points="4353.021,-122 4174.979,-122 4174.979,-86 4353.021,-86 4353.021,-122"/>
<text text-anchor="middle" x="4264" y="-99.8" font-family="Times,serif" font-size="14.00" fill="#000000">AttendanceBlockComponent</text>
</g>
<!-- AttendanceBlockComponent&#45;&gt;ChildrenModule -->
<g id="edge5" class="edge">
<title>AttendanceBlockComponent&#45;&gt;ChildrenModule</title>
<path fill="none" stroke="#000000" d="M4264,-122.1061C4264,-141.3391 4264,-169 4264,-169 4264,-169 2426.1117,-169 2426.1117,-169"/>
<polygon fill="#000000" stroke="#000000" points="2426.1117,-165.5001 2416.1117,-169 2426.1117,-172.5001 2426.1117,-165.5001"/>
</g>
<!-- AttendanceDayBlockComponent -->
<g id="node6" class="node">
<title>AttendanceDayBlockComponent</title>
<polygon fill="#ffffb3" stroke="#000000" points="4156.8417,-122 3955.1583,-122 3955.1583,-86 4156.8417,-86 4156.8417,-122"/>
<text text-anchor="middle" x="4056" y="-99.8" font-family="Times,serif" font-size="14.00" fill="#000000">AttendanceDayBlockComponent</text>
</g>
<!-- AttendanceDayBlockComponent&#45;&gt;ChildrenModule -->
<g id="edge6" class="edge">
<title>AttendanceDayBlockComponent&#45;&gt;ChildrenModule</title>
<path fill="none" stroke="#000000" d="M4056,-122.2222C4056,-140.8285 4056,-167 4056,-167 4056,-167 2426.4438,-167 2426.4438,-167"/>
<polygon fill="#000000" stroke="#000000" points="2426.4438,-163.5001 2416.4438,-167 2426.4438,-170.5001 2426.4438,-163.5001"/>
</g>
<!-- AttendanceDaysComponent -->
<g id="node7" class="node">
<title>AttendanceDaysComponent</title>
<polygon fill="#ffffb3" stroke="#000000" points="3936.8445,-122 3763.1555,-122 3763.1555,-86 3936.8445,-86 3936.8445,-122"/>
<text text-anchor="middle" x="3850" y="-99.8" font-family="Times,serif" font-size="14.00" fill="#000000">AttendanceDaysComponent</text>
</g>
<!-- AttendanceDaysComponent&#45;&gt;ChildrenModule -->
<g id="edge7" class="edge">
<title>AttendanceDaysComponent&#45;&gt;ChildrenModule</title>
<path fill="none" stroke="#000000" d="M3850,-122.302C3850,-140.2699 3850,-165 3850,-165 3850,-165 2426.2798,-165 2426.2798,-165"/>
<polygon fill="#000000" stroke="#000000" points="2426.2798,-161.5001 2416.2798,-165 2426.2798,-168.5001 2426.2798,-161.5001"/>
</g>
<!-- AttendanceDetailsComponent -->
<g id="node8" class="node">
<title>AttendanceDetailsComponent</title>
<polygon fill="#ffffb3" stroke="#000000" points="3745.231,-122 3560.769,-122 3560.769,-86 3745.231,-86 3745.231,-122"/>
<text text-anchor="middle" x="3653" y="-99.8" font-family="Times,serif" font-size="14.00" fill="#000000">AttendanceDetailsComponent</text>
</g>
<!-- AttendanceDetailsComponent&#45;&gt;ChildrenModule -->
<g id="edge8" class="edge">
<title>AttendanceDetailsComponent&#45;&gt;ChildrenModule</title>
<path fill="none" stroke="#000000" d="M3653,-122.0225C3653,-139.3734 3653,-163 3653,-163 3653,-163 2426.2379,-163 2426.2379,-163"/>
<polygon fill="#000000" stroke="#000000" points="2426.2379,-159.5001 2416.2379,-163 2426.2378,-166.5001 2426.2379,-159.5001"/>
</g>
<!-- AttendanceManagerComponent -->
<g id="node9" class="node">
<title>AttendanceManagerComponent</title>
<polygon fill="#ffffb3" stroke="#000000" points="3542.3277,-122 3347.6723,-122 3347.6723,-86 3542.3277,-86 3542.3277,-122"/>
<text text-anchor="middle" x="3445" y="-99.8" font-family="Times,serif" font-size="14.00" fill="#000000">AttendanceManagerComponent</text>
</g>
<!-- AttendanceManagerComponent&#45;&gt;ChildrenModule -->
<g id="edge9" class="edge">
<title>AttendanceManagerComponent&#45;&gt;ChildrenModule</title>
<path fill="none" stroke="#000000" d="M3445,-122.0352C3445,-138.7344 3445,-161 3445,-161 3445,-161 2426.0767,-161 2426.0767,-161"/>
<polygon fill="#000000" stroke="#000000" points="2426.0767,-157.5001 2416.0767,-161 2426.0766,-164.5001 2426.0767,-157.5001"/>
</g>
<!-- AttendanceWarningsDashboardComponent -->
<g id="node10" class="node">
<title>AttendanceWarningsDashboardComponent</title>
<polygon fill="#ffffb3" stroke="#000000" points="3330.1446,-122 3069.8554,-122 3069.8554,-86 3330.1446,-86 3330.1446,-122"/>
<text text-anchor="middle" x="3200" y="-99.8" font-family="Times,serif" font-size="14.00" fill="#000000">AttendanceWarningsDashboardComponent</text>
</g>
<!-- AttendanceWarningsDashboardComponent&#45;&gt;ChildrenModule -->
<g id="edge10" class="edge">
<title>AttendanceWarningsDashboardComponent&#45;&gt;ChildrenModule</title>
<path fill="none" stroke="#000000" d="M3152.1215,-122.0091C3152.1215,-138.0494 3152.1215,-159 3152.1215,-159 3152.1215,-159 2426.3083,-159 2426.3083,-159"/>
<polygon fill="#000000" stroke="#000000" points="2426.3083,-155.5001 2416.3083,-159 2426.3082,-162.5001 2426.3083,-155.5001"/>
</g>
<!-- AttendanceWeekDashboardComponent -->
<g id="node11" class="node">
<title>AttendanceWeekDashboardComponent</title>
<polygon fill="#ffffb3" stroke="#000000" points="3052.3637,-122 2813.6363,-122 2813.6363,-86 3052.3637,-86 3052.3637,-122"/>
<text text-anchor="middle" x="2933" y="-99.8" font-family="Times,serif" font-size="14.00" fill="#000000">AttendanceWeekDashboardComponent</text>
</g>
<!-- AttendanceWeekDashboardComponent&#45;&gt;ChildrenModule -->
<g id="edge11" class="edge">
<title>AttendanceWeekDashboardComponent&#45;&gt;ChildrenModule</title>
<path fill="none" stroke="#000000" d="M2886.7453,-122.2396C2886.7453,-137.5706 2886.7453,-157 2886.7453,-157 2886.7453,-157 2426.1805,-157 2426.1805,-157"/>
<polygon fill="#000000" stroke="#000000" points="2426.1806,-153.5001 2416.1805,-157 2426.1805,-160.5001 2426.1806,-153.5001"/>
</g>
<!-- ChildAttendanceComponent -->
<g id="node12" class="node">
<title>ChildAttendanceComponent</title>
<polygon fill="#ffffb3" stroke="#000000" points="2796.1965,-122 2619.8035,-122 2619.8035,-86 2796.1965,-86 2796.1965,-122"/>
<text text-anchor="middle" x="2708" y="-99.8" font-family="Times,serif" font-size="14.00" fill="#000000">ChildAttendanceComponent</text>
</g>
<!-- ChildAttendanceComponent&#45;&gt;ChildrenModule -->
<g id="edge12" class="edge">
<title>ChildAttendanceComponent&#45;&gt;ChildrenModule</title>
<path fill="none" stroke="#000000" d="M2692.362,-122.1243C2692.362,-136.7832 2692.362,-155 2692.362,-155 2692.362,-155 2426.1826,-155 2426.1826,-155"/>
<polygon fill="#000000" stroke="#000000" points="2426.1827,-151.5001 2416.1826,-155 2426.1826,-158.5001 2426.1827,-151.5001"/>
</g>
<!-- ChildBlockComponent -->
<g id="node13" class="node">
<title>ChildBlockComponent</title>
<polygon fill="#ffffb3" stroke="#000000" points="2601.892,-122 2456.108,-122 2456.108,-86 2601.892,-86 2601.892,-122"/>
<text text-anchor="middle" x="2529" y="-99.8" font-family="Times,serif" font-size="14.00" fill="#000000">ChildBlockComponent</text>
</g>
<!-- ChildBlockComponent&#45;&gt;ChildrenModule -->
<g id="edge13" class="edge">
<title>ChildBlockComponent&#45;&gt;ChildrenModule</title>
<path fill="none" stroke="#000000" d="M2469.4929,-122.2458C2469.4929,-136.1772 2469.4929,-153 2469.4929,-153 2469.4929,-153 2426.0613,-153 2426.0613,-153"/>
<polygon fill="#000000" stroke="#000000" points="2426.0614,-149.5001 2416.0613,-153 2426.0613,-156.5001 2426.0614,-149.5001"/>
</g>
<!-- ChildDetailsComponent -->
<g id="node14" class="node">
<title>ChildDetailsComponent</title>
<polygon fill="#ffffb3" stroke="#000000" points="2438.1024,-122 2285.8976,-122 2285.8976,-86 2438.1024,-86 2438.1024,-122"/>
<text text-anchor="middle" x="2362" y="-99.8" font-family="Times,serif" font-size="14.00" fill="#000000">ChildDetailsComponent</text>
</g>
<!-- ChildDetailsComponent&#45;&gt;ChildrenModule -->
<g id="edge14" class="edge">
<title>ChildDetailsComponent&#45;&gt;ChildrenModule</title>
<path fill="none" stroke="#000000" d="M2362,-122.1061C2362,-122.1061 2362,-140.991 2362,-140.991"/>
<polygon fill="#000000" stroke="#000000" points="2358.5001,-140.9909 2362,-150.991 2365.5001,-140.991 2358.5001,-140.9909"/>
</g>
<!-- ChildSelectComponent -->
<g id="node15" class="node">
<title>ChildSelectComponent</title>
<polygon fill="#ffffb3" stroke="#000000" points="2268.1582,-122 2121.8418,-122 2121.8418,-86 2268.1582,-86 2268.1582,-122"/>
<text text-anchor="middle" x="2195" y="-99.8" font-family="Times,serif" font-size="14.00" fill="#000000">ChildSelectComponent</text>
</g>
<!-- ChildSelectComponent&#45;&gt;ChildrenModule -->
<g id="edge15" class="edge">
<title>ChildSelectComponent&#45;&gt;ChildrenModule</title>
<path fill="none" stroke="#000000" d="M2254.6986,-122.2458C2254.6986,-136.1772 2254.6986,-153 2254.6986,-153 2254.6986,-153 2297.7206,-153 2297.7206,-153"/>
<polygon fill="#000000" stroke="#000000" points="2297.7206,-156.5001 2307.7206,-153 2297.7206,-149.5001 2297.7206,-156.5001"/>
</g>
<!-- ChildrenCountDashboardComponent -->
<g id="node16" class="node">
<title>ChildrenCountDashboardComponent</title>
<polygon fill="#ffffb3" stroke="#000000" points="2103.6937,-122 1878.3063,-122 1878.3063,-86 2103.6937,-86 2103.6937,-122"/>
<text text-anchor="middle" x="1991" y="-99.8" font-family="Times,serif" font-size="14.00" fill="#000000">ChildrenCountDashboardComponent</text>
</g>
<!-- ChildrenCountDashboardComponent&#45;&gt;ChildrenModule -->
<g id="edge16" class="edge">
<title>ChildrenCountDashboardComponent&#45;&gt;ChildrenModule</title>
<path fill="none" stroke="#000000" d="M2088.4504,-122.1243C2088.4504,-136.7832 2088.4504,-155 2088.4504,-155 2088.4504,-155 2297.9554,-155 2297.9554,-155"/>
<polygon fill="#000000" stroke="#000000" points="2297.9554,-158.5001 2307.9554,-155 2297.9554,-151.5001 2297.9554,-158.5001"/>
</g>
<!-- ChildrenListComponent -->
<g id="node17" class="node">
<title>ChildrenListComponent</title>
<polygon fill="#ffffb3" stroke="#000000" points="1860.1038,-122 1707.8962,-122 1707.8962,-86 1860.1038,-86 1860.1038,-122"/>
<text text-anchor="middle" x="1784" y="-99.8" font-family="Times,serif" font-size="14.00" fill="#000000">ChildrenListComponent</text>
</g>
<!-- ChildrenListComponent&#45;&gt;ChildrenModule -->
<g id="edge17" class="edge">
<title>ChildrenListComponent&#45;&gt;ChildrenModule</title>
<path fill="none" stroke="#000000" d="M1784,-122.2396C1784,-137.5706 1784,-157 1784,-157 1784,-157 2297.8829,-157 2297.8829,-157"/>
<polygon fill="#000000" stroke="#000000" points="2297.883,-160.5001 2307.8829,-157 2297.8829,-153.5001 2297.883,-160.5001"/>
</g>
<!-- EditSchoolDialogComponent -->
<g id="node18" class="node">
<title>EditSchoolDialogComponent</title>
<polygon fill="#ffffb3" stroke="#000000" points="1689.6567,-122 1508.3433,-122 1508.3433,-86 1689.6567,-86 1689.6567,-122"/>
<text text-anchor="middle" x="1599" y="-99.8" font-family="Times,serif" font-size="14.00" fill="#000000">EditSchoolDialogComponent</text>
</g>
<!-- EditSchoolDialogComponent&#45;&gt;ChildrenModule -->
<g id="edge18" class="edge">
<title>EditSchoolDialogComponent&#45;&gt;ChildrenModule</title>
<path fill="none" stroke="#000000" d="M1674.2407,-122.0091C1674.2407,-138.0494 1674.2407,-159 1674.2407,-159 1674.2407,-159 2297.7456,-159 2297.7456,-159"/>
<polygon fill="#000000" stroke="#000000" points="2297.7456,-162.5001 2307.7456,-159 2297.7455,-155.5001 2297.7456,-162.5001"/>
</g>
<!-- EducationalMaterialComponent -->
<g id="node19" class="node">
<title>EducationalMaterialComponent</title>
<polygon fill="#ffffb3" stroke="#000000" points="1489.6218,-122 1294.3782,-122 1294.3782,-86 1489.6218,-86 1489.6218,-122"/>
<text text-anchor="middle" x="1392" y="-99.8" font-family="Times,serif" font-size="14.00" fill="#000000">EducationalMaterialComponent</text>
</g>
<!-- EducationalMaterialComponent&#45;&gt;ChildrenModule -->
<g id="edge19" class="edge">
<title>EducationalMaterialComponent&#45;&gt;ChildrenModule</title>
<path fill="none" stroke="#000000" d="M1485.5345,-122.0352C1485.5345,-138.7344 1485.5345,-161 1485.5345,-161 1485.5345,-161 2297.8346,-161 2297.8346,-161"/>
<polygon fill="#000000" stroke="#000000" points="2297.8346,-164.5001 2307.8346,-161 2297.8346,-157.5001 2297.8346,-164.5001"/>
</g>
<!-- HealthCheckupComponent -->
<g id="node20" class="node">
<title>HealthCheckupComponent</title>
<polygon fill="#ffffb3" stroke="#000000" points="1276.4157,-122 1107.5843,-122 1107.5843,-86 1276.4157,-86 1276.4157,-122"/>
<text text-anchor="middle" x="1192" y="-99.8" font-family="Times,serif" font-size="14.00" fill="#000000">HealthCheckupComponent</text>
</g>
<!-- HealthCheckupComponent&#45;&gt;ChildrenModule -->
<g id="edge20" class="edge">
<title>HealthCheckupComponent&#45;&gt;ChildrenModule</title>
<path fill="none" stroke="#000000" d="M1192,-122.0225C1192,-139.3734 1192,-163 1192,-163 1192,-163 2297.915,-163 2297.915,-163"/>
<polygon fill="#000000" stroke="#000000" points="2297.915,-166.5001 2307.915,-163 2297.915,-159.5001 2297.915,-166.5001"/>
</g>
<!-- NoteDetailsComponent -->
<g id="node21" class="node">
<title>NoteDetailsComponent</title>
<polygon fill="#ffffb3" stroke="#000000" points="1090.1965,-122 941.8035,-122 941.8035,-86 1090.1965,-86 1090.1965,-122"/>
<text text-anchor="middle" x="1016" y="-99.8" font-family="Times,serif" font-size="14.00" fill="#000000">NoteDetailsComponent</text>
</g>
<!-- NoteDetailsComponent&#45;&gt;ChildrenModule -->
<g id="edge21" class="edge">
<title>NoteDetailsComponent&#45;&gt;ChildrenModule</title>
<path fill="none" stroke="#000000" d="M1016,-122.302C1016,-140.2699 1016,-165 1016,-165 1016,-165 2297.5681,-165 2297.5681,-165"/>
<polygon fill="#000000" stroke="#000000" points="2297.5682,-168.5001 2307.5681,-165 2297.5681,-161.5001 2297.5682,-168.5001"/>
</g>
<!-- NotesComponent -->
<g id="node22" class="node">
<title>NotesComponent</title>
<polygon fill="#ffffb3" stroke="#000000" points="923.9888,-122 810.0112,-122 810.0112,-86 923.9888,-86 923.9888,-122"/>
<text text-anchor="middle" x="867" y="-99.8" font-family="Times,serif" font-size="14.00" fill="#000000">NotesComponent</text>
</g>
<!-- NotesComponent&#45;&gt;ChildrenModule -->
<g id="edge22" class="edge">
<title>NotesComponent&#45;&gt;ChildrenModule</title>
<path fill="none" stroke="#000000" d="M867,-122.2222C867,-140.8285 867,-167 867,-167 867,-167 2297.9089,-167 2297.9089,-167"/>
<polygon fill="#000000" stroke="#000000" points="2297.909,-170.5001 2307.9089,-167 2297.9089,-163.5001 2297.909,-170.5001"/>
</g>
<!-- NotesManagerComponent -->
<g id="node23" class="node">
<title>NotesManagerComponent</title>
<polygon fill="#ffffb3" stroke="#000000" points="791.738,-122 628.262,-122 628.262,-86 791.738,-86 791.738,-122"/>
<text text-anchor="middle" x="710" y="-99.8" font-family="Times,serif" font-size="14.00" fill="#000000">NotesManagerComponent</text>
</g>
<!-- NotesManagerComponent&#45;&gt;ChildrenModule -->
<g id="edge23" class="edge">
<title>NotesManagerComponent&#45;&gt;ChildrenModule</title>
<path fill="none" stroke="#000000" d="M710,-122.1061C710,-141.3391 710,-169 710,-169 710,-169 2297.5055,-169 2297.5055,-169"/>
<polygon fill="#000000" stroke="#000000" points="2297.5056,-172.5001 2307.5055,-169 2297.5055,-165.5001 2297.5056,-172.5001"/>
</g>
<!-- ViewSchoolsComponent -->
<g id="node24" class="node">
<title>ViewSchoolsComponent</title>
<polygon fill="#ffffb3" stroke="#000000" points="609.9832,-122 454.0168,-122 454.0168,-86 609.9832,-86 609.9832,-122"/>
<text text-anchor="middle" x="532" y="-99.8" font-family="Times,serif" font-size="14.00" fill="#000000">ViewSchoolsComponent</text>
</g>
<!-- ViewSchoolsComponent&#45;&gt;ChildrenModule -->
<g id="edge24" class="edge">
<title>ViewSchoolsComponent&#45;&gt;ChildrenModule</title>
<path fill="none" stroke="#000000" d="M532,-122.308C532,-142.1455 532,-171 532,-171 532,-171 2297.7282,-171 2297.7282,-171"/>
<polygon fill="#000000" stroke="#000000" points="2297.7283,-174.5001 2307.7282,-171 2297.7282,-167.5001 2297.7283,-174.5001"/>
</g>
<!-- AttendanceAverageDashboardComponent  -->
<g id="node28" class="node">
<title>AttendanceAverageDashboardComponent </title>
<polygon fill="#fb8072" stroke="#000000" points="3234.1309,-252 2977.8691,-252 2977.8691,-216 3234.1309,-216 3234.1309,-252"/>
<text text-anchor="middle" x="3106" y="-229.8" font-family="Times,serif" font-size="14.00" fill="#000000">AttendanceAverageDashboardComponent </text>
</g>
<!-- ChildrenModule&#45;&gt;AttendanceAverageDashboardComponent  -->
<g id="edge27" class="edge">
<title>ChildrenModule&#45;&gt;AttendanceAverageDashboardComponent </title>
<path fill="none" stroke="#000000" stroke-dasharray="5,2" d="M2416.2664,-179C2572.9471,-179 3014.9332,-179 3014.9332,-179 3014.9332,-179 3014.9332,-205.9909 3014.9332,-205.9909"/>
<polygon fill="#000000" stroke="#000000" points="3011.4333,-205.9909 3014.9332,-215.9909 3018.4333,-205.991 3011.4333,-205.9909"/>
</g>
<!-- AttendanceDaysComponent  -->
<g id="node29" class="node">
<title>AttendanceDaysComponent </title>
<polygon fill="#fb8072" stroke="#000000" points="2959.8447,-252 2782.1553,-252 2782.1553,-216 2959.8447,-216 2959.8447,-252"/>
<text text-anchor="middle" x="2871" y="-229.8" font-family="Times,serif" font-size="14.00" fill="#000000">AttendanceDaysComponent </text>
</g>
<!-- ChildrenModule&#45;&gt;AttendanceDaysComponent  -->
<g id="edge28" class="edge">
<title>ChildrenModule&#45;&gt;AttendanceDaysComponent </title>
<path fill="none" stroke="#000000" stroke-dasharray="5,2" d="M2416.1068,-181C2531.0639,-181 2789.213,-181 2789.213,-181 2789.213,-181 2789.213,-205.7604 2789.213,-205.7604"/>
<polygon fill="#000000" stroke="#000000" points="2785.7131,-205.7604 2789.213,-215.7604 2792.7131,-205.7604 2785.7131,-205.7604"/>
</g>
<!-- AttendanceWarningsDashboardComponent  -->
<g id="node30" class="node">
<title>AttendanceWarningsDashboardComponent </title>
<polygon fill="#fb8072" stroke="#000000" points="2764.6448,-252 2501.3552,-252 2501.3552,-216 2764.6448,-216 2764.6448,-252"/>
<text text-anchor="middle" x="2633" y="-229.8" font-family="Times,serif" font-size="14.00" fill="#000000">AttendanceWarningsDashboardComponent </text>
</g>
<!-- ChildrenModule&#45;&gt;AttendanceWarningsDashboardComponent  -->
<g id="edge29" class="edge">
<title>ChildrenModule&#45;&gt;AttendanceWarningsDashboardComponent </title>
<path fill="none" stroke="#000000" stroke-dasharray="5,2" d="M2416.2178,-183C2477.3577,-183 2568.3566,-183 2568.3566,-183 2568.3566,-183 2568.3566,-205.8757 2568.3566,-205.8757"/>
<polygon fill="#000000" stroke="#000000" points="2564.8567,-205.8757 2568.3566,-215.8757 2571.8567,-205.8757 2564.8567,-205.8757"/>
</g>
<!-- ChildrenModule&#45;&gt;AttendanceWarningsDashboardComponent  -->
<g id="edge30" class="edge">
<title>ChildrenModule&#45;&gt;AttendanceWarningsDashboardComponent </title>
<path fill="none" stroke="#000000" stroke-dasharray="5,2" d="M2416.1906,-185C2466.8575,-185 2534.7671,-185 2534.7671,-185 2534.7671,-185 2534.7671,-205.7542 2534.7671,-205.7542"/>
<polygon fill="#000000" stroke="#000000" points="2531.2672,-205.7542 2534.7671,-215.7542 2538.2672,-205.7542 2531.2672,-205.7542"/>
</g>
<!-- AttendanceWeekDashboardComponent  -->
<g id="node31" class="node">
<title>AttendanceWeekDashboardComponent </title>
<polygon fill="#fb8072" stroke="#000000" points="2482.8634,-252 2241.1366,-252 2241.1366,-216 2482.8634,-216 2482.8634,-252"/>
<text text-anchor="middle" x="2362" y="-229.8" font-family="Times,serif" font-size="14.00" fill="#000000">AttendanceWeekDashboardComponent </text>
</g>
<!-- ChildrenModule&#45;&gt;AttendanceWeekDashboardComponent  -->
<g id="edge31" class="edge">
<title>ChildrenModule&#45;&gt;AttendanceWeekDashboardComponent </title>
<path fill="none" stroke="#000000" stroke-dasharray="5,2" d="M2362,-187.1061C2362,-187.1061 2362,-205.991 2362,-205.991"/>
<polygon fill="#000000" stroke="#000000" points="2358.5001,-205.9909 2362,-215.991 2365.5001,-205.991 2358.5001,-205.9909"/>
</g>
<!-- ChildBlockComponent  -->
<g id="node32" class="node">
<title>ChildBlockComponent </title>
<polygon fill="#fb8072" stroke="#000000" points="2222.8925,-252 2073.1075,-252 2073.1075,-216 2222.8925,-216 2222.8925,-252"/>
<text text-anchor="middle" x="2148" y="-229.8" font-family="Times,serif" font-size="14.00" fill="#000000">ChildBlockComponent </text>
</g>
<!-- ChildrenModule&#45;&gt;ChildBlockComponent  -->
<g id="edge32" class="edge">
<title>ChildrenModule&#45;&gt;ChildBlockComponent </title>
<path fill="none" stroke="#000000" stroke-dasharray="5,2" d="M2307.8603,-185C2251.7557,-185 2172.1835,-185 2172.1835,-185 2172.1835,-185 2172.1835,-205.7542 2172.1835,-205.7542"/>
<polygon fill="#000000" stroke="#000000" points="2168.6836,-205.7542 2172.1835,-215.7542 2175.6836,-205.7542 2168.6836,-205.7542"/>
</g>
<!-- ChildSelectComponent  -->
<g id="node33" class="node">
<title>ChildSelectComponent </title>
<polygon fill="#fb8072" stroke="#000000" points="2055.1579,-252 1904.8421,-252 1904.8421,-216 2055.1579,-216 2055.1579,-252"/>
<text text-anchor="middle" x="1980" y="-229.8" font-family="Times,serif" font-size="14.00" fill="#000000">ChildSelectComponent </text>
</g>
<!-- ChildrenModule&#45;&gt;ChildSelectComponent  -->
<g id="edge33" class="edge">
<title>ChildrenModule&#45;&gt;ChildSelectComponent </title>
<path fill="none" stroke="#000000" stroke-dasharray="5,2" d="M2307.6744,-183C2202.211,-183 1980,-183 1980,-183 1980,-183 1980,-205.8757 1980,-205.8757"/>
<polygon fill="#000000" stroke="#000000" points="1976.5001,-205.8757 1980,-215.8757 1983.5001,-205.8757 1976.5001,-205.8757"/>
</g>
<!-- ChildrenCountDashboardComponent  -->
<g id="node34" class="node">
<title>ChildrenCountDashboardComponent </title>
<polygon fill="#fb8072" stroke="#000000" points="1887.1938,-252 1658.8062,-252 1658.8062,-216 1887.1938,-216 1887.1938,-252"/>
<text text-anchor="middle" x="1773" y="-229.8" font-family="Times,serif" font-size="14.00" fill="#000000">ChildrenCountDashboardComponent </text>
</g>
<!-- ChildrenModule&#45;&gt;ChildrenCountDashboardComponent  -->
<g id="edge34" class="edge">
<title>ChildrenModule&#45;&gt;ChildrenCountDashboardComponent </title>
<path fill="none" stroke="#000000" stroke-dasharray="5,2" d="M2307.5047,-181C2181.9265,-181 1882.875,-181 1882.875,-181 1882.875,-181 1882.875,-205.7604 1882.875,-205.7604"/>
<polygon fill="#000000" stroke="#000000" points="1879.3751,-205.7604 1882.875,-215.7604 1886.3751,-205.7604 1879.3751,-205.7604"/>
</g>
<!-- ViewSchoolsComponent  -->
<g id="node35" class="node">
<title>ViewSchoolsComponent </title>
<polygon fill="#fb8072" stroke="#000000" points="1640.9839,-252 1481.0161,-252 1481.0161,-216 1640.9839,-216 1640.9839,-252"/>
<text text-anchor="middle" x="1561" y="-229.8" font-family="Times,serif" font-size="14.00" fill="#000000">ViewSchoolsComponent </text>
</g>
<!-- ChildrenModule&#45;&gt;ViewSchoolsComponent  -->
<g id="edge35" class="edge">
<title>ChildrenModule&#45;&gt;ViewSchoolsComponent </title>
<path fill="none" stroke="#000000" stroke-dasharray="5,2" d="M2307.869,-179C2129.9405,-179 1574.4567,-179 1574.4567,-179 1574.4567,-179 1574.4567,-205.9909 1574.4567,-205.9909"/>
<polygon fill="#000000" stroke="#000000" points="1570.9568,-205.9909 1574.4567,-215.9909 1577.9568,-205.991 1570.9568,-205.9909"/>
</g>
<!-- SchoolsModule -->
<g id="node26" class="node">
<title>SchoolsModule</title>
<polygon fill="#8dd3c7" stroke="#000000" points="429.8823,-122 426.8823,-126 405.8823,-126 402.8823,-122 326.1177,-122 326.1177,-86 429.8823,-86 429.8823,-122"/>
<text text-anchor="middle" x="378" y="-99.8" font-family="Times,serif" font-size="14.00" fill="#000000">SchoolsModule</text>
</g>
<!-- SchoolsModule&#45;&gt;ChildrenModule -->
<g id="edge25" class="edge">
<title>SchoolsModule&#45;&gt;ChildrenModule</title>
<path fill="none" stroke="#000000" d="M378,-122.1289C378,-142.5724 378,-173 378,-173 378,-173 2297.9038,-173 2297.9038,-173"/>
<polygon fill="#000000" stroke="#000000" points="2297.9039,-176.5001 2307.9038,-173 2297.9038,-169.5001 2297.9039,-176.5001"/>
</g>
<!-- UiHelperModule -->
<g id="node27" class="node">
<title>UiHelperModule</title>
<polygon fill="#8dd3c7" stroke="#000000" points="307.6346,-122 304.6346,-126 283.6346,-126 280.6346,-122 196.3654,-122 196.3654,-86 307.6346,-86 307.6346,-122"/>
<text text-anchor="middle" x="252" y="-99.8" font-family="Times,serif" font-size="14.00" fill="#000000">UiHelperModule</text>
</g>
<!-- UiHelperModule&#45;&gt;ChildrenModule -->
<g id="edge26" class="edge">
<title>UiHelperModule&#45;&gt;ChildrenModule</title>
<path fill="none" stroke="#000000" d="M252,-122.2843C252,-143.3211 252,-175 252,-175 252,-175 2297.722,-175 2297.722,-175"/>
<polygon fill="#000000" stroke="#000000" points="2297.7221,-178.5001 2307.722,-175 2297.722,-171.5001 2297.7221,-178.5001"/>
</g>
<!-- ChildrenService -->
<g id="node36" class="node">
<title>ChildrenService</title>
<ellipse fill="#fdb462" stroke="#000000" cx="98" cy="-104" rx="73.5734" ry="18"/>
<text text-anchor="middle" x="98" y="-99.8" font-family="Times,serif" font-size="14.00" fill="#000000">ChildrenService</text>
</g>
<!-- ChildrenService&#45;&gt;ChildrenModule -->
<g id="edge36" class="edge">
<title>ChildrenService&#45;&gt;ChildrenModule</title>
<path fill="none" stroke="#000000" d="M98,-122.0449C98,-143.6623 98,-177 98,-177 98,-177 2297.7144,-177 2297.7144,-177"/>
<polygon fill="#000000" stroke="#000000" points="2297.7144,-180.5001 2307.7144,-177 2297.7143,-173.5001 2297.7144,-180.5001"/>
</g>
</g>
</svg>
