<?xml version="1.0" encoding="UTF-8" standalone="no"?>
<!DOCTYPE svg PUBLIC "-//W3C//DTD SVG 1.1//EN"
 "http://www.w3.org/Graphics/SVG/1.1/DTD/svg11.dtd">
<!-- Generated by graphviz version 2.47.0 (20210316.0004)
 -->
<!-- Title: dependencies Pages: 1 -->
<svg width="790pt" height="284pt"
 viewBox="0.00 0.00 790.00 284.00" xmlns="http://www.w3.org/2000/svg" xmlns:xlink="http://www.w3.org/1999/xlink">
<g id="graph0" class="graph" transform="scale(1 1) rotate(0) translate(4 280)">
<title>dependencies</title>
<polygon fill="white" stroke="transparent" points="-4,4 -4,-280 786,-280 786,4 -4,4"/>
<text text-anchor="start" x="370.01" y="-42.4" font-family="Times-12" font-weight="bold" font-size="14.00">Legend</text>
<polygon fill="#ffffb3" stroke="transparent" points="157,-10 157,-30 177,-30 177,-10 157,-10"/>
<text text-anchor="start" x="180.63" y="-15.4" font-family="Times-12" font-size="14.00"> &#160;Declarations</text>
<polygon fill="#8dd3c7" stroke="transparent" points="270,-10 270,-30 290,-30 290,-10 270,-10"/>
<text text-anchor="start" x="293.73" y="-15.4" font-family="Times-12" font-size="14.00"> &#160;Module</text>
<polygon fill="#80b1d3" stroke="transparent" points="356,-10 356,-30 376,-30 376,-10 356,-10"/>
<text text-anchor="start" x="379.78" y="-15.4" font-family="Times-12" font-size="14.00"> &#160;Bootstrap</text>
<polygon fill="#fdb462" stroke="transparent" points="453,-10 453,-30 473,-30 473,-10 453,-10"/>
<text text-anchor="start" x="476.67" y="-15.4" font-family="Times-12" font-size="14.00"> &#160;Providers</text>
<polygon fill="#fb8072" stroke="transparent" points="549,-10 549,-30 569,-30 569,-10 549,-10"/>
<text text-anchor="start" x="572.73" y="-15.4" font-family="Times-12" font-size="14.00"> &#160;Exports</text>
<g id="clust1" class="cluster">
<title>cluster_DemoDataModule</title>
<polygon fill="none" stroke="black" stroke-dasharray="1,5" points="8,-70 8,-268 774,-268 774,-70 8,-70"/>
</g>
<g id="clust2" class="cluster">
<title>cluster_DemoDataModule_declarations</title>
<polygon fill="none" stroke="black" points="460,-78 460,-130 766,-130 766,-78 460,-78"/>
</g>
<g id="clust5" class="cluster">
<title>cluster_DemoDataModule_exports</title>
<polygon fill="none" stroke="black" points="170,-208 170,-260 480,-260 480,-208 170,-208"/>
</g>
<g id="clust7" class="cluster">
<title>cluster_DemoDataModule_providers</title>
<polygon fill="none" stroke="black" points="16,-78 16,-130 452,-130 452,-78 16,-78"/>
</g>
<!-- DemoDataGeneratingProgressDialogComponent -->
<g id="node1" class="node">
<title>DemoDataGeneratingProgressDialogComponent</title>
<polygon fill="#ffffb3" stroke="black" points="758.47,-122 467.53,-122 467.53,-86 758.47,-86 758.47,-122"/>
<text text-anchor="middle" x="613" y="-99.8" font-family="Times,serif" font-size="14.00">DemoDataGeneratingProgressDialogComponent</text>
</g>
<!-- DemoDataModule -->
<g id="node2" class="node">
<title>DemoDataModule</title>
<polygon fill="#8dd3c7" stroke="black" points="385.19,-187 382.19,-191 361.19,-191 358.19,-187 264.81,-187 264.81,-151 385.19,-151 385.19,-187"/>
<text text-anchor="middle" x="325" y="-164.8" font-family="Times,serif" font-size="14.00">DemoDataModule</text>
</g>
<!-- DemoDataGeneratingProgressDialogComponent&#45;&gt;DemoDataModule -->
<g id="edge1" class="edge">
<title>DemoDataGeneratingProgressDialogComponent&#45;&gt;DemoDataModule</title>
<path fill="none" stroke="black" d="M615.11,-122.11C615.11,-141.34 615.11,-169 615.11,-169 615.11,-169 395.11,-169 395.11,-169"/>
<polygon fill="black" stroke="black" points="395.11,-165.5 385.11,-169 395.11,-172.5 395.11,-165.5"/>
</g>
<!-- DemoDataGeneratingProgressDialogComponent  -->
<g id="node3" class="node">
<title>DemoDataGeneratingProgressDialogComponent </title>
<polygon fill="#fb8072" stroke="black" points="471.97,-252 178.03,-252 178.03,-216 471.97,-216 471.97,-252"/>
<text text-anchor="middle" x="325" y="-229.8" font-family="Times,serif" font-size="14.00">DemoDataGeneratingProgressDialogComponent </text>
</g>
<!-- DemoDataModule&#45;&gt;DemoDataGeneratingProgressDialogComponent  -->
<g id="edge2" class="edge">
<title>DemoDataModule&#45;&gt;DemoDataGeneratingProgressDialogComponent </title>
<path fill="none" stroke="black" stroke-dasharray="5,2" d="M325,-187.11C325,-187.11 325,-205.99 325,-205.99"/>
<polygon fill="black" stroke="black" points="321.5,-205.99 325,-215.99 328.5,-205.99 321.5,-205.99"/>
</g>
<!-- DemoDataInitializerService -->
<g id="node4" class="node">
<title>DemoDataInitializerService</title>
<ellipse fill="#fdb462" stroke="black" cx="325" cy="-104" rx="119.21" ry="18"/>
<text text-anchor="middle" x="325" y="-99.8" font-family="Times,serif" font-size="14.00">DemoDataInitializerService</text>
</g>
<!-- DemoDataInitializerService&#45;&gt;DemoDataModule -->
<g id="edge3" class="edge">
<title>DemoDataInitializerService&#45;&gt;DemoDataModule</title>
<path fill="none" stroke="black" d="M325,-122.11C325,-122.11 325,-140.99 325,-140.99"/>
<polygon fill="black" stroke="black" points="321.5,-140.99 325,-150.99 328.5,-140.99 321.5,-140.99"/>
</g>
<!-- DemoDataService -->
<g id="node5" class="node">
<title>DemoDataService</title>
<ellipse fill="#fdb462" stroke="black" cx="106" cy="-104" rx="81.64" ry="18"/>
<text text-anchor="middle" x="106" y="-99.8" font-family="Times,serif" font-size="14.00">DemoDataService</text>
</g>
<!-- DemoDataService&#45;&gt;DemoDataModule -->
<g id="edge4" class="edge">
<title>DemoDataService&#45;&gt;DemoDataModule</title>
<path fill="none" stroke="black" d="M182.92,-110.47C182.92,-126.91 182.92,-169 182.92,-169 182.92,-169 254.74,-169 254.74,-169"/>
<polygon fill="black" stroke="black" points="254.74,-172.5 264.74,-169 254.74,-165.5 254.74,-172.5"/>
</g>
</g>
</svg>
