<?xml version="1.0" encoding="UTF-8" standalone="no"?>
<!DOCTYPE svg PUBLIC "-//W3C//DTD SVG 1.1//EN"
 "http://www.w3.org/Graphics/SVG/1.1/DTD/svg11.dtd">
<!-- Generated by graphviz version 2.40.1 (20161225.0304)
 -->
<!-- Title: dependencies Pages: 1 -->
<svg width="1044pt" height="284pt"
 viewBox="0.00 0.00 1044.00 284.00" xmlns="http://www.w3.org/2000/svg" xmlns:xlink="http://www.w3.org/1999/xlink">
<g id="graph0" class="graph" transform="scale(1 1) rotate(0) translate(4 280)">
<title>dependencies</title>
<polygon fill="#ffffff" stroke="transparent" points="-4,4 -4,-280 1040,-280 1040,4 -4,4"/>
<text text-anchor="start" x="497.0091" y="-42.4" font-family="sans-serif" font-weight="bold" font-size="14.00" fill="#000000">Legend</text>
<polygon fill="#ffffb3" stroke="transparent" points="284,-10 284,-30 304,-30 304,-10 284,-10"/>
<text text-anchor="start" x="307.629" y="-15.4" font-family="sans-serif" font-size="14.00" fill="#000000"> &#160;Declarations</text>
<polygon fill="#8dd3c7" stroke="transparent" points="397,-10 397,-30 417,-30 417,-10 397,-10"/>
<text text-anchor="start" x="420.7251" y="-15.4" font-family="sans-serif" font-size="14.00" fill="#000000"> &#160;Module</text>
<polygon fill="#80b1d3" stroke="transparent" points="483,-10 483,-30 503,-30 503,-10 483,-10"/>
<text text-anchor="start" x="506.7812" y="-15.4" font-family="sans-serif" font-size="14.00" fill="#000000"> &#160;Bootstrap</text>
<polygon fill="#fdb462" stroke="transparent" points="580,-10 580,-30 600,-30 600,-10 580,-10"/>
<text text-anchor="start" x="603.6732" y="-15.4" font-family="sans-serif" font-size="14.00" fill="#000000"> &#160;Providers</text>
<polygon fill="#fb8072" stroke="transparent" points="676,-10 676,-30 696,-30 696,-10 676,-10"/>
<text text-anchor="start" x="699.7258" y="-15.4" font-family="sans-serif" font-size="14.00" fill="#000000"> &#160;Exports</text>
<g id="clust1" class="cluster">
<title>cluster_LatestChangesModule</title>
<polygon fill="none" stroke="#000000" stroke-dasharray="1,5" points="8,-70 8,-268 1028,-268 1028,-70 8,-70"/>
</g>
<g id="clust2" class="cluster">
<title>cluster_LatestChangesModule_declarations</title>
<polygon fill="none" stroke="#000000" points="694,-78 694,-130 1020,-130 1020,-78 694,-78"/>
</g>
<g id="clust5" class="cluster">
<title>cluster_LatestChangesModule_imports</title>
<polygon fill="none" stroke="#000000" points="456,-78 456,-130 686,-130 686,-78 456,-78"/>
</g>
<g id="clust6" class="cluster">
<title>cluster_LatestChangesModule_exports</title>
<polygon fill="none" stroke="#000000" points="488,-208 488,-260 658,-260 658,-208 488,-208"/>
</g>
<g id="clust8" class="cluster">
<title>cluster_LatestChangesModule_providers</title>
<polygon fill="none" stroke="#000000" points="16,-78 16,-130 448,-130 448,-78 16,-78"/>
</g>
<!-- AppVersionComponent -->
<g id="node1" class="node">
<title>AppVersionComponent</title>
<polygon fill="#ffffb3" stroke="#000000" points="1011.7562,-122 862.2438,-122 862.2438,-86 1011.7562,-86 1011.7562,-122"/>
<text text-anchor="middle" x="937" y="-99.8" font-family="Times,serif" font-size="14.00" fill="#000000">AppVersionComponent</text>
</g>
<!-- LatestChangesModule -->
<g id="node3" class="node">
<title>LatestChangesModule</title>
<polygon fill="#8dd3c7" stroke="#000000" points="643.9678,-187 640.9678,-191 619.9678,-191 616.9678,-187 502.0322,-187 502.0322,-151 643.9678,-151 643.9678,-187"/>
<text text-anchor="middle" x="573" y="-164.8" font-family="Times,serif" font-size="14.00" fill="#000000">LatestChangesModule</text>
</g>
<!-- AppVersionComponent&#45;&gt;LatestChangesModule -->
<g id="edge1" class="edge">
<title>AppVersionComponent&#45;&gt;LatestChangesModule</title>
<path fill="none" stroke="#000000" d="M937,-122.2843C937,-143.3211 937,-175 937,-175 937,-175 654.047,-175 654.047,-175"/>
<polygon fill="#000000" stroke="#000000" points="654.047,-171.5001 644.047,-175 654.0469,-178.5001 654.047,-171.5001"/>
</g>
<!-- ChangelogComponent -->
<g id="node2" class="node">
<title>ChangelogComponent</title>
<polygon fill="#ffffb3" stroke="#000000" points="843.9888,-122 702.0112,-122 702.0112,-86 843.9888,-86 843.9888,-122"/>
<text text-anchor="middle" x="773" y="-99.8" font-family="Times,serif" font-size="14.00" fill="#000000">ChangelogComponent</text>
</g>
<!-- ChangelogComponent&#45;&gt;LatestChangesModule -->
<g id="edge2" class="edge">
<title>ChangelogComponent&#45;&gt;LatestChangesModule</title>
<path fill="none" stroke="#000000" d="M773,-122.0225C773,-139.3734 773,-163 773,-163 773,-163 654.0757,-163 654.0757,-163"/>
<polygon fill="#000000" stroke="#000000" points="654.0757,-159.5001 644.0757,-163 654.0756,-166.5001 654.0757,-159.5001"/>
</g>
<!-- AppVersionComponent  -->
<g id="node6" class="node">
<title>AppVersionComponent </title>
<polygon fill="#fb8072" stroke="#000000" points="649.7562,-252 496.2438,-252 496.2438,-216 649.7562,-216 649.7562,-252"/>
<text text-anchor="middle" x="573" y="-229.8" font-family="Times,serif" font-size="14.00" fill="#000000">AppVersionComponent </text>
</g>
<!-- LatestChangesModule&#45;&gt;AppVersionComponent  -->
<g id="edge5" class="edge">
<title>LatestChangesModule&#45;&gt;AppVersionComponent </title>
<path fill="none" stroke="#000000" stroke-dasharray="5,2" d="M573,-187.1061C573,-187.1061 573,-205.991 573,-205.991"/>
<polygon fill="#000000" stroke="#000000" points="569.5001,-205.9909 573,-215.991 576.5001,-205.991 569.5001,-205.9909"/>
</g>
<!-- AlertsModule -->
<g id="node4" class="node">
<title>AlertsModule</title>
<polygon fill="#8dd3c7" stroke="#000000" points="677.7577,-122 674.7577,-126 653.7577,-126 650.7577,-122 584.2423,-122 584.2423,-86 677.7577,-86 677.7577,-122"/>
<text text-anchor="middle" x="631" y="-99.8" font-family="Times,serif" font-size="14.00" fill="#000000">AlertsModule</text>
</g>
<!-- AlertsModule&#45;&gt;LatestChangesModule -->
<g id="edge3" class="edge">
<title>AlertsModule&#45;&gt;LatestChangesModule</title>
<path fill="none" stroke="#000000" d="M614.0526,-122.1061C614.0526,-122.1061 614.0526,-140.991 614.0526,-140.991"/>
<polygon fill="#000000" stroke="#000000" points="610.5527,-140.9909 614.0526,-150.991 617.5527,-140.991 610.5527,-140.9909"/>
</g>
<!-- SessionModule -->
<g id="node5" class="node">
<title>SessionModule</title>
<polygon fill="#8dd3c7" stroke="#000000" points="566.3273,-122 563.3273,-126 542.3273,-126 539.3273,-122 463.6727,-122 463.6727,-86 566.3273,-86 566.3273,-122"/>
<text text-anchor="middle" x="515" y="-99.8" font-family="Times,serif" font-size="14.00" fill="#000000">SessionModule</text>
</g>
<!-- SessionModule&#45;&gt;LatestChangesModule -->
<g id="edge4" class="edge">
<title>SessionModule&#45;&gt;LatestChangesModule</title>
<path fill="none" stroke="#000000" d="M534.0898,-122.1061C534.0898,-122.1061 534.0898,-140.991 534.0898,-140.991"/>
<polygon fill="#000000" stroke="#000000" points="530.5898,-140.9909 534.0898,-150.991 537.5898,-140.991 530.5898,-140.9909"/>
</g>
<!-- LatestChangesService -->
<g id="node7" class="node">
<title>LatestChangesService</title>
<ellipse fill="#fdb462" stroke="#000000" cx="343" cy="-104" rx="96.6849" ry="18"/>
<text text-anchor="middle" x="343" y="-99.8" font-family="Times,serif" font-size="14.00" fill="#000000">LatestChangesService</text>
</g>
<!-- LatestChangesService&#45;&gt;LatestChangesModule -->
<g id="edge6" class="edge">
<title>LatestChangesService&#45;&gt;LatestChangesModule</title>
<path fill="none" stroke="#000000" d="M343,-122.0225C343,-139.3734 343,-163 343,-163 343,-163 491.8017,-163 491.8017,-163"/>
<polygon fill="#000000" stroke="#000000" points="491.8017,-166.5001 501.8017,-163 491.8016,-159.5001 491.8017,-166.5001"/>
</g>
<!-- UpdateManagerService -->
<g id="node8" class="node">
<title>UpdateManagerService</title>
<ellipse fill="#fdb462" stroke="#000000" cx="126" cy="-104" rx="102.3868" ry="18"/>
<text text-anchor="middle" x="126" y="-99.8" font-family="Times,serif" font-size="14.00" fill="#000000">UpdateManagerService</text>
</g>
<!-- UpdateManagerService&#45;&gt;LatestChangesModule -->
<g id="edge7" class="edge">
<title>UpdateManagerService&#45;&gt;LatestChangesModule</title>
<path fill="none" stroke="#000000" d="M126,-122.2843C126,-143.3211 126,-175 126,-175 126,-175 491.6773,-175 491.6773,-175"/>
<polygon fill="#000000" stroke="#000000" points="491.6773,-178.5001 501.6773,-175 491.6772,-171.5001 491.6773,-178.5001"/>
</g>
</g>
</svg>
