<?xml version="1.0" encoding="UTF-8" standalone="no"?>
<!DOCTYPE svg PUBLIC "-//W3C//DTD SVG 1.1//EN"
 "http://www.w3.org/Graphics/SVG/1.1/DTD/svg11.dtd">
<!-- Generated by graphviz version 2.40.1 (20161225.0304)
 -->
<!-- Title: dependencies Pages: 1 -->
<svg width="690pt" height="284pt"
 viewBox="0.00 0.00 690.00 284.00" xmlns="http://www.w3.org/2000/svg" xmlns:xlink="http://www.w3.org/1999/xlink">
<g id="graph0" class="graph" transform="scale(1 1) rotate(0) translate(4 280)">
<title>dependencies</title>
<polygon fill="#ffffff" stroke="transparent" points="-4,4 -4,-280 686,-280 686,4 -4,4"/>
<text text-anchor="start" x="320.0091" y="-42.4" font-family="sans-serif" font-weight="bold" font-size="14.00" fill="#000000">Legend</text>
<polygon fill="#ffffb3" stroke="transparent" points="107,-10 107,-30 127,-30 127,-10 107,-10"/>
<text text-anchor="start" x="130.629" y="-15.4" font-family="sans-serif" font-size="14.00" fill="#000000"> &#160;Declarations</text>
<polygon fill="#8dd3c7" stroke="transparent" points="220,-10 220,-30 240,-30 240,-10 220,-10"/>
<text text-anchor="start" x="243.7251" y="-15.4" font-family="sans-serif" font-size="14.00" fill="#000000"> &#160;Module</text>
<polygon fill="#80b1d3" stroke="transparent" points="306,-10 306,-30 326,-30 326,-10 306,-10"/>
<text text-anchor="start" x="329.7812" y="-15.4" font-family="sans-serif" font-size="14.00" fill="#000000"> &#160;Bootstrap</text>
<polygon fill="#fdb462" stroke="transparent" points="403,-10 403,-30 423,-30 423,-10 403,-10"/>
<text text-anchor="start" x="426.6732" y="-15.4" font-family="sans-serif" font-size="14.00" fill="#000000"> &#160;Providers</text>
<polygon fill="#fb8072" stroke="transparent" points="499,-10 499,-30 519,-30 519,-10 499,-10"/>
<text text-anchor="start" x="522.7258" y="-15.4" font-family="sans-serif" font-size="14.00" fill="#000000"> &#160;Exports</text>
<g id="clust1" class="cluster">
<title>cluster_SessionModule</title>
<polygon fill="none" stroke="#000000" stroke-dasharray="1,5" points="8,-70 8,-268 674,-268 674,-70 8,-70"/>
</g>
<g id="clust2" class="cluster">
<title>cluster_SessionModule_declarations</title>
<polygon fill="none" stroke="#000000" points="536,-78 536,-130 666,-130 666,-78 536,-78"/>
</g>
<g id="clust4" class="cluster">
<title>cluster_SessionModule_imports</title>
<polygon fill="none" stroke="#000000" points="178,-78 178,-130 528,-130 528,-78 178,-78"/>
</g>
<g id="clust5" class="cluster">
<title>cluster_SessionModule_exports</title>
<polygon fill="none" stroke="#000000" points="286,-208 286,-260 420,-260 420,-208 286,-208"/>
</g>
<g id="clust7" class="cluster">
<title>cluster_SessionModule_providers</title>
<polygon fill="none" stroke="#000000" points="16,-78 16,-130 170,-130 170,-78 16,-78"/>
</g>
<!-- LoginComponent -->
<g id="node1" class="node">
<title>LoginComponent</title>
<polygon fill="#ffffb3" stroke="#000000" points="658.2758,-122 543.7242,-122 543.7242,-86 658.2758,-86 658.2758,-122"/>
<text text-anchor="middle" x="601" y="-99.8" font-family="Times,serif" font-size="14.00" fill="#000000">LoginComponent</text>
</g>
<!-- SessionModule -->
<g id="node2" class="node">
<title>SessionModule</title>
<polygon fill="#8dd3c7" stroke="#000000" points="404.3273,-187 401.3273,-191 380.3273,-191 377.3273,-187 301.6727,-187 301.6727,-151 404.3273,-151 404.3273,-187"/>
<text text-anchor="middle" x="353" y="-164.8" font-family="Times,serif" font-size="14.00" fill="#000000">SessionModule</text>
</g>
<!-- LoginComponent&#45;&gt;SessionModule -->
<g id="edge1" class="edge">
<title>LoginComponent&#45;&gt;SessionModule</title>
<path fill="none" stroke="#000000" d="M601,-122.2843C601,-143.3211 601,-175 601,-175 601,-175 414.3858,-175 414.3858,-175"/>
<polygon fill="#000000" stroke="#000000" points="414.3858,-171.5001 404.3858,-175 414.3857,-178.5001 414.3858,-171.5001"/>
</g>
<!-- LoginComponent  -->
<g id="node6" class="node">
<title>LoginComponent </title>
<polygon fill="#fb8072" stroke="#000000" points="412.2759,-252 293.7241,-252 293.7241,-216 412.2759,-216 412.2759,-252"/>
<text text-anchor="middle" x="353" y="-229.8" font-family="Times,serif" font-size="14.00" fill="#000000">LoginComponent </text>
</g>
<!-- SessionModule&#45;&gt;LoginComponent  -->
<g id="edge5" class="edge">
<title>SessionModule&#45;&gt;LoginComponent </title>
<path fill="none" stroke="#000000" stroke-dasharray="5,2" d="M353,-187.1061C353,-187.1061 353,-205.991 353,-205.991"/>
<polygon fill="#000000" stroke="#000000" points="349.5001,-205.9909 353,-215.991 356.5001,-205.991 349.5001,-205.9909"/>
</g>
<!-- AlertsModule -->
<g id="node3" class="node">
<title>AlertsModule</title>
<polygon fill="#8dd3c7" stroke="#000000" points="519.7577,-122 516.7577,-126 495.7577,-126 492.7577,-122 426.2423,-122 426.2423,-86 519.7577,-86 519.7577,-122"/>
<text text-anchor="middle" x="473" y="-99.8" font-family="Times,serif" font-size="14.00" fill="#000000">AlertsModule</text>
</g>
<!-- AlertsModule&#45;&gt;SessionModule -->
<g id="edge2" class="edge">
<title>AlertsModule&#45;&gt;SessionModule</title>
<path fill="none" stroke="#000000" d="M473,-122.0225C473,-139.3734 473,-163 473,-163 473,-163 414.2389,-163 414.2389,-163"/>
<polygon fill="#000000" stroke="#000000" points="414.2389,-159.5001 404.2389,-163 414.2388,-166.5001 414.2389,-159.5001"/>
</g>
<!-- DatabaseModule -->
<g id="node4" class="node">
<title>DatabaseModule</title>
<polygon fill="#8dd3c7" stroke="#000000" points="408.3501,-122 405.3501,-126 384.3501,-126 381.3501,-122 297.6499,-122 297.6499,-86 408.3501,-86 408.3501,-122"/>
<text text-anchor="middle" x="353" y="-99.8" font-family="Times,serif" font-size="14.00" fill="#000000">DatabaseModule</text>
</g>
<!-- DatabaseModule&#45;&gt;SessionModule -->
<g id="edge3" class="edge">
<title>DatabaseModule&#45;&gt;SessionModule</title>
<path fill="none" stroke="#000000" d="M353,-122.1061C353,-122.1061 353,-140.991 353,-140.991"/>
<polygon fill="#000000" stroke="#000000" points="349.5001,-140.9909 353,-150.991 356.5001,-140.991 349.5001,-140.9909"/>
</g>
<!-- EntityModule -->
<g id="node5" class="node">
<title>EntityModule</title>
<polygon fill="#8dd3c7" stroke="#000000" points="279.7745,-122 276.7745,-126 255.7745,-126 252.7745,-122 186.2255,-122 186.2255,-86 279.7745,-86 279.7745,-122"/>
<text text-anchor="middle" x="233" y="-99.8" font-family="Times,serif" font-size="14.00" fill="#000000">EntityModule</text>
</g>
<!-- EntityModule&#45;&gt;SessionModule -->
<g id="edge4" class="edge">
<title>EntityModule&#45;&gt;SessionModule</title>
<path fill="none" stroke="#000000" d="M233,-122.0225C233,-139.3734 233,-163 233,-163 233,-163 291.7611,-163 291.7611,-163"/>
<polygon fill="#000000" stroke="#000000" points="291.7612,-166.5001 301.7611,-163 291.7611,-159.5001 291.7612,-166.5001"/>
</g>
<!-- SessionService -->
<g id="node7" class="node">
<title>SessionService</title>
<ellipse fill="#fdb462" stroke="#000000" cx="93" cy="-104" rx="69.4974" ry="18"/>
<text text-anchor="middle" x="93" y="-99.8" font-family="Times,serif" font-size="14.00" fill="#000000">SessionService</text>
</g>
<!-- SessionService&#45;&gt;SessionModule -->
<g id="edge6" class="edge">
<title>SessionService&#45;&gt;SessionModule</title>
<path fill="none" stroke="#000000" d="M93,-122.2843C93,-143.3211 93,-175 93,-175 93,-175 291.6324,-175 291.6324,-175"/>
<polygon fill="#000000" stroke="#000000" points="291.6324,-178.5001 301.6324,-175 291.6323,-171.5001 291.6324,-178.5001"/>
</g>
</g>
</svg>
