<?xml version="1.0" encoding="UTF-8" standalone="no"?>
<!DOCTYPE svg PUBLIC "-//W3C//DTD SVG 1.1//EN"
 "http://www.w3.org/Graphics/SVG/1.1/DTD/svg11.dtd">
<!-- Generated by graphviz version 2.40.1 (20161225.0304)
 -->
<!-- Title: dependencies Pages: 1 -->
<svg width="789pt" height="284pt"
 viewBox="0.00 0.00 789.00 284.00" xmlns="http://www.w3.org/2000/svg" xmlns:xlink="http://www.w3.org/1999/xlink">
<g id="graph0" class="graph" transform="scale(1 1) rotate(0) translate(4 280)">
<title>dependencies</title>
<polygon fill="#ffffff" stroke="transparent" points="-4,4 -4,-280 785,-280 785,4 -4,4"/>
<text text-anchor="start" x="369.5091" y="-42.4" font-family="sans-serif" font-weight="bold" font-size="14.00" fill="#000000">Legend</text>
<polygon fill="#ffffb3" stroke="transparent" points="156.5,-10 156.5,-30 176.5,-30 176.5,-10 156.5,-10"/>
<text text-anchor="start" x="180.129" y="-15.4" font-family="sans-serif" font-size="14.00" fill="#000000"> &#160;Declarations</text>
<polygon fill="#8dd3c7" stroke="transparent" points="269.5,-10 269.5,-30 289.5,-30 289.5,-10 269.5,-10"/>
<text text-anchor="start" x="293.2251" y="-15.4" font-family="sans-serif" font-size="14.00" fill="#000000"> &#160;Module</text>
<polygon fill="#80b1d3" stroke="transparent" points="355.5,-10 355.5,-30 375.5,-30 375.5,-10 355.5,-10"/>
<text text-anchor="start" x="379.2812" y="-15.4" font-family="sans-serif" font-size="14.00" fill="#000000"> &#160;Bootstrap</text>
<polygon fill="#fdb462" stroke="transparent" points="452.5,-10 452.5,-30 472.5,-30 472.5,-10 452.5,-10"/>
<text text-anchor="start" x="476.1732" y="-15.4" font-family="sans-serif" font-size="14.00" fill="#000000"> &#160;Providers</text>
<polygon fill="#fb8072" stroke="transparent" points="548.5,-10 548.5,-30 568.5,-30 568.5,-10 548.5,-10"/>
<text text-anchor="start" x="572.2258" y="-15.4" font-family="sans-serif" font-size="14.00" fill="#000000"> &#160;Exports</text>
<g id="clust1" class="cluster">
<title>cluster_UiHelperModule</title>
<polygon fill="none" stroke="#000000" stroke-dasharray="1,5" points="8,-70 8,-268 773,-268 773,-70 8,-70"/>
</g>
<g id="clust2" class="cluster">
<title>cluster_UiHelperModule_declarations</title>
<polygon fill="none" stroke="#000000" points="276,-78 276,-130 765,-130 765,-78 276,-78"/>
</g>
<g id="clust7" class="cluster">
<title>cluster_UiHelperModule_exports</title>
<polygon fill="none" stroke="#000000" points="271,-208 271,-260 555,-260 555,-208 271,-208"/>
</g>
<g id="clust9" class="cluster">
<title>cluster_UiHelperModule_providers</title>
<polygon fill="none" stroke="#000000" points="16,-78 16,-130 268,-130 268,-78 16,-78"/>
</g>
<!-- ConfirmationDialogComponent -->
<g id="node1" class="node">
<title>ConfirmationDialogComponent</title>
<polygon fill="#ffffb3" stroke="#000000" points="757.3696,-122 562.6304,-122 562.6304,-86 757.3696,-86 757.3696,-122"/>
<text text-anchor="middle" x="660" y="-99.8" font-family="Times,serif" font-size="14.00" fill="#000000">ConfirmationDialogComponent</text>
</g>
<!-- UiHelperModule -->
<g id="node4" class="node">
<title>UiHelperModule</title>
<polygon fill="#8dd3c7" stroke="#000000" points="443.6346,-187 440.6346,-191 419.6346,-191 416.6346,-187 332.3654,-187 332.3654,-151 443.6346,-151 443.6346,-187"/>
<text text-anchor="middle" x="388" y="-164.8" font-family="Times,serif" font-size="14.00" fill="#000000">UiHelperModule</text>
</g>
<!-- ConfirmationDialogComponent&#45;&gt;UiHelperModule -->
<g id="edge1" class="edge">
<title>ConfirmationDialogComponent&#45;&gt;UiHelperModule</title>
<path fill="none" stroke="#000000" d="M660,-122.1061C660,-141.3391 660,-169 660,-169 660,-169 453.6996,-169 453.6996,-169"/>
<polygon fill="#000000" stroke="#000000" points="453.6997,-165.5001 443.6996,-169 453.6996,-172.5001 453.6997,-165.5001"/>
</g>
<!-- EntitySubrecordComponent -->
<g id="node2" class="node">
<title>EntitySubrecordComponent</title>
<polygon fill="#ffffb3" stroke="#000000" points="544.5898,-122 371.4102,-122 371.4102,-86 544.5898,-86 544.5898,-122"/>
<text text-anchor="middle" x="458" y="-99.8" font-family="Times,serif" font-size="14.00" fill="#000000">EntitySubrecordComponent</text>
</g>
<!-- EntitySubrecordComponent&#45;&gt;UiHelperModule -->
<g id="edge2" class="edge">
<title>EntitySubrecordComponent&#45;&gt;UiHelperModule</title>
<path fill="none" stroke="#000000" d="M407.6361,-122.1061C407.6361,-122.1061 407.6361,-140.991 407.6361,-140.991"/>
<polygon fill="#000000" stroke="#000000" points="404.1361,-140.9909 407.6361,-150.991 411.1361,-140.991 404.1361,-140.9909"/>
</g>
<!-- KeysPipe -->
<g id="node3" class="node">
<title>KeysPipe</title>
<polygon fill="#ffffb3" stroke="#000000" points="353.6545,-122 284.3455,-122 284.3455,-86 353.6545,-86 353.6545,-122"/>
<text text-anchor="middle" x="319" y="-99.8" font-family="Times,serif" font-size="14.00" fill="#000000">KeysPipe</text>
</g>
<!-- KeysPipe&#45;&gt;UiHelperModule -->
<g id="edge3" class="edge">
<title>KeysPipe&#45;&gt;UiHelperModule</title>
<path fill="none" stroke="#000000" d="M343.0049,-122.1061C343.0049,-122.1061 343.0049,-140.991 343.0049,-140.991"/>
<polygon fill="#000000" stroke="#000000" points="339.505,-140.9909 343.0049,-150.991 346.505,-140.991 339.505,-140.9909"/>
</g>
<!-- EntitySubrecordComponent  -->
<g id="node5" class="node">
<title>EntitySubrecordComponent </title>
<polygon fill="#fb8072" stroke="#000000" points="547.0903,-252 370.9097,-252 370.9097,-216 547.0903,-216 547.0903,-252"/>
<text text-anchor="middle" x="459" y="-229.8" font-family="Times,serif" font-size="14.00" fill="#000000">EntitySubrecordComponent </text>
</g>
<!-- UiHelperModule&#45;&gt;EntitySubrecordComponent  -->
<g id="edge4" class="edge">
<title>UiHelperModule&#45;&gt;EntitySubrecordComponent </title>
<path fill="none" stroke="#000000" stroke-dasharray="5,2" d="M407.2611,-187.1061C407.2611,-187.1061 407.2611,-205.991 407.2611,-205.991"/>
<polygon fill="#000000" stroke="#000000" points="403.7611,-205.9909 407.2611,-215.991 410.7611,-205.991 403.7611,-205.9909"/>
</g>
<!-- KeysPipe  -->
<g id="node6" class="node">
<title>KeysPipe </title>
<polygon fill="#fb8072" stroke="#000000" points="352.6538,-252 279.3462,-252 279.3462,-216 352.6538,-216 352.6538,-252"/>
<text text-anchor="middle" x="316" y="-229.8" font-family="Times,serif" font-size="14.00" fill="#000000">KeysPipe </text>
</g>
<!-- UiHelperModule&#45;&gt;KeysPipe  -->
<g id="edge5" class="edge">
<title>UiHelperModule&#45;&gt;KeysPipe </title>
<path fill="none" stroke="#000000" stroke-dasharray="5,2" d="M342.3799,-187.1061C342.3799,-187.1061 342.3799,-205.991 342.3799,-205.991"/>
<polygon fill="#000000" stroke="#000000" points="338.88,-205.9909 342.3799,-215.991 345.88,-205.991 338.88,-205.9909"/>
</g>
<!-- ConfirmationDialogService -->
<g id="node7" class="node">
<title>ConfirmationDialogService</title>
<ellipse fill="#fdb462" stroke="#000000" cx="142" cy="-104" rx="118.1159" ry="18"/>
<text text-anchor="middle" x="142" y="-99.8" font-family="Times,serif" font-size="14.00" fill="#000000">ConfirmationDialogService</text>
</g>
<!-- ConfirmationDialogService&#45;&gt;UiHelperModule -->
<g id="edge6" class="edge">
<title>ConfirmationDialogService&#45;&gt;UiHelperModule</title>
<path fill="none" stroke="#000000" d="M142,-122.1061C142,-141.3391 142,-169 142,-169 142,-169 322.1788,-169 322.1788,-169"/>
<polygon fill="#000000" stroke="#000000" points="322.1788,-172.5001 332.1788,-169 322.1788,-165.5001 322.1788,-172.5001"/>
</g>
</g>
</svg>
