<?xml version="1.0" encoding="UTF-8" standalone="no"?>
<!DOCTYPE svg PUBLIC "-//W3C//DTD SVG 1.1//EN"
 "http://www.w3.org/Graphics/SVG/1.1/DTD/svg11.dtd">
<!-- Generated by graphviz version 2.40.1 (20161225.0304)
 -->
<!-- Title: dependencies Pages: 1 -->
<svg width="765pt" height="284pt"
 viewBox="0.00 0.00 765.00 284.00" xmlns="http://www.w3.org/2000/svg" xmlns:xlink="http://www.w3.org/1999/xlink">
<g id="graph0" class="graph" transform="scale(1 1) rotate(0) translate(4 280)">
<title>dependencies</title>
<polygon fill="#ffffff" stroke="transparent" points="-4,4 -4,-280 761,-280 761,4 -4,4"/>
<text text-anchor="start" x="357.5091" y="-42.4" font-family="sans-serif" font-weight="bold" font-size="14.00" fill="#000000">Legend</text>
<polygon fill="#ffffb3" stroke="transparent" points="144.5,-10 144.5,-30 164.5,-30 164.5,-10 144.5,-10"/>
<text text-anchor="start" x="168.129" y="-15.4" font-family="sans-serif" font-size="14.00" fill="#000000"> &#160;Declarations</text>
<polygon fill="#8dd3c7" stroke="transparent" points="257.5,-10 257.5,-30 277.5,-30 277.5,-10 257.5,-10"/>
<text text-anchor="start" x="281.2251" y="-15.4" font-family="sans-serif" font-size="14.00" fill="#000000"> &#160;Module</text>
<polygon fill="#80b1d3" stroke="transparent" points="343.5,-10 343.5,-30 363.5,-30 363.5,-10 343.5,-10"/>
<text text-anchor="start" x="367.2812" y="-15.4" font-family="sans-serif" font-size="14.00" fill="#000000"> &#160;Bootstrap</text>
<polygon fill="#fdb462" stroke="transparent" points="440.5,-10 440.5,-30 460.5,-30 460.5,-10 440.5,-10"/>
<text text-anchor="start" x="464.1732" y="-15.4" font-family="sans-serif" font-size="14.00" fill="#000000"> &#160;Providers</text>
<polygon fill="#fb8072" stroke="transparent" points="536.5,-10 536.5,-30 556.5,-30 556.5,-10 536.5,-10"/>
<text text-anchor="start" x="560.2258" y="-15.4" font-family="sans-serif" font-size="14.00" fill="#000000"> &#160;Exports</text>
<g id="clust1" class="cluster">
<title>cluster_SyncStatusModule</title>
<polygon fill="none" stroke="#000000" stroke-dasharray="1,5" points="8,-70 8,-268 749,-268 749,-70 8,-70"/>
</g>
<g id="clust2" class="cluster">
<title>cluster_SyncStatusModule_declarations</title>
<polygon fill="none" stroke="#000000" points="383,-78 383,-130 741,-130 741,-78 383,-78"/>
</g>
<g id="clust5" class="cluster">
<title>cluster_SyncStatusModule_imports</title>
<polygon fill="none" stroke="#000000" points="16,-78 16,-130 375,-130 375,-78 16,-78"/>
</g>
<g id="clust6" class="cluster">
<title>cluster_SyncStatusModule_exports</title>
<polygon fill="none" stroke="#000000" points="238,-208 238,-260 402,-260 402,-208 238,-208"/>
</g>
<!-- InitialSyncDialogComponent -->
<g id="node1" class="node">
<title>InitialSyncDialogComponent</title>
<polygon fill="#ffffb3" stroke="#000000" points="733.3696,-122 552.6304,-122 552.6304,-86 733.3696,-86 733.3696,-122"/>
<text text-anchor="middle" x="643" y="-99.8" font-family="Times,serif" font-size="14.00" fill="#000000">InitialSyncDialogComponent</text>
</g>
<!-- SyncStatusModule -->
<g id="node3" class="node">
<title>SyncStatusModule</title>
<polygon fill="#8dd3c7" stroke="#000000" points="380.7702,-187 377.7702,-191 356.7702,-191 353.7702,-187 259.2298,-187 259.2298,-151 380.7702,-151 380.7702,-187"/>
<text text-anchor="middle" x="320" y="-164.8" font-family="Times,serif" font-size="14.00" fill="#000000">SyncStatusModule</text>
</g>
<!-- InitialSyncDialogComponent&#45;&gt;SyncStatusModule -->
<g id="edge1" class="edge">
<title>InitialSyncDialogComponent&#45;&gt;SyncStatusModule</title>
<path fill="none" stroke="#000000" d="M643,-122.1061C643,-141.3391 643,-169 643,-169 643,-169 391.1336,-169 391.1336,-169"/>
<polygon fill="#000000" stroke="#000000" points="391.1336,-165.5001 381.1336,-169 391.1335,-172.5001 391.1336,-165.5001"/>
</g>
<!-- SyncStatusComponent -->
<g id="node2" class="node">
<title>SyncStatusComponent</title>
<polygon fill="#ffffb3" stroke="#000000" points="534.5533,-122 391.4467,-122 391.4467,-86 534.5533,-86 534.5533,-122"/>
<text text-anchor="middle" x="463" y="-99.8" font-family="Times,serif" font-size="14.00" fill="#000000">SyncStatusComponent</text>
</g>
<!-- SyncStatusComponent&#45;&gt;SyncStatusModule -->
<g id="edge2" class="edge">
<title>SyncStatusComponent&#45;&gt;SyncStatusModule</title>
<path fill="none" stroke="#000000" d="M391.0647,-104C380.9312,-104 373.8819,-104 373.8819,-104 373.8819,-104 373.8819,-140.8939 373.8819,-140.8939"/>
<polygon fill="#000000" stroke="#000000" points="370.3819,-140.8938 373.8819,-150.8939 377.3819,-140.8939 370.3819,-140.8938"/>
</g>
<!-- SyncStatusComponent  -->
<g id="node7" class="node">
<title>SyncStatusComponent </title>
<polygon fill="#fb8072" stroke="#000000" points="393.5526,-252 246.4474,-252 246.4474,-216 393.5526,-216 393.5526,-252"/>
<text text-anchor="middle" x="320" y="-229.8" font-family="Times,serif" font-size="14.00" fill="#000000">SyncStatusComponent </text>
</g>
<!-- SyncStatusModule&#45;&gt;SyncStatusComponent  -->
<g id="edge6" class="edge">
<title>SyncStatusModule&#45;&gt;SyncStatusComponent </title>
<path fill="none" stroke="#000000" stroke-dasharray="5,2" d="M320,-187.1061C320,-187.1061 320,-205.991 320,-205.991"/>
<polygon fill="#000000" stroke="#000000" points="316.5001,-205.9909 320,-215.991 323.5001,-205.991 316.5001,-205.9909"/>
</g>
<!-- AlertsModule -->
<g id="node4" class="node">
<title>AlertsModule</title>
<polygon fill="#8dd3c7" stroke="#000000" points="366.7577,-122 363.7577,-126 342.7577,-126 339.7577,-122 273.2423,-122 273.2423,-86 366.7577,-86 366.7577,-122"/>
<text text-anchor="middle" x="320" y="-99.8" font-family="Times,serif" font-size="14.00" fill="#000000">AlertsModule</text>
</g>
<!-- AlertsModule&#45;&gt;SyncStatusModule -->
<g id="edge3" class="edge">
<title>AlertsModule&#45;&gt;SyncStatusModule</title>
<path fill="none" stroke="#000000" d="M320,-122.1061C320,-122.1061 320,-140.991 320,-140.991"/>
<polygon fill="#000000" stroke="#000000" points="316.5001,-140.9909 320,-150.991 323.5001,-140.991 316.5001,-140.9909"/>
</g>
<!-- DatabaseModule -->
<g id="node5" class="node">
<title>DatabaseModule</title>
<polygon fill="#8dd3c7" stroke="#000000" points="255.3501,-122 252.3501,-126 231.3501,-126 228.3501,-122 144.6499,-122 144.6499,-86 255.3501,-86 255.3501,-122"/>
<text text-anchor="middle" x="200" y="-99.8" font-family="Times,serif" font-size="14.00" fill="#000000">DatabaseModule</text>
</g>
<!-- DatabaseModule&#45;&gt;SyncStatusModule -->
<g id="edge4" class="edge">
<title>DatabaseModule&#45;&gt;SyncStatusModule</title>
<path fill="none" stroke="#000000" d="M250.9494,-122.0225C250.9494,-139.3734 250.9494,-163 250.9494,-163 250.9494,-163 251.7686,-163 251.7686,-163"/>
<polygon fill="#000000" stroke="#000000" points="249.1416,-166.5001 259.1415,-163 249.1415,-159.5001 249.1416,-166.5001"/>
</g>
<!-- SessionModule -->
<g id="node6" class="node">
<title>SessionModule</title>
<polygon fill="#8dd3c7" stroke="#000000" points="126.3273,-122 123.3273,-126 102.3273,-126 99.3273,-122 23.6727,-122 23.6727,-86 126.3273,-86 126.3273,-122"/>
<text text-anchor="middle" x="75" y="-99.8" font-family="Times,serif" font-size="14.00" fill="#000000">SessionModule</text>
</g>
<!-- SessionModule&#45;&gt;SyncStatusModule -->
<g id="edge5" class="edge">
<title>SessionModule&#45;&gt;SyncStatusModule</title>
<path fill="none" stroke="#000000" d="M75,-122.2843C75,-143.3211 75,-175 75,-175 75,-175 249.1234,-175 249.1234,-175"/>
<polygon fill="#000000" stroke="#000000" points="249.1234,-178.5001 259.1234,-175 249.1234,-171.5001 249.1234,-178.5001"/>
</g>
</g>
</svg>
