<?xml version="1.0" encoding="UTF-8" standalone="no"?>
<!DOCTYPE svg PUBLIC "-//W3C//DTD SVG 1.1//EN"
 "http://www.w3.org/Graphics/SVG/1.1/DTD/svg11.dtd">
<!-- Generated by graphviz version 2.40.1 (20161225.0304)
 -->
<!-- Title: dependencies Pages: 1 -->
<svg width="504pt" height="211pt"
 viewBox="0.00 0.00 504.00 211.00" xmlns="http://www.w3.org/2000/svg" xmlns:xlink="http://www.w3.org/1999/xlink">
<g id="graph0" class="graph" transform="scale(1 1) rotate(0) translate(4 207)">
<title>dependencies</title>
<polygon fill="#ffffff" stroke="transparent" points="-4,4 -4,-207 500,-207 500,4 -4,4"/>
<text text-anchor="start" x="227.0091" y="-42.4" font-family="sans-serif" font-weight="bold" font-size="14.00" fill="#000000">Legend</text>
<polygon fill="#ffffb3" stroke="transparent" points="14,-10 14,-30 34,-30 34,-10 14,-10"/>
<text text-anchor="start" x="37.629" y="-15.4" font-family="sans-serif" font-size="14.00" fill="#000000"> &#160;Declarations</text>
<polygon fill="#8dd3c7" stroke="transparent" points="127,-10 127,-30 147,-30 147,-10 127,-10"/>
<text text-anchor="start" x="150.7251" y="-15.4" font-family="sans-serif" font-size="14.00" fill="#000000"> &#160;Module</text>
<polygon fill="#80b1d3" stroke="transparent" points="213,-10 213,-30 233,-30 233,-10 213,-10"/>
<text text-anchor="start" x="236.7812" y="-15.4" font-family="sans-serif" font-size="14.00" fill="#000000"> &#160;Bootstrap</text>
<polygon fill="#fdb462" stroke="transparent" points="310,-10 310,-30 330,-30 330,-10 310,-10"/>
<text text-anchor="start" x="333.6732" y="-15.4" font-family="sans-serif" font-size="14.00" fill="#000000"> &#160;Providers</text>
<polygon fill="#fb8072" stroke="transparent" points="406,-10 406,-30 426,-30 426,-10 406,-10"/>
<text text-anchor="start" x="429.7258" y="-15.4" font-family="sans-serif" font-size="14.00" fill="#000000"> &#160;Exports</text>
<g id="clust1" class="cluster">
<title>cluster_AdminModule</title>
<polygon fill="none" stroke="#000000" stroke-dasharray="1,5" points="48,-70 48,-195 448,-195 448,-70 48,-70"/>
</g>
<g id="clust2" class="cluster">
<title>cluster_AdminModule_declarations</title>
<polygon fill="none" stroke="#000000" points="304,-78 304,-130 440,-130 440,-78 304,-78"/>
</g>
<g id="clust4" class="cluster">
<title>cluster_AdminModule_imports</title>
<polygon fill="none" stroke="#000000" points="56,-78 56,-130 296,-130 296,-78 56,-78"/>
</g>
<!-- AdminComponent -->
<g id="node1" class="node">
<title>AdminComponent</title>
<polygon fill="#ffffb3" stroke="#000000" points="432.2204,-122 311.7796,-122 311.7796,-86 432.2204,-86 432.2204,-122"/>
<text text-anchor="middle" x="372" y="-99.8" font-family="Times,serif" font-size="14.00" fill="#000000">AdminComponent</text>
</g>
<!-- AdminModule -->
<g id="node2" class="node">
<title>AdminModule</title>
<polygon fill="#8dd3c7" stroke="#000000" points="290.4386,-187 287.4386,-191 266.4386,-191 263.4386,-187 191.5614,-187 191.5614,-151 290.4386,-151 290.4386,-187"/>
<text text-anchor="middle" x="241" y="-164.8" font-family="Times,serif" font-size="14.00" fill="#000000">AdminModule</text>
</g>
<!-- AdminComponent&#45;&gt;AdminModule -->
<g id="edge1" class="edge">
<title>AdminComponent&#45;&gt;AdminModule</title>
<path fill="none" stroke="#000000" d="M372,-122.1061C372,-141.3391 372,-169 372,-169 372,-169 300.5255,-169 300.5255,-169"/>
<polygon fill="#000000" stroke="#000000" points="300.5255,-165.5001 290.5255,-169 300.5254,-172.5001 300.5255,-165.5001"/>
</g>
<!-- AlertsModule -->
<g id="node3" class="node">
<title>AlertsModule</title>
<polygon fill="#8dd3c7" stroke="#000000" points="287.7577,-122 284.7577,-126 263.7577,-126 260.7577,-122 194.2423,-122 194.2423,-86 287.7577,-86 287.7577,-122"/>
<text text-anchor="middle" x="241" y="-99.8" font-family="Times,serif" font-size="14.00" fill="#000000">AlertsModule</text>
</g>
<!-- AlertsModule&#45;&gt;AdminModule -->
<g id="edge2" class="edge">
<title>AlertsModule&#45;&gt;AdminModule</title>
<path fill="none" stroke="#000000" d="M241,-122.1061C241,-122.1061 241,-140.991 241,-140.991"/>
<polygon fill="#000000" stroke="#000000" points="237.5001,-140.9909 241,-150.991 244.5001,-140.991 237.5001,-140.9909"/>
</g>
<!-- UiHelperModule -->
<g id="node4" class="node">
<title>UiHelperModule</title>
<polygon fill="#8dd3c7" stroke="#000000" points="175.6346,-122 172.6346,-126 151.6346,-126 148.6346,-122 64.3654,-122 64.3654,-86 175.6346,-86 175.6346,-122"/>
<text text-anchor="middle" x="120" y="-99.8" font-family="Times,serif" font-size="14.00" fill="#000000">UiHelperModule</text>
</g>
<!-- UiHelperModule&#45;&gt;AdminModule -->
<g id="edge3" class="edge">
<title>UiHelperModule&#45;&gt;AdminModule</title>
<path fill="none" stroke="#000000" d="M120,-122.1061C120,-141.3391 120,-169 120,-169 120,-169 181.4355,-169 181.4355,-169"/>
<polygon fill="#000000" stroke="#000000" points="181.4356,-172.5001 191.4355,-169 181.4355,-165.5001 181.4356,-172.5001"/>
</g>
</g>
</svg>
