<?xml version="1.0" encoding="UTF-8" standalone="no"?>
<!DOCTYPE svg PUBLIC "-//W3C//DTD SVG 1.1//EN"
 "http://www.w3.org/Graphics/SVG/1.1/DTD/svg11.dtd">
<!-- Generated by graphviz version 2.40.1 (20161225.0304)
 -->
<!-- Title: dependencies Pages: 1 -->
<svg width="504pt" height="284pt"
 viewBox="0.00 0.00 504.00 284.00" xmlns="http://www.w3.org/2000/svg" xmlns:xlink="http://www.w3.org/1999/xlink">
<g id="graph0" class="graph" transform="scale(1 1) rotate(0) translate(4 280)">
<title>dependencies</title>
<polygon fill="#ffffff" stroke="transparent" points="-4,4 -4,-280 500,-280 500,4 -4,4"/>
<text text-anchor="start" x="227.0091" y="-42.4" font-family="sans-serif" font-weight="bold" font-size="14.00" fill="#000000">Legend</text>
<polygon fill="#ffffb3" stroke="transparent" points="14,-10 14,-30 34,-30 34,-10 14,-10"/>
<text text-anchor="start" x="37.629" y="-15.4" font-family="sans-serif" font-size="14.00" fill="#000000"> &#160;Declarations</text>
<polygon fill="#8dd3c7" stroke="transparent" points="127,-10 127,-30 147,-30 147,-10 127,-10"/>
<text text-anchor="start" x="150.7251" y="-15.4" font-family="sans-serif" font-size="14.00" fill="#000000"> &#160;Module</text>
<polygon fill="#80b1d3" stroke="transparent" points="213,-10 213,-30 233,-30 233,-10 213,-10"/>
<text text-anchor="start" x="236.7812" y="-15.4" font-family="sans-serif" font-size="14.00" fill="#000000"> &#160;Bootstrap</text>
<polygon fill="#fdb462" stroke="transparent" points="310,-10 310,-30 330,-30 330,-10 310,-10"/>
<text text-anchor="start" x="333.6732" y="-15.4" font-family="sans-serif" font-size="14.00" fill="#000000"> &#160;Providers</text>
<polygon fill="#fb8072" stroke="transparent" points="406,-10 406,-30 426,-30 426,-10 406,-10"/>
<text text-anchor="start" x="429.7258" y="-15.4" font-family="sans-serif" font-size="14.00" fill="#000000"> &#160;Exports</text>
<g id="clust1" class="cluster">
<title>cluster_AlertsModule</title>
<polygon fill="none" stroke="#000000" stroke-dasharray="1,5" points="105,-70 105,-268 391,-268 391,-70 105,-70"/>
</g>
<g id="clust2" class="cluster">
<title>cluster_AlertsModule_declarations</title>
<polygon fill="none" stroke="#000000" points="257,-78 257,-130 383,-130 383,-78 257,-78"/>
</g>
<g id="clust5" class="cluster">
<title>cluster_AlertsModule_exports</title>
<polygon fill="none" stroke="#000000" points="184,-208 184,-260 314,-260 314,-208 184,-208"/>
</g>
<g id="clust7" class="cluster">
<title>cluster_AlertsModule_providers</title>
<polygon fill="none" stroke="#000000" points="113,-78 113,-130 249,-130 249,-78 113,-78"/>
</g>
<!-- AlertComponent -->
<g id="node1" class="node">
<title>AlertComponent</title>
<polygon fill="#ffffb3" stroke="#000000" points="375.0954,-122 264.9046,-122 264.9046,-86 375.0954,-86 375.0954,-122"/>
<text text-anchor="middle" x="320" y="-99.8" font-family="Times,serif" font-size="14.00" fill="#000000">AlertComponent</text>
</g>
<!-- AlertsModule -->
<g id="node2" class="node">
<title>AlertsModule</title>
<polygon fill="#8dd3c7" stroke="#000000" points="295.7577,-187 292.7577,-191 271.7577,-191 268.7577,-187 202.2423,-187 202.2423,-151 295.7577,-151 295.7577,-187"/>
<text text-anchor="middle" x="249" y="-164.8" font-family="Times,serif" font-size="14.00" fill="#000000">AlertsModule</text>
</g>
<!-- AlertComponent&#45;&gt;AlertsModule -->
<g id="edge1" class="edge">
<title>AlertComponent&#45;&gt;AlertsModule</title>
<path fill="none" stroke="#000000" d="M280.4155,-122.1061C280.4155,-122.1061 280.4155,-140.991 280.4155,-140.991"/>
<polygon fill="#000000" stroke="#000000" points="276.9156,-140.9909 280.4155,-150.991 283.9156,-140.991 276.9156,-140.9909"/>
</g>
<!-- AlertComponent  -->
<g id="node3" class="node">
<title>AlertComponent </title>
<polygon fill="#fb8072" stroke="#000000" points="305.5961,-252 192.4039,-252 192.4039,-216 305.5961,-216 305.5961,-252"/>
<text text-anchor="middle" x="249" y="-229.8" font-family="Times,serif" font-size="14.00" fill="#000000">AlertComponent </text>
</g>
<!-- AlertsModule&#45;&gt;AlertComponent  -->
<g id="edge2" class="edge">
<title>AlertsModule&#45;&gt;AlertComponent </title>
<path fill="none" stroke="#000000" stroke-dasharray="5,2" d="M249,-187.1061C249,-187.1061 249,-205.991 249,-205.991"/>
<polygon fill="#000000" stroke="#000000" points="245.5001,-205.9909 249,-215.991 252.5001,-205.991 245.5001,-205.9909"/>
</g>
<!-- AlertService -->
<g id="node4" class="node">
<title>AlertService</title>
<ellipse fill="#fdb462" stroke="#000000" cx="181" cy="-104" rx="59.6646" ry="18"/>
<text text-anchor="middle" x="181" y="-99.8" font-family="Times,serif" font-size="14.00" fill="#000000">AlertService</text>
</g>
<!-- AlertService&#45;&gt;AlertsModule -->
<g id="edge3" class="edge">
<title>AlertService&#45;&gt;AlertsModule</title>
<path fill="none" stroke="#000000" d="M221.4767,-117.468C221.4767,-117.468 221.4767,-140.8642 221.4767,-140.8642"/>
<polygon fill="#000000" stroke="#000000" points="217.9768,-140.8641 221.4767,-150.8642 224.9768,-140.8642 217.9768,-140.8641"/>
</g>
</g>
</svg>
