<?xml version="1.0" encoding="UTF-8" standalone="no"?>
<!DOCTYPE svg PUBLIC "-//W3C//DTD SVG 1.1//EN"
 "http://www.w3.org/Graphics/SVG/1.1/DTD/svg11.dtd">
<!-- Generated by graphviz version 2.47.0 (20210316.0004)
 -->
<!-- Title: dependencies Pages: 1 -->
<svg width="776pt" height="211pt"
 viewBox="0.00 0.00 776.00 211.00" xmlns="http://www.w3.org/2000/svg" xmlns:xlink="http://www.w3.org/1999/xlink">
<g id="graph0" class="graph" transform="scale(1 1) rotate(0) translate(4 207)">
<title>dependencies</title>
<polygon fill="white" stroke="transparent" points="-4,4 -4,-207 772,-207 772,4 -4,4"/>
<text text-anchor="start" x="363.01" y="-42.4" font-family="Times-12" font-weight="bold" font-size="14.00">Legend</text>
<polygon fill="#ffffb3" stroke="transparent" points="150,-10 150,-30 170,-30 170,-10 150,-10"/>
<text text-anchor="start" x="173.63" y="-15.4" font-family="Times-12" font-size="14.00"> &#160;Declarations</text>
<polygon fill="#8dd3c7" stroke="transparent" points="263,-10 263,-30 283,-30 283,-10 263,-10"/>
<text text-anchor="start" x="286.73" y="-15.4" font-family="Times-12" font-size="14.00"> &#160;Module</text>
<polygon fill="#80b1d3" stroke="transparent" points="349,-10 349,-30 369,-30 369,-10 349,-10"/>
<text text-anchor="start" x="372.78" y="-15.4" font-family="Times-12" font-size="14.00"> &#160;Bootstrap</text>
<polygon fill="#fdb462" stroke="transparent" points="446,-10 446,-30 466,-30 466,-10 446,-10"/>
<text text-anchor="start" x="469.67" y="-15.4" font-family="Times-12" font-size="14.00"> &#160;Providers</text>
<polygon fill="#fb8072" stroke="transparent" points="542,-10 542,-30 562,-30 562,-10 542,-10"/>
<text text-anchor="start" x="565.73" y="-15.4" font-family="Times-12" font-size="14.00"> &#160;Exports</text>
<g id="clust1" class="cluster">
<title>cluster_AttendanceModule</title>
<polygon fill="none" stroke="black" stroke-dasharray="1,5" points="8,-70 8,-195 760,-195 760,-70 8,-70"/>
</g>
<g id="clust6" class="cluster">
<title>cluster_AttendanceModule_providers</title>
<polygon fill="none" stroke="black" points="16,-78 16,-130 752,-130 752,-78 16,-78"/>
</g>
<!-- AttendanceDatatype -->
<g id="node1" class="node">
<title>AttendanceDatatype</title>
<ellipse fill="#fdb462" stroke="black" cx="654" cy="-104" rx="89.73" ry="18"/>
<text text-anchor="middle" x="654" y="-99.8" font-family="Times,serif" font-size="14.00">AttendanceDatatype</text>
</g>
<!-- AttendanceModule -->
<g id="node4" class="node">
<title>AttendanceModule</title>
<polygon fill="#8dd3c7" stroke="black" points="485.8,-187 482.8,-191 461.8,-191 458.8,-187 362.2,-187 362.2,-151 485.8,-151 485.8,-187"/>
<text text-anchor="middle" x="424" y="-164.8" font-family="Times,serif" font-size="14.00">AttendanceModule</text>
</g>
<!-- AttendanceDatatype&#45;&gt;AttendanceModule -->
<g id="edge1" class="edge">
<title>AttendanceDatatype&#45;&gt;AttendanceModule</title>
<path fill="none" stroke="black" d="M654,-122.11C654,-141.34 654,-169 654,-169 654,-169 495.94,-169 495.94,-169"/>
<polygon fill="black" stroke="black" points="495.94,-165.5 485.94,-169 495.94,-172.5 495.94,-165.5"/>
</g>
<!-- AttendancePermissionGuard -->
<g id="node2" class="node">
<title>AttendancePermissionGuard</title>
<ellipse fill="#fdb462" stroke="black" cx="424" cy="-104" rx="122.11" ry="18"/>
<text text-anchor="middle" x="424" y="-99.8" font-family="Times,serif" font-size="14.00">AttendancePermissionGuard</text>
</g>
<!-- AttendancePermissionGuard&#45;&gt;AttendanceModule -->
<g id="edge2" class="edge">
<title>AttendancePermissionGuard&#45;&gt;AttendanceModule</title>
<path fill="none" stroke="black" d="M444.55,-121.76C444.55,-121.76 444.55,-140.81 444.55,-140.81"/>
<polygon fill="black" stroke="black" points="441.05,-140.81 444.55,-150.81 448.05,-140.81 441.05,-140.81"/>
</g>
<!-- AttendancePermissionGuard&#45;&gt;AttendanceModule -->
<g id="edge3" class="edge">
<title>AttendancePermissionGuard&#45;&gt;AttendanceModule</title>
<path fill="none" stroke="black" d="M403.45,-121.76C403.45,-121.76 403.45,-140.81 403.45,-140.81"/>
<polygon fill="black" stroke="black" points="399.95,-140.81 403.45,-150.81 406.95,-140.81 399.95,-140.81"/>
</g>
<!-- EventAttendanceMapDatatype -->
<g id="node3" class="node">
<title>EventAttendanceMapDatatype</title>
<ellipse fill="#fdb462" stroke="black" cx="154" cy="-104" rx="130.18" ry="18"/>
<text text-anchor="middle" x="154" y="-99.8" font-family="Times,serif" font-size="14.00">EventAttendanceMapDatatype</text>
</g>
<!-- EventAttendanceMapDatatype&#45;&gt;AttendanceModule -->
<g id="edge4" class="edge">
<title>EventAttendanceMapDatatype&#45;&gt;AttendanceModule</title>
<path fill="none" stroke="black" d="M154,-122.11C154,-141.34 154,-169 154,-169 154,-169 352.06,-169 352.06,-169"/>
<polygon fill="black" stroke="black" points="352.06,-172.5 362.06,-169 352.06,-165.5 352.06,-172.5"/>
</g>
</g>
</svg>
