<?xml version="1.0" encoding="UTF-8" standalone="no"?>
<!DOCTYPE svg PUBLIC "-//W3C//DTD SVG 1.1//EN"
 "http://www.w3.org/Graphics/SVG/1.1/DTD/svg11.dtd">
<!-- Generated by graphviz version 2.47.0 (20210316.0004)
 -->
<!-- Title: dependencies Pages: 1 -->
<svg width="514pt" height="211pt"
 viewBox="0.00 0.00 514.00 211.00" xmlns="http://www.w3.org/2000/svg" xmlns:xlink="http://www.w3.org/1999/xlink">
<g id="graph0" class="graph" transform="scale(1 1) rotate(0) translate(4 207)">
<title>dependencies</title>
<polygon fill="white" stroke="transparent" points="-4,4 -4,-207 510,-207 510,4 -4,4"/>
<text text-anchor="start" x="232.01" y="-42.4" font-family="Times-12" font-weight="bold" font-size="14.00">Legend</text>
<polygon fill="#ffffb3" stroke="transparent" points="19,-10 19,-30 39,-30 39,-10 19,-10"/>
<text text-anchor="start" x="42.63" y="-15.4" font-family="Times-12" font-size="14.00"> &#160;Declarations</text>
<polygon fill="#8dd3c7" stroke="transparent" points="132,-10 132,-30 152,-30 152,-10 132,-10"/>
<text text-anchor="start" x="155.73" y="-15.4" font-family="Times-12" font-size="14.00"> &#160;Module</text>
<polygon fill="#80b1d3" stroke="transparent" points="218,-10 218,-30 238,-30 238,-10 218,-10"/>
<text text-anchor="start" x="241.78" y="-15.4" font-family="Times-12" font-size="14.00"> &#160;Bootstrap</text>
<polygon fill="#fdb462" stroke="transparent" points="315,-10 315,-30 335,-30 335,-10 315,-10"/>
<text text-anchor="start" x="338.67" y="-15.4" font-family="Times-12" font-size="14.00"> &#160;Providers</text>
<polygon fill="#fb8072" stroke="transparent" points="411,-10 411,-30 431,-30 431,-10 411,-10"/>
<text text-anchor="start" x="434.73" y="-15.4" font-family="Times-12" font-size="14.00"> &#160;Exports</text>
<g id="clust1" class="cluster">
<title>cluster_AttendanceModule</title>
<polygon fill="none" stroke="black" stroke-dasharray="1,5" points="8,-70 8,-195 498,-195 498,-70 8,-70"/>
</g>
<g id="clust6" class="cluster">
<title>cluster_AttendanceModule_providers</title>
<polygon fill="none" stroke="black" points="16,-78 16,-130 490,-130 490,-78 16,-78"/>
</g>
<!-- AttendanceDatatype -->
<g id="node1" class="node">
<title>AttendanceDatatype</title>
<ellipse fill="#fdb462" stroke="black" cx="392" cy="-104" rx="89.73" ry="18"/>
<text text-anchor="middle" x="392" y="-99.8" font-family="Times,serif" font-size="14.00">AttendanceDatatype</text>
</g>
<!-- AttendanceModule -->
<g id="node3" class="node">
<title>AttendanceModule</title>
<polygon fill="#8dd3c7" stroke="black" points="334.8,-187 331.8,-191 310.8,-191 307.8,-187 211.2,-187 211.2,-151 334.8,-151 334.8,-187"/>
<text text-anchor="middle" x="273" y="-164.8" font-family="Times,serif" font-size="14.00">AttendanceModule</text>
</g>
<!-- AttendanceDatatype&#45;&gt;AttendanceModule -->
<g id="edge1" class="edge">
<title>AttendanceDatatype&#45;&gt;AttendanceModule</title>
<path fill="none" stroke="black" d="M318.39,-114.44C318.39,-114.44 318.39,-140.97 318.39,-140.97"/>
<polygon fill="black" stroke="black" points="314.89,-140.97 318.39,-150.97 321.89,-140.97 314.89,-140.97"/>
</g>
<!-- EventAttendanceMapDatatype -->
<g id="node2" class="node">
<title>EventAttendanceMapDatatype</title>
<ellipse fill="#fdb462" stroke="black" cx="154" cy="-104" rx="130.18" ry="18"/>
<text text-anchor="middle" x="154" y="-99.8" font-family="Times,serif" font-size="14.00">EventAttendanceMapDatatype</text>
</g>
<!-- EventAttendanceMapDatatype&#45;&gt;AttendanceModule -->
<g id="edge2" class="edge">
<title>EventAttendanceMapDatatype&#45;&gt;AttendanceModule</title>
<path fill="none" stroke="black" d="M247.72,-116.53C247.72,-116.53 247.72,-140.85 247.72,-140.85"/>
<polygon fill="black" stroke="black" points="244.22,-140.85 247.72,-150.85 251.22,-140.85 244.22,-140.85"/>
</g>
</g>
</svg>
