<?xml version="1.0" encoding="UTF-8" standalone="no"?>
<!DOCTYPE svg PUBLIC "-//W3C//DTD SVG 1.1//EN"
 "http://www.w3.org/Graphics/SVG/1.1/DTD/svg11.dtd">
<!-- Generated by graphviz version 2.47.0 (20210316.0004)
 -->
<!-- Title: dependencies Pages: 1 -->
<svg width="558pt" height="211pt"
 viewBox="0.00 0.00 558.00 211.00" xmlns="http://www.w3.org/2000/svg" xmlns:xlink="http://www.w3.org/1999/xlink">
<g id="graph0" class="graph" transform="scale(1 1) rotate(0) translate(4 207)">
<title>dependencies</title>
<polygon fill="white" stroke="transparent" points="-4,4 -4,-207 554,-207 554,4 -4,4"/>
<text text-anchor="start" x="254.01" y="-42.4" font-family="Times-12" font-weight="bold" font-size="14.00">Legend</text>
<polygon fill="#ffffb3" stroke="transparent" points="41,-10 41,-30 61,-30 61,-10 41,-10"/>
<text text-anchor="start" x="64.63" y="-15.4" font-family="Times-12" font-size="14.00"> &#160;Declarations</text>
<polygon fill="#8dd3c7" stroke="transparent" points="154,-10 154,-30 174,-30 174,-10 154,-10"/>
<text text-anchor="start" x="177.73" y="-15.4" font-family="Times-12" font-size="14.00"> &#160;Module</text>
<polygon fill="#80b1d3" stroke="transparent" points="240,-10 240,-30 260,-30 260,-10 240,-10"/>
<text text-anchor="start" x="263.78" y="-15.4" font-family="Times-12" font-size="14.00"> &#160;Bootstrap</text>
<polygon fill="#fdb462" stroke="transparent" points="337,-10 337,-30 357,-30 357,-10 337,-10"/>
<text text-anchor="start" x="360.67" y="-15.4" font-family="Times-12" font-size="14.00"> &#160;Providers</text>
<polygon fill="#fb8072" stroke="transparent" points="433,-10 433,-30 453,-30 453,-10 433,-10"/>
<text text-anchor="start" x="456.73" y="-15.4" font-family="Times-12" font-size="14.00"> &#160;Exports</text>
<g id="clust1" class="cluster">
<title>cluster_AttendanceModule</title>
<polygon fill="none" stroke="black" stroke-dasharray="1,5" points="8,-70 8,-195 542,-195 542,-70 8,-70"/>
</g>
<g id="clust6" class="cluster">
<title>cluster_AttendanceModule_providers</title>
<polygon fill="none" stroke="black" points="16,-78 16,-130 534,-130 534,-78 16,-78"/>
</g>
<!-- EventAttendanceDatatype -->
<g id="node1" class="node">
<title>EventAttendanceDatatype</title>
<ellipse fill="#fdb462" stroke="black" cx="414" cy="-104" rx="112.28" ry="18"/>
<text text-anchor="middle" x="414" y="-99.8" font-family="Times,serif" font-size="14.00">EventAttendanceDatatype</text>
</g>
<!-- AttendanceModule -->
<g id="node3" class="node">
<title>AttendanceModule</title>
<polygon fill="#8dd3c7" stroke="black" points="345.8,-187 342.8,-191 321.8,-191 318.8,-187 222.2,-187 222.2,-151 345.8,-151 345.8,-187"/>
<text text-anchor="middle" x="284" y="-164.8" font-family="Times,serif" font-size="14.00">AttendanceModule</text>
</g>
<!-- EventAttendanceDatatype&#45;&gt;AttendanceModule -->
<g id="edge1" class="edge">
<title>EventAttendanceDatatype&#45;&gt;AttendanceModule</title>
<path fill="none" stroke="black" d="M323.63,-114.73C323.63,-114.73 323.63,-140.87 323.63,-140.87"/>
<polygon fill="black" stroke="black" points="320.13,-140.87 323.63,-150.87 327.13,-140.87 320.13,-140.87"/>
</g>
<!-- EventAttendanceMapDatatype -->
<g id="node2" class="node">
<title>EventAttendanceMapDatatype</title>
<ellipse fill="#fdb462" stroke="black" cx="154" cy="-104" rx="130.18" ry="18"/>
<text text-anchor="middle" x="154" y="-99.8" font-family="Times,serif" font-size="14.00">EventAttendanceMapDatatype</text>
</g>
<!-- EventAttendanceMapDatatype&#45;&gt;AttendanceModule -->
<g id="edge2" class="edge">
<title>EventAttendanceMapDatatype&#45;&gt;AttendanceModule</title>
<path fill="none" stroke="black" d="M253.22,-115.92C253.22,-115.92 253.22,-140.77 253.22,-140.77"/>
<polygon fill="black" stroke="black" points="249.72,-140.77 253.22,-150.77 256.72,-140.77 249.72,-140.77"/>
</g>
</g>
</svg>
