<?xml version="1.0" encoding="UTF-8" standalone="no"?>
<!DOCTYPE svg PUBLIC "-//W3C//DTD SVG 1.1//EN"
 "http://www.w3.org/Graphics/SVG/1.1/DTD/svg11.dtd">
<!-- Generated by graphviz version 2.47.0 (20210316.0004)
 -->
<!-- Title: dependencies Pages: 1 -->
<svg width="504pt" height="211pt"
 viewBox="0.00 0.00 504.00 211.00" xmlns="http://www.w3.org/2000/svg" xmlns:xlink="http://www.w3.org/1999/xlink">
<g id="graph0" class="graph" transform="scale(1 1) rotate(0) translate(4 207)">
<title>dependencies</title>
<polygon fill="white" stroke="transparent" points="-4,4 -4,-207 500,-207 500,4 -4,4"/>
<text text-anchor="start" x="227.01" y="-42.4" font-family="Times-12" font-weight="bold" font-size="14.00">Legend</text>
<polygon fill="#ffffb3" stroke="transparent" points="14,-10 14,-30 34,-30 34,-10 14,-10"/>
<text text-anchor="start" x="37.63" y="-15.4" font-family="Times-12" font-size="14.00"> &#160;Declarations</text>
<polygon fill="#8dd3c7" stroke="transparent" points="127,-10 127,-30 147,-30 147,-10 127,-10"/>
<text text-anchor="start" x="150.73" y="-15.4" font-family="Times-12" font-size="14.00"> &#160;Module</text>
<polygon fill="#80b1d3" stroke="transparent" points="213,-10 213,-30 233,-30 233,-10 213,-10"/>
<text text-anchor="start" x="236.78" y="-15.4" font-family="Times-12" font-size="14.00"> &#160;Bootstrap</text>
<polygon fill="#fdb462" stroke="transparent" points="310,-10 310,-30 330,-30 330,-10 310,-10"/>
<text text-anchor="start" x="333.67" y="-15.4" font-family="Times-12" font-size="14.00"> &#160;Providers</text>
<polygon fill="#fb8072" stroke="transparent" points="406,-10 406,-30 426,-30 426,-10 406,-10"/>
<text text-anchor="start" x="429.73" y="-15.4" font-family="Times-12" font-size="14.00"> &#160;Exports</text>
<g id="clust1" class="cluster">
<title>cluster_AdminModule</title>
<polygon fill="none" stroke="black" stroke-dasharray="1,5" points="75,-70 75,-195 421,-195 421,-70 75,-70"/>
</g>
<g id="clust3" class="cluster">
<title>cluster_AdminModule_imports</title>
<polygon fill="none" stroke="black" points="83,-78 83,-130 413,-130 413,-78 83,-78"/>
</g>
<!-- ConfigSetupModule -->
<g id="node1" class="node">
<title>ConfigSetupModule</title>
<polygon fill="#8dd3c7" stroke="black" points="405.33,-122 402.33,-126 381.33,-126 378.33,-122 274.67,-122 274.67,-86 405.33,-86 405.33,-122"/>
<text text-anchor="middle" x="340" y="-99.8" font-family="Times,serif" font-size="14.00">ConfigSetupModule</text>
</g>
<!-- AdminModule -->
<g id="node3" class="node">
<title>AdminModule</title>
<polygon fill="#8dd3c7" stroke="black" points="306.44,-187 303.44,-191 282.44,-191 279.44,-187 207.56,-187 207.56,-151 306.44,-151 306.44,-187"/>
<text text-anchor="middle" x="257" y="-164.8" font-family="Times,serif" font-size="14.00">AdminModule</text>
</g>
<!-- ConfigSetupModule&#45;&gt;AdminModule -->
<g id="edge1" class="edge">
<title>ConfigSetupModule&#45;&gt;AdminModule</title>
<path fill="none" stroke="black" d="M290.53,-122.11C290.53,-122.11 290.53,-140.99 290.53,-140.99"/>
<polygon fill="black" stroke="black" points="287.03,-140.99 290.53,-150.99 294.03,-140.99 287.03,-140.99"/>
</g>
<!-- ConflictResolutionModule -->
<g id="node2" class="node">
<title>ConflictResolutionModule</title>
<polygon fill="#8dd3c7" stroke="black" points="257.1,-122 254.1,-126 233.1,-126 230.1,-122 90.9,-122 90.9,-86 257.1,-86 257.1,-122"/>
<text text-anchor="middle" x="174" y="-99.8" font-family="Times,serif" font-size="14.00">ConflictResolutionModule</text>
</g>
<!-- ConflictResolutionModule&#45;&gt;AdminModule -->
<g id="edge2" class="edge">
<title>ConflictResolutionModule&#45;&gt;AdminModule</title>
<path fill="none" stroke="black" d="M232.42,-122.11C232.42,-122.11 232.42,-140.99 232.42,-140.99"/>
<polygon fill="black" stroke="black" points="228.92,-140.99 232.42,-150.99 235.92,-140.99 228.92,-140.99"/>
</g>
</g>
</svg>
