<?xml version="1.0" encoding="UTF-8" standalone="no"?>
<!DOCTYPE svg PUBLIC "-//W3C//DTD SVG 1.1//EN"
 "http://www.w3.org/Graphics/SVG/1.1/DTD/svg11.dtd">
<!-- Generated by graphviz version 2.40.1 (20161225.0304)
 -->
<!-- Title: dependencies Pages: 1 -->
<svg width="1285pt" height="284pt"
 viewBox="0.00 0.00 1285.00 284.00" xmlns="http://www.w3.org/2000/svg" xmlns:xlink="http://www.w3.org/1999/xlink">
<g id="graph0" class="graph" transform="scale(1 1) rotate(0) translate(4 280)">
<title>dependencies</title>
<polygon fill="#ffffff" stroke="transparent" points="-4,4 -4,-280 1281,-280 1281,4 -4,4"/>
<text text-anchor="start" x="617.5091" y="-42.4" font-family="sans-serif" font-weight="bold" font-size="14.00" fill="#000000">Legend</text>
<polygon fill="#ffffb3" stroke="transparent" points="404.5,-10 404.5,-30 424.5,-30 424.5,-10 404.5,-10"/>
<text text-anchor="start" x="428.129" y="-15.4" font-family="sans-serif" font-size="14.00" fill="#000000"> &#160;Declarations</text>
<polygon fill="#8dd3c7" stroke="transparent" points="517.5,-10 517.5,-30 537.5,-30 537.5,-10 517.5,-10"/>
<text text-anchor="start" x="541.2251" y="-15.4" font-family="sans-serif" font-size="14.00" fill="#000000"> &#160;Module</text>
<polygon fill="#80b1d3" stroke="transparent" points="603.5,-10 603.5,-30 623.5,-30 623.5,-10 603.5,-10"/>
<text text-anchor="start" x="627.2812" y="-15.4" font-family="sans-serif" font-size="14.00" fill="#000000"> &#160;Bootstrap</text>
<polygon fill="#fdb462" stroke="transparent" points="700.5,-10 700.5,-30 720.5,-30 720.5,-10 700.5,-10"/>
<text text-anchor="start" x="724.1732" y="-15.4" font-family="sans-serif" font-size="14.00" fill="#000000"> &#160;Providers</text>
<polygon fill="#fb8072" stroke="transparent" points="796.5,-10 796.5,-30 816.5,-30 816.5,-10 796.5,-10"/>
<text text-anchor="start" x="820.2258" y="-15.4" font-family="sans-serif" font-size="14.00" fill="#000000"> &#160;Exports</text>
<g id="clust1" class="cluster">
<title>cluster_UiModule</title>
<polygon fill="none" stroke="#000000" stroke-dasharray="1,5" points="8,-70 8,-268 1269,-268 1269,-70 8,-70"/>
</g>
<g id="clust2" class="cluster">
<title>cluster_UiModule_declarations</title>
<polygon fill="none" stroke="#000000" points="830,-78 830,-130 1261,-130 1261,-78 830,-78"/>
</g>
<g id="clust6" class="cluster">
<title>cluster_UiModule_imports</title>
<polygon fill="none" stroke="#000000" points="16,-78 16,-130 822,-130 822,-78 16,-78"/>
</g>
<g id="clust7" class="cluster">
<title>cluster_UiModule_exports</title>
<polygon fill="none" stroke="#000000" points="560,-208 560,-260 674,-260 674,-208 560,-208"/>
</g>
<!-- PrimaryActionComponent -->
<g id="node1" class="node">
<title>PrimaryActionComponent</title>
<polygon fill="#ffffb3" stroke="#000000" points="1253.0351,-122 1088.9649,-122 1088.9649,-86 1253.0351,-86 1253.0351,-122"/>
<text text-anchor="middle" x="1171" y="-99.8" font-family="Times,serif" font-size="14.00" fill="#000000">PrimaryActionComponent</text>
</g>
<!-- UiModule -->
<g id="node4" class="node">
<title>UiModule</title>
<polygon fill="#8dd3c7" stroke="#000000" points="653.5484,-187 650.5484,-191 629.5484,-191 626.5484,-187 580.4516,-187 580.4516,-151 653.5484,-151 653.5484,-187"/>
<text text-anchor="middle" x="617" y="-164.8" font-family="Times,serif" font-size="14.00" fill="#000000">UiModule</text>
</g>
<!-- PrimaryActionComponent&#45;&gt;UiModule -->
<g id="edge1" class="edge">
<title>PrimaryActionComponent&#45;&gt;UiModule</title>
<path fill="none" stroke="#000000" d="M1171,-122.0109C1171,-144.4852 1171,-180 1171,-180 1171,-180 663.7785,-180 663.7785,-180"/>
<polygon fill="#000000" stroke="#000000" points="663.7786,-176.5001 653.7785,-180 663.7785,-183.5001 663.7786,-176.5001"/>
</g>
<!-- SearchComponent -->
<g id="node2" class="node">
<title>SearchComponent</title>
<polygon fill="#ffffb3" stroke="#000000" points="1070.9201,-122 951.0799,-122 951.0799,-86 1070.9201,-86 1070.9201,-122"/>
<text text-anchor="middle" x="1011" y="-99.8" font-family="Times,serif" font-size="14.00" fill="#000000">SearchComponent</text>
</g>
<!-- SearchComponent&#45;&gt;UiModule -->
<g id="edge2" class="edge">
<title>SearchComponent&#45;&gt;UiModule</title>
<path fill="none" stroke="#000000" d="M1011,-122.1289C1011,-142.5724 1011,-173 1011,-173 1011,-173 663.7128,-173 663.7128,-173"/>
<polygon fill="#000000" stroke="#000000" points="663.7128,-169.5001 653.7128,-173 663.7127,-176.5001 663.7128,-169.5001"/>
</g>
<!-- UiComponent -->
<g id="node3" class="node">
<title>UiComponent</title>
<polygon fill="#ffffb3" stroke="#000000" points="933.8302,-122 838.1698,-122 838.1698,-86 933.8302,-86 933.8302,-122"/>
<text text-anchor="middle" x="886" y="-99.8" font-family="Times,serif" font-size="14.00" fill="#000000">UiComponent</text>
</g>
<!-- UiComponent&#45;&gt;UiModule -->
<g id="edge3" class="edge">
<title>UiComponent&#45;&gt;UiModule</title>
<path fill="none" stroke="#000000" d="M886,-122.2667C886,-140.5552 886,-166 886,-166 886,-166 663.5585,-166 663.5585,-166"/>
<polygon fill="#000000" stroke="#000000" points="663.5585,-162.5001 653.5585,-166 663.5585,-169.5001 663.5585,-162.5001"/>
</g>
<!-- UiComponent  -->
<g id="node11" class="node">
<title>UiComponent </title>
<polygon fill="#fb8072" stroke="#000000" points="666.3297,-252 567.6703,-252 567.6703,-216 666.3297,-216 666.3297,-252"/>
<text text-anchor="middle" x="617" y="-229.8" font-family="Times,serif" font-size="14.00" fill="#000000">UiComponent </text>
</g>
<!-- UiModule&#45;&gt;UiComponent  -->
<g id="edge10" class="edge">
<title>UiModule&#45;&gt;UiComponent </title>
<path fill="none" stroke="#000000" stroke-dasharray="5,2" d="M617,-187.1061C617,-187.1061 617,-205.991 617,-205.991"/>
<polygon fill="#000000" stroke="#000000" points="613.5001,-205.9909 617,-215.991 620.5001,-205.991 613.5001,-205.9909"/>
</g>
<!-- ChildrenModule -->
<g id="node5" class="node">
<title>ChildrenModule</title>
<polygon fill="#8dd3c7" stroke="#000000" points="814.0438,-122 811.0438,-126 790.0438,-126 787.0438,-122 705.9562,-122 705.9562,-86 814.0438,-86 814.0438,-122"/>
<text text-anchor="middle" x="760" y="-99.8" font-family="Times,serif" font-size="14.00" fill="#000000">ChildrenModule</text>
</g>
<!-- ChildrenModule&#45;&gt;UiModule -->
<g id="edge4" class="edge">
<title>ChildrenModule&#45;&gt;UiModule</title>
<path fill="none" stroke="#000000" d="M760,-122.0091C760,-138.0494 760,-159 760,-159 760,-159 663.8261,-159 663.8261,-159"/>
<polygon fill="#000000" stroke="#000000" points="663.8261,-155.5001 653.8261,-159 663.826,-162.5001 663.8261,-155.5001"/>
</g>
<!-- LatestChangesModule -->
<g id="node6" class="node">
<title>LatestChangesModule</title>
<polygon fill="#8dd3c7" stroke="#000000" points="687.9678,-122 684.9678,-126 663.9678,-126 660.9678,-122 546.0322,-122 546.0322,-86 687.9678,-86 687.9678,-122"/>
<text text-anchor="middle" x="617" y="-99.8" font-family="Times,serif" font-size="14.00" fill="#000000">LatestChangesModule</text>
</g>
<!-- LatestChangesModule&#45;&gt;UiModule -->
<g id="edge5" class="edge">
<title>LatestChangesModule&#45;&gt;UiModule</title>
<path fill="none" stroke="#000000" d="M617,-122.1061C617,-122.1061 617,-140.991 617,-140.991"/>
<polygon fill="#000000" stroke="#000000" points="613.5001,-140.9909 617,-150.991 620.5001,-140.991 613.5001,-140.9909"/>
</g>
<!-- NavigationModule -->
<g id="node7" class="node">
<title>NavigationModule</title>
<polygon fill="#8dd3c7" stroke="#000000" points="527.7576,-122 524.7576,-126 503.7576,-126 500.7576,-122 406.2424,-122 406.2424,-86 527.7576,-86 527.7576,-122"/>
<text text-anchor="middle" x="467" y="-99.8" font-family="Times,serif" font-size="14.00" fill="#000000">NavigationModule</text>
</g>
<!-- NavigationModule&#45;&gt;UiModule -->
<g id="edge6" class="edge">
<title>NavigationModule&#45;&gt;UiModule</title>
<path fill="none" stroke="#000000" d="M467,-122.0091C467,-138.0494 467,-159 467,-159 467,-159 570.3059,-159 570.3059,-159"/>
<polygon fill="#000000" stroke="#000000" points="570.3059,-162.5001 580.3059,-159 570.3058,-155.5001 570.3059,-162.5001"/>
</g>
<!-- SchoolsModule -->
<g id="node8" class="node">
<title>SchoolsModule</title>
<polygon fill="#8dd3c7" stroke="#000000" points="387.8823,-122 384.8823,-126 363.8823,-126 360.8823,-122 284.1177,-122 284.1177,-86 387.8823,-86 387.8823,-122"/>
<text text-anchor="middle" x="336" y="-99.8" font-family="Times,serif" font-size="14.00" fill="#000000">SchoolsModule</text>
</g>
<!-- SchoolsModule&#45;&gt;UiModule -->
<g id="edge7" class="edge">
<title>SchoolsModule&#45;&gt;UiModule</title>
<path fill="none" stroke="#000000" d="M336,-122.2667C336,-140.5552 336,-166 336,-166 336,-166 570.2642,-166 570.2642,-166"/>
<polygon fill="#000000" stroke="#000000" points="570.2642,-169.5001 580.2642,-166 570.2641,-162.5001 570.2642,-169.5001"/>
</g>
<!-- SessionModule -->
<g id="node9" class="node">
<title>SessionModule</title>
<polygon fill="#8dd3c7" stroke="#000000" points="266.3273,-122 263.3273,-126 242.3273,-126 239.3273,-122 163.6727,-122 163.6727,-86 266.3273,-86 266.3273,-122"/>
<text text-anchor="middle" x="215" y="-99.8" font-family="Times,serif" font-size="14.00" fill="#000000">SessionModule</text>
</g>
<!-- SessionModule&#45;&gt;UiModule -->
<g id="edge8" class="edge">
<title>SessionModule&#45;&gt;UiModule</title>
<path fill="none" stroke="#000000" d="M215,-122.1289C215,-142.5724 215,-173 215,-173 215,-173 570.2595,-173 570.2595,-173"/>
<polygon fill="#000000" stroke="#000000" points="570.2595,-176.5001 580.2595,-173 570.2595,-169.5001 570.2595,-176.5001"/>
</g>
<!-- SyncStatusModule -->
<g id="node10" class="node">
<title>SyncStatusModule</title>
<polygon fill="#8dd3c7" stroke="#000000" points="145.7702,-122 142.7702,-126 121.7702,-126 118.7702,-122 24.2298,-122 24.2298,-86 145.7702,-86 145.7702,-122"/>
<text text-anchor="middle" x="85" y="-99.8" font-family="Times,serif" font-size="14.00" fill="#000000">SyncStatusModule</text>
</g>
<!-- SyncStatusModule&#45;&gt;UiModule -->
<g id="edge9" class="edge">
<title>SyncStatusModule&#45;&gt;UiModule</title>
<path fill="none" stroke="#000000" d="M85,-122.0109C85,-144.4852 85,-180 85,-180 85,-180 570.4335,-180 570.4335,-180"/>
<polygon fill="#000000" stroke="#000000" points="570.4335,-183.5001 580.4335,-180 570.4335,-176.5001 570.4335,-183.5001"/>
</g>
</g>
</svg>
