<?xml version="1.0" encoding="UTF-8" standalone="no"?>
<!DOCTYPE svg PUBLIC "-//W3C//DTD SVG 1.1//EN"
 "http://www.w3.org/Graphics/SVG/1.1/DTD/svg11.dtd">
<!-- Generated by graphviz version 2.40.1 (20161225.0304)
 -->
<!-- Title: dependencies Pages: 1 -->
<svg width="1940pt" height="284pt"
 viewBox="0.00 0.00 1940.00 284.00" xmlns="http://www.w3.org/2000/svg" xmlns:xlink="http://www.w3.org/1999/xlink">
<g id="graph0" class="graph" transform="scale(1 1) rotate(0) translate(4 280)">
<title>dependencies</title>
<polygon fill="#ffffff" stroke="transparent" points="-4,4 -4,-280 1936,-280 1936,4 -4,4"/>
<text text-anchor="start" x="945.0091" y="-42.4" font-family="sans-serif" font-weight="bold" font-size="14.00" fill="#000000">Legend</text>
<polygon fill="#ffffb3" stroke="transparent" points="732,-10 732,-30 752,-30 752,-10 732,-10"/>
<text text-anchor="start" x="755.629" y="-15.4" font-family="sans-serif" font-size="14.00" fill="#000000"> &#160;Declarations</text>
<polygon fill="#8dd3c7" stroke="transparent" points="845,-10 845,-30 865,-30 865,-10 845,-10"/>
<text text-anchor="start" x="868.7251" y="-15.4" font-family="sans-serif" font-size="14.00" fill="#000000"> &#160;Module</text>
<polygon fill="#80b1d3" stroke="transparent" points="931,-10 931,-30 951,-30 951,-10 931,-10"/>
<text text-anchor="start" x="954.7812" y="-15.4" font-family="sans-serif" font-size="14.00" fill="#000000"> &#160;Bootstrap</text>
<polygon fill="#fdb462" stroke="transparent" points="1028,-10 1028,-30 1048,-30 1048,-10 1028,-10"/>
<text text-anchor="start" x="1051.6732" y="-15.4" font-family="sans-serif" font-size="14.00" fill="#000000"> &#160;Providers</text>
<polygon fill="#fb8072" stroke="transparent" points="1124,-10 1124,-30 1144,-30 1144,-10 1124,-10"/>
<text text-anchor="start" x="1147.7258" y="-15.4" font-family="sans-serif" font-size="14.00" fill="#000000"> &#160;Exports</text>
<g id="clust1" class="cluster">
<title>cluster_AppModule</title>
<polygon fill="none" stroke="#000000" stroke-dasharray="1,5" points="8,-70 8,-268 1924,-268 1924,-70 8,-70"/>
</g>
<g id="clust2" class="cluster">
<title>cluster_AppModule_declarations</title>
<polygon fill="none" stroke="#000000" points="1794,-78 1794,-130 1916,-130 1916,-78 1794,-78"/>
</g>
<g id="clust4" class="cluster">
<title>cluster_AppModule_imports</title>
<polygon fill="none" stroke="#000000" points="148,-78 148,-130 1786,-130 1786,-78 148,-78"/>
</g>
<g id="clust6" class="cluster">
<title>cluster_AppModule_bootstrap</title>
<polygon fill="none" stroke="#000000" points="883,-208 883,-260 1007,-260 1007,-208 883,-208"/>
</g>
<g id="clust7" class="cluster">
<title>cluster_AppModule_providers</title>
<polygon fill="none" stroke="#000000" points="16,-78 16,-130 140,-130 140,-78 16,-78"/>
</g>
<!-- AppComponent -->
<g id="node1" class="node">
<title>AppComponent</title>
<polygon fill="#ffffb3" stroke="#000000" points="1907.9399,-122 1802.0601,-122 1802.0601,-86 1907.9399,-86 1907.9399,-122"/>
<text text-anchor="middle" x="1855" y="-99.8" font-family="Times,serif" font-size="14.00" fill="#000000">AppComponent</text>
</g>
<!-- AppModule -->
<g id="node2" class="node">
<title>AppModule</title>
<polygon fill="#8dd3c7" stroke="#000000" points="986.6571,-187 983.6571,-191 962.6571,-191 959.6571,-187 903.3429,-187 903.3429,-151 986.6571,-151 986.6571,-187"/>
<text text-anchor="middle" x="945" y="-164.8" font-family="Times,serif" font-size="14.00" fill="#000000">AppModule</text>
</g>
<!-- AppComponent&#45;&gt;AppModule -->
<g id="edge1" class="edge">
<title>AppComponent&#45;&gt;AppModule</title>
<path fill="none" stroke="#000000" d="M1855,-122.3228C1855,-145.6602 1855,-183 1855,-183 1855,-183 996.7653,-183 996.7653,-183"/>
<polygon fill="#000000" stroke="#000000" points="996.7653,-179.5001 986.7653,-183 996.7653,-186.5001 996.7653,-179.5001"/>
</g>
<!-- AppComponent  -->
<g id="node16" class="node">
<title>AppComponent </title>
<polygon fill="#80b1d3" stroke="#000000" points="999.439,-252 890.561,-252 890.561,-216 999.439,-216 999.439,-252"/>
<text text-anchor="middle" x="945" y="-229.8" font-family="Times,serif" font-size="14.00" fill="#000000">AppComponent </text>
</g>
<!-- AppModule&#45;&gt;AppComponent  -->
<g id="edge15" class="edge">
<title>AppModule&#45;&gt;AppComponent </title>
<path fill="none" stroke="#000000" stroke-dasharray="1,5" d="M945,-187.1061C945,-187.1061 945,-205.991 945,-205.991"/>
<polygon fill="#000000" stroke="#000000" points="941.5001,-205.9909 945,-215.991 948.5001,-205.991 941.5001,-205.9909"/>
</g>
<!-- AdminModule -->
<g id="node3" class="node">
<title>AdminModule</title>
<polygon fill="#8dd3c7" stroke="#000000" points="1778.4386,-122 1775.4386,-126 1754.4386,-126 1751.4386,-122 1679.5614,-122 1679.5614,-86 1778.4386,-86 1778.4386,-122"/>
<text text-anchor="middle" x="1729" y="-99.8" font-family="Times,serif" font-size="14.00" fill="#000000">AdminModule</text>
</g>
<!-- AdminModule&#45;&gt;AppModule -->
<g id="edge2" class="edge">
<title>AdminModule&#45;&gt;AppModule</title>
<path fill="none" stroke="#000000" d="M1729,-122.2921C1729,-144.2057 1729,-178 1729,-178 1729,-178 996.8741,-178 996.8741,-178"/>
<polygon fill="#000000" stroke="#000000" points="996.8741,-174.5001 986.8741,-178 996.874,-181.5001 996.8741,-174.5001"/>
</g>
<!-- AlertsModule -->
<g id="node4" class="node">
<title>AlertsModule</title>
<polygon fill="#8dd3c7" stroke="#000000" points="1661.7577,-122 1658.7577,-126 1637.7577,-126 1634.7577,-122 1568.2423,-122 1568.2423,-86 1661.7577,-86 1661.7577,-122"/>
<text text-anchor="middle" x="1615" y="-99.8" font-family="Times,serif" font-size="14.00" fill="#000000">AlertsModule</text>
</g>
<!-- AlertsModule&#45;&gt;AppModule -->
<g id="edge3" class="edge">
<title>AlertsModule&#45;&gt;AppModule</title>
<path fill="none" stroke="#000000" d="M1615,-122.0267C1615,-142.7672 1615,-174 1615,-174 1615,-174 996.6584,-174 996.6584,-174"/>
<polygon fill="#000000" stroke="#000000" points="996.6584,-170.5001 986.6584,-174 996.6583,-177.5001 996.6584,-170.5001"/>
</g>
<!-- AppConfigModule -->
<g id="node5" class="node">
<title>AppConfigModule</title>
<polygon fill="#8dd3c7" stroke="#000000" points="1550.045,-122 1547.045,-126 1526.045,-126 1523.045,-122 1427.955,-122 1427.955,-86 1550.045,-86 1550.045,-122"/>
<text text-anchor="middle" x="1489" y="-99.8" font-family="Times,serif" font-size="14.00" fill="#000000">AppConfigModule</text>
</g>
<!-- AppConfigModule&#45;&gt;AppModule -->
<g id="edge4" class="edge">
<title>AppConfigModule&#45;&gt;AppModule</title>
<path fill="none" stroke="#000000" d="M1489,-122.1061C1489,-141.3391 1489,-169 1489,-169 1489,-169 996.7835,-169 996.7835,-169"/>
<polygon fill="#000000" stroke="#000000" points="996.7835,-165.5001 986.7835,-169 996.7834,-172.5001 996.7835,-165.5001"/>
</g>
<!-- ChildrenModule -->
<g id="node6" class="node">
<title>ChildrenModule</title>
<polygon fill="#8dd3c7" stroke="#000000" points="1409.0438,-122 1406.0438,-126 1385.0438,-126 1382.0438,-122 1300.9562,-122 1300.9562,-86 1409.0438,-86 1409.0438,-122"/>
<text text-anchor="middle" x="1355" y="-99.8" font-family="Times,serif" font-size="14.00" fill="#000000">ChildrenModule</text>
</g>
<!-- ChildrenModule&#45;&gt;AppModule -->
<g id="edge5" class="edge">
<title>ChildrenModule&#45;&gt;AppModule</title>
<path fill="none" stroke="#000000" d="M1355,-122.302C1355,-140.2699 1355,-165 1355,-165 1355,-165 996.9504,-165 996.9504,-165"/>
<polygon fill="#000000" stroke="#000000" points="996.9504,-161.5001 986.9504,-165 996.9504,-168.5001 996.9504,-161.5001"/>
</g>
<!-- DashboardModule -->
<g id="node7" class="node">
<title>DashboardModule</title>
<polygon fill="#8dd3c7" stroke="#000000" points="1283.191,-122 1280.191,-126 1259.191,-126 1256.191,-122 1162.809,-122 1162.809,-86 1283.191,-86 1283.191,-122"/>
<text text-anchor="middle" x="1223" y="-99.8" font-family="Times,serif" font-size="14.00" fill="#000000">DashboardModule</text>
</g>
<!-- DashboardModule&#45;&gt;AppModule -->
<g id="edge6" class="edge">
<title>DashboardModule&#45;&gt;AppModule</title>
<path fill="none" stroke="#000000" d="M1223,-122.027C1223,-138.3976 1223,-160 1223,-160 1223,-160 996.9204,-160 996.9204,-160"/>
<polygon fill="#000000" stroke="#000000" points="996.9204,-156.5001 986.9204,-160 996.9204,-163.5001 996.9204,-156.5001"/>
</g>
<!-- DatabaseModule -->
<g id="node8" class="node">
<title>DatabaseModule</title>
<polygon fill="#8dd3c7" stroke="#000000" points="1144.3501,-122 1141.3501,-126 1120.3501,-126 1117.3501,-122 1033.6499,-122 1033.6499,-86 1144.3501,-86 1144.3501,-122"/>
<text text-anchor="middle" x="1089" y="-99.8" font-family="Times,serif" font-size="14.00" fill="#000000">DatabaseModule</text>
</g>
<!-- DatabaseModule&#45;&gt;AppModule -->
<g id="edge7" class="edge">
<title>DatabaseModule&#45;&gt;AppModule</title>
<path fill="none" stroke="#000000" d="M1089,-122.1871C1089,-137.1824 1089,-156 1089,-156 1089,-156 997.0379,-156 997.0379,-156"/>
<polygon fill="#000000" stroke="#000000" points="997.0379,-152.5001 987.0379,-156 997.0378,-159.5001 997.0379,-152.5001"/>
</g>
<!-- LatestChangesModule -->
<g id="node9" class="node">
<title>LatestChangesModule</title>
<polygon fill="#8dd3c7" stroke="#000000" points="1015.9678,-122 1012.9678,-126 991.9678,-126 988.9678,-122 874.0322,-122 874.0322,-86 1015.9678,-86 1015.9678,-122"/>
<text text-anchor="middle" x="945" y="-99.8" font-family="Times,serif" font-size="14.00" fill="#000000">LatestChangesModule</text>
</g>
<!-- LatestChangesModule&#45;&gt;AppModule -->
<g id="edge8" class="edge">
<title>LatestChangesModule&#45;&gt;AppModule</title>
<path fill="none" stroke="#000000" d="M945,-122.1061C945,-122.1061 945,-140.991 945,-140.991"/>
<polygon fill="#000000" stroke="#000000" points="941.5001,-140.9909 945,-150.991 948.5001,-140.991 941.5001,-140.9909"/>
</g>
<!-- NavigationModule -->
<g id="node10" class="node">
<title>NavigationModule</title>
<polygon fill="#8dd3c7" stroke="#000000" points="855.7576,-122 852.7576,-126 831.7576,-126 828.7576,-122 734.2424,-122 734.2424,-86 855.7576,-86 855.7576,-122"/>
<text text-anchor="middle" x="795" y="-99.8" font-family="Times,serif" font-size="14.00" fill="#000000">NavigationModule</text>
</g>
<!-- NavigationModule&#45;&gt;AppModule -->
<g id="edge9" class="edge">
<title>NavigationModule&#45;&gt;AppModule</title>
<path fill="none" stroke="#000000" d="M795,-122.1871C795,-137.1824 795,-156 795,-156 795,-156 893.2166,-156 893.2166,-156"/>
<polygon fill="#000000" stroke="#000000" points="893.2167,-159.5001 903.2166,-156 893.2166,-152.5001 893.2167,-159.5001"/>
</g>
<!-- SchoolsModule -->
<g id="node11" class="node">
<title>SchoolsModule</title>
<polygon fill="#8dd3c7" stroke="#000000" points="715.8823,-122 712.8823,-126 691.8823,-126 688.8823,-122 612.1177,-122 612.1177,-86 715.8823,-86 715.8823,-122"/>
<text text-anchor="middle" x="664" y="-99.8" font-family="Times,serif" font-size="14.00" fill="#000000">SchoolsModule</text>
</g>
<!-- SchoolsModule&#45;&gt;AppModule -->
<g id="edge10" class="edge">
<title>SchoolsModule&#45;&gt;AppModule</title>
<path fill="none" stroke="#000000" d="M664,-122.027C664,-138.3976 664,-160 664,-160 664,-160 893.2349,-160 893.2349,-160"/>
<polygon fill="#000000" stroke="#000000" points="893.2349,-163.5001 903.2349,-160 893.2348,-156.5001 893.2349,-163.5001"/>
</g>
<!-- SessionModule -->
<g id="node12" class="node">
<title>SessionModule</title>
<polygon fill="#8dd3c7" stroke="#000000" points="594.3273,-122 591.3273,-126 570.3273,-126 567.3273,-122 491.6727,-122 491.6727,-86 594.3273,-86 594.3273,-122"/>
<text text-anchor="middle" x="543" y="-99.8" font-family="Times,serif" font-size="14.00" fill="#000000">SessionModule</text>
</g>
<!-- SessionModule&#45;&gt;AppModule -->
<g id="edge11" class="edge">
<title>SessionModule&#45;&gt;AppModule</title>
<path fill="none" stroke="#000000" d="M543,-122.302C543,-140.2699 543,-165 543,-165 543,-165 893.1166,-165 893.1166,-165"/>
<polygon fill="#000000" stroke="#000000" points="893.1166,-168.5001 903.1166,-165 893.1166,-161.5001 893.1166,-168.5001"/>
</g>
<!-- SyncStatusModule -->
<g id="node13" class="node">
<title>SyncStatusModule</title>
<polygon fill="#8dd3c7" stroke="#000000" points="473.7702,-122 470.7702,-126 449.7702,-126 446.7702,-122 352.2298,-122 352.2298,-86 473.7702,-86 473.7702,-122"/>
<text text-anchor="middle" x="413" y="-99.8" font-family="Times,serif" font-size="14.00" fill="#000000">SyncStatusModule</text>
</g>
<!-- SyncStatusModule&#45;&gt;AppModule -->
<g id="edge12" class="edge">
<title>SyncStatusModule&#45;&gt;AppModule</title>
<path fill="none" stroke="#000000" d="M413,-122.1061C413,-141.3391 413,-169 413,-169 413,-169 893.2549,-169 893.2549,-169"/>
<polygon fill="#000000" stroke="#000000" points="893.2549,-172.5001 903.2549,-169 893.2548,-165.5001 893.2549,-172.5001"/>
</g>
<!-- UiModule -->
<g id="node14" class="node">
<title>UiModule</title>
<polygon fill="#8dd3c7" stroke="#000000" points="333.5484,-122 330.5484,-126 309.5484,-126 306.5484,-122 260.4516,-122 260.4516,-86 333.5484,-86 333.5484,-122"/>
<text text-anchor="middle" x="297" y="-99.8" font-family="Times,serif" font-size="14.00" fill="#000000">UiModule</text>
</g>
<!-- UiModule&#45;&gt;AppModule -->
<g id="edge13" class="edge">
<title>UiModule&#45;&gt;AppModule</title>
<path fill="none" stroke="#000000" d="M297,-122.0267C297,-142.7672 297,-174 297,-174 297,-174 892.9822,-174 892.9822,-174"/>
<polygon fill="#000000" stroke="#000000" points="892.9822,-177.5001 902.9822,-174 892.9822,-170.5001 892.9822,-177.5001"/>
</g>
<!-- UserModule -->
<g id="node15" class="node">
<title>UserModule</title>
<polygon fill="#8dd3c7" stroke="#000000" points="241.9762,-122 238.9762,-126 217.9762,-126 214.9762,-122 156.0238,-122 156.0238,-86 241.9762,-86 241.9762,-122"/>
<text text-anchor="middle" x="199" y="-99.8" font-family="Times,serif" font-size="14.00" fill="#000000">UserModule</text>
</g>
<!-- UserModule&#45;&gt;AppModule -->
<g id="edge14" class="edge">
<title>UserModule&#45;&gt;AppModule</title>
<path fill="none" stroke="#000000" d="M199,-122.2921C199,-144.2057 199,-178 199,-178 199,-178 893.2933,-178 893.2933,-178"/>
<polygon fill="#000000" stroke="#000000" points="893.2933,-181.5001 903.2933,-178 893.2933,-174.5001 893.2933,-181.5001"/>
</g>
<!-- AppConfig -->
<g id="node17" class="node">
<title>AppConfig</title>
<ellipse fill="#fdb462" stroke="#000000" cx="78" cy="-104" rx="54.4778" ry="18"/>
<text text-anchor="middle" x="78" y="-99.8" font-family="Times,serif" font-size="14.00" fill="#000000">AppConfig</text>
</g>
<!-- AppConfig&#45;&gt;AppModule -->
<g id="edge16" class="edge">
<title>AppConfig&#45;&gt;AppModule</title>
<path fill="none" stroke="#000000" d="M78,-122.3228C78,-145.6602 78,-183 78,-183 78,-183 893.1828,-183 893.1828,-183"/>
<polygon fill="#000000" stroke="#000000" points="893.1828,-186.5001 903.1828,-183 893.1828,-179.5001 893.1828,-186.5001"/>
</g>
</g>
</svg>
