<?xml version="1.0" encoding="UTF-8" standalone="no"?>
<!DOCTYPE svg PUBLIC "-//W3C//DTD SVG 1.1//EN"
 "http://www.w3.org/Graphics/SVG/1.1/DTD/svg11.dtd">
<!-- Generated by graphviz version 2.47.0 (20210316.0004)
 -->
<!-- Title: dependencies Pages: 1 -->
<svg width="4290pt" height="284pt"
 viewBox="0.00 0.00 4290.00 284.00" xmlns="http://www.w3.org/2000/svg" xmlns:xlink="http://www.w3.org/1999/xlink">
<g id="graph0" class="graph" transform="scale(1 1) rotate(0) translate(4 280)">
<title>dependencies</title>
<polygon fill="white" stroke="transparent" points="-4,4 -4,-280 4286,-280 4286,4 -4,4"/>
<text text-anchor="start" x="2120.01" y="-42.4" font-family="Times-12" font-weight="bold" font-size="14.00">Legend</text>
<polygon fill="#ffffb3" stroke="transparent" points="1907,-10 1907,-30 1927,-30 1927,-10 1907,-10"/>
<text text-anchor="start" x="1930.63" y="-15.4" font-family="Times-12" font-size="14.00"> &#160;Declarations</text>
<polygon fill="#8dd3c7" stroke="transparent" points="2020,-10 2020,-30 2040,-30 2040,-10 2020,-10"/>
<text text-anchor="start" x="2043.73" y="-15.4" font-family="Times-12" font-size="14.00"> &#160;Module</text>
<polygon fill="#80b1d3" stroke="transparent" points="2106,-10 2106,-30 2126,-30 2126,-10 2106,-10"/>
<text text-anchor="start" x="2129.78" y="-15.4" font-family="Times-12" font-size="14.00"> &#160;Bootstrap</text>
<polygon fill="#fdb462" stroke="transparent" points="2203,-10 2203,-30 2223,-30 2223,-10 2203,-10"/>
<text text-anchor="start" x="2226.67" y="-15.4" font-family="Times-12" font-size="14.00"> &#160;Providers</text>
<polygon fill="#fb8072" stroke="transparent" points="2299,-10 2299,-30 2319,-30 2319,-10 2299,-10"/>
<text text-anchor="start" x="2322.73" y="-15.4" font-family="Times-12" font-size="14.00"> &#160;Exports</text>
<g id="clust1" class="cluster">
<title>cluster_AppModule</title>
<polygon fill="none" stroke="black" stroke-dasharray="1,5" points="8,-70 8,-268 4274,-268 4274,-70 8,-70"/>
</g>
<g id="clust2" class="cluster">
<title>cluster_AppModule_declarations</title>
<polygon fill="none" stroke="black" points="4144,-78 4144,-130 4266,-130 4266,-78 4144,-78"/>
</g>
<g id="clust4" class="cluster">
<title>cluster_AppModule_imports</title>
<polygon fill="none" stroke="black" points="194,-78 194,-130 4136,-130 4136,-78 194,-78"/>
</g>
<g id="clust6" class="cluster">
<title>cluster_AppModule_bootstrap</title>
<polygon fill="none" stroke="black" points="2068,-208 2068,-260 2192,-260 2192,-208 2068,-208"/>
</g>
<g id="clust7" class="cluster">
<title>cluster_AppModule_providers</title>
<polygon fill="none" stroke="black" points="16,-78 16,-130 186,-130 186,-78 16,-78"/>
</g>
<!-- AppComponent -->
<g id="node1" class="node">
<title>AppComponent</title>
<polygon fill="#ffffb3" stroke="black" points="4257.94,-122 4152.06,-122 4152.06,-86 4257.94,-86 4257.94,-122"/>
<text text-anchor="middle" x="4205" y="-99.8" font-family="Times,serif" font-size="14.00">AppComponent</text>
</g>
<!-- AppModule -->
<g id="node2" class="node">
<title>AppModule</title>
<polygon fill="#8dd3c7" stroke="black" points="2171.66,-187 2168.66,-191 2147.66,-191 2144.66,-187 2088.34,-187 2088.34,-151 2171.66,-151 2171.66,-187"/>
<text text-anchor="middle" x="2130" y="-164.8" font-family="Times,serif" font-size="14.00">AppModule</text>
</g>
<!-- AppComponent&#45;&gt;AppModule -->
<g id="edge1" class="edge">
<title>AppComponent&#45;&gt;AppModule</title>
<path fill="none" stroke="black" d="M4205,-122.38C4205,-146.28 4205,-185 4205,-185 4205,-185 2181.92,-185 2181.92,-185"/>
<polygon fill="black" stroke="black" points="2181.92,-181.5 2171.92,-185 2181.92,-188.5 2181.92,-181.5"/>
</g>
<!-- AppComponent  -->
<g id="node29" class="node">
<title>AppComponent </title>
<polygon fill="#80b1d3" stroke="black" points="2184.44,-252 2075.56,-252 2075.56,-216 2184.44,-216 2184.44,-252"/>
<text text-anchor="middle" x="2130" y="-229.8" font-family="Times,serif" font-size="14.00">AppComponent </text>
</g>
<!-- AppModule&#45;&gt;AppComponent  -->
<g id="edge28" class="edge">
<title>AppModule&#45;&gt;AppComponent </title>
<path fill="none" stroke="black" stroke-dasharray="1,5" d="M2130,-187.11C2130,-187.11 2130,-205.99 2130,-205.99"/>
<polygon fill="black" stroke="black" points="2126.5,-205.99 2130,-215.99 2133.5,-205.99 2126.5,-205.99"/>
</g>
<!-- AdminModule -->
<g id="node3" class="node">
<title>AdminModule</title>
<polygon fill="#8dd3c7" stroke="black" points="4128.44,-122 4125.44,-126 4104.44,-126 4101.44,-122 4029.56,-122 4029.56,-86 4128.44,-86 4128.44,-122"/>
<text text-anchor="middle" x="4079" y="-99.8" font-family="Times,serif" font-size="14.00">AdminModule</text>
</g>
<!-- AdminModule&#45;&gt;AppModule -->
<g id="edge2" class="edge">
<title>AdminModule&#45;&gt;AppModule</title>
<path fill="none" stroke="black" d="M4079,-122.09C4079,-145.13 4079,-182 4079,-182 4079,-182 2182.06,-182 2182.06,-182"/>
<polygon fill="black" stroke="black" points="2182.06,-178.5 2172.06,-182 2182.06,-185.5 2182.06,-178.5"/>
</g>
<!-- ApplicationLoadingComponent -->
<g id="node4" class="node">
<title>ApplicationLoadingComponent</title>
<polygon fill="#8dd3c7" stroke="black" points="4012.09,-122 4009.09,-126 3988.09,-126 3985.09,-122 3817.91,-122 3817.91,-86 4012.09,-86 4012.09,-122"/>
<text text-anchor="middle" x="3915" y="-99.8" font-family="Times,serif" font-size="14.00">ApplicationLoadingComponent</text>
</g>
<!-- ApplicationLoadingComponent&#45;&gt;AppModule -->
<g id="edge3" class="edge">
<title>ApplicationLoadingComponent&#45;&gt;AppModule</title>
<path fill="none" stroke="black" d="M3915,-122.01C3915,-144.49 3915,-180 3915,-180 3915,-180 2181.93,-180 2181.93,-180"/>
<polygon fill="black" stroke="black" points="2181.93,-176.5 2171.93,-180 2181.93,-183.5 2181.93,-176.5"/>
</g>
<!-- AttendanceModule -->
<g id="node5" class="node">
<title>AttendanceModule</title>
<polygon fill="#8dd3c7" stroke="black" points="3799.8,-122 3796.8,-126 3775.8,-126 3772.8,-122 3676.2,-122 3676.2,-86 3799.8,-86 3799.8,-122"/>
<text text-anchor="middle" x="3738" y="-99.8" font-family="Times,serif" font-size="14.00">AttendanceModule</text>
</g>
<!-- AttendanceModule&#45;&gt;AppModule -->
<g id="edge4" class="edge">
<title>AttendanceModule&#45;&gt;AppModule</title>
<path fill="none" stroke="black" d="M3738,-122.04C3738,-143.66 3738,-177 3738,-177 3738,-177 2181.77,-177 2181.77,-177"/>
<polygon fill="black" stroke="black" points="2181.77,-173.5 2171.77,-177 2181.77,-180.5 2181.77,-173.5"/>
</g>
<!-- BirthdayDashboardWidgetModule -->
<g id="node6" class="node">
<title>BirthdayDashboardWidgetModule</title>
<polygon fill="#8dd3c7" stroke="black" points="3658.39,-122 3655.39,-126 3634.39,-126 3631.39,-122 3447.61,-122 3447.61,-86 3658.39,-86 3658.39,-122"/>
<text text-anchor="middle" x="3553" y="-99.8" font-family="Times,serif" font-size="14.00">BirthdayDashboardWidgetModule</text>
</g>
<!-- BirthdayDashboardWidgetModule&#45;&gt;AppModule -->
<g id="edge5" class="edge">
<title>BirthdayDashboardWidgetModule&#45;&gt;AppModule</title>
<path fill="none" stroke="black" d="M3553,-122.28C3553,-143.32 3553,-175 3553,-175 3553,-175 2181.82,-175 2181.82,-175"/>
<polygon fill="black" stroke="black" points="2181.82,-171.5 2171.82,-175 2181.82,-178.5 2181.82,-171.5"/>
</g>
<!-- ChildrenModule -->
<g id="node7" class="node">
<title>ChildrenModule</title>
<polygon fill="#8dd3c7" stroke="black" points="3430.04,-122 3427.04,-126 3406.04,-126 3403.04,-122 3321.96,-122 3321.96,-86 3430.04,-86 3430.04,-122"/>
<text text-anchor="middle" x="3376" y="-99.8" font-family="Times,serif" font-size="14.00">ChildrenModule</text>
</g>
<!-- ChildrenModule&#45;&gt;AppModule -->
<g id="edge6" class="edge">
<title>ChildrenModule&#45;&gt;AppModule</title>
<path fill="none" stroke="black" d="M3376,-122.22C3376,-142.37 3376,-172 3376,-172 3376,-172 2181.81,-172 2181.81,-172"/>
<polygon fill="black" stroke="black" points="2181.81,-168.5 2171.81,-172 2181.81,-175.5 2181.81,-168.5"/>
</g>
<!-- ConfigurableEnumModule -->
<g id="node8" class="node">
<title>ConfigurableEnumModule</title>
<polygon fill="#8dd3c7" stroke="black" points="3303.36,-122 3300.36,-126 3279.36,-126 3276.36,-122 3136.64,-122 3136.64,-86 3303.36,-86 3303.36,-122"/>
<text text-anchor="middle" x="3220" y="-99.8" font-family="Times,serif" font-size="14.00">ConfigurableEnumModule</text>
</g>
<!-- ConfigurableEnumModule&#45;&gt;AppModule -->
<g id="edge7" class="edge">
<title>ConfigurableEnumModule&#45;&gt;AppModule</title>
<path fill="none" stroke="black" d="M3220,-122.11C3220,-141.34 3220,-169 3220,-169 3220,-169 2181.73,-169 2181.73,-169"/>
<polygon fill="black" stroke="black" points="2181.73,-165.5 2171.73,-169 2181.73,-172.5 2181.73,-165.5"/>
</g>
<!-- CoreModule -->
<g id="node9" class="node">
<title>CoreModule</title>
<polygon fill="#8dd3c7" stroke="black" points="3118.26,-122 3115.26,-126 3094.26,-126 3091.26,-122 3031.74,-122 3031.74,-86 3118.26,-86 3118.26,-122"/>
<text text-anchor="middle" x="3075" y="-99.8" font-family="Times,serif" font-size="14.00">CoreModule</text>
</g>
<!-- CoreModule&#45;&gt;AppModule -->
<g id="edge8" class="edge">
<title>CoreModule&#45;&gt;AppModule</title>
<path fill="none" stroke="black" d="M3075,-122.22C3075,-140.83 3075,-167 3075,-167 3075,-167 2181.82,-167 2181.82,-167"/>
<polygon fill="black" stroke="black" points="2181.82,-163.5 2171.82,-167 2181.82,-170.5 2181.82,-163.5"/>
</g>
<!-- EntityCountDashboardWidgetModule -->
<g id="node10" class="node">
<title>EntityCountDashboardWidgetModule</title>
<polygon fill="#8dd3c7" stroke="black" points="3013.85,-122 3010.85,-126 2989.85,-126 2986.85,-122 2784.15,-122 2784.15,-86 3013.85,-86 3013.85,-122"/>
<text text-anchor="middle" x="2899" y="-99.8" font-family="Times,serif" font-size="14.00">EntityCountDashboardWidgetModule</text>
</g>
<!-- EntityCountDashboardWidgetModule&#45;&gt;AppModule -->
<g id="edge9" class="edge">
<title>EntityCountDashboardWidgetModule&#45;&gt;AppModule</title>
<path fill="none" stroke="black" d="M2899,-122C2899,-139.68 2899,-164 2899,-164 2899,-164 2181.89,-164 2181.89,-164"/>
<polygon fill="black" stroke="black" points="2181.89,-160.5 2171.89,-164 2181.89,-167.5 2181.89,-160.5"/>
</g>
<!-- FileModule -->
<g id="node11" class="node">
<title>FileModule</title>
<polygon fill="#8dd3c7" stroke="black" points="2765.83,-122 2762.83,-126 2741.83,-126 2738.83,-122 2684.17,-122 2684.17,-86 2765.83,-86 2765.83,-122"/>
<text text-anchor="middle" x="2725" y="-99.8" font-family="Times,serif" font-size="14.00">FileModule</text>
</g>
<!-- FileModule&#45;&gt;AppModule -->
<g id="edge10" class="edge">
<title>FileModule&#45;&gt;AppModule</title>
<path fill="none" stroke="black" d="M2725,-122.03C2725,-139.06 2725,-162 2725,-162 2725,-162 2181.84,-162 2181.84,-162"/>
<polygon fill="black" stroke="black" points="2181.84,-158.5 2171.84,-162 2181.84,-165.5 2181.84,-158.5"/>
</g>
<!-- ImportModule -->
<g id="node12" class="node">
<title>ImportModule</title>
<polygon fill="#8dd3c7" stroke="black" points="2666.65,-122 2663.65,-126 2642.65,-126 2639.65,-122 2569.35,-122 2569.35,-86 2666.65,-86 2666.65,-122"/>
<text text-anchor="middle" x="2618" y="-99.8" font-family="Times,serif" font-size="14.00">ImportModule</text>
</g>
<!-- ImportModule&#45;&gt;AppModule -->
<g id="edge11" class="edge">
<title>ImportModule&#45;&gt;AppModule</title>
<path fill="none" stroke="black" d="M2618,-122.01C2618,-138.05 2618,-159 2618,-159 2618,-159 2182.03,-159 2182.03,-159"/>
<polygon fill="black" stroke="black" points="2182.03,-155.5 2172.03,-159 2182.03,-162.5 2182.03,-155.5"/>
</g>
<!-- LanguageModule -->
<g id="node13" class="node">
<title>LanguageModule</title>
<polygon fill="#8dd3c7" stroke="black" points="2551.25,-122 2548.25,-126 2527.25,-126 2524.25,-122 2436.75,-122 2436.75,-86 2551.25,-86 2551.25,-122"/>
<text text-anchor="middle" x="2494" y="-99.8" font-family="Times,serif" font-size="14.00">LanguageModule</text>
</g>
<!-- LanguageModule&#45;&gt;AppModule -->
<g id="edge12" class="edge">
<title>LanguageModule&#45;&gt;AppModule</title>
<path fill="none" stroke="black" d="M2494,-122.24C2494,-137.57 2494,-157 2494,-157 2494,-157 2181.76,-157 2181.76,-157"/>
<polygon fill="black" stroke="black" points="2181.76,-153.5 2171.76,-157 2181.76,-160.5 2181.76,-153.5"/>
</g>
<!-- LatestChangesModule -->
<g id="node14" class="node">
<title>LatestChangesModule</title>
<polygon fill="#8dd3c7" stroke="black" points="2418.97,-122 2415.97,-126 2394.97,-126 2391.97,-122 2277.03,-122 2277.03,-86 2418.97,-86 2418.97,-122"/>
<text text-anchor="middle" x="2348" y="-99.8" font-family="Times,serif" font-size="14.00">LatestChangesModule</text>
</g>
<!-- LatestChangesModule&#45;&gt;AppModule -->
<g id="edge13" class="edge">
<title>LatestChangesModule&#45;&gt;AppModule</title>
<path fill="none" stroke="black" d="M2348,-122.05C2348,-136.37 2348,-154 2348,-154 2348,-154 2181.77,-154 2181.77,-154"/>
<polygon fill="black" stroke="black" points="2181.77,-150.5 2171.77,-154 2181.77,-157.5 2181.77,-150.5"/>
</g>
<!-- LocationModule -->
<g id="node15" class="node">
<title>LocationModule</title>
<polygon fill="#8dd3c7" stroke="black" points="2258.81,-122 2255.81,-126 2234.81,-126 2231.81,-122 2149.19,-122 2149.19,-86 2258.81,-86 2258.81,-122"/>
<text text-anchor="middle" x="2204" y="-99.8" font-family="Times,serif" font-size="14.00">LocationModule</text>
</g>
<!-- LocationModule&#45;&gt;AppModule -->
<g id="edge14" class="edge">
<title>LocationModule&#45;&gt;AppModule</title>
<path fill="none" stroke="black" d="M2160.59,-122.11C2160.59,-122.11 2160.59,-140.99 2160.59,-140.99"/>
<polygon fill="black" stroke="black" points="2157.09,-140.99 2160.59,-150.99 2164.09,-140.99 2157.09,-140.99"/>
</g>
<!-- MarkdownPageModule -->
<g id="node16" class="node">
<title>MarkdownPageModule</title>
<polygon fill="#8dd3c7" stroke="black" points="2131.19,-122 2128.19,-126 2107.19,-126 2104.19,-122 1982.81,-122 1982.81,-86 2131.19,-86 2131.19,-122"/>
<text text-anchor="middle" x="2057" y="-99.8" font-family="Times,serif" font-size="14.00">MarkdownPageModule</text>
</g>
<!-- MarkdownPageModule&#45;&gt;AppModule -->
<g id="edge15" class="edge">
<title>MarkdownPageModule&#45;&gt;AppModule</title>
<path fill="none" stroke="black" d="M2109.63,-122.11C2109.63,-122.11 2109.63,-140.99 2109.63,-140.99"/>
<polygon fill="black" stroke="black" points="2106.13,-140.99 2109.63,-150.99 2113.13,-140.99 2106.13,-140.99"/>
</g>
<!-- MatchingEntitiesModule -->
<g id="node17" class="node">
<title>MatchingEntitiesModule</title>
<polygon fill="#8dd3c7" stroke="black" points="1964.98,-122 1961.98,-126 1940.98,-126 1937.98,-122 1809.02,-122 1809.02,-86 1964.98,-86 1964.98,-122"/>
<text text-anchor="middle" x="1887" y="-99.8" font-family="Times,serif" font-size="14.00">MatchingEntitiesModule</text>
</g>
<!-- MatchingEntitiesModule&#45;&gt;AppModule -->
<g id="edge16" class="edge">
<title>MatchingEntitiesModule&#45;&gt;AppModule</title>
<path fill="none" stroke="black" d="M1887,-122.05C1887,-136.37 1887,-154 1887,-154 1887,-154 2078.23,-154 2078.23,-154"/>
<polygon fill="black" stroke="black" points="2078.23,-157.5 2088.23,-154 2078.23,-150.5 2078.23,-157.5"/>
</g>
<!-- NotesModule -->
<g id="node18" class="node">
<title>NotesModule</title>
<polygon fill="#8dd3c7" stroke="black" points="1791.21,-122 1788.21,-126 1767.21,-126 1764.21,-122 1698.79,-122 1698.79,-86 1791.21,-86 1791.21,-122"/>
<text text-anchor="middle" x="1745" y="-99.8" font-family="Times,serif" font-size="14.00">NotesModule</text>
</g>
<!-- NotesModule&#45;&gt;AppModule -->
<g id="edge17" class="edge">
<title>NotesModule&#45;&gt;AppModule</title>
<path fill="none" stroke="black" d="M1745,-122.24C1745,-137.57 1745,-157 1745,-157 1745,-157 2078.07,-157 2078.07,-157"/>
<polygon fill="black" stroke="black" points="2078.07,-160.5 2088.07,-157 2078.07,-153.5 2078.07,-160.5"/>
</g>
<!-- PermissionsModule -->
<g id="node19" class="node">
<title>PermissionsModule</title>
<polygon fill="#8dd3c7" stroke="black" points="1680.71,-122 1677.71,-126 1656.71,-126 1653.71,-122 1553.29,-122 1553.29,-86 1680.71,-86 1680.71,-122"/>
<text text-anchor="middle" x="1617" y="-99.8" font-family="Times,serif" font-size="14.00">PermissionsModule</text>
</g>
<!-- PermissionsModule&#45;&gt;AppModule -->
<g id="edge18" class="edge">
<title>PermissionsModule&#45;&gt;AppModule</title>
<path fill="none" stroke="black" d="M1617,-122.01C1617,-138.05 1617,-159 1617,-159 1617,-159 2078.02,-159 2078.02,-159"/>
<polygon fill="black" stroke="black" points="2078.02,-162.5 2088.02,-159 2078.02,-155.5 2078.02,-162.5"/>
</g>
<!-- ProgressDashboardWidgetModule -->
<g id="node20" class="node">
<title>ProgressDashboardWidgetModule</title>
<polygon fill="#8dd3c7" stroke="black" points="1535.61,-122 1532.61,-126 1511.61,-126 1508.61,-122 1326.39,-122 1326.39,-86 1535.61,-86 1535.61,-122"/>
<text text-anchor="middle" x="1431" y="-99.8" font-family="Times,serif" font-size="14.00">ProgressDashboardWidgetModule</text>
</g>
<!-- ProgressDashboardWidgetModule&#45;&gt;AppModule -->
<g id="edge19" class="edge">
<title>ProgressDashboardWidgetModule&#45;&gt;AppModule</title>
<path fill="none" stroke="black" d="M1431,-122.03C1431,-139.06 1431,-162 1431,-162 1431,-162 2078.11,-162 2078.11,-162"/>
<polygon fill="black" stroke="black" points="2078.11,-165.5 2088.11,-162 2078.11,-158.5 2078.11,-165.5"/>
</g>
<!-- PublicFormModule -->
<g id="node21" class="node">
<title>PublicFormModule</title>
<polygon fill="#8dd3c7" stroke="black" points="1307.66,-122 1304.66,-126 1283.66,-126 1280.66,-122 1182.34,-122 1182.34,-86 1307.66,-86 1307.66,-122"/>
<text text-anchor="middle" x="1245" y="-99.8" font-family="Times,serif" font-size="14.00">PublicFormModule</text>
</g>
<!-- PublicFormModule&#45;&gt;AppModule -->
<g id="edge20" class="edge">
<title>PublicFormModule&#45;&gt;AppModule</title>
<path fill="none" stroke="black" d="M1245,-122C1245,-139.68 1245,-164 1245,-164 1245,-164 2078.21,-164 2078.21,-164"/>
<polygon fill="black" stroke="black" points="2078.21,-167.5 2088.21,-164 2078.21,-160.5 2078.21,-167.5"/>
</g>
<!-- ReportingModule -->
<g id="node22" class="node">
<title>ReportingModule</title>
<polygon fill="#8dd3c7" stroke="black" points="1163.54,-122 1160.54,-126 1139.54,-126 1136.54,-122 1048.46,-122 1048.46,-86 1163.54,-86 1163.54,-122"/>
<text text-anchor="middle" x="1106" y="-99.8" font-family="Times,serif" font-size="14.00">ReportingModule</text>
</g>
<!-- ReportingModule&#45;&gt;AppModule -->
<g id="edge21" class="edge">
<title>ReportingModule&#45;&gt;AppModule</title>
<path fill="none" stroke="black" d="M1106,-122.22C1106,-140.83 1106,-167 1106,-167 1106,-167 2078.27,-167 2078.27,-167"/>
<polygon fill="black" stroke="black" points="2078.27,-170.5 2088.27,-167 2078.27,-163.5 2078.27,-170.5"/>
</g>
<!-- SessionModule -->
<g id="node23" class="node">
<title>SessionModule</title>
<polygon fill="#8dd3c7" stroke="black" points="1030.33,-122 1027.33,-126 1006.33,-126 1003.33,-122 927.67,-122 927.67,-86 1030.33,-86 1030.33,-122"/>
<text text-anchor="middle" x="979" y="-99.8" font-family="Times,serif" font-size="14.00">SessionModule</text>
</g>
<!-- SessionModule&#45;&gt;AppModule -->
<g id="edge22" class="edge">
<title>SessionModule&#45;&gt;AppModule</title>
<path fill="none" stroke="black" d="M979,-122.11C979,-141.34 979,-169 979,-169 979,-169 2078.01,-169 2078.01,-169"/>
<polygon fill="black" stroke="black" points="2078.01,-172.5 2088.01,-169 2078.01,-165.5 2078.01,-172.5"/>
</g>
<!-- ShortcutDashboardWidgetModule -->
<g id="node24" class="node">
<title>ShortcutDashboardWidgetModule</title>
<polygon fill="#8dd3c7" stroke="black" points="909.34,-122 906.34,-126 885.34,-126 882.34,-122 700.66,-122 700.66,-86 909.34,-86 909.34,-122"/>
<text text-anchor="middle" x="805" y="-99.8" font-family="Times,serif" font-size="14.00">ShortcutDashboardWidgetModule</text>
</g>
<!-- ShortcutDashboardWidgetModule&#45;&gt;AppModule -->
<g id="edge23" class="edge">
<title>ShortcutDashboardWidgetModule&#45;&gt;AppModule</title>
<path fill="none" stroke="black" d="M805,-122.22C805,-142.37 805,-172 805,-172 805,-172 2078.16,-172 2078.16,-172"/>
<polygon fill="black" stroke="black" points="2078.16,-175.5 2088.16,-172 2078.16,-168.5 2078.16,-175.5"/>
</g>
<!-- SkillModule -->
<g id="node25" class="node">
<title>SkillModule</title>
<polygon fill="#8dd3c7" stroke="black" points="683,-122 680,-126 659,-126 656,-122 597,-122 597,-86 683,-86 683,-122"/>
<text text-anchor="middle" x="640" y="-99.8" font-family="Times,serif" font-size="14.00">SkillModule</text>
</g>
<!-- SkillModule&#45;&gt;AppModule -->
<g id="edge24" class="edge">
<title>SkillModule&#45;&gt;AppModule</title>
<path fill="none" stroke="black" d="M640,-122.28C640,-143.32 640,-175 640,-175 640,-175 2078.2,-175 2078.2,-175"/>
<polygon fill="black" stroke="black" points="2078.2,-178.5 2088.2,-175 2078.2,-171.5 2078.2,-178.5"/>
</g>
<!-- TemplateExportModule -->
<g id="node26" class="node">
<title>TemplateExportModule</title>
<polygon fill="#8dd3c7" stroke="black" points="579.02,-122 576.02,-126 555.02,-126 552.02,-122 428.98,-122 428.98,-86 579.02,-86 579.02,-122"/>
<text text-anchor="middle" x="504" y="-99.8" font-family="Times,serif" font-size="14.00">TemplateExportModule</text>
</g>
<!-- TemplateExportModule&#45;&gt;AppModule -->
<g id="edge25" class="edge">
<title>TemplateExportModule&#45;&gt;AppModule</title>
<path fill="none" stroke="black" d="M504,-122.04C504,-143.66 504,-177 504,-177 504,-177 2078.17,-177 2078.17,-177"/>
<polygon fill="black" stroke="black" points="2078.17,-180.5 2088.17,-177 2078.17,-173.5 2078.17,-180.5"/>
</g>
<!-- TodosModule -->
<g id="node27" class="node">
<title>TodosModule</title>
<polygon fill="#8dd3c7" stroke="black" points="410.05,-122 407.05,-126 386.05,-126 383.05,-122 315.95,-122 315.95,-86 410.05,-86 410.05,-122"/>
<text text-anchor="middle" x="363" y="-99.8" font-family="Times,serif" font-size="14.00">TodosModule</text>
</g>
<!-- TodosModule&#45;&gt;AppModule -->
<g id="edge26" class="edge">
<title>TodosModule&#45;&gt;AppModule</title>
<path fill="none" stroke="black" d="M363,-122.01C363,-144.49 363,-180 363,-180 363,-180 2078.06,-180 2078.06,-180"/>
<polygon fill="black" stroke="black" points="2078.06,-183.5 2088.06,-180 2078.06,-176.5 2078.06,-183.5"/>
</g>
<!-- UiComponent -->
<g id="node28" class="node">
<title>UiComponent</title>
<polygon fill="#8dd3c7" stroke="black" points="297.83,-122 294.83,-126 273.83,-126 270.83,-122 202.17,-122 202.17,-86 297.83,-86 297.83,-122"/>
<text text-anchor="middle" x="250" y="-99.8" font-family="Times,serif" font-size="14.00">UiComponent</text>
</g>
<!-- UiComponent&#45;&gt;AppModule -->
<g id="edge27" class="edge">
<title>UiComponent&#45;&gt;AppModule</title>
<path fill="none" stroke="black" d="M250,-122.09C250,-145.13 250,-182 250,-182 250,-182 2078.1,-182 2078.1,-182"/>
<polygon fill="black" stroke="black" points="2078.1,-185.5 2088.1,-182 2078.1,-178.5 2078.1,-185.5"/>
</g>
<!-- AnalyticsService -->
<g id="node30" class="node">
<title>AnalyticsService</title>
<ellipse fill="#fdb462" stroke="black" cx="101" cy="-104" rx="77" ry="18"/>
<text text-anchor="middle" x="101" y="-99.8" font-family="Times,serif" font-size="14.00">AnalyticsService</text>
</g>
<!-- AnalyticsService&#45;&gt;AppModule -->
<g id="edge29" class="edge">
<title>AnalyticsService&#45;&gt;AppModule</title>
<path fill="none" stroke="black" d="M101,-122.38C101,-146.28 101,-185 101,-185 101,-185 2078.09,-185 2078.09,-185"/>
<polygon fill="black" stroke="black" points="2078.09,-188.5 2088.09,-185 2078.09,-181.5 2078.09,-188.5"/>
</g>
</g>
</svg>
