<?xml version="1.0" encoding="UTF-8" standalone="no"?>
<!DOCTYPE svg PUBLIC "-//W3C//DTD SVG 1.1//EN"
 "http://www.w3.org/Graphics/SVG/1.1/DTD/svg11.dtd">
<!-- Generated by graphviz version 2.47.0 (20210316.0004)
 -->
<!-- Title: dependencies Pages: 1 -->
<svg width="4946pt" height="284pt"
 viewBox="0.00 0.00 4946.00 284.00" xmlns="http://www.w3.org/2000/svg" xmlns:xlink="http://www.w3.org/1999/xlink">
<g id="graph0" class="graph" transform="scale(1 1) rotate(0) translate(4 280)">
<title>dependencies</title>
<polygon fill="white" stroke="transparent" points="-4,4 -4,-280 4942,-280 4942,4 -4,4"/>
<text text-anchor="start" x="2448.01" y="-42.4" font-family="Times-12" font-weight="bold" font-size="14.00">Legend</text>
<polygon fill="#ffffb3" stroke="transparent" points="2235,-10 2235,-30 2255,-30 2255,-10 2235,-10"/>
<text text-anchor="start" x="2258.63" y="-15.4" font-family="Times-12" font-size="14.00"> &#160;Declarations</text>
<polygon fill="#8dd3c7" stroke="transparent" points="2348,-10 2348,-30 2368,-30 2368,-10 2348,-10"/>
<text text-anchor="start" x="2371.73" y="-15.4" font-family="Times-12" font-size="14.00"> &#160;Module</text>
<polygon fill="#80b1d3" stroke="transparent" points="2434,-10 2434,-30 2454,-30 2454,-10 2434,-10"/>
<text text-anchor="start" x="2457.78" y="-15.4" font-family="Times-12" font-size="14.00"> &#160;Bootstrap</text>
<polygon fill="#fdb462" stroke="transparent" points="2531,-10 2531,-30 2551,-30 2551,-10 2531,-10"/>
<text text-anchor="start" x="2554.67" y="-15.4" font-family="Times-12" font-size="14.00"> &#160;Providers</text>
<polygon fill="#fb8072" stroke="transparent" points="2627,-10 2627,-30 2647,-30 2647,-10 2627,-10"/>
<text text-anchor="start" x="2650.73" y="-15.4" font-family="Times-12" font-size="14.00"> &#160;Exports</text>
<g id="clust1" class="cluster">
<title>cluster_AppModule</title>
<polygon fill="none" stroke="black" stroke-dasharray="1,5" points="8,-70 8,-268 4930,-268 4930,-70 8,-70"/>
</g>
<g id="clust7" class="cluster">
<title>cluster_AppModule_providers</title>
<polygon fill="none" stroke="black" points="4560,-78 4560,-130 4922,-130 4922,-78 4560,-78"/>
</g>
<g id="clust4" class="cluster">
<title>cluster_AppModule_imports</title>
<polygon fill="none" stroke="black" points="146,-78 146,-130 4552,-130 4552,-78 146,-78"/>
</g>
<g id="clust6" class="cluster">
<title>cluster_AppModule_bootstrap</title>
<polygon fill="none" stroke="black" points="2311,-208 2311,-260 2435,-260 2435,-208 2311,-208"/>
</g>
<g id="clust2" class="cluster">
<title>cluster_AppModule_declarations</title>
<polygon fill="none" stroke="black" points="16,-78 16,-130 138,-130 138,-78 16,-78"/>
</g>
<!-- AppComponent -->
<g id="node1" class="node">
<title>AppComponent</title>
<polygon fill="#ffffb3" stroke="black" points="129.94,-122 24.06,-122 24.06,-86 129.94,-86 129.94,-122"/>
<text text-anchor="middle" x="77" y="-99.8" font-family="Times,serif" font-size="14.00">AppComponent</text>
</g>
<!-- AppModule -->
<g id="node2" class="node">
<title>AppModule</title>
<polygon fill="#8dd3c7" stroke="black" points="2414.66,-187 2411.66,-191 2390.66,-191 2387.66,-187 2331.34,-187 2331.34,-151 2414.66,-151 2414.66,-187"/>
<text text-anchor="middle" x="2373" y="-164.8" font-family="Times,serif" font-size="14.00">AppModule</text>
</g>
<!-- AppComponent&#45;&gt;AppModule -->
<g id="edge1" class="edge">
<title>AppComponent&#45;&gt;AppModule</title>
<path fill="none" stroke="black" d="M77,-122.38C77,-146.28 77,-185 77,-185 77,-185 2321.19,-185 2321.19,-185"/>
<polygon fill="black" stroke="black" points="2321.19,-188.5 2331.19,-185 2321.19,-181.5 2321.19,-188.5"/>
</g>
<!-- AppComponent  -->
<g id="node32" class="node">
<title>AppComponent </title>
<polygon fill="#80b1d3" stroke="black" points="2427.44,-252 2318.56,-252 2318.56,-216 2427.44,-216 2427.44,-252"/>
<text text-anchor="middle" x="2373" y="-229.8" font-family="Times,serif" font-size="14.00">AppComponent </text>
</g>
<!-- AppModule&#45;&gt;AppComponent  -->
<g id="edge31" class="edge">
<title>AppModule&#45;&gt;AppComponent </title>
<path fill="none" stroke="black" stroke-dasharray="1,5" d="M2373,-187.11C2373,-187.11 2373,-205.99 2373,-205.99"/>
<polygon fill="black" stroke="black" points="2369.5,-205.99 2373,-215.99 2376.5,-205.99 2369.5,-205.99"/>
</g>
<!-- AdminModule -->
<g id="node3" class="node">
<title>AdminModule</title>
<polygon fill="#8dd3c7" stroke="black" points="4544.44,-122 4541.44,-126 4520.44,-126 4517.44,-122 4445.56,-122 4445.56,-86 4544.44,-86 4544.44,-122"/>
<text text-anchor="middle" x="4495" y="-99.8" font-family="Times,serif" font-size="14.00">AdminModule</text>
</g>
<!-- AdminModule&#45;&gt;AppModule -->
<g id="edge2" class="edge">
<title>AdminModule&#45;&gt;AppModule</title>
<path fill="none" stroke="black" d="M4495,-122.25C4495,-145.02 4495,-181 4495,-181 4495,-181 2424.91,-181 2424.91,-181"/>
<polygon fill="black" stroke="black" points="2424.91,-177.5 2414.91,-181 2424.91,-184.5 2424.91,-177.5"/>
</g>
<!-- ApplicationLoadingComponent -->
<g id="node4" class="node">
<title>ApplicationLoadingComponent</title>
<polygon fill="#8dd3c7" stroke="black" points="4428.09,-122 4425.09,-126 4404.09,-126 4401.09,-122 4233.91,-122 4233.91,-86 4428.09,-86 4428.09,-122"/>
<text text-anchor="middle" x="4331" y="-99.8" font-family="Times,serif" font-size="14.00">ApplicationLoadingComponent</text>
</g>
<!-- ApplicationLoadingComponent&#45;&gt;AppModule -->
<g id="edge3" class="edge">
<title>ApplicationLoadingComponent&#45;&gt;AppModule</title>
<path fill="none" stroke="black" d="M4331,-122.29C4331,-144.21 4331,-178 4331,-178 4331,-178 2424.8,-178 2424.8,-178"/>
<polygon fill="black" stroke="black" points="2424.8,-174.5 2414.8,-178 2424.8,-181.5 2424.8,-174.5"/>
</g>
<!-- AttendanceModule -->
<g id="node5" class="node">
<title>AttendanceModule</title>
<polygon fill="#8dd3c7" stroke="black" points="4215.8,-122 4212.8,-126 4191.8,-126 4188.8,-122 4092.2,-122 4092.2,-86 4215.8,-86 4215.8,-122"/>
<text text-anchor="middle" x="4154" y="-99.8" font-family="Times,serif" font-size="14.00">AttendanceModule</text>
</g>
<!-- AttendanceModule&#45;&gt;AppModule -->
<g id="edge4" class="edge">
<title>AttendanceModule&#45;&gt;AppModule</title>
<path fill="none" stroke="black" d="M4154,-122.17C4154,-143.5 4154,-176 4154,-176 4154,-176 2424.83,-176 2424.83,-176"/>
<polygon fill="black" stroke="black" points="2424.83,-172.5 2414.83,-176 2424.83,-179.5 2424.83,-172.5"/>
</g>
<!-- BirthdayDashboardWidgetModule -->
<g id="node6" class="node">
<title>BirthdayDashboardWidgetModule</title>
<polygon fill="#8dd3c7" stroke="black" points="4074.39,-122 4071.39,-126 4050.39,-126 4047.39,-122 3863.61,-122 3863.61,-86 4074.39,-86 4074.39,-122"/>
<text text-anchor="middle" x="3969" y="-99.8" font-family="Times,serif" font-size="14.00">BirthdayDashboardWidgetModule</text>
</g>
<!-- BirthdayDashboardWidgetModule&#45;&gt;AppModule -->
<g id="edge5" class="edge">
<title>BirthdayDashboardWidgetModule&#45;&gt;AppModule</title>
<path fill="none" stroke="black" d="M3969,-122.03C3969,-142.77 3969,-174 3969,-174 3969,-174 2424.87,-174 2424.87,-174"/>
<polygon fill="black" stroke="black" points="2424.87,-170.5 2414.87,-174 2424.87,-177.5 2424.87,-170.5"/>
</g>
<!-- ChildrenModule -->
<g id="node7" class="node">
<title>ChildrenModule</title>
<polygon fill="#8dd3c7" stroke="black" points="3846.04,-122 3843.04,-126 3822.04,-126 3819.04,-122 3737.96,-122 3737.96,-86 3846.04,-86 3846.04,-122"/>
<text text-anchor="middle" x="3792" y="-99.8" font-family="Times,serif" font-size="14.00">ChildrenModule</text>
</g>
<!-- ChildrenModule&#45;&gt;AppModule -->
<g id="edge6" class="edge">
<title>ChildrenModule&#45;&gt;AppModule</title>
<path fill="none" stroke="black" d="M3792,-122.22C3792,-142.37 3792,-172 3792,-172 3792,-172 2424.7,-172 2424.7,-172"/>
<polygon fill="black" stroke="black" points="2424.7,-168.5 2414.7,-172 2424.7,-175.5 2424.7,-168.5"/>
</g>
<!-- ConfigurableEnumModule -->
<g id="node8" class="node">
<title>ConfigurableEnumModule</title>
<polygon fill="#8dd3c7" stroke="black" points="3719.36,-122 3716.36,-126 3695.36,-126 3692.36,-122 3552.64,-122 3552.64,-86 3719.36,-86 3719.36,-122"/>
<text text-anchor="middle" x="3636" y="-99.8" font-family="Times,serif" font-size="14.00">ConfigurableEnumModule</text>
</g>
<!-- ConfigurableEnumModule&#45;&gt;AppModule -->
<g id="edge7" class="edge">
<title>ConfigurableEnumModule&#45;&gt;AppModule</title>
<path fill="none" stroke="black" d="M3636,-122.11C3636,-141.34 3636,-169 3636,-169 3636,-169 2424.66,-169 2424.66,-169"/>
<polygon fill="black" stroke="black" points="2424.66,-165.5 2414.66,-169 2424.66,-172.5 2424.66,-165.5"/>
</g>
<!-- CoreModule -->
<g id="node9" class="node">
<title>CoreModule</title>
<polygon fill="#8dd3c7" stroke="black" points="3534.26,-122 3531.26,-126 3510.26,-126 3507.26,-122 3447.74,-122 3447.74,-86 3534.26,-86 3534.26,-122"/>
<text text-anchor="middle" x="3491" y="-99.8" font-family="Times,serif" font-size="14.00">CoreModule</text>
</g>
<!-- CoreModule&#45;&gt;AppModule -->
<g id="edge8" class="edge">
<title>CoreModule&#45;&gt;AppModule</title>
<path fill="none" stroke="black" d="M3491,-122.22C3491,-140.83 3491,-167 3491,-167 3491,-167 2424.79,-167 2424.79,-167"/>
<polygon fill="black" stroke="black" points="2424.79,-163.5 2414.79,-167 2424.79,-170.5 2424.79,-163.5"/>
</g>
<!-- DashboardModule -->
<g id="node10" class="node">
<title>DashboardModule</title>
<polygon fill="#8dd3c7" stroke="black" points="3430.19,-122 3427.19,-126 3406.19,-126 3403.19,-122 3309.81,-122 3309.81,-86 3430.19,-86 3430.19,-122"/>
<text text-anchor="middle" x="3370" y="-99.8" font-family="Times,serif" font-size="14.00">DashboardModule</text>
</g>
<!-- DashboardModule&#45;&gt;AppModule -->
<g id="edge9" class="edge">
<title>DashboardModule&#45;&gt;AppModule</title>
<path fill="none" stroke="black" d="M3370,-122.3C3370,-140.27 3370,-165 3370,-165 3370,-165 2424.89,-165 2424.89,-165"/>
<polygon fill="black" stroke="black" points="2424.89,-161.5 2414.89,-165 2424.89,-168.5 2424.89,-161.5"/>
</g>
<!-- DemoDataModule -->
<g id="node11" class="node">
<title>DemoDataModule</title>
<polygon fill="#8dd3c7" stroke="black" points="3292.19,-122 3289.19,-126 3268.19,-126 3265.19,-122 3171.81,-122 3171.81,-86 3292.19,-86 3292.19,-122"/>
<text text-anchor="middle" x="3232" y="-99.8" font-family="Times,serif" font-size="14.00">DemoDataModule</text>
</g>
<!-- DemoDataModule&#45;&gt;AppModule -->
<g id="edge10" class="edge">
<title>DemoDataModule&#45;&gt;AppModule</title>
<path fill="none" stroke="black" d="M3232,-122.02C3232,-139.37 3232,-163 3232,-163 3232,-163 2424.72,-163 2424.72,-163"/>
<polygon fill="black" stroke="black" points="2424.72,-159.5 2414.72,-163 2424.72,-166.5 2424.72,-159.5"/>
</g>
<!-- EmailClientServiceModule -->
<g id="node12" class="node">
<title>EmailClientServiceModule</title>
<polygon fill="#8dd3c7" stroke="black" points="3153.69,-122 3150.69,-126 3129.69,-126 3126.69,-122 2984.31,-122 2984.31,-86 3153.69,-86 3153.69,-122"/>
<text text-anchor="middle" x="3069" y="-99.8" font-family="Times,serif" font-size="14.00">EmailClientServiceModule</text>
</g>
<!-- EmailClientServiceModule&#45;&gt;AppModule -->
<g id="edge11" class="edge">
<title>EmailClientServiceModule&#45;&gt;AppModule</title>
<path fill="none" stroke="black" d="M3069,-122.03C3069,-138.4 3069,-160 3069,-160 3069,-160 2424.71,-160 2424.71,-160"/>
<polygon fill="black" stroke="black" points="2424.71,-156.5 2414.71,-160 2424.71,-163.5 2424.71,-156.5"/>
</g>
<!-- EntityCountDashboardWidgetModule -->
<g id="node13" class="node">
<title>EntityCountDashboardWidgetModule</title>
<polygon fill="#8dd3c7" stroke="black" points="2965.85,-122 2962.85,-126 2941.85,-126 2938.85,-122 2736.15,-122 2736.15,-86 2965.85,-86 2965.85,-122"/>
<text text-anchor="middle" x="2851" y="-99.8" font-family="Times,serif" font-size="14.00">EntityCountDashboardWidgetModule</text>
</g>
<!-- EntityCountDashboardWidgetModule&#45;&gt;AppModule -->
<g id="edge12" class="edge">
<title>EntityCountDashboardWidgetModule&#45;&gt;AppModule</title>
<path fill="none" stroke="black" d="M2851,-122.28C2851,-137.95 2851,-158 2851,-158 2851,-158 2425,-158 2425,-158"/>
<polygon fill="black" stroke="black" points="2425,-154.5 2415,-158 2425,-161.5 2425,-154.5"/>
</g>
<!-- FileModule -->
<g id="node14" class="node">
<title>FileModule</title>
<polygon fill="#8dd3c7" stroke="black" points="2717.83,-122 2714.83,-126 2693.83,-126 2690.83,-122 2636.17,-122 2636.17,-86 2717.83,-86 2717.83,-122"/>
<text text-anchor="middle" x="2677" y="-99.8" font-family="Times,serif" font-size="14.00">FileModule</text>
</g>
<!-- FileModule&#45;&gt;AppModule -->
<g id="edge13" class="edge">
<title>FileModule&#45;&gt;AppModule</title>
<path fill="none" stroke="black" d="M2677,-122.19C2677,-137.18 2677,-156 2677,-156 2677,-156 2424.95,-156 2424.95,-156"/>
<polygon fill="black" stroke="black" points="2424.95,-152.5 2414.95,-156 2424.95,-159.5 2424.95,-152.5"/>
</g>
<!-- ImportModule -->
<g id="node15" class="node">
<title>ImportModule</title>
<polygon fill="#8dd3c7" stroke="black" points="2618.65,-122 2615.65,-126 2594.65,-126 2591.65,-122 2521.35,-122 2521.35,-86 2618.65,-86 2618.65,-122"/>
<text text-anchor="middle" x="2570" y="-99.8" font-family="Times,serif" font-size="14.00">ImportModule</text>
</g>
<!-- ImportModule&#45;&gt;AppModule -->
<g id="edge14" class="edge">
<title>ImportModule&#45;&gt;AppModule</title>
<path fill="none" stroke="black" d="M2570,-122.05C2570,-136.37 2570,-154 2570,-154 2570,-154 2424.78,-154 2424.78,-154"/>
<polygon fill="black" stroke="black" points="2424.78,-150.5 2414.78,-154 2424.78,-157.5 2424.78,-150.5"/>
</g>
<!-- LanguageModule -->
<g id="node16" class="node">
<title>LanguageModule</title>
<polygon fill="#8dd3c7" stroke="black" points="2503.25,-122 2500.25,-126 2479.25,-126 2476.25,-122 2388.75,-122 2388.75,-86 2503.25,-86 2503.25,-122"/>
<text text-anchor="middle" x="2446" y="-99.8" font-family="Times,serif" font-size="14.00">LanguageModule</text>
</g>
<!-- LanguageModule&#45;&gt;AppModule -->
<g id="edge15" class="edge">
<title>LanguageModule&#45;&gt;AppModule</title>
<path fill="none" stroke="black" d="M2401.73,-122.11C2401.73,-122.11 2401.73,-140.99 2401.73,-140.99"/>
<polygon fill="black" stroke="black" points="2398.23,-140.99 2401.73,-150.99 2405.23,-140.99 2398.23,-140.99"/>
</g>
<!-- LatestChangesModule -->
<g id="node17" class="node">
<title>LatestChangesModule</title>
<polygon fill="#8dd3c7" stroke="black" points="2370.97,-122 2367.97,-126 2346.97,-126 2343.97,-122 2229.03,-122 2229.03,-86 2370.97,-86 2370.97,-122"/>
<text text-anchor="middle" x="2300" y="-99.8" font-family="Times,serif" font-size="14.00">LatestChangesModule</text>
</g>
<!-- LatestChangesModule&#45;&gt;AppModule -->
<g id="edge16" class="edge">
<title>LatestChangesModule&#45;&gt;AppModule</title>
<path fill="none" stroke="black" d="M2351.08,-122.11C2351.08,-122.11 2351.08,-140.99 2351.08,-140.99"/>
<polygon fill="black" stroke="black" points="2347.58,-140.99 2351.08,-150.99 2354.58,-140.99 2347.58,-140.99"/>
</g>
<!-- LocationModule -->
<g id="node18" class="node">
<title>LocationModule</title>
<polygon fill="#8dd3c7" stroke="black" points="2210.81,-122 2207.81,-126 2186.81,-126 2183.81,-122 2101.19,-122 2101.19,-86 2210.81,-86 2210.81,-122"/>
<text text-anchor="middle" x="2156" y="-99.8" font-family="Times,serif" font-size="14.00">LocationModule</text>
</g>
<!-- LocationModule&#45;&gt;AppModule -->
<g id="edge17" class="edge">
<title>LocationModule&#45;&gt;AppModule</title>
<path fill="none" stroke="black" d="M2156,-122.05C2156,-136.37 2156,-154 2156,-154 2156,-154 2321.16,-154 2321.16,-154"/>
<polygon fill="black" stroke="black" points="2321.16,-157.5 2331.16,-154 2321.16,-150.5 2321.16,-157.5"/>
</g>
<!-- MarkdownPageModule -->
<g id="node19" class="node">
<title>MarkdownPageModule</title>
<polygon fill="#8dd3c7" stroke="black" points="2083.19,-122 2080.19,-126 2059.19,-126 2056.19,-122 1934.81,-122 1934.81,-86 2083.19,-86 2083.19,-122"/>
<text text-anchor="middle" x="2009" y="-99.8" font-family="Times,serif" font-size="14.00">MarkdownPageModule</text>
</g>
<!-- MarkdownPageModule&#45;&gt;AppModule -->
<g id="edge18" class="edge">
<title>MarkdownPageModule&#45;&gt;AppModule</title>
<path fill="none" stroke="black" d="M2009,-122.19C2009,-137.18 2009,-156 2009,-156 2009,-156 2321.24,-156 2321.24,-156"/>
<polygon fill="black" stroke="black" points="2321.24,-159.5 2331.24,-156 2321.24,-152.5 2321.24,-159.5"/>
</g>
<!-- MatchingEntitiesModule -->
<g id="node20" class="node">
<title>MatchingEntitiesModule</title>
<polygon fill="#8dd3c7" stroke="black" points="1916.98,-122 1913.98,-126 1892.98,-126 1889.98,-122 1761.02,-122 1761.02,-86 1916.98,-86 1916.98,-122"/>
<text text-anchor="middle" x="1839" y="-99.8" font-family="Times,serif" font-size="14.00">MatchingEntitiesModule</text>
</g>
<!-- MatchingEntitiesModule&#45;&gt;AppModule -->
<g id="edge19" class="edge">
<title>MatchingEntitiesModule&#45;&gt;AppModule</title>
<path fill="none" stroke="black" d="M1839,-122.28C1839,-137.95 1839,-158 1839,-158 1839,-158 2321.1,-158 2321.1,-158"/>
<polygon fill="black" stroke="black" points="2321.1,-161.5 2331.1,-158 2321.1,-154.5 2321.1,-161.5"/>
</g>
<!-- NotesModule -->
<g id="node21" class="node">
<title>NotesModule</title>
<polygon fill="#8dd3c7" stroke="black" points="1743.21,-122 1740.21,-126 1719.21,-126 1716.21,-122 1650.79,-122 1650.79,-86 1743.21,-86 1743.21,-122"/>
<text text-anchor="middle" x="1697" y="-99.8" font-family="Times,serif" font-size="14.00">NotesModule</text>
</g>
<!-- NotesModule&#45;&gt;AppModule -->
<g id="edge20" class="edge">
<title>NotesModule&#45;&gt;AppModule</title>
<path fill="none" stroke="black" d="M1697,-122.03C1697,-138.4 1697,-160 1697,-160 1697,-160 2321.22,-160 2321.22,-160"/>
<polygon fill="black" stroke="black" points="2321.22,-163.5 2331.22,-160 2321.22,-156.5 2321.22,-163.5"/>
</g>
<!-- PermissionsModule -->
<g id="node22" class="node">
<title>PermissionsModule</title>
<polygon fill="#8dd3c7" stroke="black" points="1632.71,-122 1629.71,-126 1608.71,-126 1605.71,-122 1505.29,-122 1505.29,-86 1632.71,-86 1632.71,-122"/>
<text text-anchor="middle" x="1569" y="-99.8" font-family="Times,serif" font-size="14.00">PermissionsModule</text>
</g>
<!-- PermissionsModule&#45;&gt;AppModule -->
<g id="edge21" class="edge">
<title>PermissionsModule&#45;&gt;AppModule</title>
<path fill="none" stroke="black" d="M1569,-122.02C1569,-139.37 1569,-163 1569,-163 1569,-163 2321.19,-163 2321.19,-163"/>
<polygon fill="black" stroke="black" points="2321.19,-166.5 2331.19,-163 2321.19,-159.5 2321.19,-166.5"/>
</g>
<!-- ProgressDashboardWidgetModule -->
<g id="node23" class="node">
<title>ProgressDashboardWidgetModule</title>
<polygon fill="#8dd3c7" stroke="black" points="1487.61,-122 1484.61,-126 1463.61,-126 1460.61,-122 1278.39,-122 1278.39,-86 1487.61,-86 1487.61,-122"/>
<text text-anchor="middle" x="1383" y="-99.8" font-family="Times,serif" font-size="14.00">ProgressDashboardWidgetModule</text>
</g>
<!-- ProgressDashboardWidgetModule&#45;&gt;AppModule -->
<g id="edge22" class="edge">
<title>ProgressDashboardWidgetModule&#45;&gt;AppModule</title>
<path fill="none" stroke="black" d="M1383,-122.3C1383,-140.27 1383,-165 1383,-165 1383,-165 2321.09,-165 2321.09,-165"/>
<polygon fill="black" stroke="black" points="2321.09,-168.5 2331.09,-165 2321.09,-161.5 2321.09,-168.5"/>
</g>
<!-- PublicFormModule -->
<g id="node24" class="node">
<title>PublicFormModule</title>
<polygon fill="#8dd3c7" stroke="black" points="1259.66,-122 1256.66,-126 1235.66,-126 1232.66,-122 1134.34,-122 1134.34,-86 1259.66,-86 1259.66,-122"/>
<text text-anchor="middle" x="1197" y="-99.8" font-family="Times,serif" font-size="14.00">PublicFormModule</text>
</g>
<!-- PublicFormModule&#45;&gt;AppModule -->
<g id="edge23" class="edge">
<title>PublicFormModule&#45;&gt;AppModule</title>
<path fill="none" stroke="black" d="M1197,-122.22C1197,-140.83 1197,-167 1197,-167 1197,-167 2321.15,-167 2321.15,-167"/>
<polygon fill="black" stroke="black" points="2321.15,-170.5 2331.15,-167 2321.15,-163.5 2321.15,-170.5"/>
</g>
<!-- ReportingModule -->
<g id="node25" class="node">
<title>ReportingModule</title>
<polygon fill="#8dd3c7" stroke="black" points="1115.54,-122 1112.54,-126 1091.54,-126 1088.54,-122 1000.46,-122 1000.46,-86 1115.54,-86 1115.54,-122"/>
<text text-anchor="middle" x="1058" y="-99.8" font-family="Times,serif" font-size="14.00">ReportingModule</text>
</g>
<!-- ReportingModule&#45;&gt;AppModule -->
<g id="edge24" class="edge">
<title>ReportingModule&#45;&gt;AppModule</title>
<path fill="none" stroke="black" d="M1058,-122.11C1058,-141.34 1058,-169 1058,-169 1058,-169 2321.11,-169 2321.11,-169"/>
<polygon fill="black" stroke="black" points="2321.11,-172.5 2331.11,-169 2321.11,-165.5 2321.11,-172.5"/>
</g>
<!-- SessionModule -->
<g id="node26" class="node">
<title>SessionModule</title>
<polygon fill="#8dd3c7" stroke="black" points="982.33,-122 979.33,-126 958.33,-126 955.33,-122 879.67,-122 879.67,-86 982.33,-86 982.33,-122"/>
<text text-anchor="middle" x="931" y="-99.8" font-family="Times,serif" font-size="14.00">SessionModule</text>
</g>
<!-- SessionModule&#45;&gt;AppModule -->
<g id="edge25" class="edge">
<title>SessionModule&#45;&gt;AppModule</title>
<path fill="none" stroke="black" d="M931,-122.22C931,-142.37 931,-172 931,-172 931,-172 2321.01,-172 2321.01,-172"/>
<polygon fill="black" stroke="black" points="2321.01,-175.5 2331.01,-172 2321.01,-168.5 2321.01,-175.5"/>
</g>
<!-- ShortcutDashboardWidgetModule -->
<g id="node27" class="node">
<title>ShortcutDashboardWidgetModule</title>
<polygon fill="#8dd3c7" stroke="black" points="861.34,-122 858.34,-126 837.34,-126 834.34,-122 652.66,-122 652.66,-86 861.34,-86 861.34,-122"/>
<text text-anchor="middle" x="757" y="-99.8" font-family="Times,serif" font-size="14.00">ShortcutDashboardWidgetModule</text>
</g>
<!-- ShortcutDashboardWidgetModule&#45;&gt;AppModule -->
<g id="edge26" class="edge">
<title>ShortcutDashboardWidgetModule&#45;&gt;AppModule</title>
<path fill="none" stroke="black" d="M757,-122.03C757,-142.77 757,-174 757,-174 757,-174 2321.02,-174 2321.02,-174"/>
<polygon fill="black" stroke="black" points="2321.02,-177.5 2331.02,-174 2321.02,-170.5 2321.02,-177.5"/>
</g>
<!-- SkillModule -->
<g id="node28" class="node">
<title>SkillModule</title>
<polygon fill="#8dd3c7" stroke="black" points="635,-122 632,-126 611,-126 608,-122 549,-122 549,-86 635,-86 635,-122"/>
<text text-anchor="middle" x="592" y="-99.8" font-family="Times,serif" font-size="14.00">SkillModule</text>
</g>
<!-- SkillModule&#45;&gt;AppModule -->
<g id="edge27" class="edge">
<title>SkillModule&#45;&gt;AppModule</title>
<path fill="none" stroke="black" d="M592,-122.17C592,-143.5 592,-176 592,-176 592,-176 2321.17,-176 2321.17,-176"/>
<polygon fill="black" stroke="black" points="2321.17,-179.5 2331.17,-176 2321.17,-172.5 2321.17,-179.5"/>
</g>
<!-- TemplateExportModule -->
<g id="node29" class="node">
<title>TemplateExportModule</title>
<polygon fill="#8dd3c7" stroke="black" points="531.02,-122 528.02,-126 507.02,-126 504.02,-122 380.98,-122 380.98,-86 531.02,-86 531.02,-122"/>
<text text-anchor="middle" x="456" y="-99.8" font-family="Times,serif" font-size="14.00">TemplateExportModule</text>
</g>
<!-- TemplateExportModule&#45;&gt;AppModule -->
<g id="edge28" class="edge">
<title>TemplateExportModule&#45;&gt;AppModule</title>
<path fill="none" stroke="black" d="M456,-122.29C456,-144.21 456,-178 456,-178 456,-178 2321.18,-178 2321.18,-178"/>
<polygon fill="black" stroke="black" points="2321.18,-181.5 2331.18,-178 2321.18,-174.5 2321.18,-181.5"/>
</g>
<!-- TodosModule -->
<g id="node30" class="node">
<title>TodosModule</title>
<polygon fill="#8dd3c7" stroke="black" points="362.05,-122 359.05,-126 338.05,-126 335.05,-122 267.95,-122 267.95,-86 362.05,-86 362.05,-122"/>
<text text-anchor="middle" x="315" y="-99.8" font-family="Times,serif" font-size="14.00">TodosModule</text>
</g>
<!-- TodosModule&#45;&gt;AppModule -->
<g id="edge29" class="edge">
<title>TodosModule&#45;&gt;AppModule</title>
<path fill="none" stroke="black" d="M315,-122.25C315,-145.02 315,-181 315,-181 315,-181 2320.96,-181 2320.96,-181"/>
<polygon fill="black" stroke="black" points="2320.96,-184.5 2330.96,-181 2320.96,-177.5 2320.96,-184.5"/>
</g>
<!-- UiComponent -->
<g id="node31" class="node">
<title>UiComponent</title>
<polygon fill="#8dd3c7" stroke="black" points="249.83,-122 246.83,-126 225.83,-126 222.83,-122 154.17,-122 154.17,-86 249.83,-86 249.83,-122"/>
<text text-anchor="middle" x="202" y="-99.8" font-family="Times,serif" font-size="14.00">UiComponent</text>
</g>
<!-- UiComponent&#45;&gt;AppModule -->
<g id="edge30" class="edge">
<title>UiComponent&#45;&gt;AppModule</title>
<path fill="none" stroke="black" d="M202,-122.32C202,-145.66 202,-183 202,-183 202,-183 2321.09,-183 2321.09,-183"/>
<polygon fill="black" stroke="black" points="2321.09,-186.5 2331.09,-183 2321.09,-179.5 2321.09,-186.5"/>
</g>
<!-- AnalyticsService -->
<g id="node33" class="node">
<title>AnalyticsService</title>
<ellipse fill="#fdb462" stroke="black" cx="4837" cy="-104" rx="77" ry="18"/>
<text text-anchor="middle" x="4837" y="-99.8" font-family="Times,serif" font-size="14.00">AnalyticsService</text>
</g>
<!-- AnalyticsService&#45;&gt;AppModule -->
<g id="edge32" class="edge">
<title>AnalyticsService&#45;&gt;AppModule</title>
<path fill="none" stroke="black" d="M4837,-122.38C4837,-146.28 4837,-185 4837,-185 4837,-185 2424.73,-185 2424.73,-185"/>
<polygon fill="black" stroke="black" points="2424.73,-181.5 2414.73,-185 2424.73,-188.5 2424.73,-181.5"/>
</g>
<!-- NotificationService -->
<g id="node34" class="node">
<title>NotificationService</title>
<ellipse fill="#fdb462" stroke="black" cx="4655" cy="-104" rx="86.81" ry="18"/>
<text text-anchor="middle" x="4655" y="-99.8" font-family="Times,serif" font-size="14.00">NotificationService</text>
</g>
<!-- NotificationService&#45;&gt;AppModule -->
<g id="edge33" class="edge">
<title>NotificationService&#45;&gt;AppModule</title>
<path fill="none" stroke="black" d="M4655,-122.32C4655,-145.66 4655,-183 4655,-183 4655,-183 2425.05,-183 2425.05,-183"/>
<polygon fill="black" stroke="black" points="2425.05,-179.5 2415.05,-183 2425.05,-186.5 2425.05,-179.5"/>
</g>
</g>
</svg>
