<?xml version="1.0" encoding="UTF-8" standalone="no"?>
<!DOCTYPE svg PUBLIC "-//W3C//DTD SVG 1.1//EN"
 "http://www.w3.org/Graphics/SVG/1.1/DTD/svg11.dtd">
<!-- Generated by graphviz version 2.47.0 (20210316.0004)
 -->
<!-- Title: dependencies Pages: 1 -->
<svg width="5722pt" height="284pt"
 viewBox="0.00 0.00 5722.00 284.00" xmlns="http://www.w3.org/2000/svg" xmlns:xlink="http://www.w3.org/1999/xlink">
<g id="graph0" class="graph" transform="scale(1 1) rotate(0) translate(4 280)">
<title>dependencies</title>
<polygon fill="white" stroke="transparent" points="-4,4 -4,-280 5718,-280 5718,4 -4,4"/>
<text text-anchor="start" x="2836.01" y="-42.4" font-family="Times-12" font-weight="bold" font-size="14.00">Legend</text>
<polygon fill="#ffffb3" stroke="transparent" points="2623,-10 2623,-30 2643,-30 2643,-10 2623,-10"/>
<text text-anchor="start" x="2646.63" y="-15.4" font-family="Times-12" font-size="14.00"> &#160;Declarations</text>
<polygon fill="#8dd3c7" stroke="transparent" points="2736,-10 2736,-30 2756,-30 2756,-10 2736,-10"/>
<text text-anchor="start" x="2759.73" y="-15.4" font-family="Times-12" font-size="14.00"> &#160;Module</text>
<polygon fill="#80b1d3" stroke="transparent" points="2822,-10 2822,-30 2842,-30 2842,-10 2822,-10"/>
<text text-anchor="start" x="2845.78" y="-15.4" font-family="Times-12" font-size="14.00"> &#160;Bootstrap</text>
<polygon fill="#fdb462" stroke="transparent" points="2919,-10 2919,-30 2939,-30 2939,-10 2919,-10"/>
<text text-anchor="start" x="2942.67" y="-15.4" font-family="Times-12" font-size="14.00"> &#160;Providers</text>
<polygon fill="#fb8072" stroke="transparent" points="3015,-10 3015,-30 3035,-30 3035,-10 3015,-10"/>
<text text-anchor="start" x="3038.73" y="-15.4" font-family="Times-12" font-size="14.00"> &#160;Exports</text>
<g id="clust1" class="cluster">
<title>cluster_AppModule</title>
<polygon fill="none" stroke="black" stroke-dasharray="1,5" points="8,-70 8,-268 5706,-268 5706,-70 8,-70"/>
</g>
<g id="clust6" class="cluster">
<title>cluster_AppModule_bootstrap</title>
<polygon fill="none" stroke="black" points="2878,-208 2878,-260 3002,-260 3002,-208 2878,-208"/>
</g>
<g id="clust4" class="cluster">
<title>cluster_AppModule_imports</title>
<polygon fill="none" stroke="black" points="1004,-78 1004,-130 5698,-130 5698,-78 1004,-78"/>
</g>
<g id="clust7" class="cluster">
<title>cluster_AppModule_providers</title>
<polygon fill="none" stroke="black" points="146,-78 146,-130 996,-130 996,-78 146,-78"/>
</g>
<g id="clust2" class="cluster">
<title>cluster_AppModule_declarations</title>
<polygon fill="none" stroke="black" points="16,-78 16,-130 138,-130 138,-78 16,-78"/>
</g>
<!-- AppComponent -->
<g id="node1" class="node">
<title>AppComponent</title>
<polygon fill="#ffffb3" stroke="black" points="129.94,-122 24.06,-122 24.06,-86 129.94,-86 129.94,-122"/>
<text text-anchor="middle" x="77" y="-99.8" font-family="Times,serif" font-size="14.00">AppComponent</text>
</g>
<!-- AppModule -->
<g id="node2" class="node">
<title>AppModule</title>
<polygon fill="#8dd3c7" stroke="black" points="2981.66,-187 2978.66,-191 2957.66,-191 2954.66,-187 2898.34,-187 2898.34,-151 2981.66,-151 2981.66,-187"/>
<text text-anchor="middle" x="2940" y="-164.8" font-family="Times,serif" font-size="14.00">AppModule</text>
</g>
<!-- AppComponent&#45;&gt;AppModule -->
<g id="edge1" class="edge">
<title>AppComponent&#45;&gt;AppModule</title>
<path fill="none" stroke="black" d="M77,-122.38C77,-146.28 77,-185 77,-185 77,-185 2888.15,-185 2888.15,-185"/>
<polygon fill="black" stroke="black" points="2888.15,-188.5 2898.15,-185 2888.15,-181.5 2888.15,-188.5"/>
</g>
<!-- AppComponent  -->
<g id="node34" class="node">
<title>AppComponent </title>
<polygon fill="#80b1d3" stroke="black" points="2994.44,-252 2885.56,-252 2885.56,-216 2994.44,-216 2994.44,-252"/>
<text text-anchor="middle" x="2940" y="-229.8" font-family="Times,serif" font-size="14.00">AppComponent </text>
</g>
<!-- AppModule&#45;&gt;AppComponent  -->
<g id="edge33" class="edge">
<title>AppModule&#45;&gt;AppComponent </title>
<path fill="none" stroke="black" stroke-dasharray="1,5" d="M2940,-187.11C2940,-187.11 2940,-205.99 2940,-205.99"/>
<polygon fill="black" stroke="black" points="2936.5,-205.99 2940,-215.99 2943.5,-205.99 2936.5,-205.99"/>
</g>
<!-- AdminModule -->
<g id="node3" class="node">
<title>AdminModule</title>
<polygon fill="#8dd3c7" stroke="black" points="5690.44,-122 5687.44,-126 5666.44,-126 5663.44,-122 5591.56,-122 5591.56,-86 5690.44,-86 5690.44,-122"/>
<text text-anchor="middle" x="5641" y="-99.8" font-family="Times,serif" font-size="14.00">AdminModule</text>
</g>
<!-- AdminModule&#45;&gt;AppModule -->
<g id="edge2" class="edge">
<title>AdminModule&#45;&gt;AppModule</title>
<path fill="none" stroke="black" d="M5641,-122.38C5641,-146.28 5641,-185 5641,-185 5641,-185 2991.88,-185 2991.88,-185"/>
<polygon fill="black" stroke="black" points="2991.88,-181.5 2981.88,-185 2991.88,-188.5 2991.88,-181.5"/>
</g>
<!-- ApplicationLoadingComponent -->
<g id="node4" class="node">
<title>ApplicationLoadingComponent</title>
<polygon fill="#8dd3c7" stroke="black" points="5574.09,-122 5571.09,-126 5550.09,-126 5547.09,-122 5379.91,-122 5379.91,-86 5574.09,-86 5574.09,-122"/>
<text text-anchor="middle" x="5477" y="-99.8" font-family="Times,serif" font-size="14.00">ApplicationLoadingComponent</text>
</g>
<!-- ApplicationLoadingComponent&#45;&gt;AppModule -->
<g id="edge3" class="edge">
<title>ApplicationLoadingComponent&#45;&gt;AppModule</title>
<path fill="none" stroke="black" d="M5477,-122.32C5477,-145.66 5477,-183 5477,-183 5477,-183 2991.92,-183 2991.92,-183"/>
<polygon fill="black" stroke="black" points="2991.92,-179.5 2981.92,-183 2991.92,-186.5 2991.92,-179.5"/>
</g>
<!-- AttendanceModule -->
<g id="node5" class="node">
<title>AttendanceModule</title>
<polygon fill="#8dd3c7" stroke="black" points="5361.8,-122 5358.8,-126 5337.8,-126 5334.8,-122 5238.2,-122 5238.2,-86 5361.8,-86 5361.8,-122"/>
<text text-anchor="middle" x="5300" y="-99.8" font-family="Times,serif" font-size="14.00">AttendanceModule</text>
</g>
<!-- AttendanceModule&#45;&gt;AppModule -->
<g id="edge4" class="edge">
<title>AttendanceModule&#45;&gt;AppModule</title>
<path fill="none" stroke="black" d="M5300,-122.25C5300,-145.02 5300,-181 5300,-181 5300,-181 2991.71,-181 2991.71,-181"/>
<polygon fill="black" stroke="black" points="2991.71,-177.5 2981.71,-181 2991.71,-184.5 2991.71,-177.5"/>
</g>
<!-- BirthdayDashboardWidgetModule -->
<g id="node6" class="node">
<title>BirthdayDashboardWidgetModule</title>
<polygon fill="#8dd3c7" stroke="black" points="5220.39,-122 5217.39,-126 5196.39,-126 5193.39,-122 5009.61,-122 5009.61,-86 5220.39,-86 5220.39,-122"/>
<text text-anchor="middle" x="5115" y="-99.8" font-family="Times,serif" font-size="14.00">BirthdayDashboardWidgetModule</text>
</g>
<!-- BirthdayDashboardWidgetModule&#45;&gt;AppModule -->
<g id="edge5" class="edge">
<title>BirthdayDashboardWidgetModule&#45;&gt;AppModule</title>
<path fill="none" stroke="black" d="M5115,-122.16C5115,-144.35 5115,-179 5115,-179 5115,-179 2991.99,-179 2991.99,-179"/>
<polygon fill="black" stroke="black" points="2991.99,-175.5 2981.99,-179 2991.99,-182.5 2991.99,-175.5"/>
</g>
<!-- BulkEditModule -->
<g id="node7" class="node">
<title>BulkEditModule</title>
<polygon fill="#8dd3c7" stroke="black" points="4992.11,-122 4989.11,-126 4968.11,-126 4965.11,-122 4881.89,-122 4881.89,-86 4992.11,-86 4992.11,-122"/>
<text text-anchor="middle" x="4937" y="-99.8" font-family="Times,serif" font-size="14.00">BulkEditModule</text>
</g>
<!-- BulkEditModule&#45;&gt;AppModule -->
<g id="edge6" class="edge">
<title>BulkEditModule&#45;&gt;AppModule</title>
<path fill="none" stroke="black" d="M4937,-122.04C4937,-143.66 4937,-177 4937,-177 4937,-177 2991.71,-177 2991.71,-177"/>
<polygon fill="black" stroke="black" points="2991.71,-173.5 2981.71,-177 2991.71,-180.5 2991.71,-173.5"/>
</g>
<!-- ChildrenModule -->
<g id="node8" class="node">
<title>ChildrenModule</title>
<polygon fill="#8dd3c7" stroke="black" points="4864.04,-122 4861.04,-126 4840.04,-126 4837.04,-122 4755.96,-122 4755.96,-86 4864.04,-86 4864.04,-122"/>
<text text-anchor="middle" x="4810" y="-99.8" font-family="Times,serif" font-size="14.00">ChildrenModule</text>
</g>
<!-- ChildrenModule&#45;&gt;AppModule -->
<g id="edge7" class="edge">
<title>ChildrenModule&#45;&gt;AppModule</title>
<path fill="none" stroke="black" d="M4810,-122.28C4810,-143.32 4810,-175 4810,-175 4810,-175 2991.68,-175 2991.68,-175"/>
<polygon fill="black" stroke="black" points="2991.68,-171.5 2981.68,-175 2991.68,-178.5 2991.68,-171.5"/>
</g>
<!-- ConfigurableEnumModule -->
<g id="node9" class="node">
<title>ConfigurableEnumModule</title>
<polygon fill="#8dd3c7" stroke="black" points="4737.36,-122 4734.36,-126 4713.36,-126 4710.36,-122 4570.64,-122 4570.64,-86 4737.36,-86 4737.36,-122"/>
<text text-anchor="middle" x="4654" y="-99.8" font-family="Times,serif" font-size="14.00">ConfigurableEnumModule</text>
</g>
<!-- ConfigurableEnumModule&#45;&gt;AppModule -->
<g id="edge8" class="edge">
<title>ConfigurableEnumModule&#45;&gt;AppModule</title>
<path fill="none" stroke="black" d="M4654,-122.13C4654,-142.57 4654,-173 4654,-173 4654,-173 2991.94,-173 2991.94,-173"/>
<polygon fill="black" stroke="black" points="2991.94,-169.5 2981.94,-173 2991.94,-176.5 2991.94,-169.5"/>
</g>
<!-- CoreModule -->
<g id="node10" class="node">
<title>CoreModule</title>
<polygon fill="#8dd3c7" stroke="black" points="4552.26,-122 4549.26,-126 4528.26,-126 4525.26,-122 4465.74,-122 4465.74,-86 4552.26,-86 4552.26,-122"/>
<text text-anchor="middle" x="4509" y="-99.8" font-family="Times,serif" font-size="14.00">CoreModule</text>
</g>
<!-- CoreModule&#45;&gt;AppModule -->
<g id="edge9" class="edge">
<title>CoreModule&#45;&gt;AppModule</title>
<path fill="none" stroke="black" d="M4509,-122.31C4509,-142.15 4509,-171 4509,-171 4509,-171 2991.97,-171 2991.97,-171"/>
<polygon fill="black" stroke="black" points="2991.97,-167.5 2981.97,-171 2991.97,-174.5 2991.97,-167.5"/>
</g>
<!-- DashboardModule -->
<g id="node11" class="node">
<title>DashboardModule</title>
<polygon fill="#8dd3c7" stroke="black" points="4448.19,-122 4445.19,-126 4424.19,-126 4421.19,-122 4327.81,-122 4327.81,-86 4448.19,-86 4448.19,-122"/>
<text text-anchor="middle" x="4388" y="-99.8" font-family="Times,serif" font-size="14.00">DashboardModule</text>
</g>
<!-- DashboardModule&#45;&gt;AppModule -->
<g id="edge10" class="edge">
<title>DashboardModule&#45;&gt;AppModule</title>
<path fill="none" stroke="black" d="M4388,-122.11C4388,-141.34 4388,-169 4388,-169 4388,-169 2991.77,-169 2991.77,-169"/>
<polygon fill="black" stroke="black" points="2991.77,-165.5 2981.77,-169 2991.77,-172.5 2991.77,-165.5"/>
</g>
<!-- DeDuplicationModule -->
<g id="node12" class="node">
<title>DeDuplicationModule</title>
<polygon fill="#8dd3c7" stroke="black" points="4309.97,-122 4306.97,-126 4285.97,-126 4282.97,-122 4168.03,-122 4168.03,-86 4309.97,-86 4309.97,-122"/>
<text text-anchor="middle" x="4239" y="-99.8" font-family="Times,serif" font-size="14.00">DeDuplicationModule</text>
</g>
<!-- DeDuplicationModule&#45;&gt;AppModule -->
<g id="edge11" class="edge">
<title>DeDuplicationModule&#45;&gt;AppModule</title>
<path fill="none" stroke="black" d="M4239,-122.22C4239,-140.83 4239,-167 4239,-167 4239,-167 2991.75,-167 2991.75,-167"/>
<polygon fill="black" stroke="black" points="2991.75,-163.5 2981.75,-167 2991.75,-170.5 2991.75,-163.5"/>
</g>
<!-- DemoDataModule -->
<g id="node13" class="node">
<title>DemoDataModule</title>
<polygon fill="#8dd3c7" stroke="black" points="4150.19,-122 4147.19,-126 4126.19,-126 4123.19,-122 4029.81,-122 4029.81,-86 4150.19,-86 4150.19,-122"/>
<text text-anchor="middle" x="4090" y="-99.8" font-family="Times,serif" font-size="14.00">DemoDataModule</text>
</g>
<!-- DemoDataModule&#45;&gt;AppModule -->
<g id="edge12" class="edge">
<title>DemoDataModule&#45;&gt;AppModule</title>
<path fill="none" stroke="black" d="M4090,-122.3C4090,-140.27 4090,-165 4090,-165 4090,-165 2991.95,-165 2991.95,-165"/>
<polygon fill="black" stroke="black" points="2991.95,-161.5 2981.95,-165 2991.95,-168.5 2991.95,-161.5"/>
</g>
<!-- EmailClientServiceModule -->
<g id="node14" class="node">
<title>EmailClientServiceModule</title>
<polygon fill="#8dd3c7" stroke="black" points="4011.69,-122 4008.69,-126 3987.69,-126 3984.69,-122 3842.31,-122 3842.31,-86 4011.69,-86 4011.69,-122"/>
<text text-anchor="middle" x="3927" y="-99.8" font-family="Times,serif" font-size="14.00">EmailClientServiceModule</text>
</g>
<!-- EmailClientServiceModule&#45;&gt;AppModule -->
<g id="edge13" class="edge">
<title>EmailClientServiceModule&#45;&gt;AppModule</title>
<path fill="none" stroke="black" d="M3927,-122.02C3927,-139.37 3927,-163 3927,-163 3927,-163 2991.78,-163 2991.78,-163"/>
<polygon fill="black" stroke="black" points="2991.78,-159.5 2981.78,-163 2991.78,-166.5 2991.78,-159.5"/>
</g>
<!-- EntityCountDashboardWidgetModule -->
<g id="node15" class="node">
<title>EntityCountDashboardWidgetModule</title>
<polygon fill="#8dd3c7" stroke="black" points="3823.85,-122 3820.85,-126 3799.85,-126 3796.85,-122 3594.15,-122 3594.15,-86 3823.85,-86 3823.85,-122"/>
<text text-anchor="middle" x="3709" y="-99.8" font-family="Times,serif" font-size="14.00">EntityCountDashboardWidgetModule</text>
</g>
<!-- EntityCountDashboardWidgetModule&#45;&gt;AppModule -->
<g id="edge14" class="edge">
<title>EntityCountDashboardWidgetModule&#45;&gt;AppModule</title>
<path fill="none" stroke="black" d="M3709,-122.04C3709,-138.73 3709,-161 3709,-161 3709,-161 2991.89,-161 2991.89,-161"/>
<polygon fill="black" stroke="black" points="2991.89,-157.5 2981.89,-161 2991.89,-164.5 2991.89,-157.5"/>
</g>
<!-- FileModule -->
<g id="node16" class="node">
<title>FileModule</title>
<polygon fill="#8dd3c7" stroke="black" points="3575.83,-122 3572.83,-126 3551.83,-126 3548.83,-122 3494.17,-122 3494.17,-86 3575.83,-86 3575.83,-122"/>
<text text-anchor="middle" x="3535" y="-99.8" font-family="Times,serif" font-size="14.00">FileModule</text>
</g>
<!-- FileModule&#45;&gt;AppModule -->
<g id="edge15" class="edge">
<title>FileModule&#45;&gt;AppModule</title>
<path fill="none" stroke="black" d="M3535,-122.01C3535,-138.05 3535,-159 3535,-159 3535,-159 2991.84,-159 2991.84,-159"/>
<polygon fill="black" stroke="black" points="2991.84,-155.5 2981.84,-159 2991.84,-162.5 2991.84,-155.5"/>
</g>
<!-- ImportModule -->
<g id="node17" class="node">
<title>ImportModule</title>
<polygon fill="#8dd3c7" stroke="black" points="3476.65,-122 3473.65,-126 3452.65,-126 3449.65,-122 3379.35,-122 3379.35,-86 3476.65,-86 3476.65,-122"/>
<text text-anchor="middle" x="3428" y="-99.8" font-family="Times,serif" font-size="14.00">ImportModule</text>
</g>
<!-- ImportModule&#45;&gt;AppModule -->
<g id="edge16" class="edge">
<title>ImportModule&#45;&gt;AppModule</title>
<path fill="none" stroke="black" d="M3428,-122.24C3428,-137.57 3428,-157 3428,-157 3428,-157 2992.03,-157 2992.03,-157"/>
<polygon fill="black" stroke="black" points="2992.03,-153.5 2982.03,-157 2992.03,-160.5 2992.03,-153.5"/>
</g>
<!-- LanguageModule -->
<g id="node18" class="node">
<title>LanguageModule</title>
<polygon fill="#8dd3c7" stroke="black" points="3361.25,-122 3358.25,-126 3337.25,-126 3334.25,-122 3246.75,-122 3246.75,-86 3361.25,-86 3361.25,-122"/>
<text text-anchor="middle" x="3304" y="-99.8" font-family="Times,serif" font-size="14.00">LanguageModule</text>
</g>
<!-- LanguageModule&#45;&gt;AppModule -->
<g id="edge17" class="edge">
<title>LanguageModule&#45;&gt;AppModule</title>
<path fill="none" stroke="black" d="M3304,-122.12C3304,-136.78 3304,-155 3304,-155 3304,-155 2991.76,-155 2991.76,-155"/>
<polygon fill="black" stroke="black" points="2991.76,-151.5 2981.76,-155 2991.76,-158.5 2991.76,-151.5"/>
</g>
<!-- LatestChangesModule -->
<g id="node19" class="node">
<title>LatestChangesModule</title>
<polygon fill="#8dd3c7" stroke="black" points="3228.97,-122 3225.97,-126 3204.97,-126 3201.97,-122 3087.03,-122 3087.03,-86 3228.97,-86 3228.97,-122"/>
<text text-anchor="middle" x="3158" y="-99.8" font-family="Times,serif" font-size="14.00">LatestChangesModule</text>
</g>
<!-- LatestChangesModule&#45;&gt;AppModule -->
<g id="edge18" class="edge">
<title>LatestChangesModule&#45;&gt;AppModule</title>
<path fill="none" stroke="black" d="M3158,-122.25C3158,-136.18 3158,-153 3158,-153 3158,-153 2991.77,-153 2991.77,-153"/>
<polygon fill="black" stroke="black" points="2991.77,-149.5 2981.77,-153 2991.77,-156.5 2991.77,-149.5"/>
</g>
<!-- LocationModule -->
<g id="node20" class="node">
<title>LocationModule</title>
<polygon fill="#8dd3c7" stroke="black" points="3068.81,-122 3065.81,-126 3044.81,-126 3041.81,-122 2959.19,-122 2959.19,-86 3068.81,-86 3068.81,-122"/>
<text text-anchor="middle" x="3014" y="-99.8" font-family="Times,serif" font-size="14.00">LocationModule</text>
</g>
<!-- LocationModule&#45;&gt;AppModule -->
<g id="edge19" class="edge">
<title>LocationModule&#45;&gt;AppModule</title>
<path fill="none" stroke="black" d="M2970.59,-122.11C2970.59,-122.11 2970.59,-140.99 2970.59,-140.99"/>
<polygon fill="black" stroke="black" points="2967.09,-140.99 2970.59,-150.99 2974.09,-140.99 2967.09,-140.99"/>
</g>
<!-- MarkdownPageModule -->
<g id="node21" class="node">
<title>MarkdownPageModule</title>
<polygon fill="#8dd3c7" stroke="black" points="2941.19,-122 2938.19,-126 2917.19,-126 2914.19,-122 2792.81,-122 2792.81,-86 2941.19,-86 2941.19,-122"/>
<text text-anchor="middle" x="2867" y="-99.8" font-family="Times,serif" font-size="14.00">MarkdownPageModule</text>
</g>
<!-- MarkdownPageModule&#45;&gt;AppModule -->
<g id="edge20" class="edge">
<title>MarkdownPageModule&#45;&gt;AppModule</title>
<path fill="none" stroke="black" d="M2919.63,-122.11C2919.63,-122.11 2919.63,-140.99 2919.63,-140.99"/>
<polygon fill="black" stroke="black" points="2916.13,-140.99 2919.63,-150.99 2923.13,-140.99 2916.13,-140.99"/>
</g>
<!-- MatchingEntitiesModule -->
<g id="node22" class="node">
<title>MatchingEntitiesModule</title>
<polygon fill="#8dd3c7" stroke="black" points="2774.98,-122 2771.98,-126 2750.98,-126 2747.98,-122 2619.02,-122 2619.02,-86 2774.98,-86 2774.98,-122"/>
<text text-anchor="middle" x="2697" y="-99.8" font-family="Times,serif" font-size="14.00">MatchingEntitiesModule</text>
</g>
<!-- MatchingEntitiesModule&#45;&gt;AppModule -->
<g id="edge21" class="edge">
<title>MatchingEntitiesModule&#45;&gt;AppModule</title>
<path fill="none" stroke="black" d="M2697,-122.25C2697,-136.18 2697,-153 2697,-153 2697,-153 2888.23,-153 2888.23,-153"/>
<polygon fill="black" stroke="black" points="2888.23,-156.5 2898.23,-153 2888.23,-149.5 2888.23,-156.5"/>
</g>
<!-- NotesModule -->
<g id="node23" class="node">
<title>NotesModule</title>
<polygon fill="#8dd3c7" stroke="black" points="2601.21,-122 2598.21,-126 2577.21,-126 2574.21,-122 2508.79,-122 2508.79,-86 2601.21,-86 2601.21,-122"/>
<text text-anchor="middle" x="2555" y="-99.8" font-family="Times,serif" font-size="14.00">NotesModule</text>
</g>
<!-- NotesModule&#45;&gt;AppModule -->
<g id="edge22" class="edge">
<title>NotesModule&#45;&gt;AppModule</title>
<path fill="none" stroke="black" d="M2555,-122.12C2555,-136.78 2555,-155 2555,-155 2555,-155 2888.07,-155 2888.07,-155"/>
<polygon fill="black" stroke="black" points="2888.07,-158.5 2898.07,-155 2888.07,-151.5 2888.07,-158.5"/>
</g>
<!-- PermissionsModule -->
<g id="node24" class="node">
<title>PermissionsModule</title>
<polygon fill="#8dd3c7" stroke="black" points="2490.71,-122 2487.71,-126 2466.71,-126 2463.71,-122 2363.29,-122 2363.29,-86 2490.71,-86 2490.71,-122"/>
<text text-anchor="middle" x="2427" y="-99.8" font-family="Times,serif" font-size="14.00">PermissionsModule</text>
</g>
<!-- PermissionsModule&#45;&gt;AppModule -->
<g id="edge23" class="edge">
<title>PermissionsModule&#45;&gt;AppModule</title>
<path fill="none" stroke="black" d="M2427,-122.24C2427,-137.57 2427,-157 2427,-157 2427,-157 2888.02,-157 2888.02,-157"/>
<polygon fill="black" stroke="black" points="2888.02,-160.5 2898.02,-157 2888.02,-153.5 2888.02,-160.5"/>
</g>
<!-- ProgressDashboardWidgetModule -->
<g id="node25" class="node">
<title>ProgressDashboardWidgetModule</title>
<polygon fill="#8dd3c7" stroke="black" points="2345.61,-122 2342.61,-126 2321.61,-126 2318.61,-122 2136.39,-122 2136.39,-86 2345.61,-86 2345.61,-122"/>
<text text-anchor="middle" x="2241" y="-99.8" font-family="Times,serif" font-size="14.00">ProgressDashboardWidgetModule</text>
</g>
<!-- ProgressDashboardWidgetModule&#45;&gt;AppModule -->
<g id="edge24" class="edge">
<title>ProgressDashboardWidgetModule&#45;&gt;AppModule</title>
<path fill="none" stroke="black" d="M2241,-122.01C2241,-138.05 2241,-159 2241,-159 2241,-159 2888.11,-159 2888.11,-159"/>
<polygon fill="black" stroke="black" points="2888.11,-162.5 2898.11,-159 2888.11,-155.5 2888.11,-162.5"/>
</g>
<!-- PublicFormModule -->
<g id="node26" class="node">
<title>PublicFormModule</title>
<polygon fill="#8dd3c7" stroke="black" points="2117.66,-122 2114.66,-126 2093.66,-126 2090.66,-122 1992.34,-122 1992.34,-86 2117.66,-86 2117.66,-122"/>
<text text-anchor="middle" x="2055" y="-99.8" font-family="Times,serif" font-size="14.00">PublicFormModule</text>
</g>
<!-- PublicFormModule&#45;&gt;AppModule -->
<g id="edge25" class="edge">
<title>PublicFormModule&#45;&gt;AppModule</title>
<path fill="none" stroke="black" d="M2055,-122.04C2055,-138.73 2055,-161 2055,-161 2055,-161 2888.21,-161 2888.21,-161"/>
<polygon fill="black" stroke="black" points="2888.21,-164.5 2898.21,-161 2888.21,-157.5 2888.21,-164.5"/>
</g>
<!-- ReportingModule -->
<g id="node27" class="node">
<title>ReportingModule</title>
<polygon fill="#8dd3c7" stroke="black" points="1973.54,-122 1970.54,-126 1949.54,-126 1946.54,-122 1858.46,-122 1858.46,-86 1973.54,-86 1973.54,-122"/>
<text text-anchor="middle" x="1916" y="-99.8" font-family="Times,serif" font-size="14.00">ReportingModule</text>
</g>
<!-- ReportingModule&#45;&gt;AppModule -->
<g id="edge26" class="edge">
<title>ReportingModule&#45;&gt;AppModule</title>
<path fill="none" stroke="black" d="M1916,-122.02C1916,-139.37 1916,-163 1916,-163 1916,-163 2888.27,-163 2888.27,-163"/>
<polygon fill="black" stroke="black" points="2888.27,-166.5 2898.27,-163 2888.27,-159.5 2888.27,-166.5"/>
</g>
<!-- SessionModule -->
<g id="node28" class="node">
<title>SessionModule</title>
<polygon fill="#8dd3c7" stroke="black" points="1840.33,-122 1837.33,-126 1816.33,-126 1813.33,-122 1737.67,-122 1737.67,-86 1840.33,-86 1840.33,-122"/>
<text text-anchor="middle" x="1789" y="-99.8" font-family="Times,serif" font-size="14.00">SessionModule</text>
</g>
<!-- SessionModule&#45;&gt;AppModule -->
<g id="edge27" class="edge">
<title>SessionModule&#45;&gt;AppModule</title>
<path fill="none" stroke="black" d="M1789,-122.3C1789,-140.27 1789,-165 1789,-165 1789,-165 2888.01,-165 2888.01,-165"/>
<polygon fill="black" stroke="black" points="2888.01,-168.5 2898.01,-165 2888.01,-161.5 2888.01,-168.5"/>
</g>
<!-- ShortcutDashboardWidgetModule -->
<g id="node29" class="node">
<title>ShortcutDashboardWidgetModule</title>
<polygon fill="#8dd3c7" stroke="black" points="1719.34,-122 1716.34,-126 1695.34,-126 1692.34,-122 1510.66,-122 1510.66,-86 1719.34,-86 1719.34,-122"/>
<text text-anchor="middle" x="1615" y="-99.8" font-family="Times,serif" font-size="14.00">ShortcutDashboardWidgetModule</text>
</g>
<!-- ShortcutDashboardWidgetModule&#45;&gt;AppModule -->
<g id="edge28" class="edge">
<title>ShortcutDashboardWidgetModule&#45;&gt;AppModule</title>
<path fill="none" stroke="black" d="M1615,-122.22C1615,-140.83 1615,-167 1615,-167 1615,-167 2888.16,-167 2888.16,-167"/>
<polygon fill="black" stroke="black" points="2888.16,-170.5 2898.16,-167 2888.16,-163.5 2888.16,-170.5"/>
</g>
<!-- SkillModule -->
<g id="node30" class="node">
<title>SkillModule</title>
<polygon fill="#8dd3c7" stroke="black" points="1493,-122 1490,-126 1469,-126 1466,-122 1407,-122 1407,-86 1493,-86 1493,-122"/>
<text text-anchor="middle" x="1450" y="-99.8" font-family="Times,serif" font-size="14.00">SkillModule</text>
</g>
<!-- SkillModule&#45;&gt;AppModule -->
<g id="edge29" class="edge">
<title>SkillModule&#45;&gt;AppModule</title>
<path fill="none" stroke="black" d="M1450,-122.11C1450,-141.34 1450,-169 1450,-169 1450,-169 2888.2,-169 2888.2,-169"/>
<polygon fill="black" stroke="black" points="2888.2,-172.5 2898.2,-169 2888.2,-165.5 2888.2,-172.5"/>
</g>
<!-- TemplateExportModule -->
<g id="node31" class="node">
<title>TemplateExportModule</title>
<polygon fill="#8dd3c7" stroke="black" points="1389.02,-122 1386.02,-126 1365.02,-126 1362.02,-122 1238.98,-122 1238.98,-86 1389.02,-86 1389.02,-122"/>
<text text-anchor="middle" x="1314" y="-99.8" font-family="Times,serif" font-size="14.00">TemplateExportModule</text>
</g>
<!-- TemplateExportModule&#45;&gt;AppModule -->
<g id="edge30" class="edge">
<title>TemplateExportModule&#45;&gt;AppModule</title>
<path fill="none" stroke="black" d="M1314,-122.31C1314,-142.15 1314,-171 1314,-171 1314,-171 2888.17,-171 2888.17,-171"/>
<polygon fill="black" stroke="black" points="2888.17,-174.5 2898.17,-171 2888.17,-167.5 2888.17,-174.5"/>
</g>
<!-- TodosModule -->
<g id="node32" class="node">
<title>TodosModule</title>
<polygon fill="#8dd3c7" stroke="black" points="1220.05,-122 1217.05,-126 1196.05,-126 1193.05,-122 1125.95,-122 1125.95,-86 1220.05,-86 1220.05,-122"/>
<text text-anchor="middle" x="1173" y="-99.8" font-family="Times,serif" font-size="14.00">TodosModule</text>
</g>
<!-- TodosModule&#45;&gt;AppModule -->
<g id="edge31" class="edge">
<title>TodosModule&#45;&gt;AppModule</title>
<path fill="none" stroke="black" d="M1173,-122.13C1173,-142.57 1173,-173 1173,-173 1173,-173 2888.06,-173 2888.06,-173"/>
<polygon fill="black" stroke="black" points="2888.06,-176.5 2898.06,-173 2888.06,-169.5 2888.06,-176.5"/>
</g>
<!-- UiComponent -->
<g id="node33" class="node">
<title>UiComponent</title>
<polygon fill="#8dd3c7" stroke="black" points="1107.83,-122 1104.83,-126 1083.83,-126 1080.83,-122 1012.17,-122 1012.17,-86 1107.83,-86 1107.83,-122"/>
<text text-anchor="middle" x="1060" y="-99.8" font-family="Times,serif" font-size="14.00">UiComponent</text>
</g>
<!-- UiComponent&#45;&gt;AppModule -->
<g id="edge32" class="edge">
<title>UiComponent&#45;&gt;AppModule</title>
<path fill="none" stroke="black" d="M1060,-122.28C1060,-143.32 1060,-175 1060,-175 1060,-175 2888.1,-175 2888.1,-175"/>
<polygon fill="black" stroke="black" points="2888.1,-178.5 2898.1,-175 2888.1,-171.5 2888.1,-178.5"/>
</g>
<!-- AnalyticsService -->
<g id="node35" class="node">
<title>AnalyticsService</title>
<ellipse fill="#fdb462" stroke="black" cx="911" cy="-104" rx="77" ry="18"/>
<text text-anchor="middle" x="911" y="-99.8" font-family="Times,serif" font-size="14.00">AnalyticsService</text>
</g>
<!-- AnalyticsService&#45;&gt;AppModule -->
<g id="edge34" class="edge">
<title>AnalyticsService&#45;&gt;AppModule</title>
<path fill="none" stroke="black" d="M911,-122.04C911,-143.66 911,-177 911,-177 911,-177 2888.09,-177 2888.09,-177"/>
<polygon fill="black" stroke="black" points="2888.09,-180.5 2898.09,-177 2888.09,-173.5 2888.09,-180.5"/>
</g>
<!-- DateAdapterWithFormatting -->
<g id="node36" class="node">
<title>DateAdapterWithFormatting</title>
<ellipse fill="#fdb462" stroke="black" cx="693" cy="-104" rx="122.69" ry="18"/>
<text text-anchor="middle" x="693" y="-99.8" font-family="Times,serif" font-size="14.00">DateAdapterWithFormatting</text>
</g>
<!-- DateAdapterWithFormatting&#45;&gt;AppModule -->
<g id="edge35" class="edge">
<title>DateAdapterWithFormatting&#45;&gt;AppModule</title>
<path fill="none" stroke="black" d="M693,-122.16C693,-144.35 693,-179 693,-179 693,-179 2888.11,-179 2888.11,-179"/>
<polygon fill="black" stroke="black" points="2888.11,-182.5 2898.11,-179 2888.11,-175.5 2888.11,-182.5"/>
</g>
<!-- KeycloakAdminService -->
<g id="node37" class="node">
<title>KeycloakAdminService</title>
<ellipse fill="#fdb462" stroke="black" cx="449" cy="-104" rx="103.63" ry="18"/>
<text text-anchor="middle" x="449" y="-99.8" font-family="Times,serif" font-size="14.00">KeycloakAdminService</text>
</g>
<!-- KeycloakAdminService&#45;&gt;AppModule -->
<g id="edge36" class="edge">
<title>KeycloakAdminService&#45;&gt;AppModule</title>
<path fill="none" stroke="black" d="M449,-122.25C449,-145.02 449,-181 449,-181 449,-181 2888.33,-181 2888.33,-181"/>
<polygon fill="black" stroke="black" points="2888.33,-184.5 2898.33,-181 2888.33,-177.5 2888.33,-184.5"/>
</g>
<!-- NotificationService -->
<g id="node38" class="node">
<title>NotificationService</title>
<ellipse fill="#fdb462" stroke="black" cx="241" cy="-104" rx="86.81" ry="18"/>
<text text-anchor="middle" x="241" y="-99.8" font-family="Times,serif" font-size="14.00">NotificationService</text>
</g>
<!-- NotificationService&#45;&gt;AppModule -->
<g id="edge37" class="edge">
<title>NotificationService&#45;&gt;AppModule</title>
<path fill="none" stroke="black" d="M241,-122.32C241,-145.66 241,-183 241,-183 241,-183 2888.15,-183 2888.15,-183"/>
<polygon fill="black" stroke="black" points="2888.15,-186.5 2898.15,-183 2888.15,-179.5 2888.15,-186.5"/>
</g>
</g>
</svg>
