<?xml version="1.0" encoding="UTF-8" standalone="no"?>
<!DOCTYPE svg PUBLIC "-//W3C//DTD SVG 1.1//EN"
 "http://www.w3.org/Graphics/SVG/1.1/DTD/svg11.dtd">
<!-- Generated by graphviz version 2.47.0 (20210316.0004)
 -->
<!-- Title: dependencies Pages: 1 -->
<svg width="4620pt" height="284pt"
 viewBox="0.00 0.00 4620.00 284.00" xmlns="http://www.w3.org/2000/svg" xmlns:xlink="http://www.w3.org/1999/xlink">
<g id="graph0" class="graph" transform="scale(1 1) rotate(0) translate(4 280)">
<title>dependencies</title>
<polygon fill="white" stroke="transparent" points="-4,4 -4,-280 4616,-280 4616,4 -4,4"/>
<text text-anchor="start" x="2285.01" y="-42.4" font-family="Times-12" font-weight="bold" font-size="14.00">Legend</text>
<polygon fill="#ffffb3" stroke="transparent" points="2072,-10 2072,-30 2092,-30 2092,-10 2072,-10"/>
<text text-anchor="start" x="2095.63" y="-15.4" font-family="Times-12" font-size="14.00"> &#160;Declarations</text>
<polygon fill="#8dd3c7" stroke="transparent" points="2185,-10 2185,-30 2205,-30 2205,-10 2185,-10"/>
<text text-anchor="start" x="2208.73" y="-15.4" font-family="Times-12" font-size="14.00"> &#160;Module</text>
<polygon fill="#80b1d3" stroke="transparent" points="2271,-10 2271,-30 2291,-30 2291,-10 2271,-10"/>
<text text-anchor="start" x="2294.78" y="-15.4" font-family="Times-12" font-size="14.00"> &#160;Bootstrap</text>
<polygon fill="#fdb462" stroke="transparent" points="2368,-10 2368,-30 2388,-30 2388,-10 2368,-10"/>
<text text-anchor="start" x="2391.67" y="-15.4" font-family="Times-12" font-size="14.00"> &#160;Providers</text>
<polygon fill="#fb8072" stroke="transparent" points="2464,-10 2464,-30 2484,-30 2484,-10 2464,-10"/>
<text text-anchor="start" x="2487.73" y="-15.4" font-family="Times-12" font-size="14.00"> &#160;Exports</text>
<g id="clust1" class="cluster">
<title>cluster_AppModule</title>
<polygon fill="none" stroke="black" stroke-dasharray="1,5" points="8,-70 8,-268 4604,-268 4604,-70 8,-70"/>
</g>
<g id="clust7" class="cluster">
<title>cluster_AppModule_providers</title>
<polygon fill="none" stroke="black" points="4234,-78 4234,-130 4596,-130 4596,-78 4234,-78"/>
</g>
<g id="clust6" class="cluster">
<title>cluster_AppModule_bootstrap</title>
<polygon fill="none" stroke="black" points="2181,-208 2181,-260 2305,-260 2305,-208 2181,-208"/>
</g>
<g id="clust2" class="cluster">
<title>cluster_AppModule_declarations</title>
<polygon fill="none" stroke="black" points="4104,-78 4104,-130 4226,-130 4226,-78 4104,-78"/>
</g>
<g id="clust4" class="cluster">
<title>cluster_AppModule_imports</title>
<polygon fill="none" stroke="black" points="16,-78 16,-130 4096,-130 4096,-78 16,-78"/>
</g>
<!-- AppComponent -->
<g id="node1" class="node">
<title>AppComponent</title>
<polygon fill="#ffffb3" stroke="black" points="4217.94,-122 4112.06,-122 4112.06,-86 4217.94,-86 4217.94,-122"/>
<text text-anchor="middle" x="4165" y="-99.8" font-family="Times,serif" font-size="14.00">AppComponent</text>
</g>
<!-- AppModule -->
<g id="node2" class="node">
<title>AppModule</title>
<polygon fill="#8dd3c7" stroke="black" points="2284.66,-187 2281.66,-191 2260.66,-191 2257.66,-187 2201.34,-187 2201.34,-151 2284.66,-151 2284.66,-187"/>
<text text-anchor="middle" x="2243" y="-164.8" font-family="Times,serif" font-size="14.00">AppModule</text>
</g>
<!-- AppComponent&#45;&gt;AppModule -->
<g id="edge1" class="edge">
<title>AppComponent&#45;&gt;AppModule</title>
<path fill="none" stroke="black" d="M4165,-122.01C4165,-144.49 4165,-180 4165,-180 4165,-180 2294.93,-180 2294.93,-180"/>
<polygon fill="black" stroke="black" points="2294.93,-176.5 2284.93,-180 2294.93,-183.5 2294.93,-176.5"/>
</g>
<!-- AppComponent  -->
<g id="node30" class="node">
<title>AppComponent </title>
<polygon fill="#80b1d3" stroke="black" points="2297.44,-252 2188.56,-252 2188.56,-216 2297.44,-216 2297.44,-252"/>
<text text-anchor="middle" x="2243" y="-229.8" font-family="Times,serif" font-size="14.00">AppComponent </text>
</g>
<!-- AppModule&#45;&gt;AppComponent  -->
<g id="edge29" class="edge">
<title>AppModule&#45;&gt;AppComponent </title>
<path fill="none" stroke="black" stroke-dasharray="1,5" d="M2243,-187.11C2243,-187.11 2243,-205.99 2243,-205.99"/>
<polygon fill="black" stroke="black" points="2239.5,-205.99 2243,-215.99 2246.5,-205.99 2239.5,-205.99"/>
</g>
<!-- AdminModule -->
<g id="node3" class="node">
<title>AdminModule</title>
<polygon fill="#8dd3c7" stroke="black" points="4088.44,-122 4085.44,-126 4064.44,-126 4061.44,-122 3989.56,-122 3989.56,-86 4088.44,-86 4088.44,-122"/>
<text text-anchor="middle" x="4039" y="-99.8" font-family="Times,serif" font-size="14.00">AdminModule</text>
</g>
<!-- AdminModule&#45;&gt;AppModule -->
<g id="edge2" class="edge">
<title>AdminModule&#45;&gt;AppModule</title>
<path fill="none" stroke="black" d="M4039,-122.29C4039,-144.21 4039,-178 4039,-178 4039,-178 2294.75,-178 2294.75,-178"/>
<polygon fill="black" stroke="black" points="2294.75,-174.5 2284.75,-178 2294.75,-181.5 2294.75,-174.5"/>
</g>
<!-- ApplicationLoadingComponent -->
<g id="node4" class="node">
<title>ApplicationLoadingComponent</title>
<polygon fill="#8dd3c7" stroke="black" points="3972.09,-122 3969.09,-126 3948.09,-126 3945.09,-122 3777.91,-122 3777.91,-86 3972.09,-86 3972.09,-122"/>
<text text-anchor="middle" x="3875" y="-99.8" font-family="Times,serif" font-size="14.00">ApplicationLoadingComponent</text>
</g>
<!-- ApplicationLoadingComponent&#45;&gt;AppModule -->
<g id="edge3" class="edge">
<title>ApplicationLoadingComponent&#45;&gt;AppModule</title>
<path fill="none" stroke="black" d="M3875,-122.28C3875,-143.32 3875,-175 3875,-175 3875,-175 2294.98,-175 2294.98,-175"/>
<polygon fill="black" stroke="black" points="2294.98,-171.5 2284.98,-175 2294.98,-178.5 2294.98,-171.5"/>
</g>
<!-- AttendanceModule -->
<g id="node5" class="node">
<title>AttendanceModule</title>
<polygon fill="#8dd3c7" stroke="black" points="3759.8,-122 3756.8,-126 3735.8,-126 3732.8,-122 3636.2,-122 3636.2,-86 3759.8,-86 3759.8,-122"/>
<text text-anchor="middle" x="3698" y="-99.8" font-family="Times,serif" font-size="14.00">AttendanceModule</text>
</g>
<!-- AttendanceModule&#45;&gt;AppModule -->
<g id="edge4" class="edge">
<title>AttendanceModule&#45;&gt;AppModule</title>
<path fill="none" stroke="black" d="M3698,-122.13C3698,-142.57 3698,-173 3698,-173 3698,-173 2294.98,-173 2294.98,-173"/>
<polygon fill="black" stroke="black" points="2294.98,-169.5 2284.98,-173 2294.98,-176.5 2294.98,-169.5"/>
</g>
<!-- BirthdayDashboardWidgetModule -->
<g id="node6" class="node">
<title>BirthdayDashboardWidgetModule</title>
<polygon fill="#8dd3c7" stroke="black" points="3618.39,-122 3615.39,-126 3594.39,-126 3591.39,-122 3407.61,-122 3407.61,-86 3618.39,-86 3618.39,-122"/>
<text text-anchor="middle" x="3513" y="-99.8" font-family="Times,serif" font-size="14.00">BirthdayDashboardWidgetModule</text>
</g>
<!-- BirthdayDashboardWidgetModule&#45;&gt;AppModule -->
<g id="edge5" class="edge">
<title>BirthdayDashboardWidgetModule&#45;&gt;AppModule</title>
<path fill="none" stroke="black" d="M3513,-122.31C3513,-142.15 3513,-171 3513,-171 3513,-171 2294.89,-171 2294.89,-171"/>
<polygon fill="black" stroke="black" points="2294.89,-167.5 2284.89,-171 2294.89,-174.5 2294.89,-167.5"/>
</g>
<!-- ChildrenModule -->
<g id="node7" class="node">
<title>ChildrenModule</title>
<polygon fill="#8dd3c7" stroke="black" points="3390.04,-122 3387.04,-126 3366.04,-126 3363.04,-122 3281.96,-122 3281.96,-86 3390.04,-86 3390.04,-122"/>
<text text-anchor="middle" x="3336" y="-99.8" font-family="Times,serif" font-size="14.00">ChildrenModule</text>
</g>
<!-- ChildrenModule&#45;&gt;AppModule -->
<g id="edge6" class="edge">
<title>ChildrenModule&#45;&gt;AppModule</title>
<path fill="none" stroke="black" d="M3336,-122.17C3336,-141.09 3336,-168 3336,-168 3336,-168 2294.84,-168 2294.84,-168"/>
<polygon fill="black" stroke="black" points="2294.84,-164.5 2284.84,-168 2294.84,-171.5 2294.84,-164.5"/>
</g>
<!-- ConfigurableEnumModule -->
<g id="node8" class="node">
<title>ConfigurableEnumModule</title>
<polygon fill="#8dd3c7" stroke="black" points="3263.36,-122 3260.36,-126 3239.36,-126 3236.36,-122 3096.64,-122 3096.64,-86 3263.36,-86 3263.36,-122"/>
<text text-anchor="middle" x="3180" y="-99.8" font-family="Times,serif" font-size="14.00">ConfigurableEnumModule</text>
</g>
<!-- ConfigurableEnumModule&#45;&gt;AppModule -->
<g id="edge7" class="edge">
<title>ConfigurableEnumModule&#45;&gt;AppModule</title>
<path fill="none" stroke="black" d="M3180,-122.27C3180,-140.56 3180,-166 3180,-166 3180,-166 2294.78,-166 2294.78,-166"/>
<polygon fill="black" stroke="black" points="2294.78,-162.5 2284.78,-166 2294.78,-169.5 2294.78,-162.5"/>
</g>
<!-- CoreModule -->
<g id="node9" class="node">
<title>CoreModule</title>
<polygon fill="#8dd3c7" stroke="black" points="3078.26,-122 3075.26,-126 3054.26,-126 3051.26,-122 2991.74,-122 2991.74,-86 3078.26,-86 3078.26,-122"/>
<text text-anchor="middle" x="3035" y="-99.8" font-family="Times,serif" font-size="14.00">CoreModule</text>
</g>
<!-- CoreModule&#45;&gt;AppModule -->
<g id="edge8" class="edge">
<title>CoreModule&#45;&gt;AppModule</title>
<path fill="none" stroke="black" d="M3035,-122.02C3035,-139.37 3035,-163 3035,-163 3035,-163 2294.74,-163 2294.74,-163"/>
<polygon fill="black" stroke="black" points="2294.74,-159.5 2284.74,-163 2294.74,-166.5 2294.74,-159.5"/>
</g>
<!-- DemoDataModule -->
<g id="node10" class="node">
<title>DemoDataModule</title>
<polygon fill="#8dd3c7" stroke="black" points="2974.19,-122 2971.19,-126 2950.19,-126 2947.19,-122 2853.81,-122 2853.81,-86 2974.19,-86 2974.19,-122"/>
<text text-anchor="middle" x="2914" y="-99.8" font-family="Times,serif" font-size="14.00">DemoDataModule</text>
</g>
<!-- DemoDataModule&#45;&gt;AppModule -->
<g id="edge9" class="edge">
<title>DemoDataModule&#45;&gt;AppModule</title>
<path fill="none" stroke="black" d="M2914,-122.04C2914,-138.73 2914,-161 2914,-161 2914,-161 2294.72,-161 2294.72,-161"/>
<polygon fill="black" stroke="black" points="2294.72,-157.5 2284.72,-161 2294.72,-164.5 2294.72,-157.5"/>
</g>
<!-- EntityCountDashboardWidgetModule -->
<g id="node11" class="node">
<title>EntityCountDashboardWidgetModule</title>
<polygon fill="#8dd3c7" stroke="black" points="2835.85,-122 2832.85,-126 2811.85,-126 2808.85,-122 2606.15,-122 2606.15,-86 2835.85,-86 2835.85,-122"/>
<text text-anchor="middle" x="2721" y="-99.8" font-family="Times,serif" font-size="14.00">EntityCountDashboardWidgetModule</text>
</g>
<!-- EntityCountDashboardWidgetModule&#45;&gt;AppModule -->
<g id="edge10" class="edge">
<title>EntityCountDashboardWidgetModule&#45;&gt;AppModule</title>
<path fill="none" stroke="black" d="M2721,-122.01C2721,-138.05 2721,-159 2721,-159 2721,-159 2295,-159 2295,-159"/>
<polygon fill="black" stroke="black" points="2295,-155.5 2285,-159 2295,-162.5 2295,-155.5"/>
</g>
<!-- FileModule -->
<g id="node12" class="node">
<title>FileModule</title>
<polygon fill="#8dd3c7" stroke="black" points="2587.83,-122 2584.83,-126 2563.83,-126 2560.83,-122 2506.17,-122 2506.17,-86 2587.83,-86 2587.83,-122"/>
<text text-anchor="middle" x="2547" y="-99.8" font-family="Times,serif" font-size="14.00">FileModule</text>
</g>
<!-- FileModule&#45;&gt;AppModule -->
<g id="edge11" class="edge">
<title>FileModule&#45;&gt;AppModule</title>
<path fill="none" stroke="black" d="M2547,-122.19C2547,-137.18 2547,-156 2547,-156 2547,-156 2294.95,-156 2294.95,-156"/>
<polygon fill="black" stroke="black" points="2294.95,-152.5 2284.95,-156 2294.95,-159.5 2294.95,-152.5"/>
</g>
<!-- ImportModule -->
<g id="node13" class="node">
<title>ImportModule</title>
<polygon fill="#8dd3c7" stroke="black" points="2488.65,-122 2485.65,-126 2464.65,-126 2461.65,-122 2391.35,-122 2391.35,-86 2488.65,-86 2488.65,-122"/>
<text text-anchor="middle" x="2440" y="-99.8" font-family="Times,serif" font-size="14.00">ImportModule</text>
</g>
<!-- ImportModule&#45;&gt;AppModule -->
<g id="edge12" class="edge">
<title>ImportModule&#45;&gt;AppModule</title>
<path fill="none" stroke="black" d="M2440,-122.05C2440,-136.37 2440,-154 2440,-154 2440,-154 2294.78,-154 2294.78,-154"/>
<polygon fill="black" stroke="black" points="2294.78,-150.5 2284.78,-154 2294.78,-157.5 2294.78,-150.5"/>
</g>
<!-- LanguageModule -->
<g id="node14" class="node">
<title>LanguageModule</title>
<polygon fill="#8dd3c7" stroke="black" points="2373.25,-122 2370.25,-126 2349.25,-126 2346.25,-122 2258.75,-122 2258.75,-86 2373.25,-86 2373.25,-122"/>
<text text-anchor="middle" x="2316" y="-99.8" font-family="Times,serif" font-size="14.00">LanguageModule</text>
</g>
<!-- LanguageModule&#45;&gt;AppModule -->
<g id="edge13" class="edge">
<title>LanguageModule&#45;&gt;AppModule</title>
<path fill="none" stroke="black" d="M2271.73,-122.11C2271.73,-122.11 2271.73,-140.99 2271.73,-140.99"/>
<polygon fill="black" stroke="black" points="2268.23,-140.99 2271.73,-150.99 2275.23,-140.99 2268.23,-140.99"/>
</g>
<!-- LatestChangesModule -->
<g id="node15" class="node">
<title>LatestChangesModule</title>
<polygon fill="#8dd3c7" stroke="black" points="2240.97,-122 2237.97,-126 2216.97,-126 2213.97,-122 2099.03,-122 2099.03,-86 2240.97,-86 2240.97,-122"/>
<text text-anchor="middle" x="2170" y="-99.8" font-family="Times,serif" font-size="14.00">LatestChangesModule</text>
</g>
<!-- LatestChangesModule&#45;&gt;AppModule -->
<g id="edge14" class="edge">
<title>LatestChangesModule&#45;&gt;AppModule</title>
<path fill="none" stroke="black" d="M2221.08,-122.11C2221.08,-122.11 2221.08,-140.99 2221.08,-140.99"/>
<polygon fill="black" stroke="black" points="2217.58,-140.99 2221.08,-150.99 2224.58,-140.99 2217.58,-140.99"/>
</g>
<!-- LocationModule -->
<g id="node16" class="node">
<title>LocationModule</title>
<polygon fill="#8dd3c7" stroke="black" points="2080.81,-122 2077.81,-126 2056.81,-126 2053.81,-122 1971.19,-122 1971.19,-86 2080.81,-86 2080.81,-122"/>
<text text-anchor="middle" x="2026" y="-99.8" font-family="Times,serif" font-size="14.00">LocationModule</text>
</g>
<!-- LocationModule&#45;&gt;AppModule -->
<g id="edge15" class="edge">
<title>LocationModule&#45;&gt;AppModule</title>
<path fill="none" stroke="black" d="M2026,-122.05C2026,-136.37 2026,-154 2026,-154 2026,-154 2191.16,-154 2191.16,-154"/>
<polygon fill="black" stroke="black" points="2191.16,-157.5 2201.16,-154 2191.16,-150.5 2191.16,-157.5"/>
</g>
<!-- MarkdownPageModule -->
<g id="node17" class="node">
<title>MarkdownPageModule</title>
<polygon fill="#8dd3c7" stroke="black" points="1953.19,-122 1950.19,-126 1929.19,-126 1926.19,-122 1804.81,-122 1804.81,-86 1953.19,-86 1953.19,-122"/>
<text text-anchor="middle" x="1879" y="-99.8" font-family="Times,serif" font-size="14.00">MarkdownPageModule</text>
</g>
<!-- MarkdownPageModule&#45;&gt;AppModule -->
<g id="edge16" class="edge">
<title>MarkdownPageModule&#45;&gt;AppModule</title>
<path fill="none" stroke="black" d="M1879,-122.19C1879,-137.18 1879,-156 1879,-156 1879,-156 2191.24,-156 2191.24,-156"/>
<polygon fill="black" stroke="black" points="2191.24,-159.5 2201.24,-156 2191.24,-152.5 2191.24,-159.5"/>
</g>
<!-- MatchingEntitiesModule -->
<g id="node18" class="node">
<title>MatchingEntitiesModule</title>
<polygon fill="#8dd3c7" stroke="black" points="1786.98,-122 1783.98,-126 1762.98,-126 1759.98,-122 1631.02,-122 1631.02,-86 1786.98,-86 1786.98,-122"/>
<text text-anchor="middle" x="1709" y="-99.8" font-family="Times,serif" font-size="14.00">MatchingEntitiesModule</text>
</g>
<!-- MatchingEntitiesModule&#45;&gt;AppModule -->
<g id="edge17" class="edge">
<title>MatchingEntitiesModule&#45;&gt;AppModule</title>
<path fill="none" stroke="black" d="M1709,-122.01C1709,-138.05 1709,-159 1709,-159 1709,-159 2191.1,-159 2191.1,-159"/>
<polygon fill="black" stroke="black" points="2191.1,-162.5 2201.1,-159 2191.1,-155.5 2191.1,-162.5"/>
</g>
<!-- NotesModule -->
<g id="node19" class="node">
<title>NotesModule</title>
<polygon fill="#8dd3c7" stroke="black" points="1613.21,-122 1610.21,-126 1589.21,-126 1586.21,-122 1520.79,-122 1520.79,-86 1613.21,-86 1613.21,-122"/>
<text text-anchor="middle" x="1567" y="-99.8" font-family="Times,serif" font-size="14.00">NotesModule</text>
</g>
<!-- NotesModule&#45;&gt;AppModule -->
<g id="edge18" class="edge">
<title>NotesModule&#45;&gt;AppModule</title>
<path fill="none" stroke="black" d="M1567,-122.04C1567,-138.73 1567,-161 1567,-161 1567,-161 2191.22,-161 2191.22,-161"/>
<polygon fill="black" stroke="black" points="2191.22,-164.5 2201.22,-161 2191.22,-157.5 2191.22,-164.5"/>
</g>
<!-- PermissionsModule -->
<g id="node20" class="node">
<title>PermissionsModule</title>
<polygon fill="#8dd3c7" stroke="black" points="1502.71,-122 1499.71,-126 1478.71,-126 1475.71,-122 1375.29,-122 1375.29,-86 1502.71,-86 1502.71,-122"/>
<text text-anchor="middle" x="1439" y="-99.8" font-family="Times,serif" font-size="14.00">PermissionsModule</text>
</g>
<!-- PermissionsModule&#45;&gt;AppModule -->
<g id="edge19" class="edge">
<title>PermissionsModule&#45;&gt;AppModule</title>
<path fill="none" stroke="black" d="M1439,-122.02C1439,-139.37 1439,-163 1439,-163 1439,-163 2191.19,-163 2191.19,-163"/>
<polygon fill="black" stroke="black" points="2191.19,-166.5 2201.19,-163 2191.19,-159.5 2191.19,-166.5"/>
</g>
<!-- ProgressDashboardWidgetModule -->
<g id="node21" class="node">
<title>ProgressDashboardWidgetModule</title>
<polygon fill="#8dd3c7" stroke="black" points="1357.61,-122 1354.61,-126 1333.61,-126 1330.61,-122 1148.39,-122 1148.39,-86 1357.61,-86 1357.61,-122"/>
<text text-anchor="middle" x="1253" y="-99.8" font-family="Times,serif" font-size="14.00">ProgressDashboardWidgetModule</text>
</g>
<!-- ProgressDashboardWidgetModule&#45;&gt;AppModule -->
<g id="edge20" class="edge">
<title>ProgressDashboardWidgetModule&#45;&gt;AppModule</title>
<path fill="none" stroke="black" d="M1253,-122.27C1253,-140.56 1253,-166 1253,-166 1253,-166 2191.09,-166 2191.09,-166"/>
<polygon fill="black" stroke="black" points="2191.09,-169.5 2201.09,-166 2191.09,-162.5 2191.09,-169.5"/>
</g>
<!-- PublicFormModule -->
<g id="node22" class="node">
<title>PublicFormModule</title>
<polygon fill="#8dd3c7" stroke="black" points="1129.66,-122 1126.66,-126 1105.66,-126 1102.66,-122 1004.34,-122 1004.34,-86 1129.66,-86 1129.66,-122"/>
<text text-anchor="middle" x="1067" y="-99.8" font-family="Times,serif" font-size="14.00">PublicFormModule</text>
</g>
<!-- PublicFormModule&#45;&gt;AppModule -->
<g id="edge21" class="edge">
<title>PublicFormModule&#45;&gt;AppModule</title>
<path fill="none" stroke="black" d="M1067,-122.17C1067,-141.09 1067,-168 1067,-168 1067,-168 2191.15,-168 2191.15,-168"/>
<polygon fill="black" stroke="black" points="2191.15,-171.5 2201.15,-168 2191.15,-164.5 2191.15,-171.5"/>
</g>
<!-- ReportingModule -->
<g id="node23" class="node">
<title>ReportingModule</title>
<polygon fill="#8dd3c7" stroke="black" points="985.54,-122 982.54,-126 961.54,-126 958.54,-122 870.46,-122 870.46,-86 985.54,-86 985.54,-122"/>
<text text-anchor="middle" x="928" y="-99.8" font-family="Times,serif" font-size="14.00">ReportingModule</text>
</g>
<!-- ReportingModule&#45;&gt;AppModule -->
<g id="edge22" class="edge">
<title>ReportingModule&#45;&gt;AppModule</title>
<path fill="none" stroke="black" d="M928,-122.31C928,-142.15 928,-171 928,-171 928,-171 2191.11,-171 2191.11,-171"/>
<polygon fill="black" stroke="black" points="2191.11,-174.5 2201.11,-171 2191.11,-167.5 2191.11,-174.5"/>
</g>
<!-- SessionModule -->
<g id="node24" class="node">
<title>SessionModule</title>
<polygon fill="#8dd3c7" stroke="black" points="852.33,-122 849.33,-126 828.33,-126 825.33,-122 749.67,-122 749.67,-86 852.33,-86 852.33,-122"/>
<text text-anchor="middle" x="801" y="-99.8" font-family="Times,serif" font-size="14.00">SessionModule</text>
</g>
<!-- SessionModule&#45;&gt;AppModule -->
<g id="edge23" class="edge">
<title>SessionModule&#45;&gt;AppModule</title>
<path fill="none" stroke="black" d="M801,-122.13C801,-142.57 801,-173 801,-173 801,-173 2191.01,-173 2191.01,-173"/>
<polygon fill="black" stroke="black" points="2191.01,-176.5 2201.01,-173 2191.01,-169.5 2191.01,-176.5"/>
</g>
<!-- ShortcutDashboardWidgetModule -->
<g id="node25" class="node">
<title>ShortcutDashboardWidgetModule</title>
<polygon fill="#8dd3c7" stroke="black" points="731.34,-122 728.34,-126 707.34,-126 704.34,-122 522.66,-122 522.66,-86 731.34,-86 731.34,-122"/>
<text text-anchor="middle" x="627" y="-99.8" font-family="Times,serif" font-size="14.00">ShortcutDashboardWidgetModule</text>
</g>
<!-- ShortcutDashboardWidgetModule&#45;&gt;AppModule -->
<g id="edge24" class="edge">
<title>ShortcutDashboardWidgetModule&#45;&gt;AppModule</title>
<path fill="none" stroke="black" d="M627,-122.28C627,-143.32 627,-175 627,-175 627,-175 2191.02,-175 2191.02,-175"/>
<polygon fill="black" stroke="black" points="2191.02,-178.5 2201.02,-175 2191.02,-171.5 2191.02,-178.5"/>
</g>
<!-- SkillModule -->
<g id="node26" class="node">
<title>SkillModule</title>
<polygon fill="#8dd3c7" stroke="black" points="505,-122 502,-126 481,-126 478,-122 419,-122 419,-86 505,-86 505,-122"/>
<text text-anchor="middle" x="462" y="-99.8" font-family="Times,serif" font-size="14.00">SkillModule</text>
</g>
<!-- SkillModule&#45;&gt;AppModule -->
<g id="edge25" class="edge">
<title>SkillModule&#45;&gt;AppModule</title>
<path fill="none" stroke="black" d="M462,-122.29C462,-144.21 462,-178 462,-178 462,-178 2191.17,-178 2191.17,-178"/>
<polygon fill="black" stroke="black" points="2191.17,-181.5 2201.17,-178 2191.17,-174.5 2191.17,-181.5"/>
</g>
<!-- TemplateExportModule -->
<g id="node27" class="node">
<title>TemplateExportModule</title>
<polygon fill="#8dd3c7" stroke="black" points="401.02,-122 398.02,-126 377.02,-126 374.02,-122 250.98,-122 250.98,-86 401.02,-86 401.02,-122"/>
<text text-anchor="middle" x="326" y="-99.8" font-family="Times,serif" font-size="14.00">TemplateExportModule</text>
</g>
<!-- TemplateExportModule&#45;&gt;AppModule -->
<g id="edge26" class="edge">
<title>TemplateExportModule&#45;&gt;AppModule</title>
<path fill="none" stroke="black" d="M326,-122.01C326,-144.49 326,-180 326,-180 326,-180 2191.18,-180 2191.18,-180"/>
<polygon fill="black" stroke="black" points="2191.18,-183.5 2201.18,-180 2191.18,-176.5 2191.18,-183.5"/>
</g>
<!-- TodosModule -->
<g id="node28" class="node">
<title>TodosModule</title>
<polygon fill="#8dd3c7" stroke="black" points="232.05,-122 229.05,-126 208.05,-126 205.05,-122 137.95,-122 137.95,-86 232.05,-86 232.05,-122"/>
<text text-anchor="middle" x="185" y="-99.8" font-family="Times,serif" font-size="14.00">TodosModule</text>
</g>
<!-- TodosModule&#45;&gt;AppModule -->
<g id="edge27" class="edge">
<title>TodosModule&#45;&gt;AppModule</title>
<path fill="none" stroke="black" d="M185,-122.32C185,-145.66 185,-183 185,-183 185,-183 2190.96,-183 2190.96,-183"/>
<polygon fill="black" stroke="black" points="2190.96,-186.5 2200.96,-183 2190.96,-179.5 2190.96,-186.5"/>
</g>
<!-- UiComponent -->
<g id="node29" class="node">
<title>UiComponent</title>
<polygon fill="#8dd3c7" stroke="black" points="119.83,-122 116.83,-126 95.83,-126 92.83,-122 24.17,-122 24.17,-86 119.83,-86 119.83,-122"/>
<text text-anchor="middle" x="72" y="-99.8" font-family="Times,serif" font-size="14.00">UiComponent</text>
</g>
<!-- UiComponent&#45;&gt;AppModule -->
<g id="edge28" class="edge">
<title>UiComponent&#45;&gt;AppModule</title>
<path fill="none" stroke="black" d="M72,-122.38C72,-146.28 72,-185 72,-185 72,-185 2191.09,-185 2191.09,-185"/>
<polygon fill="black" stroke="black" points="2191.09,-188.5 2201.09,-185 2191.09,-181.5 2191.09,-188.5"/>
</g>
<!-- AnalyticsService -->
<g id="node31" class="node">
<title>AnalyticsService</title>
<ellipse fill="#fdb462" stroke="black" cx="4511" cy="-104" rx="77" ry="18"/>
<text text-anchor="middle" x="4511" y="-99.8" font-family="Times,serif" font-size="14.00">AnalyticsService</text>
</g>
<!-- AnalyticsService&#45;&gt;AppModule -->
<g id="edge30" class="edge">
<title>AnalyticsService&#45;&gt;AppModule</title>
<path fill="none" stroke="black" d="M4511,-122.38C4511,-146.28 4511,-185 4511,-185 4511,-185 2294.79,-185 2294.79,-185"/>
<polygon fill="black" stroke="black" points="2294.79,-181.5 2284.79,-185 2294.79,-188.5 2294.79,-181.5"/>
</g>
<!-- NotificationService -->
<g id="node32" class="node">
<title>NotificationService</title>
<ellipse fill="#fdb462" stroke="black" cx="4329" cy="-104" rx="86.81" ry="18"/>
<text text-anchor="middle" x="4329" y="-99.8" font-family="Times,serif" font-size="14.00">NotificationService</text>
</g>
<!-- NotificationService&#45;&gt;AppModule -->
<g id="edge31" class="edge">
<title>NotificationService&#45;&gt;AppModule</title>
<path fill="none" stroke="black" d="M4329,-122.32C4329,-145.66 4329,-183 4329,-183 4329,-183 2294.67,-183 2294.67,-183"/>
<polygon fill="black" stroke="black" points="2294.67,-179.5 2284.67,-183 2294.67,-186.5 2294.67,-179.5"/>
</g>
</g>
</svg>
