<?xml version="1.0" encoding="UTF-8" standalone="no"?>
<!DOCTYPE svg PUBLIC "-//W3C//DTD SVG 1.1//EN"
 "http://www.w3.org/Graphics/SVG/1.1/DTD/svg11.dtd">
<!-- Generated by graphviz version 2.47.0 (20210316.0004)
 -->
<!-- Title: dependencies Pages: 1 -->
<svg width="5434pt" height="284pt"
 viewBox="0.00 0.00 5434.00 284.00" xmlns="http://www.w3.org/2000/svg" xmlns:xlink="http://www.w3.org/1999/xlink">
<g id="graph0" class="graph" transform="scale(1 1) rotate(0) translate(4 280)">
<title>dependencies</title>
<polygon fill="white" stroke="transparent" points="-4,4 -4,-280 5430,-280 5430,4 -4,4"/>
<text text-anchor="start" x="2692.01" y="-42.4" font-family="Times-12" font-weight="bold" font-size="14.00">Legend</text>
<polygon fill="#ffffb3" stroke="transparent" points="2479,-10 2479,-30 2499,-30 2499,-10 2479,-10"/>
<text text-anchor="start" x="2502.63" y="-15.4" font-family="Times-12" font-size="14.00"> &#160;Declarations</text>
<polygon fill="#8dd3c7" stroke="transparent" points="2592,-10 2592,-30 2612,-30 2612,-10 2592,-10"/>
<text text-anchor="start" x="2615.73" y="-15.4" font-family="Times-12" font-size="14.00"> &#160;Module</text>
<polygon fill="#80b1d3" stroke="transparent" points="2678,-10 2678,-30 2698,-30 2698,-10 2678,-10"/>
<text text-anchor="start" x="2701.78" y="-15.4" font-family="Times-12" font-size="14.00"> &#160;Bootstrap</text>
<polygon fill="#fdb462" stroke="transparent" points="2775,-10 2775,-30 2795,-30 2795,-10 2775,-10"/>
<text text-anchor="start" x="2798.67" y="-15.4" font-family="Times-12" font-size="14.00"> &#160;Providers</text>
<polygon fill="#fb8072" stroke="transparent" points="2871,-10 2871,-30 2891,-30 2891,-10 2871,-10"/>
<text text-anchor="start" x="2894.73" y="-15.4" font-family="Times-12" font-size="14.00"> &#160;Exports</text>
<g id="clust1" class="cluster">
<title>cluster_AppModule</title>
<polygon fill="none" stroke="black" stroke-dasharray="1,5" points="8,-70 8,-268 5418,-268 5418,-70 8,-70"/>
</g>
<g id="clust2" class="cluster">
<title>cluster_AppModule_declarations</title>
<polygon fill="none" stroke="black" points="5288,-78 5288,-130 5410,-130 5410,-78 5288,-78"/>
</g>
<g id="clust4" class="cluster">
<title>cluster_AppModule_imports</title>
<polygon fill="none" stroke="black" points="874,-78 874,-130 5280,-130 5280,-78 874,-78"/>
</g>
<g id="clust6" class="cluster">
<title>cluster_AppModule_bootstrap</title>
<polygon fill="none" stroke="black" points="2748,-208 2748,-260 2872,-260 2872,-208 2748,-208"/>
</g>
<g id="clust7" class="cluster">
<title>cluster_AppModule_providers</title>
<polygon fill="none" stroke="black" points="16,-78 16,-130 866,-130 866,-78 16,-78"/>
</g>
<!-- AppComponent -->
<g id="node1" class="node">
<title>AppComponent</title>
<polygon fill="#ffffb3" stroke="black" points="5401.94,-122 5296.06,-122 5296.06,-86 5401.94,-86 5401.94,-122"/>
<text text-anchor="middle" x="5349" y="-99.8" font-family="Times,serif" font-size="14.00">AppComponent</text>
</g>
<!-- AppModule -->
<g id="node2" class="node">
<title>AppModule</title>
<polygon fill="#8dd3c7" stroke="black" points="2851.66,-187 2848.66,-191 2827.66,-191 2824.66,-187 2768.34,-187 2768.34,-151 2851.66,-151 2851.66,-187"/>
<text text-anchor="middle" x="2810" y="-164.8" font-family="Times,serif" font-size="14.00">AppModule</text>
</g>
<!-- AppComponent&#45;&gt;AppModule -->
<g id="edge1" class="edge">
<title>AppComponent&#45;&gt;AppModule</title>
<path fill="none" stroke="black" d="M5349,-122.38C5349,-146.28 5349,-185 5349,-185 5349,-185 2861.69,-185 2861.69,-185"/>
<polygon fill="black" stroke="black" points="2861.69,-181.5 2851.69,-185 2861.69,-188.5 2861.69,-181.5"/>
</g>
<!-- AppComponent  -->
<g id="node32" class="node">
<title>AppComponent </title>
<polygon fill="#80b1d3" stroke="black" points="2864.44,-252 2755.56,-252 2755.56,-216 2864.44,-216 2864.44,-252"/>
<text text-anchor="middle" x="2810" y="-229.8" font-family="Times,serif" font-size="14.00">AppComponent </text>
</g>
<!-- AppModule&#45;&gt;AppComponent  -->
<g id="edge31" class="edge">
<title>AppModule&#45;&gt;AppComponent </title>
<path fill="none" stroke="black" stroke-dasharray="1,5" d="M2810,-187.11C2810,-187.11 2810,-205.99 2810,-205.99"/>
<polygon fill="black" stroke="black" points="2806.5,-205.99 2810,-215.99 2813.5,-205.99 2806.5,-205.99"/>
</g>
<!-- AdminModule -->
<g id="node3" class="node">
<title>AdminModule</title>
<polygon fill="#8dd3c7" stroke="black" points="5272.44,-122 5269.44,-126 5248.44,-126 5245.44,-122 5173.56,-122 5173.56,-86 5272.44,-86 5272.44,-122"/>
<text text-anchor="middle" x="5223" y="-99.8" font-family="Times,serif" font-size="14.00">AdminModule</text>
</g>
<!-- AdminModule&#45;&gt;AppModule -->
<g id="edge2" class="edge">
<title>AdminModule&#45;&gt;AppModule</title>
<path fill="none" stroke="black" d="M5223,-122.32C5223,-145.66 5223,-183 5223,-183 5223,-183 2861.88,-183 2861.88,-183"/>
<polygon fill="black" stroke="black" points="2861.88,-179.5 2851.88,-183 2861.88,-186.5 2861.88,-179.5"/>
</g>
<!-- ApplicationLoadingComponent -->
<g id="node4" class="node">
<title>ApplicationLoadingComponent</title>
<polygon fill="#8dd3c7" stroke="black" points="5156.09,-122 5153.09,-126 5132.09,-126 5129.09,-122 4961.91,-122 4961.91,-86 5156.09,-86 5156.09,-122"/>
<text text-anchor="middle" x="5059" y="-99.8" font-family="Times,serif" font-size="14.00">ApplicationLoadingComponent</text>
</g>
<!-- ApplicationLoadingComponent&#45;&gt;AppModule -->
<g id="edge3" class="edge">
<title>ApplicationLoadingComponent&#45;&gt;AppModule</title>
<path fill="none" stroke="black" d="M5059,-122.25C5059,-145.02 5059,-181 5059,-181 5059,-181 2861.93,-181 2861.93,-181"/>
<polygon fill="black" stroke="black" points="2861.93,-177.5 2851.93,-181 2861.93,-184.5 2861.93,-177.5"/>
</g>
<!-- AttendanceModule -->
<g id="node5" class="node">
<title>AttendanceModule</title>
<polygon fill="#8dd3c7" stroke="black" points="4943.8,-122 4940.8,-126 4919.8,-126 4916.8,-122 4820.2,-122 4820.2,-86 4943.8,-86 4943.8,-122"/>
<text text-anchor="middle" x="4882" y="-99.8" font-family="Times,serif" font-size="14.00">AttendanceModule</text>
</g>
<!-- AttendanceModule&#45;&gt;AppModule -->
<g id="edge4" class="edge">
<title>AttendanceModule&#45;&gt;AppModule</title>
<path fill="none" stroke="black" d="M4882,-122.16C4882,-144.35 4882,-179 4882,-179 4882,-179 2861.86,-179 2861.86,-179"/>
<polygon fill="black" stroke="black" points="2861.86,-175.5 2851.86,-179 2861.86,-182.5 2861.86,-175.5"/>
</g>
<!-- BirthdayDashboardWidgetModule -->
<g id="node6" class="node">
<title>BirthdayDashboardWidgetModule</title>
<polygon fill="#8dd3c7" stroke="black" points="4802.39,-122 4799.39,-126 4778.39,-126 4775.39,-122 4591.61,-122 4591.61,-86 4802.39,-86 4802.39,-122"/>
<text text-anchor="middle" x="4697" y="-99.8" font-family="Times,serif" font-size="14.00">BirthdayDashboardWidgetModule</text>
</g>
<!-- BirthdayDashboardWidgetModule&#45;&gt;AppModule -->
<g id="edge5" class="edge">
<title>BirthdayDashboardWidgetModule&#45;&gt;AppModule</title>
<path fill="none" stroke="black" d="M4697,-122.04C4697,-143.66 4697,-177 4697,-177 4697,-177 2862.06,-177 2862.06,-177"/>
<polygon fill="black" stroke="black" points="2862.06,-173.5 2852.06,-177 2862.06,-180.5 2862.06,-173.5"/>
</g>
<!-- ChildrenModule -->
<g id="node7" class="node">
<title>ChildrenModule</title>
<polygon fill="#8dd3c7" stroke="black" points="4574.04,-122 4571.04,-126 4550.04,-126 4547.04,-122 4465.96,-122 4465.96,-86 4574.04,-86 4574.04,-122"/>
<text text-anchor="middle" x="4520" y="-99.8" font-family="Times,serif" font-size="14.00">ChildrenModule</text>
</g>
<!-- ChildrenModule&#45;&gt;AppModule -->
<g id="edge6" class="edge">
<title>ChildrenModule&#45;&gt;AppModule</title>
<path fill="none" stroke="black" d="M4520,-122.28C4520,-143.32 4520,-175 4520,-175 4520,-175 2861.85,-175 2861.85,-175"/>
<polygon fill="black" stroke="black" points="2861.85,-171.5 2851.85,-175 2861.85,-178.5 2861.85,-171.5"/>
</g>
<!-- ConfigurableEnumModule -->
<g id="node8" class="node">
<title>ConfigurableEnumModule</title>
<polygon fill="#8dd3c7" stroke="black" points="4447.36,-122 4444.36,-126 4423.36,-126 4420.36,-122 4280.64,-122 4280.64,-86 4447.36,-86 4447.36,-122"/>
<text text-anchor="middle" x="4364" y="-99.8" font-family="Times,serif" font-size="14.00">ConfigurableEnumModule</text>
</g>
<!-- ConfigurableEnumModule&#45;&gt;AppModule -->
<g id="edge7" class="edge">
<title>ConfigurableEnumModule&#45;&gt;AppModule</title>
<path fill="none" stroke="black" d="M4364,-122.13C4364,-142.57 4364,-173 4364,-173 4364,-173 2861.97,-173 2861.97,-173"/>
<polygon fill="black" stroke="black" points="2861.97,-169.5 2851.97,-173 2861.97,-176.5 2861.97,-169.5"/>
</g>
<!-- CoreModule -->
<g id="node9" class="node">
<title>CoreModule</title>
<polygon fill="#8dd3c7" stroke="black" points="4262.26,-122 4259.26,-126 4238.26,-126 4235.26,-122 4175.74,-122 4175.74,-86 4262.26,-86 4262.26,-122"/>
<text text-anchor="middle" x="4219" y="-99.8" font-family="Times,serif" font-size="14.00">CoreModule</text>
</g>
<!-- CoreModule&#45;&gt;AppModule -->
<g id="edge8" class="edge">
<title>CoreModule&#45;&gt;AppModule</title>
<path fill="none" stroke="black" d="M4219,-122.31C4219,-142.15 4219,-171 4219,-171 4219,-171 2861.79,-171 2861.79,-171"/>
<polygon fill="black" stroke="black" points="2861.79,-167.5 2851.79,-171 2861.79,-174.5 2861.79,-167.5"/>
</g>
<!-- DashboardModule -->
<g id="node10" class="node">
<title>DashboardModule</title>
<polygon fill="#8dd3c7" stroke="black" points="4158.19,-122 4155.19,-126 4134.19,-126 4131.19,-122 4037.81,-122 4037.81,-86 4158.19,-86 4158.19,-122"/>
<text text-anchor="middle" x="4098" y="-99.8" font-family="Times,serif" font-size="14.00">DashboardModule</text>
</g>
<!-- DashboardModule&#45;&gt;AppModule -->
<g id="edge9" class="edge">
<title>DashboardModule&#45;&gt;AppModule</title>
<path fill="none" stroke="black" d="M4098,-122.17C4098,-141.09 4098,-168 4098,-168 4098,-168 2861.76,-168 2861.76,-168"/>
<polygon fill="black" stroke="black" points="2861.76,-164.5 2851.76,-168 2861.76,-171.5 2861.76,-164.5"/>
</g>
<!-- DemoDataModule -->
<g id="node11" class="node">
<title>DemoDataModule</title>
<polygon fill="#8dd3c7" stroke="black" points="4020.19,-122 4017.19,-126 3996.19,-126 3993.19,-122 3899.81,-122 3899.81,-86 4020.19,-86 4020.19,-122"/>
<text text-anchor="middle" x="3960" y="-99.8" font-family="Times,serif" font-size="14.00">DemoDataModule</text>
</g>
<!-- DemoDataModule&#45;&gt;AppModule -->
<g id="edge10" class="edge">
<title>DemoDataModule&#45;&gt;AppModule</title>
<path fill="none" stroke="black" d="M3960,-122.27C3960,-140.56 3960,-166 3960,-166 3960,-166 2861.95,-166 2861.95,-166"/>
<polygon fill="black" stroke="black" points="2861.95,-162.5 2851.95,-166 2861.95,-169.5 2861.95,-162.5"/>
</g>
<!-- EmailClientServiceModule -->
<g id="node12" class="node">
<title>EmailClientServiceModule</title>
<polygon fill="#8dd3c7" stroke="black" points="3881.69,-122 3878.69,-126 3857.69,-126 3854.69,-122 3712.31,-122 3712.31,-86 3881.69,-86 3881.69,-122"/>
<text text-anchor="middle" x="3797" y="-99.8" font-family="Times,serif" font-size="14.00">EmailClientServiceModule</text>
</g>
<!-- EmailClientServiceModule&#45;&gt;AppModule -->
<g id="edge11" class="edge">
<title>EmailClientServiceModule&#45;&gt;AppModule</title>
<path fill="none" stroke="black" d="M3797,-122C3797,-139.68 3797,-164 3797,-164 3797,-164 2861.78,-164 2861.78,-164"/>
<polygon fill="black" stroke="black" points="2861.78,-160.5 2851.78,-164 2861.78,-167.5 2861.78,-160.5"/>
</g>
<!-- EntityCountDashboardWidgetModule -->
<g id="node13" class="node">
<title>EntityCountDashboardWidgetModule</title>
<polygon fill="#8dd3c7" stroke="black" points="3693.85,-122 3690.85,-126 3669.85,-126 3666.85,-122 3464.15,-122 3464.15,-86 3693.85,-86 3693.85,-122"/>
<text text-anchor="middle" x="3579" y="-99.8" font-family="Times,serif" font-size="14.00">EntityCountDashboardWidgetModule</text>
</g>
<!-- EntityCountDashboardWidgetModule&#45;&gt;AppModule -->
<g id="edge12" class="edge">
<title>EntityCountDashboardWidgetModule&#45;&gt;AppModule</title>
<path fill="none" stroke="black" d="M3579,-122.03C3579,-139.06 3579,-162 3579,-162 3579,-162 2861.89,-162 2861.89,-162"/>
<polygon fill="black" stroke="black" points="2861.89,-158.5 2851.89,-162 2861.89,-165.5 2861.89,-158.5"/>
</g>
<!-- FileModule -->
<g id="node14" class="node">
<title>FileModule</title>
<polygon fill="#8dd3c7" stroke="black" points="3445.83,-122 3442.83,-126 3421.83,-126 3418.83,-122 3364.17,-122 3364.17,-86 3445.83,-86 3445.83,-122"/>
<text text-anchor="middle" x="3405" y="-99.8" font-family="Times,serif" font-size="14.00">FileModule</text>
</g>
<!-- FileModule&#45;&gt;AppModule -->
<g id="edge13" class="edge">
<title>FileModule&#45;&gt;AppModule</title>
<path fill="none" stroke="black" d="M3405,-122.03C3405,-138.4 3405,-160 3405,-160 3405,-160 2861.84,-160 2861.84,-160"/>
<polygon fill="black" stroke="black" points="2861.84,-156.5 2851.84,-160 2861.84,-163.5 2861.84,-156.5"/>
</g>
<!-- ImportModule -->
<g id="node15" class="node">
<title>ImportModule</title>
<polygon fill="#8dd3c7" stroke="black" points="3346.65,-122 3343.65,-126 3322.65,-126 3319.65,-122 3249.35,-122 3249.35,-86 3346.65,-86 3346.65,-122"/>
<text text-anchor="middle" x="3298" y="-99.8" font-family="Times,serif" font-size="14.00">ImportModule</text>
</g>
<!-- ImportModule&#45;&gt;AppModule -->
<g id="edge14" class="edge">
<title>ImportModule&#45;&gt;AppModule</title>
<path fill="none" stroke="black" d="M3298,-122.28C3298,-137.95 3298,-158 3298,-158 3298,-158 2862.03,-158 2862.03,-158"/>
<polygon fill="black" stroke="black" points="2862.03,-154.5 2852.03,-158 2862.03,-161.5 2862.03,-154.5"/>
</g>
<!-- LanguageModule -->
<g id="node16" class="node">
<title>LanguageModule</title>
<polygon fill="#8dd3c7" stroke="black" points="3231.25,-122 3228.25,-126 3207.25,-126 3204.25,-122 3116.75,-122 3116.75,-86 3231.25,-86 3231.25,-122"/>
<text text-anchor="middle" x="3174" y="-99.8" font-family="Times,serif" font-size="14.00">LanguageModule</text>
</g>
<!-- LanguageModule&#45;&gt;AppModule -->
<g id="edge15" class="edge">
<title>LanguageModule&#45;&gt;AppModule</title>
<path fill="none" stroke="black" d="M3174,-122.19C3174,-137.18 3174,-156 3174,-156 3174,-156 2861.76,-156 2861.76,-156"/>
<polygon fill="black" stroke="black" points="2861.76,-152.5 2851.76,-156 2861.76,-159.5 2861.76,-152.5"/>
</g>
<!-- LatestChangesModule -->
<g id="node17" class="node">
<title>LatestChangesModule</title>
<polygon fill="#8dd3c7" stroke="black" points="3098.97,-122 3095.97,-126 3074.97,-126 3071.97,-122 2957.03,-122 2957.03,-86 3098.97,-86 3098.97,-122"/>
<text text-anchor="middle" x="3028" y="-99.8" font-family="Times,serif" font-size="14.00">LatestChangesModule</text>
</g>
<!-- LatestChangesModule&#45;&gt;AppModule -->
<g id="edge16" class="edge">
<title>LatestChangesModule&#45;&gt;AppModule</title>
<path fill="none" stroke="black" d="M3028,-122.05C3028,-136.37 3028,-154 3028,-154 3028,-154 2861.77,-154 2861.77,-154"/>
<polygon fill="black" stroke="black" points="2861.77,-150.5 2851.77,-154 2861.77,-157.5 2861.77,-150.5"/>
</g>
<!-- LocationModule -->
<g id="node18" class="node">
<title>LocationModule</title>
<polygon fill="#8dd3c7" stroke="black" points="2938.81,-122 2935.81,-126 2914.81,-126 2911.81,-122 2829.19,-122 2829.19,-86 2938.81,-86 2938.81,-122"/>
<text text-anchor="middle" x="2884" y="-99.8" font-family="Times,serif" font-size="14.00">LocationModule</text>
</g>
<!-- LocationModule&#45;&gt;AppModule -->
<g id="edge17" class="edge">
<title>LocationModule&#45;&gt;AppModule</title>
<path fill="none" stroke="black" d="M2840.59,-122.11C2840.59,-122.11 2840.59,-140.99 2840.59,-140.99"/>
<polygon fill="black" stroke="black" points="2837.09,-140.99 2840.59,-150.99 2844.09,-140.99 2837.09,-140.99"/>
</g>
<!-- MarkdownPageModule -->
<g id="node19" class="node">
<title>MarkdownPageModule</title>
<polygon fill="#8dd3c7" stroke="black" points="2811.19,-122 2808.19,-126 2787.19,-126 2784.19,-122 2662.81,-122 2662.81,-86 2811.19,-86 2811.19,-122"/>
<text text-anchor="middle" x="2737" y="-99.8" font-family="Times,serif" font-size="14.00">MarkdownPageModule</text>
</g>
<!-- MarkdownPageModule&#45;&gt;AppModule -->
<g id="edge18" class="edge">
<title>MarkdownPageModule&#45;&gt;AppModule</title>
<path fill="none" stroke="black" d="M2789.63,-122.11C2789.63,-122.11 2789.63,-140.99 2789.63,-140.99"/>
<polygon fill="black" stroke="black" points="2786.13,-140.99 2789.63,-150.99 2793.13,-140.99 2786.13,-140.99"/>
</g>
<!-- MatchingEntitiesModule -->
<g id="node20" class="node">
<title>MatchingEntitiesModule</title>
<polygon fill="#8dd3c7" stroke="black" points="2644.98,-122 2641.98,-126 2620.98,-126 2617.98,-122 2489.02,-122 2489.02,-86 2644.98,-86 2644.98,-122"/>
<text text-anchor="middle" x="2567" y="-99.8" font-family="Times,serif" font-size="14.00">MatchingEntitiesModule</text>
</g>
<!-- MatchingEntitiesModule&#45;&gt;AppModule -->
<g id="edge19" class="edge">
<title>MatchingEntitiesModule&#45;&gt;AppModule</title>
<path fill="none" stroke="black" d="M2567,-122.05C2567,-136.37 2567,-154 2567,-154 2567,-154 2758.23,-154 2758.23,-154"/>
<polygon fill="black" stroke="black" points="2758.23,-157.5 2768.23,-154 2758.23,-150.5 2758.23,-157.5"/>
</g>
<!-- NotesModule -->
<g id="node21" class="node">
<title>NotesModule</title>
<polygon fill="#8dd3c7" stroke="black" points="2471.21,-122 2468.21,-126 2447.21,-126 2444.21,-122 2378.79,-122 2378.79,-86 2471.21,-86 2471.21,-122"/>
<text text-anchor="middle" x="2425" y="-99.8" font-family="Times,serif" font-size="14.00">NotesModule</text>
</g>
<!-- NotesModule&#45;&gt;AppModule -->
<g id="edge20" class="edge">
<title>NotesModule&#45;&gt;AppModule</title>
<path fill="none" stroke="black" d="M2425,-122.19C2425,-137.18 2425,-156 2425,-156 2425,-156 2758.07,-156 2758.07,-156"/>
<polygon fill="black" stroke="black" points="2758.07,-159.5 2768.07,-156 2758.07,-152.5 2758.07,-159.5"/>
</g>
<!-- PermissionsModule -->
<g id="node22" class="node">
<title>PermissionsModule</title>
<polygon fill="#8dd3c7" stroke="black" points="2360.71,-122 2357.71,-126 2336.71,-126 2333.71,-122 2233.29,-122 2233.29,-86 2360.71,-86 2360.71,-122"/>
<text text-anchor="middle" x="2297" y="-99.8" font-family="Times,serif" font-size="14.00">PermissionsModule</text>
</g>
<!-- PermissionsModule&#45;&gt;AppModule -->
<g id="edge21" class="edge">
<title>PermissionsModule&#45;&gt;AppModule</title>
<path fill="none" stroke="black" d="M2297,-122.28C2297,-137.95 2297,-158 2297,-158 2297,-158 2758.02,-158 2758.02,-158"/>
<polygon fill="black" stroke="black" points="2758.02,-161.5 2768.02,-158 2758.02,-154.5 2758.02,-161.5"/>
</g>
<!-- ProgressDashboardWidgetModule -->
<g id="node23" class="node">
<title>ProgressDashboardWidgetModule</title>
<polygon fill="#8dd3c7" stroke="black" points="2215.61,-122 2212.61,-126 2191.61,-126 2188.61,-122 2006.39,-122 2006.39,-86 2215.61,-86 2215.61,-122"/>
<text text-anchor="middle" x="2111" y="-99.8" font-family="Times,serif" font-size="14.00">ProgressDashboardWidgetModule</text>
</g>
<!-- ProgressDashboardWidgetModule&#45;&gt;AppModule -->
<g id="edge22" class="edge">
<title>ProgressDashboardWidgetModule&#45;&gt;AppModule</title>
<path fill="none" stroke="black" d="M2111,-122.03C2111,-138.4 2111,-160 2111,-160 2111,-160 2758.11,-160 2758.11,-160"/>
<polygon fill="black" stroke="black" points="2758.11,-163.5 2768.11,-160 2758.11,-156.5 2758.11,-163.5"/>
</g>
<!-- PublicFormModule -->
<g id="node24" class="node">
<title>PublicFormModule</title>
<polygon fill="#8dd3c7" stroke="black" points="1987.66,-122 1984.66,-126 1963.66,-126 1960.66,-122 1862.34,-122 1862.34,-86 1987.66,-86 1987.66,-122"/>
<text text-anchor="middle" x="1925" y="-99.8" font-family="Times,serif" font-size="14.00">PublicFormModule</text>
</g>
<!-- PublicFormModule&#45;&gt;AppModule -->
<g id="edge23" class="edge">
<title>PublicFormModule&#45;&gt;AppModule</title>
<path fill="none" stroke="black" d="M1925,-122.03C1925,-139.06 1925,-162 1925,-162 1925,-162 2758.21,-162 2758.21,-162"/>
<polygon fill="black" stroke="black" points="2758.21,-165.5 2768.21,-162 2758.21,-158.5 2758.21,-165.5"/>
</g>
<!-- ReportingModule -->
<g id="node25" class="node">
<title>ReportingModule</title>
<polygon fill="#8dd3c7" stroke="black" points="1843.54,-122 1840.54,-126 1819.54,-126 1816.54,-122 1728.46,-122 1728.46,-86 1843.54,-86 1843.54,-122"/>
<text text-anchor="middle" x="1786" y="-99.8" font-family="Times,serif" font-size="14.00">ReportingModule</text>
</g>
<!-- ReportingModule&#45;&gt;AppModule -->
<g id="edge24" class="edge">
<title>ReportingModule&#45;&gt;AppModule</title>
<path fill="none" stroke="black" d="M1786,-122C1786,-139.68 1786,-164 1786,-164 1786,-164 2758.27,-164 2758.27,-164"/>
<polygon fill="black" stroke="black" points="2758.27,-167.5 2768.27,-164 2758.27,-160.5 2758.27,-167.5"/>
</g>
<!-- SessionModule -->
<g id="node26" class="node">
<title>SessionModule</title>
<polygon fill="#8dd3c7" stroke="black" points="1710.33,-122 1707.33,-126 1686.33,-126 1683.33,-122 1607.67,-122 1607.67,-86 1710.33,-86 1710.33,-122"/>
<text text-anchor="middle" x="1659" y="-99.8" font-family="Times,serif" font-size="14.00">SessionModule</text>
</g>
<!-- SessionModule&#45;&gt;AppModule -->
<g id="edge25" class="edge">
<title>SessionModule&#45;&gt;AppModule</title>
<path fill="none" stroke="black" d="M1659,-122.27C1659,-140.56 1659,-166 1659,-166 1659,-166 2758.01,-166 2758.01,-166"/>
<polygon fill="black" stroke="black" points="2758.01,-169.5 2768.01,-166 2758.01,-162.5 2758.01,-169.5"/>
</g>
<!-- ShortcutDashboardWidgetModule -->
<g id="node27" class="node">
<title>ShortcutDashboardWidgetModule</title>
<polygon fill="#8dd3c7" stroke="black" points="1589.34,-122 1586.34,-126 1565.34,-126 1562.34,-122 1380.66,-122 1380.66,-86 1589.34,-86 1589.34,-122"/>
<text text-anchor="middle" x="1485" y="-99.8" font-family="Times,serif" font-size="14.00">ShortcutDashboardWidgetModule</text>
</g>
<!-- ShortcutDashboardWidgetModule&#45;&gt;AppModule -->
<g id="edge26" class="edge">
<title>ShortcutDashboardWidgetModule&#45;&gt;AppModule</title>
<path fill="none" stroke="black" d="M1485,-122.17C1485,-141.09 1485,-168 1485,-168 1485,-168 2758.16,-168 2758.16,-168"/>
<polygon fill="black" stroke="black" points="2758.16,-171.5 2768.16,-168 2758.16,-164.5 2758.16,-171.5"/>
</g>
<!-- SkillModule -->
<g id="node28" class="node">
<title>SkillModule</title>
<polygon fill="#8dd3c7" stroke="black" points="1363,-122 1360,-126 1339,-126 1336,-122 1277,-122 1277,-86 1363,-86 1363,-122"/>
<text text-anchor="middle" x="1320" y="-99.8" font-family="Times,serif" font-size="14.00">SkillModule</text>
</g>
<!-- SkillModule&#45;&gt;AppModule -->
<g id="edge27" class="edge">
<title>SkillModule&#45;&gt;AppModule</title>
<path fill="none" stroke="black" d="M1320,-122.31C1320,-142.15 1320,-171 1320,-171 1320,-171 2758.2,-171 2758.2,-171"/>
<polygon fill="black" stroke="black" points="2758.2,-174.5 2768.2,-171 2758.2,-167.5 2758.2,-174.5"/>
</g>
<!-- TemplateExportModule -->
<g id="node29" class="node">
<title>TemplateExportModule</title>
<polygon fill="#8dd3c7" stroke="black" points="1259.02,-122 1256.02,-126 1235.02,-126 1232.02,-122 1108.98,-122 1108.98,-86 1259.02,-86 1259.02,-122"/>
<text text-anchor="middle" x="1184" y="-99.8" font-family="Times,serif" font-size="14.00">TemplateExportModule</text>
</g>
<!-- TemplateExportModule&#45;&gt;AppModule -->
<g id="edge28" class="edge">
<title>TemplateExportModule&#45;&gt;AppModule</title>
<path fill="none" stroke="black" d="M1184,-122.13C1184,-142.57 1184,-173 1184,-173 1184,-173 2758.17,-173 2758.17,-173"/>
<polygon fill="black" stroke="black" points="2758.17,-176.5 2768.17,-173 2758.17,-169.5 2758.17,-176.5"/>
</g>
<!-- TodosModule -->
<g id="node30" class="node">
<title>TodosModule</title>
<polygon fill="#8dd3c7" stroke="black" points="1090.05,-122 1087.05,-126 1066.05,-126 1063.05,-122 995.95,-122 995.95,-86 1090.05,-86 1090.05,-122"/>
<text text-anchor="middle" x="1043" y="-99.8" font-family="Times,serif" font-size="14.00">TodosModule</text>
</g>
<!-- TodosModule&#45;&gt;AppModule -->
<g id="edge29" class="edge">
<title>TodosModule&#45;&gt;AppModule</title>
<path fill="none" stroke="black" d="M1043,-122.28C1043,-143.32 1043,-175 1043,-175 1043,-175 2758.06,-175 2758.06,-175"/>
<polygon fill="black" stroke="black" points="2758.06,-178.5 2768.06,-175 2758.06,-171.5 2758.06,-178.5"/>
</g>
<!-- UiComponent -->
<g id="node31" class="node">
<title>UiComponent</title>
<polygon fill="#8dd3c7" stroke="black" points="977.83,-122 974.83,-126 953.83,-126 950.83,-122 882.17,-122 882.17,-86 977.83,-86 977.83,-122"/>
<text text-anchor="middle" x="930" y="-99.8" font-family="Times,serif" font-size="14.00">UiComponent</text>
</g>
<!-- UiComponent&#45;&gt;AppModule -->
<g id="edge30" class="edge">
<title>UiComponent&#45;&gt;AppModule</title>
<path fill="none" stroke="black" d="M930,-122.04C930,-143.66 930,-177 930,-177 930,-177 2758.1,-177 2758.1,-177"/>
<polygon fill="black" stroke="black" points="2758.1,-180.5 2768.1,-177 2758.1,-173.5 2758.1,-180.5"/>
</g>
<!-- AnalyticsService -->
<g id="node33" class="node">
<title>AnalyticsService</title>
<ellipse fill="#fdb462" stroke="black" cx="781" cy="-104" rx="77" ry="18"/>
<text text-anchor="middle" x="781" y="-99.8" font-family="Times,serif" font-size="14.00">AnalyticsService</text>
</g>
<!-- AnalyticsService&#45;&gt;AppModule -->
<g id="edge32" class="edge">
<title>AnalyticsService&#45;&gt;AppModule</title>
<path fill="none" stroke="black" d="M781,-122.16C781,-144.35 781,-179 781,-179 781,-179 2758.09,-179 2758.09,-179"/>
<polygon fill="black" stroke="black" points="2758.09,-182.5 2768.09,-179 2758.09,-175.5 2758.09,-182.5"/>
</g>
<!-- DateAdapterWithFormatting -->
<g id="node34" class="node">
<title>DateAdapterWithFormatting</title>
<ellipse fill="#fdb462" stroke="black" cx="563" cy="-104" rx="122.69" ry="18"/>
<text text-anchor="middle" x="563" y="-99.8" font-family="Times,serif" font-size="14.00">DateAdapterWithFormatting</text>
</g>
<!-- DateAdapterWithFormatting&#45;&gt;AppModule -->
<g id="edge33" class="edge">
<title>DateAdapterWithFormatting&#45;&gt;AppModule</title>
<path fill="none" stroke="black" d="M563,-122.25C563,-145.02 563,-181 563,-181 563,-181 2758.11,-181 2758.11,-181"/>
<polygon fill="black" stroke="black" points="2758.11,-184.5 2768.11,-181 2758.11,-177.5 2758.11,-184.5"/>
</g>
<!-- KeycloakAdminService -->
<g id="node35" class="node">
<title>KeycloakAdminService</title>
<ellipse fill="#fdb462" stroke="black" cx="319" cy="-104" rx="103.63" ry="18"/>
<text text-anchor="middle" x="319" y="-99.8" font-family="Times,serif" font-size="14.00">KeycloakAdminService</text>
</g>
<!-- KeycloakAdminService&#45;&gt;AppModule -->
<g id="edge34" class="edge">
<title>KeycloakAdminService&#45;&gt;AppModule</title>
<path fill="none" stroke="black" d="M319,-122.32C319,-145.66 319,-183 319,-183 319,-183 2758.33,-183 2758.33,-183"/>
<polygon fill="black" stroke="black" points="2758.33,-186.5 2768.33,-183 2758.33,-179.5 2758.33,-186.5"/>
</g>
<!-- NotificationService -->
<g id="node36" class="node">
<title>NotificationService</title>
<ellipse fill="#fdb462" stroke="black" cx="111" cy="-104" rx="86.81" ry="18"/>
<text text-anchor="middle" x="111" y="-99.8" font-family="Times,serif" font-size="14.00">NotificationService</text>
</g>
<!-- NotificationService&#45;&gt;AppModule -->
<g id="edge35" class="edge">
<title>NotificationService&#45;&gt;AppModule</title>
<path fill="none" stroke="black" d="M111,-122.38C111,-146.28 111,-185 111,-185 111,-185 2758.15,-185 2758.15,-185"/>
<polygon fill="black" stroke="black" points="2758.15,-188.5 2768.15,-185 2758.15,-181.5 2758.15,-188.5"/>
</g>
</g>
</svg>
