<?xml version="1.0" encoding="UTF-8" standalone="no"?>
<!DOCTYPE svg PUBLIC "-//W3C//DTD SVG 1.1//EN"
 "http://www.w3.org/Graphics/SVG/1.1/DTD/svg11.dtd">
<!-- Generated by graphviz version 2.47.0 (20210316.0004)
 -->
<!-- Title: dependencies Pages: 1 -->
<svg width="4104pt" height="284pt"
 viewBox="0.00 0.00 4104.00 284.00" xmlns="http://www.w3.org/2000/svg" xmlns:xlink="http://www.w3.org/1999/xlink">
<g id="graph0" class="graph" transform="scale(1 1) rotate(0) translate(4 280)">
<title>dependencies</title>
<polygon fill="white" stroke="transparent" points="-4,4 -4,-280 4100,-280 4100,4 -4,4"/>
<text text-anchor="start" x="2027.01" y="-42.4" font-family="Times-12" font-weight="bold" font-size="14.00">Legend</text>
<polygon fill="#ffffb3" stroke="transparent" points="1814,-10 1814,-30 1834,-30 1834,-10 1814,-10"/>
<text text-anchor="start" x="1837.63" y="-15.4" font-family="Times-12" font-size="14.00"> &#160;Declarations</text>
<polygon fill="#8dd3c7" stroke="transparent" points="1927,-10 1927,-30 1947,-30 1947,-10 1927,-10"/>
<text text-anchor="start" x="1950.73" y="-15.4" font-family="Times-12" font-size="14.00"> &#160;Module</text>
<polygon fill="#80b1d3" stroke="transparent" points="2013,-10 2013,-30 2033,-30 2033,-10 2013,-10"/>
<text text-anchor="start" x="2036.78" y="-15.4" font-family="Times-12" font-size="14.00"> &#160;Bootstrap</text>
<polygon fill="#fdb462" stroke="transparent" points="2110,-10 2110,-30 2130,-30 2130,-10 2110,-10"/>
<text text-anchor="start" x="2133.67" y="-15.4" font-family="Times-12" font-size="14.00"> &#160;Providers</text>
<polygon fill="#fb8072" stroke="transparent" points="2206,-10 2206,-30 2226,-30 2226,-10 2206,-10"/>
<text text-anchor="start" x="2229.73" y="-15.4" font-family="Times-12" font-size="14.00"> &#160;Exports</text>
<g id="clust1" class="cluster">
<title>cluster_AppModule</title>
<polygon fill="none" stroke="black" stroke-dasharray="1,5" points="8,-70 8,-268 4088,-268 4088,-70 8,-70"/>
</g>
<g id="clust4" class="cluster">
<title>cluster_AppModule_imports</title>
<polygon fill="none" stroke="black" points="324,-78 324,-130 4080,-130 4080,-78 324,-78"/>
</g>
<g id="clust6" class="cluster">
<title>cluster_AppModule_bootstrap</title>
<polygon fill="none" stroke="black" points="2022,-208 2022,-260 2146,-260 2146,-208 2022,-208"/>
</g>
<g id="clust2" class="cluster">
<title>cluster_AppModule_declarations</title>
<polygon fill="none" stroke="black" points="194,-78 194,-130 316,-130 316,-78 194,-78"/>
</g>
<g id="clust7" class="cluster">
<title>cluster_AppModule_providers</title>
<polygon fill="none" stroke="black" points="16,-78 16,-130 186,-130 186,-78 16,-78"/>
</g>
<!-- AppComponent -->
<g id="node1" class="node">
<title>AppComponent</title>
<polygon fill="#ffffb3" stroke="black" points="307.94,-122 202.06,-122 202.06,-86 307.94,-86 307.94,-122"/>
<text text-anchor="middle" x="255" y="-99.8" font-family="Times,serif" font-size="14.00">AppComponent</text>
</g>
<!-- AppModule -->
<g id="node2" class="node">
<title>AppModule</title>
<polygon fill="#8dd3c7" stroke="black" points="2125.66,-187 2122.66,-191 2101.66,-191 2098.66,-187 2042.34,-187 2042.34,-151 2125.66,-151 2125.66,-187"/>
<text text-anchor="middle" x="2084" y="-164.8" font-family="Times,serif" font-size="14.00">AppModule</text>
</g>
<!-- AppComponent&#45;&gt;AppModule -->
<g id="edge1" class="edge">
<title>AppComponent&#45;&gt;AppModule</title>
<path fill="none" stroke="black" d="M255,-122.09C255,-145.13 255,-182 255,-182 255,-182 2031.92,-182 2031.92,-182"/>
<polygon fill="black" stroke="black" points="2031.92,-185.5 2041.92,-182 2031.92,-178.5 2031.92,-185.5"/>
</g>
<!-- AppComponent  -->
<g id="node28" class="node">
<title>AppComponent </title>
<polygon fill="#80b1d3" stroke="black" points="2138.44,-252 2029.56,-252 2029.56,-216 2138.44,-216 2138.44,-252"/>
<text text-anchor="middle" x="2084" y="-229.8" font-family="Times,serif" font-size="14.00">AppComponent </text>
</g>
<!-- AppModule&#45;&gt;AppComponent  -->
<g id="edge27" class="edge">
<title>AppModule&#45;&gt;AppComponent </title>
<path fill="none" stroke="black" stroke-dasharray="1,5" d="M2084,-187.11C2084,-187.11 2084,-205.99 2084,-205.99"/>
<polygon fill="black" stroke="black" points="2080.5,-205.99 2084,-215.99 2087.5,-205.99 2080.5,-205.99"/>
</g>
<!-- AdminModule -->
<g id="node3" class="node">
<title>AdminModule</title>
<polygon fill="#8dd3c7" stroke="black" points="4072.44,-122 4069.44,-126 4048.44,-126 4045.44,-122 3973.56,-122 3973.56,-86 4072.44,-86 4072.44,-122"/>
<text text-anchor="middle" x="4023" y="-99.8" font-family="Times,serif" font-size="14.00">AdminModule</text>
</g>
<!-- AdminModule&#45;&gt;AppModule -->
<g id="edge2" class="edge">
<title>AdminModule&#45;&gt;AppModule</title>
<path fill="none" stroke="black" d="M4023,-122.38C4023,-146.28 4023,-185 4023,-185 4023,-185 2135.85,-185 2135.85,-185"/>
<polygon fill="black" stroke="black" points="2135.85,-181.5 2125.85,-185 2135.85,-188.5 2135.85,-181.5"/>
</g>
<!-- AttendanceModule -->
<g id="node4" class="node">
<title>AttendanceModule</title>
<polygon fill="#8dd3c7" stroke="black" points="3955.8,-122 3952.8,-126 3931.8,-126 3928.8,-122 3832.2,-122 3832.2,-86 3955.8,-86 3955.8,-122"/>
<text text-anchor="middle" x="3894" y="-99.8" font-family="Times,serif" font-size="14.00">AttendanceModule</text>
</g>
<!-- AttendanceModule&#45;&gt;AppModule -->
<g id="edge3" class="edge">
<title>AttendanceModule&#45;&gt;AppModule</title>
<path fill="none" stroke="black" d="M3894,-122.09C3894,-145.13 3894,-182 3894,-182 3894,-182 2136.08,-182 2136.08,-182"/>
<polygon fill="black" stroke="black" points="2136.08,-178.5 2126.08,-182 2136.08,-185.5 2136.08,-178.5"/>
</g>
<!-- BirthdayDashboardWidgetModule -->
<g id="node5" class="node">
<title>BirthdayDashboardWidgetModule</title>
<polygon fill="#8dd3c7" stroke="black" points="3814.39,-122 3811.39,-126 3790.39,-126 3787.39,-122 3603.61,-122 3603.61,-86 3814.39,-86 3814.39,-122"/>
<text text-anchor="middle" x="3709" y="-99.8" font-family="Times,serif" font-size="14.00">BirthdayDashboardWidgetModule</text>
</g>
<!-- BirthdayDashboardWidgetModule&#45;&gt;AppModule -->
<g id="edge4" class="edge">
<title>BirthdayDashboardWidgetModule&#45;&gt;AppModule</title>
<path fill="none" stroke="black" d="M3709,-122.01C3709,-144.49 3709,-180 3709,-180 3709,-180 2135.8,-180 2135.8,-180"/>
<polygon fill="black" stroke="black" points="2135.8,-176.5 2125.8,-180 2135.8,-183.5 2135.8,-176.5"/>
</g>
<!-- ChildrenModule -->
<g id="node6" class="node">
<title>ChildrenModule</title>
<polygon fill="#8dd3c7" stroke="black" points="3586.04,-122 3583.04,-126 3562.04,-126 3559.04,-122 3477.96,-122 3477.96,-86 3586.04,-86 3586.04,-122"/>
<text text-anchor="middle" x="3532" y="-99.8" font-family="Times,serif" font-size="14.00">ChildrenModule</text>
</g>
<!-- ChildrenModule&#45;&gt;AppModule -->
<g id="edge5" class="edge">
<title>ChildrenModule&#45;&gt;AppModule</title>
<path fill="none" stroke="black" d="M3532,-122.04C3532,-143.66 3532,-177 3532,-177 3532,-177 2135.77,-177 2135.77,-177"/>
<polygon fill="black" stroke="black" points="2135.77,-173.5 2125.77,-177 2135.77,-180.5 2135.77,-173.5"/>
</g>
<!-- ConfigurableEnumModule -->
<g id="node7" class="node">
<title>ConfigurableEnumModule</title>
<polygon fill="#8dd3c7" stroke="black" points="3459.36,-122 3456.36,-126 3435.36,-126 3432.36,-122 3292.64,-122 3292.64,-86 3459.36,-86 3459.36,-122"/>
<text text-anchor="middle" x="3376" y="-99.8" font-family="Times,serif" font-size="14.00">ConfigurableEnumModule</text>
</g>
<!-- ConfigurableEnumModule&#45;&gt;AppModule -->
<g id="edge6" class="edge">
<title>ConfigurableEnumModule&#45;&gt;AppModule</title>
<path fill="none" stroke="black" d="M3376,-122.28C3376,-143.32 3376,-175 3376,-175 3376,-175 2135.89,-175 2135.89,-175"/>
<polygon fill="black" stroke="black" points="2135.89,-171.5 2125.89,-175 2135.89,-178.5 2135.89,-171.5"/>
</g>
<!-- CoreModule -->
<g id="node8" class="node">
<title>CoreModule</title>
<polygon fill="#8dd3c7" stroke="black" points="3274.26,-122 3271.26,-126 3250.26,-126 3247.26,-122 3187.74,-122 3187.74,-86 3274.26,-86 3274.26,-122"/>
<text text-anchor="middle" x="3231" y="-99.8" font-family="Times,serif" font-size="14.00">CoreModule</text>
</g>
<!-- CoreModule&#45;&gt;AppModule -->
<g id="edge7" class="edge">
<title>CoreModule&#45;&gt;AppModule</title>
<path fill="none" stroke="black" d="M3231,-122.22C3231,-142.37 3231,-172 3231,-172 3231,-172 2135.84,-172 2135.84,-172"/>
<polygon fill="black" stroke="black" points="2135.84,-168.5 2125.84,-172 2135.84,-175.5 2135.84,-168.5"/>
</g>
<!-- DatabaseModule -->
<g id="node9" class="node">
<title>DatabaseModule</title>
<polygon fill="#8dd3c7" stroke="black" points="3169.35,-122 3166.35,-126 3145.35,-126 3142.35,-122 3058.65,-122 3058.65,-86 3169.35,-86 3169.35,-122"/>
<text text-anchor="middle" x="3114" y="-99.8" font-family="Times,serif" font-size="14.00">DatabaseModule</text>
</g>
<!-- DatabaseModule&#45;&gt;AppModule -->
<g id="edge8" class="edge">
<title>DatabaseModule&#45;&gt;AppModule</title>
<path fill="none" stroke="black" d="M3114,-122.11C3114,-141.34 3114,-169 3114,-169 3114,-169 2135.97,-169 2135.97,-169"/>
<polygon fill="black" stroke="black" points="2135.97,-165.5 2125.97,-169 2135.97,-172.5 2135.97,-165.5"/>
</g>
<!-- EntityCountDashboardWidgetModule -->
<g id="node10" class="node">
<title>EntityCountDashboardWidgetModule</title>
<polygon fill="#8dd3c7" stroke="black" points="3040.85,-122 3037.85,-126 3016.85,-126 3013.85,-122 2811.15,-122 2811.15,-86 3040.85,-86 3040.85,-122"/>
<text text-anchor="middle" x="2926" y="-99.8" font-family="Times,serif" font-size="14.00">EntityCountDashboardWidgetModule</text>
</g>
<!-- EntityCountDashboardWidgetModule&#45;&gt;AppModule -->
<g id="edge9" class="edge">
<title>EntityCountDashboardWidgetModule&#45;&gt;AppModule</title>
<path fill="none" stroke="black" d="M2926,-122.22C2926,-140.83 2926,-167 2926,-167 2926,-167 2135.75,-167 2135.75,-167"/>
<polygon fill="black" stroke="black" points="2135.75,-163.5 2125.75,-167 2135.75,-170.5 2135.75,-163.5"/>
</g>
<!-- FileModule -->
<g id="node11" class="node">
<title>FileModule</title>
<polygon fill="#8dd3c7" stroke="black" points="2792.83,-122 2789.83,-126 2768.83,-126 2765.83,-122 2711.17,-122 2711.17,-86 2792.83,-86 2792.83,-122"/>
<text text-anchor="middle" x="2752" y="-99.8" font-family="Times,serif" font-size="14.00">FileModule</text>
</g>
<!-- FileModule&#45;&gt;AppModule -->
<g id="edge10" class="edge">
<title>FileModule&#45;&gt;AppModule</title>
<path fill="none" stroke="black" d="M2752,-122C2752,-139.68 2752,-164 2752,-164 2752,-164 2135.79,-164 2135.79,-164"/>
<polygon fill="black" stroke="black" points="2135.79,-160.5 2125.79,-164 2135.79,-167.5 2135.79,-160.5"/>
</g>
<!-- ImportModule -->
<g id="node12" class="node">
<title>ImportModule</title>
<polygon fill="#8dd3c7" stroke="black" points="2693.65,-122 2690.65,-126 2669.65,-126 2666.65,-122 2596.35,-122 2596.35,-86 2693.65,-86 2693.65,-122"/>
<text text-anchor="middle" x="2645" y="-99.8" font-family="Times,serif" font-size="14.00">ImportModule</text>
</g>
<!-- ImportModule&#45;&gt;AppModule -->
<g id="edge11" class="edge">
<title>ImportModule&#45;&gt;AppModule</title>
<path fill="none" stroke="black" d="M2645,-122.03C2645,-139.06 2645,-162 2645,-162 2645,-162 2135.71,-162 2135.71,-162"/>
<polygon fill="black" stroke="black" points="2135.71,-158.5 2125.71,-162 2135.71,-165.5 2135.71,-158.5"/>
</g>
<!-- LanguageModule -->
<g id="node13" class="node">
<title>LanguageModule</title>
<polygon fill="#8dd3c7" stroke="black" points="2578.25,-122 2575.25,-126 2554.25,-126 2551.25,-122 2463.75,-122 2463.75,-86 2578.25,-86 2578.25,-122"/>
<text text-anchor="middle" x="2521" y="-99.8" font-family="Times,serif" font-size="14.00">LanguageModule</text>
</g>
<!-- LanguageModule&#45;&gt;AppModule -->
<g id="edge12" class="edge">
<title>LanguageModule&#45;&gt;AppModule</title>
<path fill="none" stroke="black" d="M2521,-122.01C2521,-138.05 2521,-159 2521,-159 2521,-159 2135.9,-159 2135.9,-159"/>
<polygon fill="black" stroke="black" points="2135.9,-155.5 2125.9,-159 2135.9,-162.5 2135.9,-155.5"/>
</g>
<!-- LatestChangesModule -->
<g id="node14" class="node">
<title>LatestChangesModule</title>
<polygon fill="#8dd3c7" stroke="black" points="2445.97,-122 2442.97,-126 2421.97,-126 2418.97,-122 2304.03,-122 2304.03,-86 2445.97,-86 2445.97,-122"/>
<text text-anchor="middle" x="2375" y="-99.8" font-family="Times,serif" font-size="14.00">LatestChangesModule</text>
</g>
<!-- LatestChangesModule&#45;&gt;AppModule -->
<g id="edge13" class="edge">
<title>LatestChangesModule&#45;&gt;AppModule</title>
<path fill="none" stroke="black" d="M2375,-122.24C2375,-137.57 2375,-157 2375,-157 2375,-157 2135.69,-157 2135.69,-157"/>
<polygon fill="black" stroke="black" points="2135.69,-153.5 2125.69,-157 2135.69,-160.5 2135.69,-153.5"/>
</g>
<!-- LocationModule -->
<g id="node15" class="node">
<title>LocationModule</title>
<polygon fill="#8dd3c7" stroke="black" points="2285.81,-122 2282.81,-126 2261.81,-126 2258.81,-122 2176.19,-122 2176.19,-86 2285.81,-86 2285.81,-122"/>
<text text-anchor="middle" x="2231" y="-99.8" font-family="Times,serif" font-size="14.00">LocationModule</text>
</g>
<!-- LocationModule&#45;&gt;AppModule -->
<g id="edge14" class="edge">
<title>LocationModule&#45;&gt;AppModule</title>
<path fill="none" stroke="black" d="M2231,-122.05C2231,-136.37 2231,-154 2231,-154 2231,-154 2135.73,-154 2135.73,-154"/>
<polygon fill="black" stroke="black" points="2135.73,-150.5 2125.73,-154 2135.73,-157.5 2135.73,-150.5"/>
</g>
<!-- MarkdownPageModule -->
<g id="node16" class="node">
<title>MarkdownPageModule</title>
<polygon fill="#8dd3c7" stroke="black" points="2158.19,-122 2155.19,-126 2134.19,-126 2131.19,-122 2009.81,-122 2009.81,-86 2158.19,-86 2158.19,-122"/>
<text text-anchor="middle" x="2084" y="-99.8" font-family="Times,serif" font-size="14.00">MarkdownPageModule</text>
</g>
<!-- MarkdownPageModule&#45;&gt;AppModule -->
<g id="edge15" class="edge">
<title>MarkdownPageModule&#45;&gt;AppModule</title>
<path fill="none" stroke="black" d="M2084,-122.11C2084,-122.11 2084,-140.99 2084,-140.99"/>
<polygon fill="black" stroke="black" points="2080.5,-140.99 2084,-150.99 2087.5,-140.99 2080.5,-140.99"/>
</g>
<!-- MatchingEntitiesModule -->
<g id="node17" class="node">
<title>MatchingEntitiesModule</title>
<polygon fill="#8dd3c7" stroke="black" points="1991.98,-122 1988.98,-126 1967.98,-126 1964.98,-122 1836.02,-122 1836.02,-86 1991.98,-86 1991.98,-122"/>
<text text-anchor="middle" x="1914" y="-99.8" font-family="Times,serif" font-size="14.00">MatchingEntitiesModule</text>
</g>
<!-- MatchingEntitiesModule&#45;&gt;AppModule -->
<g id="edge16" class="edge">
<title>MatchingEntitiesModule&#45;&gt;AppModule</title>
<path fill="none" stroke="black" d="M1914,-122.05C1914,-136.37 1914,-154 1914,-154 1914,-154 2031.98,-154 2031.98,-154"/>
<polygon fill="black" stroke="black" points="2031.98,-157.5 2041.98,-154 2031.98,-150.5 2031.98,-157.5"/>
</g>
<!-- NotesModule -->
<g id="node18" class="node">
<title>NotesModule</title>
<polygon fill="#8dd3c7" stroke="black" points="1818.21,-122 1815.21,-126 1794.21,-126 1791.21,-122 1725.79,-122 1725.79,-86 1818.21,-86 1818.21,-122"/>
<text text-anchor="middle" x="1772" y="-99.8" font-family="Times,serif" font-size="14.00">NotesModule</text>
</g>
<!-- NotesModule&#45;&gt;AppModule -->
<g id="edge17" class="edge">
<title>NotesModule&#45;&gt;AppModule</title>
<path fill="none" stroke="black" d="M1772,-122.24C1772,-137.57 1772,-157 1772,-157 1772,-157 2032.25,-157 2032.25,-157"/>
<polygon fill="black" stroke="black" points="2032.25,-160.5 2042.25,-157 2032.25,-153.5 2032.25,-160.5"/>
</g>
<!-- PermissionsModule -->
<g id="node19" class="node">
<title>PermissionsModule</title>
<polygon fill="#8dd3c7" stroke="black" points="1707.71,-122 1704.71,-126 1683.71,-126 1680.71,-122 1580.29,-122 1580.29,-86 1707.71,-86 1707.71,-122"/>
<text text-anchor="middle" x="1644" y="-99.8" font-family="Times,serif" font-size="14.00">PermissionsModule</text>
</g>
<!-- PermissionsModule&#45;&gt;AppModule -->
<g id="edge18" class="edge">
<title>PermissionsModule&#45;&gt;AppModule</title>
<path fill="none" stroke="black" d="M1644,-122.01C1644,-138.05 1644,-159 1644,-159 1644,-159 2032.21,-159 2032.21,-159"/>
<polygon fill="black" stroke="black" points="2032.21,-162.5 2042.21,-159 2032.21,-155.5 2032.21,-162.5"/>
</g>
<!-- ProgressDashboardWidgetModule -->
<g id="node20" class="node">
<title>ProgressDashboardWidgetModule</title>
<polygon fill="#8dd3c7" stroke="black" points="1562.61,-122 1559.61,-126 1538.61,-126 1535.61,-122 1353.39,-122 1353.39,-86 1562.61,-86 1562.61,-122"/>
<text text-anchor="middle" x="1458" y="-99.8" font-family="Times,serif" font-size="14.00">ProgressDashboardWidgetModule</text>
</g>
<!-- ProgressDashboardWidgetModule&#45;&gt;AppModule -->
<g id="edge19" class="edge">
<title>ProgressDashboardWidgetModule&#45;&gt;AppModule</title>
<path fill="none" stroke="black" d="M1458,-122.03C1458,-139.06 1458,-162 1458,-162 1458,-162 2031.95,-162 2031.95,-162"/>
<polygon fill="black" stroke="black" points="2031.95,-165.5 2041.95,-162 2031.95,-158.5 2031.95,-165.5"/>
</g>
<!-- PublicFormModule -->
<g id="node21" class="node">
<title>PublicFormModule</title>
<polygon fill="#8dd3c7" stroke="black" points="1334.66,-122 1331.66,-126 1310.66,-126 1307.66,-122 1209.34,-122 1209.34,-86 1334.66,-86 1334.66,-122"/>
<text text-anchor="middle" x="1272" y="-99.8" font-family="Times,serif" font-size="14.00">PublicFormModule</text>
</g>
<!-- PublicFormModule&#45;&gt;AppModule -->
<g id="edge20" class="edge">
<title>PublicFormModule&#45;&gt;AppModule</title>
<path fill="none" stroke="black" d="M1272,-122C1272,-139.68 1272,-164 1272,-164 1272,-164 2032.34,-164 2032.34,-164"/>
<polygon fill="black" stroke="black" points="2032.34,-167.5 2042.34,-164 2032.34,-160.5 2032.34,-167.5"/>
</g>
<!-- ReportingModule -->
<g id="node22" class="node">
<title>ReportingModule</title>
<polygon fill="#8dd3c7" stroke="black" points="1190.54,-122 1187.54,-126 1166.54,-126 1163.54,-122 1075.46,-122 1075.46,-86 1190.54,-86 1190.54,-122"/>
<text text-anchor="middle" x="1133" y="-99.8" font-family="Times,serif" font-size="14.00">ReportingModule</text>
</g>
<!-- ReportingModule&#45;&gt;AppModule -->
<g id="edge21" class="edge">
<title>ReportingModule&#45;&gt;AppModule</title>
<path fill="none" stroke="black" d="M1133,-122.22C1133,-140.83 1133,-167 1133,-167 1133,-167 2032.22,-167 2032.22,-167"/>
<polygon fill="black" stroke="black" points="2032.22,-170.5 2042.22,-167 2032.22,-163.5 2032.22,-170.5"/>
</g>
<!-- SessionModule -->
<g id="node23" class="node">
<title>SessionModule</title>
<polygon fill="#8dd3c7" stroke="black" points="1057.33,-122 1054.33,-126 1033.33,-126 1030.33,-122 954.67,-122 954.67,-86 1057.33,-86 1057.33,-122"/>
<text text-anchor="middle" x="1006" y="-99.8" font-family="Times,serif" font-size="14.00">SessionModule</text>
</g>
<!-- SessionModule&#45;&gt;AppModule -->
<g id="edge22" class="edge">
<title>SessionModule&#45;&gt;AppModule</title>
<path fill="none" stroke="black" d="M1006,-122.11C1006,-141.34 1006,-169 1006,-169 1006,-169 2032.07,-169 2032.07,-169"/>
<polygon fill="black" stroke="black" points="2032.07,-172.5 2042.07,-169 2032.07,-165.5 2032.07,-172.5"/>
</g>
<!-- ShortcutDashboardWidgetModule -->
<g id="node24" class="node">
<title>ShortcutDashboardWidgetModule</title>
<polygon fill="#8dd3c7" stroke="black" points="936.34,-122 933.34,-126 912.34,-126 909.34,-122 727.66,-122 727.66,-86 936.34,-86 936.34,-122"/>
<text text-anchor="middle" x="832" y="-99.8" font-family="Times,serif" font-size="14.00">ShortcutDashboardWidgetModule</text>
</g>
<!-- ShortcutDashboardWidgetModule&#45;&gt;AppModule -->
<g id="edge23" class="edge">
<title>ShortcutDashboardWidgetModule&#45;&gt;AppModule</title>
<path fill="none" stroke="black" d="M832,-122.22C832,-142.37 832,-172 832,-172 832,-172 2031.99,-172 2031.99,-172"/>
<polygon fill="black" stroke="black" points="2031.99,-175.5 2041.99,-172 2031.99,-168.5 2031.99,-175.5"/>
</g>
<!-- TemplateExportModule -->
<g id="node25" class="node">
<title>TemplateExportModule</title>
<polygon fill="#8dd3c7" stroke="black" points="709.02,-122 706.02,-126 685.02,-126 682.02,-122 558.98,-122 558.98,-86 709.02,-86 709.02,-122"/>
<text text-anchor="middle" x="634" y="-99.8" font-family="Times,serif" font-size="14.00">TemplateExportModule</text>
</g>
<!-- TemplateExportModule&#45;&gt;AppModule -->
<g id="edge24" class="edge">
<title>TemplateExportModule&#45;&gt;AppModule</title>
<path fill="none" stroke="black" d="M634,-122.28C634,-143.32 634,-175 634,-175 634,-175 2032.17,-175 2032.17,-175"/>
<polygon fill="black" stroke="black" points="2032.17,-178.5 2042.17,-175 2032.17,-171.5 2032.17,-178.5"/>
</g>
<!-- TodosModule -->
<g id="node26" class="node">
<title>TodosModule</title>
<polygon fill="#8dd3c7" stroke="black" points="540.05,-122 537.05,-126 516.05,-126 513.05,-122 445.95,-122 445.95,-86 540.05,-86 540.05,-122"/>
<text text-anchor="middle" x="493" y="-99.8" font-family="Times,serif" font-size="14.00">TodosModule</text>
</g>
<!-- TodosModule&#45;&gt;AppModule -->
<g id="edge25" class="edge">
<title>TodosModule&#45;&gt;AppModule</title>
<path fill="none" stroke="black" d="M493,-122.04C493,-143.66 493,-177 493,-177 493,-177 2032.26,-177 2032.26,-177"/>
<polygon fill="black" stroke="black" points="2032.26,-180.5 2042.26,-177 2032.26,-173.5 2032.26,-180.5"/>
</g>
<!-- UiComponent -->
<g id="node27" class="node">
<title>UiComponent</title>
<polygon fill="#8dd3c7" stroke="black" points="427.83,-122 424.83,-126 403.83,-126 400.83,-122 332.17,-122 332.17,-86 427.83,-86 427.83,-122"/>
<text text-anchor="middle" x="380" y="-99.8" font-family="Times,serif" font-size="14.00">UiComponent</text>
</g>
<!-- UiComponent&#45;&gt;AppModule -->
<g id="edge26" class="edge">
<title>UiComponent&#45;&gt;AppModule</title>
<path fill="none" stroke="black" d="M380,-122.01C380,-144.49 380,-180 380,-180 380,-180 2032.3,-180 2032.3,-180"/>
<polygon fill="black" stroke="black" points="2032.3,-183.5 2042.3,-180 2032.3,-176.5 2032.3,-183.5"/>
</g>
<!-- AnalyticsService -->
<g id="node29" class="node">
<title>AnalyticsService</title>
<ellipse fill="#fdb462" stroke="black" cx="101" cy="-104" rx="77" ry="18"/>
<text text-anchor="middle" x="101" y="-99.8" font-family="Times,serif" font-size="14.00">AnalyticsService</text>
</g>
<!-- AnalyticsService&#45;&gt;AppModule -->
<g id="edge28" class="edge">
<title>AnalyticsService&#45;&gt;AppModule</title>
<path fill="none" stroke="black" d="M101,-122.38C101,-146.28 101,-185 101,-185 101,-185 2032.12,-185 2032.12,-185"/>
<polygon fill="black" stroke="black" points="2032.12,-188.5 2042.12,-185 2032.12,-181.5 2032.12,-188.5"/>
</g>
</g>
</svg>
