<?xml version="1.0" encoding="UTF-8" standalone="no"?>
<!DOCTYPE svg PUBLIC "-//W3C//DTD SVG 1.1//EN"
 "http://www.w3.org/Graphics/SVG/1.1/DTD/svg11.dtd">
<!-- Generated by graphviz version 2.47.0 (20210316.0004)
 -->
<!-- Title: dependencies Pages: 1 -->
<svg width="4946pt" height="284pt"
 viewBox="0.00 0.00 4946.00 284.00" xmlns="http://www.w3.org/2000/svg" xmlns:xlink="http://www.w3.org/1999/xlink">
<g id="graph0" class="graph" transform="scale(1 1) rotate(0) translate(4 280)">
<title>dependencies</title>
<polygon fill="white" stroke="transparent" points="-4,4 -4,-280 4942,-280 4942,4 -4,4"/>
<text text-anchor="start" x="2448.01" y="-42.4" font-family="Times-12" font-weight="bold" font-size="14.00">Legend</text>
<polygon fill="#ffffb3" stroke="transparent" points="2235,-10 2235,-30 2255,-30 2255,-10 2235,-10"/>
<text text-anchor="start" x="2258.63" y="-15.4" font-family="Times-12" font-size="14.00"> &#160;Declarations</text>
<polygon fill="#8dd3c7" stroke="transparent" points="2348,-10 2348,-30 2368,-30 2368,-10 2348,-10"/>
<text text-anchor="start" x="2371.73" y="-15.4" font-family="Times-12" font-size="14.00"> &#160;Module</text>
<polygon fill="#80b1d3" stroke="transparent" points="2434,-10 2434,-30 2454,-30 2454,-10 2434,-10"/>
<text text-anchor="start" x="2457.78" y="-15.4" font-family="Times-12" font-size="14.00"> &#160;Bootstrap</text>
<polygon fill="#fdb462" stroke="transparent" points="2531,-10 2531,-30 2551,-30 2551,-10 2531,-10"/>
<text text-anchor="start" x="2554.67" y="-15.4" font-family="Times-12" font-size="14.00"> &#160;Providers</text>
<polygon fill="#fb8072" stroke="transparent" points="2627,-10 2627,-30 2647,-30 2647,-10 2627,-10"/>
<text text-anchor="start" x="2650.73" y="-15.4" font-family="Times-12" font-size="14.00"> &#160;Exports</text>
<g id="clust1" class="cluster">
<title>cluster_AppModule</title>
<polygon fill="none" stroke="black" stroke-dasharray="1,5" points="8,-70 8,-268 4930,-268 4930,-70 8,-70"/>
</g>
<g id="clust4" class="cluster">
<title>cluster_AppModule_imports</title>
<polygon fill="none" stroke="black" points="516,-78 516,-130 4922,-130 4922,-78 516,-78"/>
</g>
<g id="clust2" class="cluster">
<title>cluster_AppModule_declarations</title>
<polygon fill="none" stroke="black" points="386,-78 386,-130 508,-130 508,-78 386,-78"/>
</g>
<g id="clust7" class="cluster">
<title>cluster_AppModule_providers</title>
<polygon fill="none" stroke="black" points="16,-78 16,-130 378,-130 378,-78 16,-78"/>
</g>
<g id="clust6" class="cluster">
<title>cluster_AppModule_bootstrap</title>
<polygon fill="none" stroke="black" points="2390,-208 2390,-260 2514,-260 2514,-208 2390,-208"/>
</g>
<!-- AppComponent -->
<g id="node1" class="node">
<title>AppComponent</title>
<polygon fill="#ffffb3" stroke="black" points="499.94,-122 394.06,-122 394.06,-86 499.94,-86 499.94,-122"/>
<text text-anchor="middle" x="447" y="-99.8" font-family="Times,serif" font-size="14.00">AppComponent</text>
</g>
<!-- AppModule -->
<g id="node2" class="node">
<title>AppModule</title>
<polygon fill="#8dd3c7" stroke="black" points="2493.66,-187 2490.66,-191 2469.66,-191 2466.66,-187 2410.34,-187 2410.34,-151 2493.66,-151 2493.66,-187"/>
<text text-anchor="middle" x="2452" y="-164.8" font-family="Times,serif" font-size="14.00">AppModule</text>
</g>
<!-- AppComponent&#45;&gt;AppModule -->
<g id="edge1" class="edge">
<title>AppComponent&#45;&gt;AppModule</title>
<path fill="none" stroke="black" d="M447,-122.25C447,-145.02 447,-181 447,-181 447,-181 2400.12,-181 2400.12,-181"/>
<polygon fill="black" stroke="black" points="2400.12,-184.5 2410.12,-181 2400.12,-177.5 2400.12,-184.5"/>
</g>
<!-- AppComponent  -->
<g id="node32" class="node">
<title>AppComponent </title>
<polygon fill="#80b1d3" stroke="black" points="2506.44,-252 2397.56,-252 2397.56,-216 2506.44,-216 2506.44,-252"/>
<text text-anchor="middle" x="2452" y="-229.8" font-family="Times,serif" font-size="14.00">AppComponent </text>
</g>
<!-- AppModule&#45;&gt;AppComponent  -->
<g id="edge31" class="edge">
<title>AppModule&#45;&gt;AppComponent </title>
<path fill="none" stroke="black" stroke-dasharray="1,5" d="M2452,-187.11C2452,-187.11 2452,-205.99 2452,-205.99"/>
<polygon fill="black" stroke="black" points="2448.5,-205.99 2452,-215.99 2455.5,-205.99 2448.5,-205.99"/>
</g>
<!-- AdminModule -->
<g id="node3" class="node">
<title>AdminModule</title>
<polygon fill="#8dd3c7" stroke="black" points="4914.44,-122 4911.44,-126 4890.44,-126 4887.44,-122 4815.56,-122 4815.56,-86 4914.44,-86 4914.44,-122"/>
<text text-anchor="middle" x="4865" y="-99.8" font-family="Times,serif" font-size="14.00">AdminModule</text>
</g>
<!-- AdminModule&#45;&gt;AppModule -->
<g id="edge2" class="edge">
<title>AdminModule&#45;&gt;AppModule</title>
<path fill="none" stroke="black" d="M4865,-122.38C4865,-146.28 4865,-185 4865,-185 4865,-185 2503.88,-185 2503.88,-185"/>
<polygon fill="black" stroke="black" points="2503.88,-181.5 2493.88,-185 2503.88,-188.5 2503.88,-181.5"/>
</g>
<!-- ApplicationLoadingComponent -->
<g id="node4" class="node">
<title>ApplicationLoadingComponent</title>
<polygon fill="#8dd3c7" stroke="black" points="4798.09,-122 4795.09,-126 4774.09,-126 4771.09,-122 4603.91,-122 4603.91,-86 4798.09,-86 4798.09,-122"/>
<text text-anchor="middle" x="4701" y="-99.8" font-family="Times,serif" font-size="14.00">ApplicationLoadingComponent</text>
</g>
<!-- ApplicationLoadingComponent&#45;&gt;AppModule -->
<g id="edge3" class="edge">
<title>ApplicationLoadingComponent&#45;&gt;AppModule</title>
<path fill="none" stroke="black" d="M4701,-122.32C4701,-145.66 4701,-183 4701,-183 4701,-183 2503.93,-183 2503.93,-183"/>
<polygon fill="black" stroke="black" points="2503.93,-179.5 2493.93,-183 2503.93,-186.5 2503.93,-179.5"/>
</g>
<!-- AttendanceModule -->
<g id="node5" class="node">
<title>AttendanceModule</title>
<polygon fill="#8dd3c7" stroke="black" points="4585.8,-122 4582.8,-126 4561.8,-126 4558.8,-122 4462.2,-122 4462.2,-86 4585.8,-86 4585.8,-122"/>
<text text-anchor="middle" x="4524" y="-99.8" font-family="Times,serif" font-size="14.00">AttendanceModule</text>
</g>
<!-- AttendanceModule&#45;&gt;AppModule -->
<g id="edge4" class="edge">
<title>AttendanceModule&#45;&gt;AppModule</title>
<path fill="none" stroke="black" d="M4524,-122.25C4524,-145.02 4524,-181 4524,-181 4524,-181 2503.86,-181 2503.86,-181"/>
<polygon fill="black" stroke="black" points="2503.86,-177.5 2493.86,-181 2503.86,-184.5 2503.86,-177.5"/>
</g>
<!-- BirthdayDashboardWidgetModule -->
<g id="node6" class="node">
<title>BirthdayDashboardWidgetModule</title>
<polygon fill="#8dd3c7" stroke="black" points="4444.39,-122 4441.39,-126 4420.39,-126 4417.39,-122 4233.61,-122 4233.61,-86 4444.39,-86 4444.39,-122"/>
<text text-anchor="middle" x="4339" y="-99.8" font-family="Times,serif" font-size="14.00">BirthdayDashboardWidgetModule</text>
</g>
<!-- BirthdayDashboardWidgetModule&#45;&gt;AppModule -->
<g id="edge5" class="edge">
<title>BirthdayDashboardWidgetModule&#45;&gt;AppModule</title>
<path fill="none" stroke="black" d="M4339,-122.29C4339,-144.21 4339,-178 4339,-178 4339,-178 2504.06,-178 2504.06,-178"/>
<polygon fill="black" stroke="black" points="2504.06,-174.5 2494.06,-178 2504.06,-181.5 2504.06,-174.5"/>
</g>
<!-- ChildrenModule -->
<g id="node7" class="node">
<title>ChildrenModule</title>
<polygon fill="#8dd3c7" stroke="black" points="4216.04,-122 4213.04,-126 4192.04,-126 4189.04,-122 4107.96,-122 4107.96,-86 4216.04,-86 4216.04,-122"/>
<text text-anchor="middle" x="4162" y="-99.8" font-family="Times,serif" font-size="14.00">ChildrenModule</text>
</g>
<!-- ChildrenModule&#45;&gt;AppModule -->
<g id="edge6" class="edge">
<title>ChildrenModule&#45;&gt;AppModule</title>
<path fill="none" stroke="black" d="M4162,-122.17C4162,-143.5 4162,-176 4162,-176 4162,-176 2503.85,-176 2503.85,-176"/>
<polygon fill="black" stroke="black" points="2503.85,-172.5 2493.85,-176 2503.85,-179.5 2503.85,-172.5"/>
</g>
<!-- ConfigurableEnumModule -->
<g id="node8" class="node">
<title>ConfigurableEnumModule</title>
<polygon fill="#8dd3c7" stroke="black" points="4089.36,-122 4086.36,-126 4065.36,-126 4062.36,-122 3922.64,-122 3922.64,-86 4089.36,-86 4089.36,-122"/>
<text text-anchor="middle" x="4006" y="-99.8" font-family="Times,serif" font-size="14.00">ConfigurableEnumModule</text>
</g>
<!-- ConfigurableEnumModule&#45;&gt;AppModule -->
<g id="edge7" class="edge">
<title>ConfigurableEnumModule&#45;&gt;AppModule</title>
<path fill="none" stroke="black" d="M4006,-122.03C4006,-142.77 4006,-174 4006,-174 4006,-174 2503.97,-174 2503.97,-174"/>
<polygon fill="black" stroke="black" points="2503.97,-170.5 2493.97,-174 2503.97,-177.5 2503.97,-170.5"/>
</g>
<!-- CoreModule -->
<g id="node9" class="node">
<title>CoreModule</title>
<polygon fill="#8dd3c7" stroke="black" points="3904.26,-122 3901.26,-126 3880.26,-126 3877.26,-122 3817.74,-122 3817.74,-86 3904.26,-86 3904.26,-122"/>
<text text-anchor="middle" x="3861" y="-99.8" font-family="Times,serif" font-size="14.00">CoreModule</text>
</g>
<!-- CoreModule&#45;&gt;AppModule -->
<g id="edge8" class="edge">
<title>CoreModule&#45;&gt;AppModule</title>
<path fill="none" stroke="black" d="M3861,-122.22C3861,-142.37 3861,-172 3861,-172 3861,-172 2503.79,-172 2503.79,-172"/>
<polygon fill="black" stroke="black" points="2503.79,-168.5 2493.79,-172 2503.79,-175.5 2503.79,-168.5"/>
</g>
<!-- DashboardModule -->
<g id="node10" class="node">
<title>DashboardModule</title>
<polygon fill="#8dd3c7" stroke="black" points="3800.19,-122 3797.19,-126 3776.19,-126 3773.19,-122 3679.81,-122 3679.81,-86 3800.19,-86 3800.19,-122"/>
<text text-anchor="middle" x="3740" y="-99.8" font-family="Times,serif" font-size="14.00">DashboardModule</text>
</g>
<!-- DashboardModule&#45;&gt;AppModule -->
<g id="edge9" class="edge">
<title>DashboardModule&#45;&gt;AppModule</title>
<path fill="none" stroke="black" d="M3740,-122.11C3740,-141.34 3740,-169 3740,-169 3740,-169 2503.76,-169 2503.76,-169"/>
<polygon fill="black" stroke="black" points="2503.76,-165.5 2493.76,-169 2503.76,-172.5 2503.76,-165.5"/>
</g>
<!-- DemoDataModule -->
<g id="node11" class="node">
<title>DemoDataModule</title>
<polygon fill="#8dd3c7" stroke="black" points="3662.19,-122 3659.19,-126 3638.19,-126 3635.19,-122 3541.81,-122 3541.81,-86 3662.19,-86 3662.19,-122"/>
<text text-anchor="middle" x="3602" y="-99.8" font-family="Times,serif" font-size="14.00">DemoDataModule</text>
</g>
<!-- DemoDataModule&#45;&gt;AppModule -->
<g id="edge10" class="edge">
<title>DemoDataModule&#45;&gt;AppModule</title>
<path fill="none" stroke="black" d="M3602,-122.22C3602,-140.83 3602,-167 3602,-167 3602,-167 2503.95,-167 2503.95,-167"/>
<polygon fill="black" stroke="black" points="2503.95,-163.5 2493.95,-167 2503.95,-170.5 2503.95,-163.5"/>
</g>
<!-- EmailClientServiceModule -->
<g id="node12" class="node">
<title>EmailClientServiceModule</title>
<polygon fill="#8dd3c7" stroke="black" points="3523.69,-122 3520.69,-126 3499.69,-126 3496.69,-122 3354.31,-122 3354.31,-86 3523.69,-86 3523.69,-122"/>
<text text-anchor="middle" x="3439" y="-99.8" font-family="Times,serif" font-size="14.00">EmailClientServiceModule</text>
</g>
<!-- EmailClientServiceModule&#45;&gt;AppModule -->
<g id="edge11" class="edge">
<title>EmailClientServiceModule&#45;&gt;AppModule</title>
<path fill="none" stroke="black" d="M3439,-122.3C3439,-140.27 3439,-165 3439,-165 3439,-165 2503.78,-165 2503.78,-165"/>
<polygon fill="black" stroke="black" points="2503.78,-161.5 2493.78,-165 2503.78,-168.5 2503.78,-161.5"/>
</g>
<!-- EntityCountDashboardWidgetModule -->
<g id="node13" class="node">
<title>EntityCountDashboardWidgetModule</title>
<polygon fill="#8dd3c7" stroke="black" points="3335.85,-122 3332.85,-126 3311.85,-126 3308.85,-122 3106.15,-122 3106.15,-86 3335.85,-86 3335.85,-122"/>
<text text-anchor="middle" x="3221" y="-99.8" font-family="Times,serif" font-size="14.00">EntityCountDashboardWidgetModule</text>
</g>
<!-- EntityCountDashboardWidgetModule&#45;&gt;AppModule -->
<g id="edge12" class="edge">
<title>EntityCountDashboardWidgetModule&#45;&gt;AppModule</title>
<path fill="none" stroke="black" d="M3221,-122.02C3221,-139.37 3221,-163 3221,-163 3221,-163 2503.89,-163 2503.89,-163"/>
<polygon fill="black" stroke="black" points="2503.89,-159.5 2493.89,-163 2503.89,-166.5 2503.89,-159.5"/>
</g>
<!-- FileModule -->
<g id="node14" class="node">
<title>FileModule</title>
<polygon fill="#8dd3c7" stroke="black" points="3087.83,-122 3084.83,-126 3063.83,-126 3060.83,-122 3006.17,-122 3006.17,-86 3087.83,-86 3087.83,-122"/>
<text text-anchor="middle" x="3047" y="-99.8" font-family="Times,serif" font-size="14.00">FileModule</text>
</g>
<!-- FileModule&#45;&gt;AppModule -->
<g id="edge13" class="edge">
<title>FileModule&#45;&gt;AppModule</title>
<path fill="none" stroke="black" d="M3047,-122.03C3047,-138.4 3047,-160 3047,-160 3047,-160 2503.84,-160 2503.84,-160"/>
<polygon fill="black" stroke="black" points="2503.84,-156.5 2493.84,-160 2503.84,-163.5 2503.84,-156.5"/>
</g>
<!-- ImportModule -->
<g id="node15" class="node">
<title>ImportModule</title>
<polygon fill="#8dd3c7" stroke="black" points="2988.65,-122 2985.65,-126 2964.65,-126 2961.65,-122 2891.35,-122 2891.35,-86 2988.65,-86 2988.65,-122"/>
<text text-anchor="middle" x="2940" y="-99.8" font-family="Times,serif" font-size="14.00">ImportModule</text>
</g>
<!-- ImportModule&#45;&gt;AppModule -->
<g id="edge14" class="edge">
<title>ImportModule&#45;&gt;AppModule</title>
<path fill="none" stroke="black" d="M2940,-122.28C2940,-137.95 2940,-158 2940,-158 2940,-158 2504.03,-158 2504.03,-158"/>
<polygon fill="black" stroke="black" points="2504.03,-154.5 2494.03,-158 2504.03,-161.5 2504.03,-154.5"/>
</g>
<!-- LanguageModule -->
<g id="node16" class="node">
<title>LanguageModule</title>
<polygon fill="#8dd3c7" stroke="black" points="2873.25,-122 2870.25,-126 2849.25,-126 2846.25,-122 2758.75,-122 2758.75,-86 2873.25,-86 2873.25,-122"/>
<text text-anchor="middle" x="2816" y="-99.8" font-family="Times,serif" font-size="14.00">LanguageModule</text>
</g>
<!-- LanguageModule&#45;&gt;AppModule -->
<g id="edge15" class="edge">
<title>LanguageModule&#45;&gt;AppModule</title>
<path fill="none" stroke="black" d="M2816,-122.19C2816,-137.18 2816,-156 2816,-156 2816,-156 2503.76,-156 2503.76,-156"/>
<polygon fill="black" stroke="black" points="2503.76,-152.5 2493.76,-156 2503.76,-159.5 2503.76,-152.5"/>
</g>
<!-- LatestChangesModule -->
<g id="node17" class="node">
<title>LatestChangesModule</title>
<polygon fill="#8dd3c7" stroke="black" points="2740.97,-122 2737.97,-126 2716.97,-126 2713.97,-122 2599.03,-122 2599.03,-86 2740.97,-86 2740.97,-122"/>
<text text-anchor="middle" x="2670" y="-99.8" font-family="Times,serif" font-size="14.00">LatestChangesModule</text>
</g>
<!-- LatestChangesModule&#45;&gt;AppModule -->
<g id="edge16" class="edge">
<title>LatestChangesModule&#45;&gt;AppModule</title>
<path fill="none" stroke="black" d="M2670,-122.05C2670,-136.37 2670,-154 2670,-154 2670,-154 2503.77,-154 2503.77,-154"/>
<polygon fill="black" stroke="black" points="2503.77,-150.5 2493.77,-154 2503.77,-157.5 2503.77,-150.5"/>
</g>
<!-- LocationModule -->
<g id="node18" class="node">
<title>LocationModule</title>
<polygon fill="#8dd3c7" stroke="black" points="2580.81,-122 2577.81,-126 2556.81,-126 2553.81,-122 2471.19,-122 2471.19,-86 2580.81,-86 2580.81,-122"/>
<text text-anchor="middle" x="2526" y="-99.8" font-family="Times,serif" font-size="14.00">LocationModule</text>
</g>
<!-- LocationModule&#45;&gt;AppModule -->
<g id="edge17" class="edge">
<title>LocationModule&#45;&gt;AppModule</title>
<path fill="none" stroke="black" d="M2482.59,-122.11C2482.59,-122.11 2482.59,-140.99 2482.59,-140.99"/>
<polygon fill="black" stroke="black" points="2479.09,-140.99 2482.59,-150.99 2486.09,-140.99 2479.09,-140.99"/>
</g>
<!-- MarkdownPageModule -->
<g id="node19" class="node">
<title>MarkdownPageModule</title>
<polygon fill="#8dd3c7" stroke="black" points="2453.19,-122 2450.19,-126 2429.19,-126 2426.19,-122 2304.81,-122 2304.81,-86 2453.19,-86 2453.19,-122"/>
<text text-anchor="middle" x="2379" y="-99.8" font-family="Times,serif" font-size="14.00">MarkdownPageModule</text>
</g>
<!-- MarkdownPageModule&#45;&gt;AppModule -->
<g id="edge18" class="edge">
<title>MarkdownPageModule&#45;&gt;AppModule</title>
<path fill="none" stroke="black" d="M2431.63,-122.11C2431.63,-122.11 2431.63,-140.99 2431.63,-140.99"/>
<polygon fill="black" stroke="black" points="2428.13,-140.99 2431.63,-150.99 2435.13,-140.99 2428.13,-140.99"/>
</g>
<!-- MatchingEntitiesModule -->
<g id="node20" class="node">
<title>MatchingEntitiesModule</title>
<polygon fill="#8dd3c7" stroke="black" points="2286.98,-122 2283.98,-126 2262.98,-126 2259.98,-122 2131.02,-122 2131.02,-86 2286.98,-86 2286.98,-122"/>
<text text-anchor="middle" x="2209" y="-99.8" font-family="Times,serif" font-size="14.00">MatchingEntitiesModule</text>
</g>
<!-- MatchingEntitiesModule&#45;&gt;AppModule -->
<g id="edge19" class="edge">
<title>MatchingEntitiesModule&#45;&gt;AppModule</title>
<path fill="none" stroke="black" d="M2209,-122.05C2209,-136.37 2209,-154 2209,-154 2209,-154 2400.23,-154 2400.23,-154"/>
<polygon fill="black" stroke="black" points="2400.23,-157.5 2410.23,-154 2400.23,-150.5 2400.23,-157.5"/>
</g>
<!-- NotesModule -->
<g id="node21" class="node">
<title>NotesModule</title>
<polygon fill="#8dd3c7" stroke="black" points="2113.21,-122 2110.21,-126 2089.21,-126 2086.21,-122 2020.79,-122 2020.79,-86 2113.21,-86 2113.21,-122"/>
<text text-anchor="middle" x="2067" y="-99.8" font-family="Times,serif" font-size="14.00">NotesModule</text>
</g>
<!-- NotesModule&#45;&gt;AppModule -->
<g id="edge20" class="edge">
<title>NotesModule&#45;&gt;AppModule</title>
<path fill="none" stroke="black" d="M2067,-122.19C2067,-137.18 2067,-156 2067,-156 2067,-156 2400.07,-156 2400.07,-156"/>
<polygon fill="black" stroke="black" points="2400.07,-159.5 2410.07,-156 2400.07,-152.5 2400.07,-159.5"/>
</g>
<!-- PermissionsModule -->
<g id="node22" class="node">
<title>PermissionsModule</title>
<polygon fill="#8dd3c7" stroke="black" points="2002.71,-122 1999.71,-126 1978.71,-126 1975.71,-122 1875.29,-122 1875.29,-86 2002.71,-86 2002.71,-122"/>
<text text-anchor="middle" x="1939" y="-99.8" font-family="Times,serif" font-size="14.00">PermissionsModule</text>
</g>
<!-- PermissionsModule&#45;&gt;AppModule -->
<g id="edge21" class="edge">
<title>PermissionsModule&#45;&gt;AppModule</title>
<path fill="none" stroke="black" d="M1939,-122.28C1939,-137.95 1939,-158 1939,-158 1939,-158 2400.02,-158 2400.02,-158"/>
<polygon fill="black" stroke="black" points="2400.02,-161.5 2410.02,-158 2400.02,-154.5 2400.02,-161.5"/>
</g>
<!-- ProgressDashboardWidgetModule -->
<g id="node23" class="node">
<title>ProgressDashboardWidgetModule</title>
<polygon fill="#8dd3c7" stroke="black" points="1857.61,-122 1854.61,-126 1833.61,-126 1830.61,-122 1648.39,-122 1648.39,-86 1857.61,-86 1857.61,-122"/>
<text text-anchor="middle" x="1753" y="-99.8" font-family="Times,serif" font-size="14.00">ProgressDashboardWidgetModule</text>
</g>
<!-- ProgressDashboardWidgetModule&#45;&gt;AppModule -->
<g id="edge22" class="edge">
<title>ProgressDashboardWidgetModule&#45;&gt;AppModule</title>
<path fill="none" stroke="black" d="M1753,-122.03C1753,-138.4 1753,-160 1753,-160 1753,-160 2400.11,-160 2400.11,-160"/>
<polygon fill="black" stroke="black" points="2400.11,-163.5 2410.11,-160 2400.11,-156.5 2400.11,-163.5"/>
</g>
<!-- PublicFormModule -->
<g id="node24" class="node">
<title>PublicFormModule</title>
<polygon fill="#8dd3c7" stroke="black" points="1629.66,-122 1626.66,-126 1605.66,-126 1602.66,-122 1504.34,-122 1504.34,-86 1629.66,-86 1629.66,-122"/>
<text text-anchor="middle" x="1567" y="-99.8" font-family="Times,serif" font-size="14.00">PublicFormModule</text>
</g>
<!-- PublicFormModule&#45;&gt;AppModule -->
<g id="edge23" class="edge">
<title>PublicFormModule&#45;&gt;AppModule</title>
<path fill="none" stroke="black" d="M1567,-122.02C1567,-139.37 1567,-163 1567,-163 1567,-163 2400.21,-163 2400.21,-163"/>
<polygon fill="black" stroke="black" points="2400.21,-166.5 2410.21,-163 2400.21,-159.5 2400.21,-166.5"/>
</g>
<!-- ReportingModule -->
<g id="node25" class="node">
<title>ReportingModule</title>
<polygon fill="#8dd3c7" stroke="black" points="1485.54,-122 1482.54,-126 1461.54,-126 1458.54,-122 1370.46,-122 1370.46,-86 1485.54,-86 1485.54,-122"/>
<text text-anchor="middle" x="1428" y="-99.8" font-family="Times,serif" font-size="14.00">ReportingModule</text>
</g>
<!-- ReportingModule&#45;&gt;AppModule -->
<g id="edge24" class="edge">
<title>ReportingModule&#45;&gt;AppModule</title>
<path fill="none" stroke="black" d="M1428,-122.3C1428,-140.27 1428,-165 1428,-165 1428,-165 2400.27,-165 2400.27,-165"/>
<polygon fill="black" stroke="black" points="2400.27,-168.5 2410.27,-165 2400.27,-161.5 2400.27,-168.5"/>
</g>
<!-- SessionModule -->
<g id="node26" class="node">
<title>SessionModule</title>
<polygon fill="#8dd3c7" stroke="black" points="1352.33,-122 1349.33,-126 1328.33,-126 1325.33,-122 1249.67,-122 1249.67,-86 1352.33,-86 1352.33,-122"/>
<text text-anchor="middle" x="1301" y="-99.8" font-family="Times,serif" font-size="14.00">SessionModule</text>
</g>
<!-- SessionModule&#45;&gt;AppModule -->
<g id="edge25" class="edge">
<title>SessionModule&#45;&gt;AppModule</title>
<path fill="none" stroke="black" d="M1301,-122.22C1301,-140.83 1301,-167 1301,-167 1301,-167 2400.01,-167 2400.01,-167"/>
<polygon fill="black" stroke="black" points="2400.01,-170.5 2410.01,-167 2400.01,-163.5 2400.01,-170.5"/>
</g>
<!-- ShortcutDashboardWidgetModule -->
<g id="node27" class="node">
<title>ShortcutDashboardWidgetModule</title>
<polygon fill="#8dd3c7" stroke="black" points="1231.34,-122 1228.34,-126 1207.34,-126 1204.34,-122 1022.66,-122 1022.66,-86 1231.34,-86 1231.34,-122"/>
<text text-anchor="middle" x="1127" y="-99.8" font-family="Times,serif" font-size="14.00">ShortcutDashboardWidgetModule</text>
</g>
<!-- ShortcutDashboardWidgetModule&#45;&gt;AppModule -->
<g id="edge26" class="edge">
<title>ShortcutDashboardWidgetModule&#45;&gt;AppModule</title>
<path fill="none" stroke="black" d="M1127,-122.11C1127,-141.34 1127,-169 1127,-169 1127,-169 2400.16,-169 2400.16,-169"/>
<polygon fill="black" stroke="black" points="2400.16,-172.5 2410.16,-169 2400.16,-165.5 2400.16,-172.5"/>
</g>
<!-- SkillModule -->
<g id="node28" class="node">
<title>SkillModule</title>
<polygon fill="#8dd3c7" stroke="black" points="1005,-122 1002,-126 981,-126 978,-122 919,-122 919,-86 1005,-86 1005,-122"/>
<text text-anchor="middle" x="962" y="-99.8" font-family="Times,serif" font-size="14.00">SkillModule</text>
</g>
<!-- SkillModule&#45;&gt;AppModule -->
<g id="edge27" class="edge">
<title>SkillModule&#45;&gt;AppModule</title>
<path fill="none" stroke="black" d="M962,-122.22C962,-142.37 962,-172 962,-172 962,-172 2400.2,-172 2400.2,-172"/>
<polygon fill="black" stroke="black" points="2400.2,-175.5 2410.2,-172 2400.2,-168.5 2400.2,-175.5"/>
</g>
<!-- TemplateExportModule -->
<g id="node29" class="node">
<title>TemplateExportModule</title>
<polygon fill="#8dd3c7" stroke="black" points="901.02,-122 898.02,-126 877.02,-126 874.02,-122 750.98,-122 750.98,-86 901.02,-86 901.02,-122"/>
<text text-anchor="middle" x="826" y="-99.8" font-family="Times,serif" font-size="14.00">TemplateExportModule</text>
</g>
<!-- TemplateExportModule&#45;&gt;AppModule -->
<g id="edge28" class="edge">
<title>TemplateExportModule&#45;&gt;AppModule</title>
<path fill="none" stroke="black" d="M826,-122.03C826,-142.77 826,-174 826,-174 826,-174 2400.17,-174 2400.17,-174"/>
<polygon fill="black" stroke="black" points="2400.17,-177.5 2410.17,-174 2400.17,-170.5 2400.17,-177.5"/>
</g>
<!-- TodosModule -->
<g id="node30" class="node">
<title>TodosModule</title>
<polygon fill="#8dd3c7" stroke="black" points="732.05,-122 729.05,-126 708.05,-126 705.05,-122 637.95,-122 637.95,-86 732.05,-86 732.05,-122"/>
<text text-anchor="middle" x="685" y="-99.8" font-family="Times,serif" font-size="14.00">TodosModule</text>
</g>
<!-- TodosModule&#45;&gt;AppModule -->
<g id="edge29" class="edge">
<title>TodosModule&#45;&gt;AppModule</title>
<path fill="none" stroke="black" d="M685,-122.17C685,-143.5 685,-176 685,-176 685,-176 2400.06,-176 2400.06,-176"/>
<polygon fill="black" stroke="black" points="2400.06,-179.5 2410.06,-176 2400.06,-172.5 2400.06,-179.5"/>
</g>
<!-- UiComponent -->
<g id="node31" class="node">
<title>UiComponent</title>
<polygon fill="#8dd3c7" stroke="black" points="619.83,-122 616.83,-126 595.83,-126 592.83,-122 524.17,-122 524.17,-86 619.83,-86 619.83,-122"/>
<text text-anchor="middle" x="572" y="-99.8" font-family="Times,serif" font-size="14.00">UiComponent</text>
</g>
<!-- UiComponent&#45;&gt;AppModule -->
<g id="edge30" class="edge">
<title>UiComponent&#45;&gt;AppModule</title>
<path fill="none" stroke="black" d="M572,-122.29C572,-144.21 572,-178 572,-178 572,-178 2400.1,-178 2400.1,-178"/>
<polygon fill="black" stroke="black" points="2400.1,-181.5 2410.1,-178 2400.1,-174.5 2400.1,-181.5"/>
</g>
<!-- AnalyticsService -->
<g id="node33" class="node">
<title>AnalyticsService</title>
<ellipse fill="#fdb462" stroke="black" cx="293" cy="-104" rx="77" ry="18"/>
<text text-anchor="middle" x="293" y="-99.8" font-family="Times,serif" font-size="14.00">AnalyticsService</text>
</g>
<!-- AnalyticsService&#45;&gt;AppModule -->
<g id="edge32" class="edge">
<title>AnalyticsService&#45;&gt;AppModule</title>
<path fill="none" stroke="black" d="M293,-122.32C293,-145.66 293,-183 293,-183 293,-183 2400.32,-183 2400.32,-183"/>
<polygon fill="black" stroke="black" points="2400.32,-186.5 2410.32,-183 2400.32,-179.5 2400.32,-186.5"/>
</g>
<!-- NotificationService -->
<g id="node34" class="node">
<title>NotificationService</title>
<ellipse fill="#fdb462" stroke="black" cx="111" cy="-104" rx="86.81" ry="18"/>
<text text-anchor="middle" x="111" y="-99.8" font-family="Times,serif" font-size="14.00">NotificationService</text>
</g>
<!-- NotificationService&#45;&gt;AppModule -->
<g id="edge33" class="edge">
<title>NotificationService&#45;&gt;AppModule</title>
<path fill="none" stroke="black" d="M111,-122.38C111,-146.28 111,-185 111,-185 111,-185 2400.12,-185 2400.12,-185"/>
<polygon fill="black" stroke="black" points="2400.12,-188.5 2410.12,-185 2400.12,-181.5 2400.12,-188.5"/>
</g>
</g>
</svg>
