<?xml version="1.0" encoding="UTF-8" standalone="no"?>
<!DOCTYPE svg PUBLIC "-//W3C//DTD SVG 1.1//EN"
 "http://www.w3.org/Graphics/SVG/1.1/DTD/svg11.dtd">
<!-- Generated by graphviz version 2.47.0 (20210316.0004)
 -->
<!-- Title: dependencies Pages: 1 -->
<svg width="5434pt" height="284pt"
 viewBox="0.00 0.00 5434.00 284.00" xmlns="http://www.w3.org/2000/svg" xmlns:xlink="http://www.w3.org/1999/xlink">
<g id="graph0" class="graph" transform="scale(1 1) rotate(0) translate(4 280)">
<title>dependencies</title>
<polygon fill="white" stroke="transparent" points="-4,4 -4,-280 5430,-280 5430,4 -4,4"/>
<text text-anchor="start" x="2692.01" y="-42.4" font-family="Times-12" font-weight="bold" font-size="14.00">Legend</text>
<polygon fill="#ffffb3" stroke="transparent" points="2479,-10 2479,-30 2499,-30 2499,-10 2479,-10"/>
<text text-anchor="start" x="2502.63" y="-15.4" font-family="Times-12" font-size="14.00"> &#160;Declarations</text>
<polygon fill="#8dd3c7" stroke="transparent" points="2592,-10 2592,-30 2612,-30 2612,-10 2592,-10"/>
<text text-anchor="start" x="2615.73" y="-15.4" font-family="Times-12" font-size="14.00"> &#160;Module</text>
<polygon fill="#80b1d3" stroke="transparent" points="2678,-10 2678,-30 2698,-30 2698,-10 2678,-10"/>
<text text-anchor="start" x="2701.78" y="-15.4" font-family="Times-12" font-size="14.00"> &#160;Bootstrap</text>
<polygon fill="#fdb462" stroke="transparent" points="2775,-10 2775,-30 2795,-30 2795,-10 2775,-10"/>
<text text-anchor="start" x="2798.67" y="-15.4" font-family="Times-12" font-size="14.00"> &#160;Providers</text>
<polygon fill="#fb8072" stroke="transparent" points="2871,-10 2871,-30 2891,-30 2891,-10 2871,-10"/>
<text text-anchor="start" x="2894.73" y="-15.4" font-family="Times-12" font-size="14.00"> &#160;Exports</text>
<g id="clust1" class="cluster">
<title>cluster_AppModule</title>
<polygon fill="none" stroke="black" stroke-dasharray="1,5" points="8,-70 8,-268 5418,-268 5418,-70 8,-70"/>
</g>
<g id="clust6" class="cluster">
<title>cluster_AppModule_bootstrap</title>
<polygon fill="none" stroke="black" points="2431,-208 2431,-260 2555,-260 2555,-208 2431,-208"/>
</g>
<g id="clust7" class="cluster">
<title>cluster_AppModule_providers</title>
<polygon fill="none" stroke="black" points="4560,-78 4560,-130 5410,-130 5410,-78 4560,-78"/>
</g>
<g id="clust2" class="cluster">
<title>cluster_AppModule_declarations</title>
<polygon fill="none" stroke="black" points="4430,-78 4430,-130 4552,-130 4552,-78 4430,-78"/>
</g>
<g id="clust4" class="cluster">
<title>cluster_AppModule_imports</title>
<polygon fill="none" stroke="black" points="16,-78 16,-130 4422,-130 4422,-78 16,-78"/>
</g>
<!-- AppComponent -->
<g id="node1" class="node">
<title>AppComponent</title>
<polygon fill="#ffffb3" stroke="black" points="4543.94,-122 4438.06,-122 4438.06,-86 4543.94,-86 4543.94,-122"/>
<text text-anchor="middle" x="4491" y="-99.8" font-family="Times,serif" font-size="14.00">AppComponent</text>
</g>
<!-- AppModule -->
<g id="node2" class="node">
<title>AppModule</title>
<polygon fill="#8dd3c7" stroke="black" points="2534.66,-187 2531.66,-191 2510.66,-191 2507.66,-187 2451.34,-187 2451.34,-151 2534.66,-151 2534.66,-187"/>
<text text-anchor="middle" x="2493" y="-164.8" font-family="Times,serif" font-size="14.00">AppModule</text>
</g>
<!-- AppComponent&#45;&gt;AppModule -->
<g id="edge1" class="edge">
<title>AppComponent&#45;&gt;AppModule</title>
<path fill="none" stroke="black" d="M4491,-122.04C4491,-143.66 4491,-177 4491,-177 4491,-177 2544.73,-177 2544.73,-177"/>
<polygon fill="black" stroke="black" points="2544.73,-173.5 2534.73,-177 2544.73,-180.5 2544.73,-173.5"/>
</g>
<!-- AppComponent  -->
<g id="node32" class="node">
<title>AppComponent </title>
<polygon fill="#80b1d3" stroke="black" points="2547.44,-252 2438.56,-252 2438.56,-216 2547.44,-216 2547.44,-252"/>
<text text-anchor="middle" x="2493" y="-229.8" font-family="Times,serif" font-size="14.00">AppComponent </text>
</g>
<!-- AppModule&#45;&gt;AppComponent  -->
<g id="edge31" class="edge">
<title>AppModule&#45;&gt;AppComponent </title>
<path fill="none" stroke="black" stroke-dasharray="1,5" d="M2493,-187.11C2493,-187.11 2493,-205.99 2493,-205.99"/>
<polygon fill="black" stroke="black" points="2489.5,-205.99 2493,-215.99 2496.5,-205.99 2489.5,-205.99"/>
</g>
<!-- AdminModule -->
<g id="node3" class="node">
<title>AdminModule</title>
<polygon fill="#8dd3c7" stroke="black" points="4414.44,-122 4411.44,-126 4390.44,-126 4387.44,-122 4315.56,-122 4315.56,-86 4414.44,-86 4414.44,-122"/>
<text text-anchor="middle" x="4365" y="-99.8" font-family="Times,serif" font-size="14.00">AdminModule</text>
</g>
<!-- AdminModule&#45;&gt;AppModule -->
<g id="edge2" class="edge">
<title>AdminModule&#45;&gt;AppModule</title>
<path fill="none" stroke="black" d="M4365,-122.28C4365,-143.32 4365,-175 4365,-175 4365,-175 2544.72,-175 2544.72,-175"/>
<polygon fill="black" stroke="black" points="2544.72,-171.5 2534.72,-175 2544.72,-178.5 2544.72,-171.5"/>
</g>
<!-- ApplicationLoadingComponent -->
<g id="node4" class="node">
<title>ApplicationLoadingComponent</title>
<polygon fill="#8dd3c7" stroke="black" points="4298.09,-122 4295.09,-126 4274.09,-126 4271.09,-122 4103.91,-122 4103.91,-86 4298.09,-86 4298.09,-122"/>
<text text-anchor="middle" x="4201" y="-99.8" font-family="Times,serif" font-size="14.00">ApplicationLoadingComponent</text>
</g>
<!-- ApplicationLoadingComponent&#45;&gt;AppModule -->
<g id="edge3" class="edge">
<title>ApplicationLoadingComponent&#45;&gt;AppModule</title>
<path fill="none" stroke="black" d="M4201,-122.13C4201,-142.57 4201,-173 4201,-173 4201,-173 2544.8,-173 2544.8,-173"/>
<polygon fill="black" stroke="black" points="2544.8,-169.5 2534.8,-173 2544.8,-176.5 2544.8,-169.5"/>
</g>
<!-- AttendanceModule -->
<g id="node5" class="node">
<title>AttendanceModule</title>
<polygon fill="#8dd3c7" stroke="black" points="4085.8,-122 4082.8,-126 4061.8,-126 4058.8,-122 3962.2,-122 3962.2,-86 4085.8,-86 4085.8,-122"/>
<text text-anchor="middle" x="4024" y="-99.8" font-family="Times,serif" font-size="14.00">AttendanceModule</text>
</g>
<!-- AttendanceModule&#45;&gt;AppModule -->
<g id="edge4" class="edge">
<title>AttendanceModule&#45;&gt;AppModule</title>
<path fill="none" stroke="black" d="M4024,-122.31C4024,-142.15 4024,-171 4024,-171 4024,-171 2544.74,-171 2544.74,-171"/>
<polygon fill="black" stroke="black" points="2544.74,-167.5 2534.74,-171 2544.74,-174.5 2544.74,-167.5"/>
</g>
<!-- BirthdayDashboardWidgetModule -->
<g id="node6" class="node">
<title>BirthdayDashboardWidgetModule</title>
<polygon fill="#8dd3c7" stroke="black" points="3944.39,-122 3941.39,-126 3920.39,-126 3917.39,-122 3733.61,-122 3733.61,-86 3944.39,-86 3944.39,-122"/>
<text text-anchor="middle" x="3839" y="-99.8" font-family="Times,serif" font-size="14.00">BirthdayDashboardWidgetModule</text>
</g>
<!-- BirthdayDashboardWidgetModule&#45;&gt;AppModule -->
<g id="edge5" class="edge">
<title>BirthdayDashboardWidgetModule&#45;&gt;AppModule</title>
<path fill="none" stroke="black" d="M3839,-122.17C3839,-141.09 3839,-168 3839,-168 3839,-168 2544.76,-168 2544.76,-168"/>
<polygon fill="black" stroke="black" points="2544.76,-164.5 2534.76,-168 2544.76,-171.5 2544.76,-164.5"/>
</g>
<!-- ChildrenModule -->
<g id="node7" class="node">
<title>ChildrenModule</title>
<polygon fill="#8dd3c7" stroke="black" points="3716.04,-122 3713.04,-126 3692.04,-126 3689.04,-122 3607.96,-122 3607.96,-86 3716.04,-86 3716.04,-122"/>
<text text-anchor="middle" x="3662" y="-99.8" font-family="Times,serif" font-size="14.00">ChildrenModule</text>
</g>
<!-- ChildrenModule&#45;&gt;AppModule -->
<g id="edge6" class="edge">
<title>ChildrenModule&#45;&gt;AppModule</title>
<path fill="none" stroke="black" d="M3662,-122.27C3662,-140.56 3662,-166 3662,-166 3662,-166 2544.95,-166 2544.95,-166"/>
<polygon fill="black" stroke="black" points="2544.95,-162.5 2534.95,-166 2544.95,-169.5 2544.95,-162.5"/>
</g>
<!-- ConfigurableEnumModule -->
<g id="node8" class="node">
<title>ConfigurableEnumModule</title>
<polygon fill="#8dd3c7" stroke="black" points="3589.36,-122 3586.36,-126 3565.36,-126 3562.36,-122 3422.64,-122 3422.64,-86 3589.36,-86 3589.36,-122"/>
<text text-anchor="middle" x="3506" y="-99.8" font-family="Times,serif" font-size="14.00">ConfigurableEnumModule</text>
</g>
<!-- ConfigurableEnumModule&#45;&gt;AppModule -->
<g id="edge7" class="edge">
<title>ConfigurableEnumModule&#45;&gt;AppModule</title>
<path fill="none" stroke="black" d="M3506,-122C3506,-139.68 3506,-164 3506,-164 3506,-164 2544.92,-164 2544.92,-164"/>
<polygon fill="black" stroke="black" points="2544.92,-160.5 2534.92,-164 2544.92,-167.5 2544.92,-160.5"/>
</g>
<!-- CoreModule -->
<g id="node9" class="node">
<title>CoreModule</title>
<polygon fill="#8dd3c7" stroke="black" points="3404.26,-122 3401.26,-126 3380.26,-126 3377.26,-122 3317.74,-122 3317.74,-86 3404.26,-86 3404.26,-122"/>
<text text-anchor="middle" x="3361" y="-99.8" font-family="Times,serif" font-size="14.00">CoreModule</text>
</g>
<!-- CoreModule&#45;&gt;AppModule -->
<g id="edge8" class="edge">
<title>CoreModule&#45;&gt;AppModule</title>
<path fill="none" stroke="black" d="M3361,-122.03C3361,-139.06 3361,-162 3361,-162 3361,-162 2544.87,-162 2544.87,-162"/>
<polygon fill="black" stroke="black" points="2544.87,-158.5 2534.87,-162 2544.87,-165.5 2544.87,-158.5"/>
</g>
<!-- DashboardModule -->
<g id="node10" class="node">
<title>DashboardModule</title>
<polygon fill="#8dd3c7" stroke="black" points="3300.19,-122 3297.19,-126 3276.19,-126 3273.19,-122 3179.81,-122 3179.81,-86 3300.19,-86 3300.19,-122"/>
<text text-anchor="middle" x="3240" y="-99.8" font-family="Times,serif" font-size="14.00">DashboardModule</text>
</g>
<!-- DashboardModule&#45;&gt;AppModule -->
<g id="edge9" class="edge">
<title>DashboardModule&#45;&gt;AppModule</title>
<path fill="none" stroke="black" d="M3240,-122.03C3240,-138.4 3240,-160 3240,-160 3240,-160 2544.76,-160 2544.76,-160"/>
<polygon fill="black" stroke="black" points="2544.76,-156.5 2534.76,-160 2544.76,-163.5 2544.76,-156.5"/>
</g>
<!-- DemoDataModule -->
<g id="node11" class="node">
<title>DemoDataModule</title>
<polygon fill="#8dd3c7" stroke="black" points="3162.19,-122 3159.19,-126 3138.19,-126 3135.19,-122 3041.81,-122 3041.81,-86 3162.19,-86 3162.19,-122"/>
<text text-anchor="middle" x="3102" y="-99.8" font-family="Times,serif" font-size="14.00">DemoDataModule</text>
</g>
<!-- DemoDataModule&#45;&gt;AppModule -->
<g id="edge10" class="edge">
<title>DemoDataModule&#45;&gt;AppModule</title>
<path fill="none" stroke="black" d="M3102,-122.28C3102,-137.95 3102,-158 3102,-158 3102,-158 2544.86,-158 2544.86,-158"/>
<polygon fill="black" stroke="black" points="2544.86,-154.5 2534.86,-158 2544.86,-161.5 2544.86,-154.5"/>
</g>
<!-- EmailClientServiceModule -->
<g id="node12" class="node">
<title>EmailClientServiceModule</title>
<polygon fill="#8dd3c7" stroke="black" points="3023.69,-122 3020.69,-126 2999.69,-126 2996.69,-122 2854.31,-122 2854.31,-86 3023.69,-86 3023.69,-122"/>
<text text-anchor="middle" x="2939" y="-99.8" font-family="Times,serif" font-size="14.00">EmailClientServiceModule</text>
</g>
<!-- EmailClientServiceModule&#45;&gt;AppModule -->
<g id="edge11" class="edge">
<title>EmailClientServiceModule&#45;&gt;AppModule</title>
<path fill="none" stroke="black" d="M2939,-122.19C2939,-137.18 2939,-156 2939,-156 2939,-156 2544.96,-156 2544.96,-156"/>
<polygon fill="black" stroke="black" points="2544.96,-152.5 2534.96,-156 2544.96,-159.5 2544.96,-152.5"/>
</g>
<!-- EntityCountDashboardWidgetModule -->
<g id="node13" class="node">
<title>EntityCountDashboardWidgetModule</title>
<polygon fill="#8dd3c7" stroke="black" points="2835.85,-122 2832.85,-126 2811.85,-126 2808.85,-122 2606.15,-122 2606.15,-86 2835.85,-86 2835.85,-122"/>
<text text-anchor="middle" x="2721" y="-99.8" font-family="Times,serif" font-size="14.00">EntityCountDashboardWidgetModule</text>
</g>
<!-- EntityCountDashboardWidgetModule&#45;&gt;AppModule -->
<g id="edge12" class="edge">
<title>EntityCountDashboardWidgetModule&#45;&gt;AppModule</title>
<path fill="none" stroke="black" d="M2721,-122.05C2721,-136.37 2721,-154 2721,-154 2721,-154 2544.82,-154 2544.82,-154"/>
<polygon fill="black" stroke="black" points="2544.82,-150.5 2534.82,-154 2544.82,-157.5 2544.82,-150.5"/>
</g>
<!-- FileModule -->
<g id="node14" class="node">
<title>FileModule</title>
<polygon fill="#8dd3c7" stroke="black" points="2587.83,-122 2584.83,-126 2563.83,-126 2560.83,-122 2506.17,-122 2506.17,-86 2587.83,-86 2587.83,-122"/>
<text text-anchor="middle" x="2547" y="-99.8" font-family="Times,serif" font-size="14.00">FileModule</text>
</g>
<!-- FileModule&#45;&gt;AppModule -->
<g id="edge13" class="edge">
<title>FileModule&#45;&gt;AppModule</title>
<path fill="none" stroke="black" d="M2520.58,-122.11C2520.58,-122.11 2520.58,-140.99 2520.58,-140.99"/>
<polygon fill="black" stroke="black" points="2517.08,-140.99 2520.58,-150.99 2524.08,-140.99 2517.08,-140.99"/>
</g>
<!-- ImportModule -->
<g id="node15" class="node">
<title>ImportModule</title>
<polygon fill="#8dd3c7" stroke="black" points="2488.65,-122 2485.65,-126 2464.65,-126 2461.65,-122 2391.35,-122 2391.35,-86 2488.65,-86 2488.65,-122"/>
<text text-anchor="middle" x="2440" y="-99.8" font-family="Times,serif" font-size="14.00">ImportModule</text>
</g>
<!-- ImportModule&#45;&gt;AppModule -->
<g id="edge14" class="edge">
<title>ImportModule&#45;&gt;AppModule</title>
<path fill="none" stroke="black" d="M2470,-122.11C2470,-122.11 2470,-140.99 2470,-140.99"/>
<polygon fill="black" stroke="black" points="2466.5,-140.99 2470,-150.99 2473.5,-140.99 2466.5,-140.99"/>
</g>
<!-- LanguageModule -->
<g id="node16" class="node">
<title>LanguageModule</title>
<polygon fill="#8dd3c7" stroke="black" points="2373.25,-122 2370.25,-126 2349.25,-126 2346.25,-122 2258.75,-122 2258.75,-86 2373.25,-86 2373.25,-122"/>
<text text-anchor="middle" x="2316" y="-99.8" font-family="Times,serif" font-size="14.00">LanguageModule</text>
</g>
<!-- LanguageModule&#45;&gt;AppModule -->
<g id="edge15" class="edge">
<title>LanguageModule&#45;&gt;AppModule</title>
<path fill="none" stroke="black" d="M2316,-122.05C2316,-136.37 2316,-154 2316,-154 2316,-154 2441.05,-154 2441.05,-154"/>
<polygon fill="black" stroke="black" points="2441.05,-157.5 2451.05,-154 2441.05,-150.5 2441.05,-157.5"/>
</g>
<!-- LatestChangesModule -->
<g id="node17" class="node">
<title>LatestChangesModule</title>
<polygon fill="#8dd3c7" stroke="black" points="2240.97,-122 2237.97,-126 2216.97,-126 2213.97,-122 2099.03,-122 2099.03,-86 2240.97,-86 2240.97,-122"/>
<text text-anchor="middle" x="2170" y="-99.8" font-family="Times,serif" font-size="14.00">LatestChangesModule</text>
</g>
<!-- LatestChangesModule&#45;&gt;AppModule -->
<g id="edge16" class="edge">
<title>LatestChangesModule&#45;&gt;AppModule</title>
<path fill="none" stroke="black" d="M2170,-122.19C2170,-137.18 2170,-156 2170,-156 2170,-156 2441.1,-156 2441.1,-156"/>
<polygon fill="black" stroke="black" points="2441.1,-159.5 2451.1,-156 2441.1,-152.5 2441.1,-159.5"/>
</g>
<!-- LocationModule -->
<g id="node18" class="node">
<title>LocationModule</title>
<polygon fill="#8dd3c7" stroke="black" points="2080.81,-122 2077.81,-126 2056.81,-126 2053.81,-122 1971.19,-122 1971.19,-86 2080.81,-86 2080.81,-122"/>
<text text-anchor="middle" x="2026" y="-99.8" font-family="Times,serif" font-size="14.00">LocationModule</text>
</g>
<!-- LocationModule&#45;&gt;AppModule -->
<g id="edge17" class="edge">
<title>LocationModule&#45;&gt;AppModule</title>
<path fill="none" stroke="black" d="M2026,-122.28C2026,-137.95 2026,-158 2026,-158 2026,-158 2441.15,-158 2441.15,-158"/>
<polygon fill="black" stroke="black" points="2441.15,-161.5 2451.15,-158 2441.15,-154.5 2441.15,-161.5"/>
</g>
<!-- MarkdownPageModule -->
<g id="node19" class="node">
<title>MarkdownPageModule</title>
<polygon fill="#8dd3c7" stroke="black" points="1953.19,-122 1950.19,-126 1929.19,-126 1926.19,-122 1804.81,-122 1804.81,-86 1953.19,-86 1953.19,-122"/>
<text text-anchor="middle" x="1879" y="-99.8" font-family="Times,serif" font-size="14.00">MarkdownPageModule</text>
</g>
<!-- MarkdownPageModule&#45;&gt;AppModule -->
<g id="edge18" class="edge">
<title>MarkdownPageModule&#45;&gt;AppModule</title>
<path fill="none" stroke="black" d="M1879,-122.03C1879,-138.4 1879,-160 1879,-160 1879,-160 2441.28,-160 2441.28,-160"/>
<polygon fill="black" stroke="black" points="2441.28,-163.5 2451.28,-160 2441.28,-156.5 2441.28,-163.5"/>
</g>
<!-- MatchingEntitiesModule -->
<g id="node20" class="node">
<title>MatchingEntitiesModule</title>
<polygon fill="#8dd3c7" stroke="black" points="1786.98,-122 1783.98,-126 1762.98,-126 1759.98,-122 1631.02,-122 1631.02,-86 1786.98,-86 1786.98,-122"/>
<text text-anchor="middle" x="1709" y="-99.8" font-family="Times,serif" font-size="14.00">MatchingEntitiesModule</text>
</g>
<!-- MatchingEntitiesModule&#45;&gt;AppModule -->
<g id="edge19" class="edge">
<title>MatchingEntitiesModule&#45;&gt;AppModule</title>
<path fill="none" stroke="black" d="M1709,-122.03C1709,-139.06 1709,-162 1709,-162 1709,-162 2441.13,-162 2441.13,-162"/>
<polygon fill="black" stroke="black" points="2441.13,-165.5 2451.13,-162 2441.13,-158.5 2441.13,-165.5"/>
</g>
<!-- NotesModule -->
<g id="node21" class="node">
<title>NotesModule</title>
<polygon fill="#8dd3c7" stroke="black" points="1613.21,-122 1610.21,-126 1589.21,-126 1586.21,-122 1520.79,-122 1520.79,-86 1613.21,-86 1613.21,-122"/>
<text text-anchor="middle" x="1567" y="-99.8" font-family="Times,serif" font-size="14.00">NotesModule</text>
</g>
<!-- NotesModule&#45;&gt;AppModule -->
<g id="edge20" class="edge">
<title>NotesModule&#45;&gt;AppModule</title>
<path fill="none" stroke="black" d="M1567,-122C1567,-139.68 1567,-164 1567,-164 1567,-164 2441.11,-164 2441.11,-164"/>
<polygon fill="black" stroke="black" points="2441.11,-167.5 2451.11,-164 2441.11,-160.5 2441.11,-167.5"/>
</g>
<!-- PermissionsModule -->
<g id="node22" class="node">
<title>PermissionsModule</title>
<polygon fill="#8dd3c7" stroke="black" points="1502.71,-122 1499.71,-126 1478.71,-126 1475.71,-122 1375.29,-122 1375.29,-86 1502.71,-86 1502.71,-122"/>
<text text-anchor="middle" x="1439" y="-99.8" font-family="Times,serif" font-size="14.00">PermissionsModule</text>
</g>
<!-- PermissionsModule&#45;&gt;AppModule -->
<g id="edge21" class="edge">
<title>PermissionsModule&#45;&gt;AppModule</title>
<path fill="none" stroke="black" d="M1439,-122.27C1439,-140.56 1439,-166 1439,-166 1439,-166 2441.03,-166 2441.03,-166"/>
<polygon fill="black" stroke="black" points="2441.03,-169.5 2451.03,-166 2441.03,-162.5 2441.03,-169.5"/>
</g>
<!-- ProgressDashboardWidgetModule -->
<g id="node23" class="node">
<title>ProgressDashboardWidgetModule</title>
<polygon fill="#8dd3c7" stroke="black" points="1357.61,-122 1354.61,-126 1333.61,-126 1330.61,-122 1148.39,-122 1148.39,-86 1357.61,-86 1357.61,-122"/>
<text text-anchor="middle" x="1253" y="-99.8" font-family="Times,serif" font-size="14.00">ProgressDashboardWidgetModule</text>
</g>
<!-- ProgressDashboardWidgetModule&#45;&gt;AppModule -->
<g id="edge22" class="edge">
<title>ProgressDashboardWidgetModule&#45;&gt;AppModule</title>
<path fill="none" stroke="black" d="M1253,-122.17C1253,-141.09 1253,-168 1253,-168 1253,-168 2441.03,-168 2441.03,-168"/>
<polygon fill="black" stroke="black" points="2441.03,-171.5 2451.03,-168 2441.03,-164.5 2441.03,-171.5"/>
</g>
<!-- PublicFormModule -->
<g id="node24" class="node">
<title>PublicFormModule</title>
<polygon fill="#8dd3c7" stroke="black" points="1129.66,-122 1126.66,-126 1105.66,-126 1102.66,-122 1004.34,-122 1004.34,-86 1129.66,-86 1129.66,-122"/>
<text text-anchor="middle" x="1067" y="-99.8" font-family="Times,serif" font-size="14.00">PublicFormModule</text>
</g>
<!-- PublicFormModule&#45;&gt;AppModule -->
<g id="edge23" class="edge">
<title>PublicFormModule&#45;&gt;AppModule</title>
<path fill="none" stroke="black" d="M1067,-122.31C1067,-142.15 1067,-171 1067,-171 1067,-171 2441.09,-171 2441.09,-171"/>
<polygon fill="black" stroke="black" points="2441.09,-174.5 2451.09,-171 2441.09,-167.5 2441.09,-174.5"/>
</g>
<!-- ReportingModule -->
<g id="node25" class="node">
<title>ReportingModule</title>
<polygon fill="#8dd3c7" stroke="black" points="985.54,-122 982.54,-126 961.54,-126 958.54,-122 870.46,-122 870.46,-86 985.54,-86 985.54,-122"/>
<text text-anchor="middle" x="928" y="-99.8" font-family="Times,serif" font-size="14.00">ReportingModule</text>
</g>
<!-- ReportingModule&#45;&gt;AppModule -->
<g id="edge24" class="edge">
<title>ReportingModule&#45;&gt;AppModule</title>
<path fill="none" stroke="black" d="M928,-122.13C928,-142.57 928,-173 928,-173 928,-173 2441.14,-173 2441.14,-173"/>
<polygon fill="black" stroke="black" points="2441.14,-176.5 2451.14,-173 2441.14,-169.5 2441.14,-176.5"/>
</g>
<!-- SessionModule -->
<g id="node26" class="node">
<title>SessionModule</title>
<polygon fill="#8dd3c7" stroke="black" points="852.33,-122 849.33,-126 828.33,-126 825.33,-122 749.67,-122 749.67,-86 852.33,-86 852.33,-122"/>
<text text-anchor="middle" x="801" y="-99.8" font-family="Times,serif" font-size="14.00">SessionModule</text>
</g>
<!-- SessionModule&#45;&gt;AppModule -->
<g id="edge25" class="edge">
<title>SessionModule&#45;&gt;AppModule</title>
<path fill="none" stroke="black" d="M801,-122.28C801,-143.32 801,-175 801,-175 801,-175 2441.18,-175 2441.18,-175"/>
<polygon fill="black" stroke="black" points="2441.18,-178.5 2451.18,-175 2441.18,-171.5 2441.18,-178.5"/>
</g>
<!-- ShortcutDashboardWidgetModule -->
<g id="node27" class="node">
<title>ShortcutDashboardWidgetModule</title>
<polygon fill="#8dd3c7" stroke="black" points="731.34,-122 728.34,-126 707.34,-126 704.34,-122 522.66,-122 522.66,-86 731.34,-86 731.34,-122"/>
<text text-anchor="middle" x="627" y="-99.8" font-family="Times,serif" font-size="14.00">ShortcutDashboardWidgetModule</text>
</g>
<!-- ShortcutDashboardWidgetModule&#45;&gt;AppModule -->
<g id="edge26" class="edge">
<title>ShortcutDashboardWidgetModule&#45;&gt;AppModule</title>
<path fill="none" stroke="black" d="M627,-122.04C627,-143.66 627,-177 627,-177 627,-177 2440.97,-177 2440.97,-177"/>
<polygon fill="black" stroke="black" points="2440.97,-180.5 2450.97,-177 2440.97,-173.5 2440.97,-180.5"/>
</g>
<!-- SkillModule -->
<g id="node28" class="node">
<title>SkillModule</title>
<polygon fill="#8dd3c7" stroke="black" points="505,-122 502,-126 481,-126 478,-122 419,-122 419,-86 505,-86 505,-122"/>
<text text-anchor="middle" x="462" y="-99.8" font-family="Times,serif" font-size="14.00">SkillModule</text>
</g>
<!-- SkillModule&#45;&gt;AppModule -->
<g id="edge27" class="edge">
<title>SkillModule&#45;&gt;AppModule</title>
<path fill="none" stroke="black" d="M462,-122.16C462,-144.35 462,-179 462,-179 462,-179 2441.05,-179 2441.05,-179"/>
<polygon fill="black" stroke="black" points="2441.05,-182.5 2451.05,-179 2441.05,-175.5 2441.05,-182.5"/>
</g>
<!-- TemplateExportModule -->
<g id="node29" class="node">
<title>TemplateExportModule</title>
<polygon fill="#8dd3c7" stroke="black" points="401.02,-122 398.02,-126 377.02,-126 374.02,-122 250.98,-122 250.98,-86 401.02,-86 401.02,-122"/>
<text text-anchor="middle" x="326" y="-99.8" font-family="Times,serif" font-size="14.00">TemplateExportModule</text>
</g>
<!-- TemplateExportModule&#45;&gt;AppModule -->
<g id="edge28" class="edge">
<title>TemplateExportModule&#45;&gt;AppModule</title>
<path fill="none" stroke="black" d="M326,-122.25C326,-145.02 326,-181 326,-181 326,-181 2441.17,-181 2441.17,-181"/>
<polygon fill="black" stroke="black" points="2441.17,-184.5 2451.17,-181 2441.17,-177.5 2441.17,-184.5"/>
</g>
<!-- TodosModule -->
<g id="node30" class="node">
<title>TodosModule</title>
<polygon fill="#8dd3c7" stroke="black" points="232.05,-122 229.05,-126 208.05,-126 205.05,-122 137.95,-122 137.95,-86 232.05,-86 232.05,-122"/>
<text text-anchor="middle" x="185" y="-99.8" font-family="Times,serif" font-size="14.00">TodosModule</text>
</g>
<!-- TodosModule&#45;&gt;AppModule -->
<g id="edge29" class="edge">
<title>TodosModule&#45;&gt;AppModule</title>
<path fill="none" stroke="black" d="M185,-122.32C185,-145.66 185,-183 185,-183 185,-183 2440.97,-183 2440.97,-183"/>
<polygon fill="black" stroke="black" points="2440.97,-186.5 2450.97,-183 2440.97,-179.5 2440.97,-186.5"/>
</g>
<!-- UiComponent -->
<g id="node31" class="node">
<title>UiComponent</title>
<polygon fill="#8dd3c7" stroke="black" points="119.83,-122 116.83,-126 95.83,-126 92.83,-122 24.17,-122 24.17,-86 119.83,-86 119.83,-122"/>
<text text-anchor="middle" x="72" y="-99.8" font-family="Times,serif" font-size="14.00">UiComponent</text>
</g>
<!-- UiComponent&#45;&gt;AppModule -->
<g id="edge30" class="edge">
<title>UiComponent&#45;&gt;AppModule</title>
<path fill="none" stroke="black" d="M72,-122.38C72,-146.28 72,-185 72,-185 72,-185 2441.23,-185 2441.23,-185"/>
<polygon fill="black" stroke="black" points="2441.23,-188.5 2451.23,-185 2441.23,-181.5 2441.23,-188.5"/>
</g>
<!-- AnalyticsService -->
<g id="node33" class="node">
<title>AnalyticsService</title>
<ellipse fill="#fdb462" stroke="black" cx="5325" cy="-104" rx="77" ry="18"/>
<text text-anchor="middle" x="5325" y="-99.8" font-family="Times,serif" font-size="14.00">AnalyticsService</text>
</g>
<!-- AnalyticsService&#45;&gt;AppModule -->
<g id="edge32" class="edge">
<title>AnalyticsService&#45;&gt;AppModule</title>
<path fill="none" stroke="black" d="M5325,-122.38C5325,-146.28 5325,-185 5325,-185 5325,-185 2544.68,-185 2544.68,-185"/>
<polygon fill="black" stroke="black" points="2544.68,-181.5 2534.68,-185 2544.68,-188.5 2544.68,-181.5"/>
</g>
<!-- DateAdapterWithFormatting -->
<g id="node34" class="node">
<title>DateAdapterWithFormatting</title>
<ellipse fill="#fdb462" stroke="black" cx="5107" cy="-104" rx="122.69" ry="18"/>
<text text-anchor="middle" x="5107" y="-99.8" font-family="Times,serif" font-size="14.00">DateAdapterWithFormatting</text>
</g>
<!-- DateAdapterWithFormatting&#45;&gt;AppModule -->
<g id="edge33" class="edge">
<title>DateAdapterWithFormatting&#45;&gt;AppModule</title>
<path fill="none" stroke="black" d="M5107,-122.32C5107,-145.66 5107,-183 5107,-183 5107,-183 2544.85,-183 2544.85,-183"/>
<polygon fill="black" stroke="black" points="2544.85,-179.5 2534.85,-183 2544.85,-186.5 2544.85,-179.5"/>
</g>
<!-- KeycloakAdminService -->
<g id="node35" class="node">
<title>KeycloakAdminService</title>
<ellipse fill="#fdb462" stroke="black" cx="4863" cy="-104" rx="103.63" ry="18"/>
<text text-anchor="middle" x="4863" y="-99.8" font-family="Times,serif" font-size="14.00">KeycloakAdminService</text>
</g>
<!-- KeycloakAdminService&#45;&gt;AppModule -->
<g id="edge34" class="edge">
<title>KeycloakAdminService&#45;&gt;AppModule</title>
<path fill="none" stroke="black" d="M4863,-122.25C4863,-145.02 4863,-181 4863,-181 4863,-181 2544.89,-181 2544.89,-181"/>
<polygon fill="black" stroke="black" points="2544.89,-177.5 2534.89,-181 2544.89,-184.5 2544.89,-177.5"/>
</g>
<!-- NotificationService -->
<g id="node36" class="node">
<title>NotificationService</title>
<ellipse fill="#fdb462" stroke="black" cx="4655" cy="-104" rx="86.81" ry="18"/>
<text text-anchor="middle" x="4655" y="-99.8" font-family="Times,serif" font-size="14.00">NotificationService</text>
</g>
<!-- NotificationService&#45;&gt;AppModule -->
<g id="edge35" class="edge">
<title>NotificationService&#45;&gt;AppModule</title>
<path fill="none" stroke="black" d="M4655,-122.16C4655,-144.35 4655,-179 4655,-179 4655,-179 2544.74,-179 2544.74,-179"/>
<polygon fill="black" stroke="black" points="2544.74,-175.5 2534.74,-179 2544.74,-182.5 2544.74,-175.5"/>
</g>
</g>
</svg>
