<?xml version="1.0" encoding="UTF-8" standalone="no"?>
<!DOCTYPE svg PUBLIC "-//W3C//DTD SVG 1.1//EN"
 "http://www.w3.org/Graphics/SVG/1.1/DTD/svg11.dtd">
<!-- Generated by graphviz version 2.47.0 (20210316.0004)
 -->
<!-- Title: dependencies Pages: 1 -->
<svg width="4072pt" height="284pt"
 viewBox="0.00 0.00 4072.00 284.00" xmlns="http://www.w3.org/2000/svg" xmlns:xlink="http://www.w3.org/1999/xlink">
<g id="graph0" class="graph" transform="scale(1 1) rotate(0) translate(4 280)">
<title>dependencies</title>
<polygon fill="white" stroke="transparent" points="-4,4 -4,-280 4068,-280 4068,4 -4,4"/>
<text text-anchor="start" x="2011.01" y="-42.4" font-family="Times-12" font-weight="bold" font-size="14.00">Legend</text>
<polygon fill="#ffffb3" stroke="transparent" points="1798,-10 1798,-30 1818,-30 1818,-10 1798,-10"/>
<text text-anchor="start" x="1821.63" y="-15.4" font-family="Times-12" font-size="14.00"> &#160;Declarations</text>
<polygon fill="#8dd3c7" stroke="transparent" points="1911,-10 1911,-30 1931,-30 1931,-10 1911,-10"/>
<text text-anchor="start" x="1934.73" y="-15.4" font-family="Times-12" font-size="14.00"> &#160;Module</text>
<polygon fill="#80b1d3" stroke="transparent" points="1997,-10 1997,-30 2017,-30 2017,-10 1997,-10"/>
<text text-anchor="start" x="2020.78" y="-15.4" font-family="Times-12" font-size="14.00"> &#160;Bootstrap</text>
<polygon fill="#fdb462" stroke="transparent" points="2094,-10 2094,-30 2114,-30 2114,-10 2094,-10"/>
<text text-anchor="start" x="2117.67" y="-15.4" font-family="Times-12" font-size="14.00"> &#160;Providers</text>
<polygon fill="#fb8072" stroke="transparent" points="2190,-10 2190,-30 2210,-30 2210,-10 2190,-10"/>
<text text-anchor="start" x="2213.73" y="-15.4" font-family="Times-12" font-size="14.00"> &#160;Exports</text>
<g id="clust1" class="cluster">
<title>cluster_AppModule</title>
<polygon fill="none" stroke="black" stroke-dasharray="1,5" points="8,-70 8,-268 4056,-268 4056,-70 8,-70"/>
</g>
<g id="clust4" class="cluster">
<title>cluster_AppModule_imports</title>
<polygon fill="none" stroke="black" points="324,-78 324,-130 4048,-130 4048,-78 324,-78"/>
</g>
<g id="clust2" class="cluster">
<title>cluster_AppModule_declarations</title>
<polygon fill="none" stroke="black" points="194,-78 194,-130 316,-130 316,-78 194,-78"/>
</g>
<g id="clust6" class="cluster">
<title>cluster_AppModule_bootstrap</title>
<polygon fill="none" stroke="black" points="1978,-208 1978,-260 2102,-260 2102,-208 1978,-208"/>
</g>
<g id="clust7" class="cluster">
<title>cluster_AppModule_providers</title>
<polygon fill="none" stroke="black" points="16,-78 16,-130 186,-130 186,-78 16,-78"/>
</g>
<!-- AppComponent -->
<g id="node1" class="node">
<title>AppComponent</title>
<polygon fill="#ffffb3" stroke="black" points="307.94,-122 202.06,-122 202.06,-86 307.94,-86 307.94,-122"/>
<text text-anchor="middle" x="255" y="-99.8" font-family="Times,serif" font-size="14.00">AppComponent</text>
</g>
<!-- AppModule -->
<g id="node2" class="node">
<title>AppModule</title>
<polygon fill="#8dd3c7" stroke="black" points="2081.66,-187 2078.66,-191 2057.66,-191 2054.66,-187 1998.34,-187 1998.34,-151 2081.66,-151 2081.66,-187"/>
<text text-anchor="middle" x="2040" y="-164.8" font-family="Times,serif" font-size="14.00">AppModule</text>
</g>
<!-- AppComponent&#45;&gt;AppModule -->
<g id="edge1" class="edge">
<title>AppComponent&#45;&gt;AppModule</title>
<path fill="none" stroke="black" d="M255,-122.09C255,-145.13 255,-182 255,-182 255,-182 1988.07,-182 1988.07,-182"/>
<polygon fill="black" stroke="black" points="1988.07,-185.5 1998.07,-182 1988.07,-178.5 1988.07,-185.5"/>
</g>
<!-- AppComponent  -->
<g id="node28" class="node">
<title>AppComponent </title>
<polygon fill="#80b1d3" stroke="black" points="2094.44,-252 1985.56,-252 1985.56,-216 2094.44,-216 2094.44,-252"/>
<text text-anchor="middle" x="2040" y="-229.8" font-family="Times,serif" font-size="14.00">AppComponent </text>
</g>
<!-- AppModule&#45;&gt;AppComponent  -->
<g id="edge27" class="edge">
<title>AppModule&#45;&gt;AppComponent </title>
<path fill="none" stroke="black" stroke-dasharray="1,5" d="M2040,-187.11C2040,-187.11 2040,-205.99 2040,-205.99"/>
<polygon fill="black" stroke="black" points="2036.5,-205.99 2040,-215.99 2043.5,-205.99 2036.5,-205.99"/>
</g>
<!-- AdminModule -->
<g id="node3" class="node">
<title>AdminModule</title>
<polygon fill="#8dd3c7" stroke="black" points="4040.44,-122 4037.44,-126 4016.44,-126 4013.44,-122 3941.56,-122 3941.56,-86 4040.44,-86 4040.44,-122"/>
<text text-anchor="middle" x="3991" y="-99.8" font-family="Times,serif" font-size="14.00">AdminModule</text>
</g>
<!-- AdminModule&#45;&gt;AppModule -->
<g id="edge2" class="edge">
<title>AdminModule&#45;&gt;AppModule</title>
<path fill="none" stroke="black" d="M3991,-122.38C3991,-146.28 3991,-185 3991,-185 3991,-185 2092.11,-185 2092.11,-185"/>
<polygon fill="black" stroke="black" points="2092.11,-181.5 2082.11,-185 2092.11,-188.5 2092.11,-181.5"/>
</g>
<!-- AttendanceModule -->
<g id="node4" class="node">
<title>AttendanceModule</title>
<polygon fill="#8dd3c7" stroke="black" points="3923.8,-122 3920.8,-126 3899.8,-126 3896.8,-122 3800.2,-122 3800.2,-86 3923.8,-86 3923.8,-122"/>
<text text-anchor="middle" x="3862" y="-99.8" font-family="Times,serif" font-size="14.00">AttendanceModule</text>
</g>
<!-- AttendanceModule&#45;&gt;AppModule -->
<g id="edge3" class="edge">
<title>AttendanceModule&#45;&gt;AppModule</title>
<path fill="none" stroke="black" d="M3862,-122.09C3862,-145.13 3862,-182 3862,-182 3862,-182 2091.92,-182 2091.92,-182"/>
<polygon fill="black" stroke="black" points="2091.92,-178.5 2081.92,-182 2091.92,-185.5 2091.92,-178.5"/>
</g>
<!-- BirthdayDashboardWidgetModule -->
<g id="node5" class="node">
<title>BirthdayDashboardWidgetModule</title>
<polygon fill="#8dd3c7" stroke="black" points="3782.39,-122 3779.39,-126 3758.39,-126 3755.39,-122 3571.61,-122 3571.61,-86 3782.39,-86 3782.39,-122"/>
<text text-anchor="middle" x="3677" y="-99.8" font-family="Times,serif" font-size="14.00">BirthdayDashboardWidgetModule</text>
</g>
<!-- BirthdayDashboardWidgetModule&#45;&gt;AppModule -->
<g id="edge4" class="edge">
<title>BirthdayDashboardWidgetModule&#45;&gt;AppModule</title>
<path fill="none" stroke="black" d="M3677,-122.01C3677,-144.49 3677,-180 3677,-180 3677,-180 2091.7,-180 2091.7,-180"/>
<polygon fill="black" stroke="black" points="2091.7,-176.5 2081.7,-180 2091.7,-183.5 2091.7,-176.5"/>
</g>
<!-- ChildrenModule -->
<g id="node6" class="node">
<title>ChildrenModule</title>
<polygon fill="#8dd3c7" stroke="black" points="3554.04,-122 3551.04,-126 3530.04,-126 3527.04,-122 3445.96,-122 3445.96,-86 3554.04,-86 3554.04,-122"/>
<text text-anchor="middle" x="3500" y="-99.8" font-family="Times,serif" font-size="14.00">ChildrenModule</text>
</g>
<!-- ChildrenModule&#45;&gt;AppModule -->
<g id="edge5" class="edge">
<title>ChildrenModule&#45;&gt;AppModule</title>
<path fill="none" stroke="black" d="M3500,-122.04C3500,-143.66 3500,-177 3500,-177 3500,-177 2091.73,-177 2091.73,-177"/>
<polygon fill="black" stroke="black" points="2091.73,-173.5 2081.73,-177 2091.73,-180.5 2091.73,-173.5"/>
</g>
<!-- ConfigurableEnumModule -->
<g id="node7" class="node">
<title>ConfigurableEnumModule</title>
<polygon fill="#8dd3c7" stroke="black" points="3427.36,-122 3424.36,-126 3403.36,-126 3400.36,-122 3260.64,-122 3260.64,-86 3427.36,-86 3427.36,-122"/>
<text text-anchor="middle" x="3344" y="-99.8" font-family="Times,serif" font-size="14.00">ConfigurableEnumModule</text>
</g>
<!-- ConfigurableEnumModule&#45;&gt;AppModule -->
<g id="edge6" class="edge">
<title>ConfigurableEnumModule&#45;&gt;AppModule</title>
<path fill="none" stroke="black" d="M3344,-122.28C3344,-143.32 3344,-175 3344,-175 3344,-175 2091.91,-175 2091.91,-175"/>
<polygon fill="black" stroke="black" points="2091.91,-171.5 2081.91,-175 2091.91,-178.5 2091.91,-171.5"/>
</g>
<!-- CoreModule -->
<g id="node8" class="node">
<title>CoreModule</title>
<polygon fill="#8dd3c7" stroke="black" points="3242.26,-122 3239.26,-126 3218.26,-126 3215.26,-122 3155.74,-122 3155.74,-86 3242.26,-86 3242.26,-122"/>
<text text-anchor="middle" x="3199" y="-99.8" font-family="Times,serif" font-size="14.00">CoreModule</text>
</g>
<!-- CoreModule&#45;&gt;AppModule -->
<g id="edge7" class="edge">
<title>CoreModule&#45;&gt;AppModule</title>
<path fill="none" stroke="black" d="M3199,-122.22C3199,-142.37 3199,-172 3199,-172 3199,-172 2091.93,-172 2091.93,-172"/>
<polygon fill="black" stroke="black" points="2091.93,-168.5 2081.93,-172 2091.93,-175.5 2091.93,-168.5"/>
</g>
<!-- DatabaseModule -->
<g id="node9" class="node">
<title>DatabaseModule</title>
<polygon fill="#8dd3c7" stroke="black" points="3137.35,-122 3134.35,-126 3113.35,-126 3110.35,-122 3026.65,-122 3026.65,-86 3137.35,-86 3137.35,-122"/>
<text text-anchor="middle" x="3082" y="-99.8" font-family="Times,serif" font-size="14.00">DatabaseModule</text>
</g>
<!-- DatabaseModule&#45;&gt;AppModule -->
<g id="edge8" class="edge">
<title>DatabaseModule&#45;&gt;AppModule</title>
<path fill="none" stroke="black" d="M3082,-122.11C3082,-141.34 3082,-169 3082,-169 3082,-169 2091.81,-169 2091.81,-169"/>
<polygon fill="black" stroke="black" points="2091.81,-165.5 2081.81,-169 2091.81,-172.5 2091.81,-165.5"/>
</g>
<!-- EntityCountDashboardWidgetModule -->
<g id="node10" class="node">
<title>EntityCountDashboardWidgetModule</title>
<polygon fill="#8dd3c7" stroke="black" points="3008.85,-122 3005.85,-126 2984.85,-126 2981.85,-122 2779.15,-122 2779.15,-86 3008.85,-86 3008.85,-122"/>
<text text-anchor="middle" x="2894" y="-99.8" font-family="Times,serif" font-size="14.00">EntityCountDashboardWidgetModule</text>
</g>
<!-- EntityCountDashboardWidgetModule&#45;&gt;AppModule -->
<g id="edge9" class="edge">
<title>EntityCountDashboardWidgetModule&#45;&gt;AppModule</title>
<path fill="none" stroke="black" d="M2894,-122.22C2894,-140.83 2894,-167 2894,-167 2894,-167 2091.77,-167 2091.77,-167"/>
<polygon fill="black" stroke="black" points="2091.77,-163.5 2081.77,-167 2091.77,-170.5 2091.77,-163.5"/>
</g>
<!-- FileModule -->
<g id="node11" class="node">
<title>FileModule</title>
<polygon fill="#8dd3c7" stroke="black" points="2760.83,-122 2757.83,-126 2736.83,-126 2733.83,-122 2679.17,-122 2679.17,-86 2760.83,-86 2760.83,-122"/>
<text text-anchor="middle" x="2720" y="-99.8" font-family="Times,serif" font-size="14.00">FileModule</text>
</g>
<!-- FileModule&#45;&gt;AppModule -->
<g id="edge10" class="edge">
<title>FileModule&#45;&gt;AppModule</title>
<path fill="none" stroke="black" d="M2720,-122C2720,-139.68 2720,-164 2720,-164 2720,-164 2091.77,-164 2091.77,-164"/>
<polygon fill="black" stroke="black" points="2091.77,-160.5 2081.77,-164 2091.77,-167.5 2091.77,-160.5"/>
</g>
<!-- HistoricalDataModule -->
<g id="node12" class="node">
<title>HistoricalDataModule</title>
<polygon fill="#8dd3c7" stroke="black" points="2661.68,-122 2658.68,-126 2637.68,-126 2634.68,-122 2520.32,-122 2520.32,-86 2661.68,-86 2661.68,-122"/>
<text text-anchor="middle" x="2591" y="-99.8" font-family="Times,serif" font-size="14.00">HistoricalDataModule</text>
</g>
<!-- HistoricalDataModule&#45;&gt;AppModule -->
<g id="edge11" class="edge">
<title>HistoricalDataModule&#45;&gt;AppModule</title>
<path fill="none" stroke="black" d="M2591,-122.03C2591,-139.06 2591,-162 2591,-162 2591,-162 2091.87,-162 2091.87,-162"/>
<polygon fill="black" stroke="black" points="2091.87,-158.5 2081.87,-162 2091.87,-165.5 2091.87,-158.5"/>
</g>
<!-- ImportModule -->
<g id="node13" class="node">
<title>ImportModule</title>
<polygon fill="#8dd3c7" stroke="black" points="2502.65,-122 2499.65,-126 2478.65,-126 2475.65,-122 2405.35,-122 2405.35,-86 2502.65,-86 2502.65,-122"/>
<text text-anchor="middle" x="2454" y="-99.8" font-family="Times,serif" font-size="14.00">ImportModule</text>
</g>
<!-- ImportModule&#45;&gt;AppModule -->
<g id="edge12" class="edge">
<title>ImportModule&#45;&gt;AppModule</title>
<path fill="none" stroke="black" d="M2454,-122.01C2454,-138.05 2454,-159 2454,-159 2454,-159 2091.97,-159 2091.97,-159"/>
<polygon fill="black" stroke="black" points="2091.97,-155.5 2081.97,-159 2091.97,-162.5 2091.97,-155.5"/>
</g>
<!-- LanguageModule -->
<g id="node14" class="node">
<title>LanguageModule</title>
<polygon fill="#8dd3c7" stroke="black" points="2387.25,-122 2384.25,-126 2363.25,-126 2360.25,-122 2272.75,-122 2272.75,-86 2387.25,-86 2387.25,-122"/>
<text text-anchor="middle" x="2330" y="-99.8" font-family="Times,serif" font-size="14.00">LanguageModule</text>
</g>
<!-- LanguageModule&#45;&gt;AppModule -->
<g id="edge13" class="edge">
<title>LanguageModule&#45;&gt;AppModule</title>
<path fill="none" stroke="black" d="M2330,-122.24C2330,-137.57 2330,-157 2330,-157 2330,-157 2091.86,-157 2091.86,-157"/>
<polygon fill="black" stroke="black" points="2091.86,-153.5 2081.86,-157 2091.86,-160.5 2091.86,-153.5"/>
</g>
<!-- LatestChangesModule -->
<g id="node15" class="node">
<title>LatestChangesModule</title>
<polygon fill="#8dd3c7" stroke="black" points="2254.97,-122 2251.97,-126 2230.97,-126 2227.97,-122 2113.03,-122 2113.03,-86 2254.97,-86 2254.97,-122"/>
<text text-anchor="middle" x="2184" y="-99.8" font-family="Times,serif" font-size="14.00">LatestChangesModule</text>
</g>
<!-- LatestChangesModule&#45;&gt;AppModule -->
<g id="edge14" class="edge">
<title>LatestChangesModule&#45;&gt;AppModule</title>
<path fill="none" stroke="black" d="M2184,-122.05C2184,-136.37 2184,-154 2184,-154 2184,-154 2092.04,-154 2092.04,-154"/>
<polygon fill="black" stroke="black" points="2092.04,-150.5 2082.04,-154 2092.04,-157.5 2092.04,-150.5"/>
</g>
<!-- LocationModule -->
<g id="node16" class="node">
<title>LocationModule</title>
<polygon fill="#8dd3c7" stroke="black" points="2094.81,-122 2091.81,-126 2070.81,-126 2067.81,-122 1985.19,-122 1985.19,-86 2094.81,-86 2094.81,-122"/>
<text text-anchor="middle" x="2040" y="-99.8" font-family="Times,serif" font-size="14.00">LocationModule</text>
</g>
<!-- LocationModule&#45;&gt;AppModule -->
<g id="edge15" class="edge">
<title>LocationModule&#45;&gt;AppModule</title>
<path fill="none" stroke="black" d="M2040,-122.11C2040,-122.11 2040,-140.99 2040,-140.99"/>
<polygon fill="black" stroke="black" points="2036.5,-140.99 2040,-150.99 2043.5,-140.99 2036.5,-140.99"/>
</g>
<!-- MarkdownPageModule -->
<g id="node17" class="node">
<title>MarkdownPageModule</title>
<polygon fill="#8dd3c7" stroke="black" points="1967.19,-122 1964.19,-126 1943.19,-126 1940.19,-122 1818.81,-122 1818.81,-86 1967.19,-86 1967.19,-122"/>
<text text-anchor="middle" x="1893" y="-99.8" font-family="Times,serif" font-size="14.00">MarkdownPageModule</text>
</g>
<!-- MarkdownPageModule&#45;&gt;AppModule -->
<g id="edge16" class="edge">
<title>MarkdownPageModule&#45;&gt;AppModule</title>
<path fill="none" stroke="black" d="M1893,-122.05C1893,-136.37 1893,-154 1893,-154 1893,-154 1988.27,-154 1988.27,-154"/>
<polygon fill="black" stroke="black" points="1988.27,-157.5 1998.27,-154 1988.27,-150.5 1988.27,-157.5"/>
</g>
<!-- MatchingEntitiesModule -->
<g id="node18" class="node">
<title>MatchingEntitiesModule</title>
<polygon fill="#8dd3c7" stroke="black" points="1800.98,-122 1797.98,-126 1776.98,-126 1773.98,-122 1645.02,-122 1645.02,-86 1800.98,-86 1800.98,-122"/>
<text text-anchor="middle" x="1723" y="-99.8" font-family="Times,serif" font-size="14.00">MatchingEntitiesModule</text>
</g>
<!-- MatchingEntitiesModule&#45;&gt;AppModule -->
<g id="edge17" class="edge">
<title>MatchingEntitiesModule&#45;&gt;AppModule</title>
<path fill="none" stroke="black" d="M1723,-122.24C1723,-137.57 1723,-157 1723,-157 1723,-157 1988.23,-157 1988.23,-157"/>
<polygon fill="black" stroke="black" points="1988.23,-160.5 1998.23,-157 1988.23,-153.5 1988.23,-160.5"/>
</g>
<!-- NotesModule -->
<g id="node19" class="node">
<title>NotesModule</title>
<polygon fill="#8dd3c7" stroke="black" points="1627.21,-122 1624.21,-126 1603.21,-126 1600.21,-122 1534.79,-122 1534.79,-86 1627.21,-86 1627.21,-122"/>
<text text-anchor="middle" x="1581" y="-99.8" font-family="Times,serif" font-size="14.00">NotesModule</text>
</g>
<!-- NotesModule&#45;&gt;AppModule -->
<g id="edge18" class="edge">
<title>NotesModule&#45;&gt;AppModule</title>
<path fill="none" stroke="black" d="M1581,-122.01C1581,-138.05 1581,-159 1581,-159 1581,-159 1988.05,-159 1988.05,-159"/>
<polygon fill="black" stroke="black" points="1988.05,-162.5 1998.05,-159 1988.05,-155.5 1988.05,-162.5"/>
</g>
<!-- PermissionsModule -->
<g id="node20" class="node">
<title>PermissionsModule</title>
<polygon fill="#8dd3c7" stroke="black" points="1516.71,-122 1513.71,-126 1492.71,-126 1489.71,-122 1389.29,-122 1389.29,-86 1516.71,-86 1516.71,-122"/>
<text text-anchor="middle" x="1453" y="-99.8" font-family="Times,serif" font-size="14.00">PermissionsModule</text>
</g>
<!-- PermissionsModule&#45;&gt;AppModule -->
<g id="edge19" class="edge">
<title>PermissionsModule&#45;&gt;AppModule</title>
<path fill="none" stroke="black" d="M1453,-122.03C1453,-139.06 1453,-162 1453,-162 1453,-162 1988.25,-162 1988.25,-162"/>
<polygon fill="black" stroke="black" points="1988.26,-165.5 1998.25,-162 1988.25,-158.5 1988.26,-165.5"/>
</g>
<!-- ProgressDashboardWidgetModule -->
<g id="node21" class="node">
<title>ProgressDashboardWidgetModule</title>
<polygon fill="#8dd3c7" stroke="black" points="1371.61,-122 1368.61,-126 1347.61,-126 1344.61,-122 1162.39,-122 1162.39,-86 1371.61,-86 1371.61,-122"/>
<text text-anchor="middle" x="1267" y="-99.8" font-family="Times,serif" font-size="14.00">ProgressDashboardWidgetModule</text>
</g>
<!-- ProgressDashboardWidgetModule&#45;&gt;AppModule -->
<g id="edge20" class="edge">
<title>ProgressDashboardWidgetModule&#45;&gt;AppModule</title>
<path fill="none" stroke="black" d="M1267,-122C1267,-139.68 1267,-164 1267,-164 1267,-164 1988.17,-164 1988.17,-164"/>
<polygon fill="black" stroke="black" points="1988.17,-167.5 1998.17,-164 1988.17,-160.5 1988.17,-167.5"/>
</g>
<!-- ReportingModule -->
<g id="node22" class="node">
<title>ReportingModule</title>
<polygon fill="#8dd3c7" stroke="black" points="1143.54,-122 1140.54,-126 1119.54,-126 1116.54,-122 1028.46,-122 1028.46,-86 1143.54,-86 1143.54,-122"/>
<text text-anchor="middle" x="1086" y="-99.8" font-family="Times,serif" font-size="14.00">ReportingModule</text>
</g>
<!-- ReportingModule&#45;&gt;AppModule -->
<g id="edge21" class="edge">
<title>ReportingModule&#45;&gt;AppModule</title>
<path fill="none" stroke="black" d="M1086,-122.22C1086,-140.83 1086,-167 1086,-167 1086,-167 1988.09,-167 1988.09,-167"/>
<polygon fill="black" stroke="black" points="1988.09,-170.5 1998.09,-167 1988.09,-163.5 1988.09,-170.5"/>
</g>
<!-- SchoolsModule -->
<g id="node23" class="node">
<title>SchoolsModule</title>
<polygon fill="#8dd3c7" stroke="black" points="1009.88,-122 1006.88,-126 985.88,-126 982.88,-122 906.12,-122 906.12,-86 1009.88,-86 1009.88,-122"/>
<text text-anchor="middle" x="958" y="-99.8" font-family="Times,serif" font-size="14.00">SchoolsModule</text>
</g>
<!-- SchoolsModule&#45;&gt;AppModule -->
<g id="edge22" class="edge">
<title>SchoolsModule&#45;&gt;AppModule</title>
<path fill="none" stroke="black" d="M958,-122.11C958,-141.34 958,-169 958,-169 958,-169 1988.25,-169 1988.25,-169"/>
<polygon fill="black" stroke="black" points="1988.25,-172.5 1998.25,-169 1988.25,-165.5 1988.25,-172.5"/>
</g>
<!-- SessionModule -->
<g id="node24" class="node">
<title>SessionModule</title>
<polygon fill="#8dd3c7" stroke="black" points="888.33,-122 885.33,-126 864.33,-126 861.33,-122 785.67,-122 785.67,-86 888.33,-86 888.33,-122"/>
<text text-anchor="middle" x="837" y="-99.8" font-family="Times,serif" font-size="14.00">SessionModule</text>
</g>
<!-- SessionModule&#45;&gt;AppModule -->
<g id="edge23" class="edge">
<title>SessionModule&#45;&gt;AppModule</title>
<path fill="none" stroke="black" d="M837,-122.22C837,-142.37 837,-172 837,-172 837,-172 1988.24,-172 1988.24,-172"/>
<polygon fill="black" stroke="black" points="1988.24,-175.5 1998.24,-172 1988.24,-168.5 1988.24,-175.5"/>
</g>
<!-- ShortcutDashboardWidgetModule -->
<g id="node25" class="node">
<title>ShortcutDashboardWidgetModule</title>
<polygon fill="#8dd3c7" stroke="black" points="767.34,-122 764.34,-126 743.34,-126 740.34,-122 558.66,-122 558.66,-86 767.34,-86 767.34,-122"/>
<text text-anchor="middle" x="663" y="-99.8" font-family="Times,serif" font-size="14.00">ShortcutDashboardWidgetModule</text>
</g>
<!-- ShortcutDashboardWidgetModule&#45;&gt;AppModule -->
<g id="edge24" class="edge">
<title>ShortcutDashboardWidgetModule&#45;&gt;AppModule</title>
<path fill="none" stroke="black" d="M663,-122.28C663,-143.32 663,-175 663,-175 663,-175 1988.04,-175 1988.04,-175"/>
<polygon fill="black" stroke="black" points="1988.04,-178.5 1998.04,-175 1988.04,-171.5 1988.04,-178.5"/>
</g>
<!-- TodosModule -->
<g id="node26" class="node">
<title>TodosModule</title>
<polygon fill="#8dd3c7" stroke="black" points="540.05,-122 537.05,-126 516.05,-126 513.05,-122 445.95,-122 445.95,-86 540.05,-86 540.05,-122"/>
<text text-anchor="middle" x="493" y="-99.8" font-family="Times,serif" font-size="14.00">TodosModule</text>
</g>
<!-- TodosModule&#45;&gt;AppModule -->
<g id="edge25" class="edge">
<title>TodosModule&#45;&gt;AppModule</title>
<path fill="none" stroke="black" d="M493,-122.04C493,-143.66 493,-177 493,-177 493,-177 1988.22,-177 1988.22,-177"/>
<polygon fill="black" stroke="black" points="1988.22,-180.5 1998.22,-177 1988.22,-173.5 1988.22,-180.5"/>
</g>
<!-- UiComponent -->
<g id="node27" class="node">
<title>UiComponent</title>
<polygon fill="#8dd3c7" stroke="black" points="427.83,-122 424.83,-126 403.83,-126 400.83,-122 332.17,-122 332.17,-86 427.83,-86 427.83,-122"/>
<text text-anchor="middle" x="380" y="-99.8" font-family="Times,serif" font-size="14.00">UiComponent</text>
</g>
<!-- UiComponent&#45;&gt;AppModule -->
<g id="edge26" class="edge">
<title>UiComponent&#45;&gt;AppModule</title>
<path fill="none" stroke="black" d="M380,-122.01C380,-144.49 380,-180 380,-180 380,-180 1988.14,-180 1988.14,-180"/>
<polygon fill="black" stroke="black" points="1988.14,-183.5 1998.14,-180 1988.14,-176.5 1988.14,-183.5"/>
</g>
<!-- AnalyticsService -->
<g id="node29" class="node">
<title>AnalyticsService</title>
<ellipse fill="#fdb462" stroke="black" cx="101" cy="-104" rx="77" ry="18"/>
<text text-anchor="middle" x="101" y="-99.8" font-family="Times,serif" font-size="14.00">AnalyticsService</text>
</g>
<!-- AnalyticsService&#45;&gt;AppModule -->
<g id="edge28" class="edge">
<title>AnalyticsService&#45;&gt;AppModule</title>
<path fill="none" stroke="black" d="M101,-122.38C101,-146.28 101,-185 101,-185 101,-185 1988.15,-185 1988.15,-185"/>
<polygon fill="black" stroke="black" points="1988.15,-188.5 1998.15,-185 1988.15,-181.5 1988.15,-188.5"/>
</g>
</g>
</svg>
