<?xml version="1.0" encoding="UTF-8" standalone="no"?>
<!DOCTYPE svg PUBLIC "-//W3C//DTD SVG 1.1//EN"
 "http://www.w3.org/Graphics/SVG/1.1/DTD/svg11.dtd">
<!-- Generated by graphviz version 2.47.0 (20210316.0004)
 -->
<!-- Title: dependencies Pages: 1 -->
<svg width="4482pt" height="284pt"
 viewBox="0.00 0.00 4482.00 284.00" xmlns="http://www.w3.org/2000/svg" xmlns:xlink="http://www.w3.org/1999/xlink">
<g id="graph0" class="graph" transform="scale(1 1) rotate(0) translate(4 280)">
<title>dependencies</title>
<polygon fill="white" stroke="transparent" points="-4,4 -4,-280 4478,-280 4478,4 -4,4"/>
<text text-anchor="start" x="2216.01" y="-42.4" font-family="Times-12" font-weight="bold" font-size="14.00">Legend</text>
<polygon fill="#ffffb3" stroke="transparent" points="2003,-10 2003,-30 2023,-30 2023,-10 2003,-10"/>
<text text-anchor="start" x="2026.63" y="-15.4" font-family="Times-12" font-size="14.00"> &#160;Declarations</text>
<polygon fill="#8dd3c7" stroke="transparent" points="2116,-10 2116,-30 2136,-30 2136,-10 2116,-10"/>
<text text-anchor="start" x="2139.73" y="-15.4" font-family="Times-12" font-size="14.00"> &#160;Module</text>
<polygon fill="#80b1d3" stroke="transparent" points="2202,-10 2202,-30 2222,-30 2222,-10 2202,-10"/>
<text text-anchor="start" x="2225.78" y="-15.4" font-family="Times-12" font-size="14.00"> &#160;Bootstrap</text>
<polygon fill="#fdb462" stroke="transparent" points="2299,-10 2299,-30 2319,-30 2319,-10 2299,-10"/>
<text text-anchor="start" x="2322.67" y="-15.4" font-family="Times-12" font-size="14.00"> &#160;Providers</text>
<polygon fill="#fb8072" stroke="transparent" points="2395,-10 2395,-30 2415,-30 2415,-10 2395,-10"/>
<text text-anchor="start" x="2418.73" y="-15.4" font-family="Times-12" font-size="14.00"> &#160;Exports</text>
<g id="clust1" class="cluster">
<title>cluster_AppModule</title>
<polygon fill="none" stroke="black" stroke-dasharray="1,5" points="8,-70 8,-268 4466,-268 4466,-70 8,-70"/>
</g>
<g id="clust2" class="cluster">
<title>cluster_AppModule_declarations</title>
<polygon fill="none" stroke="black" points="4336,-78 4336,-130 4458,-130 4458,-78 4336,-78"/>
</g>
<g id="clust4" class="cluster">
<title>cluster_AppModule_imports</title>
<polygon fill="none" stroke="black" points="386,-78 386,-130 4328,-130 4328,-78 386,-78"/>
</g>
<g id="clust6" class="cluster">
<title>cluster_AppModule_bootstrap</title>
<polygon fill="none" stroke="black" points="2187,-208 2187,-260 2311,-260 2311,-208 2187,-208"/>
</g>
<g id="clust7" class="cluster">
<title>cluster_AppModule_providers</title>
<polygon fill="none" stroke="black" points="16,-78 16,-130 378,-130 378,-78 16,-78"/>
</g>
<!-- AppComponent -->
<g id="node1" class="node">
<title>AppComponent</title>
<polygon fill="#ffffb3" stroke="black" points="4449.94,-122 4344.06,-122 4344.06,-86 4449.94,-86 4449.94,-122"/>
<text text-anchor="middle" x="4397" y="-99.8" font-family="Times,serif" font-size="14.00">AppComponent</text>
</g>
<!-- AppModule -->
<g id="node2" class="node">
<title>AppModule</title>
<polygon fill="#8dd3c7" stroke="black" points="2290.66,-187 2287.66,-191 2266.66,-191 2263.66,-187 2207.34,-187 2207.34,-151 2290.66,-151 2290.66,-187"/>
<text text-anchor="middle" x="2249" y="-164.8" font-family="Times,serif" font-size="14.00">AppModule</text>
</g>
<!-- AppComponent&#45;&gt;AppModule -->
<g id="edge1" class="edge">
<title>AppComponent&#45;&gt;AppModule</title>
<path fill="none" stroke="black" d="M4397,-122.38C4397,-146.28 4397,-185 4397,-185 4397,-185 2300.94,-185 2300.94,-185"/>
<polygon fill="black" stroke="black" points="2300.94,-181.5 2290.94,-185 2300.94,-188.5 2300.94,-181.5"/>
</g>
<!-- AppComponent  -->
<g id="node29" class="node">
<title>AppComponent </title>
<polygon fill="#80b1d3" stroke="black" points="2303.44,-252 2194.56,-252 2194.56,-216 2303.44,-216 2303.44,-252"/>
<text text-anchor="middle" x="2249" y="-229.8" font-family="Times,serif" font-size="14.00">AppComponent </text>
</g>
<!-- AppModule&#45;&gt;AppComponent  -->
<g id="edge28" class="edge">
<title>AppModule&#45;&gt;AppComponent </title>
<path fill="none" stroke="black" stroke-dasharray="1,5" d="M2249,-187.11C2249,-187.11 2249,-205.99 2249,-205.99"/>
<polygon fill="black" stroke="black" points="2245.5,-205.99 2249,-215.99 2252.5,-205.99 2245.5,-205.99"/>
</g>
<!-- AdminModule -->
<g id="node3" class="node">
<title>AdminModule</title>
<polygon fill="#8dd3c7" stroke="black" points="4320.44,-122 4317.44,-126 4296.44,-126 4293.44,-122 4221.56,-122 4221.56,-86 4320.44,-86 4320.44,-122"/>
<text text-anchor="middle" x="4271" y="-99.8" font-family="Times,serif" font-size="14.00">AdminModule</text>
</g>
<!-- AdminModule&#45;&gt;AppModule -->
<g id="edge2" class="edge">
<title>AdminModule&#45;&gt;AppModule</title>
<path fill="none" stroke="black" d="M4271,-122.32C4271,-145.66 4271,-183 4271,-183 4271,-183 2300.77,-183 2300.77,-183"/>
<polygon fill="black" stroke="black" points="2300.77,-179.5 2290.77,-183 2300.77,-186.5 2300.77,-179.5"/>
</g>
<!-- ApplicationLoadingComponent -->
<g id="node4" class="node">
<title>ApplicationLoadingComponent</title>
<polygon fill="#8dd3c7" stroke="black" points="4204.09,-122 4201.09,-126 4180.09,-126 4177.09,-122 4009.91,-122 4009.91,-86 4204.09,-86 4204.09,-122"/>
<text text-anchor="middle" x="4107" y="-99.8" font-family="Times,serif" font-size="14.00">ApplicationLoadingComponent</text>
</g>
<!-- ApplicationLoadingComponent&#45;&gt;AppModule -->
<g id="edge3" class="edge">
<title>ApplicationLoadingComponent&#45;&gt;AppModule</title>
<path fill="none" stroke="black" d="M4107,-122.01C4107,-144.49 4107,-180 4107,-180 4107,-180 2300.85,-180 2300.85,-180"/>
<polygon fill="black" stroke="black" points="2300.85,-176.5 2290.85,-180 2300.85,-183.5 2300.85,-176.5"/>
</g>
<!-- AttendanceModule -->
<g id="node5" class="node">
<title>AttendanceModule</title>
<polygon fill="#8dd3c7" stroke="black" points="3991.8,-122 3988.8,-126 3967.8,-126 3964.8,-122 3868.2,-122 3868.2,-86 3991.8,-86 3991.8,-122"/>
<text text-anchor="middle" x="3930" y="-99.8" font-family="Times,serif" font-size="14.00">AttendanceModule</text>
</g>
<!-- AttendanceModule&#45;&gt;AppModule -->
<g id="edge4" class="edge">
<title>AttendanceModule&#45;&gt;AppModule</title>
<path fill="none" stroke="black" d="M3930,-122.29C3930,-144.21 3930,-178 3930,-178 3930,-178 2300.97,-178 2300.97,-178"/>
<polygon fill="black" stroke="black" points="2300.97,-174.5 2290.97,-178 2300.97,-181.5 2300.97,-174.5"/>
</g>
<!-- BirthdayDashboardWidgetModule -->
<g id="node6" class="node">
<title>BirthdayDashboardWidgetModule</title>
<polygon fill="#8dd3c7" stroke="black" points="3850.39,-122 3847.39,-126 3826.39,-126 3823.39,-122 3639.61,-122 3639.61,-86 3850.39,-86 3850.39,-122"/>
<text text-anchor="middle" x="3745" y="-99.8" font-family="Times,serif" font-size="14.00">BirthdayDashboardWidgetModule</text>
</g>
<!-- BirthdayDashboardWidgetModule&#45;&gt;AppModule -->
<g id="edge5" class="edge">
<title>BirthdayDashboardWidgetModule&#45;&gt;AppModule</title>
<path fill="none" stroke="black" d="M3745,-122.28C3745,-143.32 3745,-175 3745,-175 3745,-175 2300.97,-175 2300.97,-175"/>
<polygon fill="black" stroke="black" points="2300.97,-171.5 2290.97,-175 2300.97,-178.5 2300.97,-171.5"/>
</g>
<!-- ChildrenModule -->
<g id="node7" class="node">
<title>ChildrenModule</title>
<polygon fill="#8dd3c7" stroke="black" points="3622.04,-122 3619.04,-126 3598.04,-126 3595.04,-122 3513.96,-122 3513.96,-86 3622.04,-86 3622.04,-122"/>
<text text-anchor="middle" x="3568" y="-99.8" font-family="Times,serif" font-size="14.00">ChildrenModule</text>
</g>
<!-- ChildrenModule&#45;&gt;AppModule -->
<g id="edge6" class="edge">
<title>ChildrenModule&#45;&gt;AppModule</title>
<path fill="none" stroke="black" d="M3568,-122.13C3568,-142.57 3568,-173 3568,-173 3568,-173 2301.02,-173 2301.02,-173"/>
<polygon fill="black" stroke="black" points="2301.02,-169.5 2291.02,-173 2301.02,-176.5 2301.02,-169.5"/>
</g>
<!-- ConfigurableEnumModule -->
<g id="node8" class="node">
<title>ConfigurableEnumModule</title>
<polygon fill="#8dd3c7" stroke="black" points="3495.36,-122 3492.36,-126 3471.36,-126 3468.36,-122 3328.64,-122 3328.64,-86 3495.36,-86 3495.36,-122"/>
<text text-anchor="middle" x="3412" y="-99.8" font-family="Times,serif" font-size="14.00">ConfigurableEnumModule</text>
</g>
<!-- ConfigurableEnumModule&#45;&gt;AppModule -->
<g id="edge7" class="edge">
<title>ConfigurableEnumModule&#45;&gt;AppModule</title>
<path fill="none" stroke="black" d="M3412,-122.31C3412,-142.15 3412,-171 3412,-171 3412,-171 2300.73,-171 2300.73,-171"/>
<polygon fill="black" stroke="black" points="2300.73,-167.5 2290.73,-171 2300.73,-174.5 2300.73,-167.5"/>
</g>
<!-- CoreModule -->
<g id="node9" class="node">
<title>CoreModule</title>
<polygon fill="#8dd3c7" stroke="black" points="3310.26,-122 3307.26,-126 3286.26,-126 3283.26,-122 3223.74,-122 3223.74,-86 3310.26,-86 3310.26,-122"/>
<text text-anchor="middle" x="3267" y="-99.8" font-family="Times,serif" font-size="14.00">CoreModule</text>
</g>
<!-- CoreModule&#45;&gt;AppModule -->
<g id="edge8" class="edge">
<title>CoreModule&#45;&gt;AppModule</title>
<path fill="none" stroke="black" d="M3267,-122.17C3267,-141.09 3267,-168 3267,-168 3267,-168 2300.8,-168 2300.8,-168"/>
<polygon fill="black" stroke="black" points="2300.8,-164.5 2290.8,-168 2300.8,-171.5 2300.8,-164.5"/>
</g>
<!-- EntityCountDashboardWidgetModule -->
<g id="node10" class="node">
<title>EntityCountDashboardWidgetModule</title>
<polygon fill="#8dd3c7" stroke="black" points="3205.85,-122 3202.85,-126 3181.85,-126 3178.85,-122 2976.15,-122 2976.15,-86 3205.85,-86 3205.85,-122"/>
<text text-anchor="middle" x="3091" y="-99.8" font-family="Times,serif" font-size="14.00">EntityCountDashboardWidgetModule</text>
</g>
<!-- EntityCountDashboardWidgetModule&#45;&gt;AppModule -->
<g id="edge9" class="edge">
<title>EntityCountDashboardWidgetModule&#45;&gt;AppModule</title>
<path fill="none" stroke="black" d="M3091,-122.27C3091,-140.56 3091,-166 3091,-166 3091,-166 2300.75,-166 2300.75,-166"/>
<polygon fill="black" stroke="black" points="2300.75,-162.5 2290.75,-166 2300.75,-169.5 2300.75,-162.5"/>
</g>
<!-- FileModule -->
<g id="node11" class="node">
<title>FileModule</title>
<polygon fill="#8dd3c7" stroke="black" points="2957.83,-122 2954.83,-126 2933.83,-126 2930.83,-122 2876.17,-122 2876.17,-86 2957.83,-86 2957.83,-122"/>
<text text-anchor="middle" x="2917" y="-99.8" font-family="Times,serif" font-size="14.00">FileModule</text>
</g>
<!-- FileModule&#45;&gt;AppModule -->
<g id="edge10" class="edge">
<title>FileModule&#45;&gt;AppModule</title>
<path fill="none" stroke="black" d="M2917,-122.02C2917,-139.37 2917,-163 2917,-163 2917,-163 2300.79,-163 2300.79,-163"/>
<polygon fill="black" stroke="black" points="2300.79,-159.5 2290.79,-163 2300.79,-166.5 2300.79,-159.5"/>
</g>
<!-- ImportModule -->
<g id="node12" class="node">
<title>ImportModule</title>
<polygon fill="#8dd3c7" stroke="black" points="2858.65,-122 2855.65,-126 2834.65,-126 2831.65,-122 2761.35,-122 2761.35,-86 2858.65,-86 2858.65,-122"/>
<text text-anchor="middle" x="2810" y="-99.8" font-family="Times,serif" font-size="14.00">ImportModule</text>
</g>
<!-- ImportModule&#45;&gt;AppModule -->
<g id="edge11" class="edge">
<title>ImportModule&#45;&gt;AppModule</title>
<path fill="none" stroke="black" d="M2810,-122.04C2810,-138.73 2810,-161 2810,-161 2810,-161 2300.71,-161 2300.71,-161"/>
<polygon fill="black" stroke="black" points="2300.71,-157.5 2290.71,-161 2300.71,-164.5 2300.71,-157.5"/>
</g>
<!-- LanguageModule -->
<g id="node13" class="node">
<title>LanguageModule</title>
<polygon fill="#8dd3c7" stroke="black" points="2743.25,-122 2740.25,-126 2719.25,-126 2716.25,-122 2628.75,-122 2628.75,-86 2743.25,-86 2743.25,-122"/>
<text text-anchor="middle" x="2686" y="-99.8" font-family="Times,serif" font-size="14.00">LanguageModule</text>
</g>
<!-- LanguageModule&#45;&gt;AppModule -->
<g id="edge12" class="edge">
<title>LanguageModule&#45;&gt;AppModule</title>
<path fill="none" stroke="black" d="M2686,-122.01C2686,-138.05 2686,-159 2686,-159 2686,-159 2300.9,-159 2300.9,-159"/>
<polygon fill="black" stroke="black" points="2300.9,-155.5 2290.9,-159 2300.9,-162.5 2300.9,-155.5"/>
</g>
<!-- LatestChangesModule -->
<g id="node14" class="node">
<title>LatestChangesModule</title>
<polygon fill="#8dd3c7" stroke="black" points="2610.97,-122 2607.97,-126 2586.97,-126 2583.97,-122 2469.03,-122 2469.03,-86 2610.97,-86 2610.97,-122"/>
<text text-anchor="middle" x="2540" y="-99.8" font-family="Times,serif" font-size="14.00">LatestChangesModule</text>
</g>
<!-- LatestChangesModule&#45;&gt;AppModule -->
<g id="edge13" class="edge">
<title>LatestChangesModule&#45;&gt;AppModule</title>
<path fill="none" stroke="black" d="M2540,-122.19C2540,-137.18 2540,-156 2540,-156 2540,-156 2300.69,-156 2300.69,-156"/>
<polygon fill="black" stroke="black" points="2300.69,-152.5 2290.69,-156 2300.69,-159.5 2300.69,-152.5"/>
</g>
<!-- LocationModule -->
<g id="node15" class="node">
<title>LocationModule</title>
<polygon fill="#8dd3c7" stroke="black" points="2450.81,-122 2447.81,-126 2426.81,-126 2423.81,-122 2341.19,-122 2341.19,-86 2450.81,-86 2450.81,-122"/>
<text text-anchor="middle" x="2396" y="-99.8" font-family="Times,serif" font-size="14.00">LocationModule</text>
</g>
<!-- LocationModule&#45;&gt;AppModule -->
<g id="edge14" class="edge">
<title>LocationModule&#45;&gt;AppModule</title>
<path fill="none" stroke="black" d="M2396,-122.05C2396,-136.37 2396,-154 2396,-154 2396,-154 2300.73,-154 2300.73,-154"/>
<polygon fill="black" stroke="black" points="2300.73,-150.5 2290.73,-154 2300.73,-157.5 2300.73,-150.5"/>
</g>
<!-- MarkdownPageModule -->
<g id="node16" class="node">
<title>MarkdownPageModule</title>
<polygon fill="#8dd3c7" stroke="black" points="2323.19,-122 2320.19,-126 2299.19,-126 2296.19,-122 2174.81,-122 2174.81,-86 2323.19,-86 2323.19,-122"/>
<text text-anchor="middle" x="2249" y="-99.8" font-family="Times,serif" font-size="14.00">MarkdownPageModule</text>
</g>
<!-- MarkdownPageModule&#45;&gt;AppModule -->
<g id="edge15" class="edge">
<title>MarkdownPageModule&#45;&gt;AppModule</title>
<path fill="none" stroke="black" d="M2249,-122.11C2249,-122.11 2249,-140.99 2249,-140.99"/>
<polygon fill="black" stroke="black" points="2245.5,-140.99 2249,-150.99 2252.5,-140.99 2245.5,-140.99"/>
</g>
<!-- MatchingEntitiesModule -->
<g id="node17" class="node">
<title>MatchingEntitiesModule</title>
<polygon fill="#8dd3c7" stroke="black" points="2156.98,-122 2153.98,-126 2132.98,-126 2129.98,-122 2001.02,-122 2001.02,-86 2156.98,-86 2156.98,-122"/>
<text text-anchor="middle" x="2079" y="-99.8" font-family="Times,serif" font-size="14.00">MatchingEntitiesModule</text>
</g>
<!-- MatchingEntitiesModule&#45;&gt;AppModule -->
<g id="edge16" class="edge">
<title>MatchingEntitiesModule&#45;&gt;AppModule</title>
<path fill="none" stroke="black" d="M2079,-122.05C2079,-136.37 2079,-154 2079,-154 2079,-154 2196.98,-154 2196.98,-154"/>
<polygon fill="black" stroke="black" points="2196.98,-157.5 2206.98,-154 2196.98,-150.5 2196.98,-157.5"/>
</g>
<!-- NotesModule -->
<g id="node18" class="node">
<title>NotesModule</title>
<polygon fill="#8dd3c7" stroke="black" points="1983.21,-122 1980.21,-126 1959.21,-126 1956.21,-122 1890.79,-122 1890.79,-86 1983.21,-86 1983.21,-122"/>
<text text-anchor="middle" x="1937" y="-99.8" font-family="Times,serif" font-size="14.00">NotesModule</text>
</g>
<!-- NotesModule&#45;&gt;AppModule -->
<g id="edge17" class="edge">
<title>NotesModule&#45;&gt;AppModule</title>
<path fill="none" stroke="black" d="M1937,-122.19C1937,-137.18 1937,-156 1937,-156 1937,-156 2197.25,-156 2197.25,-156"/>
<polygon fill="black" stroke="black" points="2197.25,-159.5 2207.25,-156 2197.25,-152.5 2197.25,-159.5"/>
</g>
<!-- PermissionsModule -->
<g id="node19" class="node">
<title>PermissionsModule</title>
<polygon fill="#8dd3c7" stroke="black" points="1872.71,-122 1869.71,-126 1848.71,-126 1845.71,-122 1745.29,-122 1745.29,-86 1872.71,-86 1872.71,-122"/>
<text text-anchor="middle" x="1809" y="-99.8" font-family="Times,serif" font-size="14.00">PermissionsModule</text>
</g>
<!-- PermissionsModule&#45;&gt;AppModule -->
<g id="edge18" class="edge">
<title>PermissionsModule&#45;&gt;AppModule</title>
<path fill="none" stroke="black" d="M1809,-122.01C1809,-138.05 1809,-159 1809,-159 1809,-159 2197.21,-159 2197.21,-159"/>
<polygon fill="black" stroke="black" points="2197.21,-162.5 2207.21,-159 2197.21,-155.5 2197.21,-162.5"/>
</g>
<!-- ProgressDashboardWidgetModule -->
<g id="node20" class="node">
<title>ProgressDashboardWidgetModule</title>
<polygon fill="#8dd3c7" stroke="black" points="1727.61,-122 1724.61,-126 1703.61,-126 1700.61,-122 1518.39,-122 1518.39,-86 1727.61,-86 1727.61,-122"/>
<text text-anchor="middle" x="1623" y="-99.8" font-family="Times,serif" font-size="14.00">ProgressDashboardWidgetModule</text>
</g>
<!-- ProgressDashboardWidgetModule&#45;&gt;AppModule -->
<g id="edge19" class="edge">
<title>ProgressDashboardWidgetModule&#45;&gt;AppModule</title>
<path fill="none" stroke="black" d="M1623,-122.04C1623,-138.73 1623,-161 1623,-161 1623,-161 2196.95,-161 2196.95,-161"/>
<polygon fill="black" stroke="black" points="2196.95,-164.5 2206.95,-161 2196.95,-157.5 2196.95,-164.5"/>
</g>
<!-- PublicFormModule -->
<g id="node21" class="node">
<title>PublicFormModule</title>
<polygon fill="#8dd3c7" stroke="black" points="1499.66,-122 1496.66,-126 1475.66,-126 1472.66,-122 1374.34,-122 1374.34,-86 1499.66,-86 1499.66,-122"/>
<text text-anchor="middle" x="1437" y="-99.8" font-family="Times,serif" font-size="14.00">PublicFormModule</text>
</g>
<!-- PublicFormModule&#45;&gt;AppModule -->
<g id="edge20" class="edge">
<title>PublicFormModule&#45;&gt;AppModule</title>
<path fill="none" stroke="black" d="M1437,-122.02C1437,-139.37 1437,-163 1437,-163 1437,-163 2197.34,-163 2197.34,-163"/>
<polygon fill="black" stroke="black" points="2197.34,-166.5 2207.34,-163 2197.34,-159.5 2197.34,-166.5"/>
</g>
<!-- ReportingModule -->
<g id="node22" class="node">
<title>ReportingModule</title>
<polygon fill="#8dd3c7" stroke="black" points="1355.54,-122 1352.54,-126 1331.54,-126 1328.54,-122 1240.46,-122 1240.46,-86 1355.54,-86 1355.54,-122"/>
<text text-anchor="middle" x="1298" y="-99.8" font-family="Times,serif" font-size="14.00">ReportingModule</text>
</g>
<!-- ReportingModule&#45;&gt;AppModule -->
<g id="edge21" class="edge">
<title>ReportingModule&#45;&gt;AppModule</title>
<path fill="none" stroke="black" d="M1298,-122.27C1298,-140.56 1298,-166 1298,-166 1298,-166 2197.22,-166 2197.22,-166"/>
<polygon fill="black" stroke="black" points="2197.22,-169.5 2207.22,-166 2197.22,-162.5 2197.22,-169.5"/>
</g>
<!-- SessionModule -->
<g id="node23" class="node">
<title>SessionModule</title>
<polygon fill="#8dd3c7" stroke="black" points="1222.33,-122 1219.33,-126 1198.33,-126 1195.33,-122 1119.67,-122 1119.67,-86 1222.33,-86 1222.33,-122"/>
<text text-anchor="middle" x="1171" y="-99.8" font-family="Times,serif" font-size="14.00">SessionModule</text>
</g>
<!-- SessionModule&#45;&gt;AppModule -->
<g id="edge22" class="edge">
<title>SessionModule&#45;&gt;AppModule</title>
<path fill="none" stroke="black" d="M1171,-122.17C1171,-141.09 1171,-168 1171,-168 1171,-168 2197.07,-168 2197.07,-168"/>
<polygon fill="black" stroke="black" points="2197.07,-171.5 2207.07,-168 2197.07,-164.5 2197.07,-171.5"/>
</g>
<!-- ShortcutDashboardWidgetModule -->
<g id="node24" class="node">
<title>ShortcutDashboardWidgetModule</title>
<polygon fill="#8dd3c7" stroke="black" points="1101.34,-122 1098.34,-126 1077.34,-126 1074.34,-122 892.66,-122 892.66,-86 1101.34,-86 1101.34,-122"/>
<text text-anchor="middle" x="997" y="-99.8" font-family="Times,serif" font-size="14.00">ShortcutDashboardWidgetModule</text>
</g>
<!-- ShortcutDashboardWidgetModule&#45;&gt;AppModule -->
<g id="edge23" class="edge">
<title>ShortcutDashboardWidgetModule&#45;&gt;AppModule</title>
<path fill="none" stroke="black" d="M997,-122.31C997,-142.15 997,-171 997,-171 997,-171 2196.99,-171 2196.99,-171"/>
<polygon fill="black" stroke="black" points="2196.99,-174.5 2206.99,-171 2196.99,-167.5 2196.99,-174.5"/>
</g>
<!-- SkillModule -->
<g id="node25" class="node">
<title>SkillModule</title>
<polygon fill="#8dd3c7" stroke="black" points="875,-122 872,-126 851,-126 848,-122 789,-122 789,-86 875,-86 875,-122"/>
<text text-anchor="middle" x="832" y="-99.8" font-family="Times,serif" font-size="14.00">SkillModule</text>
</g>
<!-- SkillModule&#45;&gt;AppModule -->
<g id="edge24" class="edge">
<title>SkillModule&#45;&gt;AppModule</title>
<path fill="none" stroke="black" d="M832,-122.13C832,-142.57 832,-173 832,-173 832,-173 2196.98,-173 2196.98,-173"/>
<polygon fill="black" stroke="black" points="2196.98,-176.5 2206.98,-173 2196.98,-169.5 2196.98,-176.5"/>
</g>
<!-- TemplateExportModule -->
<g id="node26" class="node">
<title>TemplateExportModule</title>
<polygon fill="#8dd3c7" stroke="black" points="771.02,-122 768.02,-126 747.02,-126 744.02,-122 620.98,-122 620.98,-86 771.02,-86 771.02,-122"/>
<text text-anchor="middle" x="696" y="-99.8" font-family="Times,serif" font-size="14.00">TemplateExportModule</text>
</g>
<!-- TemplateExportModule&#45;&gt;AppModule -->
<g id="edge25" class="edge">
<title>TemplateExportModule&#45;&gt;AppModule</title>
<path fill="none" stroke="black" d="M696,-122.28C696,-143.32 696,-175 696,-175 696,-175 2197.06,-175 2197.06,-175"/>
<polygon fill="black" stroke="black" points="2197.06,-178.5 2207.06,-175 2197.06,-171.5 2197.06,-178.5"/>
</g>
<!-- TodosModule -->
<g id="node27" class="node">
<title>TodosModule</title>
<polygon fill="#8dd3c7" stroke="black" points="602.05,-122 599.05,-126 578.05,-126 575.05,-122 507.95,-122 507.95,-86 602.05,-86 602.05,-122"/>
<text text-anchor="middle" x="555" y="-99.8" font-family="Times,serif" font-size="14.00">TodosModule</text>
</g>
<!-- TodosModule&#45;&gt;AppModule -->
<g id="edge26" class="edge">
<title>TodosModule&#45;&gt;AppModule</title>
<path fill="none" stroke="black" d="M555,-122.29C555,-144.21 555,-178 555,-178 555,-178 2197.13,-178 2197.13,-178"/>
<polygon fill="black" stroke="black" points="2197.13,-181.5 2207.13,-178 2197.13,-174.5 2197.13,-181.5"/>
</g>
<!-- UiComponent -->
<g id="node28" class="node">
<title>UiComponent</title>
<polygon fill="#8dd3c7" stroke="black" points="489.83,-122 486.83,-126 465.83,-126 462.83,-122 394.17,-122 394.17,-86 489.83,-86 489.83,-122"/>
<text text-anchor="middle" x="442" y="-99.8" font-family="Times,serif" font-size="14.00">UiComponent</text>
</g>
<!-- UiComponent&#45;&gt;AppModule -->
<g id="edge27" class="edge">
<title>UiComponent&#45;&gt;AppModule</title>
<path fill="none" stroke="black" d="M442,-122.01C442,-144.49 442,-180 442,-180 442,-180 2196.99,-180 2196.99,-180"/>
<polygon fill="black" stroke="black" points="2196.99,-183.5 2206.99,-180 2196.99,-176.5 2196.99,-183.5"/>
</g>
<!-- AnalyticsService -->
<g id="node30" class="node">
<title>AnalyticsService</title>
<ellipse fill="#fdb462" stroke="black" cx="293" cy="-104" rx="77" ry="18"/>
<text text-anchor="middle" x="293" y="-99.8" font-family="Times,serif" font-size="14.00">AnalyticsService</text>
</g>
<!-- AnalyticsService&#45;&gt;AppModule -->
<g id="edge29" class="edge">
<title>AnalyticsService&#45;&gt;AppModule</title>
<path fill="none" stroke="black" d="M293,-122.32C293,-145.66 293,-183 293,-183 293,-183 2197.24,-183 2197.24,-183"/>
<polygon fill="black" stroke="black" points="2197.24,-186.5 2207.24,-183 2197.24,-179.5 2197.24,-186.5"/>
</g>
<!-- NotificationService -->
<g id="node31" class="node">
<title>NotificationService</title>
<ellipse fill="#fdb462" stroke="black" cx="111" cy="-104" rx="86.81" ry="18"/>
<text text-anchor="middle" x="111" y="-99.8" font-family="Times,serif" font-size="14.00">NotificationService</text>
</g>
<!-- NotificationService&#45;&gt;AppModule -->
<g id="edge30" class="edge">
<title>NotificationService&#45;&gt;AppModule</title>
<path fill="none" stroke="black" d="M111,-122.38C111,-146.28 111,-185 111,-185 111,-185 2197.25,-185 2197.25,-185"/>
<polygon fill="black" stroke="black" points="2197.25,-188.5 2207.25,-185 2197.25,-181.5 2197.25,-188.5"/>
</g>
</g>
</svg>
