<?xml version="1.0" encoding="UTF-8" standalone="no"?>
<!DOCTYPE svg PUBLIC "-//W3C//DTD SVG 1.1//EN"
 "http://www.w3.org/Graphics/SVG/1.1/DTD/svg11.dtd">
<!-- Generated by graphviz version 2.47.0 (20210316.0004)
 -->
<!-- Title: dependencies Pages: 1 -->
<svg width="3960pt" height="284pt"
 viewBox="0.00 0.00 3960.00 284.00" xmlns="http://www.w3.org/2000/svg" xmlns:xlink="http://www.w3.org/1999/xlink">
<g id="graph0" class="graph" transform="scale(1 1) rotate(0) translate(4 280)">
<title>dependencies</title>
<polygon fill="white" stroke="transparent" points="-4,4 -4,-280 3956,-280 3956,4 -4,4"/>
<text text-anchor="start" x="1955.01" y="-42.4" font-family="Times-12" font-weight="bold" font-size="14.00">Legend</text>
<polygon fill="#ffffb3" stroke="transparent" points="1742,-10 1742,-30 1762,-30 1762,-10 1742,-10"/>
<text text-anchor="start" x="1765.63" y="-15.4" font-family="Times-12" font-size="14.00"> &#160;Declarations</text>
<polygon fill="#8dd3c7" stroke="transparent" points="1855,-10 1855,-30 1875,-30 1875,-10 1855,-10"/>
<text text-anchor="start" x="1878.73" y="-15.4" font-family="Times-12" font-size="14.00"> &#160;Module</text>
<polygon fill="#80b1d3" stroke="transparent" points="1941,-10 1941,-30 1961,-30 1961,-10 1941,-10"/>
<text text-anchor="start" x="1964.78" y="-15.4" font-family="Times-12" font-size="14.00"> &#160;Bootstrap</text>
<polygon fill="#fdb462" stroke="transparent" points="2038,-10 2038,-30 2058,-30 2058,-10 2038,-10"/>
<text text-anchor="start" x="2061.67" y="-15.4" font-family="Times-12" font-size="14.00"> &#160;Providers</text>
<polygon fill="#fb8072" stroke="transparent" points="2134,-10 2134,-30 2154,-30 2154,-10 2134,-10"/>
<text text-anchor="start" x="2157.73" y="-15.4" font-family="Times-12" font-size="14.00"> &#160;Exports</text>
<g id="clust1" class="cluster">
<title>cluster_AppModule</title>
<polygon fill="none" stroke="black" stroke-dasharray="1,5" points="8,-70 8,-268 3944,-268 3944,-70 8,-70"/>
</g>
<g id="clust4" class="cluster">
<title>cluster_AppModule_imports</title>
<polygon fill="none" stroke="black" points="324,-78 324,-130 3936,-130 3936,-78 324,-78"/>
</g>
<g id="clust2" class="cluster">
<title>cluster_AppModule_declarations</title>
<polygon fill="none" stroke="black" points="194,-78 194,-130 316,-130 316,-78 194,-78"/>
</g>
<g id="clust6" class="cluster">
<title>cluster_AppModule_bootstrap</title>
<polygon fill="none" stroke="black" points="1951,-208 1951,-260 2075,-260 2075,-208 1951,-208"/>
</g>
<g id="clust7" class="cluster">
<title>cluster_AppModule_providers</title>
<polygon fill="none" stroke="black" points="16,-78 16,-130 186,-130 186,-78 16,-78"/>
</g>
<!-- AppComponent -->
<g id="node1" class="node">
<title>AppComponent</title>
<polygon fill="#ffffb3" stroke="black" points="307.94,-122 202.06,-122 202.06,-86 307.94,-86 307.94,-122"/>
<text text-anchor="middle" x="255" y="-99.8" font-family="Times,serif" font-size="14.00">AppComponent</text>
</g>
<!-- AppModule -->
<g id="node2" class="node">
<title>AppModule</title>
<polygon fill="#8dd3c7" stroke="black" points="2054.66,-187 2051.66,-191 2030.66,-191 2027.66,-187 1971.34,-187 1971.34,-151 2054.66,-151 2054.66,-187"/>
<text text-anchor="middle" x="2013" y="-164.8" font-family="Times,serif" font-size="14.00">AppModule</text>
</g>
<!-- AppComponent&#45;&gt;AppModule -->
<g id="edge1" class="edge">
<title>AppComponent&#45;&gt;AppModule</title>
<path fill="none" stroke="black" d="M255,-122.09C255,-145.13 255,-182 255,-182 255,-182 1961.28,-182 1961.28,-182"/>
<polygon fill="black" stroke="black" points="1961.28,-185.5 1971.28,-182 1961.28,-178.5 1961.28,-185.5"/>
</g>
<!-- AppComponent  -->
<g id="node27" class="node">
<title>AppComponent </title>
<polygon fill="#80b1d3" stroke="black" points="2067.44,-252 1958.56,-252 1958.56,-216 2067.44,-216 2067.44,-252"/>
<text text-anchor="middle" x="2013" y="-229.8" font-family="Times,serif" font-size="14.00">AppComponent </text>
</g>
<!-- AppModule&#45;&gt;AppComponent  -->
<g id="edge26" class="edge">
<title>AppModule&#45;&gt;AppComponent </title>
<path fill="none" stroke="black" stroke-dasharray="1,5" d="M2013,-187.11C2013,-187.11 2013,-205.99 2013,-205.99"/>
<polygon fill="black" stroke="black" points="2009.5,-205.99 2013,-215.99 2016.5,-205.99 2009.5,-205.99"/>
</g>
<!-- AdminModule -->
<g id="node3" class="node">
<title>AdminModule</title>
<polygon fill="#8dd3c7" stroke="black" points="3928.44,-122 3925.44,-126 3904.44,-126 3901.44,-122 3829.56,-122 3829.56,-86 3928.44,-86 3928.44,-122"/>
<text text-anchor="middle" x="3879" y="-99.8" font-family="Times,serif" font-size="14.00">AdminModule</text>
</g>
<!-- AdminModule&#45;&gt;AppModule -->
<g id="edge2" class="edge">
<title>AdminModule&#45;&gt;AppModule</title>
<path fill="none" stroke="black" d="M3879,-122.38C3879,-146.28 3879,-185 3879,-185 3879,-185 2065.03,-185 2065.03,-185"/>
<polygon fill="black" stroke="black" points="2065.03,-181.5 2055.03,-185 2065.03,-188.5 2065.03,-181.5"/>
</g>
<!-- AttendanceModule -->
<g id="node4" class="node">
<title>AttendanceModule</title>
<polygon fill="#8dd3c7" stroke="black" points="3811.8,-122 3808.8,-126 3787.8,-126 3784.8,-122 3688.2,-122 3688.2,-86 3811.8,-86 3811.8,-122"/>
<text text-anchor="middle" x="3750" y="-99.8" font-family="Times,serif" font-size="14.00">AttendanceModule</text>
</g>
<!-- AttendanceModule&#45;&gt;AppModule -->
<g id="edge3" class="edge">
<title>AttendanceModule&#45;&gt;AppModule</title>
<path fill="none" stroke="black" d="M3750,-122.09C3750,-145.13 3750,-182 3750,-182 3750,-182 2065.08,-182 2065.08,-182"/>
<polygon fill="black" stroke="black" points="2065.08,-178.5 2055.08,-182 2065.08,-185.5 2065.08,-178.5"/>
</g>
<!-- BirthdayDashboardWidgetModule -->
<g id="node5" class="node">
<title>BirthdayDashboardWidgetModule</title>
<polygon fill="#8dd3c7" stroke="black" points="3670.39,-122 3667.39,-126 3646.39,-126 3643.39,-122 3459.61,-122 3459.61,-86 3670.39,-86 3670.39,-122"/>
<text text-anchor="middle" x="3565" y="-99.8" font-family="Times,serif" font-size="14.00">BirthdayDashboardWidgetModule</text>
</g>
<!-- BirthdayDashboardWidgetModule&#45;&gt;AppModule -->
<g id="edge4" class="edge">
<title>BirthdayDashboardWidgetModule&#45;&gt;AppModule</title>
<path fill="none" stroke="black" d="M3565,-122.16C3565,-144.35 3565,-179 3565,-179 3565,-179 2064.91,-179 2064.91,-179"/>
<polygon fill="black" stroke="black" points="2064.91,-175.5 2054.91,-179 2064.91,-182.5 2064.91,-175.5"/>
</g>
<!-- ChildrenModule -->
<g id="node6" class="node">
<title>ChildrenModule</title>
<polygon fill="#8dd3c7" stroke="black" points="3442.04,-122 3439.04,-126 3418.04,-126 3415.04,-122 3333.96,-122 3333.96,-86 3442.04,-86 3442.04,-122"/>
<text text-anchor="middle" x="3388" y="-99.8" font-family="Times,serif" font-size="14.00">ChildrenModule</text>
</g>
<!-- ChildrenModule&#45;&gt;AppModule -->
<g id="edge5" class="edge">
<title>ChildrenModule&#45;&gt;AppModule</title>
<path fill="none" stroke="black" d="M3388,-122.17C3388,-143.5 3388,-176 3388,-176 3388,-176 2064.9,-176 2064.9,-176"/>
<polygon fill="black" stroke="black" points="2064.9,-172.5 2054.9,-176 2064.9,-179.5 2064.9,-172.5"/>
</g>
<!-- ConfigurableEnumModule -->
<g id="node7" class="node">
<title>ConfigurableEnumModule</title>
<polygon fill="#8dd3c7" stroke="black" points="3315.36,-122 3312.36,-126 3291.36,-126 3288.36,-122 3148.64,-122 3148.64,-86 3315.36,-86 3315.36,-122"/>
<text text-anchor="middle" x="3232" y="-99.8" font-family="Times,serif" font-size="14.00">ConfigurableEnumModule</text>
</g>
<!-- ConfigurableEnumModule&#45;&gt;AppModule -->
<g id="edge6" class="edge">
<title>ConfigurableEnumModule&#45;&gt;AppModule</title>
<path fill="none" stroke="black" d="M3232,-122.03C3232,-142.77 3232,-174 3232,-174 3232,-174 2064.96,-174 2064.96,-174"/>
<polygon fill="black" stroke="black" points="2064.96,-170.5 2054.96,-174 2064.96,-177.5 2064.96,-170.5"/>
</g>
<!-- CoreModule -->
<g id="node8" class="node">
<title>CoreModule</title>
<polygon fill="#8dd3c7" stroke="black" points="3130.26,-122 3127.26,-126 3106.26,-126 3103.26,-122 3043.74,-122 3043.74,-86 3130.26,-86 3130.26,-122"/>
<text text-anchor="middle" x="3087" y="-99.8" font-family="Times,serif" font-size="14.00">CoreModule</text>
</g>
<!-- CoreModule&#45;&gt;AppModule -->
<g id="edge7" class="edge">
<title>CoreModule&#45;&gt;AppModule</title>
<path fill="none" stroke="black" d="M3087,-122.31C3087,-142.15 3087,-171 3087,-171 3087,-171 2064.77,-171 2064.77,-171"/>
<polygon fill="black" stroke="black" points="2064.77,-167.5 2054.77,-171 2064.77,-174.5 2064.77,-167.5"/>
</g>
<!-- DatabaseModule -->
<g id="node9" class="node">
<title>DatabaseModule</title>
<polygon fill="#8dd3c7" stroke="black" points="3025.35,-122 3022.35,-126 3001.35,-126 2998.35,-122 2914.65,-122 2914.65,-86 3025.35,-86 3025.35,-122"/>
<text text-anchor="middle" x="2970" y="-99.8" font-family="Times,serif" font-size="14.00">DatabaseModule</text>
</g>
<!-- DatabaseModule&#45;&gt;AppModule -->
<g id="edge8" class="edge">
<title>DatabaseModule&#45;&gt;AppModule</title>
<path fill="none" stroke="black" d="M2970,-122.17C2970,-141.09 2970,-168 2970,-168 2970,-168 2064.74,-168 2064.74,-168"/>
<polygon fill="black" stroke="black" points="2064.74,-164.5 2054.74,-168 2064.74,-171.5 2064.74,-164.5"/>
</g>
<!-- EntityCountDashboardWidgetModule -->
<g id="node10" class="node">
<title>EntityCountDashboardWidgetModule</title>
<polygon fill="#8dd3c7" stroke="black" points="2896.85,-122 2893.85,-126 2872.85,-126 2869.85,-122 2667.15,-122 2667.15,-86 2896.85,-86 2896.85,-122"/>
<text text-anchor="middle" x="2782" y="-99.8" font-family="Times,serif" font-size="14.00">EntityCountDashboardWidgetModule</text>
</g>
<!-- EntityCountDashboardWidgetModule&#45;&gt;AppModule -->
<g id="edge9" class="edge">
<title>EntityCountDashboardWidgetModule&#45;&gt;AppModule</title>
<path fill="none" stroke="black" d="M2782,-122.3C2782,-140.27 2782,-165 2782,-165 2782,-165 2064.89,-165 2064.89,-165"/>
<polygon fill="black" stroke="black" points="2064.89,-161.5 2054.89,-165 2064.89,-168.5 2064.89,-161.5"/>
</g>
<!-- FileModule -->
<g id="node11" class="node">
<title>FileModule</title>
<polygon fill="#8dd3c7" stroke="black" points="2648.83,-122 2645.83,-126 2624.83,-126 2621.83,-122 2567.17,-122 2567.17,-86 2648.83,-86 2648.83,-122"/>
<text text-anchor="middle" x="2608" y="-99.8" font-family="Times,serif" font-size="14.00">FileModule</text>
</g>
<!-- FileModule&#45;&gt;AppModule -->
<g id="edge10" class="edge">
<title>FileModule&#45;&gt;AppModule</title>
<path fill="none" stroke="black" d="M2608,-122.02C2608,-139.37 2608,-163 2608,-163 2608,-163 2064.84,-163 2064.84,-163"/>
<polygon fill="black" stroke="black" points="2064.84,-159.5 2054.84,-163 2064.84,-166.5 2064.84,-159.5"/>
</g>
<!-- ImportModule -->
<g id="node12" class="node">
<title>ImportModule</title>
<polygon fill="#8dd3c7" stroke="black" points="2549.65,-122 2546.65,-126 2525.65,-126 2522.65,-122 2452.35,-122 2452.35,-86 2549.65,-86 2549.65,-122"/>
<text text-anchor="middle" x="2501" y="-99.8" font-family="Times,serif" font-size="14.00">ImportModule</text>
</g>
<!-- ImportModule&#45;&gt;AppModule -->
<g id="edge11" class="edge">
<title>ImportModule&#45;&gt;AppModule</title>
<path fill="none" stroke="black" d="M2501,-122.03C2501,-138.4 2501,-160 2501,-160 2501,-160 2065.03,-160 2065.03,-160"/>
<polygon fill="black" stroke="black" points="2065.03,-156.5 2055.03,-160 2065.03,-163.5 2065.03,-156.5"/>
</g>
<!-- LanguageModule -->
<g id="node13" class="node">
<title>LanguageModule</title>
<polygon fill="#8dd3c7" stroke="black" points="2434.25,-122 2431.25,-126 2410.25,-126 2407.25,-122 2319.75,-122 2319.75,-86 2434.25,-86 2434.25,-122"/>
<text text-anchor="middle" x="2377" y="-99.8" font-family="Times,serif" font-size="14.00">LanguageModule</text>
</g>
<!-- LanguageModule&#45;&gt;AppModule -->
<g id="edge12" class="edge">
<title>LanguageModule&#45;&gt;AppModule</title>
<path fill="none" stroke="black" d="M2377,-122.24C2377,-137.57 2377,-157 2377,-157 2377,-157 2064.76,-157 2064.76,-157"/>
<polygon fill="black" stroke="black" points="2064.76,-153.5 2054.76,-157 2064.76,-160.5 2064.76,-153.5"/>
</g>
<!-- LatestChangesModule -->
<g id="node14" class="node">
<title>LatestChangesModule</title>
<polygon fill="#8dd3c7" stroke="black" points="2301.97,-122 2298.97,-126 2277.97,-126 2274.97,-122 2160.03,-122 2160.03,-86 2301.97,-86 2301.97,-122"/>
<text text-anchor="middle" x="2231" y="-99.8" font-family="Times,serif" font-size="14.00">LatestChangesModule</text>
</g>
<!-- LatestChangesModule&#45;&gt;AppModule -->
<g id="edge13" class="edge">
<title>LatestChangesModule&#45;&gt;AppModule</title>
<path fill="none" stroke="black" d="M2231,-122.05C2231,-136.37 2231,-154 2231,-154 2231,-154 2064.77,-154 2064.77,-154"/>
<polygon fill="black" stroke="black" points="2064.77,-150.5 2054.77,-154 2064.77,-157.5 2064.77,-150.5"/>
</g>
<!-- LocationModule -->
<g id="node15" class="node">
<title>LocationModule</title>
<polygon fill="#8dd3c7" stroke="black" points="2141.81,-122 2138.81,-126 2117.81,-126 2114.81,-122 2032.19,-122 2032.19,-86 2141.81,-86 2141.81,-122"/>
<text text-anchor="middle" x="2087" y="-99.8" font-family="Times,serif" font-size="14.00">LocationModule</text>
</g>
<!-- LocationModule&#45;&gt;AppModule -->
<g id="edge14" class="edge">
<title>LocationModule&#45;&gt;AppModule</title>
<path fill="none" stroke="black" d="M2043.59,-122.11C2043.59,-122.11 2043.59,-140.99 2043.59,-140.99"/>
<polygon fill="black" stroke="black" points="2040.09,-140.99 2043.59,-150.99 2047.09,-140.99 2040.09,-140.99"/>
</g>
<!-- MarkdownPageModule -->
<g id="node16" class="node">
<title>MarkdownPageModule</title>
<polygon fill="#8dd3c7" stroke="black" points="2014.19,-122 2011.19,-126 1990.19,-126 1987.19,-122 1865.81,-122 1865.81,-86 2014.19,-86 2014.19,-122"/>
<text text-anchor="middle" x="1940" y="-99.8" font-family="Times,serif" font-size="14.00">MarkdownPageModule</text>
</g>
<!-- MarkdownPageModule&#45;&gt;AppModule -->
<g id="edge15" class="edge">
<title>MarkdownPageModule&#45;&gt;AppModule</title>
<path fill="none" stroke="black" d="M1992.63,-122.11C1992.63,-122.11 1992.63,-140.99 1992.63,-140.99"/>
<polygon fill="black" stroke="black" points="1989.13,-140.99 1992.63,-150.99 1996.13,-140.99 1989.13,-140.99"/>
</g>
<!-- MatchingEntitiesModule -->
<g id="node17" class="node">
<title>MatchingEntitiesModule</title>
<polygon fill="#8dd3c7" stroke="black" points="1847.98,-122 1844.98,-126 1823.98,-126 1820.98,-122 1692.02,-122 1692.02,-86 1847.98,-86 1847.98,-122"/>
<text text-anchor="middle" x="1770" y="-99.8" font-family="Times,serif" font-size="14.00">MatchingEntitiesModule</text>
</g>
<!-- MatchingEntitiesModule&#45;&gt;AppModule -->
<g id="edge16" class="edge">
<title>MatchingEntitiesModule&#45;&gt;AppModule</title>
<path fill="none" stroke="black" d="M1770,-122.05C1770,-136.37 1770,-154 1770,-154 1770,-154 1961.23,-154 1961.23,-154"/>
<polygon fill="black" stroke="black" points="1961.23,-157.5 1971.23,-154 1961.23,-150.5 1961.23,-157.5"/>
</g>
<!-- NotesModule -->
<g id="node18" class="node">
<title>NotesModule</title>
<polygon fill="#8dd3c7" stroke="black" points="1674.21,-122 1671.21,-126 1650.21,-126 1647.21,-122 1581.79,-122 1581.79,-86 1674.21,-86 1674.21,-122"/>
<text text-anchor="middle" x="1628" y="-99.8" font-family="Times,serif" font-size="14.00">NotesModule</text>
</g>
<!-- NotesModule&#45;&gt;AppModule -->
<g id="edge17" class="edge">
<title>NotesModule&#45;&gt;AppModule</title>
<path fill="none" stroke="black" d="M1628,-122.24C1628,-137.57 1628,-157 1628,-157 1628,-157 1961.07,-157 1961.07,-157"/>
<polygon fill="black" stroke="black" points="1961.07,-160.5 1971.07,-157 1961.07,-153.5 1961.07,-160.5"/>
</g>
<!-- PermissionsModule -->
<g id="node19" class="node">
<title>PermissionsModule</title>
<polygon fill="#8dd3c7" stroke="black" points="1563.71,-122 1560.71,-126 1539.71,-126 1536.71,-122 1436.29,-122 1436.29,-86 1563.71,-86 1563.71,-122"/>
<text text-anchor="middle" x="1500" y="-99.8" font-family="Times,serif" font-size="14.00">PermissionsModule</text>
</g>
<!-- PermissionsModule&#45;&gt;AppModule -->
<g id="edge18" class="edge">
<title>PermissionsModule&#45;&gt;AppModule</title>
<path fill="none" stroke="black" d="M1500,-122.03C1500,-138.4 1500,-160 1500,-160 1500,-160 1961.02,-160 1961.02,-160"/>
<polygon fill="black" stroke="black" points="1961.02,-163.5 1971.02,-160 1961.02,-156.5 1961.02,-163.5"/>
</g>
<!-- ProgressDashboardWidgetModule -->
<g id="node20" class="node">
<title>ProgressDashboardWidgetModule</title>
<polygon fill="#8dd3c7" stroke="black" points="1418.61,-122 1415.61,-126 1394.61,-126 1391.61,-122 1209.39,-122 1209.39,-86 1418.61,-86 1418.61,-122"/>
<text text-anchor="middle" x="1314" y="-99.8" font-family="Times,serif" font-size="14.00">ProgressDashboardWidgetModule</text>
</g>
<!-- ProgressDashboardWidgetModule&#45;&gt;AppModule -->
<g id="edge19" class="edge">
<title>ProgressDashboardWidgetModule&#45;&gt;AppModule</title>
<path fill="none" stroke="black" d="M1314,-122.02C1314,-139.37 1314,-163 1314,-163 1314,-163 1961.11,-163 1961.11,-163"/>
<polygon fill="black" stroke="black" points="1961.11,-166.5 1971.11,-163 1961.11,-159.5 1961.11,-166.5"/>
</g>
<!-- ReportingModule -->
<g id="node21" class="node">
<title>ReportingModule</title>
<polygon fill="#8dd3c7" stroke="black" points="1190.54,-122 1187.54,-126 1166.54,-126 1163.54,-122 1075.46,-122 1075.46,-86 1190.54,-86 1190.54,-122"/>
<text text-anchor="middle" x="1133" y="-99.8" font-family="Times,serif" font-size="14.00">ReportingModule</text>
</g>
<!-- ReportingModule&#45;&gt;AppModule -->
<g id="edge20" class="edge">
<title>ReportingModule&#45;&gt;AppModule</title>
<path fill="none" stroke="black" d="M1133,-122.3C1133,-140.27 1133,-165 1133,-165 1133,-165 1961.15,-165 1961.15,-165"/>
<polygon fill="black" stroke="black" points="1961.15,-168.5 1971.15,-165 1961.15,-161.5 1961.15,-168.5"/>
</g>
<!-- SessionModule -->
<g id="node22" class="node">
<title>SessionModule</title>
<polygon fill="#8dd3c7" stroke="black" points="1057.33,-122 1054.33,-126 1033.33,-126 1030.33,-122 954.67,-122 954.67,-86 1057.33,-86 1057.33,-122"/>
<text text-anchor="middle" x="1006" y="-99.8" font-family="Times,serif" font-size="14.00">SessionModule</text>
</g>
<!-- SessionModule&#45;&gt;AppModule -->
<g id="edge21" class="edge">
<title>SessionModule&#45;&gt;AppModule</title>
<path fill="none" stroke="black" d="M1006,-122.17C1006,-141.09 1006,-168 1006,-168 1006,-168 1961.33,-168 1961.33,-168"/>
<polygon fill="black" stroke="black" points="1961.33,-171.5 1971.33,-168 1961.33,-164.5 1961.33,-171.5"/>
</g>
<!-- ShortcutDashboardWidgetModule -->
<g id="node23" class="node">
<title>ShortcutDashboardWidgetModule</title>
<polygon fill="#8dd3c7" stroke="black" points="936.34,-122 933.34,-126 912.34,-126 909.34,-122 727.66,-122 727.66,-86 936.34,-86 936.34,-122"/>
<text text-anchor="middle" x="832" y="-99.8" font-family="Times,serif" font-size="14.00">ShortcutDashboardWidgetModule</text>
</g>
<!-- ShortcutDashboardWidgetModule&#45;&gt;AppModule -->
<g id="edge22" class="edge">
<title>ShortcutDashboardWidgetModule&#45;&gt;AppModule</title>
<path fill="none" stroke="black" d="M832,-122.31C832,-142.15 832,-171 832,-171 832,-171 1961.31,-171 1961.31,-171"/>
<polygon fill="black" stroke="black" points="1961.31,-174.5 1971.31,-171 1961.31,-167.5 1961.31,-174.5"/>
</g>
<!-- TemplateExportModule -->
<g id="node24" class="node">
<title>TemplateExportModule</title>
<polygon fill="#8dd3c7" stroke="black" points="709.02,-122 706.02,-126 685.02,-126 682.02,-122 558.98,-122 558.98,-86 709.02,-86 709.02,-122"/>
<text text-anchor="middle" x="634" y="-99.8" font-family="Times,serif" font-size="14.00">TemplateExportModule</text>
</g>
<!-- TemplateExportModule&#45;&gt;AppModule -->
<g id="edge23" class="edge">
<title>TemplateExportModule&#45;&gt;AppModule</title>
<path fill="none" stroke="black" d="M634,-122.03C634,-142.77 634,-174 634,-174 634,-174 1960.98,-174 1960.98,-174"/>
<polygon fill="black" stroke="black" points="1960.98,-177.5 1970.98,-174 1960.98,-170.5 1960.98,-177.5"/>
</g>
<!-- TodosModule -->
<g id="node25" class="node">
<title>TodosModule</title>
<polygon fill="#8dd3c7" stroke="black" points="540.05,-122 537.05,-126 516.05,-126 513.05,-122 445.95,-122 445.95,-86 540.05,-86 540.05,-122"/>
<text text-anchor="middle" x="493" y="-99.8" font-family="Times,serif" font-size="14.00">TodosModule</text>
</g>
<!-- TodosModule&#45;&gt;AppModule -->
<g id="edge24" class="edge">
<title>TodosModule&#45;&gt;AppModule</title>
<path fill="none" stroke="black" d="M493,-122.17C493,-143.5 493,-176 493,-176 493,-176 1961.16,-176 1961.16,-176"/>
<polygon fill="black" stroke="black" points="1961.16,-179.5 1971.16,-176 1961.16,-172.5 1961.16,-179.5"/>
</g>
<!-- UiComponent -->
<g id="node26" class="node">
<title>UiComponent</title>
<polygon fill="#8dd3c7" stroke="black" points="427.83,-122 424.83,-126 403.83,-126 400.83,-122 332.17,-122 332.17,-86 427.83,-86 427.83,-122"/>
<text text-anchor="middle" x="380" y="-99.8" font-family="Times,serif" font-size="14.00">UiComponent</text>
</g>
<!-- UiComponent&#45;&gt;AppModule -->
<g id="edge25" class="edge">
<title>UiComponent&#45;&gt;AppModule</title>
<path fill="none" stroke="black" d="M380,-122.16C380,-144.35 380,-179 380,-179 380,-179 1960.99,-179 1960.99,-179"/>
<polygon fill="black" stroke="black" points="1960.99,-182.5 1970.99,-179 1960.99,-175.5 1960.99,-182.5"/>
</g>
<!-- AnalyticsService -->
<g id="node28" class="node">
<title>AnalyticsService</title>
<ellipse fill="#fdb462" stroke="black" cx="101" cy="-104" rx="77" ry="18"/>
<text text-anchor="middle" x="101" y="-99.8" font-family="Times,serif" font-size="14.00">AnalyticsService</text>
</g>
<!-- AnalyticsService&#45;&gt;AppModule -->
<g id="edge27" class="edge">
<title>AnalyticsService&#45;&gt;AppModule</title>
<path fill="none" stroke="black" d="M101,-122.38C101,-146.28 101,-185 101,-185 101,-185 1961.29,-185 1961.29,-185"/>
<polygon fill="black" stroke="black" points="1961.29,-188.5 1971.29,-185 1961.29,-181.5 1961.29,-188.5"/>
</g>
</g>
</svg>
