<?xml version="1.0" encoding="UTF-8" standalone="no"?>
<!DOCTYPE svg PUBLIC "-//W3C//DTD SVG 1.1//EN"
 "http://www.w3.org/Graphics/SVG/1.1/DTD/svg11.dtd">
<!-- Generated by graphviz version 2.47.0 (20210316.0004)
 -->
<!-- Title: dependencies Pages: 1 -->
<svg width="4290pt" height="284pt"
 viewBox="0.00 0.00 4290.00 284.00" xmlns="http://www.w3.org/2000/svg" xmlns:xlink="http://www.w3.org/1999/xlink">
<g id="graph0" class="graph" transform="scale(1 1) rotate(0) translate(4 280)">
<title>dependencies</title>
<polygon fill="white" stroke="transparent" points="-4,4 -4,-280 4286,-280 4286,4 -4,4"/>
<text text-anchor="start" x="2120.01" y="-42.4" font-family="Times-12" font-weight="bold" font-size="14.00">Legend</text>
<polygon fill="#ffffb3" stroke="transparent" points="1907,-10 1907,-30 1927,-30 1927,-10 1907,-10"/>
<text text-anchor="start" x="1930.63" y="-15.4" font-family="Times-12" font-size="14.00"> &#160;Declarations</text>
<polygon fill="#8dd3c7" stroke="transparent" points="2020,-10 2020,-30 2040,-30 2040,-10 2020,-10"/>
<text text-anchor="start" x="2043.73" y="-15.4" font-family="Times-12" font-size="14.00"> &#160;Module</text>
<polygon fill="#80b1d3" stroke="transparent" points="2106,-10 2106,-30 2126,-30 2126,-10 2106,-10"/>
<text text-anchor="start" x="2129.78" y="-15.4" font-family="Times-12" font-size="14.00"> &#160;Bootstrap</text>
<polygon fill="#fdb462" stroke="transparent" points="2203,-10 2203,-30 2223,-30 2223,-10 2203,-10"/>
<text text-anchor="start" x="2226.67" y="-15.4" font-family="Times-12" font-size="14.00"> &#160;Providers</text>
<polygon fill="#fb8072" stroke="transparent" points="2299,-10 2299,-30 2319,-30 2319,-10 2299,-10"/>
<text text-anchor="start" x="2322.73" y="-15.4" font-family="Times-12" font-size="14.00"> &#160;Exports</text>
<g id="clust1" class="cluster">
<title>cluster_AppModule</title>
<polygon fill="none" stroke="black" stroke-dasharray="1,5" points="8,-70 8,-268 4274,-268 4274,-70 8,-70"/>
</g>
<g id="clust4" class="cluster">
<title>cluster_AppModule_imports</title>
<polygon fill="none" stroke="black" points="324,-78 324,-130 4266,-130 4266,-78 324,-78"/>
</g>
<g id="clust2" class="cluster">
<title>cluster_AppModule_declarations</title>
<polygon fill="none" stroke="black" points="194,-78 194,-130 316,-130 316,-78 194,-78"/>
</g>
<g id="clust7" class="cluster">
<title>cluster_AppModule_providers</title>
<polygon fill="none" stroke="black" points="16,-78 16,-130 186,-130 186,-78 16,-78"/>
</g>
<g id="clust6" class="cluster">
<title>cluster_AppModule_bootstrap</title>
<polygon fill="none" stroke="black" points="2040,-208 2040,-260 2164,-260 2164,-208 2040,-208"/>
</g>
<!-- AppComponent -->
<g id="node1" class="node">
<title>AppComponent</title>
<polygon fill="#ffffb3" stroke="black" points="307.94,-122 202.06,-122 202.06,-86 307.94,-86 307.94,-122"/>
<text text-anchor="middle" x="255" y="-99.8" font-family="Times,serif" font-size="14.00">AppComponent</text>
</g>
<!-- AppModule -->
<g id="node2" class="node">
<title>AppModule</title>
<polygon fill="#8dd3c7" stroke="black" points="2143.66,-187 2140.66,-191 2119.66,-191 2116.66,-187 2060.34,-187 2060.34,-151 2143.66,-151 2143.66,-187"/>
<text text-anchor="middle" x="2102" y="-164.8" font-family="Times,serif" font-size="14.00">AppModule</text>
</g>
<!-- AppComponent&#45;&gt;AppModule -->
<g id="edge1" class="edge">
<title>AppComponent&#45;&gt;AppModule</title>
<path fill="none" stroke="black" d="M255,-122.09C255,-145.13 255,-182 255,-182 255,-182 2049.95,-182 2049.95,-182"/>
<polygon fill="black" stroke="black" points="2049.95,-185.5 2059.95,-182 2049.95,-178.5 2049.95,-185.5"/>
</g>
<!-- AppComponent  -->
<g id="node29" class="node">
<title>AppComponent </title>
<polygon fill="#80b1d3" stroke="black" points="2156.44,-252 2047.56,-252 2047.56,-216 2156.44,-216 2156.44,-252"/>
<text text-anchor="middle" x="2102" y="-229.8" font-family="Times,serif" font-size="14.00">AppComponent </text>
</g>
<!-- AppModule&#45;&gt;AppComponent  -->
<g id="edge28" class="edge">
<title>AppModule&#45;&gt;AppComponent </title>
<path fill="none" stroke="black" stroke-dasharray="1,5" d="M2102,-187.11C2102,-187.11 2102,-205.99 2102,-205.99"/>
<polygon fill="black" stroke="black" points="2098.5,-205.99 2102,-215.99 2105.5,-205.99 2098.5,-205.99"/>
</g>
<!-- AdminModule -->
<g id="node3" class="node">
<title>AdminModule</title>
<polygon fill="#8dd3c7" stroke="black" points="4258.44,-122 4255.44,-126 4234.44,-126 4231.44,-122 4159.56,-122 4159.56,-86 4258.44,-86 4258.44,-122"/>
<text text-anchor="middle" x="4209" y="-99.8" font-family="Times,serif" font-size="14.00">AdminModule</text>
</g>
<!-- AdminModule&#45;&gt;AppModule -->
<g id="edge2" class="edge">
<title>AdminModule&#45;&gt;AppModule</title>
<path fill="none" stroke="black" d="M4209,-122.38C4209,-146.28 4209,-185 4209,-185 4209,-185 2154.09,-185 2154.09,-185"/>
<polygon fill="black" stroke="black" points="2154.09,-181.5 2144.09,-185 2154.09,-188.5 2154.09,-181.5"/>
</g>
<!-- ApplicationLoadingComponent -->
<g id="node4" class="node">
<title>ApplicationLoadingComponent</title>
<polygon fill="#8dd3c7" stroke="black" points="4142.09,-122 4139.09,-126 4118.09,-126 4115.09,-122 3947.91,-122 3947.91,-86 4142.09,-86 4142.09,-122"/>
<text text-anchor="middle" x="4045" y="-99.8" font-family="Times,serif" font-size="14.00">ApplicationLoadingComponent</text>
</g>
<!-- ApplicationLoadingComponent&#45;&gt;AppModule -->
<g id="edge3" class="edge">
<title>ApplicationLoadingComponent&#45;&gt;AppModule</title>
<path fill="none" stroke="black" d="M4045,-122.09C4045,-145.13 4045,-182 4045,-182 4045,-182 2153.93,-182 2153.93,-182"/>
<polygon fill="black" stroke="black" points="2153.93,-178.5 2143.93,-182 2153.93,-185.5 2153.93,-178.5"/>
</g>
<!-- AttendanceModule -->
<g id="node5" class="node">
<title>AttendanceModule</title>
<polygon fill="#8dd3c7" stroke="black" points="3929.8,-122 3926.8,-126 3905.8,-126 3902.8,-122 3806.2,-122 3806.2,-86 3929.8,-86 3929.8,-122"/>
<text text-anchor="middle" x="3868" y="-99.8" font-family="Times,serif" font-size="14.00">AttendanceModule</text>
</g>
<!-- AttendanceModule&#45;&gt;AppModule -->
<g id="edge4" class="edge">
<title>AttendanceModule&#45;&gt;AppModule</title>
<path fill="none" stroke="black" d="M3868,-122.01C3868,-144.49 3868,-180 3868,-180 3868,-180 2153.91,-180 2153.91,-180"/>
<polygon fill="black" stroke="black" points="2153.91,-176.5 2143.91,-180 2153.91,-183.5 2153.91,-176.5"/>
</g>
<!-- BirthdayDashboardWidgetModule -->
<g id="node6" class="node">
<title>BirthdayDashboardWidgetModule</title>
<polygon fill="#8dd3c7" stroke="black" points="3788.39,-122 3785.39,-126 3764.39,-126 3761.39,-122 3577.61,-122 3577.61,-86 3788.39,-86 3788.39,-122"/>
<text text-anchor="middle" x="3683" y="-99.8" font-family="Times,serif" font-size="14.00">BirthdayDashboardWidgetModule</text>
</g>
<!-- BirthdayDashboardWidgetModule&#45;&gt;AppModule -->
<g id="edge5" class="edge">
<title>BirthdayDashboardWidgetModule&#45;&gt;AppModule</title>
<path fill="none" stroke="black" d="M3683,-122.04C3683,-143.66 3683,-177 3683,-177 3683,-177 2153.88,-177 2153.88,-177"/>
<polygon fill="black" stroke="black" points="2153.88,-173.5 2143.88,-177 2153.88,-180.5 2153.88,-173.5"/>
</g>
<!-- ChildrenModule -->
<g id="node7" class="node">
<title>ChildrenModule</title>
<polygon fill="#8dd3c7" stroke="black" points="3560.04,-122 3557.04,-126 3536.04,-126 3533.04,-122 3451.96,-122 3451.96,-86 3560.04,-86 3560.04,-122"/>
<text text-anchor="middle" x="3506" y="-99.8" font-family="Times,serif" font-size="14.00">ChildrenModule</text>
</g>
<!-- ChildrenModule&#45;&gt;AppModule -->
<g id="edge6" class="edge">
<title>ChildrenModule&#45;&gt;AppModule</title>
<path fill="none" stroke="black" d="M3506,-122.28C3506,-143.32 3506,-175 3506,-175 3506,-175 2154.02,-175 2154.02,-175"/>
<polygon fill="black" stroke="black" points="2154.02,-171.5 2144.02,-175 2154.02,-178.5 2154.02,-171.5"/>
</g>
<!-- ConfigurableEnumModule -->
<g id="node8" class="node">
<title>ConfigurableEnumModule</title>
<polygon fill="#8dd3c7" stroke="black" points="3433.36,-122 3430.36,-126 3409.36,-126 3406.36,-122 3266.64,-122 3266.64,-86 3433.36,-86 3433.36,-122"/>
<text text-anchor="middle" x="3350" y="-99.8" font-family="Times,serif" font-size="14.00">ConfigurableEnumModule</text>
</g>
<!-- ConfigurableEnumModule&#45;&gt;AppModule -->
<g id="edge7" class="edge">
<title>ConfigurableEnumModule&#45;&gt;AppModule</title>
<path fill="none" stroke="black" d="M3350,-122.22C3350,-142.37 3350,-172 3350,-172 3350,-172 2153.88,-172 2153.88,-172"/>
<polygon fill="black" stroke="black" points="2153.88,-168.5 2143.88,-172 2153.88,-175.5 2153.88,-168.5"/>
</g>
<!-- CoreModule -->
<g id="node9" class="node">
<title>CoreModule</title>
<polygon fill="#8dd3c7" stroke="black" points="3248.26,-122 3245.26,-126 3224.26,-126 3221.26,-122 3161.74,-122 3161.74,-86 3248.26,-86 3248.26,-122"/>
<text text-anchor="middle" x="3205" y="-99.8" font-family="Times,serif" font-size="14.00">CoreModule</text>
</g>
<!-- CoreModule&#45;&gt;AppModule -->
<g id="edge8" class="edge">
<title>CoreModule&#45;&gt;AppModule</title>
<path fill="none" stroke="black" d="M3205,-122.11C3205,-141.34 3205,-169 3205,-169 3205,-169 2153.89,-169 2153.89,-169"/>
<polygon fill="black" stroke="black" points="2153.89,-165.5 2143.89,-169 2153.89,-172.5 2153.89,-165.5"/>
</g>
<!-- EntityCountDashboardWidgetModule -->
<g id="node10" class="node">
<title>EntityCountDashboardWidgetModule</title>
<polygon fill="#8dd3c7" stroke="black" points="3143.85,-122 3140.85,-126 3119.85,-126 3116.85,-122 2914.15,-122 2914.15,-86 3143.85,-86 3143.85,-122"/>
<text text-anchor="middle" x="3029" y="-99.8" font-family="Times,serif" font-size="14.00">EntityCountDashboardWidgetModule</text>
</g>
<!-- EntityCountDashboardWidgetModule&#45;&gt;AppModule -->
<g id="edge9" class="edge">
<title>EntityCountDashboardWidgetModule&#45;&gt;AppModule</title>
<path fill="none" stroke="black" d="M3029,-122.22C3029,-140.83 3029,-167 3029,-167 3029,-167 2153.94,-167 2153.94,-167"/>
<polygon fill="black" stroke="black" points="2153.94,-163.5 2143.94,-167 2153.94,-170.5 2153.94,-163.5"/>
</g>
<!-- FileModule -->
<g id="node11" class="node">
<title>FileModule</title>
<polygon fill="#8dd3c7" stroke="black" points="2895.83,-122 2892.83,-126 2871.83,-126 2868.83,-122 2814.17,-122 2814.17,-86 2895.83,-86 2895.83,-122"/>
<text text-anchor="middle" x="2855" y="-99.8" font-family="Times,serif" font-size="14.00">FileModule</text>
</g>
<!-- FileModule&#45;&gt;AppModule -->
<g id="edge10" class="edge">
<title>FileModule&#45;&gt;AppModule</title>
<path fill="none" stroke="black" d="M2855,-122C2855,-139.68 2855,-164 2855,-164 2855,-164 2153.83,-164 2153.83,-164"/>
<polygon fill="black" stroke="black" points="2153.83,-160.5 2143.83,-164 2153.83,-167.5 2153.83,-160.5"/>
</g>
<!-- ImportModule -->
<g id="node12" class="node">
<title>ImportModule</title>
<polygon fill="#8dd3c7" stroke="black" points="2796.65,-122 2793.65,-126 2772.65,-126 2769.65,-122 2699.35,-122 2699.35,-86 2796.65,-86 2796.65,-122"/>
<text text-anchor="middle" x="2748" y="-99.8" font-family="Times,serif" font-size="14.00">ImportModule</text>
</g>
<!-- ImportModule&#45;&gt;AppModule -->
<g id="edge11" class="edge">
<title>ImportModule&#45;&gt;AppModule</title>
<path fill="none" stroke="black" d="M2748,-122.03C2748,-139.06 2748,-162 2748,-162 2748,-162 2153.89,-162 2153.89,-162"/>
<polygon fill="black" stroke="black" points="2153.89,-158.5 2143.89,-162 2153.89,-165.5 2153.89,-158.5"/>
</g>
<!-- LanguageModule -->
<g id="node13" class="node">
<title>LanguageModule</title>
<polygon fill="#8dd3c7" stroke="black" points="2681.25,-122 2678.25,-126 2657.25,-126 2654.25,-122 2566.75,-122 2566.75,-86 2681.25,-86 2681.25,-122"/>
<text text-anchor="middle" x="2624" y="-99.8" font-family="Times,serif" font-size="14.00">LanguageModule</text>
</g>
<!-- LanguageModule&#45;&gt;AppModule -->
<g id="edge12" class="edge">
<title>LanguageModule&#45;&gt;AppModule</title>
<path fill="none" stroke="black" d="M2624,-122.01C2624,-138.05 2624,-159 2624,-159 2624,-159 2153.84,-159 2153.84,-159"/>
<polygon fill="black" stroke="black" points="2153.84,-155.5 2143.84,-159 2153.84,-162.5 2153.84,-155.5"/>
</g>
<!-- LatestChangesModule -->
<g id="node14" class="node">
<title>LatestChangesModule</title>
<polygon fill="#8dd3c7" stroke="black" points="2548.97,-122 2545.97,-126 2524.97,-126 2521.97,-122 2407.03,-122 2407.03,-86 2548.97,-86 2548.97,-122"/>
<text text-anchor="middle" x="2478" y="-99.8" font-family="Times,serif" font-size="14.00">LatestChangesModule</text>
</g>
<!-- LatestChangesModule&#45;&gt;AppModule -->
<g id="edge13" class="edge">
<title>LatestChangesModule&#45;&gt;AppModule</title>
<path fill="none" stroke="black" d="M2478,-122.24C2478,-137.57 2478,-157 2478,-157 2478,-157 2153.68,-157 2153.68,-157"/>
<polygon fill="black" stroke="black" points="2153.68,-153.5 2143.68,-157 2153.68,-160.5 2153.68,-153.5"/>
</g>
<!-- LocationModule -->
<g id="node15" class="node">
<title>LocationModule</title>
<polygon fill="#8dd3c7" stroke="black" points="2388.81,-122 2385.81,-126 2364.81,-126 2361.81,-122 2279.19,-122 2279.19,-86 2388.81,-86 2388.81,-122"/>
<text text-anchor="middle" x="2334" y="-99.8" font-family="Times,serif" font-size="14.00">LocationModule</text>
</g>
<!-- LocationModule&#45;&gt;AppModule -->
<g id="edge14" class="edge">
<title>LocationModule&#45;&gt;AppModule</title>
<path fill="none" stroke="black" d="M2334,-122.05C2334,-136.37 2334,-154 2334,-154 2334,-154 2153.74,-154 2153.74,-154"/>
<polygon fill="black" stroke="black" points="2153.74,-150.5 2143.74,-154 2153.74,-157.5 2153.74,-150.5"/>
</g>
<!-- MarkdownPageModule -->
<g id="node16" class="node">
<title>MarkdownPageModule</title>
<polygon fill="#8dd3c7" stroke="black" points="2261.19,-122 2258.19,-126 2237.19,-126 2234.19,-122 2112.81,-122 2112.81,-86 2261.19,-86 2261.19,-122"/>
<text text-anchor="middle" x="2187" y="-99.8" font-family="Times,serif" font-size="14.00">MarkdownPageModule</text>
</g>
<!-- MarkdownPageModule&#45;&gt;AppModule -->
<g id="edge15" class="edge">
<title>MarkdownPageModule&#45;&gt;AppModule</title>
<path fill="none" stroke="black" d="M2128.37,-122.11C2128.37,-122.11 2128.37,-140.99 2128.37,-140.99"/>
<polygon fill="black" stroke="black" points="2124.87,-140.99 2128.37,-150.99 2131.87,-140.99 2124.87,-140.99"/>
</g>
<!-- MatchingEntitiesModule -->
<g id="node17" class="node">
<title>MatchingEntitiesModule</title>
<polygon fill="#8dd3c7" stroke="black" points="2094.98,-122 2091.98,-126 2070.98,-126 2067.98,-122 1939.02,-122 1939.02,-86 2094.98,-86 2094.98,-122"/>
<text text-anchor="middle" x="2017" y="-99.8" font-family="Times,serif" font-size="14.00">MatchingEntitiesModule</text>
</g>
<!-- MatchingEntitiesModule&#45;&gt;AppModule -->
<g id="edge16" class="edge">
<title>MatchingEntitiesModule&#45;&gt;AppModule</title>
<path fill="none" stroke="black" d="M2077.58,-122.11C2077.58,-122.11 2077.58,-140.99 2077.58,-140.99"/>
<polygon fill="black" stroke="black" points="2074.08,-140.99 2077.58,-150.99 2081.08,-140.99 2074.08,-140.99"/>
</g>
<!-- NotesModule -->
<g id="node18" class="node">
<title>NotesModule</title>
<polygon fill="#8dd3c7" stroke="black" points="1921.21,-122 1918.21,-126 1897.21,-126 1894.21,-122 1828.79,-122 1828.79,-86 1921.21,-86 1921.21,-122"/>
<text text-anchor="middle" x="1875" y="-99.8" font-family="Times,serif" font-size="14.00">NotesModule</text>
</g>
<!-- NotesModule&#45;&gt;AppModule -->
<g id="edge17" class="edge">
<title>NotesModule&#45;&gt;AppModule</title>
<path fill="none" stroke="black" d="M1875,-122.05C1875,-136.37 1875,-154 1875,-154 1875,-154 2050.1,-154 2050.1,-154"/>
<polygon fill="black" stroke="black" points="2050.1,-157.5 2060.1,-154 2050.1,-150.5 2050.1,-157.5"/>
</g>
<!-- PermissionsModule -->
<g id="node19" class="node">
<title>PermissionsModule</title>
<polygon fill="#8dd3c7" stroke="black" points="1810.71,-122 1807.71,-126 1786.71,-126 1783.71,-122 1683.29,-122 1683.29,-86 1810.71,-86 1810.71,-122"/>
<text text-anchor="middle" x="1747" y="-99.8" font-family="Times,serif" font-size="14.00">PermissionsModule</text>
</g>
<!-- PermissionsModule&#45;&gt;AppModule -->
<g id="edge18" class="edge">
<title>PermissionsModule&#45;&gt;AppModule</title>
<path fill="none" stroke="black" d="M1747,-122.24C1747,-137.57 1747,-157 1747,-157 1747,-157 2050.23,-157 2050.23,-157"/>
<polygon fill="black" stroke="black" points="2050.23,-160.5 2060.23,-157 2050.23,-153.5 2050.23,-160.5"/>
</g>
<!-- ProgressDashboardWidgetModule -->
<g id="node20" class="node">
<title>ProgressDashboardWidgetModule</title>
<polygon fill="#8dd3c7" stroke="black" points="1665.61,-122 1662.61,-126 1641.61,-126 1638.61,-122 1456.39,-122 1456.39,-86 1665.61,-86 1665.61,-122"/>
<text text-anchor="middle" x="1561" y="-99.8" font-family="Times,serif" font-size="14.00">ProgressDashboardWidgetModule</text>
</g>
<!-- ProgressDashboardWidgetModule&#45;&gt;AppModule -->
<g id="edge19" class="edge">
<title>ProgressDashboardWidgetModule&#45;&gt;AppModule</title>
<path fill="none" stroke="black" d="M1561,-122.01C1561,-138.05 1561,-159 1561,-159 1561,-159 2050,-159 2050,-159"/>
<polygon fill="black" stroke="black" points="2050,-162.5 2060,-159 2050,-155.5 2050,-162.5"/>
</g>
<!-- PublicFormModule -->
<g id="node21" class="node">
<title>PublicFormModule</title>
<polygon fill="#8dd3c7" stroke="black" points="1437.66,-122 1434.66,-126 1413.66,-126 1410.66,-122 1312.34,-122 1312.34,-86 1437.66,-86 1437.66,-122"/>
<text text-anchor="middle" x="1375" y="-99.8" font-family="Times,serif" font-size="14.00">PublicFormModule</text>
</g>
<!-- PublicFormModule&#45;&gt;AppModule -->
<g id="edge20" class="edge">
<title>PublicFormModule&#45;&gt;AppModule</title>
<path fill="none" stroke="black" d="M1375,-122.03C1375,-139.06 1375,-162 1375,-162 1375,-162 2050.3,-162 2050.3,-162"/>
<polygon fill="black" stroke="black" points="2050.3,-165.5 2060.3,-162 2050.3,-158.5 2050.3,-165.5"/>
</g>
<!-- ReportingModule -->
<g id="node22" class="node">
<title>ReportingModule</title>
<polygon fill="#8dd3c7" stroke="black" points="1293.54,-122 1290.54,-126 1269.54,-126 1266.54,-122 1178.46,-122 1178.46,-86 1293.54,-86 1293.54,-122"/>
<text text-anchor="middle" x="1236" y="-99.8" font-family="Times,serif" font-size="14.00">ReportingModule</text>
</g>
<!-- ReportingModule&#45;&gt;AppModule -->
<g id="edge21" class="edge">
<title>ReportingModule&#45;&gt;AppModule</title>
<path fill="none" stroke="black" d="M1236,-122C1236,-139.68 1236,-164 1236,-164 1236,-164 2050.23,-164 2050.23,-164"/>
<polygon fill="black" stroke="black" points="2050.23,-167.5 2060.23,-164 2050.23,-160.5 2050.23,-167.5"/>
</g>
<!-- SessionModule -->
<g id="node23" class="node">
<title>SessionModule</title>
<polygon fill="#8dd3c7" stroke="black" points="1160.33,-122 1157.33,-126 1136.33,-126 1133.33,-122 1057.67,-122 1057.67,-86 1160.33,-86 1160.33,-122"/>
<text text-anchor="middle" x="1109" y="-99.8" font-family="Times,serif" font-size="14.00">SessionModule</text>
</g>
<!-- SessionModule&#45;&gt;AppModule -->
<g id="edge22" class="edge">
<title>SessionModule&#45;&gt;AppModule</title>
<path fill="none" stroke="black" d="M1109,-122.22C1109,-140.83 1109,-167 1109,-167 1109,-167 2050.28,-167 2050.28,-167"/>
<polygon fill="black" stroke="black" points="2050.28,-170.5 2060.28,-167 2050.28,-163.5 2050.28,-170.5"/>
</g>
<!-- ShortcutDashboardWidgetModule -->
<g id="node24" class="node">
<title>ShortcutDashboardWidgetModule</title>
<polygon fill="#8dd3c7" stroke="black" points="1039.34,-122 1036.34,-126 1015.34,-126 1012.34,-122 830.66,-122 830.66,-86 1039.34,-86 1039.34,-122"/>
<text text-anchor="middle" x="935" y="-99.8" font-family="Times,serif" font-size="14.00">ShortcutDashboardWidgetModule</text>
</g>
<!-- ShortcutDashboardWidgetModule&#45;&gt;AppModule -->
<g id="edge23" class="edge">
<title>ShortcutDashboardWidgetModule&#45;&gt;AppModule</title>
<path fill="none" stroke="black" d="M935,-122.11C935,-141.34 935,-169 935,-169 935,-169 2050.12,-169 2050.12,-169"/>
<polygon fill="black" stroke="black" points="2050.12,-172.5 2060.12,-169 2050.12,-165.5 2050.12,-172.5"/>
</g>
<!-- SkillModule -->
<g id="node25" class="node">
<title>SkillModule</title>
<polygon fill="#8dd3c7" stroke="black" points="813,-122 810,-126 789,-126 786,-122 727,-122 727,-86 813,-86 813,-122"/>
<text text-anchor="middle" x="770" y="-99.8" font-family="Times,serif" font-size="14.00">SkillModule</text>
</g>
<!-- SkillModule&#45;&gt;AppModule -->
<g id="edge24" class="edge">
<title>SkillModule&#45;&gt;AppModule</title>
<path fill="none" stroke="black" d="M770,-122.22C770,-142.37 770,-172 770,-172 770,-172 2050.31,-172 2050.31,-172"/>
<polygon fill="black" stroke="black" points="2050.31,-175.5 2060.31,-172 2050.31,-168.5 2050.31,-175.5"/>
</g>
<!-- TemplateExportModule -->
<g id="node26" class="node">
<title>TemplateExportModule</title>
<polygon fill="#8dd3c7" stroke="black" points="709.02,-122 706.02,-126 685.02,-126 682.02,-122 558.98,-122 558.98,-86 709.02,-86 709.02,-122"/>
<text text-anchor="middle" x="634" y="-99.8" font-family="Times,serif" font-size="14.00">TemplateExportModule</text>
</g>
<!-- TemplateExportModule&#45;&gt;AppModule -->
<g id="edge25" class="edge">
<title>TemplateExportModule&#45;&gt;AppModule</title>
<path fill="none" stroke="black" d="M634,-122.28C634,-143.32 634,-175 634,-175 634,-175 2050.04,-175 2050.04,-175"/>
<polygon fill="black" stroke="black" points="2050.04,-178.5 2060.04,-175 2050.04,-171.5 2050.04,-178.5"/>
</g>
<!-- TodosModule -->
<g id="node27" class="node">
<title>TodosModule</title>
<polygon fill="#8dd3c7" stroke="black" points="540.05,-122 537.05,-126 516.05,-126 513.05,-122 445.95,-122 445.95,-86 540.05,-86 540.05,-122"/>
<text text-anchor="middle" x="493" y="-99.8" font-family="Times,serif" font-size="14.00">TodosModule</text>
</g>
<!-- TodosModule&#45;&gt;AppModule -->
<g id="edge26" class="edge">
<title>TodosModule&#45;&gt;AppModule</title>
<path fill="none" stroke="black" d="M493,-122.04C493,-143.66 493,-177 493,-177 493,-177 2050.2,-177 2050.2,-177"/>
<polygon fill="black" stroke="black" points="2050.2,-180.5 2060.2,-177 2050.2,-173.5 2050.2,-180.5"/>
</g>
<!-- UiComponent -->
<g id="node28" class="node">
<title>UiComponent</title>
<polygon fill="#8dd3c7" stroke="black" points="427.83,-122 424.83,-126 403.83,-126 400.83,-122 332.17,-122 332.17,-86 427.83,-86 427.83,-122"/>
<text text-anchor="middle" x="380" y="-99.8" font-family="Times,serif" font-size="14.00">UiComponent</text>
</g>
<!-- UiComponent&#45;&gt;AppModule -->
<g id="edge27" class="edge">
<title>UiComponent&#45;&gt;AppModule</title>
<path fill="none" stroke="black" d="M380,-122.01C380,-144.49 380,-180 380,-180 380,-180 2050.29,-180 2050.29,-180"/>
<polygon fill="black" stroke="black" points="2050.29,-183.5 2060.29,-180 2050.29,-176.5 2050.29,-183.5"/>
</g>
<!-- AnalyticsService -->
<g id="node30" class="node">
<title>AnalyticsService</title>
<ellipse fill="#fdb462" stroke="black" cx="101" cy="-104" rx="77" ry="18"/>
<text text-anchor="middle" x="101" y="-99.8" font-family="Times,serif" font-size="14.00">AnalyticsService</text>
</g>
<!-- AnalyticsService&#45;&gt;AppModule -->
<g id="edge29" class="edge">
<title>AnalyticsService&#45;&gt;AppModule</title>
<path fill="none" stroke="black" d="M101,-122.38C101,-146.28 101,-185 101,-185 101,-185 2050.21,-185 2050.21,-185"/>
<polygon fill="black" stroke="black" points="2050.21,-188.5 2060.21,-185 2050.21,-181.5 2050.21,-188.5"/>
</g>
</g>
</svg>
