<?xml version="1.0" encoding="UTF-8" standalone="no"?>
<!DOCTYPE svg PUBLIC "-//W3C//DTD SVG 1.1//EN"
 "http://www.w3.org/Graphics/SVG/1.1/DTD/svg11.dtd">
<!-- Generated by graphviz version 2.47.0 (20210316.0004)
 -->
<!-- Title: dependencies Pages: 1 -->
<svg width="4620pt" height="284pt"
 viewBox="0.00 0.00 4620.00 284.00" xmlns="http://www.w3.org/2000/svg" xmlns:xlink="http://www.w3.org/1999/xlink">
<g id="graph0" class="graph" transform="scale(1 1) rotate(0) translate(4 280)">
<title>dependencies</title>
<polygon fill="white" stroke="transparent" points="-4,4 -4,-280 4616,-280 4616,4 -4,4"/>
<text text-anchor="start" x="2285.01" y="-42.4" font-family="Times-12" font-weight="bold" font-size="14.00">Legend</text>
<polygon fill="#ffffb3" stroke="transparent" points="2072,-10 2072,-30 2092,-30 2092,-10 2072,-10"/>
<text text-anchor="start" x="2095.63" y="-15.4" font-family="Times-12" font-size="14.00"> &#160;Declarations</text>
<polygon fill="#8dd3c7" stroke="transparent" points="2185,-10 2185,-30 2205,-30 2205,-10 2185,-10"/>
<text text-anchor="start" x="2208.73" y="-15.4" font-family="Times-12" font-size="14.00"> &#160;Module</text>
<polygon fill="#80b1d3" stroke="transparent" points="2271,-10 2271,-30 2291,-30 2291,-10 2271,-10"/>
<text text-anchor="start" x="2294.78" y="-15.4" font-family="Times-12" font-size="14.00"> &#160;Bootstrap</text>
<polygon fill="#fdb462" stroke="transparent" points="2368,-10 2368,-30 2388,-30 2388,-10 2368,-10"/>
<text text-anchor="start" x="2391.67" y="-15.4" font-family="Times-12" font-size="14.00"> &#160;Providers</text>
<polygon fill="#fb8072" stroke="transparent" points="2464,-10 2464,-30 2484,-30 2484,-10 2464,-10"/>
<text text-anchor="start" x="2487.73" y="-15.4" font-family="Times-12" font-size="14.00"> &#160;Exports</text>
<g id="clust1" class="cluster">
<title>cluster_AppModule</title>
<polygon fill="none" stroke="black" stroke-dasharray="1,5" points="8,-70 8,-268 4604,-268 4604,-70 8,-70"/>
</g>
<g id="clust2" class="cluster">
<title>cluster_AppModule_declarations</title>
<polygon fill="none" stroke="black" points="4474,-78 4474,-130 4596,-130 4596,-78 4474,-78"/>
</g>
<g id="clust6" class="cluster">
<title>cluster_AppModule_bootstrap</title>
<polygon fill="none" stroke="black" points="2260,-208 2260,-260 2384,-260 2384,-208 2260,-208"/>
</g>
<g id="clust4" class="cluster">
<title>cluster_AppModule_imports</title>
<polygon fill="none" stroke="black" points="386,-78 386,-130 4466,-130 4466,-78 386,-78"/>
</g>
<g id="clust7" class="cluster">
<title>cluster_AppModule_providers</title>
<polygon fill="none" stroke="black" points="16,-78 16,-130 378,-130 378,-78 16,-78"/>
</g>
<!-- AppComponent -->
<g id="node1" class="node">
<title>AppComponent</title>
<polygon fill="#ffffb3" stroke="black" points="4587.94,-122 4482.06,-122 4482.06,-86 4587.94,-86 4587.94,-122"/>
<text text-anchor="middle" x="4535" y="-99.8" font-family="Times,serif" font-size="14.00">AppComponent</text>
</g>
<!-- AppModule -->
<g id="node2" class="node">
<title>AppModule</title>
<polygon fill="#8dd3c7" stroke="black" points="2363.66,-187 2360.66,-191 2339.66,-191 2336.66,-187 2280.34,-187 2280.34,-151 2363.66,-151 2363.66,-187"/>
<text text-anchor="middle" x="2322" y="-164.8" font-family="Times,serif" font-size="14.00">AppModule</text>
</g>
<!-- AppComponent&#45;&gt;AppModule -->
<g id="edge1" class="edge">
<title>AppComponent&#45;&gt;AppModule</title>
<path fill="none" stroke="black" d="M4535,-122.38C4535,-146.28 4535,-185 4535,-185 4535,-185 2373.74,-185 2373.74,-185"/>
<polygon fill="black" stroke="black" points="2373.74,-181.5 2363.74,-185 2373.74,-188.5 2373.74,-181.5"/>
</g>
<!-- AppComponent  -->
<g id="node30" class="node">
<title>AppComponent </title>
<polygon fill="#80b1d3" stroke="black" points="2376.44,-252 2267.56,-252 2267.56,-216 2376.44,-216 2376.44,-252"/>
<text text-anchor="middle" x="2322" y="-229.8" font-family="Times,serif" font-size="14.00">AppComponent </text>
</g>
<!-- AppModule&#45;&gt;AppComponent  -->
<g id="edge29" class="edge">
<title>AppModule&#45;&gt;AppComponent </title>
<path fill="none" stroke="black" stroke-dasharray="1,5" d="M2322,-187.11C2322,-187.11 2322,-205.99 2322,-205.99"/>
<polygon fill="black" stroke="black" points="2318.5,-205.99 2322,-215.99 2325.5,-205.99 2318.5,-205.99"/>
</g>
<!-- AdminModule -->
<g id="node3" class="node">
<title>AdminModule</title>
<polygon fill="#8dd3c7" stroke="black" points="4458.44,-122 4455.44,-126 4434.44,-126 4431.44,-122 4359.56,-122 4359.56,-86 4458.44,-86 4458.44,-122"/>
<text text-anchor="middle" x="4409" y="-99.8" font-family="Times,serif" font-size="14.00">AdminModule</text>
</g>
<!-- AdminModule&#45;&gt;AppModule -->
<g id="edge2" class="edge">
<title>AdminModule&#45;&gt;AppModule</title>
<path fill="none" stroke="black" d="M4409,-122.32C4409,-145.66 4409,-183 4409,-183 4409,-183 2373.69,-183 2373.69,-183"/>
<polygon fill="black" stroke="black" points="2373.69,-179.5 2363.69,-183 2373.69,-186.5 2373.69,-179.5"/>
</g>
<!-- ApplicationLoadingComponent -->
<g id="node4" class="node">
<title>ApplicationLoadingComponent</title>
<polygon fill="#8dd3c7" stroke="black" points="4342.09,-122 4339.09,-126 4318.09,-126 4315.09,-122 4147.91,-122 4147.91,-86 4342.09,-86 4342.09,-122"/>
<text text-anchor="middle" x="4245" y="-99.8" font-family="Times,serif" font-size="14.00">ApplicationLoadingComponent</text>
</g>
<!-- ApplicationLoadingComponent&#45;&gt;AppModule -->
<g id="edge3" class="edge">
<title>ApplicationLoadingComponent&#45;&gt;AppModule</title>
<path fill="none" stroke="black" d="M4245,-122.01C4245,-144.49 4245,-180 4245,-180 4245,-180 2373.95,-180 2373.95,-180"/>
<polygon fill="black" stroke="black" points="2373.95,-176.5 2363.95,-180 2373.95,-183.5 2373.95,-176.5"/>
</g>
<!-- AttendanceModule -->
<g id="node5" class="node">
<title>AttendanceModule</title>
<polygon fill="#8dd3c7" stroke="black" points="4129.8,-122 4126.8,-126 4105.8,-126 4102.8,-122 4006.2,-122 4006.2,-86 4129.8,-86 4129.8,-122"/>
<text text-anchor="middle" x="4068" y="-99.8" font-family="Times,serif" font-size="14.00">AttendanceModule</text>
</g>
<!-- AttendanceModule&#45;&gt;AppModule -->
<g id="edge4" class="edge">
<title>AttendanceModule&#45;&gt;AppModule</title>
<path fill="none" stroke="black" d="M4068,-122.29C4068,-144.21 4068,-178 4068,-178 4068,-178 2373.87,-178 2373.87,-178"/>
<polygon fill="black" stroke="black" points="2373.87,-174.5 2363.87,-178 2373.87,-181.5 2373.87,-174.5"/>
</g>
<!-- BirthdayDashboardWidgetModule -->
<g id="node6" class="node">
<title>BirthdayDashboardWidgetModule</title>
<polygon fill="#8dd3c7" stroke="black" points="3988.39,-122 3985.39,-126 3964.39,-126 3961.39,-122 3777.61,-122 3777.61,-86 3988.39,-86 3988.39,-122"/>
<text text-anchor="middle" x="3883" y="-99.8" font-family="Times,serif" font-size="14.00">BirthdayDashboardWidgetModule</text>
</g>
<!-- BirthdayDashboardWidgetModule&#45;&gt;AppModule -->
<g id="edge5" class="edge">
<title>BirthdayDashboardWidgetModule&#45;&gt;AppModule</title>
<path fill="none" stroke="black" d="M3883,-122.28C3883,-143.32 3883,-175 3883,-175 3883,-175 2373.75,-175 2373.75,-175"/>
<polygon fill="black" stroke="black" points="2373.75,-171.5 2363.75,-175 2373.75,-178.5 2373.75,-171.5"/>
</g>
<!-- ChildrenModule -->
<g id="node7" class="node">
<title>ChildrenModule</title>
<polygon fill="#8dd3c7" stroke="black" points="3760.04,-122 3757.04,-126 3736.04,-126 3733.04,-122 3651.96,-122 3651.96,-86 3760.04,-86 3760.04,-122"/>
<text text-anchor="middle" x="3706" y="-99.8" font-family="Times,serif" font-size="14.00">ChildrenModule</text>
</g>
<!-- ChildrenModule&#45;&gt;AppModule -->
<g id="edge6" class="edge">
<title>ChildrenModule&#45;&gt;AppModule</title>
<path fill="none" stroke="black" d="M3706,-122.13C3706,-142.57 3706,-173 3706,-173 3706,-173 2373.8,-173 2373.8,-173"/>
<polygon fill="black" stroke="black" points="2373.8,-169.5 2363.8,-173 2373.8,-176.5 2373.8,-169.5"/>
</g>
<!-- ConfigurableEnumModule -->
<g id="node8" class="node">
<title>ConfigurableEnumModule</title>
<polygon fill="#8dd3c7" stroke="black" points="3633.36,-122 3630.36,-126 3609.36,-126 3606.36,-122 3466.64,-122 3466.64,-86 3633.36,-86 3633.36,-122"/>
<text text-anchor="middle" x="3550" y="-99.8" font-family="Times,serif" font-size="14.00">ConfigurableEnumModule</text>
</g>
<!-- ConfigurableEnumModule&#45;&gt;AppModule -->
<g id="edge7" class="edge">
<title>ConfigurableEnumModule&#45;&gt;AppModule</title>
<path fill="none" stroke="black" d="M3550,-122.31C3550,-142.15 3550,-171 3550,-171 3550,-171 2373.92,-171 2373.92,-171"/>
<polygon fill="black" stroke="black" points="2373.92,-167.5 2363.92,-171 2373.92,-174.5 2373.92,-167.5"/>
</g>
<!-- CoreModule -->
<g id="node9" class="node">
<title>CoreModule</title>
<polygon fill="#8dd3c7" stroke="black" points="3448.26,-122 3445.26,-126 3424.26,-126 3421.26,-122 3361.74,-122 3361.74,-86 3448.26,-86 3448.26,-122"/>
<text text-anchor="middle" x="3405" y="-99.8" font-family="Times,serif" font-size="14.00">CoreModule</text>
</g>
<!-- CoreModule&#45;&gt;AppModule -->
<g id="edge8" class="edge">
<title>CoreModule&#45;&gt;AppModule</title>
<path fill="none" stroke="black" d="M3405,-122.17C3405,-141.09 3405,-168 3405,-168 3405,-168 2373.79,-168 2373.79,-168"/>
<polygon fill="black" stroke="black" points="2373.79,-164.5 2363.79,-168 2373.79,-171.5 2373.79,-164.5"/>
</g>
<!-- DemoDataModule -->
<g id="node10" class="node">
<title>DemoDataModule</title>
<polygon fill="#8dd3c7" stroke="black" points="3344.19,-122 3341.19,-126 3320.19,-126 3317.19,-122 3223.81,-122 3223.81,-86 3344.19,-86 3344.19,-122"/>
<text text-anchor="middle" x="3284" y="-99.8" font-family="Times,serif" font-size="14.00">DemoDataModule</text>
</g>
<!-- DemoDataModule&#45;&gt;AppModule -->
<g id="edge9" class="edge">
<title>DemoDataModule&#45;&gt;AppModule</title>
<path fill="none" stroke="black" d="M3284,-122.27C3284,-140.56 3284,-166 3284,-166 3284,-166 2373.95,-166 2373.95,-166"/>
<polygon fill="black" stroke="black" points="2373.95,-162.5 2363.95,-166 2373.95,-169.5 2373.95,-162.5"/>
</g>
<!-- EntityCountDashboardWidgetModule -->
<g id="node11" class="node">
<title>EntityCountDashboardWidgetModule</title>
<polygon fill="#8dd3c7" stroke="black" points="3205.85,-122 3202.85,-126 3181.85,-126 3178.85,-122 2976.15,-122 2976.15,-86 3205.85,-86 3205.85,-122"/>
<text text-anchor="middle" x="3091" y="-99.8" font-family="Times,serif" font-size="14.00">EntityCountDashboardWidgetModule</text>
</g>
<!-- EntityCountDashboardWidgetModule&#45;&gt;AppModule -->
<g id="edge10" class="edge">
<title>EntityCountDashboardWidgetModule&#45;&gt;AppModule</title>
<path fill="none" stroke="black" d="M3091,-122.02C3091,-139.37 3091,-163 3091,-163 3091,-163 2373.89,-163 2373.89,-163"/>
<polygon fill="black" stroke="black" points="2373.89,-159.5 2363.89,-163 2373.89,-166.5 2373.89,-159.5"/>
</g>
<!-- FileModule -->
<g id="node12" class="node">
<title>FileModule</title>
<polygon fill="#8dd3c7" stroke="black" points="2957.83,-122 2954.83,-126 2933.83,-126 2930.83,-122 2876.17,-122 2876.17,-86 2957.83,-86 2957.83,-122"/>
<text text-anchor="middle" x="2917" y="-99.8" font-family="Times,serif" font-size="14.00">FileModule</text>
</g>
<!-- FileModule&#45;&gt;AppModule -->
<g id="edge11" class="edge">
<title>FileModule&#45;&gt;AppModule</title>
<path fill="none" stroke="black" d="M2917,-122.04C2917,-138.73 2917,-161 2917,-161 2917,-161 2373.84,-161 2373.84,-161"/>
<polygon fill="black" stroke="black" points="2373.84,-157.5 2363.84,-161 2373.84,-164.5 2373.84,-157.5"/>
</g>
<!-- ImportModule -->
<g id="node13" class="node">
<title>ImportModule</title>
<polygon fill="#8dd3c7" stroke="black" points="2858.65,-122 2855.65,-126 2834.65,-126 2831.65,-122 2761.35,-122 2761.35,-86 2858.65,-86 2858.65,-122"/>
<text text-anchor="middle" x="2810" y="-99.8" font-family="Times,serif" font-size="14.00">ImportModule</text>
</g>
<!-- ImportModule&#45;&gt;AppModule -->
<g id="edge12" class="edge">
<title>ImportModule&#45;&gt;AppModule</title>
<path fill="none" stroke="black" d="M2810,-122.01C2810,-138.05 2810,-159 2810,-159 2810,-159 2374.03,-159 2374.03,-159"/>
<polygon fill="black" stroke="black" points="2374.03,-155.5 2364.03,-159 2374.03,-162.5 2374.03,-155.5"/>
</g>
<!-- LanguageModule -->
<g id="node14" class="node">
<title>LanguageModule</title>
<polygon fill="#8dd3c7" stroke="black" points="2743.25,-122 2740.25,-126 2719.25,-126 2716.25,-122 2628.75,-122 2628.75,-86 2743.25,-86 2743.25,-122"/>
<text text-anchor="middle" x="2686" y="-99.8" font-family="Times,serif" font-size="14.00">LanguageModule</text>
</g>
<!-- LanguageModule&#45;&gt;AppModule -->
<g id="edge13" class="edge">
<title>LanguageModule&#45;&gt;AppModule</title>
<path fill="none" stroke="black" d="M2686,-122.19C2686,-137.18 2686,-156 2686,-156 2686,-156 2373.76,-156 2373.76,-156"/>
<polygon fill="black" stroke="black" points="2373.76,-152.5 2363.76,-156 2373.76,-159.5 2373.76,-152.5"/>
</g>
<!-- LatestChangesModule -->
<g id="node15" class="node">
<title>LatestChangesModule</title>
<polygon fill="#8dd3c7" stroke="black" points="2610.97,-122 2607.97,-126 2586.97,-126 2583.97,-122 2469.03,-122 2469.03,-86 2610.97,-86 2610.97,-122"/>
<text text-anchor="middle" x="2540" y="-99.8" font-family="Times,serif" font-size="14.00">LatestChangesModule</text>
</g>
<!-- LatestChangesModule&#45;&gt;AppModule -->
<g id="edge14" class="edge">
<title>LatestChangesModule&#45;&gt;AppModule</title>
<path fill="none" stroke="black" d="M2540,-122.05C2540,-136.37 2540,-154 2540,-154 2540,-154 2373.77,-154 2373.77,-154"/>
<polygon fill="black" stroke="black" points="2373.77,-150.5 2363.77,-154 2373.77,-157.5 2373.77,-150.5"/>
</g>
<!-- LocationModule -->
<g id="node16" class="node">
<title>LocationModule</title>
<polygon fill="#8dd3c7" stroke="black" points="2450.81,-122 2447.81,-126 2426.81,-126 2423.81,-122 2341.19,-122 2341.19,-86 2450.81,-86 2450.81,-122"/>
<text text-anchor="middle" x="2396" y="-99.8" font-family="Times,serif" font-size="14.00">LocationModule</text>
</g>
<!-- LocationModule&#45;&gt;AppModule -->
<g id="edge15" class="edge">
<title>LocationModule&#45;&gt;AppModule</title>
<path fill="none" stroke="black" d="M2352.59,-122.11C2352.59,-122.11 2352.59,-140.99 2352.59,-140.99"/>
<polygon fill="black" stroke="black" points="2349.09,-140.99 2352.59,-150.99 2356.09,-140.99 2349.09,-140.99"/>
</g>
<!-- MarkdownPageModule -->
<g id="node17" class="node">
<title>MarkdownPageModule</title>
<polygon fill="#8dd3c7" stroke="black" points="2323.19,-122 2320.19,-126 2299.19,-126 2296.19,-122 2174.81,-122 2174.81,-86 2323.19,-86 2323.19,-122"/>
<text text-anchor="middle" x="2249" y="-99.8" font-family="Times,serif" font-size="14.00">MarkdownPageModule</text>
</g>
<!-- MarkdownPageModule&#45;&gt;AppModule -->
<g id="edge16" class="edge">
<title>MarkdownPageModule&#45;&gt;AppModule</title>
<path fill="none" stroke="black" d="M2301.63,-122.11C2301.63,-122.11 2301.63,-140.99 2301.63,-140.99"/>
<polygon fill="black" stroke="black" points="2298.13,-140.99 2301.63,-150.99 2305.13,-140.99 2298.13,-140.99"/>
</g>
<!-- MatchingEntitiesModule -->
<g id="node18" class="node">
<title>MatchingEntitiesModule</title>
<polygon fill="#8dd3c7" stroke="black" points="2156.98,-122 2153.98,-126 2132.98,-126 2129.98,-122 2001.02,-122 2001.02,-86 2156.98,-86 2156.98,-122"/>
<text text-anchor="middle" x="2079" y="-99.8" font-family="Times,serif" font-size="14.00">MatchingEntitiesModule</text>
</g>
<!-- MatchingEntitiesModule&#45;&gt;AppModule -->
<g id="edge17" class="edge">
<title>MatchingEntitiesModule&#45;&gt;AppModule</title>
<path fill="none" stroke="black" d="M2079,-122.05C2079,-136.37 2079,-154 2079,-154 2079,-154 2270.23,-154 2270.23,-154"/>
<polygon fill="black" stroke="black" points="2270.23,-157.5 2280.23,-154 2270.23,-150.5 2270.23,-157.5"/>
</g>
<!-- NotesModule -->
<g id="node19" class="node">
<title>NotesModule</title>
<polygon fill="#8dd3c7" stroke="black" points="1983.21,-122 1980.21,-126 1959.21,-126 1956.21,-122 1890.79,-122 1890.79,-86 1983.21,-86 1983.21,-122"/>
<text text-anchor="middle" x="1937" y="-99.8" font-family="Times,serif" font-size="14.00">NotesModule</text>
</g>
<!-- NotesModule&#45;&gt;AppModule -->
<g id="edge18" class="edge">
<title>NotesModule&#45;&gt;AppModule</title>
<path fill="none" stroke="black" d="M1937,-122.19C1937,-137.18 1937,-156 1937,-156 1937,-156 2270.07,-156 2270.07,-156"/>
<polygon fill="black" stroke="black" points="2270.07,-159.5 2280.07,-156 2270.07,-152.5 2270.07,-159.5"/>
</g>
<!-- PermissionsModule -->
<g id="node20" class="node">
<title>PermissionsModule</title>
<polygon fill="#8dd3c7" stroke="black" points="1872.71,-122 1869.71,-126 1848.71,-126 1845.71,-122 1745.29,-122 1745.29,-86 1872.71,-86 1872.71,-122"/>
<text text-anchor="middle" x="1809" y="-99.8" font-family="Times,serif" font-size="14.00">PermissionsModule</text>
</g>
<!-- PermissionsModule&#45;&gt;AppModule -->
<g id="edge19" class="edge">
<title>PermissionsModule&#45;&gt;AppModule</title>
<path fill="none" stroke="black" d="M1809,-122.01C1809,-138.05 1809,-159 1809,-159 1809,-159 2270.02,-159 2270.02,-159"/>
<polygon fill="black" stroke="black" points="2270.02,-162.5 2280.02,-159 2270.02,-155.5 2270.02,-162.5"/>
</g>
<!-- ProgressDashboardWidgetModule -->
<g id="node21" class="node">
<title>ProgressDashboardWidgetModule</title>
<polygon fill="#8dd3c7" stroke="black" points="1727.61,-122 1724.61,-126 1703.61,-126 1700.61,-122 1518.39,-122 1518.39,-86 1727.61,-86 1727.61,-122"/>
<text text-anchor="middle" x="1623" y="-99.8" font-family="Times,serif" font-size="14.00">ProgressDashboardWidgetModule</text>
</g>
<!-- ProgressDashboardWidgetModule&#45;&gt;AppModule -->
<g id="edge20" class="edge">
<title>ProgressDashboardWidgetModule&#45;&gt;AppModule</title>
<path fill="none" stroke="black" d="M1623,-122.04C1623,-138.73 1623,-161 1623,-161 1623,-161 2270.11,-161 2270.11,-161"/>
<polygon fill="black" stroke="black" points="2270.11,-164.5 2280.11,-161 2270.11,-157.5 2270.11,-164.5"/>
</g>
<!-- PublicFormModule -->
<g id="node22" class="node">
<title>PublicFormModule</title>
<polygon fill="#8dd3c7" stroke="black" points="1499.66,-122 1496.66,-126 1475.66,-126 1472.66,-122 1374.34,-122 1374.34,-86 1499.66,-86 1499.66,-122"/>
<text text-anchor="middle" x="1437" y="-99.8" font-family="Times,serif" font-size="14.00">PublicFormModule</text>
</g>
<!-- PublicFormModule&#45;&gt;AppModule -->
<g id="edge21" class="edge">
<title>PublicFormModule&#45;&gt;AppModule</title>
<path fill="none" stroke="black" d="M1437,-122.02C1437,-139.37 1437,-163 1437,-163 1437,-163 2270.21,-163 2270.21,-163"/>
<polygon fill="black" stroke="black" points="2270.21,-166.5 2280.21,-163 2270.21,-159.5 2270.21,-166.5"/>
</g>
<!-- ReportingModule -->
<g id="node23" class="node">
<title>ReportingModule</title>
<polygon fill="#8dd3c7" stroke="black" points="1355.54,-122 1352.54,-126 1331.54,-126 1328.54,-122 1240.46,-122 1240.46,-86 1355.54,-86 1355.54,-122"/>
<text text-anchor="middle" x="1298" y="-99.8" font-family="Times,serif" font-size="14.00">ReportingModule</text>
</g>
<!-- ReportingModule&#45;&gt;AppModule -->
<g id="edge22" class="edge">
<title>ReportingModule&#45;&gt;AppModule</title>
<path fill="none" stroke="black" d="M1298,-122.27C1298,-140.56 1298,-166 1298,-166 1298,-166 2270.27,-166 2270.27,-166"/>
<polygon fill="black" stroke="black" points="2270.27,-169.5 2280.27,-166 2270.27,-162.5 2270.27,-169.5"/>
</g>
<!-- SessionModule -->
<g id="node24" class="node">
<title>SessionModule</title>
<polygon fill="#8dd3c7" stroke="black" points="1222.33,-122 1219.33,-126 1198.33,-126 1195.33,-122 1119.67,-122 1119.67,-86 1222.33,-86 1222.33,-122"/>
<text text-anchor="middle" x="1171" y="-99.8" font-family="Times,serif" font-size="14.00">SessionModule</text>
</g>
<!-- SessionModule&#45;&gt;AppModule -->
<g id="edge23" class="edge">
<title>SessionModule&#45;&gt;AppModule</title>
<path fill="none" stroke="black" d="M1171,-122.17C1171,-141.09 1171,-168 1171,-168 1171,-168 2270.01,-168 2270.01,-168"/>
<polygon fill="black" stroke="black" points="2270.01,-171.5 2280.01,-168 2270.01,-164.5 2270.01,-171.5"/>
</g>
<!-- ShortcutDashboardWidgetModule -->
<g id="node25" class="node">
<title>ShortcutDashboardWidgetModule</title>
<polygon fill="#8dd3c7" stroke="black" points="1101.34,-122 1098.34,-126 1077.34,-126 1074.34,-122 892.66,-122 892.66,-86 1101.34,-86 1101.34,-122"/>
<text text-anchor="middle" x="997" y="-99.8" font-family="Times,serif" font-size="14.00">ShortcutDashboardWidgetModule</text>
</g>
<!-- ShortcutDashboardWidgetModule&#45;&gt;AppModule -->
<g id="edge24" class="edge">
<title>ShortcutDashboardWidgetModule&#45;&gt;AppModule</title>
<path fill="none" stroke="black" d="M997,-122.31C997,-142.15 997,-171 997,-171 997,-171 2270.16,-171 2270.16,-171"/>
<polygon fill="black" stroke="black" points="2270.16,-174.5 2280.16,-171 2270.16,-167.5 2270.16,-174.5"/>
</g>
<!-- SkillModule -->
<g id="node26" class="node">
<title>SkillModule</title>
<polygon fill="#8dd3c7" stroke="black" points="875,-122 872,-126 851,-126 848,-122 789,-122 789,-86 875,-86 875,-122"/>
<text text-anchor="middle" x="832" y="-99.8" font-family="Times,serif" font-size="14.00">SkillModule</text>
</g>
<!-- SkillModule&#45;&gt;AppModule -->
<g id="edge25" class="edge">
<title>SkillModule&#45;&gt;AppModule</title>
<path fill="none" stroke="black" d="M832,-122.13C832,-142.57 832,-173 832,-173 832,-173 2270.2,-173 2270.2,-173"/>
<polygon fill="black" stroke="black" points="2270.2,-176.5 2280.2,-173 2270.2,-169.5 2270.2,-176.5"/>
</g>
<!-- TemplateExportModule -->
<g id="node27" class="node">
<title>TemplateExportModule</title>
<polygon fill="#8dd3c7" stroke="black" points="771.02,-122 768.02,-126 747.02,-126 744.02,-122 620.98,-122 620.98,-86 771.02,-86 771.02,-122"/>
<text text-anchor="middle" x="696" y="-99.8" font-family="Times,serif" font-size="14.00">TemplateExportModule</text>
</g>
<!-- TemplateExportModule&#45;&gt;AppModule -->
<g id="edge26" class="edge">
<title>TemplateExportModule&#45;&gt;AppModule</title>
<path fill="none" stroke="black" d="M696,-122.28C696,-143.32 696,-175 696,-175 696,-175 2270.17,-175 2270.17,-175"/>
<polygon fill="black" stroke="black" points="2270.17,-178.5 2280.17,-175 2270.17,-171.5 2270.17,-178.5"/>
</g>
<!-- TodosModule -->
<g id="node28" class="node">
<title>TodosModule</title>
<polygon fill="#8dd3c7" stroke="black" points="602.05,-122 599.05,-126 578.05,-126 575.05,-122 507.95,-122 507.95,-86 602.05,-86 602.05,-122"/>
<text text-anchor="middle" x="555" y="-99.8" font-family="Times,serif" font-size="14.00">TodosModule</text>
</g>
<!-- TodosModule&#45;&gt;AppModule -->
<g id="edge27" class="edge">
<title>TodosModule&#45;&gt;AppModule</title>
<path fill="none" stroke="black" d="M555,-122.29C555,-144.21 555,-178 555,-178 555,-178 2270.06,-178 2270.06,-178"/>
<polygon fill="black" stroke="black" points="2270.06,-181.5 2280.06,-178 2270.06,-174.5 2270.06,-181.5"/>
</g>
<!-- UiComponent -->
<g id="node29" class="node">
<title>UiComponent</title>
<polygon fill="#8dd3c7" stroke="black" points="489.83,-122 486.83,-126 465.83,-126 462.83,-122 394.17,-122 394.17,-86 489.83,-86 489.83,-122"/>
<text text-anchor="middle" x="442" y="-99.8" font-family="Times,serif" font-size="14.00">UiComponent</text>
</g>
<!-- UiComponent&#45;&gt;AppModule -->
<g id="edge28" class="edge">
<title>UiComponent&#45;&gt;AppModule</title>
<path fill="none" stroke="black" d="M442,-122.01C442,-144.49 442,-180 442,-180 442,-180 2270.1,-180 2270.1,-180"/>
<polygon fill="black" stroke="black" points="2270.1,-183.5 2280.1,-180 2270.1,-176.5 2270.1,-183.5"/>
</g>
<!-- AnalyticsService -->
<g id="node31" class="node">
<title>AnalyticsService</title>
<ellipse fill="#fdb462" stroke="black" cx="293" cy="-104" rx="77" ry="18"/>
<text text-anchor="middle" x="293" y="-99.8" font-family="Times,serif" font-size="14.00">AnalyticsService</text>
</g>
<!-- AnalyticsService&#45;&gt;AppModule -->
<g id="edge30" class="edge">
<title>AnalyticsService&#45;&gt;AppModule</title>
<path fill="none" stroke="black" d="M293,-122.32C293,-145.66 293,-183 293,-183 293,-183 2270.09,-183 2270.09,-183"/>
<polygon fill="black" stroke="black" points="2270.09,-186.5 2280.09,-183 2270.09,-179.5 2270.09,-186.5"/>
</g>
<!-- NotificationService -->
<g id="node32" class="node">
<title>NotificationService</title>
<ellipse fill="#fdb462" stroke="black" cx="111" cy="-104" rx="86.81" ry="18"/>
<text text-anchor="middle" x="111" y="-99.8" font-family="Times,serif" font-size="14.00">NotificationService</text>
</g>
<!-- NotificationService&#45;&gt;AppModule -->
<g id="edge31" class="edge">
<title>NotificationService&#45;&gt;AppModule</title>
<path fill="none" stroke="black" d="M111,-122.38C111,-146.28 111,-185 111,-185 111,-185 2270.29,-185 2270.29,-185"/>
<polygon fill="black" stroke="black" points="2270.29,-188.5 2280.29,-185 2270.29,-181.5 2270.29,-188.5"/>
</g>
</g>
</svg>
