<?xml version="1.0" encoding="UTF-8" standalone="no"?>
<!DOCTYPE svg PUBLIC "-//W3C//DTD SVG 1.1//EN"
 "http://www.w3.org/Graphics/SVG/1.1/DTD/svg11.dtd">
<!-- Generated by graphviz version 2.47.0 (20210316.0004)
 -->
<!-- Title: dependencies Pages: 1 -->
<svg width="5722pt" height="284pt"
 viewBox="0.00 0.00 5722.00 284.00" xmlns="http://www.w3.org/2000/svg" xmlns:xlink="http://www.w3.org/1999/xlink">
<g id="graph0" class="graph" transform="scale(1 1) rotate(0) translate(4 280)">
<title>dependencies</title>
<polygon fill="white" stroke="transparent" points="-4,4 -4,-280 5718,-280 5718,4 -4,4"/>
<text text-anchor="start" x="2836.01" y="-42.4" font-family="Times-12" font-weight="bold" font-size="14.00">Legend</text>
<polygon fill="#ffffb3" stroke="transparent" points="2623,-10 2623,-30 2643,-30 2643,-10 2623,-10"/>
<text text-anchor="start" x="2646.63" y="-15.4" font-family="Times-12" font-size="14.00"> &#160;Declarations</text>
<polygon fill="#8dd3c7" stroke="transparent" points="2736,-10 2736,-30 2756,-30 2756,-10 2736,-10"/>
<text text-anchor="start" x="2759.73" y="-15.4" font-family="Times-12" font-size="14.00"> &#160;Module</text>
<polygon fill="#80b1d3" stroke="transparent" points="2822,-10 2822,-30 2842,-30 2842,-10 2822,-10"/>
<text text-anchor="start" x="2845.78" y="-15.4" font-family="Times-12" font-size="14.00"> &#160;Bootstrap</text>
<polygon fill="#fdb462" stroke="transparent" points="2919,-10 2919,-30 2939,-30 2939,-10 2919,-10"/>
<text text-anchor="start" x="2942.67" y="-15.4" font-family="Times-12" font-size="14.00"> &#160;Providers</text>
<polygon fill="#fb8072" stroke="transparent" points="3015,-10 3015,-30 3035,-30 3035,-10 3015,-10"/>
<text text-anchor="start" x="3038.73" y="-15.4" font-family="Times-12" font-size="14.00"> &#160;Exports</text>
<g id="clust1" class="cluster">
<title>cluster_AppModule</title>
<polygon fill="none" stroke="black" stroke-dasharray="1,5" points="8,-70 8,-268 5706,-268 5706,-70 8,-70"/>
</g>
<g id="clust2" class="cluster">
<title>cluster_AppModule_declarations</title>
<polygon fill="none" stroke="black" points="5576,-78 5576,-130 5698,-130 5698,-78 5576,-78"/>
</g>
<g id="clust7" class="cluster">
<title>cluster_AppModule_providers</title>
<polygon fill="none" stroke="black" points="4718,-78 4718,-130 5568,-130 5568,-78 4718,-78"/>
</g>
<g id="clust4" class="cluster">
<title>cluster_AppModule_imports</title>
<polygon fill="none" stroke="black" points="16,-78 16,-130 4710,-130 4710,-78 16,-78"/>
</g>
<g id="clust6" class="cluster">
<title>cluster_AppModule_bootstrap</title>
<polygon fill="none" stroke="black" points="2572,-208 2572,-260 2696,-260 2696,-208 2572,-208"/>
</g>
<!-- AppComponent -->
<g id="node1" class="node">
<title>AppComponent</title>
<polygon fill="#ffffb3" stroke="black" points="5689.94,-122 5584.06,-122 5584.06,-86 5689.94,-86 5689.94,-122"/>
<text text-anchor="middle" x="5637" y="-99.8" font-family="Times,serif" font-size="14.00">AppComponent</text>
</g>
<!-- AppModule -->
<g id="node2" class="node">
<title>AppModule</title>
<polygon fill="#8dd3c7" stroke="black" points="2675.66,-187 2672.66,-191 2651.66,-191 2648.66,-187 2592.34,-187 2592.34,-151 2675.66,-151 2675.66,-187"/>
<text text-anchor="middle" x="2634" y="-164.8" font-family="Times,serif" font-size="14.00">AppModule</text>
</g>
<!-- AppComponent&#45;&gt;AppModule -->
<g id="edge1" class="edge">
<title>AppComponent&#45;&gt;AppModule</title>
<path fill="none" stroke="black" d="M5637,-122.38C5637,-146.28 5637,-185 5637,-185 5637,-185 2685.88,-185 2685.88,-185"/>
<polygon fill="black" stroke="black" points="2685.88,-181.5 2675.88,-185 2685.88,-188.5 2685.88,-181.5"/>
</g>
<!-- AppComponent  -->
<g id="node34" class="node">
<title>AppComponent </title>
<polygon fill="#80b1d3" stroke="black" points="2688.44,-252 2579.56,-252 2579.56,-216 2688.44,-216 2688.44,-252"/>
<text text-anchor="middle" x="2634" y="-229.8" font-family="Times,serif" font-size="14.00">AppComponent </text>
</g>
<!-- AppModule&#45;&gt;AppComponent  -->
<g id="edge33" class="edge">
<title>AppModule&#45;&gt;AppComponent </title>
<path fill="none" stroke="black" stroke-dasharray="1,5" d="M2634,-187.11C2634,-187.11 2634,-205.99 2634,-205.99"/>
<polygon fill="black" stroke="black" points="2630.5,-205.99 2634,-215.99 2637.5,-205.99 2630.5,-205.99"/>
</g>
<!-- AdminModule -->
<g id="node3" class="node">
<title>AdminModule</title>
<polygon fill="#8dd3c7" stroke="black" points="4702.44,-122 4699.44,-126 4678.44,-126 4675.44,-122 4603.56,-122 4603.56,-86 4702.44,-86 4702.44,-122"/>
<text text-anchor="middle" x="4653" y="-99.8" font-family="Times,serif" font-size="14.00">AdminModule</text>
</g>
<!-- AdminModule&#45;&gt;AppModule -->
<g id="edge2" class="edge">
<title>AdminModule&#45;&gt;AppModule</title>
<path fill="none" stroke="black" d="M4653,-122.28C4653,-143.32 4653,-175 4653,-175 4653,-175 2685.71,-175 2685.71,-175"/>
<polygon fill="black" stroke="black" points="2685.71,-171.5 2675.71,-175 2685.71,-178.5 2685.71,-171.5"/>
</g>
<!-- ApplicationLoadingComponent -->
<g id="node4" class="node">
<title>ApplicationLoadingComponent</title>
<polygon fill="#8dd3c7" stroke="black" points="4586.09,-122 4583.09,-126 4562.09,-126 4559.09,-122 4391.91,-122 4391.91,-86 4586.09,-86 4586.09,-122"/>
<text text-anchor="middle" x="4489" y="-99.8" font-family="Times,serif" font-size="14.00">ApplicationLoadingComponent</text>
</g>
<!-- ApplicationLoadingComponent&#45;&gt;AppModule -->
<g id="edge3" class="edge">
<title>ApplicationLoadingComponent&#45;&gt;AppModule</title>
<path fill="none" stroke="black" d="M4489,-122.13C4489,-142.57 4489,-173 4489,-173 4489,-173 2685.79,-173 2685.79,-173"/>
<polygon fill="black" stroke="black" points="2685.79,-169.5 2675.79,-173 2685.79,-176.5 2685.79,-169.5"/>
</g>
<!-- AttendanceModule -->
<g id="node5" class="node">
<title>AttendanceModule</title>
<polygon fill="#8dd3c7" stroke="black" points="4373.8,-122 4370.8,-126 4349.8,-126 4346.8,-122 4250.2,-122 4250.2,-86 4373.8,-86 4373.8,-122"/>
<text text-anchor="middle" x="4312" y="-99.8" font-family="Times,serif" font-size="14.00">AttendanceModule</text>
</g>
<!-- AttendanceModule&#45;&gt;AppModule -->
<g id="edge4" class="edge">
<title>AttendanceModule&#45;&gt;AppModule</title>
<path fill="none" stroke="black" d="M4312,-122.31C4312,-142.15 4312,-171 4312,-171 4312,-171 2685.9,-171 2685.9,-171"/>
<polygon fill="black" stroke="black" points="2685.9,-167.5 2675.9,-171 2685.9,-174.5 2685.9,-167.5"/>
</g>
<!-- BirthdayDashboardWidgetModule -->
<g id="node6" class="node">
<title>BirthdayDashboardWidgetModule</title>
<polygon fill="#8dd3c7" stroke="black" points="4232.39,-122 4229.39,-126 4208.39,-126 4205.39,-122 4021.61,-122 4021.61,-86 4232.39,-86 4232.39,-122"/>
<text text-anchor="middle" x="4127" y="-99.8" font-family="Times,serif" font-size="14.00">BirthdayDashboardWidgetModule</text>
</g>
<!-- BirthdayDashboardWidgetModule&#45;&gt;AppModule -->
<g id="edge5" class="edge">
<title>BirthdayDashboardWidgetModule&#45;&gt;AppModule</title>
<path fill="none" stroke="black" d="M4127,-122.11C4127,-141.34 4127,-169 4127,-169 4127,-169 2685.88,-169 2685.88,-169"/>
<polygon fill="black" stroke="black" points="2685.88,-165.5 2675.88,-169 2685.88,-172.5 2685.88,-165.5"/>
</g>
<!-- BulkEditModule -->
<g id="node7" class="node">
<title>BulkEditModule</title>
<polygon fill="#8dd3c7" stroke="black" points="4004.11,-122 4001.11,-126 3980.11,-126 3977.11,-122 3893.89,-122 3893.89,-86 4004.11,-86 4004.11,-122"/>
<text text-anchor="middle" x="3949" y="-99.8" font-family="Times,serif" font-size="14.00">BulkEditModule</text>
</g>
<!-- BulkEditModule&#45;&gt;AppModule -->
<g id="edge6" class="edge">
<title>BulkEditModule&#45;&gt;AppModule</title>
<path fill="none" stroke="black" d="M3949,-122.22C3949,-140.83 3949,-167 3949,-167 3949,-167 2685.89,-167 2685.89,-167"/>
<polygon fill="black" stroke="black" points="2685.89,-163.5 2675.89,-167 2685.89,-170.5 2685.89,-163.5"/>
</g>
<!-- ChildrenModule -->
<g id="node8" class="node">
<title>ChildrenModule</title>
<polygon fill="#8dd3c7" stroke="black" points="3876.04,-122 3873.04,-126 3852.04,-126 3849.04,-122 3767.96,-122 3767.96,-86 3876.04,-86 3876.04,-122"/>
<text text-anchor="middle" x="3822" y="-99.8" font-family="Times,serif" font-size="14.00">ChildrenModule</text>
</g>
<!-- ChildrenModule&#45;&gt;AppModule -->
<g id="edge7" class="edge">
<title>ChildrenModule&#45;&gt;AppModule</title>
<path fill="none" stroke="black" d="M3822,-122.3C3822,-140.27 3822,-165 3822,-165 3822,-165 2685.93,-165 2685.93,-165"/>
<polygon fill="black" stroke="black" points="2685.93,-161.5 2675.93,-165 2685.93,-168.5 2685.93,-161.5"/>
</g>
<!-- ConfigurableEnumModule -->
<g id="node9" class="node">
<title>ConfigurableEnumModule</title>
<polygon fill="#8dd3c7" stroke="black" points="3749.36,-122 3746.36,-126 3725.36,-126 3722.36,-122 3582.64,-122 3582.64,-86 3749.36,-86 3749.36,-122"/>
<text text-anchor="middle" x="3666" y="-99.8" font-family="Times,serif" font-size="14.00">ConfigurableEnumModule</text>
</g>
<!-- ConfigurableEnumModule&#45;&gt;AppModule -->
<g id="edge8" class="edge">
<title>ConfigurableEnumModule&#45;&gt;AppModule</title>
<path fill="none" stroke="black" d="M3666,-122.02C3666,-139.37 3666,-163 3666,-163 3666,-163 2685.73,-163 2685.73,-163"/>
<polygon fill="black" stroke="black" points="2685.73,-159.5 2675.73,-163 2685.73,-166.5 2685.73,-159.5"/>
</g>
<!-- CoreModule -->
<g id="node10" class="node">
<title>CoreModule</title>
<polygon fill="#8dd3c7" stroke="black" points="3564.26,-122 3561.26,-126 3540.26,-126 3537.26,-122 3477.74,-122 3477.74,-86 3564.26,-86 3564.26,-122"/>
<text text-anchor="middle" x="3521" y="-99.8" font-family="Times,serif" font-size="14.00">CoreModule</text>
</g>
<!-- CoreModule&#45;&gt;AppModule -->
<g id="edge9" class="edge">
<title>CoreModule&#45;&gt;AppModule</title>
<path fill="none" stroke="black" d="M3521,-122.04C3521,-138.73 3521,-161 3521,-161 3521,-161 2685.89,-161 2685.89,-161"/>
<polygon fill="black" stroke="black" points="2685.89,-157.5 2675.89,-161 2685.89,-164.5 2685.89,-157.5"/>
</g>
<!-- DashboardModule -->
<g id="node11" class="node">
<title>DashboardModule</title>
<polygon fill="#8dd3c7" stroke="black" points="3460.19,-122 3457.19,-126 3436.19,-126 3433.19,-122 3339.81,-122 3339.81,-86 3460.19,-86 3460.19,-122"/>
<text text-anchor="middle" x="3400" y="-99.8" font-family="Times,serif" font-size="14.00">DashboardModule</text>
</g>
<!-- DashboardModule&#45;&gt;AppModule -->
<g id="edge10" class="edge">
<title>DashboardModule&#45;&gt;AppModule</title>
<path fill="none" stroke="black" d="M3400,-122.01C3400,-138.05 3400,-159 3400,-159 3400,-159 2685.73,-159 2685.73,-159"/>
<polygon fill="black" stroke="black" points="2685.73,-155.5 2675.73,-159 2685.73,-162.5 2685.73,-155.5"/>
</g>
<!-- DeDuplicationModule -->
<g id="node12" class="node">
<title>DeDuplicationModule</title>
<polygon fill="#8dd3c7" stroke="black" points="3321.97,-122 3318.97,-126 3297.97,-126 3294.97,-122 3180.03,-122 3180.03,-86 3321.97,-86 3321.97,-122"/>
<text text-anchor="middle" x="3251" y="-99.8" font-family="Times,serif" font-size="14.00">DeDuplicationModule</text>
</g>
<!-- DeDuplicationModule&#45;&gt;AppModule -->
<g id="edge11" class="edge">
<title>DeDuplicationModule&#45;&gt;AppModule</title>
<path fill="none" stroke="black" d="M3251,-122.24C3251,-137.57 3251,-157 3251,-157 3251,-157 2685.92,-157 2685.92,-157"/>
<polygon fill="black" stroke="black" points="2685.92,-153.5 2675.92,-157 2685.92,-160.5 2685.92,-153.5"/>
</g>
<!-- DemoDataModule -->
<g id="node13" class="node">
<title>DemoDataModule</title>
<polygon fill="#8dd3c7" stroke="black" points="3162.19,-122 3159.19,-126 3138.19,-126 3135.19,-122 3041.81,-122 3041.81,-86 3162.19,-86 3162.19,-122"/>
<text text-anchor="middle" x="3102" y="-99.8" font-family="Times,serif" font-size="14.00">DemoDataModule</text>
</g>
<!-- DemoDataModule&#45;&gt;AppModule -->
<g id="edge12" class="edge">
<title>DemoDataModule&#45;&gt;AppModule</title>
<path fill="none" stroke="black" d="M3102,-122.12C3102,-136.78 3102,-155 3102,-155 3102,-155 2685.94,-155 2685.94,-155"/>
<polygon fill="black" stroke="black" points="2685.94,-151.5 2675.94,-155 2685.94,-158.5 2685.94,-151.5"/>
</g>
<!-- EmailClientServiceModule -->
<g id="node14" class="node">
<title>EmailClientServiceModule</title>
<polygon fill="#8dd3c7" stroke="black" points="3023.69,-122 3020.69,-126 2999.69,-126 2996.69,-122 2854.31,-122 2854.31,-86 3023.69,-86 3023.69,-122"/>
<text text-anchor="middle" x="2939" y="-99.8" font-family="Times,serif" font-size="14.00">EmailClientServiceModule</text>
</g>
<!-- EmailClientServiceModule&#45;&gt;AppModule -->
<g id="edge13" class="edge">
<title>EmailClientServiceModule&#45;&gt;AppModule</title>
<path fill="none" stroke="black" d="M2939,-122.25C2939,-136.18 2939,-153 2939,-153 2939,-153 2685.77,-153 2685.77,-153"/>
<polygon fill="black" stroke="black" points="2685.77,-149.5 2675.77,-153 2685.77,-156.5 2685.77,-149.5"/>
</g>
<!-- EntityCountDashboardWidgetModule -->
<g id="node15" class="node">
<title>EntityCountDashboardWidgetModule</title>
<polygon fill="#8dd3c7" stroke="black" points="2835.85,-122 2832.85,-126 2811.85,-126 2808.85,-122 2606.15,-122 2606.15,-86 2835.85,-86 2835.85,-122"/>
<text text-anchor="middle" x="2721" y="-99.8" font-family="Times,serif" font-size="14.00">EntityCountDashboardWidgetModule</text>
</g>
<!-- EntityCountDashboardWidgetModule&#45;&gt;AppModule -->
<g id="edge14" class="edge">
<title>EntityCountDashboardWidgetModule&#45;&gt;AppModule</title>
<path fill="none" stroke="black" d="M2640.95,-122.11C2640.95,-122.11 2640.95,-140.99 2640.95,-140.99"/>
<polygon fill="black" stroke="black" points="2637.45,-140.99 2640.95,-150.99 2644.45,-140.99 2637.45,-140.99"/>
</g>
<!-- FileModule -->
<g id="node16" class="node">
<title>FileModule</title>
<polygon fill="#8dd3c7" stroke="black" points="2587.83,-122 2584.83,-126 2563.83,-126 2560.83,-122 2506.17,-122 2506.17,-86 2587.83,-86 2587.83,-122"/>
<text text-anchor="middle" x="2547" y="-99.8" font-family="Times,serif" font-size="14.00">FileModule</text>
</g>
<!-- FileModule&#45;&gt;AppModule -->
<g id="edge15" class="edge">
<title>FileModule&#45;&gt;AppModule</title>
<path fill="none" stroke="black" d="M2583.6,-122.25C2583.6,-136.18 2583.6,-153 2583.6,-153 2583.6,-153 2584.43,-153 2584.43,-153"/>
<polygon fill="black" stroke="black" points="2581.92,-156.5 2591.92,-153 2581.92,-149.5 2581.92,-156.5"/>
</g>
<!-- ImportModule -->
<g id="node17" class="node">
<title>ImportModule</title>
<polygon fill="#8dd3c7" stroke="black" points="2488.65,-122 2485.65,-126 2464.65,-126 2461.65,-122 2391.35,-122 2391.35,-86 2488.65,-86 2488.65,-122"/>
<text text-anchor="middle" x="2440" y="-99.8" font-family="Times,serif" font-size="14.00">ImportModule</text>
</g>
<!-- ImportModule&#45;&gt;AppModule -->
<g id="edge16" class="edge">
<title>ImportModule&#45;&gt;AppModule</title>
<path fill="none" stroke="black" d="M2440,-122.12C2440,-136.78 2440,-155 2440,-155 2440,-155 2581.9,-155 2581.9,-155"/>
<polygon fill="black" stroke="black" points="2581.9,-158.5 2591.9,-155 2581.9,-151.5 2581.9,-158.5"/>
</g>
<!-- LanguageModule -->
<g id="node18" class="node">
<title>LanguageModule</title>
<polygon fill="#8dd3c7" stroke="black" points="2373.25,-122 2370.25,-126 2349.25,-126 2346.25,-122 2258.75,-122 2258.75,-86 2373.25,-86 2373.25,-122"/>
<text text-anchor="middle" x="2316" y="-99.8" font-family="Times,serif" font-size="14.00">LanguageModule</text>
</g>
<!-- LanguageModule&#45;&gt;AppModule -->
<g id="edge17" class="edge">
<title>LanguageModule&#45;&gt;AppModule</title>
<path fill="none" stroke="black" d="M2316,-122.24C2316,-137.57 2316,-157 2316,-157 2316,-157 2582.1,-157 2582.1,-157"/>
<polygon fill="black" stroke="black" points="2582.1,-160.5 2592.1,-157 2582.1,-153.5 2582.1,-160.5"/>
</g>
<!-- LatestChangesModule -->
<g id="node19" class="node">
<title>LatestChangesModule</title>
<polygon fill="#8dd3c7" stroke="black" points="2240.97,-122 2237.97,-126 2216.97,-126 2213.97,-122 2099.03,-122 2099.03,-86 2240.97,-86 2240.97,-122"/>
<text text-anchor="middle" x="2170" y="-99.8" font-family="Times,serif" font-size="14.00">LatestChangesModule</text>
</g>
<!-- LatestChangesModule&#45;&gt;AppModule -->
<g id="edge18" class="edge">
<title>LatestChangesModule&#45;&gt;AppModule</title>
<path fill="none" stroke="black" d="M2170,-122.01C2170,-138.05 2170,-159 2170,-159 2170,-159 2582,-159 2582,-159"/>
<polygon fill="black" stroke="black" points="2582,-162.5 2592,-159 2582,-155.5 2582,-162.5"/>
</g>
<!-- LocationModule -->
<g id="node20" class="node">
<title>LocationModule</title>
<polygon fill="#8dd3c7" stroke="black" points="2080.81,-122 2077.81,-126 2056.81,-126 2053.81,-122 1971.19,-122 1971.19,-86 2080.81,-86 2080.81,-122"/>
<text text-anchor="middle" x="2026" y="-99.8" font-family="Times,serif" font-size="14.00">LocationModule</text>
</g>
<!-- LocationModule&#45;&gt;AppModule -->
<g id="edge19" class="edge">
<title>LocationModule&#45;&gt;AppModule</title>
<path fill="none" stroke="black" d="M2026,-122.04C2026,-138.73 2026,-161 2026,-161 2026,-161 2582.21,-161 2582.21,-161"/>
<polygon fill="black" stroke="black" points="2582.21,-164.5 2592.21,-161 2582.21,-157.5 2582.21,-164.5"/>
</g>
<!-- MarkdownPageModule -->
<g id="node21" class="node">
<title>MarkdownPageModule</title>
<polygon fill="#8dd3c7" stroke="black" points="1953.19,-122 1950.19,-126 1929.19,-126 1926.19,-122 1804.81,-122 1804.81,-86 1953.19,-86 1953.19,-122"/>
<text text-anchor="middle" x="1879" y="-99.8" font-family="Times,serif" font-size="14.00">MarkdownPageModule</text>
</g>
<!-- MarkdownPageModule&#45;&gt;AppModule -->
<g id="edge20" class="edge">
<title>MarkdownPageModule&#45;&gt;AppModule</title>
<path fill="none" stroke="black" d="M1879,-122.02C1879,-139.37 1879,-163 1879,-163 1879,-163 2582.33,-163 2582.33,-163"/>
<polygon fill="black" stroke="black" points="2582.33,-166.5 2592.33,-163 2582.33,-159.5 2582.33,-166.5"/>
</g>
<!-- MatchingEntitiesModule -->
<g id="node22" class="node">
<title>MatchingEntitiesModule</title>
<polygon fill="#8dd3c7" stroke="black" points="1786.98,-122 1783.98,-126 1762.98,-126 1759.98,-122 1631.02,-122 1631.02,-86 1786.98,-86 1786.98,-122"/>
<text text-anchor="middle" x="1709" y="-99.8" font-family="Times,serif" font-size="14.00">MatchingEntitiesModule</text>
</g>
<!-- MatchingEntitiesModule&#45;&gt;AppModule -->
<g id="edge21" class="edge">
<title>MatchingEntitiesModule&#45;&gt;AppModule</title>
<path fill="none" stroke="black" d="M1709,-122.3C1709,-140.27 1709,-165 1709,-165 1709,-165 2582.15,-165 2582.15,-165"/>
<polygon fill="black" stroke="black" points="2582.15,-168.5 2592.15,-165 2582.15,-161.5 2582.15,-168.5"/>
</g>
<!-- NotesModule -->
<g id="node23" class="node">
<title>NotesModule</title>
<polygon fill="#8dd3c7" stroke="black" points="1613.21,-122 1610.21,-126 1589.21,-126 1586.21,-122 1520.79,-122 1520.79,-86 1613.21,-86 1613.21,-122"/>
<text text-anchor="middle" x="1567" y="-99.8" font-family="Times,serif" font-size="14.00">NotesModule</text>
</g>
<!-- NotesModule&#45;&gt;AppModule -->
<g id="edge22" class="edge">
<title>NotesModule&#45;&gt;AppModule</title>
<path fill="none" stroke="black" d="M1567,-122.22C1567,-140.83 1567,-167 1567,-167 1567,-167 2582.17,-167 2582.17,-167"/>
<polygon fill="black" stroke="black" points="2582.17,-170.5 2592.17,-167 2582.17,-163.5 2582.17,-170.5"/>
</g>
<!-- PermissionsModule -->
<g id="node24" class="node">
<title>PermissionsModule</title>
<polygon fill="#8dd3c7" stroke="black" points="1502.71,-122 1499.71,-126 1478.71,-126 1475.71,-122 1375.29,-122 1375.29,-86 1502.71,-86 1502.71,-122"/>
<text text-anchor="middle" x="1439" y="-99.8" font-family="Times,serif" font-size="14.00">PermissionsModule</text>
</g>
<!-- PermissionsModule&#45;&gt;AppModule -->
<g id="edge23" class="edge">
<title>PermissionsModule&#45;&gt;AppModule</title>
<path fill="none" stroke="black" d="M1439,-122.11C1439,-141.34 1439,-169 1439,-169 1439,-169 2582.17,-169 2582.17,-169"/>
<polygon fill="black" stroke="black" points="2582.17,-172.5 2592.17,-169 2582.17,-165.5 2582.17,-172.5"/>
</g>
<!-- ProgressDashboardWidgetModule -->
<g id="node25" class="node">
<title>ProgressDashboardWidgetModule</title>
<polygon fill="#8dd3c7" stroke="black" points="1357.61,-122 1354.61,-126 1333.61,-126 1330.61,-122 1148.39,-122 1148.39,-86 1357.61,-86 1357.61,-122"/>
<text text-anchor="middle" x="1253" y="-99.8" font-family="Times,serif" font-size="14.00">ProgressDashboardWidgetModule</text>
</g>
<!-- ProgressDashboardWidgetModule&#45;&gt;AppModule -->
<g id="edge24" class="edge">
<title>ProgressDashboardWidgetModule&#45;&gt;AppModule</title>
<path fill="none" stroke="black" d="M1253,-122.03C1253,-141.58 1253,-170 1253,-170 1253,-170 2582.29,-170 2582.29,-170"/>
<polygon fill="black" stroke="black" points="2582.29,-173.5 2592.29,-170 2582.29,-166.5 2582.29,-173.5"/>
</g>
<!-- PublicFormModule -->
<g id="node26" class="node">
<title>PublicFormModule</title>
<polygon fill="#8dd3c7" stroke="black" points="1129.66,-122 1126.66,-126 1105.66,-126 1102.66,-122 1004.34,-122 1004.34,-86 1129.66,-86 1129.66,-122"/>
<text text-anchor="middle" x="1067" y="-99.8" font-family="Times,serif" font-size="14.00">PublicFormModule</text>
</g>
<!-- PublicFormModule&#45;&gt;AppModule -->
<g id="edge25" class="edge">
<title>PublicFormModule&#45;&gt;AppModule</title>
<path fill="none" stroke="black" d="M1067,-122.22C1067,-142.37 1067,-172 1067,-172 1067,-172 2582.09,-172 2582.09,-172"/>
<polygon fill="black" stroke="black" points="2582.09,-175.5 2592.09,-172 2582.09,-168.5 2582.09,-175.5"/>
</g>
<!-- ReportingModule -->
<g id="node27" class="node">
<title>ReportingModule</title>
<polygon fill="#8dd3c7" stroke="black" points="985.54,-122 982.54,-126 961.54,-126 958.54,-122 870.46,-122 870.46,-86 985.54,-86 985.54,-122"/>
<text text-anchor="middle" x="928" y="-99.8" font-family="Times,serif" font-size="14.00">ReportingModule</text>
</g>
<!-- ReportingModule&#45;&gt;AppModule -->
<g id="edge26" class="edge">
<title>ReportingModule&#45;&gt;AppModule</title>
<path fill="none" stroke="black" d="M928,-122.03C928,-142.77 928,-174 928,-174 928,-174 2582.25,-174 2582.25,-174"/>
<polygon fill="black" stroke="black" points="2582.25,-177.5 2592.25,-174 2582.25,-170.5 2582.25,-177.5"/>
</g>
<!-- SessionModule -->
<g id="node28" class="node">
<title>SessionModule</title>
<polygon fill="#8dd3c7" stroke="black" points="852.33,-122 849.33,-126 828.33,-126 825.33,-122 749.67,-122 749.67,-86 852.33,-86 852.33,-122"/>
<text text-anchor="middle" x="801" y="-99.8" font-family="Times,serif" font-size="14.00">SessionModule</text>
</g>
<!-- SessionModule&#45;&gt;AppModule -->
<g id="edge27" class="edge">
<title>SessionModule&#45;&gt;AppModule</title>
<path fill="none" stroke="black" d="M801,-122.17C801,-143.5 801,-176 801,-176 801,-176 2582.27,-176 2582.27,-176"/>
<polygon fill="black" stroke="black" points="2582.27,-179.5 2592.27,-176 2582.27,-172.5 2582.27,-179.5"/>
</g>
<!-- ShortcutDashboardWidgetModule -->
<g id="node29" class="node">
<title>ShortcutDashboardWidgetModule</title>
<polygon fill="#8dd3c7" stroke="black" points="731.34,-122 728.34,-126 707.34,-126 704.34,-122 522.66,-122 522.66,-86 731.34,-86 731.34,-122"/>
<text text-anchor="middle" x="627" y="-99.8" font-family="Times,serif" font-size="14.00">ShortcutDashboardWidgetModule</text>
</g>
<!-- ShortcutDashboardWidgetModule&#45;&gt;AppModule -->
<g id="edge28" class="edge">
<title>ShortcutDashboardWidgetModule&#45;&gt;AppModule</title>
<path fill="none" stroke="black" d="M627,-122.29C627,-144.21 627,-178 627,-178 627,-178 2582.08,-178 2582.08,-178"/>
<polygon fill="black" stroke="black" points="2582.08,-181.5 2592.08,-178 2582.08,-174.5 2582.08,-181.5"/>
</g>
<!-- SkillModule -->
<g id="node30" class="node">
<title>SkillModule</title>
<polygon fill="#8dd3c7" stroke="black" points="505,-122 502,-126 481,-126 478,-122 419,-122 419,-86 505,-86 505,-122"/>
<text text-anchor="middle" x="462" y="-99.8" font-family="Times,serif" font-size="14.00">SkillModule</text>
</g>
<!-- SkillModule&#45;&gt;AppModule -->
<g id="edge29" class="edge">
<title>SkillModule&#45;&gt;AppModule</title>
<path fill="none" stroke="black" d="M462,-122.01C462,-144.49 462,-180 462,-180 462,-180 2582.07,-180 2582.07,-180"/>
<polygon fill="black" stroke="black" points="2582.07,-183.5 2592.07,-180 2582.07,-176.5 2582.07,-183.5"/>
</g>
<!-- TemplateExportModule -->
<g id="node31" class="node">
<title>TemplateExportModule</title>
<polygon fill="#8dd3c7" stroke="black" points="401.02,-122 398.02,-126 377.02,-126 374.02,-122 250.98,-122 250.98,-86 401.02,-86 401.02,-122"/>
<text text-anchor="middle" x="326" y="-99.8" font-family="Times,serif" font-size="14.00">TemplateExportModule</text>
</g>
<!-- TemplateExportModule&#45;&gt;AppModule -->
<g id="edge30" class="edge">
<title>TemplateExportModule&#45;&gt;AppModule</title>
<path fill="none" stroke="black" d="M326,-122.09C326,-145.13 326,-182 326,-182 326,-182 2581.97,-182 2581.97,-182"/>
<polygon fill="black" stroke="black" points="2581.97,-185.5 2591.97,-182 2581.97,-178.5 2581.97,-185.5"/>
</g>
<!-- TodosModule -->
<g id="node32" class="node">
<title>TodosModule</title>
<polygon fill="#8dd3c7" stroke="black" points="232.05,-122 229.05,-126 208.05,-126 205.05,-122 137.95,-122 137.95,-86 232.05,-86 232.05,-122"/>
<text text-anchor="middle" x="185" y="-99.8" font-family="Times,serif" font-size="14.00">TodosModule</text>
</g>
<!-- TodosModule&#45;&gt;AppModule -->
<g id="edge31" class="edge">
<title>TodosModule&#45;&gt;AppModule</title>
<path fill="none" stroke="black" d="M185,-122.15C185,-145.76 185,-184 185,-184 185,-184 2582.26,-184 2582.26,-184"/>
<polygon fill="black" stroke="black" points="2582.26,-187.5 2592.26,-184 2582.26,-180.5 2582.26,-187.5"/>
</g>
<!-- UiComponent -->
<g id="node33" class="node">
<title>UiComponent</title>
<polygon fill="#8dd3c7" stroke="black" points="119.83,-122 116.83,-126 95.83,-126 92.83,-122 24.17,-122 24.17,-86 119.83,-86 119.83,-122"/>
<text text-anchor="middle" x="72" y="-99.8" font-family="Times,serif" font-size="14.00">UiComponent</text>
</g>
<!-- UiComponent&#45;&gt;AppModule -->
<g id="edge32" class="edge">
<title>UiComponent&#45;&gt;AppModule</title>
<path fill="none" stroke="black" d="M72,-122.2C72,-146.36 72,-186 72,-186 72,-186 2582.2,-186 2582.2,-186"/>
<polygon fill="black" stroke="black" points="2582.2,-189.5 2592.2,-186 2582.2,-182.5 2582.2,-189.5"/>
</g>
<!-- AnalyticsService -->
<g id="node35" class="node">
<title>AnalyticsService</title>
<ellipse fill="#fdb462" stroke="black" cx="5483" cy="-104" rx="77" ry="18"/>
<text text-anchor="middle" x="5483" y="-99.8" font-family="Times,serif" font-size="14.00">AnalyticsService</text>
</g>
<!-- AnalyticsService&#45;&gt;AppModule -->
<g id="edge34" class="edge">
<title>AnalyticsService&#45;&gt;AppModule</title>
<path fill="none" stroke="black" d="M5483,-122.32C5483,-145.66 5483,-183 5483,-183 5483,-183 2685.93,-183 2685.93,-183"/>
<polygon fill="black" stroke="black" points="2685.93,-179.5 2675.93,-183 2685.93,-186.5 2685.93,-179.5"/>
</g>
<!-- DateAdapterWithFormatting -->
<g id="node36" class="node">
<title>DateAdapterWithFormatting</title>
<ellipse fill="#fdb462" stroke="black" cx="5265" cy="-104" rx="122.69" ry="18"/>
<text text-anchor="middle" x="5265" y="-99.8" font-family="Times,serif" font-size="14.00">DateAdapterWithFormatting</text>
</g>
<!-- DateAdapterWithFormatting&#45;&gt;AppModule -->
<g id="edge35" class="edge">
<title>DateAdapterWithFormatting&#45;&gt;AppModule</title>
<path fill="none" stroke="black" d="M5265,-122.25C5265,-145.02 5265,-181 5265,-181 5265,-181 2685.86,-181 2685.86,-181"/>
<polygon fill="black" stroke="black" points="2685.86,-177.5 2675.86,-181 2685.86,-184.5 2685.86,-177.5"/>
</g>
<!-- KeycloakAdminService -->
<g id="node37" class="node">
<title>KeycloakAdminService</title>
<ellipse fill="#fdb462" stroke="black" cx="5021" cy="-104" rx="103.63" ry="18"/>
<text text-anchor="middle" x="5021" y="-99.8" font-family="Times,serif" font-size="14.00">KeycloakAdminService</text>
</g>
<!-- KeycloakAdminService&#45;&gt;AppModule -->
<g id="edge36" class="edge">
<title>KeycloakAdminService&#45;&gt;AppModule</title>
<path fill="none" stroke="black" d="M5021,-122.16C5021,-144.35 5021,-179 5021,-179 5021,-179 2685.68,-179 2685.68,-179"/>
<polygon fill="black" stroke="black" points="2685.68,-175.5 2675.68,-179 2685.68,-182.5 2685.68,-175.5"/>
</g>
<!-- NotificationService -->
<g id="node38" class="node">
<title>NotificationService</title>
<ellipse fill="#fdb462" stroke="black" cx="4813" cy="-104" rx="86.81" ry="18"/>
<text text-anchor="middle" x="4813" y="-99.8" font-family="Times,serif" font-size="14.00">NotificationService</text>
</g>
<!-- NotificationService&#45;&gt;AppModule -->
<g id="edge37" class="edge">
<title>NotificationService&#45;&gt;AppModule</title>
<path fill="none" stroke="black" d="M4813,-122.04C4813,-143.66 4813,-177 4813,-177 4813,-177 2686.06,-177 2686.06,-177"/>
<polygon fill="black" stroke="black" points="2686.06,-173.5 2676.06,-177 2686.06,-180.5 2686.06,-173.5"/>
</g>
</g>
</svg>
