<?xml version="1.0" encoding="UTF-8" standalone="no"?>
<!DOCTYPE svg PUBLIC "-//W3C//DTD SVG 1.1//EN"
 "http://www.w3.org/Graphics/SVG/1.1/DTD/svg11.dtd">
<!-- Generated by graphviz version 2.47.0 (20210316.0004)
 -->
<!-- Title: dependencies Pages: 1 -->
<svg width="4072pt" height="284pt"
 viewBox="0.00 0.00 4072.00 284.00" xmlns="http://www.w3.org/2000/svg" xmlns:xlink="http://www.w3.org/1999/xlink">
<g id="graph0" class="graph" transform="scale(1 1) rotate(0) translate(4 280)">
<title>dependencies</title>
<polygon fill="white" stroke="transparent" points="-4,4 -4,-280 4068,-280 4068,4 -4,4"/>
<text text-anchor="start" x="2011.01" y="-42.4" font-family="Times-12" font-weight="bold" font-size="14.00">Legend</text>
<polygon fill="#ffffb3" stroke="transparent" points="1798,-10 1798,-30 1818,-30 1818,-10 1798,-10"/>
<text text-anchor="start" x="1821.63" y="-15.4" font-family="Times-12" font-size="14.00"> &#160;Declarations</text>
<polygon fill="#8dd3c7" stroke="transparent" points="1911,-10 1911,-30 1931,-30 1931,-10 1911,-10"/>
<text text-anchor="start" x="1934.73" y="-15.4" font-family="Times-12" font-size="14.00"> &#160;Module</text>
<polygon fill="#80b1d3" stroke="transparent" points="1997,-10 1997,-30 2017,-30 2017,-10 1997,-10"/>
<text text-anchor="start" x="2020.78" y="-15.4" font-family="Times-12" font-size="14.00"> &#160;Bootstrap</text>
<polygon fill="#fdb462" stroke="transparent" points="2094,-10 2094,-30 2114,-30 2114,-10 2094,-10"/>
<text text-anchor="start" x="2117.67" y="-15.4" font-family="Times-12" font-size="14.00"> &#160;Providers</text>
<polygon fill="#fb8072" stroke="transparent" points="2190,-10 2190,-30 2210,-30 2210,-10 2190,-10"/>
<text text-anchor="start" x="2213.73" y="-15.4" font-family="Times-12" font-size="14.00"> &#160;Exports</text>
<g id="clust1" class="cluster">
<title>cluster_AppModule</title>
<polygon fill="none" stroke="black" stroke-dasharray="1,5" points="8,-70 8,-268 4056,-268 4056,-70 8,-70"/>
</g>
<g id="clust2" class="cluster">
<title>cluster_AppModule_declarations</title>
<polygon fill="none" stroke="black" points="3926,-78 3926,-130 4048,-130 4048,-78 3926,-78"/>
</g>
<g id="clust7" class="cluster">
<title>cluster_AppModule_providers</title>
<polygon fill="none" stroke="black" points="3748,-78 3748,-130 3918,-130 3918,-78 3748,-78"/>
</g>
<g id="clust4" class="cluster">
<title>cluster_AppModule_imports</title>
<polygon fill="none" stroke="black" points="16,-78 16,-130 3740,-130 3740,-78 16,-78"/>
</g>
<g id="clust6" class="cluster">
<title>cluster_AppModule_bootstrap</title>
<polygon fill="none" stroke="black" points="1960,-208 1960,-260 2084,-260 2084,-208 1960,-208"/>
</g>
<!-- AppComponent -->
<g id="node1" class="node">
<title>AppComponent</title>
<polygon fill="#ffffb3" stroke="black" points="4039.94,-122 3934.06,-122 3934.06,-86 4039.94,-86 4039.94,-122"/>
<text text-anchor="middle" x="3987" y="-99.8" font-family="Times,serif" font-size="14.00">AppComponent</text>
</g>
<!-- AppModule -->
<g id="node2" class="node">
<title>AppModule</title>
<polygon fill="#8dd3c7" stroke="black" points="2063.66,-187 2060.66,-191 2039.66,-191 2036.66,-187 1980.34,-187 1980.34,-151 2063.66,-151 2063.66,-187"/>
<text text-anchor="middle" x="2022" y="-164.8" font-family="Times,serif" font-size="14.00">AppModule</text>
</g>
<!-- AppComponent&#45;&gt;AppModule -->
<g id="edge1" class="edge">
<title>AppComponent&#45;&gt;AppModule</title>
<path fill="none" stroke="black" d="M3987,-122.38C3987,-146.28 3987,-185 3987,-185 3987,-185 2073.95,-185 2073.95,-185"/>
<polygon fill="black" stroke="black" points="2073.95,-181.5 2063.95,-185 2073.95,-188.5 2073.95,-181.5"/>
</g>
<!-- AppComponent  -->
<g id="node28" class="node">
<title>AppComponent </title>
<polygon fill="#80b1d3" stroke="black" points="2076.44,-252 1967.56,-252 1967.56,-216 2076.44,-216 2076.44,-252"/>
<text text-anchor="middle" x="2022" y="-229.8" font-family="Times,serif" font-size="14.00">AppComponent </text>
</g>
<!-- AppModule&#45;&gt;AppComponent  -->
<g id="edge27" class="edge">
<title>AppModule&#45;&gt;AppComponent </title>
<path fill="none" stroke="black" stroke-dasharray="1,5" d="M2022,-187.11C2022,-187.11 2022,-205.99 2022,-205.99"/>
<polygon fill="black" stroke="black" points="2018.5,-205.99 2022,-215.99 2025.5,-205.99 2018.5,-205.99"/>
</g>
<!-- AdminModule -->
<g id="node3" class="node">
<title>AdminModule</title>
<polygon fill="#8dd3c7" stroke="black" points="3732.44,-122 3729.44,-126 3708.44,-126 3705.44,-122 3633.56,-122 3633.56,-86 3732.44,-86 3732.44,-122"/>
<text text-anchor="middle" x="3683" y="-99.8" font-family="Times,serif" font-size="14.00">AdminModule</text>
</g>
<!-- AdminModule&#45;&gt;AppModule -->
<g id="edge2" class="edge">
<title>AdminModule&#45;&gt;AppModule</title>
<path fill="none" stroke="black" d="M3683,-122.01C3683,-144.49 3683,-180 3683,-180 3683,-180 2073.89,-180 2073.89,-180"/>
<polygon fill="black" stroke="black" points="2073.89,-176.5 2063.89,-180 2073.89,-183.5 2073.89,-176.5"/>
</g>
<!-- AttendanceModule -->
<g id="node4" class="node">
<title>AttendanceModule</title>
<polygon fill="#8dd3c7" stroke="black" points="3615.8,-122 3612.8,-126 3591.8,-126 3588.8,-122 3492.2,-122 3492.2,-86 3615.8,-86 3615.8,-122"/>
<text text-anchor="middle" x="3554" y="-99.8" font-family="Times,serif" font-size="14.00">AttendanceModule</text>
</g>
<!-- AttendanceModule&#45;&gt;AppModule -->
<g id="edge3" class="edge">
<title>AttendanceModule&#45;&gt;AppModule</title>
<path fill="none" stroke="black" d="M3554,-122.04C3554,-143.66 3554,-177 3554,-177 3554,-177 2073.77,-177 2073.77,-177"/>
<polygon fill="black" stroke="black" points="2073.77,-173.5 2063.77,-177 2073.77,-180.5 2073.77,-173.5"/>
</g>
<!-- BirthdayDashboardWidgetModule -->
<g id="node5" class="node">
<title>BirthdayDashboardWidgetModule</title>
<polygon fill="#8dd3c7" stroke="black" points="3474.39,-122 3471.39,-126 3450.39,-126 3447.39,-122 3263.61,-122 3263.61,-86 3474.39,-86 3474.39,-122"/>
<text text-anchor="middle" x="3369" y="-99.8" font-family="Times,serif" font-size="14.00">BirthdayDashboardWidgetModule</text>
</g>
<!-- BirthdayDashboardWidgetModule&#45;&gt;AppModule -->
<g id="edge4" class="edge">
<title>BirthdayDashboardWidgetModule&#45;&gt;AppModule</title>
<path fill="none" stroke="black" d="M3369,-122.28C3369,-143.32 3369,-175 3369,-175 3369,-175 2073.79,-175 2073.79,-175"/>
<polygon fill="black" stroke="black" points="2073.79,-171.5 2063.79,-175 2073.79,-178.5 2073.79,-171.5"/>
</g>
<!-- ChildrenModule -->
<g id="node6" class="node">
<title>ChildrenModule</title>
<polygon fill="#8dd3c7" stroke="black" points="3246.04,-122 3243.04,-126 3222.04,-126 3219.04,-122 3137.96,-122 3137.96,-86 3246.04,-86 3246.04,-122"/>
<text text-anchor="middle" x="3192" y="-99.8" font-family="Times,serif" font-size="14.00">ChildrenModule</text>
</g>
<!-- ChildrenModule&#45;&gt;AppModule -->
<g id="edge5" class="edge">
<title>ChildrenModule&#45;&gt;AppModule</title>
<path fill="none" stroke="black" d="M3192,-122.22C3192,-142.37 3192,-172 3192,-172 3192,-172 2073.99,-172 2073.99,-172"/>
<polygon fill="black" stroke="black" points="2073.99,-168.5 2063.99,-172 2073.99,-175.5 2073.99,-168.5"/>
</g>
<!-- ConfigurableEnumModule -->
<g id="node7" class="node">
<title>ConfigurableEnumModule</title>
<polygon fill="#8dd3c7" stroke="black" points="3119.36,-122 3116.36,-126 3095.36,-126 3092.36,-122 2952.64,-122 2952.64,-86 3119.36,-86 3119.36,-122"/>
<text text-anchor="middle" x="3036" y="-99.8" font-family="Times,serif" font-size="14.00">ConfigurableEnumModule</text>
</g>
<!-- ConfigurableEnumModule&#45;&gt;AppModule -->
<g id="edge6" class="edge">
<title>ConfigurableEnumModule&#45;&gt;AppModule</title>
<path fill="none" stroke="black" d="M3036,-122.11C3036,-141.34 3036,-169 3036,-169 3036,-169 2073.96,-169 2073.96,-169"/>
<polygon fill="black" stroke="black" points="2073.96,-165.5 2063.96,-169 2073.96,-172.5 2073.96,-165.5"/>
</g>
<!-- CoreModule -->
<g id="node8" class="node">
<title>CoreModule</title>
<polygon fill="#8dd3c7" stroke="black" points="2934.26,-122 2931.26,-126 2910.26,-126 2907.26,-122 2847.74,-122 2847.74,-86 2934.26,-86 2934.26,-122"/>
<text text-anchor="middle" x="2891" y="-99.8" font-family="Times,serif" font-size="14.00">CoreModule</text>
</g>
<!-- CoreModule&#45;&gt;AppModule -->
<g id="edge7" class="edge">
<title>CoreModule&#45;&gt;AppModule</title>
<path fill="none" stroke="black" d="M2891,-122.22C2891,-140.83 2891,-167 2891,-167 2891,-167 2073.91,-167 2073.91,-167"/>
<polygon fill="black" stroke="black" points="2073.91,-163.5 2063.91,-167 2073.91,-170.5 2073.91,-163.5"/>
</g>
<!-- DatabaseModule -->
<g id="node9" class="node">
<title>DatabaseModule</title>
<polygon fill="#8dd3c7" stroke="black" points="2829.35,-122 2826.35,-126 2805.35,-126 2802.35,-122 2718.65,-122 2718.65,-86 2829.35,-86 2829.35,-122"/>
<text text-anchor="middle" x="2774" y="-99.8" font-family="Times,serif" font-size="14.00">DatabaseModule</text>
</g>
<!-- DatabaseModule&#45;&gt;AppModule -->
<g id="edge8" class="edge">
<title>DatabaseModule&#45;&gt;AppModule</title>
<path fill="none" stroke="black" d="M2774,-122C2774,-139.68 2774,-164 2774,-164 2774,-164 2073.77,-164 2073.77,-164"/>
<polygon fill="black" stroke="black" points="2073.77,-160.5 2063.77,-164 2073.77,-167.5 2073.77,-160.5"/>
</g>
<!-- EntityCountDashboardWidgetModule -->
<g id="node10" class="node">
<title>EntityCountDashboardWidgetModule</title>
<polygon fill="#8dd3c7" stroke="black" points="2700.85,-122 2697.85,-126 2676.85,-126 2673.85,-122 2471.15,-122 2471.15,-86 2700.85,-86 2700.85,-122"/>
<text text-anchor="middle" x="2586" y="-99.8" font-family="Times,serif" font-size="14.00">EntityCountDashboardWidgetModule</text>
</g>
<!-- EntityCountDashboardWidgetModule&#45;&gt;AppModule -->
<g id="edge9" class="edge">
<title>EntityCountDashboardWidgetModule&#45;&gt;AppModule</title>
<path fill="none" stroke="black" d="M2586,-122.03C2586,-139.06 2586,-162 2586,-162 2586,-162 2073.93,-162 2073.93,-162"/>
<polygon fill="black" stroke="black" points="2073.93,-158.5 2063.93,-162 2073.93,-165.5 2073.93,-158.5"/>
</g>
<!-- FileModule -->
<g id="node11" class="node">
<title>FileModule</title>
<polygon fill="#8dd3c7" stroke="black" points="2452.83,-122 2449.83,-126 2428.83,-126 2425.83,-122 2371.17,-122 2371.17,-86 2452.83,-86 2452.83,-122"/>
<text text-anchor="middle" x="2412" y="-99.8" font-family="Times,serif" font-size="14.00">FileModule</text>
</g>
<!-- FileModule&#45;&gt;AppModule -->
<g id="edge10" class="edge">
<title>FileModule&#45;&gt;AppModule</title>
<path fill="none" stroke="black" d="M2412,-122.01C2412,-138.05 2412,-159 2412,-159 2412,-159 2073.74,-159 2073.74,-159"/>
<polygon fill="black" stroke="black" points="2073.74,-155.5 2063.74,-159 2073.74,-162.5 2073.74,-155.5"/>
</g>
<!-- HistoricalDataModule -->
<g id="node12" class="node">
<title>HistoricalDataModule</title>
<polygon fill="#8dd3c7" stroke="black" points="2353.68,-122 2350.68,-126 2329.68,-126 2326.68,-122 2212.32,-122 2212.32,-86 2353.68,-86 2353.68,-122"/>
<text text-anchor="middle" x="2283" y="-99.8" font-family="Times,serif" font-size="14.00">HistoricalDataModule</text>
</g>
<!-- HistoricalDataModule&#45;&gt;AppModule -->
<g id="edge11" class="edge">
<title>HistoricalDataModule&#45;&gt;AppModule</title>
<path fill="none" stroke="black" d="M2283,-122.24C2283,-137.57 2283,-157 2283,-157 2283,-157 2073.93,-157 2073.93,-157"/>
<polygon fill="black" stroke="black" points="2073.93,-153.5 2063.93,-157 2073.93,-160.5 2073.93,-153.5"/>
</g>
<!-- ImportModule -->
<g id="node13" class="node">
<title>ImportModule</title>
<polygon fill="#8dd3c7" stroke="black" points="2194.65,-122 2191.65,-126 2170.65,-126 2167.65,-122 2097.35,-122 2097.35,-86 2194.65,-86 2194.65,-122"/>
<text text-anchor="middle" x="2146" y="-99.8" font-family="Times,serif" font-size="14.00">ImportModule</text>
</g>
<!-- ImportModule&#45;&gt;AppModule -->
<g id="edge12" class="edge">
<title>ImportModule&#45;&gt;AppModule</title>
<path fill="none" stroke="black" d="M2146,-122.05C2146,-136.37 2146,-154 2146,-154 2146,-154 2073.98,-154 2073.98,-154"/>
<polygon fill="black" stroke="black" points="2073.98,-150.5 2063.98,-154 2073.98,-157.5 2073.98,-150.5"/>
</g>
<!-- LanguageModule -->
<g id="node14" class="node">
<title>LanguageModule</title>
<polygon fill="#8dd3c7" stroke="black" points="2079.25,-122 2076.25,-126 2055.25,-126 2052.25,-122 1964.75,-122 1964.75,-86 2079.25,-86 2079.25,-122"/>
<text text-anchor="middle" x="2022" y="-99.8" font-family="Times,serif" font-size="14.00">LanguageModule</text>
</g>
<!-- LanguageModule&#45;&gt;AppModule -->
<g id="edge13" class="edge">
<title>LanguageModule&#45;&gt;AppModule</title>
<path fill="none" stroke="black" d="M2022,-122.11C2022,-122.11 2022,-140.99 2022,-140.99"/>
<polygon fill="black" stroke="black" points="2018.5,-140.99 2022,-150.99 2025.5,-140.99 2018.5,-140.99"/>
</g>
<!-- LatestChangesModule -->
<g id="node15" class="node">
<title>LatestChangesModule</title>
<polygon fill="#8dd3c7" stroke="black" points="1946.97,-122 1943.97,-126 1922.97,-126 1919.97,-122 1805.03,-122 1805.03,-86 1946.97,-86 1946.97,-122"/>
<text text-anchor="middle" x="1876" y="-99.8" font-family="Times,serif" font-size="14.00">LatestChangesModule</text>
</g>
<!-- LatestChangesModule&#45;&gt;AppModule -->
<g id="edge14" class="edge">
<title>LatestChangesModule&#45;&gt;AppModule</title>
<path fill="none" stroke="black" d="M1876,-122.05C1876,-136.37 1876,-154 1876,-154 1876,-154 1970.16,-154 1970.16,-154"/>
<polygon fill="black" stroke="black" points="1970.16,-157.5 1980.16,-154 1970.16,-150.5 1970.16,-157.5"/>
</g>
<!-- LocationModule -->
<g id="node16" class="node">
<title>LocationModule</title>
<polygon fill="#8dd3c7" stroke="black" points="1786.81,-122 1783.81,-126 1762.81,-126 1759.81,-122 1677.19,-122 1677.19,-86 1786.81,-86 1786.81,-122"/>
<text text-anchor="middle" x="1732" y="-99.8" font-family="Times,serif" font-size="14.00">LocationModule</text>
</g>
<!-- LocationModule&#45;&gt;AppModule -->
<g id="edge15" class="edge">
<title>LocationModule&#45;&gt;AppModule</title>
<path fill="none" stroke="black" d="M1732,-122.24C1732,-137.57 1732,-157 1732,-157 1732,-157 1970.14,-157 1970.14,-157"/>
<polygon fill="black" stroke="black" points="1970.14,-160.5 1980.14,-157 1970.14,-153.5 1970.14,-160.5"/>
</g>
<!-- MarkdownPageModule -->
<g id="node17" class="node">
<title>MarkdownPageModule</title>
<polygon fill="#8dd3c7" stroke="black" points="1659.19,-122 1656.19,-126 1635.19,-126 1632.19,-122 1510.81,-122 1510.81,-86 1659.19,-86 1659.19,-122"/>
<text text-anchor="middle" x="1585" y="-99.8" font-family="Times,serif" font-size="14.00">MarkdownPageModule</text>
</g>
<!-- MarkdownPageModule&#45;&gt;AppModule -->
<g id="edge16" class="edge">
<title>MarkdownPageModule&#45;&gt;AppModule</title>
<path fill="none" stroke="black" d="M1585,-122.01C1585,-138.05 1585,-159 1585,-159 1585,-159 1970.1,-159 1970.1,-159"/>
<polygon fill="black" stroke="black" points="1970.1,-162.5 1980.1,-159 1970.1,-155.5 1970.1,-162.5"/>
</g>
<!-- MatchingEntitiesModule -->
<g id="node18" class="node">
<title>MatchingEntitiesModule</title>
<polygon fill="#8dd3c7" stroke="black" points="1492.98,-122 1489.98,-126 1468.98,-126 1465.98,-122 1337.02,-122 1337.02,-86 1492.98,-86 1492.98,-122"/>
<text text-anchor="middle" x="1415" y="-99.8" font-family="Times,serif" font-size="14.00">MatchingEntitiesModule</text>
</g>
<!-- MatchingEntitiesModule&#45;&gt;AppModule -->
<g id="edge17" class="edge">
<title>MatchingEntitiesModule&#45;&gt;AppModule</title>
<path fill="none" stroke="black" d="M1415,-122.03C1415,-139.06 1415,-162 1415,-162 1415,-162 1970.28,-162 1970.28,-162"/>
<polygon fill="black" stroke="black" points="1970.28,-165.5 1980.28,-162 1970.28,-158.5 1970.28,-165.5"/>
</g>
<!-- NotesModule -->
<g id="node19" class="node">
<title>NotesModule</title>
<polygon fill="#8dd3c7" stroke="black" points="1319.21,-122 1316.21,-126 1295.21,-126 1292.21,-122 1226.79,-122 1226.79,-86 1319.21,-86 1319.21,-122"/>
<text text-anchor="middle" x="1273" y="-99.8" font-family="Times,serif" font-size="14.00">NotesModule</text>
</g>
<!-- NotesModule&#45;&gt;AppModule -->
<g id="edge18" class="edge">
<title>NotesModule&#45;&gt;AppModule</title>
<path fill="none" stroke="black" d="M1273,-122C1273,-139.68 1273,-164 1273,-164 1273,-164 1970.13,-164 1970.13,-164"/>
<polygon fill="black" stroke="black" points="1970.13,-167.5 1980.13,-164 1970.13,-160.5 1970.13,-167.5"/>
</g>
<!-- PermissionsModule -->
<g id="node20" class="node">
<title>PermissionsModule</title>
<polygon fill="#8dd3c7" stroke="black" points="1208.71,-122 1205.71,-126 1184.71,-126 1181.71,-122 1081.29,-122 1081.29,-86 1208.71,-86 1208.71,-122"/>
<text text-anchor="middle" x="1145" y="-99.8" font-family="Times,serif" font-size="14.00">PermissionsModule</text>
</g>
<!-- PermissionsModule&#45;&gt;AppModule -->
<g id="edge19" class="edge">
<title>PermissionsModule&#45;&gt;AppModule</title>
<path fill="none" stroke="black" d="M1145,-122.22C1145,-140.83 1145,-167 1145,-167 1145,-167 1970.29,-167 1970.29,-167"/>
<polygon fill="black" stroke="black" points="1970.29,-170.5 1980.29,-167 1970.29,-163.5 1970.29,-170.5"/>
</g>
<!-- ProgressDashboardWidgetModule -->
<g id="node21" class="node">
<title>ProgressDashboardWidgetModule</title>
<polygon fill="#8dd3c7" stroke="black" points="1063.61,-122 1060.61,-126 1039.61,-126 1036.61,-122 854.39,-122 854.39,-86 1063.61,-86 1063.61,-122"/>
<text text-anchor="middle" x="959" y="-99.8" font-family="Times,serif" font-size="14.00">ProgressDashboardWidgetModule</text>
</g>
<!-- ProgressDashboardWidgetModule&#45;&gt;AppModule -->
<g id="edge20" class="edge">
<title>ProgressDashboardWidgetModule&#45;&gt;AppModule</title>
<path fill="none" stroke="black" d="M959,-122.11C959,-141.34 959,-169 959,-169 959,-169 1970.33,-169 1970.33,-169"/>
<polygon fill="black" stroke="black" points="1970.33,-172.5 1980.33,-169 1970.33,-165.5 1970.33,-172.5"/>
</g>
<!-- ReportingModule -->
<g id="node22" class="node">
<title>ReportingModule</title>
<polygon fill="#8dd3c7" stroke="black" points="835.54,-122 832.54,-126 811.54,-126 808.54,-122 720.46,-122 720.46,-86 835.54,-86 835.54,-122"/>
<text text-anchor="middle" x="778" y="-99.8" font-family="Times,serif" font-size="14.00">ReportingModule</text>
</g>
<!-- ReportingModule&#45;&gt;AppModule -->
<g id="edge21" class="edge">
<title>ReportingModule&#45;&gt;AppModule</title>
<path fill="none" stroke="black" d="M778,-122.22C778,-142.37 778,-172 778,-172 778,-172 1970.25,-172 1970.25,-172"/>
<polygon fill="black" stroke="black" points="1970.25,-175.5 1980.25,-172 1970.25,-168.5 1970.25,-175.5"/>
</g>
<!-- SchoolsModule -->
<g id="node23" class="node">
<title>SchoolsModule</title>
<polygon fill="#8dd3c7" stroke="black" points="701.88,-122 698.88,-126 677.88,-126 674.88,-122 598.12,-122 598.12,-86 701.88,-86 701.88,-122"/>
<text text-anchor="middle" x="650" y="-99.8" font-family="Times,serif" font-size="14.00">SchoolsModule</text>
</g>
<!-- SchoolsModule&#45;&gt;AppModule -->
<g id="edge22" class="edge">
<title>SchoolsModule&#45;&gt;AppModule</title>
<path fill="none" stroke="black" d="M650,-122.28C650,-143.32 650,-175 650,-175 650,-175 1970.19,-175 1970.19,-175"/>
<polygon fill="black" stroke="black" points="1970.19,-178.5 1980.19,-175 1970.19,-171.5 1970.19,-178.5"/>
</g>
<!-- SessionModule -->
<g id="node24" class="node">
<title>SessionModule</title>
<polygon fill="#8dd3c7" stroke="black" points="580.33,-122 577.33,-126 556.33,-126 553.33,-122 477.67,-122 477.67,-86 580.33,-86 580.33,-122"/>
<text text-anchor="middle" x="529" y="-99.8" font-family="Times,serif" font-size="14.00">SessionModule</text>
</g>
<!-- SessionModule&#45;&gt;AppModule -->
<g id="edge23" class="edge">
<title>SessionModule&#45;&gt;AppModule</title>
<path fill="none" stroke="black" d="M529,-122.04C529,-143.66 529,-177 529,-177 529,-177 1970.12,-177 1970.12,-177"/>
<polygon fill="black" stroke="black" points="1970.12,-180.5 1980.12,-177 1970.12,-173.5 1970.12,-180.5"/>
</g>
<!-- ShortcutDashboardWidgetModule -->
<g id="node25" class="node">
<title>ShortcutDashboardWidgetModule</title>
<polygon fill="#8dd3c7" stroke="black" points="459.34,-122 456.34,-126 435.34,-126 432.34,-122 250.66,-122 250.66,-86 459.34,-86 459.34,-122"/>
<text text-anchor="middle" x="355" y="-99.8" font-family="Times,serif" font-size="14.00">ShortcutDashboardWidgetModule</text>
</g>
<!-- ShortcutDashboardWidgetModule&#45;&gt;AppModule -->
<g id="edge24" class="edge">
<title>ShortcutDashboardWidgetModule&#45;&gt;AppModule</title>
<path fill="none" stroke="black" d="M355,-122.01C355,-144.49 355,-180 355,-180 355,-180 1969.96,-180 1969.96,-180"/>
<polygon fill="black" stroke="black" points="1969.96,-183.5 1979.96,-180 1969.96,-176.5 1969.96,-183.5"/>
</g>
<!-- TodosModule -->
<g id="node26" class="node">
<title>TodosModule</title>
<polygon fill="#8dd3c7" stroke="black" points="232.05,-122 229.05,-126 208.05,-126 205.05,-122 137.95,-122 137.95,-86 232.05,-86 232.05,-122"/>
<text text-anchor="middle" x="185" y="-99.8" font-family="Times,serif" font-size="14.00">TodosModule</text>
</g>
<!-- TodosModule&#45;&gt;AppModule -->
<g id="edge25" class="edge">
<title>TodosModule&#45;&gt;AppModule</title>
<path fill="none" stroke="black" d="M185,-122.09C185,-145.13 185,-182 185,-182 185,-182 1970.18,-182 1970.18,-182"/>
<polygon fill="black" stroke="black" points="1970.18,-185.5 1980.18,-182 1970.18,-178.5 1970.18,-185.5"/>
</g>
<!-- UiComponent -->
<g id="node27" class="node">
<title>UiComponent</title>
<polygon fill="#8dd3c7" stroke="black" points="119.83,-122 116.83,-126 95.83,-126 92.83,-122 24.17,-122 24.17,-86 119.83,-86 119.83,-122"/>
<text text-anchor="middle" x="72" y="-99.8" font-family="Times,serif" font-size="14.00">UiComponent</text>
</g>
<!-- UiComponent&#45;&gt;AppModule -->
<g id="edge26" class="edge">
<title>UiComponent&#45;&gt;AppModule</title>
<path fill="none" stroke="black" d="M72,-122.38C72,-146.28 72,-185 72,-185 72,-185 1969.91,-185 1969.91,-185"/>
<polygon fill="black" stroke="black" points="1969.91,-188.5 1979.91,-185 1969.91,-181.5 1969.91,-188.5"/>
</g>
<!-- AnalyticsService -->
<g id="node29" class="node">
<title>AnalyticsService</title>
<ellipse fill="#fdb462" stroke="black" cx="3833" cy="-104" rx="77" ry="18"/>
<text text-anchor="middle" x="3833" y="-99.8" font-family="Times,serif" font-size="14.00">AnalyticsService</text>
</g>
<!-- AnalyticsService&#45;&gt;AppModule -->
<g id="edge28" class="edge">
<title>AnalyticsService&#45;&gt;AppModule</title>
<path fill="none" stroke="black" d="M3833,-122.09C3833,-145.13 3833,-182 3833,-182 3833,-182 2073.66,-182 2073.66,-182"/>
<polygon fill="black" stroke="black" points="2073.66,-178.5 2063.66,-182 2073.66,-185.5 2073.66,-178.5"/>
</g>
</g>
</svg>
