<?xml version="1.0" encoding="UTF-8" standalone="no"?>
<!DOCTYPE svg PUBLIC "-//W3C//DTD SVG 1.1//EN"
 "http://www.w3.org/Graphics/SVG/1.1/DTD/svg11.dtd">
<!-- Generated by graphviz version 2.47.0 (20210316.0004)
 -->
<!-- Title: dependencies Pages: 1 -->
<svg width="4482pt" height="284pt"
 viewBox="0.00 0.00 4482.00 284.00" xmlns="http://www.w3.org/2000/svg" xmlns:xlink="http://www.w3.org/1999/xlink">
<g id="graph0" class="graph" transform="scale(1 1) rotate(0) translate(4 280)">
<title>dependencies</title>
<polygon fill="white" stroke="transparent" points="-4,4 -4,-280 4478,-280 4478,4 -4,4"/>
<text text-anchor="start" x="2216.01" y="-42.4" font-family="Times-12" font-weight="bold" font-size="14.00">Legend</text>
<polygon fill="#ffffb3" stroke="transparent" points="2003,-10 2003,-30 2023,-30 2023,-10 2003,-10"/>
<text text-anchor="start" x="2026.63" y="-15.4" font-family="Times-12" font-size="14.00"> &#160;Declarations</text>
<polygon fill="#8dd3c7" stroke="transparent" points="2116,-10 2116,-30 2136,-30 2136,-10 2116,-10"/>
<text text-anchor="start" x="2139.73" y="-15.4" font-family="Times-12" font-size="14.00"> &#160;Module</text>
<polygon fill="#80b1d3" stroke="transparent" points="2202,-10 2202,-30 2222,-30 2222,-10 2202,-10"/>
<text text-anchor="start" x="2225.78" y="-15.4" font-family="Times-12" font-size="14.00"> &#160;Bootstrap</text>
<polygon fill="#fdb462" stroke="transparent" points="2299,-10 2299,-30 2319,-30 2319,-10 2299,-10"/>
<text text-anchor="start" x="2322.67" y="-15.4" font-family="Times-12" font-size="14.00"> &#160;Providers</text>
<polygon fill="#fb8072" stroke="transparent" points="2395,-10 2395,-30 2415,-30 2415,-10 2395,-10"/>
<text text-anchor="start" x="2418.73" y="-15.4" font-family="Times-12" font-size="14.00"> &#160;Exports</text>
<g id="clust1" class="cluster">
<title>cluster_AppModule</title>
<polygon fill="none" stroke="black" stroke-dasharray="1,5" points="8,-70 8,-268 4466,-268 4466,-70 8,-70"/>
</g>
<g id="clust4" class="cluster">
<title>cluster_AppModule_imports</title>
<polygon fill="none" stroke="black" points="516,-78 516,-130 4458,-130 4458,-78 516,-78"/>
</g>
<g id="clust2" class="cluster">
<title>cluster_AppModule_declarations</title>
<polygon fill="none" stroke="black" points="386,-78 386,-130 508,-130 508,-78 386,-78"/>
</g>
<g id="clust7" class="cluster">
<title>cluster_AppModule_providers</title>
<polygon fill="none" stroke="black" points="16,-78 16,-130 378,-130 378,-78 16,-78"/>
</g>
<g id="clust6" class="cluster">
<title>cluster_AppModule_bootstrap</title>
<polygon fill="none" stroke="black" points="2147,-208 2147,-260 2271,-260 2271,-208 2147,-208"/>
</g>
<!-- AppComponent -->
<g id="node1" class="node">
<title>AppComponent</title>
<polygon fill="#ffffb3" stroke="black" points="499.94,-122 394.06,-122 394.06,-86 499.94,-86 499.94,-122"/>
<text text-anchor="middle" x="447" y="-99.8" font-family="Times,serif" font-size="14.00">AppComponent</text>
</g>
<!-- AppModule -->
<g id="node2" class="node">
<title>AppModule</title>
<polygon fill="#8dd3c7" stroke="black" points="2250.66,-187 2247.66,-191 2226.66,-191 2223.66,-187 2167.34,-187 2167.34,-151 2250.66,-151 2250.66,-187"/>
<text text-anchor="middle" x="2209" y="-164.8" font-family="Times,serif" font-size="14.00">AppModule</text>
</g>
<!-- AppComponent&#45;&gt;AppModule -->
<g id="edge1" class="edge">
<title>AppComponent&#45;&gt;AppModule</title>
<path fill="none" stroke="black" d="M447,-122.01C447,-144.49 447,-180 447,-180 447,-180 2157.18,-180 2157.18,-180"/>
<polygon fill="black" stroke="black" points="2157.18,-183.5 2167.18,-180 2157.18,-176.5 2157.18,-183.5"/>
</g>
<!-- AppComponent  -->
<g id="node29" class="node">
<title>AppComponent </title>
<polygon fill="#80b1d3" stroke="black" points="2263.44,-252 2154.56,-252 2154.56,-216 2263.44,-216 2263.44,-252"/>
<text text-anchor="middle" x="2209" y="-229.8" font-family="Times,serif" font-size="14.00">AppComponent </text>
</g>
<!-- AppModule&#45;&gt;AppComponent  -->
<g id="edge28" class="edge">
<title>AppModule&#45;&gt;AppComponent </title>
<path fill="none" stroke="black" stroke-dasharray="1,5" d="M2209,-187.11C2209,-187.11 2209,-205.99 2209,-205.99"/>
<polygon fill="black" stroke="black" points="2205.5,-205.99 2209,-215.99 2212.5,-205.99 2205.5,-205.99"/>
</g>
<!-- AdminModule -->
<g id="node3" class="node">
<title>AdminModule</title>
<polygon fill="#8dd3c7" stroke="black" points="4450.44,-122 4447.44,-126 4426.44,-126 4423.44,-122 4351.56,-122 4351.56,-86 4450.44,-86 4450.44,-122"/>
<text text-anchor="middle" x="4401" y="-99.8" font-family="Times,serif" font-size="14.00">AdminModule</text>
</g>
<!-- AdminModule&#45;&gt;AppModule -->
<g id="edge2" class="edge">
<title>AdminModule&#45;&gt;AppModule</title>
<path fill="none" stroke="black" d="M4401,-122.38C4401,-146.28 4401,-185 4401,-185 4401,-185 2260.83,-185 2260.83,-185"/>
<polygon fill="black" stroke="black" points="2260.83,-181.5 2250.83,-185 2260.83,-188.5 2260.83,-181.5"/>
</g>
<!-- ApplicationLoadingComponent -->
<g id="node4" class="node">
<title>ApplicationLoadingComponent</title>
<polygon fill="#8dd3c7" stroke="black" points="4334.09,-122 4331.09,-126 4310.09,-126 4307.09,-122 4139.91,-122 4139.91,-86 4334.09,-86 4334.09,-122"/>
<text text-anchor="middle" x="4237" y="-99.8" font-family="Times,serif" font-size="14.00">ApplicationLoadingComponent</text>
</g>
<!-- ApplicationLoadingComponent&#45;&gt;AppModule -->
<g id="edge3" class="edge">
<title>ApplicationLoadingComponent&#45;&gt;AppModule</title>
<path fill="none" stroke="black" d="M4237,-122.32C4237,-145.66 4237,-183 4237,-183 4237,-183 2260.89,-183 2260.89,-183"/>
<polygon fill="black" stroke="black" points="2260.89,-179.5 2250.89,-183 2260.89,-186.5 2260.89,-179.5"/>
</g>
<!-- AttendanceModule -->
<g id="node5" class="node">
<title>AttendanceModule</title>
<polygon fill="#8dd3c7" stroke="black" points="4121.8,-122 4118.8,-126 4097.8,-126 4094.8,-122 3998.2,-122 3998.2,-86 4121.8,-86 4121.8,-122"/>
<text text-anchor="middle" x="4060" y="-99.8" font-family="Times,serif" font-size="14.00">AttendanceModule</text>
</g>
<!-- AttendanceModule&#45;&gt;AppModule -->
<g id="edge4" class="edge">
<title>AttendanceModule&#45;&gt;AppModule</title>
<path fill="none" stroke="black" d="M4060,-122.01C4060,-144.49 4060,-180 4060,-180 4060,-180 2260.7,-180 2260.7,-180"/>
<polygon fill="black" stroke="black" points="2260.7,-176.5 2250.7,-180 2260.7,-183.5 2260.7,-176.5"/>
</g>
<!-- BirthdayDashboardWidgetModule -->
<g id="node6" class="node">
<title>BirthdayDashboardWidgetModule</title>
<polygon fill="#8dd3c7" stroke="black" points="3980.39,-122 3977.39,-126 3956.39,-126 3953.39,-122 3769.61,-122 3769.61,-86 3980.39,-86 3980.39,-122"/>
<text text-anchor="middle" x="3875" y="-99.8" font-family="Times,serif" font-size="14.00">BirthdayDashboardWidgetModule</text>
</g>
<!-- BirthdayDashboardWidgetModule&#45;&gt;AppModule -->
<g id="edge5" class="edge">
<title>BirthdayDashboardWidgetModule&#45;&gt;AppModule</title>
<path fill="none" stroke="black" d="M3875,-122.29C3875,-144.21 3875,-178 3875,-178 3875,-178 2261.02,-178 2261.02,-178"/>
<polygon fill="black" stroke="black" points="2261.02,-174.5 2251.02,-178 2261.02,-181.5 2261.02,-174.5"/>
</g>
<!-- ChildrenModule -->
<g id="node7" class="node">
<title>ChildrenModule</title>
<polygon fill="#8dd3c7" stroke="black" points="3752.04,-122 3749.04,-126 3728.04,-126 3725.04,-122 3643.96,-122 3643.96,-86 3752.04,-86 3752.04,-122"/>
<text text-anchor="middle" x="3698" y="-99.8" font-family="Times,serif" font-size="14.00">ChildrenModule</text>
</g>
<!-- ChildrenModule&#45;&gt;AppModule -->
<g id="edge6" class="edge">
<title>ChildrenModule&#45;&gt;AppModule</title>
<path fill="none" stroke="black" d="M3698,-122.28C3698,-143.32 3698,-175 3698,-175 3698,-175 2260.77,-175 2260.77,-175"/>
<polygon fill="black" stroke="black" points="2260.77,-171.5 2250.77,-175 2260.77,-178.5 2260.77,-171.5"/>
</g>
<!-- ConfigurableEnumModule -->
<g id="node8" class="node">
<title>ConfigurableEnumModule</title>
<polygon fill="#8dd3c7" stroke="black" points="3625.36,-122 3622.36,-126 3601.36,-126 3598.36,-122 3458.64,-122 3458.64,-86 3625.36,-86 3625.36,-122"/>
<text text-anchor="middle" x="3542" y="-99.8" font-family="Times,serif" font-size="14.00">ConfigurableEnumModule</text>
</g>
<!-- ConfigurableEnumModule&#45;&gt;AppModule -->
<g id="edge7" class="edge">
<title>ConfigurableEnumModule&#45;&gt;AppModule</title>
<path fill="none" stroke="black" d="M3542,-122.13C3542,-142.57 3542,-173 3542,-173 3542,-173 2260.72,-173 2260.72,-173"/>
<polygon fill="black" stroke="black" points="2260.72,-169.5 2250.72,-173 2260.72,-176.5 2260.72,-169.5"/>
</g>
<!-- CoreModule -->
<g id="node9" class="node">
<title>CoreModule</title>
<polygon fill="#8dd3c7" stroke="black" points="3440.26,-122 3437.26,-126 3416.26,-126 3413.26,-122 3353.74,-122 3353.74,-86 3440.26,-86 3440.26,-122"/>
<text text-anchor="middle" x="3397" y="-99.8" font-family="Times,serif" font-size="14.00">CoreModule</text>
</g>
<!-- CoreModule&#45;&gt;AppModule -->
<g id="edge8" class="edge">
<title>CoreModule&#45;&gt;AppModule</title>
<path fill="none" stroke="black" d="M3397,-122.31C3397,-142.15 3397,-171 3397,-171 3397,-171 2260.93,-171 2260.93,-171"/>
<polygon fill="black" stroke="black" points="2260.93,-167.5 2250.93,-171 2260.93,-174.5 2260.93,-167.5"/>
</g>
<!-- EntityCountDashboardWidgetModule -->
<g id="node10" class="node">
<title>EntityCountDashboardWidgetModule</title>
<polygon fill="#8dd3c7" stroke="black" points="3335.85,-122 3332.85,-126 3311.85,-126 3308.85,-122 3106.15,-122 3106.15,-86 3335.85,-86 3335.85,-122"/>
<text text-anchor="middle" x="3221" y="-99.8" font-family="Times,serif" font-size="14.00">EntityCountDashboardWidgetModule</text>
</g>
<!-- EntityCountDashboardWidgetModule&#45;&gt;AppModule -->
<g id="edge9" class="edge">
<title>EntityCountDashboardWidgetModule&#45;&gt;AppModule</title>
<path fill="none" stroke="black" d="M3221,-122.17C3221,-141.09 3221,-168 3221,-168 3221,-168 2260.88,-168 2260.88,-168"/>
<polygon fill="black" stroke="black" points="2260.88,-164.5 2250.88,-168 2260.88,-171.5 2260.88,-164.5"/>
</g>
<!-- FileModule -->
<g id="node11" class="node">
<title>FileModule</title>
<polygon fill="#8dd3c7" stroke="black" points="3087.83,-122 3084.83,-126 3063.83,-126 3060.83,-122 3006.17,-122 3006.17,-86 3087.83,-86 3087.83,-122"/>
<text text-anchor="middle" x="3047" y="-99.8" font-family="Times,serif" font-size="14.00">FileModule</text>
</g>
<!-- FileModule&#45;&gt;AppModule -->
<g id="edge10" class="edge">
<title>FileModule&#45;&gt;AppModule</title>
<path fill="none" stroke="black" d="M3047,-122.27C3047,-140.56 3047,-166 3047,-166 3047,-166 2260.84,-166 2260.84,-166"/>
<polygon fill="black" stroke="black" points="2260.84,-162.5 2250.84,-166 2260.84,-169.5 2260.84,-162.5"/>
</g>
<!-- ImportModule -->
<g id="node12" class="node">
<title>ImportModule</title>
<polygon fill="#8dd3c7" stroke="black" points="2988.65,-122 2985.65,-126 2964.65,-126 2961.65,-122 2891.35,-122 2891.35,-86 2988.65,-86 2988.65,-122"/>
<text text-anchor="middle" x="2940" y="-99.8" font-family="Times,serif" font-size="14.00">ImportModule</text>
</g>
<!-- ImportModule&#45;&gt;AppModule -->
<g id="edge11" class="edge">
<title>ImportModule&#45;&gt;AppModule</title>
<path fill="none" stroke="black" d="M2940,-122.02C2940,-139.37 2940,-163 2940,-163 2940,-163 2260.66,-163 2260.66,-163"/>
<polygon fill="black" stroke="black" points="2260.66,-159.5 2250.66,-163 2260.66,-166.5 2260.66,-159.5"/>
</g>
<!-- LanguageModule -->
<g id="node13" class="node">
<title>LanguageModule</title>
<polygon fill="#8dd3c7" stroke="black" points="2873.25,-122 2870.25,-126 2849.25,-126 2846.25,-122 2758.75,-122 2758.75,-86 2873.25,-86 2873.25,-122"/>
<text text-anchor="middle" x="2816" y="-99.8" font-family="Times,serif" font-size="14.00">LanguageModule</text>
</g>
<!-- LanguageModule&#45;&gt;AppModule -->
<g id="edge12" class="edge">
<title>LanguageModule&#45;&gt;AppModule</title>
<path fill="none" stroke="black" d="M2816,-122.04C2816,-138.73 2816,-161 2816,-161 2816,-161 2260.72,-161 2260.72,-161"/>
<polygon fill="black" stroke="black" points="2260.72,-157.5 2250.72,-161 2260.72,-164.5 2260.72,-157.5"/>
</g>
<!-- LatestChangesModule -->
<g id="node14" class="node">
<title>LatestChangesModule</title>
<polygon fill="#8dd3c7" stroke="black" points="2740.97,-122 2737.97,-126 2716.97,-126 2713.97,-122 2599.03,-122 2599.03,-86 2740.97,-86 2740.97,-122"/>
<text text-anchor="middle" x="2670" y="-99.8" font-family="Times,serif" font-size="14.00">LatestChangesModule</text>
</g>
<!-- LatestChangesModule&#45;&gt;AppModule -->
<g id="edge13" class="edge">
<title>LatestChangesModule&#45;&gt;AppModule</title>
<path fill="none" stroke="black" d="M2670,-122.01C2670,-138.05 2670,-159 2670,-159 2670,-159 2260.72,-159 2260.72,-159"/>
<polygon fill="black" stroke="black" points="2260.72,-155.5 2250.72,-159 2260.72,-162.5 2260.72,-155.5"/>
</g>
<!-- LocationModule -->
<g id="node15" class="node">
<title>LocationModule</title>
<polygon fill="#8dd3c7" stroke="black" points="2580.81,-122 2577.81,-126 2556.81,-126 2553.81,-122 2471.19,-122 2471.19,-86 2580.81,-86 2580.81,-122"/>
<text text-anchor="middle" x="2526" y="-99.8" font-family="Times,serif" font-size="14.00">LocationModule</text>
</g>
<!-- LocationModule&#45;&gt;AppModule -->
<g id="edge14" class="edge">
<title>LocationModule&#45;&gt;AppModule</title>
<path fill="none" stroke="black" d="M2526,-122.19C2526,-137.18 2526,-156 2526,-156 2526,-156 2260.77,-156 2260.77,-156"/>
<polygon fill="black" stroke="black" points="2260.77,-152.5 2250.77,-156 2260.77,-159.5 2260.77,-152.5"/>
</g>
<!-- MarkdownPageModule -->
<g id="node16" class="node">
<title>MarkdownPageModule</title>
<polygon fill="#8dd3c7" stroke="black" points="2453.19,-122 2450.19,-126 2429.19,-126 2426.19,-122 2304.81,-122 2304.81,-86 2453.19,-86 2453.19,-122"/>
<text text-anchor="middle" x="2379" y="-99.8" font-family="Times,serif" font-size="14.00">MarkdownPageModule</text>
</g>
<!-- MarkdownPageModule&#45;&gt;AppModule -->
<g id="edge15" class="edge">
<title>MarkdownPageModule&#45;&gt;AppModule</title>
<path fill="none" stroke="black" d="M2379,-122.05C2379,-136.37 2379,-154 2379,-154 2379,-154 2261.02,-154 2261.02,-154"/>
<polygon fill="black" stroke="black" points="2261.02,-150.5 2251.02,-154 2261.02,-157.5 2261.02,-150.5"/>
</g>
<!-- MatchingEntitiesModule -->
<g id="node17" class="node">
<title>MatchingEntitiesModule</title>
<polygon fill="#8dd3c7" stroke="black" points="2286.98,-122 2283.98,-126 2262.98,-126 2259.98,-122 2131.02,-122 2131.02,-86 2286.98,-86 2286.98,-122"/>
<text text-anchor="middle" x="2209" y="-99.8" font-family="Times,serif" font-size="14.00">MatchingEntitiesModule</text>
</g>
<!-- MatchingEntitiesModule&#45;&gt;AppModule -->
<g id="edge16" class="edge">
<title>MatchingEntitiesModule&#45;&gt;AppModule</title>
<path fill="none" stroke="black" d="M2209,-122.11C2209,-122.11 2209,-140.99 2209,-140.99"/>
<polygon fill="black" stroke="black" points="2205.5,-140.99 2209,-150.99 2212.5,-140.99 2205.5,-140.99"/>
</g>
<!-- NotesModule -->
<g id="node18" class="node">
<title>NotesModule</title>
<polygon fill="#8dd3c7" stroke="black" points="2113.21,-122 2110.21,-126 2089.21,-126 2086.21,-122 2020.79,-122 2020.79,-86 2113.21,-86 2113.21,-122"/>
<text text-anchor="middle" x="2067" y="-99.8" font-family="Times,serif" font-size="14.00">NotesModule</text>
</g>
<!-- NotesModule&#45;&gt;AppModule -->
<g id="edge17" class="edge">
<title>NotesModule&#45;&gt;AppModule</title>
<path fill="none" stroke="black" d="M2067,-122.05C2067,-136.37 2067,-154 2067,-154 2067,-154 2157.16,-154 2157.16,-154"/>
<polygon fill="black" stroke="black" points="2157.16,-157.5 2167.16,-154 2157.16,-150.5 2157.16,-157.5"/>
</g>
<!-- PermissionsModule -->
<g id="node19" class="node">
<title>PermissionsModule</title>
<polygon fill="#8dd3c7" stroke="black" points="2002.71,-122 1999.71,-126 1978.71,-126 1975.71,-122 1875.29,-122 1875.29,-86 2002.71,-86 2002.71,-122"/>
<text text-anchor="middle" x="1939" y="-99.8" font-family="Times,serif" font-size="14.00">PermissionsModule</text>
</g>
<!-- PermissionsModule&#45;&gt;AppModule -->
<g id="edge18" class="edge">
<title>PermissionsModule&#45;&gt;AppModule</title>
<path fill="none" stroke="black" d="M1939,-122.19C1939,-137.18 1939,-156 1939,-156 1939,-156 2157.11,-156 2157.11,-156"/>
<polygon fill="black" stroke="black" points="2157.11,-159.5 2167.11,-156 2157.11,-152.5 2157.11,-159.5"/>
</g>
<!-- ProgressDashboardWidgetModule -->
<g id="node20" class="node">
<title>ProgressDashboardWidgetModule</title>
<polygon fill="#8dd3c7" stroke="black" points="1857.61,-122 1854.61,-126 1833.61,-126 1830.61,-122 1648.39,-122 1648.39,-86 1857.61,-86 1857.61,-122"/>
<text text-anchor="middle" x="1753" y="-99.8" font-family="Times,serif" font-size="14.00">ProgressDashboardWidgetModule</text>
</g>
<!-- ProgressDashboardWidgetModule&#45;&gt;AppModule -->
<g id="edge19" class="edge">
<title>ProgressDashboardWidgetModule&#45;&gt;AppModule</title>
<path fill="none" stroke="black" d="M1753,-122.01C1753,-138.05 1753,-159 1753,-159 1753,-159 2157.32,-159 2157.32,-159"/>
<polygon fill="black" stroke="black" points="2157.32,-162.5 2167.32,-159 2157.32,-155.5 2157.32,-162.5"/>
</g>
<!-- PublicFormModule -->
<g id="node21" class="node">
<title>PublicFormModule</title>
<polygon fill="#8dd3c7" stroke="black" points="1629.66,-122 1626.66,-126 1605.66,-126 1602.66,-122 1504.34,-122 1504.34,-86 1629.66,-86 1629.66,-122"/>
<text text-anchor="middle" x="1567" y="-99.8" font-family="Times,serif" font-size="14.00">PublicFormModule</text>
</g>
<!-- PublicFormModule&#45;&gt;AppModule -->
<g id="edge20" class="edge">
<title>PublicFormModule&#45;&gt;AppModule</title>
<path fill="none" stroke="black" d="M1567,-122.04C1567,-138.73 1567,-161 1567,-161 1567,-161 2156.88,-161 2156.88,-161"/>
<polygon fill="black" stroke="black" points="2156.88,-164.5 2166.88,-161 2156.88,-157.5 2156.88,-164.5"/>
</g>
<!-- ReportingModule -->
<g id="node22" class="node">
<title>ReportingModule</title>
<polygon fill="#8dd3c7" stroke="black" points="1485.54,-122 1482.54,-126 1461.54,-126 1458.54,-122 1370.46,-122 1370.46,-86 1485.54,-86 1485.54,-122"/>
<text text-anchor="middle" x="1428" y="-99.8" font-family="Times,serif" font-size="14.00">ReportingModule</text>
</g>
<!-- ReportingModule&#45;&gt;AppModule -->
<g id="edge21" class="edge">
<title>ReportingModule&#45;&gt;AppModule</title>
<path fill="none" stroke="black" d="M1428,-122.02C1428,-139.37 1428,-163 1428,-163 1428,-163 2157.29,-163 2157.29,-163"/>
<polygon fill="black" stroke="black" points="2157.29,-166.5 2167.29,-163 2157.29,-159.5 2157.29,-166.5"/>
</g>
<!-- SessionModule -->
<g id="node23" class="node">
<title>SessionModule</title>
<polygon fill="#8dd3c7" stroke="black" points="1352.33,-122 1349.33,-126 1328.33,-126 1325.33,-122 1249.67,-122 1249.67,-86 1352.33,-86 1352.33,-122"/>
<text text-anchor="middle" x="1301" y="-99.8" font-family="Times,serif" font-size="14.00">SessionModule</text>
</g>
<!-- SessionModule&#45;&gt;AppModule -->
<g id="edge22" class="edge">
<title>SessionModule&#45;&gt;AppModule</title>
<path fill="none" stroke="black" d="M1301,-122.27C1301,-140.56 1301,-166 1301,-166 1301,-166 2157.33,-166 2157.33,-166"/>
<polygon fill="black" stroke="black" points="2157.33,-169.5 2167.33,-166 2157.33,-162.5 2157.33,-169.5"/>
</g>
<!-- ShortcutDashboardWidgetModule -->
<g id="node24" class="node">
<title>ShortcutDashboardWidgetModule</title>
<polygon fill="#8dd3c7" stroke="black" points="1231.34,-122 1228.34,-126 1207.34,-126 1204.34,-122 1022.66,-122 1022.66,-86 1231.34,-86 1231.34,-122"/>
<text text-anchor="middle" x="1127" y="-99.8" font-family="Times,serif" font-size="14.00">ShortcutDashboardWidgetModule</text>
</g>
<!-- ShortcutDashboardWidgetModule&#45;&gt;AppModule -->
<g id="edge23" class="edge">
<title>ShortcutDashboardWidgetModule&#45;&gt;AppModule</title>
<path fill="none" stroke="black" d="M1127,-122.17C1127,-141.09 1127,-168 1127,-168 1127,-168 2157.25,-168 2157.25,-168"/>
<polygon fill="black" stroke="black" points="2157.25,-171.5 2167.25,-168 2157.25,-164.5 2157.25,-171.5"/>
</g>
<!-- SkillModule -->
<g id="node25" class="node">
<title>SkillModule</title>
<polygon fill="#8dd3c7" stroke="black" points="1005,-122 1002,-126 981,-126 978,-122 919,-122 919,-86 1005,-86 1005,-122"/>
<text text-anchor="middle" x="962" y="-99.8" font-family="Times,serif" font-size="14.00">SkillModule</text>
</g>
<!-- SkillModule&#45;&gt;AppModule -->
<g id="edge24" class="edge">
<title>SkillModule&#45;&gt;AppModule</title>
<path fill="none" stroke="black" d="M962,-122.31C962,-142.15 962,-171 962,-171 962,-171 2157.15,-171 2157.15,-171"/>
<polygon fill="black" stroke="black" points="2157.15,-174.5 2167.15,-171 2157.15,-167.5 2157.15,-174.5"/>
</g>
<!-- TemplateExportModule -->
<g id="node26" class="node">
<title>TemplateExportModule</title>
<polygon fill="#8dd3c7" stroke="black" points="901.02,-122 898.02,-126 877.02,-126 874.02,-122 750.98,-122 750.98,-86 901.02,-86 901.02,-122"/>
<text text-anchor="middle" x="826" y="-99.8" font-family="Times,serif" font-size="14.00">TemplateExportModule</text>
</g>
<!-- TemplateExportModule&#45;&gt;AppModule -->
<g id="edge25" class="edge">
<title>TemplateExportModule&#45;&gt;AppModule</title>
<path fill="none" stroke="black" d="M826,-122.13C826,-142.57 826,-173 826,-173 826,-173 2157.23,-173 2157.23,-173"/>
<polygon fill="black" stroke="black" points="2157.23,-176.5 2167.23,-173 2157.23,-169.5 2157.23,-176.5"/>
</g>
<!-- TodosModule -->
<g id="node27" class="node">
<title>TodosModule</title>
<polygon fill="#8dd3c7" stroke="black" points="732.05,-122 729.05,-126 708.05,-126 705.05,-122 637.95,-122 637.95,-86 732.05,-86 732.05,-122"/>
<text text-anchor="middle" x="685" y="-99.8" font-family="Times,serif" font-size="14.00">TodosModule</text>
</g>
<!-- TodosModule&#45;&gt;AppModule -->
<g id="edge26" class="edge">
<title>TodosModule&#45;&gt;AppModule</title>
<path fill="none" stroke="black" d="M685,-122.28C685,-143.32 685,-175 685,-175 685,-175 2157.05,-175 2157.05,-175"/>
<polygon fill="black" stroke="black" points="2157.05,-178.5 2167.05,-175 2157.05,-171.5 2157.05,-178.5"/>
</g>
<!-- UiComponent -->
<g id="node28" class="node">
<title>UiComponent</title>
<polygon fill="#8dd3c7" stroke="black" points="619.83,-122 616.83,-126 595.83,-126 592.83,-122 524.17,-122 524.17,-86 619.83,-86 619.83,-122"/>
<text text-anchor="middle" x="572" y="-99.8" font-family="Times,serif" font-size="14.00">UiComponent</text>
</g>
<!-- UiComponent&#45;&gt;AppModule -->
<g id="edge27" class="edge">
<title>UiComponent&#45;&gt;AppModule</title>
<path fill="none" stroke="black" d="M572,-122.29C572,-144.21 572,-178 572,-178 572,-178 2157.3,-178 2157.3,-178"/>
<polygon fill="black" stroke="black" points="2157.3,-181.5 2167.3,-178 2157.3,-174.5 2157.3,-181.5"/>
</g>
<!-- AnalyticsService -->
<g id="node30" class="node">
<title>AnalyticsService</title>
<ellipse fill="#fdb462" stroke="black" cx="293" cy="-104" rx="77" ry="18"/>
<text text-anchor="middle" x="293" y="-99.8" font-family="Times,serif" font-size="14.00">AnalyticsService</text>
</g>
<!-- AnalyticsService&#45;&gt;AppModule -->
<g id="edge29" class="edge">
<title>AnalyticsService&#45;&gt;AppModule</title>
<path fill="none" stroke="black" d="M293,-122.32C293,-145.66 293,-183 293,-183 293,-183 2157.2,-183 2157.2,-183"/>
<polygon fill="black" stroke="black" points="2157.2,-186.5 2167.2,-183 2157.2,-179.5 2157.2,-186.5"/>
</g>
<!-- NotificationService -->
<g id="node31" class="node">
<title>NotificationService</title>
<ellipse fill="#fdb462" stroke="black" cx="111" cy="-104" rx="86.81" ry="18"/>
<text text-anchor="middle" x="111" y="-99.8" font-family="Times,serif" font-size="14.00">NotificationService</text>
</g>
<!-- NotificationService&#45;&gt;AppModule -->
<g id="edge30" class="edge">
<title>NotificationService&#45;&gt;AppModule</title>
<path fill="none" stroke="black" d="M111,-122.38C111,-146.28 111,-185 111,-185 111,-185 2157.09,-185 2157.09,-185"/>
<polygon fill="black" stroke="black" points="2157.09,-188.5 2167.09,-185 2157.09,-181.5 2157.09,-188.5"/>
</g>
</g>
</svg>
