<?xml version="1.0" encoding="UTF-8" standalone="no"?>
<!DOCTYPE svg PUBLIC "-//W3C//DTD SVG 1.1//EN"
 "http://www.w3.org/Graphics/SVG/1.1/DTD/svg11.dtd">
<!-- Generated by graphviz version 2.47.0 (20210316.0004)
 -->
<!-- Title: dependencies Pages: 1 -->
<svg width="4104pt" height="284pt"
 viewBox="0.00 0.00 4104.00 284.00" xmlns="http://www.w3.org/2000/svg" xmlns:xlink="http://www.w3.org/1999/xlink">
<g id="graph0" class="graph" transform="scale(1 1) rotate(0) translate(4 280)">
<title>dependencies</title>
<polygon fill="white" stroke="transparent" points="-4,4 -4,-280 4100,-280 4100,4 -4,4"/>
<text text-anchor="start" x="2027.01" y="-42.4" font-family="Times-12" font-weight="bold" font-size="14.00">Legend</text>
<polygon fill="#ffffb3" stroke="transparent" points="1814,-10 1814,-30 1834,-30 1834,-10 1814,-10"/>
<text text-anchor="start" x="1837.63" y="-15.4" font-family="Times-12" font-size="14.00"> &#160;Declarations</text>
<polygon fill="#8dd3c7" stroke="transparent" points="1927,-10 1927,-30 1947,-30 1947,-10 1927,-10"/>
<text text-anchor="start" x="1950.73" y="-15.4" font-family="Times-12" font-size="14.00"> &#160;Module</text>
<polygon fill="#80b1d3" stroke="transparent" points="2013,-10 2013,-30 2033,-30 2033,-10 2013,-10"/>
<text text-anchor="start" x="2036.78" y="-15.4" font-family="Times-12" font-size="14.00"> &#160;Bootstrap</text>
<polygon fill="#fdb462" stroke="transparent" points="2110,-10 2110,-30 2130,-30 2130,-10 2110,-10"/>
<text text-anchor="start" x="2133.67" y="-15.4" font-family="Times-12" font-size="14.00"> &#160;Providers</text>
<polygon fill="#fb8072" stroke="transparent" points="2206,-10 2206,-30 2226,-30 2226,-10 2206,-10"/>
<text text-anchor="start" x="2229.73" y="-15.4" font-family="Times-12" font-size="14.00"> &#160;Exports</text>
<g id="clust1" class="cluster">
<title>cluster_AppModule</title>
<polygon fill="none" stroke="black" stroke-dasharray="1,5" points="8,-70 8,-268 4088,-268 4088,-70 8,-70"/>
</g>
<g id="clust6" class="cluster">
<title>cluster_AppModule_bootstrap</title>
<polygon fill="none" stroke="black" points="2005,-208 2005,-260 2129,-260 2129,-208 2005,-208"/>
</g>
<g id="clust2" class="cluster">
<title>cluster_AppModule_declarations</title>
<polygon fill="none" stroke="black" points="3958,-78 3958,-130 4080,-130 4080,-78 3958,-78"/>
</g>
<g id="clust7" class="cluster">
<title>cluster_AppModule_providers</title>
<polygon fill="none" stroke="black" points="3780,-78 3780,-130 3950,-130 3950,-78 3780,-78"/>
</g>
<g id="clust4" class="cluster">
<title>cluster_AppModule_imports</title>
<polygon fill="none" stroke="black" points="16,-78 16,-130 3772,-130 3772,-78 16,-78"/>
</g>
<!-- AppComponent -->
<g id="node1" class="node">
<title>AppComponent</title>
<polygon fill="#ffffb3" stroke="black" points="4071.94,-122 3966.06,-122 3966.06,-86 4071.94,-86 4071.94,-122"/>
<text text-anchor="middle" x="4019" y="-99.8" font-family="Times,serif" font-size="14.00">AppComponent</text>
</g>
<!-- AppModule -->
<g id="node2" class="node">
<title>AppModule</title>
<polygon fill="#8dd3c7" stroke="black" points="2108.66,-187 2105.66,-191 2084.66,-191 2081.66,-187 2025.34,-187 2025.34,-151 2108.66,-151 2108.66,-187"/>
<text text-anchor="middle" x="2067" y="-164.8" font-family="Times,serif" font-size="14.00">AppModule</text>
</g>
<!-- AppComponent&#45;&gt;AppModule -->
<g id="edge1" class="edge">
<title>AppComponent&#45;&gt;AppModule</title>
<path fill="none" stroke="black" d="M4019,-122.38C4019,-146.28 4019,-185 4019,-185 4019,-185 2118.67,-185 2118.67,-185"/>
<polygon fill="black" stroke="black" points="2118.67,-181.5 2108.67,-185 2118.67,-188.5 2118.67,-181.5"/>
</g>
<!-- AppComponent  -->
<g id="node28" class="node">
<title>AppComponent </title>
<polygon fill="#80b1d3" stroke="black" points="2121.44,-252 2012.56,-252 2012.56,-216 2121.44,-216 2121.44,-252"/>
<text text-anchor="middle" x="2067" y="-229.8" font-family="Times,serif" font-size="14.00">AppComponent </text>
</g>
<!-- AppModule&#45;&gt;AppComponent  -->
<g id="edge27" class="edge">
<title>AppModule&#45;&gt;AppComponent </title>
<path fill="none" stroke="black" stroke-dasharray="1,5" d="M2067,-187.11C2067,-187.11 2067,-205.99 2067,-205.99"/>
<polygon fill="black" stroke="black" points="2063.5,-205.99 2067,-215.99 2070.5,-205.99 2063.5,-205.99"/>
</g>
<!-- AdminModule -->
<g id="node3" class="node">
<title>AdminModule</title>
<polygon fill="#8dd3c7" stroke="black" points="3764.44,-122 3761.44,-126 3740.44,-126 3737.44,-122 3665.56,-122 3665.56,-86 3764.44,-86 3764.44,-122"/>
<text text-anchor="middle" x="3715" y="-99.8" font-family="Times,serif" font-size="14.00">AdminModule</text>
</g>
<!-- AdminModule&#45;&gt;AppModule -->
<g id="edge2" class="edge">
<title>AdminModule&#45;&gt;AppModule</title>
<path fill="none" stroke="black" d="M3715,-122.01C3715,-144.49 3715,-180 3715,-180 3715,-180 2118.98,-180 2118.98,-180"/>
<polygon fill="black" stroke="black" points="2118.98,-176.5 2108.98,-180 2118.98,-183.5 2118.98,-176.5"/>
</g>
<!-- AttendanceModule -->
<g id="node4" class="node">
<title>AttendanceModule</title>
<polygon fill="#8dd3c7" stroke="black" points="3647.8,-122 3644.8,-126 3623.8,-126 3620.8,-122 3524.2,-122 3524.2,-86 3647.8,-86 3647.8,-122"/>
<text text-anchor="middle" x="3586" y="-99.8" font-family="Times,serif" font-size="14.00">AttendanceModule</text>
</g>
<!-- AttendanceModule&#45;&gt;AppModule -->
<g id="edge3" class="edge">
<title>AttendanceModule&#45;&gt;AppModule</title>
<path fill="none" stroke="black" d="M3586,-122.04C3586,-143.66 3586,-177 3586,-177 3586,-177 2118.81,-177 2118.81,-177"/>
<polygon fill="black" stroke="black" points="2118.81,-173.5 2108.81,-177 2118.81,-180.5 2118.81,-173.5"/>
</g>
<!-- BirthdayDashboardWidgetModule -->
<g id="node5" class="node">
<title>BirthdayDashboardWidgetModule</title>
<polygon fill="#8dd3c7" stroke="black" points="3506.39,-122 3503.39,-126 3482.39,-126 3479.39,-122 3295.61,-122 3295.61,-86 3506.39,-86 3506.39,-122"/>
<text text-anchor="middle" x="3401" y="-99.8" font-family="Times,serif" font-size="14.00">BirthdayDashboardWidgetModule</text>
</g>
<!-- BirthdayDashboardWidgetModule&#45;&gt;AppModule -->
<g id="edge4" class="edge">
<title>BirthdayDashboardWidgetModule&#45;&gt;AppModule</title>
<path fill="none" stroke="black" d="M3401,-122.28C3401,-143.32 3401,-175 3401,-175 3401,-175 2118.76,-175 2118.76,-175"/>
<polygon fill="black" stroke="black" points="2118.76,-171.5 2108.76,-175 2118.76,-178.5 2118.76,-171.5"/>
</g>
<!-- ChildrenModule -->
<g id="node6" class="node">
<title>ChildrenModule</title>
<polygon fill="#8dd3c7" stroke="black" points="3278.04,-122 3275.04,-126 3254.04,-126 3251.04,-122 3169.96,-122 3169.96,-86 3278.04,-86 3278.04,-122"/>
<text text-anchor="middle" x="3224" y="-99.8" font-family="Times,serif" font-size="14.00">ChildrenModule</text>
</g>
<!-- ChildrenModule&#45;&gt;AppModule -->
<g id="edge5" class="edge">
<title>ChildrenModule&#45;&gt;AppModule</title>
<path fill="none" stroke="black" d="M3224,-122.22C3224,-142.37 3224,-172 3224,-172 3224,-172 2118.86,-172 2118.86,-172"/>
<polygon fill="black" stroke="black" points="2118.86,-168.5 2108.86,-172 2118.86,-175.5 2118.86,-168.5"/>
</g>
<!-- ConfigurableEnumModule -->
<g id="node7" class="node">
<title>ConfigurableEnumModule</title>
<polygon fill="#8dd3c7" stroke="black" points="3151.36,-122 3148.36,-126 3127.36,-126 3124.36,-122 2984.64,-122 2984.64,-86 3151.36,-86 3151.36,-122"/>
<text text-anchor="middle" x="3068" y="-99.8" font-family="Times,serif" font-size="14.00">ConfigurableEnumModule</text>
</g>
<!-- ConfigurableEnumModule&#45;&gt;AppModule -->
<g id="edge6" class="edge">
<title>ConfigurableEnumModule&#45;&gt;AppModule</title>
<path fill="none" stroke="black" d="M3068,-122.11C3068,-141.34 3068,-169 3068,-169 3068,-169 2118.74,-169 2118.74,-169"/>
<polygon fill="black" stroke="black" points="2118.74,-165.5 2108.74,-169 2118.74,-172.5 2118.74,-165.5"/>
</g>
<!-- CoreModule -->
<g id="node8" class="node">
<title>CoreModule</title>
<polygon fill="#8dd3c7" stroke="black" points="2966.26,-122 2963.26,-126 2942.26,-126 2939.26,-122 2879.74,-122 2879.74,-86 2966.26,-86 2966.26,-122"/>
<text text-anchor="middle" x="2923" y="-99.8" font-family="Times,serif" font-size="14.00">CoreModule</text>
</g>
<!-- CoreModule&#45;&gt;AppModule -->
<g id="edge7" class="edge">
<title>CoreModule&#45;&gt;AppModule</title>
<path fill="none" stroke="black" d="M2923,-122.22C2923,-140.83 2923,-167 2923,-167 2923,-167 2118.87,-167 2118.87,-167"/>
<polygon fill="black" stroke="black" points="2118.87,-163.5 2108.87,-167 2118.87,-170.5 2118.87,-163.5"/>
</g>
<!-- DatabaseModule -->
<g id="node9" class="node">
<title>DatabaseModule</title>
<polygon fill="#8dd3c7" stroke="black" points="2861.35,-122 2858.35,-126 2837.35,-126 2834.35,-122 2750.65,-122 2750.65,-86 2861.35,-86 2861.35,-122"/>
<text text-anchor="middle" x="2806" y="-99.8" font-family="Times,serif" font-size="14.00">DatabaseModule</text>
</g>
<!-- DatabaseModule&#45;&gt;AppModule -->
<g id="edge8" class="edge">
<title>DatabaseModule&#45;&gt;AppModule</title>
<path fill="none" stroke="black" d="M2806,-122C2806,-139.68 2806,-164 2806,-164 2806,-164 2118.85,-164 2118.85,-164"/>
<polygon fill="black" stroke="black" points="2118.85,-160.5 2108.85,-164 2118.85,-167.5 2118.85,-160.5"/>
</g>
<!-- EntityCountDashboardWidgetModule -->
<g id="node10" class="node">
<title>EntityCountDashboardWidgetModule</title>
<polygon fill="#8dd3c7" stroke="black" points="2732.85,-122 2729.85,-126 2708.85,-126 2705.85,-122 2503.15,-122 2503.15,-86 2732.85,-86 2732.85,-122"/>
<text text-anchor="middle" x="2618" y="-99.8" font-family="Times,serif" font-size="14.00">EntityCountDashboardWidgetModule</text>
</g>
<!-- EntityCountDashboardWidgetModule&#45;&gt;AppModule -->
<g id="edge9" class="edge">
<title>EntityCountDashboardWidgetModule&#45;&gt;AppModule</title>
<path fill="none" stroke="black" d="M2618,-122.03C2618,-139.06 2618,-162 2618,-162 2618,-162 2118.87,-162 2118.87,-162"/>
<polygon fill="black" stroke="black" points="2118.87,-158.5 2108.87,-162 2118.87,-165.5 2118.87,-158.5"/>
</g>
<!-- FileModule -->
<g id="node11" class="node">
<title>FileModule</title>
<polygon fill="#8dd3c7" stroke="black" points="2484.83,-122 2481.83,-126 2460.83,-126 2457.83,-122 2403.17,-122 2403.17,-86 2484.83,-86 2484.83,-122"/>
<text text-anchor="middle" x="2444" y="-99.8" font-family="Times,serif" font-size="14.00">FileModule</text>
</g>
<!-- FileModule&#45;&gt;AppModule -->
<g id="edge10" class="edge">
<title>FileModule&#45;&gt;AppModule</title>
<path fill="none" stroke="black" d="M2444,-122.01C2444,-138.05 2444,-159 2444,-159 2444,-159 2118.79,-159 2118.79,-159"/>
<polygon fill="black" stroke="black" points="2118.79,-155.5 2108.79,-159 2118.79,-162.5 2118.79,-155.5"/>
</g>
<!-- ImportModule -->
<g id="node12" class="node">
<title>ImportModule</title>
<polygon fill="#8dd3c7" stroke="black" points="2385.65,-122 2382.65,-126 2361.65,-126 2358.65,-122 2288.35,-122 2288.35,-86 2385.65,-86 2385.65,-122"/>
<text text-anchor="middle" x="2337" y="-99.8" font-family="Times,serif" font-size="14.00">ImportModule</text>
</g>
<!-- ImportModule&#45;&gt;AppModule -->
<g id="edge11" class="edge">
<title>ImportModule&#45;&gt;AppModule</title>
<path fill="none" stroke="black" d="M2337,-122.24C2337,-137.57 2337,-157 2337,-157 2337,-157 2118.89,-157 2118.89,-157"/>
<polygon fill="black" stroke="black" points="2118.89,-153.5 2108.89,-157 2118.89,-160.5 2118.89,-153.5"/>
</g>
<!-- LanguageModule -->
<g id="node13" class="node">
<title>LanguageModule</title>
<polygon fill="#8dd3c7" stroke="black" points="2270.25,-122 2267.25,-126 2246.25,-126 2243.25,-122 2155.75,-122 2155.75,-86 2270.25,-86 2270.25,-122"/>
<text text-anchor="middle" x="2213" y="-99.8" font-family="Times,serif" font-size="14.00">LanguageModule</text>
</g>
<!-- LanguageModule&#45;&gt;AppModule -->
<g id="edge12" class="edge">
<title>LanguageModule&#45;&gt;AppModule</title>
<path fill="none" stroke="black" d="M2213,-122.05C2213,-136.37 2213,-154 2213,-154 2213,-154 2118.84,-154 2118.84,-154"/>
<polygon fill="black" stroke="black" points="2118.84,-150.5 2108.84,-154 2118.84,-157.5 2118.84,-150.5"/>
</g>
<!-- LatestChangesModule -->
<g id="node14" class="node">
<title>LatestChangesModule</title>
<polygon fill="#8dd3c7" stroke="black" points="2137.97,-122 2134.97,-126 2113.97,-126 2110.97,-122 1996.03,-122 1996.03,-86 2137.97,-86 2137.97,-122"/>
<text text-anchor="middle" x="2067" y="-99.8" font-family="Times,serif" font-size="14.00">LatestChangesModule</text>
</g>
<!-- LatestChangesModule&#45;&gt;AppModule -->
<g id="edge13" class="edge">
<title>LatestChangesModule&#45;&gt;AppModule</title>
<path fill="none" stroke="black" d="M2067,-122.11C2067,-122.11 2067,-140.99 2067,-140.99"/>
<polygon fill="black" stroke="black" points="2063.5,-140.99 2067,-150.99 2070.5,-140.99 2063.5,-140.99"/>
</g>
<!-- LocationModule -->
<g id="node15" class="node">
<title>LocationModule</title>
<polygon fill="#8dd3c7" stroke="black" points="1977.81,-122 1974.81,-126 1953.81,-126 1950.81,-122 1868.19,-122 1868.19,-86 1977.81,-86 1977.81,-122"/>
<text text-anchor="middle" x="1923" y="-99.8" font-family="Times,serif" font-size="14.00">LocationModule</text>
</g>
<!-- LocationModule&#45;&gt;AppModule -->
<g id="edge14" class="edge">
<title>LocationModule&#45;&gt;AppModule</title>
<path fill="none" stroke="black" d="M1923,-122.05C1923,-136.37 1923,-154 1923,-154 1923,-154 2014.96,-154 2014.96,-154"/>
<polygon fill="black" stroke="black" points="2014.96,-157.5 2024.96,-154 2014.96,-150.5 2014.96,-157.5"/>
</g>
<!-- MarkdownPageModule -->
<g id="node16" class="node">
<title>MarkdownPageModule</title>
<polygon fill="#8dd3c7" stroke="black" points="1850.19,-122 1847.19,-126 1826.19,-126 1823.19,-122 1701.81,-122 1701.81,-86 1850.19,-86 1850.19,-122"/>
<text text-anchor="middle" x="1776" y="-99.8" font-family="Times,serif" font-size="14.00">MarkdownPageModule</text>
</g>
<!-- MarkdownPageModule&#45;&gt;AppModule -->
<g id="edge15" class="edge">
<title>MarkdownPageModule&#45;&gt;AppModule</title>
<path fill="none" stroke="black" d="M1776,-122.24C1776,-137.57 1776,-157 1776,-157 1776,-157 2015.31,-157 2015.31,-157"/>
<polygon fill="black" stroke="black" points="2015.31,-160.5 2025.31,-157 2015.31,-153.5 2015.31,-160.5"/>
</g>
<!-- MatchingEntitiesModule -->
<g id="node17" class="node">
<title>MatchingEntitiesModule</title>
<polygon fill="#8dd3c7" stroke="black" points="1683.98,-122 1680.98,-126 1659.98,-126 1656.98,-122 1528.02,-122 1528.02,-86 1683.98,-86 1683.98,-122"/>
<text text-anchor="middle" x="1606" y="-99.8" font-family="Times,serif" font-size="14.00">MatchingEntitiesModule</text>
</g>
<!-- MatchingEntitiesModule&#45;&gt;AppModule -->
<g id="edge16" class="edge">
<title>MatchingEntitiesModule&#45;&gt;AppModule</title>
<path fill="none" stroke="black" d="M1606,-122.01C1606,-138.05 1606,-159 1606,-159 1606,-159 2015.28,-159 2015.28,-159"/>
<polygon fill="black" stroke="black" points="2015.28,-162.5 2025.28,-159 2015.28,-155.5 2015.28,-162.5"/>
</g>
<!-- NotesModule -->
<g id="node18" class="node">
<title>NotesModule</title>
<polygon fill="#8dd3c7" stroke="black" points="1510.21,-122 1507.21,-126 1486.21,-126 1483.21,-122 1417.79,-122 1417.79,-86 1510.21,-86 1510.21,-122"/>
<text text-anchor="middle" x="1464" y="-99.8" font-family="Times,serif" font-size="14.00">NotesModule</text>
</g>
<!-- NotesModule&#45;&gt;AppModule -->
<g id="edge17" class="edge">
<title>NotesModule&#45;&gt;AppModule</title>
<path fill="none" stroke="black" d="M1464,-122.03C1464,-139.06 1464,-162 1464,-162 1464,-162 2015.08,-162 2015.08,-162"/>
<polygon fill="black" stroke="black" points="2015.08,-165.5 2025.08,-162 2015.08,-158.5 2015.08,-165.5"/>
</g>
<!-- PermissionsModule -->
<g id="node19" class="node">
<title>PermissionsModule</title>
<polygon fill="#8dd3c7" stroke="black" points="1399.71,-122 1396.71,-126 1375.71,-126 1372.71,-122 1272.29,-122 1272.29,-86 1399.71,-86 1399.71,-122"/>
<text text-anchor="middle" x="1336" y="-99.8" font-family="Times,serif" font-size="14.00">PermissionsModule</text>
</g>
<!-- PermissionsModule&#45;&gt;AppModule -->
<g id="edge18" class="edge">
<title>PermissionsModule&#45;&gt;AppModule</title>
<path fill="none" stroke="black" d="M1336,-122C1336,-139.68 1336,-164 1336,-164 1336,-164 2015.34,-164 2015.34,-164"/>
<polygon fill="black" stroke="black" points="2015.34,-167.5 2025.34,-164 2015.34,-160.5 2015.34,-167.5"/>
</g>
<!-- ProgressDashboardWidgetModule -->
<g id="node20" class="node">
<title>ProgressDashboardWidgetModule</title>
<polygon fill="#8dd3c7" stroke="black" points="1254.61,-122 1251.61,-126 1230.61,-126 1227.61,-122 1045.39,-122 1045.39,-86 1254.61,-86 1254.61,-122"/>
<text text-anchor="middle" x="1150" y="-99.8" font-family="Times,serif" font-size="14.00">ProgressDashboardWidgetModule</text>
</g>
<!-- ProgressDashboardWidgetModule&#45;&gt;AppModule -->
<g id="edge19" class="edge">
<title>ProgressDashboardWidgetModule&#45;&gt;AppModule</title>
<path fill="none" stroke="black" d="M1150,-122.22C1150,-140.83 1150,-167 1150,-167 1150,-167 2015.22,-167 2015.22,-167"/>
<polygon fill="black" stroke="black" points="2015.22,-170.5 2025.22,-167 2015.22,-163.5 2015.22,-170.5"/>
</g>
<!-- PublicFormModule -->
<g id="node21" class="node">
<title>PublicFormModule</title>
<polygon fill="#8dd3c7" stroke="black" points="1026.66,-122 1023.66,-126 1002.66,-126 999.66,-122 901.34,-122 901.34,-86 1026.66,-86 1026.66,-122"/>
<text text-anchor="middle" x="964" y="-99.8" font-family="Times,serif" font-size="14.00">PublicFormModule</text>
</g>
<!-- PublicFormModule&#45;&gt;AppModule -->
<g id="edge20" class="edge">
<title>PublicFormModule&#45;&gt;AppModule</title>
<path fill="none" stroke="black" d="M964,-122.11C964,-141.34 964,-169 964,-169 964,-169 2015.11,-169 2015.11,-169"/>
<polygon fill="black" stroke="black" points="2015.11,-172.5 2025.11,-169 2015.11,-165.5 2015.11,-172.5"/>
</g>
<!-- ReportingModule -->
<g id="node22" class="node">
<title>ReportingModule</title>
<polygon fill="#8dd3c7" stroke="black" points="882.54,-122 879.54,-126 858.54,-126 855.54,-122 767.46,-122 767.46,-86 882.54,-86 882.54,-122"/>
<text text-anchor="middle" x="825" y="-99.8" font-family="Times,serif" font-size="14.00">ReportingModule</text>
</g>
<!-- ReportingModule&#45;&gt;AppModule -->
<g id="edge21" class="edge">
<title>ReportingModule&#45;&gt;AppModule</title>
<path fill="none" stroke="black" d="M825,-122.22C825,-142.37 825,-172 825,-172 825,-172 2015.32,-172 2015.32,-172"/>
<polygon fill="black" stroke="black" points="2015.32,-175.5 2025.32,-172 2015.32,-168.5 2015.32,-175.5"/>
</g>
<!-- SessionModule -->
<g id="node23" class="node">
<title>SessionModule</title>
<polygon fill="#8dd3c7" stroke="black" points="749.33,-122 746.33,-126 725.33,-126 722.33,-122 646.67,-122 646.67,-86 749.33,-86 749.33,-122"/>
<text text-anchor="middle" x="698" y="-99.8" font-family="Times,serif" font-size="14.00">SessionModule</text>
</g>
<!-- SessionModule&#45;&gt;AppModule -->
<g id="edge22" class="edge">
<title>SessionModule&#45;&gt;AppModule</title>
<path fill="none" stroke="black" d="M698,-122.28C698,-143.32 698,-175 698,-175 698,-175 2015.28,-175 2015.28,-175"/>
<polygon fill="black" stroke="black" points="2015.28,-178.5 2025.28,-175 2015.28,-171.5 2015.28,-178.5"/>
</g>
<!-- ShortcutDashboardWidgetModule -->
<g id="node24" class="node">
<title>ShortcutDashboardWidgetModule</title>
<polygon fill="#8dd3c7" stroke="black" points="628.34,-122 625.34,-126 604.34,-126 601.34,-122 419.66,-122 419.66,-86 628.34,-86 628.34,-122"/>
<text text-anchor="middle" x="524" y="-99.8" font-family="Times,serif" font-size="14.00">ShortcutDashboardWidgetModule</text>
</g>
<!-- ShortcutDashboardWidgetModule&#45;&gt;AppModule -->
<g id="edge23" class="edge">
<title>ShortcutDashboardWidgetModule&#45;&gt;AppModule</title>
<path fill="none" stroke="black" d="M524,-122.04C524,-143.66 524,-177 524,-177 524,-177 2015.33,-177 2015.33,-177"/>
<polygon fill="black" stroke="black" points="2015.33,-180.5 2025.33,-177 2015.33,-173.5 2015.33,-180.5"/>
</g>
<!-- TemplateExportModule -->
<g id="node25" class="node">
<title>TemplateExportModule</title>
<polygon fill="#8dd3c7" stroke="black" points="401.02,-122 398.02,-126 377.02,-126 374.02,-122 250.98,-122 250.98,-86 401.02,-86 401.02,-122"/>
<text text-anchor="middle" x="326" y="-99.8" font-family="Times,serif" font-size="14.00">TemplateExportModule</text>
</g>
<!-- TemplateExportModule&#45;&gt;AppModule -->
<g id="edge24" class="edge">
<title>TemplateExportModule&#45;&gt;AppModule</title>
<path fill="none" stroke="black" d="M326,-122.01C326,-144.49 326,-180 326,-180 326,-180 2015.25,-180 2015.25,-180"/>
<polygon fill="black" stroke="black" points="2015.25,-183.5 2025.25,-180 2015.25,-176.5 2015.25,-183.5"/>
</g>
<!-- TodosModule -->
<g id="node26" class="node">
<title>TodosModule</title>
<polygon fill="#8dd3c7" stroke="black" points="232.05,-122 229.05,-126 208.05,-126 205.05,-122 137.95,-122 137.95,-86 232.05,-86 232.05,-122"/>
<text text-anchor="middle" x="185" y="-99.8" font-family="Times,serif" font-size="14.00">TodosModule</text>
</g>
<!-- TodosModule&#45;&gt;AppModule -->
<g id="edge25" class="edge">
<title>TodosModule&#45;&gt;AppModule</title>
<path fill="none" stroke="black" d="M185,-122.09C185,-145.13 185,-182 185,-182 185,-182 2015.05,-182 2015.05,-182"/>
<polygon fill="black" stroke="black" points="2015.05,-185.5 2025.05,-182 2015.05,-178.5 2015.05,-185.5"/>
</g>
<!-- UiComponent -->
<g id="node27" class="node">
<title>UiComponent</title>
<polygon fill="#8dd3c7" stroke="black" points="119.83,-122 116.83,-126 95.83,-126 92.83,-122 24.17,-122 24.17,-86 119.83,-86 119.83,-122"/>
<text text-anchor="middle" x="72" y="-99.8" font-family="Times,serif" font-size="14.00">UiComponent</text>
</g>
<!-- UiComponent&#45;&gt;AppModule -->
<g id="edge26" class="edge">
<title>UiComponent&#45;&gt;AppModule</title>
<path fill="none" stroke="black" d="M72,-122.38C72,-146.28 72,-185 72,-185 72,-185 2015.33,-185 2015.33,-185"/>
<polygon fill="black" stroke="black" points="2015.33,-188.5 2025.33,-185 2015.33,-181.5 2015.33,-188.5"/>
</g>
<!-- AnalyticsService -->
<g id="node29" class="node">
<title>AnalyticsService</title>
<ellipse fill="#fdb462" stroke="black" cx="3865" cy="-104" rx="77" ry="18"/>
<text text-anchor="middle" x="3865" y="-99.8" font-family="Times,serif" font-size="14.00">AnalyticsService</text>
</g>
<!-- AnalyticsService&#45;&gt;AppModule -->
<g id="edge28" class="edge">
<title>AnalyticsService&#45;&gt;AppModule</title>
<path fill="none" stroke="black" d="M3865,-122.09C3865,-145.13 3865,-182 3865,-182 3865,-182 2118.8,-182 2118.8,-182"/>
<polygon fill="black" stroke="black" points="2118.8,-178.5 2108.8,-182 2118.8,-185.5 2118.8,-178.5"/>
</g>
</g>
</svg>
