<?xml version="1.0" encoding="UTF-8" standalone="no"?>
<!DOCTYPE svg PUBLIC "-//W3C//DTD SVG 1.1//EN"
 "http://www.w3.org/Graphics/SVG/1.1/DTD/svg11.dtd">
<!-- Generated by graphviz version 2.47.0 (20210316.0004)
 -->
<!-- Title: dependencies Pages: 1 -->
<svg width="5722pt" height="284pt"
 viewBox="0.00 0.00 5722.00 284.00" xmlns="http://www.w3.org/2000/svg" xmlns:xlink="http://www.w3.org/1999/xlink">
<g id="graph0" class="graph" transform="scale(1 1) rotate(0) translate(4 280)">
<title>dependencies</title>
<polygon fill="white" stroke="transparent" points="-4,4 -4,-280 5718,-280 5718,4 -4,4"/>
<text text-anchor="start" x="2836.01" y="-42.4" font-family="Times-12" font-weight="bold" font-size="14.00">Legend</text>
<polygon fill="#ffffb3" stroke="transparent" points="2623,-10 2623,-30 2643,-30 2643,-10 2623,-10"/>
<text text-anchor="start" x="2646.63" y="-15.4" font-family="Times-12" font-size="14.00"> &#160;Declarations</text>
<polygon fill="#8dd3c7" stroke="transparent" points="2736,-10 2736,-30 2756,-30 2756,-10 2736,-10"/>
<text text-anchor="start" x="2759.73" y="-15.4" font-family="Times-12" font-size="14.00"> &#160;Module</text>
<polygon fill="#80b1d3" stroke="transparent" points="2822,-10 2822,-30 2842,-30 2842,-10 2822,-10"/>
<text text-anchor="start" x="2845.78" y="-15.4" font-family="Times-12" font-size="14.00"> &#160;Bootstrap</text>
<polygon fill="#fdb462" stroke="transparent" points="2919,-10 2919,-30 2939,-30 2939,-10 2919,-10"/>
<text text-anchor="start" x="2942.67" y="-15.4" font-family="Times-12" font-size="14.00"> &#160;Providers</text>
<polygon fill="#fb8072" stroke="transparent" points="3015,-10 3015,-30 3035,-30 3035,-10 3015,-10"/>
<text text-anchor="start" x="3038.73" y="-15.4" font-family="Times-12" font-size="14.00"> &#160;Exports</text>
<g id="clust1" class="cluster">
<title>cluster_AppModule</title>
<polygon fill="none" stroke="black" stroke-dasharray="1,5" points="8,-70 8,-268 5706,-268 5706,-70 8,-70"/>
</g>
<g id="clust2" class="cluster">
<title>cluster_AppModule_declarations</title>
<polygon fill="none" stroke="black" points="5576,-78 5576,-130 5698,-130 5698,-78 5576,-78"/>
</g>
<g id="clust4" class="cluster">
<title>cluster_AppModule_imports</title>
<polygon fill="none" stroke="black" points="874,-78 874,-130 5568,-130 5568,-78 874,-78"/>
</g>
<g id="clust6" class="cluster">
<title>cluster_AppModule_bootstrap</title>
<polygon fill="none" stroke="black" points="2894,-208 2894,-260 3018,-260 3018,-208 2894,-208"/>
</g>
<g id="clust7" class="cluster">
<title>cluster_AppModule_providers</title>
<polygon fill="none" stroke="black" points="16,-78 16,-130 866,-130 866,-78 16,-78"/>
</g>
<!-- AppComponent -->
<g id="node1" class="node">
<title>AppComponent</title>
<polygon fill="#ffffb3" stroke="black" points="5689.94,-122 5584.06,-122 5584.06,-86 5689.94,-86 5689.94,-122"/>
<text text-anchor="middle" x="5637" y="-99.8" font-family="Times,serif" font-size="14.00">AppComponent</text>
</g>
<!-- AppModule -->
<g id="node2" class="node">
<title>AppModule</title>
<polygon fill="#8dd3c7" stroke="black" points="2997.66,-187 2994.66,-191 2973.66,-191 2970.66,-187 2914.34,-187 2914.34,-151 2997.66,-151 2997.66,-187"/>
<text text-anchor="middle" x="2956" y="-164.8" font-family="Times,serif" font-size="14.00">AppModule</text>
</g>
<!-- AppComponent&#45;&gt;AppModule -->
<g id="edge1" class="edge">
<title>AppComponent&#45;&gt;AppModule</title>
<path fill="none" stroke="black" d="M5637,-122.38C5637,-146.28 5637,-185 5637,-185 5637,-185 3007.84,-185 3007.84,-185"/>
<polygon fill="black" stroke="black" points="3007.84,-181.5 2997.84,-185 3007.84,-188.5 3007.84,-181.5"/>
</g>
<!-- AppComponent  -->
<g id="node34" class="node">
<title>AppComponent </title>
<polygon fill="#80b1d3" stroke="black" points="3010.44,-252 2901.56,-252 2901.56,-216 3010.44,-216 3010.44,-252"/>
<text text-anchor="middle" x="2956" y="-229.8" font-family="Times,serif" font-size="14.00">AppComponent </text>
</g>
<!-- AppModule&#45;&gt;AppComponent  -->
<g id="edge33" class="edge">
<title>AppModule&#45;&gt;AppComponent </title>
<path fill="none" stroke="black" stroke-dasharray="1,5" d="M2956,-187.11C2956,-187.11 2956,-205.99 2956,-205.99"/>
<polygon fill="black" stroke="black" points="2952.5,-205.99 2956,-215.99 2959.5,-205.99 2952.5,-205.99"/>
</g>
<!-- AdminModule -->
<g id="node3" class="node">
<title>AdminModule</title>
<polygon fill="#8dd3c7" stroke="black" points="5560.44,-122 5557.44,-126 5536.44,-126 5533.44,-122 5461.56,-122 5461.56,-86 5560.44,-86 5560.44,-122"/>
<text text-anchor="middle" x="5511" y="-99.8" font-family="Times,serif" font-size="14.00">AdminModule</text>
</g>
<!-- AdminModule&#45;&gt;AppModule -->
<g id="edge2" class="edge">
<title>AdminModule&#45;&gt;AppModule</title>
<path fill="none" stroke="black" d="M5511,-122.32C5511,-145.66 5511,-183 5511,-183 5511,-183 3007.69,-183 3007.69,-183"/>
<polygon fill="black" stroke="black" points="3007.69,-179.5 2997.69,-183 3007.69,-186.5 3007.69,-179.5"/>
</g>
<!-- ApplicationLoadingComponent -->
<g id="node4" class="node">
<title>ApplicationLoadingComponent</title>
<polygon fill="#8dd3c7" stroke="black" points="5444.09,-122 5441.09,-126 5420.09,-126 5417.09,-122 5249.91,-122 5249.91,-86 5444.09,-86 5444.09,-122"/>
<text text-anchor="middle" x="5347" y="-99.8" font-family="Times,serif" font-size="14.00">ApplicationLoadingComponent</text>
</g>
<!-- ApplicationLoadingComponent&#45;&gt;AppModule -->
<g id="edge3" class="edge">
<title>ApplicationLoadingComponent&#45;&gt;AppModule</title>
<path fill="none" stroke="black" d="M5347,-122.25C5347,-145.02 5347,-181 5347,-181 5347,-181 3007.75,-181 3007.75,-181"/>
<polygon fill="black" stroke="black" points="3007.75,-177.5 2997.75,-181 3007.75,-184.5 3007.75,-177.5"/>
</g>
<!-- AttendanceModule -->
<g id="node5" class="node">
<title>AttendanceModule</title>
<polygon fill="#8dd3c7" stroke="black" points="5231.8,-122 5228.8,-126 5207.8,-126 5204.8,-122 5108.2,-122 5108.2,-86 5231.8,-86 5231.8,-122"/>
<text text-anchor="middle" x="5170" y="-99.8" font-family="Times,serif" font-size="14.00">AttendanceModule</text>
</g>
<!-- AttendanceModule&#45;&gt;AppModule -->
<g id="edge4" class="edge">
<title>AttendanceModule&#45;&gt;AppModule</title>
<path fill="none" stroke="black" d="M5170,-122.16C5170,-144.35 5170,-179 5170,-179 5170,-179 3007.76,-179 3007.76,-179"/>
<polygon fill="black" stroke="black" points="3007.76,-175.5 2997.76,-179 3007.76,-182.5 3007.76,-175.5"/>
</g>
<!-- BirthdayDashboardWidgetModule -->
<g id="node6" class="node">
<title>BirthdayDashboardWidgetModule</title>
<polygon fill="#8dd3c7" stroke="black" points="5090.39,-122 5087.39,-126 5066.39,-126 5063.39,-122 4879.61,-122 4879.61,-86 5090.39,-86 5090.39,-122"/>
<text text-anchor="middle" x="4985" y="-99.8" font-family="Times,serif" font-size="14.00">BirthdayDashboardWidgetModule</text>
</g>
<!-- BirthdayDashboardWidgetModule&#45;&gt;AppModule -->
<g id="edge5" class="edge">
<title>BirthdayDashboardWidgetModule&#45;&gt;AppModule</title>
<path fill="none" stroke="black" d="M4985,-122.04C4985,-143.66 4985,-177 4985,-177 4985,-177 3007.91,-177 3007.91,-177"/>
<polygon fill="black" stroke="black" points="3007.91,-173.5 2997.91,-177 3007.91,-180.5 3007.91,-173.5"/>
</g>
<!-- BulkEditModule -->
<g id="node7" class="node">
<title>BulkEditModule</title>
<polygon fill="#8dd3c7" stroke="black" points="4862.11,-122 4859.11,-126 4838.11,-126 4835.11,-122 4751.89,-122 4751.89,-86 4862.11,-86 4862.11,-122"/>
<text text-anchor="middle" x="4807" y="-99.8" font-family="Times,serif" font-size="14.00">BulkEditModule</text>
</g>
<!-- BulkEditModule&#45;&gt;AppModule -->
<g id="edge6" class="edge">
<title>BulkEditModule&#45;&gt;AppModule</title>
<path fill="none" stroke="black" d="M4807,-122.28C4807,-143.32 4807,-175 4807,-175 4807,-175 3007.7,-175 3007.7,-175"/>
<polygon fill="black" stroke="black" points="3007.7,-171.5 2997.7,-175 3007.7,-178.5 3007.7,-171.5"/>
</g>
<!-- ChildrenModule -->
<g id="node8" class="node">
<title>ChildrenModule</title>
<polygon fill="#8dd3c7" stroke="black" points="4734.04,-122 4731.04,-126 4710.04,-126 4707.04,-122 4625.96,-122 4625.96,-86 4734.04,-86 4734.04,-122"/>
<text text-anchor="middle" x="4680" y="-99.8" font-family="Times,serif" font-size="14.00">ChildrenModule</text>
</g>
<!-- ChildrenModule&#45;&gt;AppModule -->
<g id="edge7" class="edge">
<title>ChildrenModule&#45;&gt;AppModule</title>
<path fill="none" stroke="black" d="M4680,-122.13C4680,-142.57 4680,-173 4680,-173 4680,-173 3007.76,-173 3007.76,-173"/>
<polygon fill="black" stroke="black" points="3007.76,-169.5 2997.76,-173 3007.76,-176.5 3007.76,-169.5"/>
</g>
<!-- ConfigurableEnumModule -->
<g id="node9" class="node">
<title>ConfigurableEnumModule</title>
<polygon fill="#8dd3c7" stroke="black" points="4607.36,-122 4604.36,-126 4583.36,-126 4580.36,-122 4440.64,-122 4440.64,-86 4607.36,-86 4607.36,-122"/>
<text text-anchor="middle" x="4524" y="-99.8" font-family="Times,serif" font-size="14.00">ConfigurableEnumModule</text>
</g>
<!-- ConfigurableEnumModule&#45;&gt;AppModule -->
<g id="edge8" class="edge">
<title>ConfigurableEnumModule&#45;&gt;AppModule</title>
<path fill="none" stroke="black" d="M4524,-122.31C4524,-142.15 4524,-171 4524,-171 4524,-171 3007.94,-171 3007.94,-171"/>
<polygon fill="black" stroke="black" points="3007.94,-167.5 2997.94,-171 3007.94,-174.5 3007.94,-167.5"/>
</g>
<!-- CoreModule -->
<g id="node10" class="node">
<title>CoreModule</title>
<polygon fill="#8dd3c7" stroke="black" points="4422.26,-122 4419.26,-126 4398.26,-126 4395.26,-122 4335.74,-122 4335.74,-86 4422.26,-86 4422.26,-122"/>
<text text-anchor="middle" x="4379" y="-99.8" font-family="Times,serif" font-size="14.00">CoreModule</text>
</g>
<!-- CoreModule&#45;&gt;AppModule -->
<g id="edge9" class="edge">
<title>CoreModule&#45;&gt;AppModule</title>
<path fill="none" stroke="black" d="M4379,-122.11C4379,-141.34 4379,-169 4379,-169 4379,-169 3007.82,-169 3007.82,-169"/>
<polygon fill="black" stroke="black" points="3007.82,-165.5 2997.82,-169 3007.82,-172.5 3007.82,-165.5"/>
</g>
<!-- DashboardModule -->
<g id="node11" class="node">
<title>DashboardModule</title>
<polygon fill="#8dd3c7" stroke="black" points="4318.19,-122 4315.19,-126 4294.19,-126 4291.19,-122 4197.81,-122 4197.81,-86 4318.19,-86 4318.19,-122"/>
<text text-anchor="middle" x="4258" y="-99.8" font-family="Times,serif" font-size="14.00">DashboardModule</text>
</g>
<!-- DashboardModule&#45;&gt;AppModule -->
<g id="edge10" class="edge">
<title>DashboardModule&#45;&gt;AppModule</title>
<path fill="none" stroke="black" d="M4258,-122.22C4258,-140.83 4258,-167 4258,-167 4258,-167 3007.85,-167 3007.85,-167"/>
<polygon fill="black" stroke="black" points="3007.85,-163.5 2997.85,-167 3007.85,-170.5 3007.85,-163.5"/>
</g>
<!-- DeDuplicationModule -->
<g id="node12" class="node">
<title>DeDuplicationModule</title>
<polygon fill="#8dd3c7" stroke="black" points="4179.97,-122 4176.97,-126 4155.97,-126 4152.97,-122 4038.03,-122 4038.03,-86 4179.97,-86 4179.97,-122"/>
<text text-anchor="middle" x="4109" y="-99.8" font-family="Times,serif" font-size="14.00">DeDuplicationModule</text>
</g>
<!-- DeDuplicationModule&#45;&gt;AppModule -->
<g id="edge11" class="edge">
<title>DeDuplicationModule&#45;&gt;AppModule</title>
<path fill="none" stroke="black" d="M4109,-122.3C4109,-140.27 4109,-165 4109,-165 4109,-165 3007.72,-165 3007.72,-165"/>
<polygon fill="black" stroke="black" points="3007.72,-161.5 2997.72,-165 3007.72,-168.5 3007.72,-161.5"/>
</g>
<!-- DemoDataModule -->
<g id="node13" class="node">
<title>DemoDataModule</title>
<polygon fill="#8dd3c7" stroke="black" points="4020.19,-122 4017.19,-126 3996.19,-126 3993.19,-122 3899.81,-122 3899.81,-86 4020.19,-86 4020.19,-122"/>
<text text-anchor="middle" x="3960" y="-99.8" font-family="Times,serif" font-size="14.00">DemoDataModule</text>
</g>
<!-- DemoDataModule&#45;&gt;AppModule -->
<g id="edge12" class="edge">
<title>DemoDataModule&#45;&gt;AppModule</title>
<path fill="none" stroke="black" d="M3960,-122.02C3960,-139.37 3960,-163 3960,-163 3960,-163 3007.86,-163 3007.86,-163"/>
<polygon fill="black" stroke="black" points="3007.86,-159.5 2997.86,-163 3007.86,-166.5 3007.86,-159.5"/>
</g>
<!-- EmailClientServiceModule -->
<g id="node14" class="node">
<title>EmailClientServiceModule</title>
<polygon fill="#8dd3c7" stroke="black" points="3881.69,-122 3878.69,-126 3857.69,-126 3854.69,-122 3712.31,-122 3712.31,-86 3881.69,-86 3881.69,-122"/>
<text text-anchor="middle" x="3797" y="-99.8" font-family="Times,serif" font-size="14.00">EmailClientServiceModule</text>
</g>
<!-- EmailClientServiceModule&#45;&gt;AppModule -->
<g id="edge13" class="edge">
<title>EmailClientServiceModule&#45;&gt;AppModule</title>
<path fill="none" stroke="black" d="M3797,-122.04C3797,-138.73 3797,-161 3797,-161 3797,-161 3007.71,-161 3007.71,-161"/>
<polygon fill="black" stroke="black" points="3007.71,-157.5 2997.71,-161 3007.71,-164.5 3007.71,-157.5"/>
</g>
<!-- EntityCountDashboardWidgetModule -->
<g id="node15" class="node">
<title>EntityCountDashboardWidgetModule</title>
<polygon fill="#8dd3c7" stroke="black" points="3693.85,-122 3690.85,-126 3669.85,-126 3666.85,-122 3464.15,-122 3464.15,-86 3693.85,-86 3693.85,-122"/>
<text text-anchor="middle" x="3579" y="-99.8" font-family="Times,serif" font-size="14.00">EntityCountDashboardWidgetModule</text>
</g>
<!-- EntityCountDashboardWidgetModule&#45;&gt;AppModule -->
<g id="edge14" class="edge">
<title>EntityCountDashboardWidgetModule&#45;&gt;AppModule</title>
<path fill="none" stroke="black" d="M3579,-122.01C3579,-138.05 3579,-159 3579,-159 3579,-159 3007.84,-159 3007.84,-159"/>
<polygon fill="black" stroke="black" points="3007.84,-155.5 2997.84,-159 3007.84,-162.5 3007.84,-155.5"/>
</g>
<!-- FileModule -->
<g id="node16" class="node">
<title>FileModule</title>
<polygon fill="#8dd3c7" stroke="black" points="3445.83,-122 3442.83,-126 3421.83,-126 3418.83,-122 3364.17,-122 3364.17,-86 3445.83,-86 3445.83,-122"/>
<text text-anchor="middle" x="3405" y="-99.8" font-family="Times,serif" font-size="14.00">FileModule</text>
</g>
<!-- FileModule&#45;&gt;AppModule -->
<g id="edge15" class="edge">
<title>FileModule&#45;&gt;AppModule</title>
<path fill="none" stroke="black" d="M3405,-122.24C3405,-137.57 3405,-157 3405,-157 3405,-157 3007.84,-157 3007.84,-157"/>
<polygon fill="black" stroke="black" points="3007.84,-153.5 2997.84,-157 3007.84,-160.5 3007.84,-153.5"/>
</g>
<!-- ImportModule -->
<g id="node17" class="node">
<title>ImportModule</title>
<polygon fill="#8dd3c7" stroke="black" points="3346.65,-122 3343.65,-126 3322.65,-126 3319.65,-122 3249.35,-122 3249.35,-86 3346.65,-86 3346.65,-122"/>
<text text-anchor="middle" x="3298" y="-99.8" font-family="Times,serif" font-size="14.00">ImportModule</text>
</g>
<!-- ImportModule&#45;&gt;AppModule -->
<g id="edge16" class="edge">
<title>ImportModule&#45;&gt;AppModule</title>
<path fill="none" stroke="black" d="M3298,-122.12C3298,-136.78 3298,-155 3298,-155 3298,-155 3007.94,-155 3007.94,-155"/>
<polygon fill="black" stroke="black" points="3007.94,-151.5 2997.94,-155 3007.94,-158.5 3007.94,-151.5"/>
</g>
<!-- LanguageModule -->
<g id="node18" class="node">
<title>LanguageModule</title>
<polygon fill="#8dd3c7" stroke="black" points="3231.25,-122 3228.25,-126 3207.25,-126 3204.25,-122 3116.75,-122 3116.75,-86 3231.25,-86 3231.25,-122"/>
<text text-anchor="middle" x="3174" y="-99.8" font-family="Times,serif" font-size="14.00">LanguageModule</text>
</g>
<!-- LanguageModule&#45;&gt;AppModule -->
<g id="edge17" class="edge">
<title>LanguageModule&#45;&gt;AppModule</title>
<path fill="none" stroke="black" d="M3174,-122.25C3174,-136.18 3174,-153 3174,-153 3174,-153 3007.77,-153 3007.77,-153"/>
<polygon fill="black" stroke="black" points="3007.77,-149.5 2997.77,-153 3007.77,-156.5 3007.77,-149.5"/>
</g>
<!-- LatestChangesModule -->
<g id="node19" class="node">
<title>LatestChangesModule</title>
<polygon fill="#8dd3c7" stroke="black" points="3098.97,-122 3095.97,-126 3074.97,-126 3071.97,-122 2957.03,-122 2957.03,-86 3098.97,-86 3098.97,-122"/>
<text text-anchor="middle" x="3028" y="-99.8" font-family="Times,serif" font-size="14.00">LatestChangesModule</text>
</g>
<!-- LatestChangesModule&#45;&gt;AppModule -->
<g id="edge18" class="edge">
<title>LatestChangesModule&#45;&gt;AppModule</title>
<path fill="none" stroke="black" d="M2977.42,-122.11C2977.42,-122.11 2977.42,-140.99 2977.42,-140.99"/>
<polygon fill="black" stroke="black" points="2973.92,-140.99 2977.42,-150.99 2980.92,-140.99 2973.92,-140.99"/>
</g>
<!-- LocationModule -->
<g id="node20" class="node">
<title>LocationModule</title>
<polygon fill="#8dd3c7" stroke="black" points="2938.81,-122 2935.81,-126 2914.81,-126 2911.81,-122 2829.19,-122 2829.19,-86 2938.81,-86 2938.81,-122"/>
<text text-anchor="middle" x="2884" y="-99.8" font-family="Times,serif" font-size="14.00">LocationModule</text>
</g>
<!-- LocationModule&#45;&gt;AppModule -->
<g id="edge19" class="edge">
<title>LocationModule&#45;&gt;AppModule</title>
<path fill="none" stroke="black" d="M2926.41,-122.11C2926.41,-122.11 2926.41,-140.99 2926.41,-140.99"/>
<polygon fill="black" stroke="black" points="2922.91,-140.99 2926.41,-150.99 2929.91,-140.99 2922.91,-140.99"/>
</g>
<!-- MarkdownPageModule -->
<g id="node21" class="node">
<title>MarkdownPageModule</title>
<polygon fill="#8dd3c7" stroke="black" points="2811.19,-122 2808.19,-126 2787.19,-126 2784.19,-122 2662.81,-122 2662.81,-86 2811.19,-86 2811.19,-122"/>
<text text-anchor="middle" x="2737" y="-99.8" font-family="Times,serif" font-size="14.00">MarkdownPageModule</text>
</g>
<!-- MarkdownPageModule&#45;&gt;AppModule -->
<g id="edge20" class="edge">
<title>MarkdownPageModule&#45;&gt;AppModule</title>
<path fill="none" stroke="black" d="M2737,-122.25C2737,-136.18 2737,-153 2737,-153 2737,-153 2904.29,-153 2904.29,-153"/>
<polygon fill="black" stroke="black" points="2904.29,-156.5 2914.29,-153 2904.29,-149.5 2904.29,-156.5"/>
</g>
<!-- MatchingEntitiesModule -->
<g id="node22" class="node">
<title>MatchingEntitiesModule</title>
<polygon fill="#8dd3c7" stroke="black" points="2644.98,-122 2641.98,-126 2620.98,-126 2617.98,-122 2489.02,-122 2489.02,-86 2644.98,-86 2644.98,-122"/>
<text text-anchor="middle" x="2567" y="-99.8" font-family="Times,serif" font-size="14.00">MatchingEntitiesModule</text>
</g>
<!-- MatchingEntitiesModule&#45;&gt;AppModule -->
<g id="edge21" class="edge">
<title>MatchingEntitiesModule&#45;&gt;AppModule</title>
<path fill="none" stroke="black" d="M2567,-122.12C2567,-136.78 2567,-155 2567,-155 2567,-155 2904,-155 2904,-155"/>
<polygon fill="black" stroke="black" points="2904,-158.5 2914,-155 2904,-151.5 2904,-158.5"/>
</g>
<!-- NotesModule -->
<g id="node23" class="node">
<title>NotesModule</title>
<polygon fill="#8dd3c7" stroke="black" points="2471.21,-122 2468.21,-126 2447.21,-126 2444.21,-122 2378.79,-122 2378.79,-86 2471.21,-86 2471.21,-122"/>
<text text-anchor="middle" x="2425" y="-99.8" font-family="Times,serif" font-size="14.00">NotesModule</text>
</g>
<!-- NotesModule&#45;&gt;AppModule -->
<g id="edge22" class="edge">
<title>NotesModule&#45;&gt;AppModule</title>
<path fill="none" stroke="black" d="M2425,-122.24C2425,-137.57 2425,-157 2425,-157 2425,-157 2904.33,-157 2904.33,-157"/>
<polygon fill="black" stroke="black" points="2904.33,-160.5 2914.33,-157 2904.33,-153.5 2904.33,-160.5"/>
</g>
<!-- PermissionsModule -->
<g id="node24" class="node">
<title>PermissionsModule</title>
<polygon fill="#8dd3c7" stroke="black" points="2360.71,-122 2357.71,-126 2336.71,-126 2333.71,-122 2233.29,-122 2233.29,-86 2360.71,-86 2360.71,-122"/>
<text text-anchor="middle" x="2297" y="-99.8" font-family="Times,serif" font-size="14.00">PermissionsModule</text>
</g>
<!-- PermissionsModule&#45;&gt;AppModule -->
<g id="edge23" class="edge">
<title>PermissionsModule&#45;&gt;AppModule</title>
<path fill="none" stroke="black" d="M2297,-122.01C2297,-138.05 2297,-159 2297,-159 2297,-159 2904.28,-159 2904.28,-159"/>
<polygon fill="black" stroke="black" points="2904.28,-162.5 2914.28,-159 2904.28,-155.5 2904.28,-162.5"/>
</g>
<!-- ProgressDashboardWidgetModule -->
<g id="node25" class="node">
<title>ProgressDashboardWidgetModule</title>
<polygon fill="#8dd3c7" stroke="black" points="2215.61,-122 2212.61,-126 2191.61,-126 2188.61,-122 2006.39,-122 2006.39,-86 2215.61,-86 2215.61,-122"/>
<text text-anchor="middle" x="2111" y="-99.8" font-family="Times,serif" font-size="14.00">ProgressDashboardWidgetModule</text>
</g>
<!-- ProgressDashboardWidgetModule&#45;&gt;AppModule -->
<g id="edge24" class="edge">
<title>ProgressDashboardWidgetModule&#45;&gt;AppModule</title>
<path fill="none" stroke="black" d="M2111,-122.04C2111,-138.73 2111,-161 2111,-161 2111,-161 2904.1,-161 2904.1,-161"/>
<polygon fill="black" stroke="black" points="2904.1,-164.5 2914.1,-161 2904.1,-157.5 2904.1,-164.5"/>
</g>
<!-- PublicFormModule -->
<g id="node26" class="node">
<title>PublicFormModule</title>
<polygon fill="#8dd3c7" stroke="black" points="1987.66,-122 1984.66,-126 1963.66,-126 1960.66,-122 1862.34,-122 1862.34,-86 1987.66,-86 1987.66,-122"/>
<text text-anchor="middle" x="1925" y="-99.8" font-family="Times,serif" font-size="14.00">PublicFormModule</text>
</g>
<!-- PublicFormModule&#45;&gt;AppModule -->
<g id="edge25" class="edge">
<title>PublicFormModule&#45;&gt;AppModule</title>
<path fill="none" stroke="black" d="M1925,-122.02C1925,-139.37 1925,-163 1925,-163 1925,-163 2904.31,-163 2904.31,-163"/>
<polygon fill="black" stroke="black" points="2904.31,-166.5 2914.31,-163 2904.31,-159.5 2904.31,-166.5"/>
</g>
<!-- ReportingModule -->
<g id="node27" class="node">
<title>ReportingModule</title>
<polygon fill="#8dd3c7" stroke="black" points="1843.54,-122 1840.54,-126 1819.54,-126 1816.54,-122 1728.46,-122 1728.46,-86 1843.54,-86 1843.54,-122"/>
<text text-anchor="middle" x="1786" y="-99.8" font-family="Times,serif" font-size="14.00">ReportingModule</text>
</g>
<!-- ReportingModule&#45;&gt;AppModule -->
<g id="edge26" class="edge">
<title>ReportingModule&#45;&gt;AppModule</title>
<path fill="none" stroke="black" d="M1786,-122.3C1786,-140.27 1786,-165 1786,-165 1786,-165 2904.01,-165 2904.01,-165"/>
<polygon fill="black" stroke="black" points="2904.01,-168.5 2914.01,-165 2904.01,-161.5 2904.01,-168.5"/>
</g>
<!-- SessionModule -->
<g id="node28" class="node">
<title>SessionModule</title>
<polygon fill="#8dd3c7" stroke="black" points="1710.33,-122 1707.33,-126 1686.33,-126 1683.33,-122 1607.67,-122 1607.67,-86 1710.33,-86 1710.33,-122"/>
<text text-anchor="middle" x="1659" y="-99.8" font-family="Times,serif" font-size="14.00">SessionModule</text>
</g>
<!-- SessionModule&#45;&gt;AppModule -->
<g id="edge27" class="edge">
<title>SessionModule&#45;&gt;AppModule</title>
<path fill="none" stroke="black" d="M1659,-122.22C1659,-140.83 1659,-167 1659,-167 1659,-167 2904.32,-167 2904.32,-167"/>
<polygon fill="black" stroke="black" points="2904.32,-170.5 2914.32,-167 2904.32,-163.5 2904.32,-170.5"/>
</g>
<!-- ShortcutDashboardWidgetModule -->
<g id="node29" class="node">
<title>ShortcutDashboardWidgetModule</title>
<polygon fill="#8dd3c7" stroke="black" points="1589.34,-122 1586.34,-126 1565.34,-126 1562.34,-122 1380.66,-122 1380.66,-86 1589.34,-86 1589.34,-122"/>
<text text-anchor="middle" x="1485" y="-99.8" font-family="Times,serif" font-size="14.00">ShortcutDashboardWidgetModule</text>
</g>
<!-- ShortcutDashboardWidgetModule&#45;&gt;AppModule -->
<g id="edge28" class="edge">
<title>ShortcutDashboardWidgetModule&#45;&gt;AppModule</title>
<path fill="none" stroke="black" d="M1485,-122.11C1485,-141.34 1485,-169 1485,-169 1485,-169 2903.95,-169 2903.95,-169"/>
<polygon fill="black" stroke="black" points="2903.95,-172.5 2913.95,-169 2903.95,-165.5 2903.95,-172.5"/>
</g>
<!-- SkillModule -->
<g id="node30" class="node">
<title>SkillModule</title>
<polygon fill="#8dd3c7" stroke="black" points="1363,-122 1360,-126 1339,-126 1336,-122 1277,-122 1277,-86 1363,-86 1363,-122"/>
<text text-anchor="middle" x="1320" y="-99.8" font-family="Times,serif" font-size="14.00">SkillModule</text>
</g>
<!-- SkillModule&#45;&gt;AppModule -->
<g id="edge29" class="edge">
<title>SkillModule&#45;&gt;AppModule</title>
<path fill="none" stroke="black" d="M1320,-122.31C1320,-142.15 1320,-171 1320,-171 1320,-171 2904.33,-171 2904.33,-171"/>
<polygon fill="black" stroke="black" points="2904.33,-174.5 2914.33,-171 2904.33,-167.5 2904.33,-174.5"/>
</g>
<!-- TemplateExportModule -->
<g id="node31" class="node">
<title>TemplateExportModule</title>
<polygon fill="#8dd3c7" stroke="black" points="1259.02,-122 1256.02,-126 1235.02,-126 1232.02,-122 1108.98,-122 1108.98,-86 1259.02,-86 1259.02,-122"/>
<text text-anchor="middle" x="1184" y="-99.8" font-family="Times,serif" font-size="14.00">TemplateExportModule</text>
</g>
<!-- TemplateExportModule&#45;&gt;AppModule -->
<g id="edge30" class="edge">
<title>TemplateExportModule&#45;&gt;AppModule</title>
<path fill="none" stroke="black" d="M1184,-122.13C1184,-142.57 1184,-173 1184,-173 1184,-173 2903.95,-173 2903.95,-173"/>
<polygon fill="black" stroke="black" points="2903.95,-176.5 2913.95,-173 2903.95,-169.5 2903.95,-176.5"/>
</g>
<!-- TodosModule -->
<g id="node32" class="node">
<title>TodosModule</title>
<polygon fill="#8dd3c7" stroke="black" points="1090.05,-122 1087.05,-126 1066.05,-126 1063.05,-122 995.95,-122 995.95,-86 1090.05,-86 1090.05,-122"/>
<text text-anchor="middle" x="1043" y="-99.8" font-family="Times,serif" font-size="14.00">TodosModule</text>
</g>
<!-- TodosModule&#45;&gt;AppModule -->
<g id="edge31" class="edge">
<title>TodosModule&#45;&gt;AppModule</title>
<path fill="none" stroke="black" d="M1043,-122.28C1043,-143.32 1043,-175 1043,-175 1043,-175 2904.27,-175 2904.27,-175"/>
<polygon fill="black" stroke="black" points="2904.27,-178.5 2914.27,-175 2904.27,-171.5 2904.27,-178.5"/>
</g>
<!-- UiComponent -->
<g id="node33" class="node">
<title>UiComponent</title>
<polygon fill="#8dd3c7" stroke="black" points="977.83,-122 974.83,-126 953.83,-126 950.83,-122 882.17,-122 882.17,-86 977.83,-86 977.83,-122"/>
<text text-anchor="middle" x="930" y="-99.8" font-family="Times,serif" font-size="14.00">UiComponent</text>
</g>
<!-- UiComponent&#45;&gt;AppModule -->
<g id="edge32" class="edge">
<title>UiComponent&#45;&gt;AppModule</title>
<path fill="none" stroke="black" d="M930,-122.04C930,-143.66 930,-177 930,-177 930,-177 2904.15,-177 2904.15,-177"/>
<polygon fill="black" stroke="black" points="2904.15,-180.5 2914.15,-177 2904.15,-173.5 2904.15,-180.5"/>
</g>
<!-- AnalyticsService -->
<g id="node35" class="node">
<title>AnalyticsService</title>
<ellipse fill="#fdb462" stroke="black" cx="781" cy="-104" rx="77" ry="18"/>
<text text-anchor="middle" x="781" y="-99.8" font-family="Times,serif" font-size="14.00">AnalyticsService</text>
</g>
<!-- AnalyticsService&#45;&gt;AppModule -->
<g id="edge34" class="edge">
<title>AnalyticsService&#45;&gt;AppModule</title>
<path fill="none" stroke="black" d="M781,-122.16C781,-144.35 781,-179 781,-179 781,-179 2904.01,-179 2904.01,-179"/>
<polygon fill="black" stroke="black" points="2904.01,-182.5 2914.01,-179 2904.01,-175.5 2904.01,-182.5"/>
</g>
<!-- DateAdapterWithFormatting -->
<g id="node36" class="node">
<title>DateAdapterWithFormatting</title>
<ellipse fill="#fdb462" stroke="black" cx="563" cy="-104" rx="122.69" ry="18"/>
<text text-anchor="middle" x="563" y="-99.8" font-family="Times,serif" font-size="14.00">DateAdapterWithFormatting</text>
</g>
<!-- DateAdapterWithFormatting&#45;&gt;AppModule -->
<g id="edge35" class="edge">
<title>DateAdapterWithFormatting&#45;&gt;AppModule</title>
<path fill="none" stroke="black" d="M563,-122.25C563,-145.02 563,-181 563,-181 563,-181 2904.21,-181 2904.21,-181"/>
<polygon fill="black" stroke="black" points="2904.21,-184.5 2914.21,-181 2904.21,-177.5 2904.21,-184.5"/>
</g>
<!-- KeycloakAdminService -->
<g id="node37" class="node">
<title>KeycloakAdminService</title>
<ellipse fill="#fdb462" stroke="black" cx="319" cy="-104" rx="103.63" ry="18"/>
<text text-anchor="middle" x="319" y="-99.8" font-family="Times,serif" font-size="14.00">KeycloakAdminService</text>
</g>
<!-- KeycloakAdminService&#45;&gt;AppModule -->
<g id="edge36" class="edge">
<title>KeycloakAdminService&#45;&gt;AppModule</title>
<path fill="none" stroke="black" d="M319,-122.32C319,-145.66 319,-183 319,-183 319,-183 2904.31,-183 2904.31,-183"/>
<polygon fill="black" stroke="black" points="2904.31,-186.5 2914.31,-183 2904.31,-179.5 2904.31,-186.5"/>
</g>
<!-- NotificationService -->
<g id="node38" class="node">
<title>NotificationService</title>
<ellipse fill="#fdb462" stroke="black" cx="111" cy="-104" rx="86.81" ry="18"/>
<text text-anchor="middle" x="111" y="-99.8" font-family="Times,serif" font-size="14.00">NotificationService</text>
</g>
<!-- NotificationService&#45;&gt;AppModule -->
<g id="edge37" class="edge">
<title>NotificationService&#45;&gt;AppModule</title>
<path fill="none" stroke="black" d="M111,-122.38C111,-146.28 111,-185 111,-185 111,-185 2904.13,-185 2904.13,-185"/>
<polygon fill="black" stroke="black" points="2904.13,-188.5 2914.13,-185 2904.13,-181.5 2904.13,-188.5"/>
</g>
</g>
</svg>
