<?xml version="1.0" encoding="UTF-8" standalone="no"?>
<!DOCTYPE svg PUBLIC "-//W3C//DTD SVG 1.1//EN"
 "http://www.w3.org/Graphics/SVG/1.1/DTD/svg11.dtd">
<!-- Generated by graphviz version 2.47.0 (20210316.0004)
 -->
<!-- Title: dependencies Pages: 1 -->
<svg width="703pt" height="211pt"
 viewBox="0.00 0.00 703.00 211.00" xmlns="http://www.w3.org/2000/svg" xmlns:xlink="http://www.w3.org/1999/xlink">
<g id="graph0" class="graph" transform="scale(1 1) rotate(0) translate(4 207)">
<title>dependencies</title>
<polygon fill="white" stroke="transparent" points="-4,4 -4,-207 699,-207 699,4 -4,4"/>
<text text-anchor="start" x="326.51" y="-42.4" font-family="Times-12" font-weight="bold" font-size="14.00">Legend</text>
<polygon fill="#ffffb3" stroke="transparent" points="113.5,-10 113.5,-30 133.5,-30 133.5,-10 113.5,-10"/>
<text text-anchor="start" x="137.13" y="-15.4" font-family="Times-12" font-size="14.00"> &#160;Declarations</text>
<polygon fill="#8dd3c7" stroke="transparent" points="226.5,-10 226.5,-30 246.5,-30 246.5,-10 226.5,-10"/>
<text text-anchor="start" x="250.23" y="-15.4" font-family="Times-12" font-size="14.00"> &#160;Module</text>
<polygon fill="#80b1d3" stroke="transparent" points="312.5,-10 312.5,-30 332.5,-30 332.5,-10 312.5,-10"/>
<text text-anchor="start" x="336.28" y="-15.4" font-family="Times-12" font-size="14.00"> &#160;Bootstrap</text>
<polygon fill="#fdb462" stroke="transparent" points="409.5,-10 409.5,-30 429.5,-30 429.5,-10 409.5,-10"/>
<text text-anchor="start" x="433.17" y="-15.4" font-family="Times-12" font-size="14.00"> &#160;Providers</text>
<polygon fill="#fb8072" stroke="transparent" points="505.5,-10 505.5,-30 525.5,-30 525.5,-10 505.5,-10"/>
<text text-anchor="start" x="529.23" y="-15.4" font-family="Times-12" font-size="14.00"> &#160;Exports</text>
<g id="clust1" class="cluster">
<title>cluster_FileModule</title>
<polygon fill="none" stroke="black" stroke-dasharray="1,5" points="8,-70 8,-195 687,-195 687,-70 8,-70"/>
</g>
<g id="clust6" class="cluster">
<title>cluster_FileModule_providers</title>
<polygon fill="none" stroke="black" points="16,-78 16,-130 679,-130 679,-78 16,-78"/>
</g>
<!-- CouchdbFileService -->
<g id="node1" class="node">
<title>CouchdbFileService</title>
<ellipse fill="#fdb462" stroke="black" cx="581" cy="-104" rx="89.77" ry="18"/>
<text text-anchor="middle" x="581" y="-99.8" font-family="Times,serif" font-size="14.00">CouchdbFileService</text>
</g>
<!-- FileModule -->
<g id="node5" class="node">
<title>FileModule</title>
<polygon fill="#8dd3c7" stroke="black" points="374.83,-187 371.83,-191 350.83,-191 347.83,-187 293.17,-187 293.17,-151 374.83,-151 374.83,-187"/>
<text text-anchor="middle" x="334" y="-164.8" font-family="Times,serif" font-size="14.00">FileModule</text>
</g>
<!-- CouchdbFileService&#45;&gt;FileModule -->
<g id="edge1" class="edge">
<title>CouchdbFileService&#45;&gt;FileModule</title>
<path fill="none" stroke="black" d="M581,-122.11C581,-141.34 581,-169 581,-169 581,-169 384.79,-169 384.79,-169"/>
<polygon fill="black" stroke="black" points="384.79,-165.5 374.79,-169 384.79,-172.5 384.79,-165.5"/>
</g>
<!-- FileDatatype -->
<g id="node2" class="node">
<title>FileDatatype</title>
<ellipse fill="#fdb462" stroke="black" cx="412" cy="-104" rx="60.83" ry="18"/>
<text text-anchor="middle" x="412" y="-99.8" font-family="Times,serif" font-size="14.00">FileDatatype</text>
</g>
<!-- FileDatatype&#45;&gt;FileModule -->
<g id="edge2" class="edge">
<title>FileDatatype&#45;&gt;FileModule</title>
<path fill="none" stroke="black" d="M362.87,-114.73C362.87,-114.73 362.87,-140.87 362.87,-140.87"/>
<polygon fill="black" stroke="black" points="359.37,-140.87 362.87,-150.87 366.37,-140.87 359.37,-140.87"/>
</g>
<!-- MockFileService -->
<g id="node3" class="node">
<title>MockFileService</title>
<ellipse fill="#fdb462" stroke="black" cx="256" cy="-104" rx="77.58" ry="18"/>
<text text-anchor="middle" x="256" y="-99.8" font-family="Times,serif" font-size="14.00">MockFileService</text>
</g>
<!-- MockFileService&#45;&gt;FileModule -->
<g id="edge3" class="edge">
<title>MockFileService&#45;&gt;FileModule</title>
<path fill="none" stroke="black" d="M313.44,-116.23C313.44,-116.23 313.44,-140.68 313.44,-140.68"/>
<polygon fill="black" stroke="black" points="309.94,-140.68 313.44,-150.68 316.94,-140.68 309.94,-140.68"/>
</g>
<!-- PhotoDatatype -->
<g id="node4" class="node">
<title>PhotoDatatype</title>
<ellipse fill="#fdb462" stroke="black" cx="92" cy="-104" rx="68.36" ry="18"/>
<text text-anchor="middle" x="92" y="-99.8" font-family="Times,serif" font-size="14.00">PhotoDatatype</text>
</g>
<!-- PhotoDatatype&#45;&gt;FileModule -->
<g id="edge4" class="edge">
<title>PhotoDatatype&#45;&gt;FileModule</title>
<path fill="none" stroke="black" d="M92,-122.11C92,-141.34 92,-169 92,-169 92,-169 283.22,-169 283.22,-169"/>
<polygon fill="black" stroke="black" points="283.22,-172.5 293.22,-169 283.22,-165.5 283.22,-172.5"/>
</g>
</g>
</svg>
