<?xml version="1.0" encoding="UTF-8" standalone="no"?>
<!DOCTYPE svg PUBLIC "-//W3C//DTD SVG 1.1//EN"
 "http://www.w3.org/Graphics/SVG/1.1/DTD/svg11.dtd">
<!-- Generated by graphviz version 2.47.0 (20210316.0004)
 -->
<!-- Title: dependencies Pages: 1 -->
<svg width="504pt" height="211pt"
 viewBox="0.00 0.00 504.00 211.00" xmlns="http://www.w3.org/2000/svg" xmlns:xlink="http://www.w3.org/1999/xlink">
<g id="graph0" class="graph" transform="scale(1 1) rotate(0) translate(4 207)">
<title>dependencies</title>
<polygon fill="white" stroke="transparent" points="-4,4 -4,-207 500,-207 500,4 -4,4"/>
<text text-anchor="start" x="227.01" y="-42.4" font-family="Times-12" font-weight="bold" font-size="14.00">Legend</text>
<polygon fill="#ffffb3" stroke="transparent" points="14,-10 14,-30 34,-30 34,-10 14,-10"/>
<text text-anchor="start" x="37.63" y="-15.4" font-family="Times-12" font-size="14.00"> &#160;Declarations</text>
<polygon fill="#8dd3c7" stroke="transparent" points="127,-10 127,-30 147,-30 147,-10 127,-10"/>
<text text-anchor="start" x="150.73" y="-15.4" font-family="Times-12" font-size="14.00"> &#160;Module</text>
<polygon fill="#80b1d3" stroke="transparent" points="213,-10 213,-30 233,-30 233,-10 213,-10"/>
<text text-anchor="start" x="236.78" y="-15.4" font-family="Times-12" font-size="14.00"> &#160;Bootstrap</text>
<polygon fill="#fdb462" stroke="transparent" points="310,-10 310,-30 330,-30 330,-10 310,-10"/>
<text text-anchor="start" x="333.67" y="-15.4" font-family="Times-12" font-size="14.00"> &#160;Providers</text>
<polygon fill="#fb8072" stroke="transparent" points="406,-10 406,-30 426,-30 426,-10 406,-10"/>
<text text-anchor="start" x="429.73" y="-15.4" font-family="Times-12" font-size="14.00"> &#160;Exports</text>
<g id="clust1" class="cluster">
<title>cluster_FileModule</title>
<polygon fill="none" stroke="black" stroke-dasharray="1,5" points="55.5,-70 55.5,-195 440.5,-195 440.5,-70 55.5,-70"/>
</g>
<g id="clust6" class="cluster">
<title>cluster_FileModule_providers</title>
<polygon fill="none" stroke="black" points="63.5,-78 63.5,-130 432.5,-130 432.5,-78 63.5,-78"/>
</g>
<!-- CouchdbFileService -->
<g id="node1" class="node">
<title>CouchdbFileService</title>
<ellipse fill="#fdb462" stroke="black" cx="334.5" cy="-104" rx="89.77" ry="18"/>
<text text-anchor="middle" x="334.5" y="-99.8" font-family="Times,serif" font-size="14.00">CouchdbFileService</text>
</g>
<!-- FileModule -->
<g id="node3" class="node">
<title>FileModule</title>
<polygon fill="#8dd3c7" stroke="black" points="282.33,-187 279.33,-191 258.33,-191 255.33,-187 200.67,-187 200.67,-151 282.33,-151 282.33,-187"/>
<text text-anchor="middle" x="241.5" y="-164.8" font-family="Times,serif" font-size="14.00">FileModule</text>
</g>
<!-- CouchdbFileService&#45;&gt;FileModule -->
<g id="edge1" class="edge">
<title>CouchdbFileService&#45;&gt;FileModule</title>
<path fill="none" stroke="black" d="M263.39,-115.03C263.39,-115.03 263.39,-140.78 263.39,-140.78"/>
<polygon fill="black" stroke="black" points="259.89,-140.78 263.39,-150.78 266.89,-140.78 259.89,-140.78"/>
</g>
<!-- MockFileService -->
<g id="node2" class="node">
<title>MockFileService</title>
<ellipse fill="#fdb462" stroke="black" cx="149.5" cy="-104" rx="77.58" ry="18"/>
<text text-anchor="middle" x="149.5" y="-99.8" font-family="Times,serif" font-size="14.00">MockFileService</text>
</g>
<!-- MockFileService&#45;&gt;FileModule -->
<g id="edge2" class="edge">
<title>MockFileService&#45;&gt;FileModule</title>
<path fill="none" stroke="black" d="M213.94,-114.16C213.94,-114.16 213.94,-140.81 213.94,-140.81"/>
<polygon fill="black" stroke="black" points="210.44,-140.81 213.94,-150.81 217.44,-140.81 210.44,-140.81"/>
</g>
</g>
</svg>
