<?xml version="1.0" encoding="UTF-8" standalone="no"?>
<!DOCTYPE svg PUBLIC "-//W3C//DTD SVG 1.1//EN"
 "http://www.w3.org/Graphics/SVG/1.1/DTD/svg11.dtd">
<!-- Generated by graphviz version 2.40.1 (20161225.0304)
 -->
<!-- Title: dependencies Pages: 1 -->
<svg width="504pt" height="211pt"
 viewBox="0.00 0.00 504.00 211.00" xmlns="http://www.w3.org/2000/svg" xmlns:xlink="http://www.w3.org/1999/xlink">
<g id="graph0" class="graph" transform="scale(1 1) rotate(0) translate(4 207)">
<title>dependencies</title>
<polygon fill="#ffffff" stroke="transparent" points="-4,4 -4,-207 500,-207 500,4 -4,4"/>
<text text-anchor="start" x="227.0091" y="-42.4" font-family="sans-serif" font-weight="bold" font-size="14.00" fill="#000000">Legend</text>
<polygon fill="#ffffb3" stroke="transparent" points="14,-10 14,-30 34,-30 34,-10 14,-10"/>
<text text-anchor="start" x="37.629" y="-15.4" font-family="sans-serif" font-size="14.00" fill="#000000"> &#160;Declarations</text>
<polygon fill="#8dd3c7" stroke="transparent" points="127,-10 127,-30 147,-30 147,-10 127,-10"/>
<text text-anchor="start" x="150.7251" y="-15.4" font-family="sans-serif" font-size="14.00" fill="#000000"> &#160;Module</text>
<polygon fill="#80b1d3" stroke="transparent" points="213,-10 213,-30 233,-30 233,-10 213,-10"/>
<text text-anchor="start" x="236.7812" y="-15.4" font-family="sans-serif" font-size="14.00" fill="#000000"> &#160;Bootstrap</text>
<polygon fill="#fdb462" stroke="transparent" points="310,-10 310,-30 330,-30 330,-10 310,-10"/>
<text text-anchor="start" x="333.6732" y="-15.4" font-family="sans-serif" font-size="14.00" fill="#000000"> &#160;Providers</text>
<polygon fill="#fb8072" stroke="transparent" points="406,-10 406,-30 426,-30 426,-10 406,-10"/>
<text text-anchor="start" x="429.7258" y="-15.4" font-family="sans-serif" font-size="14.00" fill="#000000"> &#160;Exports</text>
<g id="clust1" class="cluster">
<title>cluster_EntityModule</title>
<polygon fill="none" stroke="#000000" stroke-dasharray="1,5" points="71,-70 71,-195 425,-195 425,-70 71,-70"/>
</g>
<g id="clust3" class="cluster">
<title>cluster_EntityModule_imports</title>
<polygon fill="none" stroke="#000000" points="291,-78 291,-130 417,-130 417,-78 291,-78"/>
</g>
<g id="clust6" class="cluster">
<title>cluster_EntityModule_providers</title>
<polygon fill="none" stroke="#000000" points="79,-78 79,-130 283,-130 283,-78 79,-78"/>
</g>
<!-- DatabaseModule -->
<g id="node1" class="node">
<title>DatabaseModule</title>
<polygon fill="#8dd3c7" stroke="#000000" points="409.3501,-122 406.3501,-126 385.3501,-126 382.3501,-122 298.6499,-122 298.6499,-86 409.3501,-86 409.3501,-122"/>
<text text-anchor="middle" x="354" y="-99.8" font-family="Times,serif" font-size="14.00" fill="#000000">DatabaseModule</text>
</g>
<!-- EntityModule -->
<g id="node2" class="node">
<title>EntityModule</title>
<polygon fill="#8dd3c7" stroke="#000000" points="313.7745,-187 310.7745,-191 289.7745,-191 286.7745,-187 220.2255,-187 220.2255,-151 313.7745,-151 313.7745,-187"/>
<text text-anchor="middle" x="267" y="-164.8" font-family="Times,serif" font-size="14.00" fill="#000000">EntityModule</text>
</g>
<!-- DatabaseModule&#45;&gt;EntityModule -->
<g id="edge1" class="edge">
<title>DatabaseModule&#45;&gt;EntityModule</title>
<path fill="none" stroke="#000000" d="M306.2311,-122.1061C306.2311,-122.1061 306.2311,-140.991 306.2311,-140.991"/>
<polygon fill="#000000" stroke="#000000" points="302.7311,-140.9909 306.2311,-150.991 309.7311,-140.991 302.7311,-140.9909"/>
</g>
<!-- EntityMapperService -->
<g id="node3" class="node">
<title>EntityMapperService</title>
<ellipse fill="#fdb462" stroke="#000000" cx="181" cy="-104" rx="93.7572" ry="18"/>
<text text-anchor="middle" x="181" y="-99.8" font-family="Times,serif" font-size="14.00" fill="#000000">EntityMapperService</text>
</g>
<!-- EntityMapperService&#45;&gt;EntityModule -->
<g id="edge2" class="edge">
<title>EntityMapperService&#45;&gt;EntityModule</title>
<path fill="none" stroke="#000000" d="M247.3707,-116.8419C247.3707,-116.8419 247.3707,-140.5231 247.3707,-140.5231"/>
<polygon fill="#000000" stroke="#000000" points="243.8708,-140.523 247.3707,-150.5231 250.8708,-140.5231 243.8708,-140.523"/>
</g>
</g>
</svg>
