<?xml version="1.0" encoding="UTF-8" standalone="no"?>
<!DOCTYPE svg PUBLIC "-//W3C//DTD SVG 1.1//EN"
 "http://www.w3.org/Graphics/SVG/1.1/DTD/svg11.dtd">
<!-- Generated by graphviz version 2.47.0 (20210316.0004)
 -->
<!-- Title: dependencies Pages: 1 -->
<svg width="1103pt" height="211pt"
 viewBox="0.00 0.00 1103.00 211.00" xmlns="http://www.w3.org/2000/svg" xmlns:xlink="http://www.w3.org/1999/xlink">
<g id="graph0" class="graph" transform="scale(1 1) rotate(0) translate(4 207)">
<title>dependencies</title>
<polygon fill="white" stroke="transparent" points="-4,4 -4,-207 1099,-207 1099,4 -4,4"/>
<text text-anchor="start" x="526.51" y="-42.4" font-family="Times-12" font-weight="bold" font-size="14.00">Legend</text>
<polygon fill="#ffffb3" stroke="transparent" points="313.5,-10 313.5,-30 333.5,-30 333.5,-10 313.5,-10"/>
<text text-anchor="start" x="337.13" y="-15.4" font-family="Times-12" font-size="14.00"> &#160;Declarations</text>
<polygon fill="#8dd3c7" stroke="transparent" points="426.5,-10 426.5,-30 446.5,-30 446.5,-10 426.5,-10"/>
<text text-anchor="start" x="450.23" y="-15.4" font-family="Times-12" font-size="14.00"> &#160;Module</text>
<polygon fill="#80b1d3" stroke="transparent" points="512.5,-10 512.5,-30 532.5,-30 532.5,-10 512.5,-10"/>
<text text-anchor="start" x="536.28" y="-15.4" font-family="Times-12" font-size="14.00"> &#160;Bootstrap</text>
<polygon fill="#fdb462" stroke="transparent" points="609.5,-10 609.5,-30 629.5,-30 629.5,-10 609.5,-10"/>
<text text-anchor="start" x="633.17" y="-15.4" font-family="Times-12" font-size="14.00"> &#160;Providers</text>
<polygon fill="#fb8072" stroke="transparent" points="705.5,-10 705.5,-30 725.5,-30 725.5,-10 705.5,-10"/>
<text text-anchor="start" x="729.23" y="-15.4" font-family="Times-12" font-size="14.00"> &#160;Exports</text>
<g id="clust1" class="cluster">
<title>cluster_CoreTestingModule</title>
<polygon fill="none" stroke="black" stroke-dasharray="1,5" points="8,-70 8,-195 1087,-195 1087,-70 8,-70"/>
</g>
<g id="clust6" class="cluster">
<title>cluster_CoreTestingModule_providers</title>
<polygon fill="none" stroke="black" points="311,-78 311,-130 1079,-130 1079,-78 311,-78"/>
</g>
<g id="clust3" class="cluster">
<title>cluster_CoreTestingModule_imports</title>
<polygon fill="none" stroke="black" points="16,-78 16,-130 303,-130 303,-78 16,-78"/>
</g>
<!-- ConfigurableEnumModule -->
<g id="node1" class="node">
<title>ConfigurableEnumModule</title>
<polygon fill="#8dd3c7" stroke="black" points="295.36,-122 292.36,-126 271.36,-126 268.36,-122 128.64,-122 128.64,-86 295.36,-86 295.36,-122"/>
<text text-anchor="middle" x="212" y="-99.8" font-family="Times,serif" font-size="14.00">ConfigurableEnumModule</text>
</g>
<!-- CoreTestingModule -->
<g id="node3" class="node">
<title>CoreTestingModule</title>
<polygon fill="#8dd3c7" stroke="black" points="557.25,-187 554.25,-191 533.25,-191 530.25,-187 428.75,-187 428.75,-151 557.25,-151 557.25,-187"/>
<text text-anchor="middle" x="493" y="-164.8" font-family="Times,serif" font-size="14.00">CoreTestingModule</text>
</g>
<!-- ConfigurableEnumModule&#45;&gt;CoreTestingModule -->
<g id="edge1" class="edge">
<title>ConfigurableEnumModule&#45;&gt;CoreTestingModule</title>
<path fill="none" stroke="black" d="M212,-122.02C212,-139.37 212,-163 212,-163 212,-163 418.53,-163 418.53,-163"/>
<polygon fill="black" stroke="black" points="418.53,-166.5 428.53,-163 418.53,-159.5 418.53,-166.5"/>
</g>
<!-- CoreModule -->
<g id="node2" class="node">
<title>CoreModule</title>
<polygon fill="#8dd3c7" stroke="black" points="110.26,-122 107.26,-126 86.26,-126 83.26,-122 23.74,-122 23.74,-86 110.26,-86 110.26,-122"/>
<text text-anchor="middle" x="67" y="-99.8" font-family="Times,serif" font-size="14.00">CoreModule</text>
</g>
<!-- CoreModule&#45;&gt;CoreTestingModule -->
<g id="edge2" class="edge">
<title>CoreModule&#45;&gt;CoreTestingModule</title>
<path fill="none" stroke="black" d="M67,-122.28C67,-143.32 67,-175 67,-175 67,-175 418.3,-175 418.3,-175"/>
<polygon fill="black" stroke="black" points="418.3,-178.5 428.3,-175 418.3,-171.5 418.3,-178.5"/>
</g>
<!-- ConfigurableEnumService -->
<g id="node4" class="node">
<title>ConfigurableEnumService</title>
<ellipse fill="#fdb462" stroke="black" cx="957" cy="-104" rx="114.03" ry="18"/>
<text text-anchor="middle" x="957" y="-99.8" font-family="Times,serif" font-size="14.00">ConfigurableEnumService</text>
</g>
<!-- ConfigurableEnumService&#45;&gt;CoreTestingModule -->
<g id="edge3" class="edge">
<title>ConfigurableEnumService&#45;&gt;CoreTestingModule</title>
<path fill="none" stroke="black" d="M957,-122.28C957,-143.32 957,-175 957,-175 957,-175 567.52,-175 567.52,-175"/>
<polygon fill="black" stroke="black" points="567.52,-171.5 557.52,-175 567.52,-178.5 567.52,-171.5"/>
</g>
<!-- EntityAbility -->
<g id="node5" class="node">
<title>EntityAbility</title>
<ellipse fill="#fdb462" stroke="black" cx="763" cy="-104" rx="62.01" ry="18"/>
<text text-anchor="middle" x="763" y="-99.8" font-family="Times,serif" font-size="14.00">EntityAbility</text>
</g>
<!-- EntityAbility&#45;&gt;CoreTestingModule -->
<g id="edge4" class="edge">
<title>EntityAbility&#45;&gt;CoreTestingModule</title>
<path fill="none" stroke="black" d="M763,-122.02C763,-139.37 763,-163 763,-163 763,-163 567.33,-163 567.33,-163"/>
<polygon fill="black" stroke="black" points="567.33,-159.5 557.33,-163 567.33,-166.5 567.33,-159.5"/>
</g>
<!-- EntitySchemaService -->
<g id="node6" class="node">
<title>EntitySchemaService</title>
<ellipse fill="#fdb462" stroke="black" cx="589" cy="-104" rx="94.34" ry="18"/>
<text text-anchor="middle" x="589" y="-99.8" font-family="Times,serif" font-size="14.00">EntitySchemaService</text>
</g>
<!-- EntitySchemaService&#45;&gt;CoreTestingModule -->
<g id="edge5" class="edge">
<title>EntitySchemaService&#45;&gt;CoreTestingModule</title>
<path fill="none" stroke="black" d="M526.1,-117.47C526.1,-117.47 526.1,-140.86 526.1,-140.86"/>
<polygon fill="black" stroke="black" points="522.6,-140.86 526.1,-150.86 529.6,-140.86 522.6,-140.86"/>
</g>
<!-- SyncStateSubject -->
<g id="node7" class="node">
<title>SyncStateSubject</title>
<ellipse fill="#fdb462" stroke="black" cx="398" cy="-104" rx="78.75" ry="18"/>
<text text-anchor="middle" x="398" y="-99.8" font-family="Times,serif" font-size="14.00">SyncStateSubject</text>
</g>
<!-- SyncStateSubject&#45;&gt;CoreTestingModule -->
<g id="edge6" class="edge">
<title>SyncStateSubject&#45;&gt;CoreTestingModule</title>
<path fill="none" stroke="black" d="M452.62,-117.15C452.62,-117.15 452.62,-140.69 452.62,-140.69"/>
<polygon fill="black" stroke="black" points="449.12,-140.69 452.62,-150.69 456.12,-140.69 449.12,-140.69"/>
</g>
</g>
</svg>
