<?xml version="1.0" encoding="UTF-8" standalone="no"?>
<!DOCTYPE svg PUBLIC "-//W3C//DTD SVG 1.1//EN"
 "http://www.w3.org/Graphics/SVG/1.1/DTD/svg11.dtd">
<!-- Generated by graphviz version 2.47.0 (20210316.0004)
 -->
<!-- Title: dependencies Pages: 1 -->
<svg width="681pt" height="211pt"
 viewBox="0.00 0.00 681.00 211.00" xmlns="http://www.w3.org/2000/svg" xmlns:xlink="http://www.w3.org/1999/xlink">
<g id="graph0" class="graph" transform="scale(1 1) rotate(0) translate(4 207)">
<title>dependencies</title>
<polygon fill="white" stroke="transparent" points="-4,4 -4,-207 677,-207 677,4 -4,4"/>
<text text-anchor="start" x="315.51" y="-42.4" font-family="Times-12" font-weight="bold" font-size="14.00">Legend</text>
<polygon fill="#ffffb3" stroke="transparent" points="102.5,-10 102.5,-30 122.5,-30 122.5,-10 102.5,-10"/>
<text text-anchor="start" x="126.13" y="-15.4" font-family="Times-12" font-size="14.00"> &#160;Declarations</text>
<polygon fill="#8dd3c7" stroke="transparent" points="215.5,-10 215.5,-30 235.5,-30 235.5,-10 215.5,-10"/>
<text text-anchor="start" x="239.23" y="-15.4" font-family="Times-12" font-size="14.00"> &#160;Module</text>
<polygon fill="#80b1d3" stroke="transparent" points="301.5,-10 301.5,-30 321.5,-30 321.5,-10 301.5,-10"/>
<text text-anchor="start" x="325.28" y="-15.4" font-family="Times-12" font-size="14.00"> &#160;Bootstrap</text>
<polygon fill="#fdb462" stroke="transparent" points="398.5,-10 398.5,-30 418.5,-30 418.5,-10 398.5,-10"/>
<text text-anchor="start" x="422.17" y="-15.4" font-family="Times-12" font-size="14.00"> &#160;Providers</text>
<polygon fill="#fb8072" stroke="transparent" points="494.5,-10 494.5,-30 514.5,-30 514.5,-10 494.5,-10"/>
<text text-anchor="start" x="518.23" y="-15.4" font-family="Times-12" font-size="14.00"> &#160;Exports</text>
<g id="clust1" class="cluster">
<title>cluster_CoreTestingModule</title>
<polygon fill="none" stroke="black" stroke-dasharray="1,5" points="8,-70 8,-195 665,-195 665,-70 8,-70"/>
</g>
<g id="clust3" class="cluster">
<title>cluster_CoreTestingModule_imports</title>
<polygon fill="none" stroke="black" points="370,-78 370,-130 657,-130 657,-78 370,-78"/>
</g>
<g id="clust6" class="cluster">
<title>cluster_CoreTestingModule_providers</title>
<polygon fill="none" stroke="black" points="16,-78 16,-130 362,-130 362,-78 16,-78"/>
</g>
<!-- ConfigurableEnumModule -->
<g id="node1" class="node">
<title>ConfigurableEnumModule</title>
<polygon fill="#8dd3c7" stroke="black" points="649.36,-122 646.36,-126 625.36,-126 622.36,-122 482.64,-122 482.64,-86 649.36,-86 649.36,-122"/>
<text text-anchor="middle" x="566" y="-99.8" font-family="Times,serif" font-size="14.00">ConfigurableEnumModule</text>
</g>
<!-- CoreTestingModule -->
<g id="node3" class="node">
<title>CoreTestingModule</title>
<polygon fill="#8dd3c7" stroke="black" points="420.25,-187 417.25,-191 396.25,-191 393.25,-187 291.75,-187 291.75,-151 420.25,-151 420.25,-187"/>
<text text-anchor="middle" x="356" y="-164.8" font-family="Times,serif" font-size="14.00">CoreTestingModule</text>
</g>
<!-- ConfigurableEnumModule&#45;&gt;CoreTestingModule -->
<g id="edge1" class="edge">
<title>ConfigurableEnumModule&#45;&gt;CoreTestingModule</title>
<path fill="none" stroke="black" d="M566,-122.11C566,-141.34 566,-169 566,-169 566,-169 430.43,-169 430.43,-169"/>
<polygon fill="black" stroke="black" points="430.43,-165.5 420.43,-169 430.43,-172.5 430.43,-165.5"/>
</g>
<!-- CoreModule -->
<g id="node2" class="node">
<title>CoreModule</title>
<polygon fill="#8dd3c7" stroke="black" points="464.26,-122 461.26,-126 440.26,-126 437.26,-122 377.74,-122 377.74,-86 464.26,-86 464.26,-122"/>
<text text-anchor="middle" x="421" y="-99.8" font-family="Times,serif" font-size="14.00">CoreModule</text>
</g>
<!-- CoreModule&#45;&gt;CoreTestingModule -->
<g id="edge2" class="edge">
<title>CoreModule&#45;&gt;CoreTestingModule</title>
<path fill="none" stroke="black" d="M399,-122.11C399,-122.11 399,-140.99 399,-140.99"/>
<polygon fill="black" stroke="black" points="395.5,-140.99 399,-150.99 402.5,-140.99 395.5,-140.99"/>
</g>
<!-- EntityAbility -->
<g id="node4" class="node">
<title>EntityAbility</title>
<ellipse fill="#fdb462" stroke="black" cx="292" cy="-104" rx="62.01" ry="18"/>
<text text-anchor="middle" x="292" y="-99.8" font-family="Times,serif" font-size="14.00">EntityAbility</text>
</g>
<!-- EntityAbility&#45;&gt;CoreTestingModule -->
<g id="edge3" class="edge">
<title>EntityAbility&#45;&gt;CoreTestingModule</title>
<path fill="none" stroke="black" d="M322.81,-119.73C322.81,-119.73 322.81,-140.65 322.81,-140.65"/>
<polygon fill="black" stroke="black" points="319.31,-140.65 322.81,-150.65 326.31,-140.65 319.31,-140.65"/>
</g>
<!-- EntitySchemaService -->
<g id="node5" class="node">
<title>EntitySchemaService</title>
<ellipse fill="#fdb462" stroke="black" cx="118" cy="-104" rx="94.34" ry="18"/>
<text text-anchor="middle" x="118" y="-99.8" font-family="Times,serif" font-size="14.00">EntitySchemaService</text>
</g>
<!-- EntitySchemaService&#45;&gt;CoreTestingModule -->
<g id="edge4" class="edge">
<title>EntitySchemaService&#45;&gt;CoreTestingModule</title>
<path fill="none" stroke="black" d="M118,-122.11C118,-141.34 118,-169 118,-169 118,-169 281.59,-169 281.59,-169"/>
<polygon fill="black" stroke="black" points="281.59,-172.5 291.59,-169 281.59,-165.5 281.59,-172.5"/>
</g>
</g>
</svg>
