<?xml version="1.0" encoding="UTF-8" standalone="no"?>
<!DOCTYPE svg PUBLIC "-//W3C//DTD SVG 1.1//EN"
 "http://www.w3.org/Graphics/SVG/1.1/DTD/svg11.dtd">
<!-- Generated by graphviz version 2.47.0 (20210316.0004)
 -->
<!-- Title: dependencies Pages: 1 -->
<svg width="1103pt" height="211pt"
 viewBox="0.00 0.00 1103.00 211.00" xmlns="http://www.w3.org/2000/svg" xmlns:xlink="http://www.w3.org/1999/xlink">
<g id="graph0" class="graph" transform="scale(1 1) rotate(0) translate(4 207)">
<title>dependencies</title>
<polygon fill="white" stroke="transparent" points="-4,4 -4,-207 1099,-207 1099,4 -4,4"/>
<text text-anchor="start" x="526.51" y="-42.4" font-family="Times-12" font-weight="bold" font-size="14.00">Legend</text>
<polygon fill="#ffffb3" stroke="transparent" points="313.5,-10 313.5,-30 333.5,-30 333.5,-10 313.5,-10"/>
<text text-anchor="start" x="337.13" y="-15.4" font-family="Times-12" font-size="14.00"> &#160;Declarations</text>
<polygon fill="#8dd3c7" stroke="transparent" points="426.5,-10 426.5,-30 446.5,-30 446.5,-10 426.5,-10"/>
<text text-anchor="start" x="450.23" y="-15.4" font-family="Times-12" font-size="14.00"> &#160;Module</text>
<polygon fill="#80b1d3" stroke="transparent" points="512.5,-10 512.5,-30 532.5,-30 532.5,-10 512.5,-10"/>
<text text-anchor="start" x="536.28" y="-15.4" font-family="Times-12" font-size="14.00"> &#160;Bootstrap</text>
<polygon fill="#fdb462" stroke="transparent" points="609.5,-10 609.5,-30 629.5,-30 629.5,-10 609.5,-10"/>
<text text-anchor="start" x="633.17" y="-15.4" font-family="Times-12" font-size="14.00"> &#160;Providers</text>
<polygon fill="#fb8072" stroke="transparent" points="705.5,-10 705.5,-30 725.5,-30 725.5,-10 705.5,-10"/>
<text text-anchor="start" x="729.23" y="-15.4" font-family="Times-12" font-size="14.00"> &#160;Exports</text>
<g id="clust1" class="cluster">
<title>cluster_CoreTestingModule</title>
<polygon fill="none" stroke="black" stroke-dasharray="1,5" points="8,-70 8,-195 1087,-195 1087,-70 8,-70"/>
</g>
<g id="clust3" class="cluster">
<title>cluster_CoreTestingModule_imports</title>
<polygon fill="none" stroke="black" points="792,-78 792,-130 1079,-130 1079,-78 792,-78"/>
</g>
<g id="clust6" class="cluster">
<title>cluster_CoreTestingModule_providers</title>
<polygon fill="none" stroke="black" points="16,-78 16,-130 784,-130 784,-78 16,-78"/>
</g>
<!-- ConfigurableEnumModule -->
<g id="node1" class="node">
<title>ConfigurableEnumModule</title>
<polygon fill="#8dd3c7" stroke="black" points="1071.36,-122 1068.36,-126 1047.36,-126 1044.36,-122 904.64,-122 904.64,-86 1071.36,-86 1071.36,-122"/>
<text text-anchor="middle" x="988" y="-99.8" font-family="Times,serif" font-size="14.00">ConfigurableEnumModule</text>
</g>
<!-- CoreTestingModule -->
<g id="node3" class="node">
<title>CoreTestingModule</title>
<polygon fill="#8dd3c7" stroke="black" points="629.25,-187 626.25,-191 605.25,-191 602.25,-187 500.75,-187 500.75,-151 629.25,-151 629.25,-187"/>
<text text-anchor="middle" x="565" y="-164.8" font-family="Times,serif" font-size="14.00">CoreTestingModule</text>
</g>
<!-- ConfigurableEnumModule&#45;&gt;CoreTestingModule -->
<g id="edge1" class="edge">
<title>ConfigurableEnumModule&#45;&gt;CoreTestingModule</title>
<path fill="none" stroke="black" d="M988,-122.28C988,-143.32 988,-175 988,-175 988,-175 639.71,-175 639.71,-175"/>
<polygon fill="black" stroke="black" points="639.71,-171.5 629.71,-175 639.71,-178.5 639.71,-171.5"/>
</g>
<!-- CoreModule -->
<g id="node2" class="node">
<title>CoreModule</title>
<polygon fill="#8dd3c7" stroke="black" points="886.26,-122 883.26,-126 862.26,-126 859.26,-122 799.74,-122 799.74,-86 886.26,-86 886.26,-122"/>
<text text-anchor="middle" x="843" y="-99.8" font-family="Times,serif" font-size="14.00">CoreModule</text>
</g>
<!-- CoreModule&#45;&gt;CoreTestingModule -->
<g id="edge2" class="edge">
<title>CoreModule&#45;&gt;CoreTestingModule</title>
<path fill="none" stroke="black" d="M843,-122.02C843,-139.37 843,-163 843,-163 843,-163 639.48,-163 639.48,-163"/>
<polygon fill="black" stroke="black" points="639.48,-159.5 629.48,-163 639.48,-166.5 639.48,-159.5"/>
</g>
<!-- ConfigurableEnumService -->
<g id="node4" class="node">
<title>ConfigurableEnumService</title>
<ellipse fill="#fdb462" stroke="black" cx="662" cy="-104" rx="114.03" ry="18"/>
<text text-anchor="middle" x="662" y="-99.8" font-family="Times,serif" font-size="14.00">ConfigurableEnumService</text>
</g>
<!-- ConfigurableEnumService&#45;&gt;CoreTestingModule -->
<g id="edge3" class="edge">
<title>ConfigurableEnumService&#45;&gt;CoreTestingModule</title>
<path fill="none" stroke="black" d="M588.68,-117.78C588.68,-117.78 588.68,-140.55 588.68,-140.55"/>
<polygon fill="black" stroke="black" points="585.18,-140.55 588.68,-150.55 592.18,-140.55 585.18,-140.55"/>
</g>
<!-- EntityAbility -->
<g id="node5" class="node">
<title>EntityAbility</title>
<ellipse fill="#fdb462" stroke="black" cx="468" cy="-104" rx="62.01" ry="18"/>
<text text-anchor="middle" x="468" y="-99.8" font-family="Times,serif" font-size="14.00">EntityAbility</text>
</g>
<!-- EntityAbility&#45;&gt;CoreTestingModule -->
<g id="edge4" class="edge">
<title>EntityAbility&#45;&gt;CoreTestingModule</title>
<path fill="none" stroke="black" d="M515.31,-115.92C515.31,-115.92 515.31,-140.77 515.31,-140.77"/>
<polygon fill="black" stroke="black" points="511.81,-140.77 515.31,-150.77 518.81,-140.77 511.81,-140.77"/>
</g>
<!-- EntitySchemaService -->
<g id="node6" class="node">
<title>EntitySchemaService</title>
<ellipse fill="#fdb462" stroke="black" cx="294" cy="-104" rx="94.34" ry="18"/>
<text text-anchor="middle" x="294" y="-99.8" font-family="Times,serif" font-size="14.00">EntitySchemaService</text>
</g>
<!-- EntitySchemaService&#45;&gt;CoreTestingModule -->
<g id="edge5" class="edge">
<title>EntitySchemaService&#45;&gt;CoreTestingModule</title>
<path fill="none" stroke="black" d="M294,-122.02C294,-139.37 294,-163 294,-163 294,-163 490.43,-163 490.43,-163"/>
<polygon fill="black" stroke="black" points="490.43,-166.5 500.43,-163 490.43,-159.5 490.43,-166.5"/>
</g>
<!-- SyncStateSubject -->
<g id="node7" class="node">
<title>SyncStateSubject</title>
<ellipse fill="#fdb462" stroke="black" cx="103" cy="-104" rx="78.75" ry="18"/>
<text text-anchor="middle" x="103" y="-99.8" font-family="Times,serif" font-size="14.00">SyncStateSubject</text>
</g>
<!-- SyncStateSubject&#45;&gt;CoreTestingModule -->
<g id="edge6" class="edge">
<title>SyncStateSubject&#45;&gt;CoreTestingModule</title>
<path fill="none" stroke="black" d="M103,-122.28C103,-143.32 103,-175 103,-175 103,-175 490.27,-175 490.27,-175"/>
<polygon fill="black" stroke="black" points="490.27,-178.5 500.27,-175 490.27,-171.5 490.27,-178.5"/>
</g>
</g>
</svg>
