<?xml version="1.0" encoding="UTF-8" standalone="no"?>
<!DOCTYPE svg PUBLIC "-//W3C//DTD SVG 1.1//EN"
 "http://www.w3.org/Graphics/SVG/1.1/DTD/svg11.dtd">
<!-- Generated by graphviz version 2.47.0 (20210316.0004)
 -->
<!-- Title: dependencies Pages: 1 -->
<svg width="832pt" height="211pt"
 viewBox="0.00 0.00 832.00 211.00" xmlns="http://www.w3.org/2000/svg" xmlns:xlink="http://www.w3.org/1999/xlink">
<g id="graph0" class="graph" transform="scale(1 1) rotate(0) translate(4 207)">
<title>dependencies</title>
<polygon fill="white" stroke="transparent" points="-4,4 -4,-207 828,-207 828,4 -4,4"/>
<text text-anchor="start" x="391.01" y="-42.4" font-family="Times-12" font-weight="bold" font-size="14.00">Legend</text>
<polygon fill="#ffffb3" stroke="transparent" points="178,-10 178,-30 198,-30 198,-10 178,-10"/>
<text text-anchor="start" x="201.63" y="-15.4" font-family="Times-12" font-size="14.00"> &#160;Declarations</text>
<polygon fill="#8dd3c7" stroke="transparent" points="291,-10 291,-30 311,-30 311,-10 291,-10"/>
<text text-anchor="start" x="314.73" y="-15.4" font-family="Times-12" font-size="14.00"> &#160;Module</text>
<polygon fill="#80b1d3" stroke="transparent" points="377,-10 377,-30 397,-30 397,-10 377,-10"/>
<text text-anchor="start" x="400.78" y="-15.4" font-family="Times-12" font-size="14.00"> &#160;Bootstrap</text>
<polygon fill="#fdb462" stroke="transparent" points="474,-10 474,-30 494,-30 494,-10 474,-10"/>
<text text-anchor="start" x="497.67" y="-15.4" font-family="Times-12" font-size="14.00"> &#160;Providers</text>
<polygon fill="#fb8072" stroke="transparent" points="570,-10 570,-30 590,-30 590,-10 570,-10"/>
<text text-anchor="start" x="593.73" y="-15.4" font-family="Times-12" font-size="14.00"> &#160;Exports</text>
<g id="clust1" class="cluster">
<title>cluster_SessionModule</title>
<polygon fill="none" stroke="black" stroke-dasharray="1,5" points="8,-70 8,-195 816,-195 816,-70 8,-70"/>
</g>
<g id="clust6" class="cluster">
<title>cluster_SessionModule_providers</title>
<polygon fill="none" stroke="black" points="16,-78 16,-130 808,-130 808,-78 16,-78"/>
</g>
<!-- KeycloakAuthService -->
<g id="node1" class="node">
<title>KeycloakAuthService</title>
<ellipse fill="#fdb462" stroke="black" cx="704" cy="-104" rx="96.11" ry="18"/>
<text text-anchor="middle" x="704" y="-99.8" font-family="Times,serif" font-size="14.00">KeycloakAuthService</text>
</g>
<!-- SessionModule -->
<g id="node5" class="node">
<title>SessionModule</title>
<polygon fill="#8dd3c7" stroke="black" points="456.33,-187 453.33,-191 432.33,-191 429.33,-187 353.67,-187 353.67,-151 456.33,-151 456.33,-187"/>
<text text-anchor="middle" x="405" y="-164.8" font-family="Times,serif" font-size="14.00">SessionModule</text>
</g>
<!-- KeycloakAuthService&#45;&gt;SessionModule -->
<g id="edge1" class="edge">
<title>KeycloakAuthService&#45;&gt;SessionModule</title>
<path fill="none" stroke="black" d="M704,-122.11C704,-141.34 704,-169 704,-169 704,-169 466.4,-169 466.4,-169"/>
<polygon fill="black" stroke="black" points="466.4,-165.5 456.4,-169 466.4,-172.5 466.4,-165.5"/>
</g>
<!-- LoginStateSubject -->
<g id="node2" class="node">
<title>LoginStateSubject</title>
<ellipse fill="#fdb462" stroke="black" cx="507" cy="-104" rx="82.26" ry="18"/>
<text text-anchor="middle" x="507" y="-99.8" font-family="Times,serif" font-size="14.00">LoginStateSubject</text>
</g>
<!-- LoginStateSubject&#45;&gt;SessionModule -->
<g id="edge2" class="edge">
<title>LoginStateSubject&#45;&gt;SessionModule</title>
<path fill="none" stroke="black" d="M440.39,-114.73C440.39,-114.73 440.39,-140.87 440.39,-140.87"/>
<polygon fill="black" stroke="black" points="436.89,-140.87 440.39,-150.87 443.89,-140.87 436.89,-140.87"/>
</g>
<!-- SessionManagerService -->
<g id="node3" class="node">
<title>SessionManagerService</title>
<ellipse fill="#fdb462" stroke="black" cx="303" cy="-104" rx="103.63" ry="18"/>
<text text-anchor="middle" x="303" y="-99.8" font-family="Times,serif" font-size="14.00">SessionManagerService</text>
</g>
<!-- SessionManagerService&#45;&gt;SessionModule -->
<g id="edge3" class="edge">
<title>SessionManagerService&#45;&gt;SessionModule</title>
<path fill="none" stroke="black" d="M380.33,-116.23C380.33,-116.23 380.33,-140.68 380.33,-140.68"/>
<polygon fill="black" stroke="black" points="376.83,-140.68 380.33,-150.68 383.83,-140.68 376.83,-140.68"/>
</g>
<!-- SyncStateSubject -->
<g id="node4" class="node">
<title>SyncStateSubject</title>
<ellipse fill="#fdb462" stroke="black" cx="103" cy="-104" rx="78.75" ry="18"/>
<text text-anchor="middle" x="103" y="-99.8" font-family="Times,serif" font-size="14.00">SyncStateSubject</text>
</g>
<!-- SyncStateSubject&#45;&gt;SessionModule -->
<g id="edge4" class="edge">
<title>SyncStateSubject&#45;&gt;SessionModule</title>
<path fill="none" stroke="black" d="M103,-122.11C103,-141.34 103,-169 103,-169 103,-169 343.77,-169 343.77,-169"/>
<polygon fill="black" stroke="black" points="343.77,-172.5 353.77,-169 343.77,-165.5 343.77,-172.5"/>
</g>
</g>
</svg>
