<?xml version="1.0" encoding="UTF-8" standalone="no"?>
<!DOCTYPE svg PUBLIC "-//W3C//DTD SVG 1.1//EN"
 "http://www.w3.org/Graphics/SVG/1.1/DTD/svg11.dtd">
<!-- Generated by graphviz version 2.40.1 (20161225.0304)
 -->
<!-- Title: dependencies Pages: 1 -->
<svg width="850pt" height="284pt"
 viewBox="0.00 0.00 850.00 284.00" xmlns="http://www.w3.org/2000/svg" xmlns:xlink="http://www.w3.org/1999/xlink">
<g id="graph0" class="graph" transform="scale(1 1) rotate(0) translate(4 280)">
<title>dependencies</title>
<polygon fill="#ffffff" stroke="transparent" points="-4,4 -4,-280 846,-280 846,4 -4,4"/>
<text text-anchor="start" x="400.0091" y="-42.4" font-family="sans-serif" font-weight="bold" font-size="14.00" fill="#000000">Legend</text>
<polygon fill="#ffffb3" stroke="transparent" points="187,-10 187,-30 207,-30 207,-10 187,-10"/>
<text text-anchor="start" x="210.629" y="-15.4" font-family="sans-serif" font-size="14.00" fill="#000000"> &#160;Declarations</text>
<polygon fill="#8dd3c7" stroke="transparent" points="300,-10 300,-30 320,-30 320,-10 300,-10"/>
<text text-anchor="start" x="323.7251" y="-15.4" font-family="sans-serif" font-size="14.00" fill="#000000"> &#160;Module</text>
<polygon fill="#80b1d3" stroke="transparent" points="386,-10 386,-30 406,-30 406,-10 386,-10"/>
<text text-anchor="start" x="409.7812" y="-15.4" font-family="sans-serif" font-size="14.00" fill="#000000"> &#160;Bootstrap</text>
<polygon fill="#fdb462" stroke="transparent" points="483,-10 483,-30 503,-30 503,-10 483,-10"/>
<text text-anchor="start" x="506.6732" y="-15.4" font-family="sans-serif" font-size="14.00" fill="#000000"> &#160;Providers</text>
<polygon fill="#fb8072" stroke="transparent" points="579,-10 579,-30 599,-30 599,-10 579,-10"/>
<text text-anchor="start" x="602.7258" y="-15.4" font-family="sans-serif" font-size="14.00" fill="#000000"> &#160;Exports</text>
<g id="clust1" class="cluster">
<title>cluster_SchoolsModule</title>
<polygon fill="none" stroke="#000000" stroke-dasharray="1,5" points="8,-70 8,-268 834,-268 834,-70 8,-70"/>
</g>
<g id="clust2" class="cluster">
<title>cluster_SchoolsModule_declarations</title>
<polygon fill="none" stroke="#000000" points="318,-78 318,-130 826,-130 826,-78 318,-78"/>
</g>
<g id="clust6" class="cluster">
<title>cluster_SchoolsModule_imports</title>
<polygon fill="none" stroke="#000000" points="182,-78 182,-130 310,-130 310,-78 182,-78"/>
</g>
<g id="clust7" class="cluster">
<title>cluster_SchoolsModule_exports</title>
<polygon fill="none" stroke="#000000" points="313,-208 313,-260 487,-260 487,-208 313,-208"/>
</g>
<g id="clust9" class="cluster">
<title>cluster_SchoolsModule_providers</title>
<polygon fill="none" stroke="#000000" points="16,-78 16,-130 174,-130 174,-78 16,-78"/>
</g>
<!-- SchoolBlockComponent -->
<g id="node1" class="node">
<title>SchoolBlockComponent</title>
<polygon fill="#ffffb3" stroke="#000000" points="817.6624,-122 664.3376,-122 664.3376,-86 817.6624,-86 817.6624,-122"/>
<text text-anchor="middle" x="741" y="-99.8" font-family="Times,serif" font-size="14.00" fill="#000000">SchoolBlockComponent</text>
</g>
<!-- SchoolsModule -->
<g id="node4" class="node">
<title>SchoolsModule</title>
<polygon fill="#8dd3c7" stroke="#000000" points="451.8823,-187 448.8823,-191 427.8823,-191 424.8823,-187 348.1177,-187 348.1177,-151 451.8823,-151 451.8823,-187"/>
<text text-anchor="middle" x="400" y="-164.8" font-family="Times,serif" font-size="14.00" fill="#000000">SchoolsModule</text>
</g>
<!-- SchoolBlockComponent&#45;&gt;SchoolsModule -->
<g id="edge1" class="edge">
<title>SchoolBlockComponent&#45;&gt;SchoolsModule</title>
<path fill="none" stroke="#000000" d="M741,-122.2843C741,-143.3211 741,-175 741,-175 741,-175 462.1618,-175 462.1618,-175"/>
<polygon fill="#000000" stroke="#000000" points="462.1618,-171.5001 452.1618,-175 462.1617,-178.5001 462.1618,-171.5001"/>
</g>
<!-- SchoolDetailComponent -->
<g id="node2" class="node">
<title>SchoolDetailComponent</title>
<polygon fill="#ffffb3" stroke="#000000" points="646.4284,-122 491.5716,-122 491.5716,-86 646.4284,-86 646.4284,-122"/>
<text text-anchor="middle" x="569" y="-99.8" font-family="Times,serif" font-size="14.00" fill="#000000">SchoolDetailComponent</text>
</g>
<!-- SchoolDetailComponent&#45;&gt;SchoolsModule -->
<g id="edge2" class="edge">
<title>SchoolDetailComponent&#45;&gt;SchoolsModule</title>
<path fill="none" stroke="#000000" d="M569,-122.0225C569,-139.3734 569,-163 569,-163 569,-163 462.0846,-163 462.0846,-163"/>
<polygon fill="#000000" stroke="#000000" points="462.0846,-159.5001 452.0846,-163 462.0845,-166.5001 462.0846,-159.5001"/>
</g>
<!-- SchoolsListComponent -->
<g id="node3" class="node">
<title>SchoolsListComponent</title>
<polygon fill="#ffffb3" stroke="#000000" points="473.9439,-122 326.0561,-122 326.0561,-86 473.9439,-86 473.9439,-122"/>
<text text-anchor="middle" x="400" y="-99.8" font-family="Times,serif" font-size="14.00" fill="#000000">SchoolsListComponent</text>
</g>
<!-- SchoolsListComponent&#45;&gt;SchoolsModule -->
<g id="edge3" class="edge">
<title>SchoolsListComponent&#45;&gt;SchoolsModule</title>
<path fill="none" stroke="#000000" d="M400,-122.1061C400,-122.1061 400,-140.991 400,-140.991"/>
<polygon fill="#000000" stroke="#000000" points="396.5001,-140.9909 400,-150.991 403.5001,-140.991 396.5001,-140.9909"/>
</g>
<!-- SchoolBlockComponent  -->
<g id="node6" class="node">
<title>SchoolBlockComponent </title>
<polygon fill="#fb8072" stroke="#000000" points="478.6621,-252 321.3379,-252 321.3379,-216 478.6621,-216 478.6621,-252"/>
<text text-anchor="middle" x="400" y="-229.8" font-family="Times,serif" font-size="14.00" fill="#000000">SchoolBlockComponent </text>
</g>
<!-- SchoolsModule&#45;&gt;SchoolBlockComponent  -->
<g id="edge5" class="edge">
<title>SchoolsModule&#45;&gt;SchoolBlockComponent </title>
<path fill="none" stroke="#000000" stroke-dasharray="5,2" d="M400,-187.1061C400,-187.1061 400,-205.991 400,-205.991"/>
<polygon fill="#000000" stroke="#000000" points="396.5001,-205.9909 400,-215.991 403.5001,-205.991 396.5001,-205.9909"/>
</g>
<!-- UiHelperModule -->
<g id="node5" class="node">
<title>UiHelperModule</title>
<polygon fill="#8dd3c7" stroke="#000000" points="301.6346,-122 298.6346,-126 277.6346,-126 274.6346,-122 190.3654,-122 190.3654,-86 301.6346,-86 301.6346,-122"/>
<text text-anchor="middle" x="246" y="-99.8" font-family="Times,serif" font-size="14.00" fill="#000000">UiHelperModule</text>
</g>
<!-- UiHelperModule&#45;&gt;SchoolsModule -->
<g id="edge4" class="edge">
<title>UiHelperModule&#45;&gt;SchoolsModule</title>
<path fill="none" stroke="#000000" d="M246,-122.0225C246,-139.3734 246,-163 246,-163 246,-163 337.8626,-163 337.8626,-163"/>
<polygon fill="#000000" stroke="#000000" points="337.8627,-166.5001 347.8626,-163 337.8626,-159.5001 337.8627,-166.5001"/>
</g>
<!-- SchoolsService -->
<g id="node7" class="node">
<title>SchoolsService</title>
<ellipse fill="#fdb462" stroke="#000000" cx="95" cy="-104" rx="70.6432" ry="18"/>
<text text-anchor="middle" x="95" y="-99.8" font-family="Times,serif" font-size="14.00" fill="#000000">SchoolsService</text>
</g>
<!-- SchoolsService&#45;&gt;SchoolsModule -->
<g id="edge6" class="edge">
<title>SchoolsService&#45;&gt;SchoolsModule</title>
<path fill="none" stroke="#000000" d="M95,-122.2843C95,-143.3211 95,-175 95,-175 95,-175 337.9152,-175 337.9152,-175"/>
<polygon fill="#000000" stroke="#000000" points="337.9152,-178.5001 347.9152,-175 337.9151,-171.5001 337.9152,-178.5001"/>
</g>
</g>
</svg>
